<svg width="246" height="246" viewBox="0 0 246 246" fill="none" xmlns="http://www.w3.org/2000/svg">
<path d="M245.215 245.32L245.215 0.929932L0.824921 0.929932L0.824921 245.32L245.215 245.32Z" fill="white" stroke="#1F2528" stroke-miterlimit="10"/>
<path d="M204.335 204.44V41.8101L41.7049 41.8101V204.44H204.335Z" fill="#D6D6D6" stroke="#1F2528" stroke-miterlimit="10"/>
<path d="M61.9249 245.32C95.6695 245.32 123.025 217.964 123.025 184.22C123.025 150.475 95.6695 123.12 61.9249 123.12C28.1803 123.12 0.824921 150.475 0.824921 184.22C0.824921 217.964 28.1803 245.32 61.9249 245.32Z" fill="#FF6D39" stroke="#1F2528" stroke-miterlimit="10"/>
<path d="M184.115 245.32C217.86 245.32 245.215 217.964 245.215 184.22C245.215 150.475 217.86 123.12 184.115 123.12C150.37 123.12 123.015 150.475 123.015 184.22C123.015 217.964 150.37 245.32 184.115 245.32Z" fill="#15A620" stroke="#1F2528" stroke-miterlimit="10"/>
<path d="M184.115 123.13C217.86 123.13 245.215 95.7746 245.215 62.03C245.215 28.2854 217.86 0.929932 184.115 0.929932C150.37 0.929932 123.015 28.2854 123.015 62.03C123.015 95.7746 150.37 123.13 184.115 123.13Z" fill="#D1C700" stroke="#1F2528" stroke-miterlimit="10"/>
<path d="M61.9249 123.13C95.6695 123.13 123.025 95.7746 123.025 62.03C123.025 28.2854 95.6695 0.929932 61.9249 0.929932C28.1803 0.929932 0.824921 28.2854 0.824921 62.03C0.824921 95.7746 28.1803 123.13 61.9249 123.13Z" fill="#F7B5ED" stroke="#1F2528" stroke-miterlimit="10"/>
<path d="M184.115 123.13C217.86 123.13 245.215 95.7746 245.215 62.03C245.215 28.2854 217.86 0.929932 184.115 0.929932C150.37 0.929932 123.015 28.2854 123.015 62.03C123.015 95.7746 150.37 123.13 184.115 123.13Z" fill="#FF6D39" stroke="#1F2528" stroke-miterlimit="10"/>
<path d="M61.9249 123.13C95.6695 123.13 123.025 95.7746 123.025 62.03C123.025 28.2854 95.6695 0.929932 61.9249 0.929932C28.1803 0.929932 0.824921 28.2854 0.824921 62.03C0.824921 95.7746 28.1803 123.13 61.9249 123.13Z" fill="#15A620" stroke="#1F2528" stroke-miterlimit="10"/>
<path d="M61.9249 245.32C95.6695 245.32 123.025 217.964 123.025 184.22C123.025 150.475 95.6695 123.12 61.9249 123.12C28.1803 123.12 0.824921 150.475 0.824921 184.22C0.824921 217.964 28.1803 245.32 61.9249 245.32Z" fill="#D1C700" stroke="#1F2528" stroke-miterlimit="10"/>
<path d="M184.115 245.32C217.86 245.32 245.215 217.964 245.215 184.22C245.215 150.475 217.86 123.12 184.115 123.12C150.37 123.12 123.015 150.475 123.015 184.22C123.015 217.964 150.37 245.32 184.115 245.32Z" fill="#F7B5ED" stroke="#1F2528" stroke-miterlimit="10"/>
<path d="M226.635 226.74V19.51L19.4049 19.51V226.74H226.635Z" fill="#D6D6D6" stroke="#1F2528" stroke-miterlimit="10"/>
<mask id="mask0_1018_139" style="mask-type:luminance" maskUnits="userSpaceOnUse" x="19" y="19" width="208" height="208">
<path d="M226.635 226.74V19.51L19.4049 19.51V226.74H226.635Z" fill="white"/>
</mask>
<g mask="url(#mask0_1018_139)">
<path d="M61.9249 123.13C95.6695 123.13 123.025 95.7746 123.025 62.03C123.025 28.2854 95.6695 0.929932 61.9249 0.929932C28.1803 0.929932 0.824921 28.2854 0.824921 62.03C0.824921 95.7746 28.1803 123.13 61.9249 123.13Z" fill="#FF6D39" stroke="#1F2528" stroke-miterlimit="10"/>
<path d="M61.9249 245.32C95.6695 245.32 123.025 217.964 123.025 184.22C123.025 150.475 95.6695 123.12 61.9249 123.12C28.1803 123.12 0.824921 150.475 0.824921 184.22C0.824921 217.964 28.1803 245.32 61.9249 245.32Z" fill="#15A620" stroke="#1F2528" stroke-miterlimit="10"/>
<path d="M184.115 245.32C217.86 245.32 245.215 217.964 245.215 184.22C245.215 150.475 217.86 123.12 184.115 123.12C150.37 123.12 123.015 150.475 123.015 184.22C123.015 217.964 150.37 245.32 184.115 245.32Z" fill="#D1C700" stroke="#1F2528" stroke-miterlimit="10"/>
<path d="M184.115 123.13C217.86 123.13 245.215 95.7746 245.215 62.03C245.215 28.2854 217.86 0.929932 184.115 0.929932C150.37 0.929932 123.015 28.2854 123.015 62.03C123.015 95.7746 150.37 123.13 184.115 123.13Z" fill="#F7B5ED" stroke="#1F2528" stroke-miterlimit="10"/>
</g>
<path d="M226.635 226.74V19.51L19.4049 19.51V226.74H226.635Z" stroke="#1F2528" stroke-miterlimit="10"/>
<path d="M184.115 62.03H61.9249V184.22H184.115V62.03Z" fill="#1F2528" stroke="#1F2528" stroke-miterlimit="10"/>
<mask id="mask1_1018_139" style="mask-type:luminance" maskUnits="userSpaceOnUse" x="61" y="62" width="124" height="123">
<path d="M184.115 184.22V62.0298L61.925 62.0298L61.925 184.22H184.115Z" fill="white"/>
</mask>
<g mask="url(#mask1_1018_139)">
<path d="M61.9249 245.32C95.6695 245.32 123.025 217.964 123.025 184.22C123.025 150.475 95.6695 123.12 61.9249 123.12C28.1803 123.12 0.824921 150.475 0.824921 184.22C0.824921 217.964 28.1803 245.32 61.9249 245.32Z" fill="#FF6D39" stroke="#1F2528" stroke-miterlimit="10"/>
<path d="M184.115 245.32C217.86 245.32 245.215 217.964 245.215 184.22C245.215 150.475 217.86 123.12 184.115 123.12C150.37 123.12 123.015 150.475 123.015 184.22C123.015 217.964 150.37 245.32 184.115 245.32Z" fill="#15A620" stroke="#1F2528" stroke-miterlimit="10"/>
<path d="M184.115 123.13C217.86 123.13 245.215 95.7743 245.215 62.0297C245.215 28.2851 217.86 0.929688 184.115 0.929688C150.37 0.929688 123.015 28.2851 123.015 62.0297C123.015 95.7743 150.37 123.13 184.115 123.13Z" fill="#D1C700" stroke="#1F2528" stroke-miterlimit="10"/>
<path d="M61.9249 123.13C95.6695 123.13 123.025 95.7743 123.025 62.0297C123.025 28.2851 95.6695 0.929688 61.9249 0.929688C28.1803 0.929688 0.824921 28.2851 0.824921 62.0297C0.824921 95.7743 28.1803 123.13 61.9249 123.13Z" fill="#F7B5ED" stroke="#1F2528" stroke-miterlimit="10"/>
</g>
<path d="M184.115 184.22V62.0298L61.925 62.0298L61.925 184.22H184.115Z" stroke="#1F2528" stroke-miterlimit="10"/>
</svg>
