<svg width="228" height="224" viewBox="0 0 228 224" fill="none" xmlns="http://www.w3.org/2000/svg">
<path d="M10.7349 0.303467V223.433" stroke="#D6D6D6" stroke-miterlimit="10"/>
<path d="M45.1449 0.303467V223.433" stroke="#D6D6D6" stroke-miterlimit="10"/>
<path d="M79.5649 0.303467V223.433" stroke="#D6D6D6" stroke-miterlimit="10"/>
<path d="M113.985 0.303467V223.433" stroke="#D6D6D6" stroke-miterlimit="10"/>
<path d="M148.395 0.303467V223.433" stroke="#D6D6D6" stroke-miterlimit="10"/>
<path d="M182.815 0.303467V223.433" stroke="#D6D6D6" stroke-miterlimit="10"/>
<path d="M217.225 0.303467V223.433" stroke="#D6D6D6" stroke-miterlimit="10"/>
<path d="M20.5249 37.8936H207.435" stroke="#1F2528" stroke-miterlimit="10"/>
<path d="M110.825 6.49341H58.6049C41.2632 6.49341 27.2049 20.5517 27.2049 37.8934C27.2049 55.2351 41.2632 69.2934 58.6049 69.2934H110.825C128.167 69.2934 142.225 55.2351 142.225 37.8934C142.225 20.5517 128.167 6.49341 110.825 6.49341Z" fill="#FF6D39" stroke="#1F2528" stroke-miterlimit="10"/>
<path d="M20.5219 37.8945L10.7285 28.1011L0.935056 37.8945L10.7285 47.6879L20.5219 37.8945Z" fill="#1F2528" stroke="#1F2528" stroke-width="0.84" stroke-miterlimit="10"/>
<path d="M227.019 37.8918L217.226 28.0984L207.433 37.8918L217.226 47.6853L227.019 37.8918Z" fill="#1F2528" stroke="#1F2528" stroke-width="0.84" stroke-miterlimit="10"/>
<path d="M20.5249 111.874H207.435" stroke="#1F2528" stroke-miterlimit="10"/>
<path d="M171.175 80.4734H118.955C101.613 80.4734 87.5549 94.5316 87.5549 111.873C87.5549 129.215 101.613 143.273 118.955 143.273H171.175C188.517 143.273 202.575 129.215 202.575 111.873C202.575 94.5316 188.517 80.4734 171.175 80.4734Z" fill="#D1C700" stroke="#1F2528" stroke-miterlimit="10"/>
<path d="M20.5272 111.869L10.7338 102.076L0.940367 111.869L10.7338 121.663L20.5272 111.869Z" fill="#1F2528" stroke="#1F2528" stroke-width="0.84" stroke-miterlimit="10"/>
<path d="M227.025 111.867L217.231 102.073L207.438 111.867L217.231 121.66L227.025 111.867Z" fill="#1F2528" stroke="#1F2528" stroke-width="0.84" stroke-miterlimit="10"/>
<path d="M20.5249 185.844H207.435" stroke="#1F2528" stroke-miterlimit="10"/>
<path d="M121.365 154.443H69.1449C51.8032 154.443 37.7449 168.502 37.7449 185.843C37.7449 203.185 51.8032 217.243 69.1449 217.243H121.365C138.707 217.243 152.765 203.185 152.765 185.843C152.765 168.502 138.707 154.443 121.365 154.443Z" fill="#F7B5ED" stroke="#1F2528" stroke-miterlimit="10"/>
<path d="M20.5255 185.851L10.7321 176.057L0.938623 185.851L10.7321 195.644L20.5255 185.851Z" fill="#1F2528" stroke="#1F2528" stroke-width="0.84" stroke-miterlimit="10"/>
<path d="M227.023 185.848L217.23 176.055L207.436 185.848L217.23 195.642L227.023 185.848Z" fill="#1F2528" stroke="#1F2528" stroke-width="0.84" stroke-miterlimit="10"/>
<path d="M118.955 143.273C136.297 143.273 150.355 129.215 150.355 111.873C150.355 94.5316 136.297 80.4734 118.955 80.4734C101.613 80.4734 87.5549 94.5316 87.5549 111.873C87.5549 129.215 101.613 143.273 118.955 143.273Z" fill="#1F2528" stroke="#1F2528" stroke-miterlimit="10"/>
<path d="M110.815 69.2934C128.157 69.2934 142.215 55.2351 142.215 37.8934C142.215 20.5517 128.157 6.49341 110.815 6.49341C93.4732 6.49341 79.4149 20.5517 79.4149 37.8934C79.4149 55.2351 93.4732 69.2934 110.815 69.2934Z" fill="#F7B5ED" stroke="#1F2528" stroke-miterlimit="10"/>
<path d="M69.2749 217.243C86.6167 217.243 100.675 203.185 100.675 185.843C100.675 168.502 86.6167 154.443 69.2749 154.443C51.9332 154.443 37.8749 168.502 37.8749 185.843C37.8749 203.185 51.9332 217.243 69.2749 217.243Z" fill="#15A620" stroke="#1F2528" stroke-miterlimit="10"/>
</svg>
