<svg xmlns="http://www.w3.org/2000/svg" viewBox="0 0 99.9 99.9"><defs><style>.cls-1{fill:#fff;}</style></defs><title>HTML5-icon-2</title><g id="Layer_2" data-name="Layer 2"><g id="Layer_1-2" data-name="Layer 1"><path class="cls-1" d="M99.23,41.67,84.61,35.61l6-14.52a49,49,0,0,0-5-6l-.33-.35c-.19-.19-.39-.37-.6-.55a49,49,0,0,0-5.82-4.84l-14.53,6L58.26.69A49.35,49.35,0,0,0,42.54.57h-.25a5.84,5.84,0,0,0-.63.13L35.6,15.28,21,9.25A49.33,49.33,0,0,0,9.73,20.34a1.47,1.47,0,0,0-.1.13c-.13.18-.25.36-.37.55l6,14.57L.68,41.65a50.11,50.11,0,0,0-.12,15.7,2.48,2.48,0,0,0,0,.27c0,.22.07.43.11.64l14.59,6-6,14.57a51,51,0,0,0,4.51,5.54c.29.3.55.62.87.91s.44.42.66.63A50.57,50.57,0,0,0,21,90.66L35.56,84.6l6,14.59.66.13h.17a49.49,49.49,0,0,0,15.79-.11L64.28,84.6l14.58,6a4,4,0,0,0,.54-.37,1.58,1.58,0,0,0,.18-.13A50.18,50.18,0,0,0,90.65,79L84.59,64.33l14.59-6c0-.2.08-.43.13-.65v-.2A49.31,49.31,0,0,0,99.23,41.67Zm-11.82,11L72,59.05v.06h0l6.37,15.38a35.45,35.45,0,0,1-3.88,3.87L59.1,72v0h0L52.69,87.43a41.45,41.45,0,0,1-5.46,0L40.85,72h0V72L25.35,78.4a6.12,6.12,0,0,1-.49-.4c-.52-.45-1-1-1.48-1.46s-1-1-1.46-1.46c-.13-.15-.25-.34-.39-.5l6.39-15.44h-.05l0,0L12.5,52.7a38.27,38.27,0,0,1,0-5.46l15.37-6.37v0h0L21.53,25.4a38.11,38.11,0,0,1,3.86-3.87l15.38,6.36v0h0l6.38-15.38a38.27,38.27,0,0,1,5.46,0L59,27.88h.07l15.4-6.35c.66.59,1.3,1.22,1.94,1.85s1.3,1.32,1.91,2L72,40.78h0v.06l15.38,6.38A33.3,33.3,0,0,1,87.41,52.69ZM62.85,44.62v0l3.73-9a23,23,0,0,0-2.25-2.27l-9,3.72h0l-3.71-9a19,19,0,0,0-3.2,0l-3.72,9h0l-9-3.7a25.25,25.25,0,0,0-2.27,2.24l3.7,9h0v0l-9,3.78a1.11,1.11,0,0,1,0,.36v2.42a2.43,2.43,0,0,0,0,.38l9,3.73v0h0l-3.7,9a19.92,19.92,0,0,0,2.26,2.24l9-3.72v0h0l3.72,9a21.36,21.36,0,0,0,3.2,0l3.71-9h0v0l9,3.7a20.79,20.79,0,0,0,2.26-2.24l-3.69-9h0v0l9-3.72c0-.54,0-1.09,0-1.63s0-1.06,0-1.57ZM50,56A6.06,6.06,0,1,1,56,50h0A6.07,6.07,0,0,1,50,56Z"/></g></g></svg>