<svg xmlns="http://www.w3.org/2000/svg" xmlns:xlink="http://www.w3.org/1999/xlink" viewBox="0 0 528.8 137.9"><path d="M131.6 30.6c-4.7-4.8-23-19-32.5-23.6C90 2.4 80 .1 69.8 0 59.7.1 49.6 2.4 40.5 6.9 31.1 11.5 12.7 25.8 8 30.5 2.9 36 0 43.3 0 50.9v36.2c0 7.5 2.8 14.8 8.1 20.3 4.7 4.8 23 19 32.5 23.6 9.1 4.5 19.1 6.9 29.3 6.9 10.2-.1 20.2-2.4 29.3-6.9 9.4-4.6 27.8-18.9 32.5-23.6 5.2-5.5 8.1-12.7 8.1-20.3V50.9c-.1-7.6-3-14.9-8.2-20.3zM15.9 38.3c4.2-4.3 21.4-17.5 29.4-21.5C53 13 61.3 11 69.8 11c8.5.1 16.9 2 24.5 5.8 8 4 25.3 17.2 29.4 21.5 3.2 3.4 5 7.9 4.9 12.6v6.3c0 5.5-2.5 10.7-6.8 14.1-19.6 15.5-33.7 26-38.5 28.5-4.2 2.1-8.8 3.2-13.5 3.2-4.7 0-9.4-1.1-13.6-3.2-4.5-2.3-19.4-13.7-21.2-15.4-.1-.1-.2-.2-.2-.3 0-.1.1-.3.2-.4L45.2 76l11.6 8.8c7.7 5.8 18.2 5.8 25.9 0L103.5 69l7.5-5.7c1.9-1.3 3.3-3.2 4.1-5.3 1.6-4.3.5-9.1-2.8-12.2-2-1.9-18-14.4-24-17.4-5.7-2.9-12-4.4-18.5-4.4-6.5-.1-12.9 1.5-18.6 4.4C44.3 32 25.6 46.5 11 58.1v-7.2c0-4.7 1.7-9.2 4.9-12.6zM54.4 69l9.1-6.9c3.7-2.8 8.9-2.8 12.6 0l9.1 6.9-9.1 6.9c-3.7 2.8-8.9 2.8-12.7 0l-9-6.9zm69.3 30.7c-4.2 4.3-21.4 17.5-29.4 21.5-7.6 3.8-16 5.8-24.5 5.8-8.5-.1-16.8-2-24.5-5.8-8-4-25.3-17.2-29.4-21.5-3.2-3.4-5-7.9-4.9-12.6v-6.3c0-5.5 2.5-10.7 6.8-14.1 19.6-15.5 33.7-26 38.5-28.6 7.5-4 18.3-4.3 27.1.1 4.5 2.2 19.3 13.7 21.2 15.4.1.1.1.2.1.4 0 .1-.1.3-.2.4l-10.2 7.7-11.6-8.8c-7.7-5.8-18.2-5.8-25.9 0L36.1 69l-7.5 5.7c-1.9 1.3-3.3 3.2-4.1 5.3-1.6 4.3-.5 9.1 2.7 12.2 2 1.9 18 14.4 24 17.4 5.8 2.8 12.1 4.3 18.5 4.4 6.5.1 12.9-1.5 18.6-4.4 6.9-3.6 25.5-18.1 40.2-29.7v7.2c.2 4.7-1.6 9.2-4.8 12.6zm87.3-57c-17.3 0-26.1 12-26.1 26.3s8.8 26.3 26.1 26.3 26.1-12 26.1-26.3-8.8-26.3-26.1-26.3zm0 42.4c-10 0-15-7.9-15-16.1s5-16.1 15-16.1 15 7.9 15 16.1-5.1 16.1-15 16.1zm236.1-42.4c-17.3 0-26.1 12-26.1 26.3s8.8 26.3 26.1 26.3 26.1-12 26.1-26.3-8.7-26.3-26.1-26.3zm0 42.4c-10 0-15-7.9-15-16.1s5-16.1 15-16.1 15 7.9 15 16.1-5 16.1-15 16.1zm-171.4 0c-9 .2-16.5-7-16.7-16 0-8.2 5-16.1 15-16.1 5.6-.2 10.9 2.6 14 7.3l1.1-.8V46.8c-4.6-2.5-9.7-3.9-15-4.1-17.3 0-26.1 12-26.1 26.3s10.4 26.3 27.8 26.3c5.3-.1 10.6-1.4 15.2-4v-13l-1-.8c-3.3 4.7-8.6 7.5-14.3 7.6zm112.8-42.4c-8 0-14 .5-19.8.5H367s.2 6.4.2 25.8-.2 25.8-.2 25.8h11.1s-.1-3.1-.1-11.4c2.7.3 5.3.4 8 .4 15 0 24.2-7 24.2-20.8.1-11.4-7.5-20.3-21.7-20.3zm-2.1 31.2c-2.8 0-5.6-.2-8.5-.5V53.2c2.4-.5 4.8-.8 7.2-.8 11.3 0 14.3 4.1 14.3 10.8.2 5.5-3.4 10.7-13 10.7zM507 42.7c-8 0-14 .5-19.8.5h-1.7s.2 6.4.2 25.8-.2 25.8-.2 25.8h11.1s-.1-3.1-.1-11.4c2.7.3 5.3.4 8 .4 15 0 24.2-7 24.2-20.8.1-11.4-7.6-20.3-21.7-20.3zm-2.1 31.2c-2.8 0-5.6-.2-8.5-.5V53.2c2.4-.5 4.8-.8 7.2-.8 11.4 0 14.4 4.1 14.4 10.7 0 5.6-3.6 10.8-13.1 10.8zM351.4 43.2h-11.1s.2 6.4.2 25.8c0 10.4-3.9 16.1-12.4 16.1s-12.4-5.7-12.4-16.1c0-19.4.2-25.8.2-25.8h-11.1s.1 6.4.1 25.8c0 14.2 5.9 26.3 23.3 26.3s23.3-12 23.3-26.3c-.2-19.5-.1-25.8-.1-25.8z" fill="#353535"/><defs><path id="a" d="M132.9 31.4c-4.6-4.7-22.9-18.9-32.2-23.5-18.3-9.2-39.8-9.2-58.1 0-9.3 4.6-27.6 18.7-32.2 23.5-5.2 5.4-8.1 12.6-8 20.1v36c0 7.5 2.8 14.7 8 20.1 4.6 4.7 22.9 18.9 32.2 23.5 18.3 9.2 39.8 9.2 58.1 0 9.3-4.6 27.6-18.7 32.2-23.5 5.2-5.4 8.1-12.6 8-20.1v-36c0-7.5-2.8-14.7-8-20.1zM18.1 39c4.1-4.2 21.2-17.4 29.2-21.3 15.3-7.7 33.3-7.7 48.5 0 8 3.9 25.1 17.1 29.2 21.3 3.2 3.4 4.9 7.9 4.9 12.5v6.3c0 5.5-2.5 10.6-6.8 14-19.4 15.4-33.4 25.8-38.1 28.3a28.1 28.1 0 0 1-13.4 3.1c-4.7 0-9.3-1.1-13.5-3.2-4.6-2.2-19.3-13.5-21.1-15.2-.1-.1-.2-.2-.1-.4 0-.1.1-.3.2-.4l10.2-7.7L58.8 85c7.6 5.7 18.1 5.7 25.7 0L105 69.5l7.4-5.6c1.8-1.3 3.3-3.2 4.1-5.3 1.6-4.2.5-9-2.7-12.2-1.9-1.9-17.8-14.3-23.9-17.3-5.7-2.8-12-4.3-18.4-4.3-6.4-.1-12.8 1.4-18.5 4.4-6.8 3.6-25.4 17.9-39.9 29.5v-7.1c0-4.7 1.8-9.2 5-12.6zm38.1 30.5l9.1-6.9c3.7-2.8 8.8-2.8 12.6 0l9.1 6.9-9.1 6.9c-3.7 2.8-8.8 2.8-12.6 0l-9.1-6.9zm68.9 30.5c-4.1 4.2-21.2 17.4-29.2 21.3-15.3 7.7-33.3 7.7-48.5 0-8-3.9-25.1-17.1-29.2-21.3-3.2-3.4-4.9-7.9-4.9-12.5v-6.3c0-5.5 2.5-10.6 6.8-14 19.5-15.4 33.5-25.9 38.2-28.4 7.5-4 18.1-4.2 27 .1 4.5 2.2 19.2 13.5 21.1 15.3.1.1.2.2.1.4 0 .1-.1.3-.2.4L96 62.7 84.5 54c-7.6-5.8-18.1-5.8-25.7 0L38.1 69.5l-7.4 5.6c-1.8 1.3-3.3 3.2-4.1 5.3-1.6 4.2-.5 9 2.8 12.1 1.9 1.9 17.8 14.3 23.9 17.3 5.7 2.8 12 4.3 18.3 4.3 6.4.1 12.8-1.4 18.5-4.4 6.8-3.6 25.4-17.9 39.9-29.5v7.2c0 4.7-1.7 9.2-4.9 12.6z"/></defs><clipPath id="b"><use xlink:href="#a" overflow="visible"/></clipPath><g clip-path="url(#b)"><image width="4735" height="1794" xlink:href="19596F155E8BF21E.jpg" transform="matrix(.042 0 0 .042 -32.48 -20.511)" overflow="visible"/></g><defs><path id="c" d="M213 43.4c-17.2 0-25.9 12-25.9 26.1s8.7 26.1 25.9 26.1 25.9-12 25.9-26.1-8.7-26.1-25.9-26.1zm0 42.1c-9.9 0-14.9-7.8-14.9-16s5-16 14.9-16 14.9 7.8 14.9 16-5 16-14.9 16z"/></defs><clipPath id="d"><use xlink:href="#c" overflow="visible"/></clipPath><g clip-path="url(#d)"><image width="4735" height="1794" xlink:href="19596F155E8BF222.jpg" transform="matrix(.042 0 0 .042 -32.48 -20.523)" overflow="visible"/></g><defs><path id="e" d="M447.4 43.4c-17.2 0-25.9 12-25.9 26.1s8.7 26.1 25.9 26.1 25.9-12 25.9-26.1-8.7-26.1-25.9-26.1zm0 42.1c-9.9 0-14.9-7.8-14.9-16s5-16 14.9-16 14.9 7.8 14.9 16-5 16-14.9 16z"/></defs><clipPath id="f"><use xlink:href="#e" overflow="visible"/></clipPath><g clip-path="url(#f)"><image width="4735" height="1794" xlink:href="19596F155E8BF225.jpg" transform="matrix(.042 0 0 .042 -32.48 -20.523)" overflow="visible"/></g><defs><path id="g" d="M277.2 85.5c-9 .2-16.4-6.9-16.6-15.9v-.1c0-8.1 5-16 14.9-16 6.4 0 11.3 3.2 13.8 7.3l1.1-.8V47.5c-3.7-2.1-9.5-4.1-14.9-4.1-17.2 0-25.9 12-25.9 26.1s10.4 26.1 27.6 26.1c5.4 0 11.6-1.8 15.1-3.9V78.8l-1-.7c-2.5 3.8-8.1 7.4-14.1 7.4z"/></defs><clipPath id="h"><use xlink:href="#g" overflow="visible"/></clipPath><g clip-path="url(#h)"><image width="4735" height="1794" xlink:href="19596F155E8BF226.jpg" transform="matrix(.042 0 0 .042 -32.48 -20.523)" overflow="visible"/></g><defs><path id="i" d="M389.2 43.4c-7.9 0-13.8.5-19.7.5h-1.7s.2 6.3.2 25.6-.2 25.6-.2 25.6h11s-.1-3-.1-11.3c2.7.3 5.3.4 8 .4 14.9 0 24.1-7 24.1-20.7 0-11.3-7.5-20.1-21.6-20.1zm-2 31c-2.8 0-5.6-.2-8.4-.5v-4.4c0-6.7 0-11.8.1-15.7 2.3-.5 4.7-.8 7.1-.8 11.2 0 14.2 4.1 14.2 10.7 0 5.5-3.6 10.7-13 10.7z"/></defs><clipPath id="j"><use xlink:href="#i" overflow="visible"/></clipPath><g clip-path="url(#j)"><image width="4735" height="1794" xlink:href="19596F155E8BF224.jpg" transform="matrix(.042 0 0 .042 -32.48 -20.523)" overflow="visible"/></g><defs><path id="k" d="M506.8 43.4c-7.9 0-13.8.5-19.7.5h-1.7s.2 6.3.2 25.6-.2 25.6-.2 25.6h11.1s-.1-3-.1-11.3c2.7.3 5.3.4 8 .4 14.9 0 24.1-7 24.1-20.7-.1-11.3-7.6-20.1-21.7-20.1zm-2 31c-2.8 0-5.6-.2-8.4-.5v-4.4c0-6.7 0-11.8.1-15.7 2.3-.5 4.7-.8 7.1-.8 11.2 0 14.2 4.1 14.2 10.7 0 5.5-3.6 10.7-13 10.7z"/></defs><clipPath id="l"><use xlink:href="#k" overflow="visible"/></clipPath><g clip-path="url(#l)"><image width="4735" height="1794" xlink:href="19596F155E8BF223.jpg" transform="matrix(.042 0 0 .042 -32.48 -20.523)" overflow="visible"/></g><defs><path id="m" d="M352.4 43.9h-11s.2 6.3.2 25.6c0 10.3-3.8 16-12.3 16s-12.3-5.7-12.3-16c0-19.3.2-25.6.2-25.6h-11s.1 6.3.1 25.6c0 14.1 5.9 26.1 23.1 26.1s23.1-12 23.1-26.1c-.2-19.3-.1-25.6-.1-25.6z"/></defs><clipPath id="n"><use xlink:href="#m" overflow="visible"/></clipPath><g clip-path="url(#n)"><image width="4735" height="1794" xlink:href="19596F155E8BF22D.jpg" transform="matrix(.042 0 0 .042 -32.48 -20.523)" overflow="visible"/></g></svg>