<svg xmlns="http://www.w3.org/2000/svg" viewBox="0 0 140 140"><path d="M131.7 31.6c-4.7-4.8-23-19-32.5-23.6-9-4.6-19-6.9-29.2-7-10.2.1-20.2 2.5-29.3 7-9.4 4.6-27.8 18.9-32.5 23.6C3 37.1.2 44.3.2 51.9v36.2c0 7.5 2.8 14.8 8.1 20.3 4.7 4.8 23 19 32.5 23.6 9.1 4.5 19.1 6.9 29.3 6.9 10.2-.1 20.2-2.4 29.3-6.9 9.4-4.6 27.8-18.9 32.5-23.6 5.2-5.5 8.1-12.7 8.1-20.3V51.9c-.2-7.6-3-14.8-8.3-20.3zM16.1 39.3c4.2-4.3 21.4-17.5 29.4-21.5 7.6-3.8 16-5.7 24.5-5.8 8.5.1 16.9 2 24.5 5.8 8 4 25.3 17.2 29.4 21.5 3.2 3.4 5 7.9 4.9 12.6v6.3c0 5.5-2.5 10.7-6.8 14.1-19.6 15.5-33.7 26-38.5 28.5-4.2 2.1-8.8 3.2-13.5 3.2-4.7 0-9.4-1.1-13.6-3.2-4.6-2.2-19.4-13.6-21.3-15.4-.1-.1-.1-.2-.1-.4 0-.1.1-.3.2-.4l10.2-7.7L57 85.7c7.7 5.8 18.2 5.8 25.9 0L103.7 70l7.5-5.7c1.9-1.3 3.3-3.2 4.1-5.3 1.6-4.3.5-9.1-2.8-12.2-2-1.9-18-14.4-24-17.4C82.8 26.5 76.4 25 70 25c-6.5-.1-12.9 1.5-18.6 4.4-6.9 3.6-25.5 18-40.2 29.6v-7.2c-.1-4.6 1.7-9.1 4.9-12.5zM54.5 70l9.1-6.9c3.7-2.8 8.9-2.8 12.6 0l9.1 6.9-9.1 6.9c-3.7 2.8-8.9 2.8-12.6 0L54.5 70zm69.4 30.7c-4.2 4.3-21.4 17.5-29.4 21.5-7.6 3.8-16 5.8-24.5 5.8-8.5-.1-16.8-2-24.4-5.8-8-4-25.3-17.2-29.4-21.5-3.2-3.4-5-7.9-4.9-12.6v-6.3c0-5.5 2.5-10.7 6.8-14.1 19.6-15.5 33.7-26 38.5-28.6 7.5-4 18.3-4.3 27.1.1 4.5 2.2 19.3 13.7 21.2 15.4.1.1.1.2.1.4 0 .1-.1.3-.2.4l-10.2 7.7L83 54.3c-7.7-5.8-18.2-5.8-25.9 0L36.3 70l-7.5 5.7C27 77 25.6 78.9 24.7 81c-1.6 4.3-.5 9.1 2.7 12.2 2 1.9 18 14.4 24 17.4 5.8 2.8 12.1 4.3 18.5 4.4 6.5.1 12.9-1.5 18.6-4.4 6.9-3.6 25.5-18.1 40.2-29.7v7.2c.1 4.7-1.6 9.2-4.8 12.6z" fill="#fff"/></svg>