<svg xmlns="http://www.w3.org/2000/svg" viewBox="0 0 343.91 396.94"><g data-name="Layer 2"><path d="M298 61.15c-9.36-9.56-46.08-38.09-64.9-47.31a130.89 130.89 0 0 0-117.16 0C97.09 23.05 60.36 51.58 51 61.15a58.19 58.19 0 0 0-16.12 40.54v72.49A58.24 58.24 0 0 0 51 214.74c9.36 9.55 46.09 38.07 64.91 47.3a130.87 130.87 0 0 0 117.15 0c18.84-9.23 55.56-37.75 64.91-47.31a58.21 58.21 0 0 0 16.13-40.55v-72.49A58.2 58.2 0 0 0 298 61.15zM66.69 76.52C75 68 109.47 41.45 125.58 33.57a108.89 108.89 0 0 1 97.81 0c16.1 7.88 50.53 34.43 58.88 42.95a36.09 36.09 0 0 1 9.85 25.17v12.64a36 36 0 0 1-13.65 28.2c-39.24 31.12-67.47 52.1-77 57.15a57.81 57.81 0 0 1-27 6.29 62.13 62.13 0 0 1-27.27-6.45c-9.11-4.47-38.74-27.29-42.46-30.84a1 1 0 0 1-.27-.76.92.92 0 0 1 .4-.73l20.47-15.48 23.24 17.58a43.12 43.12 0 0 0 51.81 0l41.46-31.35 15-11.35a23.79 23.79 0 0 0 8.15-10.67 23 23 0 0 0-5.49-24.46c-3.92-3.82-36-28.85-48.09-34.82a84.26 84.26 0 0 0-37-8.71 79.87 79.87 0 0 0-37.28 8.86c-13.75 7.28-51.1 36.13-80.36 59.34v-14.44a36.07 36.07 0 0 1 9.91-25.17zm76.85 61.42l18.29-13.83a21 21 0 0 1 25.3 0l18.29 13.83-18.3 13.82a21 21 0 0 1-25.29 0zm138.73 61.42c-8.34 8.52-42.77 35.06-58.88 42.95a108.91 108.91 0 0 1-97.82 0c-16.1-7.89-50.54-34.43-58.88-42.95a36.1 36.1 0 0 1-9.85-25.18v-12.64a36 36 0 0 1 13.64-28.19c39.23-31.11 67.46-52.1 77-57.15 15.08-8 36.56-8.56 54.29.15 9.12 4.49 38.74 27.31 42.46 30.86a1 1 0 0 1-.13 1.48l-20.47 15.48-23.25-17.59a43 43 0 0 0-51.81 0l-41.45 31.35-15 11.32A23.84 23.84 0 0 0 83.93 160a23 23 0 0 0 5.48 24.47c3.92 3.82 36 28.86 48.08 34.82a84.33 84.33 0 0 0 37 8.7h.06a79.83 79.83 0 0 0 37.25-8.85c13.73-7.27 51.08-36.12 80.36-59.34v14.43a36.1 36.1 0 0 1-9.89 25.13z" fill="#353535" data-name="Layer 1"/></g></svg>