<svg xmlns="http://www.w3.org/2000/svg" xmlns:xlink="http://www.w3.org/1999/xlink" viewBox="0 0 528.8 137.9"><path d="M125.6 199.6c-4.7-4.8-23-19-32.5-23.6-9.1-4.5-19.1-6.9-29.3-6.9-10.2.1-20.2 2.4-29.3 6.9-9.4 4.6-27.8 18.9-32.5 23.6-5.2 5.5-8.1 12.7-8.1 20.3v36.2c0 7.5 2.8 14.8 8.1 20.3 4.7 4.8 23 19 32.5 23.6 9.1 4.5 19.1 6.9 29.3 6.9 10.2-.1 20.2-2.4 29.3-6.9 9.4-4.6 27.8-18.9 32.5-23.6 5.2-5.5 8.1-12.7 8.1-20.3v-36.2c0-7.6-2.8-14.9-8.1-20.3zM10 207.3c4.2-4.3 21.4-17.5 29.4-21.5 7.6-3.8 16-5.7 24.5-5.8 8.5.1 16.9 2 24.5 5.8 8 3.9 25.3 17.2 29.4 21.5 3.2 3.4 5 7.9 4.9 12.6v6.3c0 5.5-2.5 10.7-6.8 14.1-19.6 15.5-33.7 26-38.5 28.5-4.2 2.1-8.8 3.2-13.5 3.2-4.7 0-9.4-1.1-13.6-3.2-4.5-2.2-19.4-13.7-21.2-15.4-.1-.1-.2-.2-.2-.4 0-.1.1-.3.2-.4l10.2-7.7 11.6 8.8c7.7 5.8 18.2 5.8 25.9 0L97.6 238l7.5-5.7c1.9-1.3 3.3-3.2 4.1-5.3 1.6-4.3.5-9.1-2.8-12.2-2-1.9-18-14.4-24-17.4-5.8-2.8-12.1-4.3-18.5-4.3-6.5-.1-12.9 1.5-18.6 4.4-6.9 3.6-25.5 18-40.2 29.6v-7.2c-.1-4.7 1.7-9.2 4.9-12.6zM48.4 238l9.1-6.9c3.7-2.8 8.9-2.8 12.6 0l9.1 6.9-9.1 6.9c-3.7 2.8-8.9 2.8-12.7 0l-9-6.9zm69.4 30.7c-4.2 4.3-21.4 17.5-29.4 21.5-7.6 3.8-16 5.8-24.5 5.8-8.5-.1-16.8-2-24.5-5.8-8-4-25.3-17.2-29.4-21.5-3.2-3.4-5-7.9-4.9-12.6v-6.3c0-5.5 2.5-10.7 6.8-14.1 19.6-15.6 33.7-26 38.5-28.6 7.5-4 18.3-4.3 27.1.1 4.5 2.2 19.3 13.7 21.2 15.4.1.1.1.2.1.4 0 .1-.1.3-.2.4l-10.2 7.7-11.6-8.8c-7.7-5.8-18.2-5.8-25.9 0L30.2 238l-7.5 5.7c-1.9 1.3-3.3 3.2-4.1 5.3-1.6 4.3-.5 9.1 2.7 12.2 2 1.9 18 14.4 24 17.4 5.8 2.8 12.1 4.3 18.5 4.4 6.5.1 12.9-1.5 18.6-4.4 6.9-3.6 25.5-18.1 40.2-29.7v7.2c.1 4.7-1.6 9.2-4.8 12.6zm87.3-57c-17.3 0-26.1 12-26.1 26.3s8.8 26.3 26.1 26.3 26.1-12 26.1-26.3-8.8-26.3-26.1-26.3zm0 42.4c-10 0-15-7.9-15-16.1 0-8.2 5-16.1 15-16.1s15 7.9 15 16.1c0 8.2-5.1 16.1-15 16.1zm236.1-42.4c-17.3 0-26.1 12-26.1 26.3s8.8 26.3 26.1 26.3 26.1-12 26.1-26.3-8.8-26.3-26.1-26.3zm0 42.4c-10 0-15-7.9-15-16.1 0-8.2 5-16.1 15-16.1s15 7.9 15 16.1c0 8.2-5 16.1-15 16.1zm-171.4 0c-9 .2-16.5-7-16.7-16 0-8.2 5-16.1 15-16.1 5.6-.2 10.9 2.6 14 7.3l1.1-.8v-12.6c-4.6-2.5-9.7-3.9-15-4.1-17.3 0-26.1 12-26.1 26.3s10.4 26.3 27.8 26.3c5.3-.1 10.6-1.4 15.2-4v-13l-1-.8c-3.3 4.6-8.6 7.4-14.3 7.5zm112.8-42.4c-8 0-14 .5-19.8.5h-1.7s.2 6.4.2 25.8-.2 25.8-.2 25.8h11.1s-.1-3.1-.1-11.4c2.7.3 5.3.4 8 .4 15 0 24.2-7 24.2-20.8.1-11.4-7.6-20.3-21.7-20.3zm-2.1 31.2c-2.8 0-5.6-.2-8.5-.5v-20.2c2.4-.5 4.8-.8 7.2-.8 11.3 0 14.3 4.1 14.3 10.8.1 5.5-3.4 10.7-13 10.7zm120.6-31.2c-8 0-14 .5-19.8.5h-1.7s.2 6.4.2 25.8-.2 25.8-.2 25.8h11.1s-.1-3.1-.1-11.4c2.7.3 5.3.4 8 .4 15 0 24.2-7 24.2-20.8.1-11.4-7.6-20.3-21.7-20.3zm-2.1 31.2c-2.8 0-5.6-.2-8.5-.5v-20.2c2.4-.5 4.8-.8 7.2-.8 11.4 0 14.4 4.1 14.4 10.7 0 5.6-3.6 10.8-13.1 10.8zm-153.5-30.7h-11.1s.2 6.4.2 25.8c0 10.4-3.9 16.1-12.4 16.1s-12.4-5.7-12.4-16.1c0-19.4.2-25.8.2-25.8h-11.1s.1 6.4.1 25.8c0 14.2 5.9 26.3 23.3 26.3s23.3-12 23.3-26.3c-.2-19.5-.1-25.8-.1-25.8z" fill="#353535"/><defs><path id="a" d="M131.4 30.7c-4.7-4.8-23-19-32.3-23.6-18.4-9.2-40-9.2-58.4 0C31.3 11.7 13 25.9 8.3 30.7 3.1 36.1.2 43.4.3 50.9V87c0 7.5 2.8 14.8 8 20.2 4.7 4.8 23 19 32.3 23.6 18.4 9.2 40 9.2 58.4 0 9.4-4.6 27.7-18.8 32.3-23.6 5.2-5.4 8.1-12.7 8-20.2V50.9c.2-7.5-2.7-14.8-7.9-20.2zM16.1 38.4c4.2-4.2 21.3-17.5 29.3-21.4 15.3-7.7 33.4-7.7 48.7 0 8 3.9 25.2 17.2 29.3 21.4 3.2 3.4 5 7.9 4.9 12.5v6.3c0 5.5-2.5 10.7-6.8 14.1-19.5 15.5-33.7 26-38.4 28.5-4.2 2.1-8.8 3.2-13.4 3.1-4.7 0-9.4-1.1-13.6-3.2-4.4-2.3-19.1-13.7-21-15.4-.1-.1-.1-.3-.1-.4 0-.1.1-.3.2-.4l10.2-7.7L57 84.6c7.6 5.7 18.2 5.7 25.8 0L103.4 69l7.4-5.6c1.8-1.3 3.3-3.2 4.1-5.3 1.6-4.3.5-9.1-2.7-12.2-2-1.9-17.9-14.4-24-17.4-5.7-2.8-12-4.3-18.4-4.3-6.4-.2-12.8 1.3-18.5 4.3-6.8 3.7-25.5 18-40 29.6V51c-.1-4.7 1.6-9.2 4.8-12.6zM54.4 69l9.1-6.9c3.7-2.8 8.9-2.8 12.6 0l9.1 6.9-9.1 6.9c-3.7 2.8-8.9 2.8-12.6 0L54.4 69zm69.1 30.6c-4.2 4.2-21.3 17.5-29.3 21.4-15.3 7.7-33.4 7.7-48.7 0-8-3.9-25.2-17.2-29.3-21.4-3.2-3.4-5-7.9-4.9-12.5v-6.3c0-5.5 2.5-10.6 6.8-14 19.5-15.5 33.6-26 38.4-28.5 7.5-4 18.2-4.3 27.1.1 4.5 2.2 19.3 13.6 21.1 15.4.1.1.2.2.1.4 0 .1-.1.3-.2.4l-10.2 7.7-11.6-8.8c-7.6-5.8-18.2-5.8-25.8 0L36.3 69l-7.5 5.6c-1.9 1.3-3.3 3.2-4.1 5.3-1.6 4.3-.5 9 2.8 12.2 2 1.9 17.9 14.4 24 17.4 5.7 2.8 12 4.3 18.4 4.4 6.4.1 12.8-1.4 18.6-4.4 6.8-3.7 25.5-18 40-29.6v7.2c0 4.6-1.8 9.1-5 12.5z"/></defs><clipPath id="b"><use xlink:href="#a" overflow="visible"/></clipPath><g clip-path="url(#b)"><image width="4735" height="1794" xlink:href="19596F155E8BF21E.jpg" transform="matrix(.04 0 0 .04 -33.085 -20.778)" overflow="visible"/></g><defs><path id="c" d="M211.8 42.8c-17.3 0-26 12-26 26.2s8.7 26.2 26 26.2 26-12 26-26.2-8.8-26.2-26-26.2zm0 42.2c-9.9 0-15-7.9-15-16s5-16 15-16 15 7.9 15 16-5.1 16-15 16z"/></defs><clipPath id="d"><use xlink:href="#c" overflow="visible"/></clipPath><g clip-path="url(#d)"><image width="4735" height="1794" xlink:href="19596F155E8BF222.jpg" transform="translate(-33.085 -20.79) scale(.04212)" overflow="visible"/></g><defs><path id="e" d="M447.1 42.8c-17.3 0-26 12-26 26.2s8.7 26.2 26 26.2 26-12 26-26.2-8.7-26.2-26-26.2zm0 42.2c-9.9 0-15-7.9-15-16s5-16 15-16c9.9 0 15 7.9 15 16s-5.1 16-15 16z"/></defs><clipPath id="f"><use xlink:href="#e" overflow="visible"/></clipPath><g clip-path="url(#f)"><image width="4735" height="1794" xlink:href="19596F155E8BF225.jpg" transform="translate(-33.085 -20.79) scale(.04212)" overflow="visible"/></g><defs><path id="g" d="M276.3 85c-9 .2-16.4-7-16.6-16v-.1c0-8.2 5-16 15-16 6.4 0 11.4 3.2 13.9 7.3l1.1-.8V46.9c-3.7-2.1-9.6-4.1-15-4.1-17.3 0-26 12-26 26.2s10.4 26.2 27.7 26.2c5.4 0 11.6-1.8 15.2-3.9v-13l-1-.7c-2.7 3.8-8.3 7.4-14.3 7.4z"/></defs><clipPath id="h"><use xlink:href="#g" overflow="visible"/></clipPath><g clip-path="url(#h)"><image width="4735" height="1794" xlink:href="19596F155E8BF226.jpg" transform="translate(-33.085 -20.79) scale(.04212)" overflow="visible"/></g><defs><path id="i" d="M388.7 42.8c-7.9 0-13.9.5-19.8.5h-1.7s.2 6.3.2 25.7-.2 25.7-.2 25.7h11s-.1-3.1-.1-11.4c2.7.3 5.4.4 8 .4 14.9 0 24.1-7 24.1-20.8.2-11.3-7.4-20.1-21.5-20.1zm-2.1 31.1c-2.8 0-5.6-.2-8.4-.5V69c0-6.7 0-11.9.1-15.7 2.3-.5 4.7-.8 7.2-.8 11.3 0 14.3 4.1 14.3 10.7-.1 5.5-3.7 10.7-13.2 10.7z"/></defs><clipPath id="j"><use xlink:href="#i" overflow="visible"/></clipPath><g clip-path="url(#j)"><image width="4735" height="1794" xlink:href="19596F155E8BF224.jpg" transform="translate(-33.085 -20.79) scale(.04212)" overflow="visible"/></g><defs><path id="k" d="M506.7 42.8c-7.9 0-13.9.5-19.8.5h-1.7s.2 6.3.2 25.7-.2 25.7-.2 25.7h11.1s-.1-3.1-.1-11.4c2.7.3 5.4.4 8 .4 14.9 0 24.1-7 24.1-20.8.1-11.3-7.5-20.1-21.6-20.1zm-2.1 31.1c-2.8 0-5.6-.2-8.4-.5V69c0-6.7 0-11.9.1-15.7 2.3-.5 4.7-.8 7.2-.8 11.3 0 14.3 4.1 14.3 10.7-.1 5.5-3.7 10.7-13.2 10.7z"/></defs><clipPath id="l"><use xlink:href="#k" overflow="visible"/></clipPath><g clip-path="url(#l)"><image width="4735" height="1794" xlink:href="19596F155E8BF223.jpg" transform="translate(-33.085 -20.79) scale(.04212)" overflow="visible"/></g><defs><path id="m" d="M351.7 43.3h-11.1s.2 6.3.2 25.7c0 10.3-3.8 16-12.4 16-8.5 0-12.4-5.7-12.4-16 0-19.4.2-25.7.2-25.7h-11s.1 6.3.1 25.7c0 14.2 5.9 26.2 23.2 26.2 17.3 0 23.2-12 23.2-26.2-.1-19.4 0-25.7 0-25.7z"/></defs><clipPath id="n"><use xlink:href="#m" overflow="visible"/></clipPath><g clip-path="url(#n)"><image width="4735" height="1794" xlink:href="19596F155E8BF22D.jpg" transform="translate(-33.085 -20.79) scale(.04212)" overflow="visible"/></g></svg>