<?xml version="1.0" encoding="utf-8"?>
<!-- Generator: Adobe Illustrator 23.0.1, SVG Export Plug-In . SVG Version: 6.00 Build 0)  -->
<svg version="1.1" id="instagram-icon" xmlns="http://www.w3.org/2000/svg" xmlns:xlink="http://www.w3.org/1999/xlink" x="0px" y="0px"
	 viewBox="0 0 32 32" style="enable-background:new 0 0 32 32;" xml:space="preserve">
<style type="text/css">
	.st0{fill:#FFFFFF;}
</style>
<g>
	<path class="st0" d="M16.2,4.9c3.6,0,4.1,0,5.5,0c1.3,0,2.1,0.3,2.6,0.5c0.7,0.3,1.1,0.5,1.6,1s0.8,1,1,1.6
		c0.2,0.5,0.5,1.1,0.5,2.6s0,1.8,0,5.5c0,3.8,0,4.1,0,5.5c0,1.3-0.3,2.1-0.5,2.6c-0.3,0.7-0.5,1.1-1,1.6s-1,0.8-1.6,1
		c-0.5,0.2-1.1,0.5-2.6,0.5s-1.8,0-5.5,0c-3.6,0-4.1,0-5.5,0c-1.3,0-2.1-0.3-2.6-0.5c-0.7-0.3-1.1-0.5-1.6-1s-0.8-1-1-1.6
		C5.3,23.7,5,23.1,5,21.6s0-1.8,0-5.5c0-3.8,0-4.1,0-5.5C5,9.3,5.3,8.5,5.5,8c0.3-0.7,0.5-1.1,1-1.6s1-0.8,1.6-1
		c0.5-0.2,1.1-0.3,2.6-0.5C12.1,4.9,12.6,4.9,16.2,4.9 M16.2,2.5c-3.8,0-4.2,0-5.5,0.2C9.2,2.7,8.3,3,7.4,3.4C6.6,3.7,5.8,4.2,5,5
		C4.2,5.8,3.7,6.5,3.4,7.4c-0.3,0.8-0.5,1.8-0.7,3.3c0,1.5,0,2,0,5.5c0,3.6,0,4.2,0,5.5c0,1.5,0.3,2.4,0.7,3.3
		c0.3,1,0.8,1.6,1.6,2.4c0.8,0.8,1.5,1.3,2.4,1.6c0.8,0.3,1.8,0.5,3.3,0.7c1.5,0,2,0.2,5.5,0.2c3.8,0,4.2,0,5.5-0.2
		c1.5,0,2.4-0.3,3.3-0.7c0.8-0.3,1.6-0.8,2.4-1.6c0.8-0.8,1.3-1.5,1.6-2.4c0.3-0.8,0.5-1.8,0.7-3.3c0-1.5,0-2,0-5.5
		c0-3.6,0-4.2,0-5.5c0-1.5-0.3-2.4-0.7-3.3c-0.3-0.8-0.8-1.6-1.6-2.4c-0.8-0.8-1.5-1.3-2.4-1.6c-0.8-0.3-1.8-0.5-3.3-0.7
		C20.4,2.5,19.9,2.5,16.2,2.5"/>
	<path class="st0" d="M16.2,9.2c-3.9,0-7,3.1-7,7s3.1,7,7,7s7-3.1,7-7C23.2,12.3,20.1,9.2,16.2,9.2 M16.2,20.7c-2.4,0-4.6-2-4.6-4.6
		s2-4.6,4.6-4.6c2.4,0,4.6,2,4.6,4.6C20.7,18.8,18.6,20.7,16.2,20.7"/>
	<path class="st0" d="M25.1,8.8c0,1-0.7,1.6-1.6,1.6c-1,0-1.6-0.8-1.6-1.6c0-1,0.8-1.6,1.6-1.6C24.3,7.2,25.1,8,25.1,8.8"/>
</g>
</svg>
