<svg width="699" height="183" viewBox="0 0 699 183" fill="none" xmlns="http://www.w3.org/2000/svg">
<path d="M173.901 40.4248C167.714 34.106 143.443 15.2552 131.004 9.14782C118.789 3.15945 105.411 0 92.2845 0C79.1576 0 65.7796 3.15945 53.5649 9.14782C41.1254 15.242 16.8547 34.0927 10.6548 40.4248C3.88649 47.3386 0 57.1077 0 67.2205V115.141C0 125.254 3.88649 135.023 10.6548 141.95C16.8415 148.268 41.1122 167.119 53.5649 173.213C65.7796 179.202 79.1576 182.361 92.2845 182.361C105.411 182.361 118.789 179.202 131.004 173.213C143.457 167.106 167.727 148.255 173.914 141.936C180.682 135.023 184.569 125.254 184.569 115.141V67.2205C184.569 57.1077 180.682 47.3386 173.914 40.4248H173.901ZM21.032 50.5773C26.5445 44.9458 49.3082 27.4038 59.9498 22.1821C70.1816 17.172 81.352 14.5149 92.2712 14.5149C103.19 14.5149 114.374 17.172 124.593 22.1821C135.234 27.3905 157.998 44.9326 163.51 50.5641C167.648 54.7943 170.028 60.862 170.028 67.2073V75.5619C170.028 82.8326 166.696 89.6802 161.012 94.2012C135.076 114.771 116.41 128.638 110.117 131.969C104.975 134.692 98.8148 136.133 92.2845 136.133H92.258C86.1374 136.133 79.8979 134.666 74.2267 131.876C68.2119 128.915 48.6208 113.832 46.162 111.492C46.0034 111.334 45.977 111.135 45.9902 110.99C46.0034 110.699 46.1753 110.567 46.2546 110.514L59.7912 100.282L75.1521 111.902C80.1887 115.709 86.23 117.626 92.2712 117.626C98.3125 117.626 104.354 115.722 109.39 111.902L136.794 91.174L146.709 83.6787C149.115 81.8544 151.097 79.4616 152.129 76.6195C154.244 70.8029 152.697 64.537 148.506 60.4522C145.915 57.9273 124.738 41.3766 116.714 37.4372C109.06 33.6697 100.613 31.6868 92.2712 31.6868C83.3746 31.6868 74.8613 33.7094 67.6303 37.543C58.5486 42.3549 33.8548 61.4304 14.5148 76.7649V67.2205C14.5148 60.8752 16.8811 54.8075 21.0188 50.5773H21.032ZM71.834 91.174L83.9166 82.0395C88.8474 78.3116 95.7214 78.3248 100.639 82.0395L112.722 91.174L100.626 100.309C95.6818 104.05 88.8474 104.05 83.9033 100.309L71.8208 91.174H71.834ZM163.524 131.784C158.011 137.415 135.261 154.958 124.606 160.166C114.374 165.176 103.19 167.833 92.2845 167.833C81.3785 167.833 70.1949 165.176 59.9631 160.166C49.3215 154.944 26.5577 137.402 21.0452 131.784C16.9076 127.554 14.5413 121.486 14.5413 115.141V106.786C14.5413 99.5287 17.8725 92.6678 23.5569 88.1468C49.4801 67.5907 68.1458 53.7103 74.4515 50.3791C84.4189 45.0913 98.6165 44.7212 110.329 50.4716C116.357 53.4327 135.935 68.516 138.394 70.8691C138.552 71.0277 138.579 71.226 138.565 71.3582C138.552 71.6622 138.367 71.7944 138.301 71.8341L124.764 82.0658L109.39 70.4461C99.2643 62.792 85.2782 62.792 75.1521 70.4461L47.7484 91.1608L37.847 98.643C35.4411 100.467 33.445 102.86 32.4139 105.702C30.2855 111.532 31.8322 117.785 36.0359 121.883C38.6269 124.407 59.8044 140.958 67.8154 144.898C75.4694 148.665 83.9166 150.648 92.2448 150.648H92.2845C101.168 150.648 109.681 148.625 116.899 144.792C125.967 139.98 150.661 120.918 170.014 105.57V115.114C170.014 121.46 167.635 127.527 163.497 131.758L163.524 131.784Z" fill="white"/>
<path d="M278.862 56.4209C255.94 56.4209 244.346 72.3502 244.346 91.1878C244.346 110.025 255.94 125.955 278.862 125.955C301.784 125.955 313.378 110.025 313.378 91.1878C313.378 72.3502 301.784 56.4209 278.862 56.4209ZM278.862 112.458C265.682 112.458 259.006 102.015 259.006 91.1878C259.006 80.3612 265.669 69.9046 278.862 69.9046C292.055 69.9046 298.717 80.3479 298.717 91.1878C298.717 102.028 292.055 112.458 278.862 112.458Z" fill="white"/>
<path d="M591.064 56.4209C568.141 56.4209 556.548 72.3502 556.548 91.1878C556.548 110.025 568.141 125.955 591.064 125.955C613.986 125.955 625.579 110.025 625.579 91.1878C625.579 72.3502 613.986 56.4209 591.064 56.4209ZM591.064 112.458C577.884 112.458 571.208 102.015 571.208 91.1878C571.208 80.3612 577.871 69.9046 591.064 69.9046C604.257 69.9046 610.919 80.3479 610.919 91.1878C610.919 102.028 604.257 112.458 591.064 112.458Z" fill="white"/>
<path d="M364.431 112.458C351.251 112.458 342.355 102.015 342.355 91.1878C342.355 80.3612 349.017 69.9046 362.21 69.9046C370.723 69.9046 377.307 74.1349 380.704 79.5548L382.105 78.5104V61.854C377.148 59.1044 369.428 56.4209 362.21 56.4209C339.288 56.4209 327.694 72.3502 327.694 91.1878C327.694 110.025 341.495 125.955 364.418 125.955C371.622 125.955 379.818 123.588 384.551 120.72V103.535L383.189 102.517C379.911 107.699 372.402 112.471 364.418 112.471L364.431 112.458Z" fill="white"/>
<path d="M513.585 56.4209C503.049 56.4209 495.13 57.0819 487.424 57.0819H485.216C485.216 57.0819 485.427 65.4894 485.427 91.1746C485.427 116.86 485.216 125.267 485.216 125.267H499.876C499.876 125.267 499.77 121.209 499.704 110.171C502.295 110.475 505.825 110.726 510.333 110.726C530.122 110.726 542.39 101.42 542.39 83.1769C542.39 68.2258 532.29 56.4209 513.598 56.4209H513.585ZM510.822 97.6785C506.631 97.6785 502.652 97.3745 499.651 97.0572C499.651 95.2065 499.651 93.2633 499.651 91.1878C499.651 82.2648 499.678 75.4303 499.717 70.3144C501.938 69.7856 505.111 69.2833 509.209 69.2833C524.173 69.2833 528.166 74.7033 528.166 83.4809C528.166 90.8309 523.433 97.6917 510.835 97.6917L510.822 97.6785Z" fill="white"/>
<path d="M670.195 56.4209C659.659 56.4209 651.741 57.0819 644.034 57.0819H641.826C641.826 57.0819 642.038 65.4894 642.038 91.1746C642.038 116.86 641.826 125.267 641.826 125.267H656.486C656.486 125.267 656.381 121.209 656.315 110.171C658.906 110.475 662.435 110.726 666.943 110.726C686.732 110.726 699 101.42 699 83.1769C699 68.2258 688.9 56.4209 670.208 56.4209H670.195ZM667.432 97.6785C663.242 97.6785 659.263 97.3745 656.262 97.0572C656.262 95.2065 656.262 93.2633 656.262 91.1878C656.262 82.2648 656.288 75.4303 656.328 70.3144C658.549 69.7856 661.721 69.2833 665.819 69.2833C680.784 69.2833 684.776 74.7033 684.776 83.4809C684.776 90.8309 680.043 97.6917 667.445 97.6917L667.432 97.6785Z" fill="white"/>
<path d="M464.487 57.082H449.827C449.827 57.082 450.039 65.4895 450.039 91.1748C450.039 104.87 444.949 112.458 433.62 112.458C422.291 112.458 417.202 104.87 417.202 91.1748C417.202 65.4895 417.413 57.082 417.413 57.082H402.753C402.753 57.082 402.859 65.4895 402.859 91.1748C402.859 110.012 410.685 125.942 433.607 125.942C456.529 125.942 464.355 110.012 464.355 91.1748C464.355 65.4895 464.461 57.082 464.461 57.082H464.487Z" fill="white"/>
</svg>
