<svg width="1728" height="707" viewBox="0 0 1728 707" fill="none" xmlns="http://www.w3.org/2000/svg">
<rect width="1728" height="707" fill="#FDF6E6"/>
<mask id="mask0_1018_331" style="mask-type:alpha" maskUnits="userSpaceOnUse" x="0" y="0" width="1728" height="707">
<rect width="1728" height="707" fill="#FDF6E6"/>
</mask>
<g mask="url(#mask0_1018_331)">
<mask id="mask1_1018_331" style="mask-type:alpha" maskUnits="userSpaceOnUse" x="0" y="6" width="1728" height="718">
<rect y="6" width="1728" height="718" fill="#FDF6E6"/>
</mask>
<g mask="url(#mask1_1018_331)">
</g>
<g clip-path="url(#clip0_1018_331)">
<path d="M812.588 679.056C809.139 679.056 805.331 678.753 801.13 678.153C789.649 676.515 780.275 674.949 772.748 673.687C763.166 672.083 756.24 670.927 751.421 670.703C731.262 669.755 717.827 665.553 711.457 658.221C695.112 657.071 656.255 639.288 634.923 623.109C613.326 606.728 606.4 569.406 619.162 538.148C624.773 524.416 636.192 513.785 652.177 507.412C665.95 501.92 682.362 499.873 698.393 501.64L698.044 504.776C669.55 501.634 633.62 511.103 622.088 539.338C609.844 569.339 616.32 605.034 636.838 620.596C654.576 634.054 690.355 651.691 708.458 654.687C706.003 650.44 705.301 643.748 706.537 635.524C707.795 627.176 710.969 618.245 715.249 611.031C720.203 602.667 726.258 597.046 732.756 594.78C754.954 587.038 767.682 595.262 777.915 601.865C788.672 608.81 817.188 619.149 828.405 620.916C832.82 621.611 836.695 624.618 839.611 629.605C844.402 637.812 845.615 649.823 842.492 658.165C840.335 663.926 836.943 671.062 829.804 675.168C825.288 677.766 819.688 679.045 812.594 679.045L812.588 679.056ZM716.254 658.434C721.405 662.507 731.566 666.613 751.567 667.556C756.577 667.786 763.576 668.958 773.265 670.579C780.78 671.836 790.132 673.401 801.574 675.034C826.361 678.573 834.258 671.124 839.521 657.071C842.295 649.66 841.155 638.542 836.87 631.204C835.185 628.315 832.258 624.725 827.9 624.04C816.419 622.228 787.206 611.637 776.185 604.524C766.03 597.966 754.521 590.539 733.784 597.764C721.191 602.156 711.952 620.742 709.649 636C708.216 645.487 709.536 652.746 713.17 655.422L717.327 658.479L716.248 658.434H716.254Z" fill="#F3E2B8"/>
<path d="M1114.93 528.668C1114.65 528.668 1114.38 528.662 1114.11 528.645C1104.79 528.146 1101.61 519.759 1101.96 496.596L1102 494.117L1102.08 494.156C1102.5 482.819 1103.65 432.448 1094.16 371.481C1087.87 330.955 1078.18 293.745 1065.37 260.889C1049.39 219.875 1028.48 185.566 1003.22 158.908C958.591 111.819 899.828 87.9436 828.562 87.9436C757.295 87.9436 697.752 111.903 654.761 159.16C631.035 185.24 611.865 218.63 597.784 258.398C586.499 290.262 578.439 326.271 573.833 365.416C565.976 432.128 570.946 485.517 570.997 486.05V486.145C571.783 507.552 569.492 520.556 563.998 525.908C560.898 528.926 557.595 528.724 555.82 528.617C555.584 528.6 555.371 528.589 555.191 528.589C552.001 528.589 541.537 526.171 540.812 495.071C540.61 492.894 535.381 434.423 543.941 361.635C549.046 318.26 557.977 278.352 570.486 243.01C586.146 198.771 607.489 161.606 633.928 132.542C681.94 79.7588 747.168 53 827.815 53C908.461 53 972.79 79.6466 1022.59 132.205C1050.72 161.881 1073.98 200.05 1091.74 245.641C1105.93 282.066 1116.66 323.292 1123.63 368.176C1135.49 444.565 1132.3 505.926 1132.26 506.537C1132.27 516.135 1128.79 521.465 1125.87 524.236C1122.86 527.08 1118.91 528.668 1114.92 528.668H1114.93ZM1105.11 497.124C1104.77 522.845 1109.26 525.229 1114.28 525.498C1117.68 525.678 1121.11 524.393 1123.7 521.947C1127.25 518.593 1129.12 513.23 1129.11 506.453C1129.15 505.757 1132.33 444.666 1120.51 368.592C1113.57 323.943 1102.9 282.952 1088.79 246.746C1071.18 201.554 1048.13 163.743 1020.3 134.37C971.116 82.4684 906.354 56.1527 827.815 56.1527C749.275 56.1527 683.653 82.5637 636.276 134.645C610.129 163.39 588.999 200.185 573.48 244.009C561.044 279.121 552.169 318.793 547.086 361.922C538.431 435.416 543.901 494.235 543.958 494.818V494.93C544.514 519.002 551.276 525.425 555.186 525.425C555.422 525.425 555.697 525.442 556.006 525.459C557.556 525.554 559.685 525.683 561.785 523.641C565.049 520.461 568.75 511.401 567.84 486.297C567.661 484.389 562.898 431.259 570.682 365.114C575.316 325.727 583.427 289.482 594.79 257.383C609.012 217.199 628.401 183.44 652.418 157.04C696.033 109.093 755.296 84.7796 828.562 84.7796C901.827 84.7796 960.27 108.992 1005.51 156.737C1031.06 183.698 1052.2 218.366 1068.33 259.778C1081.21 292.859 1090.96 330.305 1097.29 371.06C1108.06 440.425 1105.16 496.153 1105.12 496.709L1105.1 497.118L1105.11 497.124Z" fill="#F3E2B8"/>
<path d="M847.727 363.425H813.796C788.823 363.425 764.885 354.219 746.388 337.502C728.021 320.908 716.485 298.289 713.901 273.814C713.53 270.291 713.345 266.712 713.345 263.177V234.006C713.345 233.44 713.345 232.879 713.362 232.312C713.783 200.409 726.567 170.453 749.354 147.997C772.164 125.513 802.382 113.132 834.449 113.132C866.515 113.132 897.217 125.703 920.094 148.535C942.567 170.991 955.137 200.768 955.531 232.441H955.553L955.564 234.018V255.817C955.564 261.691 955.087 267.536 954.149 273.197C950.105 298.115 937.242 320.959 917.932 337.496C898.413 354.214 873.486 363.425 847.727 363.425ZM834.449 116.29C803.219 116.29 773.787 128.351 751.573 150.246C729.381 172.119 716.928 201.296 716.518 232.391C716.501 232.952 716.501 233.485 716.501 234.012V263.183C716.501 266.605 716.681 270.072 717.041 273.488C719.546 297.19 730.718 319.091 748.506 335.168C766.424 351.358 789.61 360.278 813.796 360.278H847.727C872.727 360.278 896.93 351.341 915.876 335.112C934.619 319.057 947.105 296.887 951.031 272.692C951.941 267.2 952.408 261.528 952.408 255.823L952.396 234.023C952.396 233.76 952.396 233.479 952.38 233.215C952.155 202.047 939.893 172.798 917.859 150.774C895.582 128.536 865.959 116.29 834.449 116.29Z" fill="#F3E2B8"/>
<path d="M958.002 275.407C956.047 275.407 954.098 275.104 952.205 274.481L952.121 274.453C952.076 274.442 951.93 274.386 951.762 274.285L950.857 273.73L951.032 272.686C951.941 267.2 952.402 261.528 952.402 255.823V234.023C952.402 233.76 952.402 233.479 952.385 233.21L952.318 232.065L953.385 231.65C957.648 229.979 962.125 229.816 966.332 231.179C971.572 232.879 975.746 236.75 978.082 242.079C980.391 247.347 980.632 253.416 978.756 259.172L978.363 260.26C976.386 265.517 972.78 269.864 968.124 272.58C964.911 274.453 961.439 275.407 957.991 275.407H958.002ZM954.368 271.822C958.401 272.793 962.681 272.114 966.545 269.859C970.848 267.351 974.122 263.206 975.757 258.196L975.942 257.624C977.38 252.777 977.122 247.728 975.195 243.347C973.224 238.853 969.73 235.594 965.36 234.18C962.192 233.154 958.822 233.171 955.559 234.225V255.829C955.559 261.225 955.154 266.605 954.362 271.828L954.368 271.822Z" fill="#F3E2B8"/>
<path d="M713.109 275.396C704.043 275.396 695.596 268.922 692.416 259.172C690.54 253.411 690.782 247.341 693.096 242.073C695.438 236.744 699.617 232.868 704.863 231.173C708.217 230.085 711.839 229.973 715.333 230.848L716.569 231.157L716.529 232.43C716.513 232.957 716.513 233.49 716.513 234.023V263.194C716.513 266.611 716.692 270.078 717.052 273.5L717.209 275.02L715.693 275.227C714.828 275.345 713.968 275.407 713.109 275.407V275.396ZM710.637 233.417C709.003 233.417 707.385 233.67 705.841 234.169C701.46 235.588 697.966 238.842 695.989 243.336C693.989 247.891 693.787 253.164 695.421 258.19C698.202 266.712 705.902 272.462 713.755 272.221C713.485 269.208 713.35 266.179 713.35 263.183V234.012C713.35 233.889 713.35 233.765 713.35 233.642C712.446 233.485 711.536 233.412 710.637 233.412V233.417Z" fill="#F3E2B8"/>
<path d="M837.527 287.849C831.607 287.849 825.686 285.897 819.806 281.993L821.552 279.367C832.303 286.503 842.75 286.503 853.501 279.367L855.248 281.993C849.367 285.897 843.447 287.849 837.527 287.849Z" fill="#F3E2B8"/>
<path d="M804.236 529.498C798.197 529.229 792.07 526.817 787.846 523.047C775.174 511.721 769.788 497.758 764.575 484.255C762.34 478.46 760.228 472.99 757.571 467.683C756.392 465.327 754.617 461.614 752.37 456.918C740.069 431.197 711.26 370.953 697.449 363.234L695.943 362.393L696.915 360.968C709.019 343.23 731.722 335.269 744.181 332.1L744.961 335.157C733.25 338.136 712.187 345.468 700.454 361.433C715.473 372.451 742.17 428.274 755.218 455.561C757.459 460.245 759.228 463.947 760.396 466.275C763.12 471.717 765.362 477.512 767.524 483.122C772.602 496.277 777.853 509.881 789.952 520.696C793.648 523.995 799.04 526.11 804.376 526.345L804.236 529.492V529.498Z" fill="#F3E2B8"/>
<path d="M833.01 492.097L829.859 491.923C830.932 472.581 824.13 447.028 810.178 418.037C795.125 386.745 777.269 362.236 770.293 353.153L772.798 351.235C779.836 360.396 797.843 385.118 813.026 416.673C827.405 446.562 834.128 471.941 833.01 492.097Z" fill="#F3E2B8"/>
<path d="M874.154 530.317L873.767 527.187C878.766 526.575 883.748 524.281 887.084 521.055C898.745 509.763 903.446 495.963 908.001 482.617C909.939 476.928 911.944 471.049 914.449 465.507C915.988 462.113 918.465 455.88 921.605 447.987C933.316 418.569 952.638 370.022 965.95 359.335C952.795 342.927 928.828 337.44 918.954 335.825L919.465 332.711C929.968 334.428 955.868 340.397 969.466 358.724L970.494 360.11L969.022 361.007C956.592 368.608 935.737 420.999 924.537 449.149C921.38 457.075 918.886 463.341 917.319 466.803C914.876 472.205 912.983 477.753 910.984 483.627C906.31 497.326 901.48 511.496 889.275 523.316C885.461 527.002 879.805 529.616 874.149 530.311L874.154 530.317Z" fill="#F3E2B8"/>
<path d="M842.655 490.521C840.711 470.157 846.131 444.7 858.769 414.856C871.508 384.77 887.758 359.571 894.155 350.13L896.767 351.897C890.426 361.26 874.311 386.257 861.673 416.084C849.243 445.441 843.896 470.382 845.794 490.218L842.649 490.515L842.655 490.521Z" fill="#F3E2B8"/>
<mask id="mask2_1018_331" style="mask-type:luminance" maskUnits="userSpaceOnUse" x="720" y="392" width="230" height="44">
<path d="M949.565 392.663H720.438V435.006H949.565V392.663Z" fill="white"/>
</mask>
<g mask="url(#mask2_1018_331)">
<path d="M928.373 394.991H741.631C731.212 394.991 722.77 403.429 722.77 413.835C722.77 424.241 731.217 432.678 741.631 432.678H928.373C938.792 432.678 947.234 424.241 947.234 413.835C947.234 403.429 938.787 394.991 928.373 394.991Z" fill="#FBF5E7"/>
<path d="M928.379 434.26H741.631C730.358 434.26 721.191 425.099 721.191 413.835C721.191 402.57 730.364 393.409 741.631 393.409H928.379C939.652 393.409 948.818 402.57 948.818 413.835C948.818 425.099 939.646 434.26 928.379 434.26ZM741.631 396.568C732.099 396.568 724.348 404.315 724.348 413.835C724.348 423.355 732.099 431.102 741.631 431.102H928.379C937.911 431.102 945.662 423.355 945.662 413.835C945.662 404.315 937.911 396.568 928.379 396.568H741.631Z" fill="#F3E2B8"/>
<path d="M930.131 426.014H740.58C732.346 426.014 725.482 420.208 723.859 412.472C723.617 413.616 723.488 414.783 723.488 416.006V416.735C723.488 426.171 731.138 433.811 740.58 433.811H930.12C939.567 433.811 947.212 426.171 947.212 416.735V416.006C947.212 414.794 947.077 413.61 946.841 412.472C945.218 420.208 938.343 426.014 930.12 426.014H930.131Z" fill="#F3E2B8"/>
</g>
<path d="M647.526 449.093C635.517 449.093 626.244 444.279 625.637 443.96C622.638 442.361 620.959 438.619 621.65 435.062C622.369 431.36 625.413 428.875 629.794 428.404C637.489 427.579 643.409 427.607 646.038 428.476C647.841 429.071 650.975 430.872 651.273 433.828C651.542 436.51 649.52 439.057 645.077 441.603L643.505 438.871C647.858 436.375 648.189 434.737 648.133 434.148C648.004 432.869 645.959 431.775 645.049 431.472C643.443 430.939 638.573 430.636 630.137 431.545C627.12 431.87 625.211 433.329 624.756 435.668C624.329 437.867 625.351 440.235 627.132 441.183C628.025 441.659 649.267 452.683 668.662 439.556C685.973 427.843 681.446 400.663 681.396 400.388C680.306 393.466 675.661 375.121 667.303 373.029C660.501 371.329 656.373 373.147 654.519 374.387C652.817 375.52 652.16 376.709 652.115 377.018C652.081 377.242 652.014 377.612 651.919 378.106C649.644 389.887 650.773 396.921 655.266 399.002C657.642 400.102 659.569 400.287 661.169 399.552C664.843 397.869 667.179 391.137 668.977 384.77L672.016 385.629C669.595 394.195 667.05 400.326 662.484 402.419C660.029 403.546 657.153 403.361 653.935 401.863C644.926 397.69 647.852 382.504 648.818 377.511C648.902 377.085 648.964 376.759 648.992 376.569C649.217 375.02 650.649 373.186 652.739 371.789C655.03 370.252 660.063 367.975 668.073 369.977C680.166 372.995 684.344 398.778 684.513 399.878C684.558 400.147 685.782 407.254 684.715 416.017C683.283 427.775 678.346 436.818 670.437 442.17C662.664 447.432 654.626 449.109 647.537 449.109L647.526 449.093Z" fill="#F3E2B8"/>
<path d="M625.307 432.089C620.111 432.089 615.651 428.145 615.123 422.883C614.854 420.168 615.657 417.509 617.393 415.394C619.128 413.285 621.577 411.972 624.301 411.703L641.899 409.958C647.51 409.392 652.543 413.504 653.104 419.114C653.66 424.718 649.543 429.733 643.926 430.294L626.329 432.039C625.986 432.072 625.644 432.089 625.307 432.089ZM642.921 413.061C642.685 413.061 642.449 413.072 642.213 413.094L624.616 414.839C622.734 415.024 621.038 415.933 619.836 417.391C618.639 418.85 618.078 420.69 618.269 422.569C618.656 426.446 622.122 429.295 626.02 428.903L643.617 427.158C647.504 426.771 650.352 423.304 649.964 419.428C649.599 415.787 646.516 413.061 642.921 413.061Z" fill="#F3E2B8"/>
<path d="M645.279 412.696H626.48C620.537 412.696 615.701 407.866 615.701 401.936C615.701 396.007 620.537 391.177 626.48 391.177H645.279C645.684 391.177 646.043 391.177 646.38 391.166C647.784 391.143 648.902 391.132 650.43 391.569L649.559 394.599C648.481 394.29 647.751 394.301 646.425 394.318C646.077 394.318 645.701 394.329 645.279 394.329H626.48C622.278 394.329 618.858 397.74 618.858 401.936C618.858 406.133 622.278 409.543 626.48 409.543H645.279C649.481 409.543 652.901 406.133 652.901 401.936V401.14H656.058V401.936C656.058 407.872 651.222 412.696 645.279 412.696Z" fill="#F3E2B8"/>
<path d="M649.2 394.487L631.687 393.454C629.115 393.303 626.756 392.164 625.042 390.24C623.329 388.316 622.47 385.847 622.622 383.278C622.773 380.709 623.919 378.353 625.846 376.642C627.772 374.936 630.249 374.078 632.816 374.224L650.627 375.2L650.453 378.347L632.636 377.371C630.895 377.281 629.233 377.848 627.941 378.998C626.643 380.148 625.874 381.73 625.773 383.458C625.672 385.185 626.25 386.846 627.402 388.142C628.553 389.438 630.143 390.206 631.873 390.307L649.386 391.339L649.2 394.487Z" fill="#F3E2B8"/>
<path d="M993.028 387.514C978.936 373.113 969.376 364.121 965.394 361.495L967.135 358.864C971.364 361.652 980.834 370.549 995.286 385.314L993.028 387.519V387.514Z" fill="#F3E2B8"/>
<path d="M939.831 508.304L939.101 507.53C936.899 505.196 925.705 500.204 905.642 494.324L906.529 491.301C913.196 493.253 934.534 499.766 940.595 504.641C952.767 500.254 968.308 501.034 973.628 501.466C973.521 498.947 973.397 494.257 973.723 489.876L973.852 488.17L975.543 488.434C996.471 491.716 1015.09 487.952 1027.96 477.837C1038.32 469.703 1044.4 458.035 1045.55 444.094L1048.69 444.352C1047.47 459.19 1040.97 471.627 1029.91 480.317C1016.7 490.701 997.875 494.756 976.762 491.806C976.492 497.371 976.863 503.042 976.868 503.104L976.998 504.994L975.116 504.776C974.914 504.753 954.766 502.509 940.814 507.923L939.82 508.31L939.831 508.304Z" fill="#F3E2B8"/>
<path d="M843.144 481.742C840.858 481.579 838.701 481.484 836.729 481.456C835.123 481.472 833.337 481.545 831.304 481.674L831.096 478.527C833.191 478.393 835.033 478.314 836.735 478.297C838.802 478.325 841.021 478.421 843.363 478.589L843.138 481.736L843.144 481.742Z" fill="#F3E2B8"/>
<path d="M733.699 508.304L732.705 507.917C719.977 502.98 702.386 504.372 698.987 504.703C698.358 504.759 697.757 504.54 697.319 504.114C696.881 503.687 696.651 503.098 696.685 502.487C696.786 500.63 696.971 496.176 696.758 491.789C676.38 494.622 658.091 490.605 645.111 480.407C633.883 471.588 627.014 458.354 625.767 443.152L628.912 442.894C630.108 457.423 636.382 469.535 647.066 477.927C659.715 487.862 677.795 491.587 697.988 488.423L699.678 488.159L699.807 489.865C700.133 494.167 700.015 498.829 699.903 501.46C705.132 501.039 720.797 500.265 732.941 504.641C738.035 500.568 754.594 494.863 769.001 490.717L769.877 493.747C748.601 499.867 736.749 505.084 734.441 507.536L733.711 508.31L733.699 508.304Z" fill="#F3E2B8"/>
<path d="M678.672 382.964L676.335 380.843C686.676 369.45 693.567 362.797 697.409 360.497L699.033 363.201C695.511 365.31 688.664 371.963 678.672 382.964Z" fill="#F3E2B8"/>
<path d="M1047.87 445.614L1046.39 442.832C1048.2 441.873 1049.24 438.905 1048.72 436.224C1048.42 434.653 1047.32 431.955 1043.38 431.534C1034.94 430.631 1030.07 430.934 1028.47 431.461C1027.77 431.691 1026.04 432.807 1025.9 434.182C1025.75 435.696 1027.5 437.587 1030.82 439.494L1029.25 442.226C1024.65 439.584 1022.47 436.773 1022.76 433.862C1023.06 430.973 1025.81 429.015 1027.48 428.46C1030.1 427.59 1036.02 427.568 1043.73 428.387C1048.01 428.847 1051.04 431.545 1051.83 435.612C1052.62 439.69 1050.92 443.982 1047.88 445.603L1047.87 445.614Z" fill="#F3E2B8"/>
<path d="M1028.35 449.743C1020.58 449.743 1011.61 447.914 1003.09 442.153C995.185 436.801 990.248 427.758 988.815 416C987.748 407.238 988.967 400.13 989.023 399.833C989.192 398.767 993.365 372.984 1005.46 369.96C1013.46 367.963 1018.5 370.241 1020.79 371.772C1022.88 373.175 1024.31 375.004 1024.54 376.552C1024.57 376.748 1024.63 377.068 1024.71 377.5C1025.67 382.493 1028.6 397.678 1019.59 401.852C1016.37 403.344 1013.5 403.53 1011.04 402.402C1006.48 400.31 1003.93 394.178 1001.51 385.612L1004.55 384.753C1006.35 391.115 1008.69 397.852 1012.36 399.535C1013.96 400.265 1015.89 400.091 1018.26 398.986C1022.76 396.904 1023.89 389.875 1021.61 378.089C1021.52 377.595 1021.44 377.219 1021.42 377.001C1021.37 376.698 1020.71 375.503 1018.99 374.37C1017.14 373.136 1013.01 371.324 1006.22 373.018C997.864 375.105 993.219 393.454 992.135 400.349C992.084 400.652 987.552 427.826 1004.86 439.539C1022 451.134 1041.06 445.659 1046.39 442.826L1047.88 445.609C1044.78 447.258 1037.38 449.738 1028.34 449.738L1028.35 449.743Z" fill="#F3E2B8"/>
<path d="M1048.26 432.078C1047.92 432.078 1047.58 432.061 1047.24 432.027L1029.64 430.283C1026.91 430.014 1024.47 428.701 1022.73 426.592C1020.99 424.482 1020.19 421.823 1020.46 419.102C1021.02 413.493 1026.04 409.386 1031.67 409.947L1049.26 411.692C1051.99 411.961 1054.44 413.274 1056.17 415.383C1057.91 417.492 1058.71 420.151 1058.44 422.872C1057.92 428.134 1053.45 432.078 1048.26 432.078H1048.26ZM1030.64 413.049C1027.05 413.049 1023.97 415.776 1023.6 419.417C1023.41 421.296 1023.97 423.13 1025.17 424.589C1026.36 426.047 1028.07 426.956 1029.95 427.141L1047.54 428.886C1051.43 429.267 1054.91 426.434 1055.3 422.558C1055.48 420.679 1054.93 418.844 1053.73 417.38C1052.53 415.922 1050.83 415.013 1048.95 414.828L1031.35 413.083C1031.12 413.061 1030.88 413.049 1030.64 413.049Z" fill="#F3E2B8"/>
<path d="M1047.04 412.696H1028.24C1022.69 412.696 1018.27 407.288 1017.48 402.054H1017.46L1017.44 401.852C1017.38 401.37 1017.35 400.893 1017.35 400.422L1020.5 400.31L1020.59 401.577C1021.15 405.426 1024.35 409.543 1028.23 409.543H1047.03C1051.23 409.543 1054.66 406.133 1054.66 401.936C1054.66 397.74 1051.23 394.329 1047.03 394.329H1024.33V391.177H1047.03C1052.98 391.177 1057.81 396.001 1057.81 401.936C1057.81 407.872 1052.98 412.696 1047.03 412.696H1047.04Z" fill="#F3E2B8"/>
<path d="M1025.38 394.425L1025.2 391.278L1041.66 390.307C1043.39 390.206 1044.98 389.438 1046.13 388.142C1047.28 386.846 1047.86 385.185 1047.76 383.458C1047.55 379.89 1044.47 377.163 1040.9 377.371L1024.44 378.341L1024.25 375.194L1040.71 374.224C1046.03 373.904 1050.6 377.971 1050.91 383.273C1051.06 385.836 1050.2 388.31 1048.49 390.234C1046.78 392.158 1044.42 393.303 1041.84 393.449L1025.38 394.419V394.425Z" fill="#F3E2B8"/>
<path d="M699.796 489.983H696.64C696.64 476.418 706.677 440.768 710.772 430.434L713.709 431.596C709.676 441.766 699.796 476.76 699.796 489.983Z" fill="#F3E2B8"/>
<path d="M976.88 490.022L973.723 489.971C973.875 480.923 968.337 453.945 958.968 430.558L961.9 429.385C968.314 445.396 977.116 476.21 976.88 490.022Z" fill="#F3E2B8"/>
<path d="M844.03 685.367C836.448 685.367 828.792 682.854 821.103 677.822L822.832 675.185C837.756 684.957 851.967 684.615 866.25 674.136C865.397 659.708 865.897 634.503 870.059 609.494C873.586 588.323 881.068 559.87 896.688 544.544C924.469 517.28 939.095 505.353 939.235 505.236L941.224 507.681C941.078 507.799 926.547 519.647 898.895 546.787C887.016 558.445 878.119 580.306 873.17 610.005C868.963 635.249 868.537 660.678 869.452 674.781L869.508 675.628L868.829 676.139C860.695 682.287 852.405 685.361 844.025 685.361L844.03 685.367Z" fill="#F3E2B8"/>
<path d="M805.584 615.94C799.135 583.919 753.072 521.695 732.396 507.754L734.16 505.14C744.214 511.917 761.233 531.024 776.505 552.678C793.901 577.344 805.628 600.176 808.673 615.317L805.578 615.94H805.584Z" fill="#F3E2B8"/>
<path d="M939.101 507.53C936.899 505.196 925.705 500.204 905.642 494.325L906.529 491.301C913.533 493.354 936.753 500.439 941.398 505.37L939.101 507.53Z" fill="#F3E2B8"/>
<path d="M735.329 507.541L733.031 505.381C736.727 501.455 753.757 495.194 768.99 490.729L769.878 493.752C750.533 499.424 737.643 505.09 735.329 507.541Z" fill="#F3E2B8"/>
<path d="M960.692 657.778L960.175 654.664C960.478 654.614 991.045 649.374 1018.19 632.034C1046.99 613.634 1059.95 584.704 1054.68 550.569C1049.38 516.321 1008.54 506.767 975.205 504.787L975.391 501.64C1009.88 503.693 1052.17 513.762 1057.8 550.092C1063.27 585.54 1049.81 615.586 1019.88 634.699C992.179 652.398 961 657.733 960.686 657.783L960.692 657.778Z" fill="#F3E2B8"/>
<path d="M935.293 678.658C927.182 678.658 918.426 675.819 912.915 671.129C908.231 667.141 902.67 661.52 901.238 653.419C899.896 645.807 902.12 636.937 908.237 625.51C913.724 615.267 918.414 606.987 922.183 600.339C926.946 591.935 930.389 585.866 932.243 581.439C940.157 562.54 948.863 551.309 958.12 548.05C962.973 544.97 971.207 546.17 980.75 551.365C988.175 555.404 995.483 561.429 1000.81 567.903C1006.98 575.409 1010.19 582.999 1010.1 589.865C1009.81 613.342 997.713 622.47 987.995 629.796C977.795 637.493 958.305 660.717 952.795 670.647C950.638 674.546 946.493 677.148 940.814 678.181C939.039 678.5 937.186 678.658 935.293 678.658ZM958.816 549.424L959.338 550.967C951.02 553.783 942.657 564.739 935.158 582.651C933.232 587.251 929.749 593.394 924.93 601.893C921.167 608.529 916.488 616.787 911.023 626.997C899.222 649.049 903.53 658.995 914.966 668.728C921.004 673.867 931.878 676.599 940.258 675.079C943.544 674.484 947.914 672.964 950.043 669.121C955.688 658.956 975.65 635.17 986.103 627.283C995.747 620.007 1006.68 611.76 1006.96 589.826C1007.13 576.525 992.809 561.513 979.25 554.136C970.791 549.536 963.489 548.28 959.72 550.776L958.822 549.424H958.816Z" fill="#F3E2B8"/>
<path d="M903.221 638.452C895.801 626.183 894.891 610.566 900.592 593.287C906.439 575.571 916.892 562.287 919.959 558.641L922.38 560.666C909.809 575.628 890.19 610.801 905.928 636.819L903.226 638.452H903.221Z" fill="#F3E2B8"/>
<path d="M901.806 657.66C901.654 657.593 886.438 650.889 869.986 650.423L870.076 647.271C887.174 647.747 902.452 654.49 903.097 654.777L901.811 657.654L901.806 657.66Z" fill="#F3E2B8"/>
<path d="M781.038 606.829C777.017 596.059 748.596 561.783 734.958 551.259L736.89 548.762C751.14 559.757 779.758 594.359 783.998 605.724L781.038 606.824V606.829Z" fill="#F3E2B8"/>
<path d="M832.426 847.44C731.402 847.44 652.553 791.219 594.779 750.031C551.338 719.059 532.208 672.857 529.023 642.704C526.961 623.188 530.663 607.166 539.436 597.584C565.734 568.879 594.116 524.404 594.116 502.61C594.116 480.816 580.731 429.705 568.133 393.28L571.115 392.248C583.792 428.914 597.267 480.053 597.267 502.61C597.267 516.534 587.196 536.14 578.743 550.142C568.554 567.022 554.725 585.551 541.756 599.716C533.601 608.625 530.191 623.771 532.151 642.379C535.263 671.881 554.012 717.113 596.599 747.473C625.278 767.921 660.967 793.362 701.15 812.581C747.028 834.521 791.182 844.871 836.162 844.271C881.163 844.893 925.334 834.521 971.212 812.581C1011.4 793.362 1047.08 767.921 1075.76 747.479C1118.34 717.118 1137.09 671.892 1140.21 642.384C1142.17 623.777 1138.76 608.625 1130.6 599.722C1117.63 585.557 1103.8 567.022 1093.61 550.148C1085.17 536.151 1075.09 516.539 1075.09 502.621C1075.09 483.066 1083.58 438.282 1097.77 397.19L1100.75 398.223C1086.66 439 1078.24 483.329 1078.24 502.627C1078.24 524.41 1106.62 568.885 1132.92 597.601C1141.69 607.183 1145.39 623.204 1143.33 642.721C1140.15 672.874 1121.02 719.076 1077.58 750.048C1019.81 791.23 940.943 847.451 839.874 847.457C838.633 847.457 837.397 847.446 836.145 847.429C834.898 847.446 833.634 847.457 832.393 847.457L832.426 847.44Z" fill="#F3E2B8"/>
<path d="M698.415 814.449L698.016 811.324C711.423 809.608 726.162 803.05 737.44 793.777C750.365 783.152 757.537 769.918 757.644 756.511C757.852 730.296 712.108 698.746 690.124 683.589C687.131 681.524 684.541 679.74 682.637 678.355C680.312 676.666 676.447 674.147 671.549 670.961C643.258 652.544 584.393 614.223 590.549 585.45C602.463 529.801 598.413 491.716 590.656 474.628L593.532 473.327C605.681 500.08 601.553 549.132 593.639 586.112C587.932 612.765 647.734 651.697 673.274 668.319C678.205 671.527 682.103 674.069 684.496 675.808C686.372 677.171 688.945 678.944 691.922 680.997C714.35 696.463 761.025 728.652 760.806 756.539C760.694 770.894 753.111 784.986 739.451 796.217C727.734 805.849 712.395 812.67 698.42 814.454L698.415 814.449Z" fill="#F3E2B8"/>
<path d="M972.718 814.46C958.737 812.671 943.398 805.855 931.681 796.223C918.021 784.997 910.439 770.9 910.332 756.544C910.118 728.635 956.811 696.441 979.25 680.974C982.21 678.932 984.771 677.171 986.636 675.813C989.029 674.074 992.927 671.539 997.859 668.324C1023.4 651.702 1083.2 612.77 1077.49 586.118C1069.74 549.901 1065.81 501.628 1078.02 474.763L1080.89 476.065C1069.01 502.234 1072.94 549.733 1080.58 585.462C1086.74 614.234 1027.87 652.555 999.583 670.972C994.685 674.158 990.821 676.677 988.495 678.366C986.597 679.746 984.024 681.519 981.042 683.572C959.046 698.735 913.286 730.285 913.483 756.522C913.584 769.935 920.757 783.168 933.681 793.793C944.959 803.061 959.698 809.619 973.111 811.335L972.712 814.46H972.718Z" fill="#F3E2B8"/>
<path d="M569.885 480.199L567.863 477.776C574.047 472.637 581.844 469.422 591.044 468.228L591.448 471.352C582.855 472.469 575.598 475.442 569.885 480.193V480.199Z" fill="#F3E2B8"/>
<path d="M569.172 562.349C561.174 557.637 554.456 543.45 552.451 527.047L555.585 526.665C557.45 541.901 563.696 555.455 570.779 559.634L569.172 562.349Z" fill="#F3E2B8"/>
<path d="M1103.08 482.241C1097.06 476.278 1089.05 472.614 1079.26 471.352L1079.67 468.228C1090.15 469.58 1098.78 473.54 1105.3 480.003L1103.08 482.241H1103.08Z" fill="#F3E2B8"/>
<path d="M1101.54 562.349L1099.93 559.634C1107.08 555.421 1113.34 541.744 1115.16 526.373L1118.29 526.744C1116.33 543.281 1109.6 557.592 1101.53 562.344L1101.54 562.349Z" fill="#F3E2B8"/>
<path d="M875.547 524.825C875.547 507.031 862.173 492.361 844.907 490.257C827.647 492.355 814.268 507.025 814.268 524.825C814.268 542.625 827.641 557.289 844.907 559.393C862.168 557.295 875.547 542.625 875.547 524.825Z" fill="#E8D3F2"/>
<mask id="mask3_1018_331" style="mask-type:luminance" maskUnits="userSpaceOnUse" x="826" y="549" width="25" height="10">
<path d="M850.372 549.43H826.883V558.815H850.372V549.43Z" fill="white"/>
</mask>
<g mask="url(#mask3_1018_331)">
<path d="M845.194 549.43C842.986 549.873 840.695 550.103 838.358 550.103C836.246 550.103 834.19 549.912 832.185 549.553C831.528 551.371 830.5 553.093 829.073 554.591L826.883 556.891C830.483 558.136 834.336 558.826 838.358 558.826C842.582 558.826 846.62 558.08 850.367 556.711L848.345 554.596C846.89 553.076 845.845 551.309 845.188 549.435H845.199L845.194 549.43Z" fill="#2B2E53"/>
</g>
<path d="M839.06 561.233C832.196 561.233 825.507 559.32 819.71 555.696L821.384 553.026C826.675 556.335 832.786 558.086 839.06 558.086C842.778 558.086 846.429 557.48 849.917 556.285L850.939 559.269C847.12 560.576 843.126 561.238 839.06 561.238V561.233Z" fill="#2B2E53"/>
<path d="M863.51 551.853L861.392 549.514C868.379 543.214 872.384 534.216 872.384 524.825C872.384 506.487 857.438 491.57 839.06 491.57C820.681 491.57 805.741 506.492 805.741 524.825C805.741 529.139 806.555 533.33 808.161 537.284L805.235 538.468C803.477 534.132 802.584 529.543 802.584 524.819C802.584 504.742 818.946 488.406 839.065 488.406C859.185 488.406 875.546 504.742 875.546 524.819C875.546 535.102 871.16 544.953 863.51 551.848V551.853Z" fill="#2B2E53"/>
<path d="M827.91 555.937C833.297 550.299 833.19 541.402 827.669 535.888C827.029 535.248 826.338 534.687 825.619 534.194C825.051 534.581 824.507 534.99 823.984 535.467L779.881 575.914C777.505 578.096 774.393 579.308 771.164 579.308H763.705C762.137 579.308 760.638 579.038 759.222 578.573C757.863 579.05 756.425 579.308 754.948 579.308H747.489C739.743 579.308 733.458 573.041 733.458 565.3V544.847C733.458 536.74 740.041 530.166 748.163 530.166H802.393L809.673 503.446H797.361L779.111 486.892C778.69 486.504 778.241 486.162 777.78 485.842C777.185 486.263 776.601 486.723 776.073 487.251L759.486 503.457L773.899 489.012L769.557 485.607C768.529 484.81 767.434 484.171 766.283 483.694C763.935 484.277 761.711 485.455 759.868 487.262L743.282 503.469L757.689 489.023L753.347 485.618C753.167 485.472 752.971 485.349 752.78 485.214C752.184 485.635 751.612 486.095 751.072 486.622L751.044 486.65L434.031 798.091L563.841 850.98L698.578 636.87H728.397C742.591 636.87 756.172 631.058 765.968 620.809L827.916 555.932H827.905L827.91 555.937Z" fill="#C2E8E1"/>
<path d="M989.944 535.231L965.107 510.963L940.163 486.594C939.623 486.072 939.045 485.607 938.455 485.186C938.264 485.321 938.079 485.444 937.888 485.59L933.546 488.99L947.953 503.435H867.251L876.047 530.154H943.061C951.183 530.154 957.766 536.729 957.766 544.835V565.289C957.766 573.019 951.486 579.296 943.735 579.296H936.276C934.81 579.296 933.372 579.038 932.001 578.562C930.597 579.038 929.097 579.296 927.519 579.296H920.06C916.83 579.296 913.719 578.085 911.343 575.902L867.239 535.456C866.717 534.979 866.172 534.569 865.605 534.182C864.886 534.676 864.195 535.231 863.555 535.882C858.034 541.396 857.932 550.294 863.313 555.932L925.261 620.809C935.057 631.069 948.633 636.87 962.832 636.87H992.64L1160.64 899.006L1290.99 826.476L989.944 535.226L989.933 535.237L989.944 535.231Z" fill="#C2E8E1"/>
<path d="M932.501 488.788L936.843 485.388C937.023 485.242 937.219 485.119 937.41 484.984C938.005 485.405 938.578 485.865 939.118 486.392L939.146 486.42L956.372 503.244H946.919L932.512 488.799L932.501 488.788Z" fill="#C2E8E1"/>
<path d="M916.303 488.788L920.645 485.388C921.672 484.591 922.768 483.952 923.919 483.475C926.267 484.059 928.486 485.237 930.334 487.037L946.92 503.244H930.721L916.314 488.799L916.303 488.788Z" fill="#C2E8E1"/>
<path d="M911.084 486.678C911.506 486.291 911.955 485.949 912.416 485.629C913.011 486.05 913.595 486.51 914.123 487.037L930.71 503.244H892.824L911.073 486.69L911.084 486.678Z" fill="#C2E8E1"/>
<path d="M805.399 524.909H802.242C802.242 504.832 818.604 488.496 838.723 488.496V491.649C820.351 491.649 805.404 506.571 805.404 524.904L805.399 524.909Z" fill="#2B2E53"/>
<path d="M804.966 538.732C803.163 534.362 802.247 529.711 802.247 524.909H805.404C805.404 529.296 806.241 533.543 807.886 537.531L804.966 538.732Z" fill="#2B2E53"/>
<path d="M875.198 524.909H872.041C872.041 506.571 857.095 491.654 838.717 491.654V488.502C858.831 488.502 875.198 504.837 875.198 524.915V524.909Z" fill="#2B2E53"/>
<path d="M872.474 538.732L869.554 537.531C871.199 533.543 872.036 529.296 872.036 524.909H875.193C875.193 529.711 874.277 534.362 872.474 538.732Z" fill="#2B2E53"/>
<path d="M560.477 861.74L557.804 860.062L699.246 635.288H729.948C743.642 635.288 756.92 629.611 766.378 619.715L828.326 554.843C833.162 549.783 833.067 541.946 828.107 536.998C823.243 532.146 815.464 531.983 810.392 536.622L766.289 577.069C763.615 579.526 760.138 580.878 756.499 580.878H749.039C740.434 580.878 733.43 573.889 733.43 565.294V544.841C733.43 535.876 740.738 528.584 749.713 528.584H803.944V531.736H749.713C742.473 531.736 736.587 537.615 736.587 544.841V565.294C736.587 572.15 742.176 577.726 749.039 577.726H756.499C759.346 577.726 762.065 576.665 764.154 574.747L808.257 534.3C814.576 528.516 824.277 528.718 830.337 534.766C836.516 540.936 836.634 550.709 830.607 557.02L768.659 621.892C758.61 632.41 744.495 638.441 729.942 638.441H700.988L560.472 861.74H560.477Z" fill="#2B2E53"/>
<path d="M425.213 794.714L423 792.464L735.295 485.517C740.9 480.031 749.736 479.548 755.881 484.367L759.346 487.082L760.323 486.123C766.227 480.35 775.635 480.182 781.74 485.725L799.54 501.87H811.245V505.022H798.321L779.617 488.058C774.747 483.632 767.243 483.772 762.531 488.378L745.944 504.585L743.72 502.347L756.875 489.158L753.931 486.852C749.028 483.01 741.979 483.391 737.536 487.744L425.213 794.714Z" fill="#2B2E53"/>
<path d="M764.547 536.847C766.659 538.878 768.648 539.551 771.125 539.523C772.725 539.506 774.276 538.895 775.523 537.896L780.398 533.997C781.37 534.951 782.398 535.966 783.313 536.841C785.425 538.872 787.413 539.545 789.89 539.517C791.491 539.5 793.041 538.889 794.288 537.89L801.691 530.727L776.674 530.289H757.908C757.908 530.289 761.733 534.143 764.547 536.841V536.847Z" fill="#2B2E53"/>
<path d="M770.99 541.105C768.024 541.105 765.693 540.14 763.452 537.986C760.655 535.299 756.824 531.445 756.785 531.405L754.117 528.718H776.669L805.511 529.223L795.266 539.13C793.699 540.381 791.795 541.077 789.902 541.099C786.846 541.116 784.493 540.168 782.213 537.98C781.6 537.397 780.943 536.752 780.286 536.101L776.506 539.125C774.939 540.375 773.035 541.077 771.142 541.094C771.091 541.094 771.041 541.094 770.996 541.094L770.99 541.105ZM780.55 531.938L782.134 533.492C782.903 534.25 783.69 535.018 784.403 535.708C786.105 537.341 787.627 538.003 789.868 537.946C791.036 537.935 792.233 537.492 793.244 536.707L797.861 532.241L780.55 531.938ZM761.717 531.871C762.941 533.088 764.396 534.519 765.637 535.708C767.339 537.341 768.85 537.986 771.102 537.946C772.293 537.93 773.512 537.475 774.534 536.667L780.449 531.938L776.641 531.871H761.717Z" fill="#2B2E53"/>
<path d="M873.682 531.147L882.129 537.89C883.427 538.923 885.028 539.517 886.679 539.517C889.083 539.517 891.032 538.827 893.099 536.841C894.015 535.955 895.054 534.945 896.014 533.997L900.889 537.89C902.187 538.923 903.788 539.517 905.439 539.517C907.843 539.517 909.792 538.827 911.859 536.841C914.673 534.137 918.498 530.289 918.498 530.289L899.418 530.603L899.732 530.289L873.816 530.721C873.592 530.721 873.491 531.007 873.67 531.142V531.153L873.682 531.147Z" fill="#2B2E53"/>
<path d="M905.445 541.094C903.468 541.094 901.502 540.392 899.907 539.125L896.126 536.101C895.469 536.74 894.812 537.385 894.2 537.969C891.948 540.129 889.633 541.088 886.679 541.088C884.702 541.088 882.736 540.387 881.141 539.119L872.098 531.905V531.523C871.974 531.159 871.969 530.76 872.098 530.379C872.345 529.638 873.036 529.139 873.822 529.139L903.591 528.645L903.277 528.96L922.351 528.645L919.622 531.394C919.582 531.433 915.752 535.287 912.954 537.975C910.708 540.129 908.388 541.088 905.439 541.088L905.445 541.094ZM896.334 532.23L901.878 536.662C902.912 537.486 904.181 537.941 905.445 537.941C907.574 537.941 909.118 537.296 910.775 535.703C912 534.53 913.421 533.128 914.634 531.927L896.34 532.23H896.334ZM877.568 532.23L883.112 536.656C884.146 537.481 885.415 537.935 886.679 537.935C888.808 537.935 890.352 537.29 892.009 535.697C892.919 534.816 893.947 533.818 894.908 532.87L895.548 532.236L895.862 531.922L877.568 532.224V532.23ZM873.895 532.292H873.85C873.867 532.292 873.878 532.292 873.889 532.292H873.895Z" fill="#2B2E53"/>
<path d="M937.197 505.039L875.333 504.854L896.419 485.719C902.53 480.182 911.938 480.356 917.835 486.117L937.202 505.039H937.197ZM883.477 501.724L929.429 501.864L915.622 488.372C910.994 483.845 903.647 483.638 898.772 487.845L898.542 488.058L883.483 501.718L883.477 501.724Z" fill="#2B2E53"/>
<path d="M1219.79 760.454L990.4 536.364L940.618 487.733C936.164 483.385 929.115 483.004 924.222 486.841L921.279 489.152L937.119 505.028H866.212V501.875H929.513L916.533 488.861L922.279 484.361C928.418 479.548 937.253 480.031 942.831 485.478L1222 758.205L1219.8 760.46L1219.79 760.454Z" fill="#2B2E53"/>
<path d="M1117.65 861.756L977.138 638.458H948.2C933.636 638.458 919.527 632.427 909.484 621.909L847.536 557.037C841.515 550.72 841.633 540.948 847.805 534.783C853.866 528.73 863.566 528.528 869.885 534.317L913.988 574.764C916.078 576.688 918.796 577.743 921.638 577.743H929.098C935.967 577.743 941.55 572.166 941.55 565.311V544.858C941.55 537.632 935.658 531.753 928.424 531.753H873.626V528.6H928.424C937.405 528.6 944.712 535.893 944.712 544.858V565.311C944.712 573.905 937.708 580.895 929.103 580.895H921.644C918.01 580.895 914.533 579.543 911.86 577.086L867.756 536.639C862.684 531.994 854.905 532.163 850.041 537.015C845.087 541.957 844.991 549.8 849.822 554.86L911.77 619.732C921.217 629.628 934.495 635.305 948.2 635.305H978.885L1120.33 860.079L1117.65 861.756Z" fill="#2B2E53"/>
<path d="M801.461 501.875H734.368V505.028H801.461V501.875Z" fill="#2B2E53"/>
<path d="M946.499 501.875H879.395V505.028H946.499V501.875Z" fill="#2B2E53"/>
<path d="M889.325 596.294C920.015 636.876 974.734 627.036 974.734 627.036L979.25 636.085L957.822 636.864L933.007 634.261L914.522 624.483L889.325 596.283V596.294Z" fill="#2B2E53"/>
<path d="M788.492 596.294C757.801 636.876 703.082 627.036 703.082 627.036L698.566 636.085L719.995 636.864L744.815 634.261L763.3 624.483L788.497 596.283V596.294H788.492Z" fill="#2B2E53"/>
</g>
</g>
<defs>
<clipPath id="clip0_1018_331">
<rect width="868" height="846" fill="white" transform="translate(423 53)"/>
</clipPath>
</defs>
</svg>
