<svg width="292" height="222" viewBox="0 0 292 222" fill="none" xmlns="http://www.w3.org/2000/svg">
<g clip-path="url(#clip0_485_5449)">
<path d="M233.708 103.184V43.7084C233.708 38.9844 229.893 35.155 225.196 35.155H24.966C20.2685 35.155 16.4541 38.9897 16.4541 43.7084V103.195C16.4541 164.915 64.5155 215.346 125.086 218.751C185.646 215.346 233.718 164.915 233.718 103.195L233.708 103.184Z" fill="#C2E8E1"/>
<path d="M118.555 222C53.1821 222 0 168.551 0 102.849V43.3632C0 36.7663 5.34538 31.3989 11.9187 31.3989H225.185C231.759 31.3989 237.104 36.7663 237.104 43.3632V102.849C237.104 168.551 183.922 222 118.555 222ZM11.9187 38.2207C9.1023 38.2207 6.81366 40.5277 6.81366 43.3632V102.849C6.81366 164.789 56.939 215.178 118.549 215.178C180.16 215.178 230.285 164.789 230.285 102.849V43.3632C230.285 40.5277 227.996 38.2207 225.18 38.2207H11.9187Z" fill="#2B2E53"/>
<path d="M94.6393 215.309H87.8256V201.43C87.8256 154.567 49.9586 116.441 3.40723 116.441V109.619C53.7102 109.619 94.6393 150.806 94.6393 201.43V215.309Z" fill="#2B2E53"/>
<path d="M149.289 215.309H142.476V201.43C142.476 150.806 183.399 109.619 233.702 109.619V116.441C187.156 116.441 149.289 154.567 149.289 201.43V215.309Z" fill="#2B2E53"/>
<path d="M68.7219 90.0012H0V54.9036L3.40683 54.8932H68.7219C73.5499 54.8932 77.4741 58.8324 77.4741 63.6767V81.2176C77.4741 86.0619 73.5499 90.0012 68.7219 90.0012ZM6.81366 83.1794H68.7219C69.7878 83.1794 70.6604 82.3005 70.6604 81.2176V63.6767C70.6604 62.5938 69.793 61.7149 68.7219 61.7149H6.81366V83.1794Z" fill="#2B2E53"/>
<path d="M145.883 215.309V202.816C145.883 158.883 183.405 123.268 231.916 123.268L233.703 113.03C185.202 113.03 145.883 152.605 145.883 201.43V215.309Z" fill="#2B2E53"/>
<path d="M91.2321 215.309V202.816C91.2321 158.883 53.7047 123.268 5.19913 123.268L3.41211 113.03C51.9124 113.03 91.2373 152.605 91.2373 201.43V215.309H91.2321Z" fill="#2B2E53"/>
<path d="M236.54 1.9932C252.184 23.0496 277.877 29.4947 287.998 31.2786C290.464 31.7128 292.209 33.9414 291.979 36.4106C287.653 82.6144 246.494 114.076 235.323 121.813C233.651 122.975 231.419 122.975 229.747 121.813C218.576 114.071 177.427 82.6144 173.09 36.4106C172.861 33.9414 174.621 31.7024 177.088 31.2682C187.24 29.4895 213.006 23.0392 228.66 1.98274C230.625 -0.659122 234.591 -0.659122 236.545 1.98274V1.9932H236.54Z" fill="#DFE17F"/>
<path d="M232.538 122.677C231.561 122.677 230.583 122.389 229.747 121.808C224.58 118.225 211.208 108.29 198.856 93.5323C183.609 75.3166 174.94 56.0964 173.091 36.4106C172.861 33.9571 174.616 31.6971 177.088 31.2629C187.387 29.4581 213.037 22.9868 228.661 1.98272C229.549 0.784731 230.918 0.0627967 232.412 0.00525127C233.917 -0.0575256 235.323 0.554549 236.3 1.67407L236.446 1.85194C252.158 23.0025 277.736 29.4685 288.003 31.2734C290.459 31.7023 292.209 33.9571 291.99 36.4002C290.146 56.0964 281.477 75.3113 266.23 93.5323C253.862 108.306 240.501 118.23 235.333 121.808L234.957 122.044C234.21 122.467 233.379 122.677 232.543 122.677H232.538ZM179.005 36.8605C180.939 54.9978 189.121 72.7951 203.334 89.7762C214.819 103.503 227.218 112.894 232.538 116.629C237.852 112.904 250.241 103.524 261.747 89.7814C275.959 72.8003 284.137 55.003 286.07 36.871C274.736 34.7575 249.044 27.7788 232.595 6.46081C216.125 27.7788 190.36 34.7523 179.005 36.8605Z" fill="#2B2E53"/>
<path d="M225.917 79.9516L208.825 62.4839L212.995 58.3929L225.917 71.597L252.074 44.8645L256.244 48.9555L225.917 79.9516Z" fill="#2B2E53"/>
</g>
<defs>
<clipPath id="clip0_485_5449">
<rect width="292" height="222" fill="white"/>
</clipPath>
</defs>
</svg>
