<svg width="340" height="227" viewBox="0 0 340 227" fill="none" xmlns="http://www.w3.org/2000/svg">
<g clip-path="url(#clip0_485_5528)">
<path d="M331.324 32.4031H56.2236C71.3238 106.117 61.796 199.931 61.796 199.931H325.751C325.751 199.931 316.223 106.112 331.324 32.4031Z" fill="#E8D3F2"/>
<path d="M322.359 203.067H55.9548C53.9963 203.067 52.1148 202.244 50.7915 200.806C49.4874 199.387 48.8282 197.473 48.9918 195.559C50.8107 174.266 55.8201 99.9414 43.9728 37.4726C43.5879 35.4525 44.122 33.3843 45.4357 31.7971C46.7686 30.1907 48.7319 29.2672 50.8348 29.2672H327.475C329.573 29.2672 331.541 30.1907 332.874 31.7971C334.187 33.3843 334.722 35.4525 334.337 37.4726C322.489 99.9606 327.499 174.271 329.318 195.554C329.481 197.468 328.832 199.378 327.528 200.797C326.204 202.24 324.323 203.062 322.355 203.062L322.359 203.067ZM50.8396 35.5391C50.5365 35.5391 50.3536 35.6978 50.2766 35.794C50.19 35.895 50.0986 36.0682 50.1419 36.299C62.1383 99.5566 57.0857 174.598 55.2475 196.088C55.2282 196.309 55.3293 196.468 55.4159 196.559C55.4929 196.646 55.6709 196.79 55.9548 196.79H322.359C322.648 196.79 322.826 196.646 322.908 196.559C322.99 196.468 323.091 196.309 323.072 196.093C321.233 174.603 316.181 99.5758 328.177 36.299C328.211 36.1115 328.168 35.9383 328.047 35.7892C327.965 35.693 327.792 35.5343 327.484 35.5343H50.8396V35.5391Z" fill="#2B2E53"/>
<path d="M294.872 179.134H81.5929C79.7595 179.134 77.9791 178.374 76.7135 177.046C75.4527 175.719 74.7791 173.91 74.8657 172.083C76.2227 144.085 76.8386 102.038 72.0506 60.7277C71.8293 58.8134 72.4356 56.8943 73.7204 55.4562C74.9956 54.0229 76.829 53.2004 78.7442 53.2004H297.721C299.641 53.2004 301.47 54.0229 302.75 55.4562C304.03 56.8943 304.636 58.8182 304.415 60.7277C299.627 102.058 300.243 144.095 301.6 172.083C301.686 173.915 301.013 175.723 299.752 177.046C298.486 178.374 296.711 179.134 294.877 179.134H294.872ZM78.7442 59.4723C78.6094 59.4723 78.494 59.5252 78.4025 59.6262C78.3352 59.6984 78.263 59.8282 78.2822 60.0062C83.1183 101.74 82.5024 144.157 81.131 172.39C81.1261 172.52 81.1646 172.631 81.2513 172.722C81.3138 172.785 81.4197 172.862 81.5833 172.862H294.868C295.031 172.862 295.142 172.785 295.2 172.722C295.286 172.631 295.33 172.515 295.325 172.386C293.953 144.167 293.333 101.759 298.174 60.0062C298.193 59.8282 298.121 59.7032 298.053 59.6262C297.962 59.5252 297.846 59.4723 297.712 59.4723H78.7442Z" fill="#2B2E53"/>
<path d="M327.633 53.2004H50.6855V59.4723H327.633V53.2004Z" fill="#2B2E53"/>
<path d="M326.719 61.8579H51.595L50.6855 56.3364H327.633L326.724 61.8579H326.719Z" fill="#2B2E53"/>
<path d="M65.4532 212.816C65.4532 207.506 61.5313 203.043 56.2236 201.773C50.916 203.043 46.9941 207.506 46.9941 212.816C46.9941 218.126 50.916 222.594 56.2236 223.864C61.5313 222.594 65.4532 218.131 65.4532 212.816Z" fill="#E8D3F2"/>
<path d="M336.862 212.816C336.862 207.506 332.941 203.043 327.633 201.773C322.325 203.043 318.403 207.506 318.403 212.816C318.403 218.126 322.325 222.594 327.633 223.864C332.945 222.594 336.862 218.131 336.862 212.816Z" fill="#E8D3F2"/>
<path d="M53.4522 227C45.1033 227 38.3135 220.223 38.3135 211.897C38.3135 203.572 45.1033 196.795 53.4522 196.795C61.8011 196.795 68.5909 203.572 68.5909 211.897C68.5909 220.223 61.8011 227 53.4522 227ZM53.4522 203.067C48.5631 203.067 44.5884 207.03 44.5884 211.897C44.5884 216.765 48.5631 220.728 53.4522 220.728C58.3412 220.728 62.316 216.765 62.316 211.897C62.316 207.03 58.3412 203.067 53.4522 203.067Z" fill="#2B2E53"/>
<path d="M324.861 227C316.512 227 309.723 220.223 309.723 211.897C309.723 203.572 316.512 196.795 324.861 196.795C333.21 196.795 340 203.572 340 211.897C340 220.223 333.21 227 324.861 227ZM324.861 203.067C319.972 203.067 315.998 207.03 315.998 211.897C315.998 216.765 319.977 220.728 324.861 220.728C329.746 220.728 333.725 216.765 333.725 211.897C333.725 207.03 329.75 203.067 324.861 203.067Z" fill="#2B2E53"/>
<path d="M53.4524 221.796C47.1294 221.796 41.9516 216.212 41.4897 209.137C41.4656 209.478 41.4512 209.82 41.4512 210.171C41.4512 217.736 46.8262 223.864 53.4524 223.864C60.0786 223.864 65.4537 217.732 65.4537 210.171C65.4537 209.824 65.4392 209.478 65.4152 209.137C64.9532 216.217 59.7754 221.796 53.4524 221.796Z" fill="#2B2E53"/>
<path d="M324.862 221.796C318.534 221.796 313.361 216.212 312.899 209.137C312.875 209.478 312.86 209.82 312.86 210.171C312.86 217.736 318.235 223.864 324.862 223.864C331.488 223.864 336.863 217.732 336.863 210.171C336.863 209.824 336.848 209.478 336.829 209.137C336.367 216.217 331.189 221.796 324.866 221.796H324.862Z" fill="#2B2E53"/>
<path d="M295.335 136.197C296.629 175.541 265.355 173.819 265.355 173.819H295.835L295.585 155.008L295.335 136.197Z" fill="#2B2E53"/>
<path d="M81.1841 136.197C79.8896 175.541 111.163 173.819 111.163 173.819H80.6836L80.9338 155.008L81.1841 136.197Z" fill="#2B2E53"/>
<path d="M58.4522 1.83271C72.8595 21.1919 96.5203 27.1175 105.841 28.7576C108.113 29.1568 109.72 31.2057 109.508 33.4759C105.524 75.9554 67.6192 104.881 57.331 111.995C55.7864 113.063 53.7412 113.063 52.1966 111.995C41.9084 104.872 4.01355 75.9506 0.0195509 33.4759C-0.192179 31.2057 1.42948 29.1472 3.69595 28.748C13.0458 27.1126 36.774 21.1822 51.1909 1.82309C53.0002 -0.605825 56.6525 -0.605825 58.4522 1.82309V1.83271Z" fill="#C2E8E1"/>
<path d="M54.7665 112.788C53.8666 112.788 52.9668 112.523 52.1969 111.989C47.4329 108.69 35.1189 99.5563 23.748 85.9881C9.70648 69.2406 1.72329 51.5745 0.0198263 33.4754C-0.187092 31.2197 1.42494 29.1419 3.69623 28.7427C13.1856 27.0833 36.8031 21.1337 51.1911 1.8178C52.014 0.72118 53.2699 0.0574368 54.6462 -0.000279936C56.0128 -0.0483772 57.3217 0.504742 58.2215 1.53402L58.3611 1.70236C72.8309 21.1433 96.3811 27.0881 105.842 28.7523C108.103 29.1467 109.715 31.2149 109.513 33.461C107.814 51.5696 99.8313 69.2358 85.7898 85.9881C74.3996 99.5756 62.0952 108.695 57.3361 111.985C56.571 112.519 55.6712 112.783 54.7713 112.783L54.7665 112.788ZM5.46706 33.8891C7.24752 50.5644 14.7832 66.9271 27.872 82.5395C38.4536 95.1602 49.8678 103.794 54.7665 107.228C59.6651 103.799 71.0697 95.1795 81.661 82.5443C94.7498 66.9319 102.285 50.5692 104.061 33.8987C93.619 31.9556 69.9629 25.5394 54.8146 5.93974C39.6518 25.5394 15.9236 31.9508 5.46225 33.8891H5.46706Z" fill="#2B2E53"/>
<path d="M48.6689 73.5071L32.9287 57.4474L36.7735 53.6862L48.6689 65.8259L72.758 41.2434L76.598 45.0094L48.6689 73.5071Z" fill="#2B2E53"/>
</g>
<defs>
<clipPath id="clip0_485_5528">
<rect width="340" height="227" fill="white"/>
</clipPath>
</defs>
</svg>
