<svg width="388" height="240" viewBox="0 0 388 240" fill="none" xmlns="http://www.w3.org/2000/svg">
<g clip-path="url(#clip0_485_5481)">
<path d="M308.596 196.835L339.784 133.178H337.167C348.975 133.178 358.557 123.523 358.557 111.625C358.557 99.727 348.975 90.0726 337.167 90.0726H38.9427C27.1341 90.0726 17.5527 99.727 17.5527 111.625C17.5527 123.523 27.1341 133.178 38.9427 133.178H36.3089L67.497 196.835C79.3869 221.093 103.898 236.441 130.751 236.441H245.337C272.173 236.441 296.701 221.093 308.574 196.835H308.591H308.596Z" fill="#DFE17F"/>
<path d="M337.682 136.72H24.9233C11.18 136.72 0 125.463 0 111.631C0 97.7983 11.18 86.5413 24.9233 86.5413H337.682C351.425 86.5413 362.605 97.7983 362.605 111.631C362.605 125.463 351.425 136.72 337.682 136.72ZM24.9233 93.6258C15.0765 93.6258 7.06676 101.705 7.06676 111.631C7.06676 121.557 15.0765 129.635 24.9233 129.635H337.682C347.529 129.635 355.538 121.557 355.538 111.631C355.538 101.705 347.529 93.6258 337.682 93.6258H24.9233Z" fill="#2B2E53"/>
<path d="M245.901 240H116.743C88.335 240 62.8914 224.065 50.3295 198.411L16.6377 129.646H346.001L312.309 198.411C299.736 224.06 274.287 239.995 245.896 239.995L245.901 240ZM27.9803 136.736L56.67 195.292C68.0289 218.502 91.0501 232.915 116.738 232.915H245.896C271.572 232.915 294.588 218.496 305.963 195.292L334.653 136.736H27.9803Z" fill="#2B2E53"/>
<path d="M45.7982 90.0835H38.7314V29.6204C38.7314 13.289 51.922 0 68.1365 0C84.3511 0 97.5471 13.289 97.5471 29.6204V40.6384H90.4803V29.6204C90.4803 17.1952 80.4546 7.08455 68.1365 7.08455C55.8185 7.08455 45.7928 17.1952 45.7928 29.6204V90.0835H45.7982Z" fill="#2B2E53"/>
<path d="M333.228 140.67H28.8691L22.29 133.172H340.311L333.228 140.67Z" fill="#2B2E53"/>
<path d="M321.386 165.487C288.41 233.872 214.713 233.6 214.713 233.6L251.521 236.458L271.339 231.644L287.77 222.549L299.834 211.146L309.112 196.852L321.392 165.504V165.487H321.386Z" fill="#2B2E53"/>
<path d="M330.48 39.5193C346.705 61.3869 373.352 68.0803 383.849 69.9329C386.407 70.3839 388.217 72.6983 387.979 75.2626C383.491 123.246 340.804 155.92 329.217 163.955C327.483 165.161 325.169 165.161 323.435 163.955C311.848 155.915 269.171 123.246 264.673 75.2626C264.435 72.6983 266.261 70.373 268.819 69.922C279.349 68.0749 306.071 61.376 322.307 39.5085C324.345 36.7648 328.458 36.7648 330.485 39.5085V39.5193H330.48Z" fill="#E9D4F3"/>
<path d="M326.329 164.857C325.315 164.857 324.302 164.558 323.435 163.955C318.07 160.234 304.207 149.916 291.396 134.59C275.582 115.673 266.592 95.712 264.673 75.2679C264.44 72.7198 266.256 70.3728 268.819 69.9219C279.506 68.0475 306.104 61.327 322.308 39.5083C323.229 38.2641 324.649 37.5144 326.193 37.4546C327.738 37.3894 329.212 38.0251 330.225 39.1877L330.377 39.3725C346.673 61.3378 373.2 68.0529 383.849 69.9273C386.396 70.3728 388.212 72.7144 387.984 75.2461C386.071 95.7012 377.08 115.662 361.267 134.585C348.44 149.927 334.582 160.234 329.223 163.95L328.833 164.194C328.063 164.634 327.196 164.852 326.334 164.852L326.329 164.857ZM270.808 75.7351C272.813 94.5711 281.3 113.054 296.04 130.689C307.952 144.945 320.812 154.697 326.329 158.577C331.84 154.703 344.689 144.967 356.623 130.695C371.363 113.059 379.844 94.582 381.849 75.746C370.095 73.5511 343.448 66.3035 326.394 44.1643C309.312 66.3035 282.59 73.5456 270.814 75.7351H270.808Z" fill="#2B2E53"/>
<path d="M319.463 120.486L301.736 102.346L306.061 98.0971L319.463 111.804L346.592 84.0421L350.916 88.2906L319.463 120.486Z" fill="#2B2E53"/>
</g>
<defs>
<clipPath id="clip0_485_5481">
<rect width="388" height="240" fill="white"/>
</clipPath>
</defs>
</svg>
