<svg width="303" height="243" viewBox="0 0 303 243" fill="none" xmlns="http://www.w3.org/2000/svg">
<g clip-path="url(#clip0_485_5461)">
<path d="M55.5565 148.438C55.2754 146.775 54.9991 145.122 54.7367 143.464C52.6334 130.056 49.6916 115.093 49.3169 103.297C49.1998 99.5546 52.1041 96.4122 55.8469 96.239H55.9125C56.3669 96.2156 56.826 96.1921 57.2757 96.1734C57.36 95.78 57.449 95.382 57.538 94.9932C66.1854 57.7199 95.8656 34.735 133.725 32.7774C140.002 33.0912 146.466 33.9576 153.053 35.4094L159.02 36.7206L173.931 40.2611L173.364 37.5964L184.564 40.2611L179.421 16.0117L179.032 13.0472C179.032 8.72937 181.993 4.98284 185.885 3.06274C189.071 5.01562 191.043 8.8324 192.266 13.0472L201.817 46.4054L207.443 72.7154V72.692C209.556 96.0704 203.681 119.692 190.425 139.525L181.412 153.022H277.09C284.365 153.022 290.268 158.806 290.268 165.929V169.498C290.268 170.116 289.752 170.612 289.125 170.612H286.023C286.262 171.062 286.389 173.314 286.389 173.858C286.389 174.743 286.028 175.548 285.443 176.124C284.866 176.7 284.065 177.061 283.175 177.061H274.701C258.714 177.061 239.864 206.682 233.493 226.866C231.291 233.83 224.864 238.588 217.561 238.588H99.7349C78.3835 238.588 63.2483 193.302 55.5518 148.447H55.5471L55.5565 148.438Z" fill="#C2E8E1"/>
<path d="M166.999 150.18L165.378 149.538L165.401 149.477L166.999 150.18Z" fill="#2B2E53"/>
<path d="M227.249 242.995H98.7796C70.5422 242.995 56.3719 178.18 51.5892 150.315C51.3034 148.644 51.027 146.972 50.76 145.304C50.2963 142.345 49.7904 139.315 49.2798 136.261C47.4669 125.392 45.5978 114.147 45.3027 104.758C45.1341 99.3767 49.3688 94.7966 54.7418 94.5484L59.8056 94.3048C90.418 92.7922 103.338 92.1506 140.246 128.679C141.651 128.108 143.155 127.808 144.696 127.808C148.804 127.808 152.556 129.888 154.739 133.367L165.031 149.332L159.897 152.638L149.582 136.641C148.504 134.922 146.687 133.915 144.696 133.915C143.53 133.915 142.401 134.271 141.431 134.941L139.332 136.397L137.524 134.589C101.295 98.3605 90.0761 98.9177 60.1007 100.398L54.8776 100.641C52.9617 100.735 51.3362 102.491 51.4018 104.561C51.6782 113.543 53.5191 124.581 55.2992 135.25C55.8098 138.322 56.3204 141.371 56.7841 144.344C57.0418 145.984 57.3182 147.637 57.5992 149.28C66.8696 203.315 82.6466 236.884 98.7703 236.884H227.24C233.212 236.884 238.445 233.03 240.257 227.293C246.961 206.064 266.532 175.356 284.38 175.356H292.854L293.008 175.206C293.008 175.155 293.008 175.089 293.008 175.014H188.935V168.908H297.543L298.405 170.533C299.103 171.853 299.121 174.869 299.121 175.206C299.121 176.888 298.466 178.466 297.271 179.641C296.105 180.812 294.531 181.459 292.858 181.459H284.384C271.512 181.459 252.91 207.534 246.089 229.128C243.471 237.418 235.896 242.991 227.244 242.991L227.249 242.995Z" fill="#2B2E53"/>
<path d="M298.803 175.024H295.702V168.917H296.891V167.287C296.891 161.855 292.352 157.434 286.768 157.434H191.09V151.327H286.768C295.72 151.327 303 158.488 303 167.287V170.856C303 173.155 301.117 175.024 298.803 175.024Z" fill="#2B2E53"/>
<path d="M190.683 172.242L187.202 171.689C187.286 171.17 187.352 170.645 187.394 170.116C187.427 169.69 187.441 169.268 187.441 168.833H190.964C190.964 169.362 190.95 169.877 190.907 170.397C190.861 171.015 190.781 171.633 190.687 172.242H190.683Z" fill="#2B2E53"/>
<path d="M169.79 191.2C157.461 191.2 147.427 181.173 147.427 168.842C147.427 160.693 151.868 153.238 158.889 149.323V149.224L160.702 148.414C162.131 147.777 163.621 147.295 165.134 146.972C166.642 146.649 168.207 146.489 169.79 146.489C175.252 146.489 180.508 148.48 184.593 152.095C186.293 153.598 187.759 155.35 188.944 157.307C191.043 160.778 192.153 164.768 192.153 168.847C192.153 169.395 192.13 169.943 192.092 170.481C192.05 171.137 191.966 171.802 191.863 172.462C190.092 183.327 180.812 191.204 169.79 191.204V191.2ZM163.602 153.814L163.185 154.001C157.325 156.6 153.535 162.431 153.535 168.847C153.535 177.806 160.829 185.097 169.79 185.097C177.8 185.097 184.546 179.375 185.834 171.488C185.909 171.024 185.965 170.547 185.998 170.064C186.026 169.652 186.045 169.25 186.045 168.847C186.045 165.878 185.239 162.983 183.721 160.469C182.859 159.045 181.791 157.766 180.55 156.671C177.58 154.043 173.762 152.596 169.79 152.596C168.638 152.596 167.499 152.713 166.408 152.947C165.457 153.149 164.515 153.444 163.602 153.819V153.814Z" fill="#2B2E53"/>
<path d="M87.4243 83.2339L82.2715 79.9557C97.21 56.4743 125.86 46.8036 158.903 54.0859L164.712 55.3644L163.4 61.3307L157.592 60.0522C127.157 53.3459 100.929 62.0145 87.4243 83.2339Z" fill="#2B2E53"/>
<path d="M59.2851 98.2387L53.3125 96.9602L53.5889 95.7098C64.7846 47.4591 109.928 22.0155 163.381 33.789L169.349 35.0956L184.311 38.6501L182.897 44.593L167.986 41.0526L162.07 39.7553C112.097 28.7452 69.9327 52.3015 59.5521 97.0445L59.2851 98.2387Z" fill="#2B2E53"/>
<path d="M219.983 75.1367L214.259 73.0105L221.726 52.9291L210.9 50.7655L212.1 44.7758L224.902 47.3374C226.214 47.6278 227.282 48.4286 227.891 49.5526C228.5 50.6765 228.593 52.0066 228.148 53.2008L219.993 75.1367H219.983Z" fill="#2B2E53"/>
<path d="M189.516 161.892L184.528 158.366L188.598 152.615L197.564 139.188C213.997 114.592 218.752 84.1752 210.61 55.7343L199.016 15.2484C196.365 6.11152 192.027 6.11152 190.599 6.11152C185.802 6.11152 181.263 10.0313 181.136 14.2321L181.483 16.8594L192.847 70.4488C196.548 89.8746 193.287 110.04 183.675 127.284L170.203 151.444L164.867 148.47L178.339 124.31C187.254 108.317 190.28 89.617 186.86 71.6571L175.445 17.782L175.028 14.4194C175.028 6.74374 182.302 0.0140381 190.599 0.0140381C195.325 0.0140381 201.635 2.36499 204.886 13.5718L216.484 54.0671C225.122 84.2361 220.077 116.503 202.647 142.593L193.634 156.09L189.516 161.906V161.892Z" fill="#2B2E53"/>
<path d="M167.378 150.662L164.155 149.313L164.179 149.257L167.378 150.662Z" fill="#2B2E53"/>
<path d="M152.584 243C122.286 243 71.3713 223.335 55.2852 169.161L61.1406 167.423C69.7646 196.459 88.6614 213.004 102.996 221.771C121.227 232.922 140.564 236.893 152.584 236.893V243Z" fill="#2B2E53"/>
<path d="M152.584 239.947C125.884 239.947 74.2569 222.314 58.2129 168.294L70.9216 210.185L81.2741 228.941L92.4698 238.579L103.769 239.942H152.584V239.947Z" fill="#2B2E53"/>
<path d="M296.067 175.216V171.305H189.095L187.062 178.274H296.067V175.211V175.216Z" fill="#2B2E53"/>
<path d="M56.9015 32.3185C70.9266 51.1683 93.9597 56.9379 103.033 58.5349C105.244 58.9236 106.809 60.9186 106.603 63.1291C102.724 104.491 65.8253 132.655 55.8101 139.582C54.3111 140.621 52.3108 140.621 50.8118 139.582C40.7966 132.646 3.9071 104.491 0.0190572 63.1291C-0.187056 60.9186 1.39158 58.9142 3.60261 58.5255C12.7044 56.9332 35.8031 51.1589 49.8375 32.3091C51.5988 29.9442 55.1543 29.9442 56.9062 32.3091V32.3185H56.9015Z" fill="#E9D4F3"/>
<path d="M53.3136 140.359C52.4376 140.359 51.5616 140.102 50.8168 139.582C46.1793 136.369 34.1966 127.476 23.1227 114.265C9.44902 97.9578 1.67762 80.7566 0.0193521 63.1338C-0.182076 60.9374 1.38719 58.9143 3.59822 58.5256C12.8358 56.9099 35.8268 51.1168 49.8331 32.3139C50.6294 31.2415 51.8567 30.5952 53.1918 30.5437C54.5456 30.4969 55.801 31.0354 56.677 32.0376L56.8034 32.1922C70.8941 51.1309 93.8241 56.9193 103.034 58.5397C105.235 58.9237 106.805 60.9421 106.608 63.1245C104.954 80.7566 97.1828 97.9625 83.5091 114.269C72.4212 127.495 60.4479 136.379 55.8104 139.582L55.6183 139.708C54.9156 140.144 54.1146 140.359 53.3136 140.359ZM5.32207 63.5319C7.0553 79.7684 14.391 95.7006 27.1326 110.902C37.4288 123.191 48.5449 131.597 53.3136 134.941C58.0776 131.602 69.1843 123.209 79.4993 110.907C92.2408 95.7052 99.5719 79.7731 101.305 63.5413C91.1447 61.6493 68.1115 55.4019 53.3698 36.3181C38.6093 55.4019 15.5059 61.6446 5.32676 63.5319H5.32207Z" fill="#2B2E53"/>
<path d="M47.3783 102.112L32.0557 86.4746L35.7985 82.8077L47.3783 94.628L70.8283 70.697L74.5664 74.3593L47.3783 102.112Z" fill="#2B2E53"/>
</g>
<defs>
<clipPath id="clip0_485_5461">
<rect width="303" height="243" fill="white"/>
</clipPath>
</defs>
</svg>
