<svg width="373" height="321" viewBox="0 0 373 321" fill="none" xmlns="http://www.w3.org/2000/svg">
<g clip-path="url(#clip0_485_5427)">
<path d="M114.961 182.659C113.475 181.1 112.325 179.205 111.643 177.06L108.498 167.067C107.055 162.478 109.916 157.868 114.294 156.817C116.089 156.827 117.963 156.806 119.9 156.743C137.634 157.324 166.506 155.147 180.938 136.971C187.095 129.211 193.012 122.043 199.516 115.194L127.25 26.3341C126.961 25.9835 126.867 25.4812 127.082 25.0783C127.234 24.7958 127.507 24.5708 127.854 24.4976L138.841 22.3052L175.588 13.9964L180.712 12.8714C186.271 11.6471 191.726 10.9146 197.028 10.6268C227.979 12.3168 252.526 30.3682 261.11 59.7997C261.11 59.7997 269.729 56.2679 270.758 59.7997L274.612 53.0605C285.184 34.5854 303.437 19.9926 324.509 13.1488L329.06 11.6733C329.454 11.5424 329.853 11.443 330.257 11.3698L368.207 4.41086C368.28 4.4004 368.354 4.37947 368.427 4.36377C368.973 4.74573 369.456 5.24279 369.839 5.87066C371.498 8.59145 370.921 12.6465 368.401 15.3149C367.671 16.0841 366.774 16.6701 365.813 17.1201L365.729 17.1567C365.025 17.4915 364.275 17.7322 363.503 17.8735L339.869 22.2791C335.103 23.1686 330.425 24.5028 325.911 26.2713L312.167 31.6448C299.253 36.9556 288.05 46.0022 280.512 57.1993L269.084 74.1728C268.428 83.7374 266.223 95.1699 264.595 105.53C264.375 106.953 264.139 108.371 263.887 109.794C258.422 141.591 248.6 173.638 235.003 183.799C229.528 190.764 224.525 200.114 220.971 209.076C223.297 208.773 225.669 208.616 228.084 208.616C228.987 208.616 229.89 208.642 230.788 208.684C230.741 208.815 230.683 208.946 230.625 209.076C231.386 208.977 232.153 208.904 232.93 208.836C260.852 211.284 282.754 234.694 282.754 263.215C282.754 291.736 260.842 315.15 232.914 317.594C204.986 315.15 183.074 291.741 183.074 263.215C183.074 257.37 183.998 251.746 185.699 246.466H154.532C146.784 246.466 140.447 239.711 140.369 231.298L137.13 202.541H127.481L76.7645 239.984L70.2393 236.724L114.945 182.653H114.94L114.961 182.659Z" fill="#C2E8E1"/>
<path d="M12.2002 276.301C12.2002 254.979 28.201 237.42 48.8162 235.013C69.4314 237.414 85.4321 254.979 85.4321 276.301C85.4321 297.622 69.4314 315.187 48.8162 317.594C28.201 315.192 12.2002 297.627 12.2002 276.301Z" fill="#C2E8E1"/>
<path d="M271.005 76.4906L265.309 72.7076L276.706 55.6556C284.586 43.8673 296.345 34.308 309.81 28.7251L323.569 23.3045C328.242 21.4575 333.134 20.05 338.111 19.1134L361.682 14.6869C362.17 14.598 362.626 14.4463 363.057 14.2422C363.802 13.8916 364.327 13.5306 364.711 13.1277C366.301 11.4325 366.464 9.00992 365.697 7.74371C364.753 6.17926 361.361 6.93271 359.424 7.51872C358.967 7.66 358.495 7.77511 358.023 7.86405L320.157 14.8439C319.916 14.8858 319.674 14.9486 319.433 15.027L314.871 16.5182C294.607 23.1475 277.168 37.1909 267.021 55.0539L263.178 61.8245L257.22 58.4601L261.062 51.6896C272.039 32.372 290.875 17.188 312.734 10.0354L317.275 8.54948C317.79 8.37682 318.351 8.23555 318.908 8.1309L356.752 1.15628C356.967 1.11442 357.198 1.05687 357.429 0.988847C365.944 -1.58543 369.813 1.32371 371.561 4.21716C374.029 8.2931 373.246 14.0015 369.698 17.7897C368.716 18.8257 367.503 19.6838 366.075 20.3587C365.036 20.8558 363.997 21.1907 362.931 21.3895L339.371 25.816C334.825 26.6688 330.352 27.9612 326.079 29.646L312.372 35.0405C300.198 40.0844 289.531 48.7543 282.392 59.4281L270.995 76.4801L271.005 76.4906Z" fill="#2B2E53"/>
<path d="M224.415 190.015H113.859C106.063 190.015 99.2436 185.034 96.8866 177.62L93.7316 167.658C92.6029 164.084 93.3063 160.181 95.6109 157.214C97.9207 154.242 101.559 152.599 105.317 152.793C122.148 153.703 152.527 152.542 166.927 134.516C188.251 107.821 207.412 87.0022 260.102 62.1489C261.43 61.5053 263.031 61.5524 264.354 62.2849C267.562 64.0848 271.347 67.062 271.221 71.1066C270.969 79.1957 269.352 88.8387 267.787 98.1627C267.352 100.763 266.921 103.343 266.522 105.854C266.296 107.288 266.055 108.727 265.808 110.16C261.661 134.166 249.319 190.015 224.41 190.015H224.415ZM100.267 165.601L103.417 175.558C104.866 180.121 109.066 183.187 113.864 183.187H224.42C237.681 183.187 251.283 154.064 259.073 108.988C259.32 107.581 259.551 106.184 259.771 104.787C260.17 102.254 260.606 99.6538 261.047 97.0325C262.575 87.9283 264.149 78.5155 264.391 70.8868C264.286 70.6461 263.451 69.7671 261.981 68.8096C211.317 92.8571 193.542 112.154 172.297 138.755C155.981 159.181 123.108 160.578 104.96 159.595C103.433 159.527 101.984 160.165 101.034 161.384C100.089 162.598 99.8106 164.136 100.273 165.596L100.267 165.601ZM263.063 68.2968C263.063 68.2968 263.042 68.3073 263.031 68.3125C263.042 68.3125 263.052 68.3021 263.063 68.2968Z" fill="#2B2E53"/>
<path d="M185.731 117.569L113.281 28.9501C112.094 27.5217 111.879 25.5387 112.751 23.9219C113.402 22.7342 114.52 21.9023 115.827 21.625L126.882 19.4274L168.801 10.0355C215.26 -0.130841 254.511 21.8761 264.244 63.5616L264.49 64.6395L257.813 66.1516L257.571 65.0895C248.747 27.2863 212.845 7.3827 170.27 16.7014L165.131 17.8211L128.31 26.1038L120.977 27.5636L191.038 113.258L185.731 117.569ZM118.567 24.623L118.588 24.6492C118.588 24.6492 118.572 24.6335 118.567 24.623Z" fill="#2B2E53"/>
<path d="M174.607 249.815H143.382C133.823 249.815 125.959 241.543 125.77 231.335L120.804 186.981L127.607 186.222L132.615 231.083C132.678 237.645 137.508 242.987 143.382 242.987H174.607V249.81V249.815Z" fill="#2B2E53"/>
<path d="M222.483 210.646L216.126 208.119C220.677 196.749 228.835 181.937 238.069 174.465L242.384 179.76C235.513 185.322 227.885 197.157 222.483 210.646Z" fill="#2B2E53"/>
<path d="M124.079 200.001L67.9678 240.812L72.003 246.324L128.114 205.512L124.079 200.001Z" fill="#2B2E53"/>
<path d="M101.589 180.617L56.8984 234.729L62.1836 239.065L106.874 184.953L101.589 180.617Z" fill="#2B2E53"/>
<path d="M226.914 321C194.613 321 168.334 294.985 168.334 263.011C168.334 231.036 194.613 205.021 226.914 205.021C259.215 205.021 285.5 231.036 285.5 263.011C285.5 294.985 259.22 321 226.914 321ZM226.914 211.844C198.388 211.844 175.179 234.798 175.179 263.011C175.179 291.223 198.388 314.177 226.914 314.177C255.441 314.177 278.654 291.223 278.654 263.011C278.654 234.798 255.446 211.844 226.914 211.844Z" fill="#2B2E53"/>
<path d="M227.387 309.332C256.197 309.332 279.794 287.027 281.904 258.741C282.004 260.102 282.077 261.478 282.077 262.875C282.077 293.096 257.588 317.594 227.392 317.594C197.196 317.594 172.707 293.091 172.707 262.875C172.707 261.488 172.775 260.112 172.88 258.741C174.991 287.027 198.582 309.332 227.397 309.332H227.382H227.387Z" fill="#2B2E53"/>
<path d="M226.914 287.78C212.966 287.78 201.616 276.667 201.616 263.011C201.616 249.354 212.966 238.241 226.914 238.241C240.862 238.241 252.212 249.354 252.212 263.011C252.212 276.667 240.862 287.78 226.914 287.78ZM226.914 245.064C216.74 245.064 208.462 253.116 208.462 263.011C208.462 272.905 216.74 280.957 226.914 280.957C237.088 280.957 245.366 272.905 245.366 263.011C245.366 253.116 237.088 245.064 226.914 245.064Z" fill="#2B2E53"/>
<path d="M226.914 280.22C237.938 280.22 246.962 271.592 247.771 260.641C247.808 261.169 247.839 261.697 247.839 262.236C247.839 273.936 238.474 283.422 226.914 283.422C215.355 283.422 205.989 273.936 205.989 262.236C205.989 261.697 206.015 261.164 206.057 260.641C206.866 271.592 215.89 280.22 226.914 280.22Z" fill="#2B2E53"/>
<path d="M44.7949 321C20.0955 321 0 300.945 0 276.295C0 251.646 20.0955 231.596 44.7949 231.596C69.4942 231.596 89.5897 251.646 89.5897 276.295C89.5897 300.945 69.4942 321 44.7949 321ZM44.7949 238.419C23.8699 238.419 6.84548 255.408 6.84548 276.295C6.84548 297.183 23.8699 314.177 44.7949 314.177C65.7198 314.177 82.7442 297.183 82.7442 276.295C82.7442 255.408 65.7198 238.419 44.7949 238.419Z" fill="#2B2E53"/>
<path d="M44.795 311.326C66.5913 311.326 84.4347 294.425 86.0359 272.978C86.1093 274.014 86.1671 275.055 86.1671 276.107C86.1671 299.019 67.6465 317.589 44.795 317.589C21.9435 317.589 3.42285 299.019 3.42285 276.107C3.42285 275.055 3.4701 274.009 3.55409 272.978C5.14997 294.42 22.9986 311.326 44.795 311.326Z" fill="#2B2E53"/>
<path d="M44.7944 296.325C33.7283 296.325 24.7305 287.341 24.7305 276.301C24.7305 265.261 33.7335 256.282 44.7944 256.282C55.8554 256.282 64.8584 265.266 64.8584 276.301C64.8584 287.336 55.8554 296.325 44.7944 296.325ZM44.7944 263.1C37.5028 263.1 31.576 269.023 31.576 276.295C31.576 283.568 37.508 289.496 44.7944 289.496C52.0809 289.496 58.0129 283.574 58.0129 276.295C58.0129 269.017 52.0809 263.1 44.7944 263.1Z" fill="#2B2E53"/>
<path d="M44.3172 289.559C52.8321 289.559 59.8035 283.087 60.4335 274.872C60.465 275.27 60.486 275.668 60.486 276.076C60.486 284.845 53.252 291.961 44.3172 291.961C35.3824 291.961 28.1484 284.85 28.1484 276.076C28.1484 275.668 28.1694 275.27 28.2009 274.872C28.8256 283.082 35.7971 289.559 44.3172 289.559Z" fill="#2B2E53"/>
<path d="M261.998 19.2024C277.715 40.2623 303.527 46.7085 313.696 48.4927C316.174 48.9269 317.927 51.1559 317.696 53.6255C313.349 99.837 271.998 131.304 260.774 139.042C259.095 140.204 256.853 140.204 255.173 139.042C243.949 131.299 202.609 99.837 198.252 53.6255C198.021 51.1559 199.79 48.9165 202.268 48.4822C212.468 46.7032 238.353 40.2518 254.081 19.1919C256.055 16.5496 260.04 16.5496 262.003 19.1919V19.2024H261.998Z" fill="#E9D4F3"/>
<path d="M257.976 139.906C256.994 139.906 256.012 139.618 255.172 139.037C249.975 135.453 236.547 125.517 224.137 110.757C208.818 92.538 200.109 73.3146 198.251 53.6256C198.02 51.1716 199.784 48.9113 202.267 48.477C212.614 46.6719 238.384 40.1996 254.075 19.192C254.967 17.9938 256.343 17.2717 257.844 17.2142C259.361 17.1462 260.768 17.7636 261.75 18.8833L261.897 19.0612C277.683 40.2153 303.379 46.6824 313.695 48.4875C316.162 48.9165 317.921 51.1716 317.7 53.6099C315.847 73.3094 307.138 92.5275 291.82 110.757C279.394 125.533 265.971 135.458 260.779 139.037L260.564 139.178C259.776 139.665 258.878 139.906 257.981 139.906H257.976ZM204.193 54.0756C206.136 72.2158 214.357 90.016 228.635 107C240.179 120.729 252.631 130.121 257.976 133.857C263.314 130.132 275.761 120.75 287.321 107.005C301.6 90.0213 309.815 72.2211 311.758 54.086C300.366 51.9722 274.559 44.9923 258.033 23.6708C241.487 44.9923 215.601 51.9669 204.193 54.0756Z" fill="#2B2E53"/>
<path d="M251.325 97.1738L234.153 79.7032L238.348 75.6116L251.325 88.8179L277.604 62.0809L281.799 66.1726L251.325 97.1738Z" fill="#2B2E53"/>
</g>
<defs>
<clipPath id="clip0_485_5427">
<rect width="373" height="321" fill="white"/>
</clipPath>
</defs>
</svg>
