<svg width="334" height="260" viewBox="0 0 334 260" fill="none" xmlns="http://www.w3.org/2000/svg">
<g clip-path="url(#clip0_485_5494)">
<path d="M331.374 69.0023V257.155H309.978V218.408H78.2817V257.155H56.8857V69.0023C56.8857 67.366 58.2074 66.0439 59.8389 66.0439H75.3373C76.9688 66.0439 78.2905 67.366 78.2905 69.0023V88.6287H309.987V69.0023C309.987 67.366 311.308 66.0439 312.94 66.0439H328.438C330.07 66.0439 331.391 67.366 331.391 69.0023H331.383H331.374ZM104.637 107.622H78.273V199.419H104.637V107.622ZM145.706 107.622H117.772V199.419H145.706V107.622ZM186.775 107.622H158.841V199.419H186.775V107.622ZM227.84 107.622H199.905V199.419H227.84V107.622ZM268.909 107.622H240.974V199.419H268.909V107.622ZM309.978 107.622H282.043V199.419H309.978V107.622Z" fill="#E9D4F3"/>
<path d="M75.2544 260H53.143C49.7711 260 47.0273 257.247 47.0273 253.861V69.3426C47.0273 65.9567 49.7711 63.2034 53.143 63.2034H75.2544C78.6262 63.2034 81.37 65.9567 81.37 69.3426V253.861C81.37 257.247 78.6262 260 75.2544 260ZM53.143 68.8932C52.9074 68.8932 52.7155 69.0939 52.7155 69.3426V253.861C52.7155 254.109 52.9074 254.31 53.143 254.31H75.2544C75.4899 254.31 75.6818 254.109 75.6818 253.861V69.3426C75.6818 69.0939 75.4899 68.8932 75.2544 68.8932H53.143Z" fill="#2B2E53"/>
<path d="M327.884 260H305.773C302.401 260 299.657 257.247 299.657 253.861V69.3426C299.657 65.9567 302.401 63.2034 305.773 63.2034H327.884C331.256 63.2034 334 65.9567 334 69.3426V253.861C334 257.247 331.256 260 327.884 260ZM305.773 68.8932C305.537 68.8932 305.345 69.0939 305.345 69.3426V253.861C305.345 254.109 305.537 254.31 305.773 254.31H327.884C328.12 254.31 328.312 254.109 328.312 253.861V69.3426C328.312 69.0939 328.12 68.8932 327.884 68.8932H305.773Z" fill="#2B2E53"/>
<path d="M302.501 105.336H78.5303V111.026H302.501V105.336Z" fill="#2B2E53"/>
<path d="M302.501 85.7708H78.5303V91.4606H302.501V85.7708Z" fill="#2B2E53"/>
<path d="M81.3698 108.181H75.6816V199.223H81.3698V108.181Z" fill="#2B2E53"/>
<path d="M100.223 108.181H94.5352V199.223H100.223V108.181Z" fill="#2B2E53"/>
<path d="M120.586 108.181H114.897V199.223H120.586V108.181Z" fill="#2B2E53"/>
<path d="M140.948 108.181H135.26V199.223H140.948V108.181Z" fill="#2B2E53"/>
<path d="M162.064 108.181H156.376V199.223H162.064V108.181Z" fill="#2B2E53"/>
<path d="M182.423 108.181H176.734V199.223H182.423V108.181Z" fill="#2B2E53"/>
<path d="M202.784 108.181H197.096V199.223H202.784V108.181Z" fill="#2B2E53"/>
<path d="M223.146 108.181H217.458V199.223H223.146V108.181Z" fill="#2B2E53"/>
<path d="M244.263 108.181H238.575V199.223H244.263V108.181Z" fill="#2B2E53"/>
<path d="M264.621 108.181H258.933V199.223H264.621V108.181Z" fill="#2B2E53"/>
<path d="M284.983 108.181H279.295V199.223H284.983V108.181Z" fill="#2B2E53"/>
<path d="M305.345 108.181H299.657V199.223H305.345V108.181Z" fill="#2B2E53"/>
<path d="M302.501 215.939H78.5303V221.629H302.501V215.939Z" fill="#2B2E53"/>
<path d="M302.501 196.373H78.5303V202.063H302.501V196.373Z" fill="#2B2E53"/>
<path d="M78.5303 199.218H97.3832V188.685H85.3875C81.6055 188.685 78.5303 191.604 78.5303 195.2V199.218Z" fill="#2B2E53"/>
<path d="M137.349 199.218H118.496V188.685H137.349V199.218Z" fill="#2B2E53"/>
<path d="M178.828 199.218H159.975V188.685H178.828V199.218Z" fill="#2B2E53"/>
<path d="M220.303 199.218H199.94V188.685H220.303V199.218Z" fill="#2B2E53"/>
<path d="M261.023 199.218H242.17V188.685H261.023V199.218Z" fill="#2B2E53"/>
<path d="M282.894 199.218H301.746V193.668C301.746 190.919 299.4 188.685 296.503 188.685H282.894V199.218Z" fill="#2B2E53"/>
<path d="M319.675 66.0483H313.987V29.6317C313.987 16.4325 303.247 5.69423 290.048 5.69423H287.81C274.61 5.69423 263.871 16.4325 263.871 29.6317H258.183C258.183 13.2952 271.474 0.00439453 287.81 0.00439453H290.048C306.384 0.00439453 319.675 13.2952 319.675 29.6317V66.0483Z" fill="#2B2E53"/>
<path d="M251.652 64.3771C250.767 64.3771 249.886 64.0979 249.131 63.5481C247.805 62.5794 247.159 60.978 247.439 59.3636L248.848 51.191L242.889 45.4052C241.711 44.2576 241.292 42.5734 241.803 41.0113C242.313 39.4492 243.639 38.3365 245.266 38.1009L253.511 36.9097L257.197 29.4658C257.402 29.0556 257.663 28.6848 257.969 28.3706L257.729 27.8863H258.531C259.247 27.3757 260.093 27.0878 261.035 27.0878C262.675 27.0878 264.145 27.9997 264.874 29.4658L266.92 33.5761H266.898L268.551 36.9097L276.8 38.1009C278.431 38.3409 279.757 39.4579 280.259 41.02C280.765 42.5777 280.346 44.2576 279.168 45.4008L273.21 51.1866L274.619 59.3636C274.898 60.9737 274.248 62.5794 272.926 63.5437C271.6 64.5124 269.868 64.6389 268.411 63.8753L261.031 60.0094L253.65 63.8753C253.022 64.2069 252.337 64.3684 251.657 64.3684L251.652 64.3771ZM261.022 54.1494C261.698 54.1494 262.379 54.3108 262.998 54.6293L268.521 57.5223L267.469 51.4266C267.221 50.0696 267.674 48.6428 268.691 47.6436L273.136 43.3239L266.998 42.4381C265.589 42.233 264.385 41.3516 263.766 40.0906L261.022 34.5535L258.274 40.1037C257.641 41.3691 256.438 42.2374 255.05 42.4425L248.904 43.3326L253.336 47.6392C254.352 48.6341 254.806 50.0478 254.571 51.4354L253.519 57.531L259.029 54.6468C259.648 54.3239 260.333 54.1581 261.013 54.1581L261.022 54.1494ZM273.07 50.4318V50.4623C273.07 50.4623 273.07 50.4405 273.07 50.4318ZM246.078 43.734H246.073C246.073 43.734 246.073 43.734 246.078 43.734ZM268.865 37.5642V37.5773C268.865 37.5773 268.865 37.5686 268.865 37.5642Z" fill="#2B2E53"/>
<path d="M49.8721 237.59C49.8721 251.077 58.9234 256.4 58.9234 256.4H49.8721V237.59Z" fill="#2B2E53"/>
<path d="M303.256 238.345C303.256 251.832 312.303 257.155 312.303 257.155H303.256V238.345Z" fill="#2B2E53"/>
<path d="M52.9865 36.1068C66.0466 53.6694 87.4949 59.0451 95.9443 60.533C98.0032 60.8951 99.4601 62.7539 99.2682 64.8134C95.6564 103.351 61.2963 129.592 51.9702 136.045C50.5699 137.014 48.7161 137.014 47.3158 136.045C37.9897 129.583 3.63834 103.351 0.017814 64.8134C-0.174117 62.7539 1.2959 60.8864 3.35044 60.5243C11.826 59.0407 33.3354 53.6607 46.4042 36.0981C48.0443 33.8946 51.3551 33.8946 52.9865 36.0981V36.1068Z" fill="#C2E8E1"/>
<path d="M49.6445 136.765C48.8288 136.765 48.0131 136.525 47.3195 136.041C43.0011 133.048 31.8385 124.762 21.5309 112.453C8.798 97.2638 1.56131 81.2328 0.0171371 64.8135C-0.170432 62.767 1.29523 60.8821 3.34977 60.5199C11.9518 59.0145 33.3609 53.6171 46.4035 36.0938C47.1494 35.0946 48.2879 34.4924 49.5355 34.4444C50.7874 34.3964 51.9608 34.9026 52.7765 35.8363L52.8943 35.9803C66.0154 53.6258 87.3678 59.0189 95.9436 60.5286C97.9938 60.8864 99.4551 62.767 99.2719 64.8047C97.7321 81.2328 90.4954 97.2638 77.7625 112.457C67.4374 124.784 56.288 133.057 51.9695 136.041C51.2716 136.525 50.4559 136.765 49.6445 136.765ZM4.95501 65.1887C6.56898 80.3121 13.3956 95.1563 25.2648 109.324C34.8527 120.769 45.1996 128.606 49.6445 131.721C54.0851 128.61 64.4232 120.791 74.0242 109.329C85.889 95.165 92.72 80.3252 94.3297 65.1974C84.8683 63.4346 63.42 57.6139 49.6881 39.8332C35.9432 57.6139 14.4294 63.4303 4.95065 65.1887H4.95501Z" fill="#2B2E53"/>
<path d="M44.118 101.13L29.8496 86.5605L33.3305 83.1484L44.118 94.1615L65.9545 71.8647L69.4355 75.2768L44.118 101.13Z" fill="#2B2E53"/>
</g>
<defs>
<clipPath id="clip0_485_5494">
<rect width="334" height="260" fill="white"/>
</clipPath>
</defs>
</svg>
