<svg width="729" height="393" viewBox="0 0 729 393" fill="none" xmlns="http://www.w3.org/2000/svg">
<rect width="728.562" height="393" fill="#FF9100"/>
<path d="M527.576 93.4672L467.687 176.956C461.969 184.941 453.942 181.238 455.212 173.311L461.911 131.769C465.492 109.667 445.048 101.799 433.151 118.983L378.921 204.092C374.07 210.514 368.872 206.406 369.681 201.488L377.073 156.822C380.538 135.935 358.592 129.281 347.273 147.101L294.14 230.475C289.174 238.228 283.572 233.715 284.38 228.855L291.541 185.403C295.238 162.839 274.389 155.086 261.568 172.964L170.781 299.499L179.675 306.5L243.145 232.384C250.191 224.11 259.777 226.945 259.258 239.211L258.103 265.479C257.179 286.886 276.064 289.432 285.939 274.042L327.175 209.935C333.123 200.678 343.807 202.298 342.999 215.258L341.613 237.36C340.169 260.792 361.306 262.007 370.951 246.733L411.089 183.668C416.691 174.815 427.549 177.94 426.625 190.263L424.95 211.729C423.217 233.715 441.525 236.203 454.692 220.639L557.781 98.6166C550.619 81.8378 533.871 84.8464 527.692 93.4672H527.576Z" fill="#F7F2DE"/>
</svg>
