<?xml version="1.0" encoding="utf-8"?>
<!-- Generator: Adobe Illustrator 23.0.1, SVG Export Plug-In . SVG Version: 6.00 Build 0)  -->
<svg version="1.1" id="Layer_1" xmlns="http://www.w3.org/2000/svg" xmlns:xlink="http://www.w3.org/1999/xlink" x="0px" y="0px"
	 viewBox="0 0 100 100" style="enable-background:new 0 0 100 100;" xml:space="preserve">
<style type="text/css">
	.st0{fill:#494949;}
	.st1{fill:none;stroke:#494949;stroke-width:0.9393;stroke-miterlimit:10;}
	.st2{fill:#FFFFFF;}
	.st3{fill:none;stroke:#494949;stroke-width:4;stroke-miterlimit:10;}
	.st4{clip-path:url(#SVGID_2_);fill:#494949;}
	.st5{fill:none;stroke:#494949;stroke-width:3.7875;stroke-miterlimit:10;}
	.st6{clip-path:url(#SVGID_4_);fill:#494949;}
	.st7{fill:none;stroke:#494949;stroke-width:7.575;stroke-miterlimit:10;}
	.st8{fill:none;stroke:#494949;stroke-width:1.8935;stroke-miterlimit:10;}
	.st9{fill:none;stroke:#494949;stroke-width:2;stroke-miterlimit:10;}
	.st10{fill:none;}
	.st11{clip-path:url(#SVGID_6_);fill:none;stroke:#494949;stroke-width:2;stroke-miterlimit:10;}
	.st12{clip-path:url(#SVGID_8_);fill:none;stroke:#494949;stroke-width:2;stroke-miterlimit:10;}
	.st13{clip-path:url(#SVGID_10_);fill:none;stroke:#494949;stroke-width:2;stroke-miterlimit:10;}
	.st14{clip-path:url(#SVGID_12_);fill:none;stroke:#494949;stroke-width:2;stroke-miterlimit:10;}
	.st15{clip-path:url(#SVGID_14_);fill:none;stroke:#494949;stroke-width:2;stroke-miterlimit:10;}
	.st16{clip-path:url(#SVGID_16_);fill:none;stroke:#494949;stroke-width:2;stroke-miterlimit:10;}
	.st17{fill:none;stroke:#494949;stroke-width:2.3448;stroke-miterlimit:10;}
	.st18{clip-path:url(#SVGID_18_);fill:none;stroke:#494949;stroke-width:2.3448;stroke-miterlimit:10;}
	.st19{clip-path:url(#SVGID_20_);fill:none;stroke:#494949;stroke-width:2.3448;stroke-miterlimit:10;}
	.st20{clip-path:url(#SVGID_22_);fill:none;stroke:#494949;stroke-width:2.3448;stroke-miterlimit:10;}
	.st21{clip-path:url(#SVGID_24_);fill:none;stroke:#494949;stroke-width:2.3448;stroke-miterlimit:10;}
	.st22{clip-path:url(#SVGID_26_);fill:none;stroke:#494949;stroke-width:2.3448;stroke-miterlimit:10;}
	.st23{clip-path:url(#SVGID_28_);fill:none;stroke:#494949;stroke-width:2.3448;stroke-miterlimit:10;}
	.st24{fill:#FFFFFF;stroke:#494949;stroke-width:2.3448;stroke-miterlimit:10;}
	.st25{clip-path:url(#SVGID_30_);fill:none;stroke:#494949;stroke-width:2.3448;stroke-miterlimit:10;}
	.st26{clip-path:url(#SVGID_32_);fill:none;stroke:#494949;stroke-width:2.3448;stroke-miterlimit:10;}
	.st27{clip-path:url(#SVGID_34_);fill:none;stroke:#494949;stroke-width:2.3448;stroke-miterlimit:10;}
	.st28{clip-path:url(#SVGID_36_);fill:none;stroke:#494949;stroke-width:2.3448;stroke-miterlimit:10;}
	.st29{clip-path:url(#SVGID_38_);fill:none;stroke:#494949;stroke-width:2.3448;stroke-miterlimit:10;}
	.st30{clip-path:url(#SVGID_40_);fill:none;stroke:#494949;stroke-width:2.3448;stroke-miterlimit:10;}
	.st31{clip-path:url(#SVGID_42_);fill:none;stroke:#494949;stroke-width:2.3448;stroke-miterlimit:10;}
	.st32{clip-path:url(#SVGID_44_);fill:none;stroke:#494949;stroke-width:2.3448;stroke-miterlimit:10;}
	.st33{clip-path:url(#SVGID_46_);fill:none;stroke:#494949;stroke-width:2.3448;stroke-miterlimit:10;}
	.st34{clip-path:url(#SVGID_48_);fill:none;stroke:#494949;stroke-width:2.3448;stroke-miterlimit:10;}
	.st35{clip-path:url(#SVGID_50_);fill:none;stroke:#494949;stroke-width:2.3448;stroke-miterlimit:10;}
	.st36{clip-path:url(#SVGID_52_);fill:none;stroke:#494949;stroke-width:2.3448;stroke-miterlimit:10;}
	.st37{clip-path:url(#SVGID_54_);fill:none;stroke:#494949;stroke-width:2;stroke-miterlimit:10;}
	.st38{clip-path:url(#SVGID_56_);fill:none;stroke:#494949;stroke-width:2;stroke-miterlimit:10;}
	.st39{clip-path:url(#SVGID_58_);fill:none;stroke:#494949;stroke-width:2;stroke-miterlimit:10;}
	.st40{clip-path:url(#SVGID_60_);fill:none;stroke:#494949;stroke-width:2;stroke-miterlimit:10;}
	.st41{clip-path:url(#SVGID_62_);fill:none;stroke:#494949;stroke-width:2;stroke-miterlimit:10;}
	.st42{clip-path:url(#SVGID_64_);fill:none;stroke:#494949;stroke-width:2;stroke-miterlimit:10;}
	.st43{fill:#FFFFFF;stroke:#494949;stroke-width:2;stroke-miterlimit:10;}
	.st44{fill:none;stroke:#494949;stroke-miterlimit:10;}
	.st45{clip-path:url(#SVGID_66_);fill:none;stroke:#494949;stroke-miterlimit:10;}
	.st46{clip-path:url(#SVGID_68_);fill:none;stroke:#494949;stroke-miterlimit:10;}
	.st47{clip-path:url(#SVGID_70_);fill:none;stroke:#494949;stroke-miterlimit:10;}
	.st48{clip-path:url(#SVGID_72_);fill:none;stroke:#494949;stroke-miterlimit:10;}
	.st49{fill:#FFFFFF;stroke:#494949;stroke-miterlimit:10;}
	.st50{clip-path:url(#SVGID_74_);fill:none;stroke:#494949;stroke-miterlimit:10;}
	.st51{clip-path:url(#SVGID_76_);fill:none;stroke:#494949;stroke-miterlimit:10;}
	.st52{clip-path:url(#SVGID_78_);fill:none;stroke:#494949;stroke-miterlimit:10;}
	.st53{clip-path:url(#SVGID_80_);fill:none;stroke:#494949;stroke-miterlimit:10;}
	.st54{clip-path:url(#SVGID_82_);fill:none;stroke:#494949;stroke-miterlimit:10;}
	.st55{clip-path:url(#SVGID_84_);fill:none;stroke:#494949;stroke-miterlimit:10;}
	.st56{clip-path:url(#SVGID_86_);fill:none;stroke:#494949;stroke-miterlimit:10;}
	.st57{clip-path:url(#SVGID_88_);fill:none;stroke:#494949;stroke-miterlimit:10;}
	.st58{clip-path:url(#SVGID_90_);fill:none;stroke:#494949;stroke-width:2.3448;stroke-miterlimit:10;}
	.st59{clip-path:url(#SVGID_92_);fill:none;stroke:#494949;stroke-width:2.3448;stroke-miterlimit:10;}
	.st60{clip-path:url(#SVGID_94_);fill:none;stroke:#494949;stroke-width:2.3448;stroke-miterlimit:10;}
	.st61{clip-path:url(#SVGID_96_);fill:none;stroke:#494949;stroke-width:2.3448;stroke-miterlimit:10;}
	.st62{clip-path:url(#SVGID_98_);fill:none;stroke:#494949;stroke-width:2.3448;stroke-miterlimit:10;}
	.st63{clip-path:url(#SVGID_100_);fill:none;stroke:#494949;stroke-width:2.3448;stroke-miterlimit:10;}
	.st64{clip-path:url(#SVGID_102_);fill:none;stroke:#494949;stroke-width:2.3448;stroke-miterlimit:10;}
	.st65{clip-path:url(#SVGID_104_);fill:none;stroke:#494949;stroke-width:2.3448;stroke-miterlimit:10;}
	.st66{clip-path:url(#SVGID_106_);fill:none;stroke:#494949;stroke-width:2.3448;stroke-miterlimit:10;}
	.st67{clip-path:url(#SVGID_108_);fill:none;stroke:#494949;stroke-width:2.3448;stroke-miterlimit:10;}
	.st68{clip-path:url(#SVGID_110_);fill:none;stroke:#494949;stroke-width:2.3448;stroke-miterlimit:10;}
	.st69{clip-path:url(#SVGID_112_);fill:none;stroke:#494949;stroke-width:2.3448;stroke-miterlimit:10;}
	.st70{clip-path:url(#SVGID_114_);fill:none;stroke:#494949;stroke-width:2.3448;stroke-miterlimit:10;}
	.st71{clip-path:url(#SVGID_116_);fill:none;stroke:#494949;stroke-width:2.3448;stroke-miterlimit:10;}
	.st72{clip-path:url(#SVGID_118_);fill:none;stroke:#494949;stroke-width:2.3448;stroke-miterlimit:10;}
	.st73{clip-path:url(#SVGID_120_);fill:none;stroke:#494949;stroke-width:2.3448;stroke-miterlimit:10;}
	.st74{clip-path:url(#SVGID_122_);fill:none;stroke:#494949;stroke-width:2.3448;stroke-miterlimit:10;}
	.st75{clip-path:url(#SVGID_124_);fill:none;stroke:#494949;stroke-width:2.3448;stroke-miterlimit:10;}
	.st76{clip-path:url(#SVGID_126_);fill:none;stroke:#494949;stroke-width:2;stroke-miterlimit:10;}
	.st77{clip-path:url(#SVGID_128_);fill:none;stroke:#494949;stroke-width:2;stroke-miterlimit:10;}
	.st78{clip-path:url(#SVGID_130_);fill:none;stroke:#494949;stroke-width:2;stroke-miterlimit:10;}
	.st79{clip-path:url(#SVGID_132_);fill:none;stroke:#494949;stroke-width:2;stroke-miterlimit:10;}
	.st80{clip-path:url(#SVGID_134_);fill:none;stroke:#494949;stroke-width:2;stroke-miterlimit:10;}
	.st81{clip-path:url(#SVGID_136_);fill:none;stroke:#494949;stroke-width:2;stroke-miterlimit:10;}
	.st82{clip-path:url(#SVGID_138_);fill:#494949;}
	.st83{clip-path:url(#SVGID_140_);fill:#494949;}
	.st84{clip-path:url(#SVGID_142_);fill:#494949;}
	.st85{clip-path:url(#SVGID_144_);fill:#494949;}
	.st86{clip-path:url(#SVGID_146_);fill:#494949;}
	.st87{clip-path:url(#SVGID_148_);fill:#494949;}
	.st88{clip-path:url(#SVGID_150_);fill:none;stroke:#494949;stroke-miterlimit:10;}
	.st89{clip-path:url(#SVGID_152_);fill:none;stroke:#494949;stroke-miterlimit:10;}
	.st90{clip-path:url(#SVGID_154_);fill:none;stroke:#494949;stroke-miterlimit:10;}
	.st91{clip-path:url(#SVGID_156_);fill:none;stroke:#494949;stroke-miterlimit:10;}
	.st92{clip-path:url(#SVGID_158_);fill:none;stroke:#494949;stroke-miterlimit:10;}
	.st93{clip-path:url(#SVGID_160_);fill:none;stroke:#494949;stroke-miterlimit:10;}
	.st94{fill:#FFFFFF;stroke:#FFFFFF;stroke-miterlimit:10;}
	.st95{fill:#606060;}
	.st96{fill:#BEAD95;}
	.st97{fill:#494949;stroke:#FFFFFF;stroke-miterlimit:10;}
</style>
<path class="st2" d="M26.48,58.93v-2c-7.11,0-12.89-5.71-12.89-12.72s5.78-12.72,12.89-12.72c2.46,0,4.86,0.7,6.95,2.02l0.88,0.55
	l0.52-0.9c3.12-5.36,8.93-8.69,15.17-8.69s12.05,3.33,15.17,8.69l0.52,0.9l0.88-0.55c2.08-1.32,4.48-2.02,6.95-2.02
	c7.11,0,12.89,5.71,12.89,12.72s-5.78,12.72-12.89,12.72v2c8.21,0,14.89-6.6,14.89-14.72s-6.68-14.72-14.89-14.72
	c-2.5,0-4.95,0.62-7.14,1.81c-3.58-5.47-9.76-8.83-16.37-8.83s-12.79,3.36-16.37,8.83c-2.19-1.19-4.64-1.81-7.14-1.81
	c-8.21,0-14.89,6.6-14.89,14.72S18.28,58.93,26.48,58.93z M59.62,59.26c-2.18,0-3.2-0.49-4.38-1.06c-1.22-0.59-2.61-1.25-5.25-1.25
	c-2.63,0-4.02,0.67-5.24,1.25c-1.18,0.57-2.2,1.06-4.38,1.06c-2.17,0-3.19-0.49-4.37-1.06c-1.22-0.59-2.61-1.25-5.24-1.25v2
	c2.18,0,3.19,0.49,4.37,1.06c1.22,0.59,2.61,1.25,5.24,1.25c2.63,0,4.02-0.67,5.24-1.25c1.18-0.57,2.2-1.06,4.38-1.06
	s3.2,0.49,4.38,1.06c1.22,0.59,2.61,1.25,5.25,1.25c2.63,0,4.02-0.67,5.25-1.25c1.18-0.57,2.2-1.06,4.38-1.06v-2
	c-2.63,0-4.02,0.67-5.25,1.25C62.81,58.77,61.79,59.26,59.62,59.26z M72.98,75.53c-2.65,0-3.95-0.62-5.32-1.28
	c-1.51-0.73-3.08-1.48-6.18-1.48c-3.1,0-4.67,0.75-6.18,1.48c-1.37,0.66-2.67,1.28-5.31,1.28c-2.64,0-3.94-0.62-5.31-1.28
	c-1.51-0.73-3.08-1.48-6.18-1.48c-3.1,0-4.67,0.75-6.18,1.48c-1.37,0.66-2.67,1.28-5.31,1.28c-2.65,0-3.94-0.62-5.31-1.28
	c-1.51-0.73-3.08-1.48-6.18-1.48v2c2.64,0,3.94,0.62,5.31,1.28c1.51,0.73,3.08,1.48,6.18,1.48s4.67-0.75,6.18-1.48
	c1.37-0.66,2.67-1.28,5.31-1.28c2.64,0,3.94,0.62,5.31,1.28c1.51,0.73,3.08,1.48,6.18,1.48c3.1,0,4.67-0.75,6.18-1.48
	c1.37-0.66,2.67-1.28,5.31-1.28c2.65,0,3.95,0.62,5.32,1.28c1.52,0.73,3.08,1.48,6.19,1.48c3.1,0,4.67-0.75,6.18-1.48
	c1.38-0.66,2.67-1.28,5.32-1.28v-2c-3.1,0-4.67,0.75-6.18,1.48C76.93,74.9,75.63,75.53,72.98,75.53z"/>
</svg>
