<svg width="616" height="616" viewBox="0 0 616 616" fill="none" xmlns="http://www.w3.org/2000/svg">
<g clip-path="url(#clip0_412_2902)">
<path d="M407.249 299.786V299.292C403.667 257.542 378.345 213.198 353.888 170.212C338.448 143.037 323.749 117.345 315.349 93.629H300.65C292.251 117.345 277.552 143.037 262.112 170.212C237.654 213.074 212.456 257.418 208.874 299.292V299.786C208.503 303.862 208.38 307.197 208.38 310.409C208.38 370.44 253.095 419.231 308.061 419.231C363.028 419.231 407.743 370.44 407.743 310.409C407.743 307.197 407.62 303.862 407.249 299.786ZM307.938 405.396C260.629 405.396 222.091 362.782 222.091 310.409C222.091 307.568 222.214 304.603 222.461 301.145V300.403C225.796 261.618 250.377 218.632 273.97 177.006C286.692 154.648 298.921 133.156 307.814 112.651C316.708 133.156 328.937 154.525 341.659 177.006C365.375 218.632 389.832 261.618 393.168 300.403V300.898C393.538 304.603 393.662 307.568 393.662 310.409C393.662 362.782 355.123 405.396 307.814 405.396H307.938Z" fill="#D4B263"/>
<path d="M308.062 18.8987L597.101 307.938L308.062 596.978L18.8987 308.062L308.062 18.8987ZM308.062 0L298.551 9.51113L9.51113 298.551L0 308.062L9.51113 317.573L298.551 606.612L308.062 616.124L317.573 606.612L606.612 317.573L616.124 308.062L606.612 298.551L317.449 9.51113L307.938 0H308.062Z" fill="white"/>
<path d="M353.888 265.57H333.878C332.148 258.777 331.16 249.76 331.16 240.249V232.343C331.16 218.632 320.784 207.516 307.938 207.516C295.092 207.516 284.716 218.632 284.716 232.343V240.249C284.716 249.883 283.728 258.777 281.999 265.57H261.988V321.896H285.334V479.015C285.334 489.02 289.039 497.914 292.622 506.437C294.598 511.131 296.574 515.948 298.056 521.012L299.539 526.077H316.338L317.82 521.012C319.302 515.948 321.278 511.131 323.255 506.437C326.837 497.914 330.543 489.144 330.543 479.015V321.896H353.888V265.57ZM298.674 240.125V232.22C298.674 226.167 302.874 221.226 308.062 221.226C313.25 221.226 317.449 226.167 317.449 232.22V240.125C317.449 249.389 318.314 258.159 319.796 265.447H296.451C297.933 258.036 298.798 249.389 298.798 240.125H298.674ZM316.708 479.015C316.708 486.303 313.867 493.096 310.532 501.002C309.667 502.978 308.926 504.954 308.062 506.931C307.197 504.954 306.456 502.978 305.591 501.002C302.256 493.096 299.415 486.303 299.415 479.015V321.896H316.832V479.015H316.708ZM340.054 307.938H275.946V279.405H340.054V307.938Z" fill="white"/>
<path d="M506.314 306.085C506.314 303.862 506.314 301.639 506.067 299.045V298.551C503.967 274.958 487.291 246.672 466.787 223.326C464.44 227.773 461.722 232.59 459.005 237.408C448.382 256.183 436.277 274.835 434.177 298.551V299.168C433.93 301.762 433.807 303.862 433.807 306.085C433.807 330.419 444.677 352.159 461.475 366.24C455.546 385.88 444.553 403.173 429.73 416.143H449.988C461.105 402.926 469.381 387.115 474.075 369.822C493.467 355.864 506.314 332.519 506.314 305.962V306.085ZM476.174 307.938H464.316C467.157 322.39 467.281 336.842 465.058 350.553C454.064 338.819 447.641 322.761 447.641 305.962C447.641 304.109 447.641 302.256 447.888 299.662C449.494 281.381 458.264 266.188 467.651 250.007L468.763 248.031C482.35 266.806 490.873 285.457 492.109 300.156C492.232 302.256 492.356 304.109 492.356 305.962C492.356 321.032 487.168 335.36 478.151 346.6C479.262 334.001 478.645 320.908 476.051 307.815L476.174 307.938Z" fill="white"/>
<path d="M186.27 416.143C171.448 403.173 160.454 385.757 154.525 366.24C171.324 352.035 182.194 330.419 182.194 306.085C182.194 303.862 182.194 301.639 181.947 299.168V298.551C179.847 274.835 167.742 256.183 156.996 237.408C154.278 232.59 151.561 227.773 149.214 223.326C128.709 246.672 112.034 274.958 109.934 298.551V299.045C109.687 301.515 109.563 303.862 109.563 306.085C109.563 332.643 122.41 355.988 141.802 369.946C146.62 387.239 154.772 403.05 165.889 416.266H186.147L186.27 416.143ZM123.521 306.085C123.521 304.233 123.521 302.38 123.768 300.28C125.004 285.581 133.527 266.929 147.114 248.154L148.226 250.13C157.613 266.312 166.383 281.505 167.989 299.786C168.236 302.38 168.236 304.233 168.236 306.085C168.236 322.884 161.813 338.819 150.82 350.677C148.596 336.966 148.72 322.637 151.561 308.062H139.703C137.109 321.155 136.491 334.248 137.603 346.847C128.586 335.607 123.398 321.155 123.398 306.209L123.521 306.085Z" fill="white"/>
</g>
<defs>
<clipPath id="clip0_412_2902">
<rect width="616" height="616" fill="white"/>
</clipPath>
</defs>
</svg>
