<?xml version="1.0" encoding="utf-8"?>
<!-- Generator: Adobe Illustrator 23.0.1, SVG Export Plug-In . SVG Version: 6.00 Build 0)  -->
<svg version="1.1" id="Layer_1" xmlns="http://www.w3.org/2000/svg" xmlns:xlink="http://www.w3.org/1999/xlink" x="0px" y="0px"
	 viewBox="0 0 940 375" style="enable-background:new 0 0 940 375;" xml:space="preserve">
<style type="text/css">
	.st0{fill:#18374B;}
	.st1{fill:#FFFFFF;}
	.st2{clip-path:url(#SVGID_6_);fill:#0D2735;}
	.st3{clip-path:url(#SVGID_6_);}
	.st4{fill:#D3B162;}
</style>
<g>
	<path class="st0" d="M550.36,222.23h-5.92v0.23l-12.51,36.8h5.77l2.26-6.64h14.86l2.28,6.64h5.82l-12.64-36.8L550.36,222.23z
		 M553.2,247.69h-11.51l5.73-16.86L553.2,247.69z"/>
	<path class="st0" d="M441.31,254.28c-6.01,0-12.08-4.17-12.08-13.51c0-7.45,5.26-13.5,11.87-13.5c3.2,0.09,6.22,1.5,8.34,3.89
		l3.96-3.75c-3.14-3.47-7.58-5.5-12.27-5.59c-9.55,0-17.32,8.5-17.32,18.96c0,10.99,7.38,18.96,17.53,18.96
		c4.75,0,9.29-1.95,12.57-5.4l-3.96-3.75C447.69,252.95,444.57,254.28,441.31,254.28z"/>
	<path class="st0" d="M288.43,221.12c-7.94,0-16.51,7.26-16.51,18.98s8.57,18.95,16.51,18.95s16.51-7.24,16.51-18.95
		C304.94,228.4,296.37,221.12,288.43,221.12z M288.43,253.58c-5.26,0-11.06-5.15-11.06-13.48c0-8.32,5.73-13.51,11.06-13.51
		s11.06,5.17,11.06,13.51S293.76,253.58,288.43,253.58z"/>
	<polygon class="st0" points="232.28,221.54 226.83,221.54 226.83,258.63 248.4,258.63 248.4,253.72 232.28,253.72 	"/>
	<polygon class="st0" points="368.66,221.54 362.23,249.59 354.28,221.54 348.46,221.54 340.5,249.59 334.07,221.54 328.48,221.54 
		337.14,259.33 343.41,259.33 351.37,231.29 359.32,259.33 365.58,259.33 374.26,221.54 	"/>
	<path class="st0" d="M186.57,237.18c-6.71-0.98-8.66-1.75-8.66-5.4c0-1.75,1.75-5.1,8.11-5.1c2.93,0.05,5.75,1.08,8.03,2.93l3.72-4
		c-3.29-2.77-7.43-4.32-11.72-4.38c-9.95,0-13.57,6.31-13.57,10.52c0,8.85,7.69,9.97,13.32,10.8c6.87,1,8.87,1.88,8.87,5.68
		c0,3.4-3.28,5.42-8.76,5.42c-4.1-0.22-7.98-1.97-10.85-4.91l-3.77,3.93c3.88,3.92,9.11,6.22,14.62,6.43
		c10.52,0,14.23-5.85,14.23-10.87C200.12,239.07,192.28,237.93,186.57,237.18z"/>
	<polygon class="st0" points="690.51,259.31 712.09,259.31 712.09,254.41 695.96,254.41 695.96,244.61 710.47,244.61 710.47,239.7 
		695.96,239.7 695.96,227.14 712.09,227.14 712.09,222.23 690.51,222.23 	"/>
	<path class="st0" d="M496.31,247.25l5.12,12.08h5.92l-6.08-14.32c3.17-2.32,5.07-5.99,5.15-9.92c0-5.98-4-12.93-15.23-12.93h-8.9
		l0,0h-1.33v37.09h5.45v-11.78h7.01C494.38,247.5,495.35,247.42,496.31,247.25z M486.4,227.61h4.8c8.76,0,9.78,5.26,9.78,7.48
		c-0.17,4.03-3.56,7.16-7.59,7.01h-7.01L486.4,227.61z"/>
	<polygon class="st0" points="638.04,227.14 648.34,227.14 648.34,259.31 653.8,259.31 653.8,227.14 664.1,227.14 664.1,222.23 
		638.04,222.23 	"/>
	<path class="st0" d="M751.77,222.26L751.77,222.26h-11.85v37.09h11.44h0.18c4.57,0.2,9.02-1.51,12.27-4.73
		c3.4-3.78,5.2-8.74,5.01-13.83c0.06-4.87-1.66-9.59-4.84-13.28C760.88,224.04,756.41,222.12,751.77,222.26z M751.49,254.41h-6.15
		v-27.27h6.38c6.52,0,11.62,6.06,11.62,13.64C763.33,248.85,758.57,254.41,751.49,254.41z"/>
	<polygon class="st0" points="591,259.31 596.45,259.31 596.45,243.08 611.65,243.08 611.65,238.18 596.45,238.18 596.45,227.14 
		613.28,227.14 613.28,222.23 591,222.23 	"/>
	<path class="st0" d="M145.79,177.38h-25.61v-3.28c0-0.4,0.88-41.66,0.88-81.44s-0.88-59.43-0.88-59.59l-0.16-3.35h25.76l-0.16,3.35
		c0,0.19-0.88,19.91-0.88,59.59s0.88,81.04,0.88,81.44L145.79,177.38z"/>
	<path class="st0" d="M687.43,178.78l-3.63-0.11c-28.16-1.49-39.71-20.72-39.71-65.49v-11.04c0-39.77-0.88-68.88-0.88-69.16
		l-0.11-3.31h25.68l-0.11,3.31c0,0.26-0.88,27.55-0.88,67.32v10.69c0,36.35,6.48,43.01,19.28,43.15
		c12.69-0.14,19.17-6.8,19.17-42.85v-11.04c0-39.77-0.88-67.04-0.88-67.32l-0.11-3.31h25.68l-0.11,3.31
		c0,0.28-0.88,29.39-0.88,69.16v10.74c0,44.85-11.44,64.13-39.35,65.78v0.11L687.43,178.78z"/>
	<path class="st0" d="M528.4,173.24c-2.82-9.32-10.1-33.72-17.75-61.88c8.47-8.76,12.74-20.58,12.74-35.33
		c0-16.74-4.99-29.44-14.86-37.73c-8.25-7.01-19.03-10.29-32.9-10.09c-4.61,0-11.02,0.47-16.67,0.89c-3.91,0.3-7.61,0.56-9.38,0.56
		h-7.33l0.16,3.35c0,0.19,0.88,19.87,0.88,59.59s-0.88,81.04-0.88,81.44v3.28h25.61v-3.28c0-0.23-0.47-22.4-0.72-49.74
		c7.1,1.09,14.35,0.82,21.35-0.79c6.13,23.63,10.04,42.06,11.85,51.23l0.51,2.58h28.6L528.4,173.24z M475.96,101.12
		c-3.02-0.01-6.03-0.39-8.96-1.14v-7.33c0-14.02,0.11-27.03,0.32-38.68c3.26-0.57,6.56-0.87,9.87-0.91
		c19.28,0,20.75,17.53,20.75,22.98C497.92,88.21,490.23,101.12,475.96,101.12L475.96,101.12z"/>
	<path class="st0" d="M823.73,94.74c7.1-8.59,10.15-19.83,8.38-30.83c-2.96-20.26-18.89-33.61-40.92-34.63h-2.73
		c-2.79,0-7.01,0.12-10.95,0.26c-3.51,0.11-6.66,0.21-8.57,0.21h-13.69l0.16,3.35c0,0.19,0.88,19.91,0.88,59.59
		s-0.88,81.04-0.88,81.44v3.28h17.82c2.91,0.11,6.15,0.4,9.31,0.68c3.89,0.35,7.89,0.72,11.3,0.72l0,0
		c28.16,0,49.39-19.86,49.39-46.18C843.32,116.63,836.21,103.05,823.73,94.74z M780.23,53.82c2.46-0.25,4.94-0.37,7.41-0.35
		c0.18,0,17.16,0.16,19.28,14.11l0,0c0.81,4.1-0.38,8.34-3.21,11.41c-2.63,2.94-7.94,7.01-23.7,9.2
		C780,75.85,780.11,64.3,780.23,53.82z M793.83,153.32c-4.53,0.15-9.05-0.33-13.44-1.44c-0.16-10.52-0.33-23.91-0.42-38.14
		c4.49-1.35,9.16-2.03,13.85-2c14.97,0,23.91,7.8,23.91,20.86c0.11,13.6-11.94,20.72-23.82,20.72H793.83z"/>
	<path class="st0" d="M930.62,177.48l-70.02-0.21V174c0-0.4,1-41.64,1.1-81.44s-0.7-59.43-0.72-59.59l-0.14-3.37l66.39,0.19
		l2.47,24.54l-3.94-0.42c-0.12,0-12.27-1.3-39.91-1.75c-0.21,9.43-0.35,19.75-0.42,30.83c14.64-2.88,29.64-3.55,44.48-2l2.54,0.32
		l2.54,25.17l-4.05-0.91c-15.02-2.62-30.37-2.62-45.39,0c0,18.7,0.21,36.58,0.37,49.34c31.09-0.32,43.31-1.56,43.43-1.56l3.94-0.4
		L930.62,177.48z"/>
	<path class="st0" d="M215.56,177.38h-25.62v-3.29c0-0.35,0.88-35.86,0.88-75.64c0-19.8-0.21-35.63-0.42-46.18
		c-13.39,0.3-23.84,0.91-23.96,0.91l-3.77,0.23l2.49-23.82l39.15-0.09l35.88,0.09l2.49,23.85l-3.82-0.28
		c-0.11,0-9.95-0.7-23.91-0.98c-0.21,10.52-0.42,26.39-0.42,46.25c0,39.78,0.88,75.36,0.88,75.64L215.56,177.38z"/>
	<path class="st0" d="M302.8,177.38h-25.57v-3.29c0-0.35,0.88-35.86,0.88-75.64c0-19.75-0.21-35.63-0.42-46.25
		c-14.02,0.26-23.8,0.96-23.91,0.98l-3.82,0.28l2.49-23.85l35.86-0.09l39.17,0.09l2.49,23.82l-3.77-0.23
		c-0.11,0-10.52-0.61-23.96-0.91c-0.21,10.52-0.42,26.38-0.42,46.18c0,39.78,0.88,75.36,0.88,75.64L302.8,177.38z"/>
	<path class="st0" d="M417.44,177.48l-70.02-0.21V174c0-0.4,1-41.64,1.1-81.44c0.11-39.8-0.7-59.43-0.72-59.59l-0.14-3.37
		l66.39,0.19l2.47,24.54l-3.94-0.42c-0.12,0-12.27-1.3-39.91-1.75c-0.21,9.43-0.35,19.75-0.42,30.83c14.64-2.88,29.64-3.55,44.48-2
		l2.54,0.32l2.54,25.17l-4.24-0.81c-15.02-2.62-30.37-2.62-45.39,0c0,18.75,0.21,36.59,0.37,49.34c31.09-0.32,43.31-1.56,43.43-1.56
		l3.94-0.4L417.44,177.48z"/>
	<path class="st0" d="M628.1,154.61c-1.33-4.66-2.84-9.92-4.28-15.11l-1.16-4.17c-3.02,4.19-6.55,7.98-10.52,11.29
		c-3.1,2.8-6.74,4.96-10.69,6.33l-0.3,0.11c-0.57,0.19-1.16,0.36-1.75,0.51l-1.24,0.3l-1.45,0.26l-0.86,0.11
		c-0.69,0.08-1.39,0.13-2.09,0.14c-17.53,0-28.37-18.7-28.37-48.83c0-31,14.65-52.58,27.8-52.58c8.45,0,15.49,4.07,22.31,13.58
		l1.3-0.25l5.45-36.33h-3.8c-4.44,0.07-8.87-0.14-13.28-0.63c-4.52-0.49-9.06-0.75-13.6-0.75c-28.36,0-50.58,33.79-50.58,76.92
		c0,44.5,20.38,73.24,51.91,73.24c15.39,0,30.32-9.04,36.1-14.74l1.35-1.33L628.1,154.61z"/>
	<path class="st0" d="M74.39,73.75c7.63-7.32,11.87-17.47,11.71-28.04c0-23.05-18.42-40.52-43.06-41.08h-3.22
		c-3.08,0-7.29,0.21-11.74,0.46c-4.45,0.25-8.76,0.46-12.01,0.46H5.58L5.7,8.87c0,0.25,0.93,24.24,0.93,64.08
		c0,32.63-0.63,75.36-0.89,91.96L5,177.57h28.34c39.78,0,65.48-23.54,65.48-59.97C98.75,99.75,89.52,83.2,74.39,73.75z M31.62,28.81
		c3.33-0.75,6.75-1.1,10.17-1.03c9.04,0,18.82,6.82,18.82,17.84c0,9.04-8.13,17.74-19.42,17.74c-3.32,0.01-6.64,0.19-9.94,0.54
		C31.29,51.65,31.41,39.87,31.62,28.81z M34.67,153.25c-0.88,0-1.75,0-2.63-0.11c-0.21-11.13-0.65-38.29-0.79-65.65
		c2.82-0.41,5.67-0.62,8.52-0.65c20.38,0.74,33.56,12.78,33.56,30.67c0,22.38-14.44,35.75-38.64,35.75L34.67,153.25z"/>
	<path class="st1" d="M701.99,332.4c-12.92-0.93-20.7-2.3-20.7-11.51c-0.1-3.34,1.16-6.59,3.51-8.97c3.33-3.33,8.89-5.1,16.05-5.1
		c14.02,0,21.03,6.17,22.07,7.15l-1.38-9.03c-2.64-0.55-5.25-1.24-7.82-2.07c-4.18-1.18-8.52-1.77-12.86-1.75
		c-8.76,0-15.6,2.28-20.08,6.77c-3.42,3.46-5.32,8.14-5.26,13c0,15.44,14.51,16.68,26.13,17.53c13.06,0.95,20.05,2.28,20.05,11.74
		s-11.44,14.53-22.56,14.53c-6.74-0.13-13.4-1.57-19.59-4.24c-2.02-0.91-3.87-2.15-5.49-3.66l1.38,9.03
		c2.79,0.59,5.55,1.32,8.27,2.19c5,1.54,10.19,2.34,15.42,2.38c16.25,0,28.44-8.5,28.44-20.23
		C727.54,334.45,713.73,333.24,701.99,332.4z"/>
	<path class="st1" d="M316.49,363.68c-0.18-7.66-0.19-17.93-0.14-27.92c0.05-9.99,0-20.26,0.14-27.92c0-2.26,0.75-5.68,2.56-6.24
		h-12.02c1.75,0.56,2.47,3.98,2.56,6.24c0.18,7.66,0.19,17.93,0.14,27.92c-0.05,9.99,0,20.26-0.14,27.92c0,2.26-0.75,5.68-2.56,6.24
		h11.94C317.23,369.36,316.56,365.94,316.49,363.68z"/>
	<path class="st1" d="M648.12,369.94c-1.75-0.56-4.38-4.7-5.52-7.92c-1.75-5.03-3.51-10.52-5.26-15.88
		c-0.93-2.79-1.88-5.61-2.79-8.38c4.78-3.12,7.96-8.76,7.96-17.39c0-12.95-9.04-18.81-20.4-18.81h-35.33
		c1.75,0.56,2.47,3.98,2.54,6.24c0.18,7.66,0.19,17.93,0.14,27.92c-0.05,9.99,0,20.26-0.14,27.92c0,2.26-0.75,5.68-2.54,6.24h11.94
		c-1.75-0.56-2.47-3.98-2.54-6.24c-0.14-6.36-0.18-14.55-0.16-22.78h28.04c1.48-0.03,2.95-0.21,4.4-0.53
		c0.88,2.63,1.75,5.26,2.61,7.94c1.75,5.42,3.65,10.92,5.26,16c0.72,2.4,0.68,5.26-0.84,5.73L648.12,369.94z M596.01,334.88
		c0-9.66,0-19.51,0.14-26.92h26.78c7.97,0,12.99,4.19,12.99,13.11c0,8.92-4.26,13.81-13.85,13.81L596.01,334.88z"/>
	<path class="st1" d="M253.94,369.92c10.52,0,19.28-9.27,19.28-20.24c0.18-7.69-4.19-14.76-11.15-18.03
		c3.85-3.36,5.96-8.3,5.73-13.41c0-9.95-7.83-16.65-19.49-16.65h-33.44c1.75,0.56,2.47,3.98,2.56,6.24
		c0.18,7.66,0.19,17.93,0.14,27.92c-0.05,9.99,0,20.26-0.14,27.92c0,2.26-0.75,5.68-2.56,6.24L253.94,369.92z M248.68,307.6
		c7.83,0,12.27,4.57,12.27,10.64c0,3.37-0.81,11.64-11.64,11.64h-25.22c0-8.15,0-16.09,0.18-22.29L248.68,307.6z M254.2,363.52
		h-29.93c-0.16-7.62-0.19-17.79-0.14-27.67h30.09c7.01,0,12.27,6.31,12.27,13.85C266.42,356.04,261.55,363.52,254.2,363.52z"/>
	<path class="st1" d="M552.83,369.94l1.37-8.03c-1.98,1.35-4.32,2.07-6.71,2.07h-33.3c-0.18-7.69-0.19-18.1-0.16-28.23
		c0-0.12,0-0.26,0-0.39h31.18c2.26,0.03,4.51,0.32,6.71,0.86v-7.64c-2.2,0.54-4.45,0.81-6.71,0.81h-31.2c0-7.99,0-15.77,0.18-21.85
		h32.39c2.39,0,4.73,0.72,6.71,2.07l-1.37-8.03h-47.16c1.75,0.56,2.47,3.98,2.56,6.24c0.18,7.66,0.19,17.93,0.14,27.92
		c-0.05,9.99,0,20.26-0.14,27.92c0,2.26-0.75,5.68-2.56,6.24L552.83,369.94z"/>
	<path class="st1" d="M471.05,307.56c2.39,0,4.73,0.72,6.71,2.07l-1.37-8.03h-52.16l-1.37,8.03c1.98-1.35,4.32-2.07,6.71-2.07h17.3
		c0.18,7.69,0.19,18.09,0.16,28.18s0,20.26-0.14,27.92c0,2.26-0.75,5.68-2.56,6.24h11.94c-1.75-0.56-2.47-3.98-2.54-6.24
		c-0.18-7.66-0.19-17.93-0.14-27.92c0.05-9.99,0-20.49,0.16-28.18H471.05z"/>
	<path class="st1" d="M396.41,307.56c2.39,0,4.73,0.72,6.71,2.07l-1.37-8.03h-52.19l-1.37,8.03c1.98-1.35,4.32-2.07,6.71-2.07h17.3
		c0.18,7.69,0.19,18.09,0.16,28.18s0,20.26-0.14,27.92c0,2.26-0.75,5.68-2.54,6.24h11.94c-1.75-0.56-2.47-3.98-2.54-6.24
		c-0.18-7.66-0.19-17.93-0.14-27.92c0.05-9.99,0-20.49,0.16-28.18H396.41z"/>
	<path class="st1" d="M126.74,170.96h12.5c-0.21-10.52-0.81-44.94-0.81-78.31c0-30.58,0.51-49.37,0.75-56.56h-12.37
		c0.25,7.2,0.75,25.99,0.75,56.56C127.56,126.01,126.95,160.4,126.74,170.96z"/>
	<path class="st1" d="M649.75,36.08c0.23,8.76,0.79,33.91,0.79,66.04v10.76c0,49.07,14.46,59.19,36.17,59.45h0.7
		c21.71-0.26,36.17-10.41,36.17-59.17v-11.04c0-32.13,0.56-57.31,0.79-66.04h-12.5c0.23,8.45,0.79,32.34,0.79,64.22v10.87
		c0,31.2-4.19,49.21-25.59,49.44c-21.47-0.23-25.66-18.24-25.66-49.27V100.3c0-31.88,0.56-55.77,0.79-64.22H649.75z"/>
	<path class="st1" d="M867.17,170.88l57.66,0.16l1.17-10.97c-6.05,0.42-19.47,1.12-43.29,1.31h-3.19v-3.19
		c-0.18-13.42-0.4-33.91-0.42-55.22v-2.58l2.52-0.56c15.25-3.02,30.89-3.46,46.29-1.3L926.76,87c-14.64-1.24-29.39-0.24-43.73,2.96
		l-3.96,0.91V86.8c0-13.9,0.25-26.73,0.51-38.14v-3.19h3.19c21.24,0.33,33.9,1.1,39.75,1.54l-1.1-10.97l-53.91-0.16
		c0.23,7.2,0.68,25.99,0.6,56.57C868.12,125.92,867.42,160.31,867.17,170.88z"/>
	<path class="st1" d="M354.03,170.88l57.66,0.16l1.17-10.97c-6.05,0.42-19.47,1.12-43.29,1.31h-3.19v-3.19
		c-0.18-13.41-0.4-33.88-0.42-55.22v-2.58l2.52-0.56c15.25-3.02,30.89-3.46,46.29-1.3L413.62,87c-14.65-1.24-29.4-0.24-43.74,2.96
		l-3.96,0.91V86.8c0-13.9,0.25-26.73,0.51-38.14v-3.19h3.19c21.24,0.33,33.9,1.1,39.75,1.54l-1.1-10.97l-53.91-0.16
		c0.23,7.2,0.68,25.99,0.6,56.57C354.96,125.92,354.35,160.31,354.03,170.88z"/>
	<path class="st1" d="M591.6,35.03c-24.76,0-44.15,30.97-44.15,70.49c0,40.59,17.86,66.83,45.57,66.83
		c11.78,0,24.12-6.43,30.23-11.64l-1.24-4.35l-2.37-8.25c-6.46,7.6-15.78,12.19-25.75,12.65c-21.47,0-34.81-21.17-34.81-55.24
		c0-32.55,15.35-59.03,34.21-59.03c6.97,0.01,13.71,2.5,19.02,7.01l2.58-17.12c-4.01,0-7.17-0.37-10.24-0.67
		C600.32,35.25,595.96,35.03,591.6,35.03z"/>
	<path class="st1" d="M67.46,77.09l-4.21-2.3c2.47-1.83,4.81-3.83,7.01-5.98c6.19-6.11,9.61-14.49,9.46-23.19
		c0-19.77-16.28-34.67-37.87-34.67c-7.01,0-15.44,0.91-25.73,0.91h-3.98c0.25,7.92,0.82,29.55,0.82,60.99
		c0,32.67-0.63,75.36-0.89,92.2l-0.35,6.01h21.61c36.42,0,59.06-20.52,59.06-53.56C92.4,100.47,83.31,85.77,67.46,77.09z
		 M24.86,67.54c0-14.49,0.18-28.37,0.44-41.2V24.1l2.1-0.74c4.65-1.47,9.51-2.15,14.39-2.02c12.15,0,25.24,9.27,25.24,24.26
		c0,13.51-11.99,24.17-25.85,24.17c-5.49,0.08-10.97,0.58-16.39,1.49L24.86,67.54z M34.72,159.68c-2.11,0-4.21-0.17-6.29-0.51
		l-2.66-0.42v-2.7c-0.18-8.89-0.72-40.31-0.84-71.23v-2.61l2.54-0.54c4.11-0.84,8.29-1.26,12.48-1.26
		c23.94,0.86,39.91,15.77,39.91,37.09c-0.09,26.03-17.37,42.19-45.16,42.19H34.72z"/>
	<path class="st1" d="M196.51,170.96h12.48c-0.21-9.73-0.81-39.66-0.81-72.51c0-22.03,0.26-39.12,0.49-49.58v-3.19
		c6.36,0,22.17,0.6,26.83,0.86l-1.1-10.52h-30.09h-33.3l-1.1,10.52c4.77-0.23,21.03-0.84,26.85-0.84v3.21
		c0.23,10.52,0.49,27.55,0.49,49.53C197.31,131.29,196.72,161.24,196.51,170.96z"/>
	<path class="st1" d="M283.75,170.98h12.48c-0.21-9.73-0.81-39.66-0.81-72.51c0-22.03,0.26-39.12,0.49-49.58v-3.19
		c6.36,0,22.17,0.6,26.83,0.86l-1.1-10.52h-30.09h-33.3l-1.1,10.52c4.77-0.23,21.03-0.84,26.85-0.84v3.21
		c0.23,10.52,0.49,27.55,0.49,49.53C284.56,131.32,283.96,161.27,283.75,170.98z"/>
	<path class="st1" d="M503.44,109.36l1.4-1.31c8.04-7.55,12.13-18.31,12.13-32.02c0-14.76-4.24-25.8-12.58-32.81
		c-7.01-5.91-16.42-8.76-28.73-8.59l0,0c-4.42,0-10.69,0.46-16.23,0.88c-4.21,0.32-7.83,0.58-9.83,0.58h-0.61
		c0.25,7.2,0.75,25.99,0.75,56.56c0,33.3-0.61,67.74-0.81,78.31h12.5c-0.14-7.61-0.51-27.53-0.68-50.4v-4l3.91,0.84
		c8.36,1.87,17.07,1.58,25.29-0.82l3.19-0.96l0.84,3.22c6.1,23.2,10.13,41.82,12.27,52.14h14.88c-3.51-11.6-10.15-34.25-17.05-59.73
		L503.44,109.36z M475.96,107.61c-4.46-0.02-8.9-0.72-13.14-2.09l-2.23-0.72V92.71c0-15.14,0.12-29.09,0.37-41.45v-2.63l2.58-0.47
		c4.48-0.9,9.03-1.39,13.6-1.47c20.07,0,27.17,15.77,27.17,29.39c0.05,15.23-9.9,31.41-28.34,31.41V107.61z"/>
	<path class="st1" d="M817.19,98.3l-3.77-2.07l3.05-3.03c7.58-7.34,11.06-17.95,9.29-28.36c-2.61-17.74-17.25-29.22-37.3-29.22
		h-2.19c-2.52,0-5.63,0.14-8.59,0.23c-3.51,0.11-6.82,0.21-8.76,0.21h-7.01c0.25,7.2,0.75,25.99,0.75,56.56
		c0,33.3-0.61,67.74-0.82,78.31h11.5c3.19,0.11,6.55,0.42,9.8,0.7c3.91,0.35,7.61,0.7,10.73,0.7c24.54,0,42.96-17.09,42.96-39.77
		C836.85,117.63,829.69,105.14,817.19,98.3z M773.57,91.87c0-14.95,0.12-28.74,0.37-41.03v-2.87l4.87-0.44
		c2.91-0.31,5.84-0.47,8.76-0.46c7.85,0,23.29,4.1,25.55,19.61l0,0c1.08,5.99-0.69,12.13-4.78,16.63
		c-5.59,6.26-15.56,9.99-31.35,11.76l-3.51,0.4L773.57,91.87z M793.92,159.75c-5.93,0.19-11.85-0.6-17.53-2.33l-2.3-0.65v-2.38
		c-0.18-11.43-0.37-26.69-0.47-42.92v-2.23l2.16-0.77c5.82-2.08,11.97-3.12,18.16-3.07c18.42,0,30.34,10.71,30.34,27.27
		c-0.04,17.75-15.28,27.08-30.37,27.08H793.92z"/>
</g>
</svg>
