<svg xmlns="http://www.w3.org/2000/svg" viewBox="0 0 940 375"><path d="M550.36 222.23h-5.92v.23l-12.51 36.8h5.77l2.26-6.64h14.86l2.28 6.64h5.82l-12.64-36.8.08-.23zm2.84 25.46h-11.51l5.73-16.86 5.78 16.86zm-111.89 6.59c-6.01 0-12.08-4.17-12.08-13.51 0-7.45 5.26-13.5 11.87-13.5 3.2.09 6.22 1.5 8.34 3.89l3.96-3.75c-3.14-3.47-7.58-5.5-12.27-5.59-9.55 0-17.32 8.5-17.32 18.96 0 10.99 7.38 18.96 17.53 18.96 4.75 0 9.29-1.95 12.57-5.4l-3.96-3.75a11.96 11.96 0 0 1-8.64 3.69zm-152.88-33.16c-7.94 0-16.51 7.26-16.51 18.98s8.57 18.95 16.51 18.95 16.51-7.24 16.51-18.95c0-11.7-8.57-18.98-16.51-18.98zm0 32.46c-5.26 0-11.06-5.15-11.06-13.48 0-8.32 5.73-13.51 11.06-13.51s11.06 5.17 11.06 13.51-5.73 13.48-11.06 13.48zm-56.15-32.04h-5.45v37.09h21.57v-4.91h-16.12zm136.38 0l-6.43 28.05-7.95-28.05h-5.82l-7.96 28.05-6.43-28.05h-5.59l8.66 37.79h6.27l7.96-28.04 7.95 28.04h6.26l8.68-37.79zm-182.09 15.64c-6.71-.98-8.66-1.75-8.66-5.4 0-1.75 1.75-5.1 8.11-5.1 2.93.05 5.75 1.08 8.03 2.93l3.72-4a18.606 18.606 0 0 0-11.72-4.38c-9.95 0-13.57 6.31-13.57 10.52 0 8.85 7.69 9.97 13.32 10.8 6.87 1 8.87 1.88 8.87 5.68 0 3.4-3.28 5.42-8.76 5.42-4.1-.22-7.98-1.97-10.85-4.91l-3.77 3.93c3.88 3.92 9.11 6.22 14.62 6.43 10.52 0 14.23-5.85 14.23-10.87-.02-9.16-7.86-10.3-13.57-11.05zm503.94 22.13h21.58v-4.9h-16.13v-9.8h14.51v-4.91h-14.51v-12.56h16.13v-4.91h-21.58zm-194.2-12.06l5.12 12.08h5.92l-6.08-14.32c3.17-2.32 5.07-5.99 5.15-9.92 0-5.98-4-12.93-15.23-12.93h-10.23v37.09h5.45v-11.78h7.01c.96.03 1.93-.05 2.89-.22zm-9.91-19.64h4.8c8.76 0 9.78 5.26 9.78 7.48a7.32 7.32 0 0 1-7.59 7.01h-7.01l.02-14.49zm151.64-.47h10.3v32.17h5.46v-32.17h10.3v-4.91h-26.06zm113.73-4.88h-11.85v37.09h11.62c4.57.2 9.02-1.51 12.27-4.73 3.4-3.78 5.2-8.74 5.01-13.83a19.96 19.96 0 0 0-4.84-13.28c-3.1-3.47-7.57-5.39-12.21-5.25zm-.28 32.15h-6.15v-27.27h6.38c6.52 0 11.62 6.06 11.62 13.64-.01 8.07-4.77 13.63-11.85 13.63zM591 259.31h5.45v-16.23h15.2v-4.9h-15.2v-11.04h16.83v-4.91H591zm-445.21-81.93h-25.61v-3.28c0-.4.88-41.66.88-81.44s-.88-59.43-.88-59.59l-.16-3.35h25.76l-.16 3.35c0 .19-.88 19.91-.88 59.59s.88 81.04.88 81.44l.17 3.28zm541.64 1.4l-3.63-.11c-28.16-1.49-39.71-20.72-39.71-65.49v-11.04c0-39.77-.88-68.88-.88-69.16l-.11-3.31h25.68l-.11 3.31c0 .26-.88 27.55-.88 67.32v10.69c0 36.35 6.48 43.01 19.28 43.15 12.69-.14 19.17-6.8 19.17-42.85v-11.04c0-39.77-.88-67.04-.88-67.32l-.11-3.31h25.68l-.11 3.31c0 .28-.88 29.39-.88 69.16v10.74c0 44.85-11.44 64.13-39.35 65.78v.11l-3.16.06zm-159.03-5.54c-2.82-9.32-10.1-33.72-17.75-61.88 8.47-8.76 12.74-20.58 12.74-35.33 0-16.74-4.99-29.44-14.86-37.73-8.25-7.01-19.03-10.29-32.9-10.09-4.61 0-11.02.47-16.67.89-3.91.3-7.61.56-9.38.56h-7.33l.16 3.35c0 .19.88 19.87.88 59.59s-.88 81.04-.88 81.44v3.28h25.61v-3.28c0-.23-.47-22.4-.72-49.74 7.1 1.09 14.35.82 21.35-.79 6.13 23.63 10.04 42.06 11.85 51.23l.51 2.58h28.6l-1.21-4.08zm-52.44-72.12a36.62 36.62 0 0 1-8.96-1.14v-7.33c0-14.02.11-27.03.32-38.68 3.26-.57 6.56-.87 9.87-.91 19.28 0 20.75 17.53 20.75 22.98-.02 12.17-7.71 25.08-21.98 25.08zm347.77-6.38a38.74 38.74 0 0 0 8.38-30.83c-2.96-20.26-18.89-33.61-40.92-34.63h-2.73c-2.79 0-7.01.12-10.95.26-3.51.11-6.66.21-8.57.21h-13.69l.16 3.35c0 .19.88 19.91.88 59.59s-.88 81.04-.88 81.44v3.28h17.82c2.91.11 6.15.4 9.31.68 3.89.35 7.89.72 11.3.72 28.16 0 49.39-19.86 49.39-46.18.09-16-7.02-29.58-19.5-37.89zm-43.5-40.92c2.46-.25 4.94-.37 7.41-.35.18 0 17.16.16 19.28 14.11.81 4.1-.38 8.34-3.21 11.41-2.63 2.94-7.94 7.01-23.7 9.2-.01-12.34.1-23.89.22-34.37zm13.6 99.5c-4.53.15-9.05-.33-13.44-1.44-.16-10.52-.33-23.91-.42-38.14 4.49-1.35 9.16-2.03 13.85-2 14.97 0 23.91 7.8 23.91 20.86.11 13.6-11.94 20.72-23.82 20.72h-.08zm136.79 24.16l-70.02-.21V174c0-.4 1-41.64 1.1-81.44s-.7-59.43-.72-59.59l-.14-3.37 66.39.19 2.47 24.54-3.94-.42c-.12 0-12.27-1.3-39.91-1.75-.21 9.43-.35 19.75-.42 30.83a149.85 149.85 0 0 1 44.48-2l2.54.32 2.54 25.17-4.05-.91a132.042 132.042 0 0 0-45.39 0c0 18.7.21 36.58.37 49.34 31.09-.32 43.31-1.56 43.43-1.56l3.94-.4-2.67 24.53zm-715.06-.1h-25.62v-3.29c0-.35.88-35.86.88-75.64 0-19.8-.21-35.63-.42-46.18-13.39.3-23.84.91-23.96.91l-3.77.23 2.49-23.82 39.15-.09 35.88.09 2.49 23.85-3.82-.28c-.11 0-9.95-.7-23.91-.98-.21 10.52-.42 26.39-.42 46.25 0 39.78.88 75.36.88 75.64l.15 3.31zm87.24 0h-25.57v-3.29c0-.35.88-35.86.88-75.64 0-19.75-.21-35.63-.42-46.25-14.02.26-23.8.96-23.91.98l-3.82.28 2.49-23.85 35.86-.09 39.17.09 2.49 23.82-3.77-.23c-.11 0-10.52-.61-23.96-.91-.21 10.52-.42 26.38-.42 46.18 0 39.78.88 75.36.88 75.64l.1 3.27zm114.64.1l-70.02-.21V174c0-.4 1-41.64 1.1-81.44.11-39.8-.7-59.43-.72-59.59l-.14-3.37 66.39.19 2.47 24.54-3.94-.42c-.12 0-12.27-1.3-39.91-1.75-.21 9.43-.35 19.75-.42 30.83a149.85 149.85 0 0 1 44.48-2l2.54.32 2.54 25.17-4.24-.81a132.042 132.042 0 0 0-45.39 0c0 18.75.21 36.59.37 49.34 31.09-.32 43.31-1.56 43.43-1.56l3.94-.4-2.48 24.43zm210.66-22.87c-1.33-4.66-2.84-9.92-4.28-15.11l-1.16-4.17a61.541 61.541 0 0 1-10.52 11.29c-3.1 2.8-6.74 4.96-10.69 6.33l-.3.11c-.57.19-1.16.36-1.75.51l-1.24.3-1.45.26-.86.11c-.69.08-1.39.13-2.09.14-17.53 0-28.37-18.7-28.37-48.83 0-31 14.65-52.58 27.8-52.58 8.45 0 15.49 4.07 22.31 13.58l1.3-.25 5.45-36.33h-3.8c-4.44.07-8.87-.14-13.28-.63-4.52-.49-9.06-.75-13.6-.75-28.36 0-50.58 33.79-50.58 76.92 0 44.5 20.38 73.24 51.91 73.24 15.39 0 30.32-9.04 36.1-14.74l1.35-1.33-2.25-8.07zM74.39 73.75A38.047 38.047 0 0 0 86.1 45.71c0-23.05-18.42-40.52-43.06-41.08h-3.22c-3.08 0-7.29.21-11.74.46s-8.76.46-12.01.46H5.58l.12 3.32c0 .25.93 24.24.93 64.08 0 32.63-.63 75.36-.89 91.96L5 177.57h28.34c39.78 0 65.48-23.54 65.48-59.97-.07-17.85-9.3-34.4-24.43-43.85zM31.62 28.81c3.33-.75 6.75-1.1 10.17-1.03 9.04 0 18.82 6.82 18.82 17.84 0 9.04-8.13 17.74-19.42 17.74-3.32.01-6.64.19-9.94.54.04-12.25.16-24.03.37-35.09zm3.05 124.44c-.88 0-1.75 0-2.63-.11-.21-11.13-.65-38.29-.79-65.65 2.82-.41 5.67-.62 8.52-.65 20.38.74 33.56 12.78 33.56 30.67 0 22.38-14.44 35.75-38.64 35.75l-.02-.01z" fill="#18374b"/><path d="M701.99 332.4c-12.92-.93-20.7-2.3-20.7-11.51-.1-3.34 1.16-6.59 3.51-8.97 3.33-3.33 8.89-5.1 16.05-5.1 14.02 0 21.03 6.17 22.07 7.15l-1.38-9.03c-2.64-.55-5.25-1.24-7.82-2.07a46.606 46.606 0 0 0-12.86-1.75c-8.76 0-15.6 2.28-20.08 6.77a18.18 18.18 0 0 0-5.26 13c0 15.44 14.51 16.68 26.13 17.53 13.06.95 20.05 2.28 20.05 11.74s-11.44 14.53-22.56 14.53c-6.74-.13-13.4-1.57-19.59-4.24a20.26 20.26 0 0 1-5.49-3.66l1.38 9.03c2.79.59 5.55 1.32 8.27 2.19 5 1.54 10.19 2.34 15.42 2.38 16.25 0 28.44-8.5 28.44-20.23-.03-15.71-13.84-16.92-25.58-17.76zm-385.5 31.28c-.18-7.66-.19-17.93-.14-27.92.05-9.99 0-20.26.14-27.92 0-2.26.75-5.68 2.56-6.24h-12.02c1.75.56 2.47 3.98 2.56 6.24.18 7.66.19 17.93.14 27.92-.05 9.99 0 20.26-.14 27.92 0 2.26-.75 5.68-2.56 6.24h11.94c-1.74-.56-2.41-3.98-2.48-6.24zm331.63 6.26c-1.75-.56-4.38-4.7-5.52-7.92-1.75-5.03-3.51-10.52-5.26-15.88-.93-2.79-1.88-5.61-2.79-8.38 4.78-3.12 7.96-8.76 7.96-17.39 0-12.95-9.04-18.81-20.4-18.81h-35.33c1.75.56 2.47 3.98 2.54 6.24.18 7.66.19 17.93.14 27.92-.05 9.99 0 20.26-.14 27.92 0 2.26-.75 5.68-2.54 6.24h11.94c-1.75-.56-2.47-3.98-2.54-6.24-.14-6.36-.18-14.55-.16-22.78h28.04c1.48-.03 2.95-.21 4.4-.53.88 2.63 1.75 5.26 2.61 7.94 1.75 5.42 3.65 10.92 5.26 16 .72 2.4.68 5.26-.84 5.73l12.63-.06zm-52.11-35.06c0-9.66 0-19.51.14-26.92h26.78c7.97 0 12.99 4.19 12.99 13.11 0 8.92-4.26 13.81-13.85 13.81h-26.06zm-342.07 35.04c10.52 0 19.28-9.27 19.28-20.24.18-7.69-4.19-14.76-11.15-18.03a16.8 16.8 0 0 0 5.73-13.41c0-9.95-7.83-16.65-19.49-16.65h-33.44c1.75.56 2.47 3.98 2.56 6.24.18 7.66.19 17.93.14 27.92-.05 9.99 0 20.26-.14 27.92 0 2.26-.75 5.68-2.56 6.24l39.07.01zm-5.26-62.32c7.83 0 12.27 4.57 12.27 10.64 0 3.37-.81 11.64-11.64 11.64h-25.22c0-8.15 0-16.09.18-22.29l24.41.01zm5.52 55.92h-29.93c-.16-7.62-.19-17.79-.14-27.67h30.09c7.01 0 12.27 6.31 12.27 13.85-.07 6.34-4.94 13.82-12.29 13.82zm298.63 6.42l1.37-8.03a11.914 11.914 0 0 1-6.71 2.07h-33.3c-.18-7.69-.19-18.1-.16-28.23v-.39h31.18c2.26.03 4.51.32 6.71.86v-7.64c-2.2.54-4.45.81-6.71.81h-31.2c0-7.99 0-15.77.18-21.85h32.39c2.39 0 4.73.72 6.71 2.07l-1.37-8.03h-47.16c1.75.56 2.47 3.98 2.56 6.24.18 7.66.19 17.93.14 27.92-.05 9.99 0 20.26-.14 27.92 0 2.26-.75 5.68-2.56 6.24l48.07.04zm-81.78-62.38c2.39 0 4.73.72 6.71 2.07l-1.37-8.03h-52.16l-1.37 8.03c1.98-1.35 4.32-2.07 6.71-2.07h17.3c.18 7.69.19 18.09.16 28.18s0 20.26-.14 27.92c0 2.26-.75 5.68-2.56 6.24h11.94c-1.75-.56-2.47-3.98-2.54-6.24-.18-7.66-.19-17.93-.14-27.92.05-9.99 0-20.49.16-28.18h17.3zm-74.64 0c2.39 0 4.73.72 6.71 2.07l-1.37-8.03h-52.19l-1.37 8.03c1.98-1.35 4.32-2.07 6.71-2.07h17.3c.18 7.69.19 18.09.16 28.18s0 20.26-.14 27.92c0 2.26-.75 5.68-2.54 6.24h11.94c-1.75-.56-2.47-3.98-2.54-6.24-.18-7.66-.19-17.93-.14-27.92.05-9.99 0-20.49.16-28.18h17.31zm-269.67-136.6h12.5c-.21-10.52-.81-44.94-.81-78.31 0-30.58.51-49.37.75-56.56h-12.37c.25 7.2.75 25.99.75 56.56 0 33.36-.61 67.75-.82 78.31zM649.75 36.08c.23 8.76.79 33.91.79 66.04v10.76c0 49.07 14.46 59.19 36.17 59.45h.7c21.71-.26 36.17-10.41 36.17-59.17v-11.04c0-32.13.56-57.31.79-66.04h-12.5c.23 8.45.79 32.34.79 64.22v10.87c0 31.2-4.19 49.21-25.59 49.44-21.47-.23-25.66-18.24-25.66-49.27V100.3c0-31.88.56-55.77.79-64.22h-12.45zm217.42 134.8l57.66.16 1.17-10.97c-6.05.42-19.47 1.12-43.29 1.31h-3.19v-3.19c-.18-13.42-.4-33.91-.42-55.22v-2.58l2.52-.56a138.91 138.91 0 0 1 46.29-1.3L926.76 87c-14.64-1.24-29.39-.24-43.73 2.96l-3.96.91V86.8c0-13.9.25-26.73.51-38.14v-3.19h3.19c21.24.33 33.9 1.1 39.75 1.54l-1.1-10.97-53.91-.16c.23 7.2.68 25.99.6 56.57.01 33.47-.69 67.86-.94 78.43zm-513.14 0l57.66.16 1.17-10.97c-6.05.42-19.47 1.12-43.29 1.31h-3.19v-3.19c-.18-13.41-.4-33.88-.42-55.22v-2.58l2.52-.56a138.91 138.91 0 0 1 46.29-1.3L413.62 87c-14.65-1.24-29.4-.24-43.74 2.96l-3.96.91V86.8c0-13.9.25-26.73.51-38.14v-3.19h3.19c21.24.33 33.9 1.1 39.75 1.54l-1.1-10.97-53.91-.16c.23 7.2.68 25.99.6 56.57 0 33.47-.61 67.86-.93 78.43zM591.6 35.03c-24.76 0-44.15 30.97-44.15 70.49 0 40.59 17.86 66.83 45.57 66.83 11.78 0 24.12-6.43 30.23-11.64l-1.24-4.35-2.37-8.25a35.976 35.976 0 0 1-25.75 12.65c-21.47 0-34.81-21.17-34.81-55.24 0-32.55 15.35-59.03 34.21-59.03 6.97.01 13.71 2.5 19.02 7.01l2.58-17.12c-4.01 0-7.17-.37-10.24-.67-4.33-.46-8.69-.68-13.05-.68zM67.46 77.09l-4.21-2.3c2.47-1.83 4.81-3.83 7.01-5.98a31.814 31.814 0 0 0 9.46-23.19c0-19.77-16.28-34.67-37.87-34.67-7.01 0-15.44.91-25.73.91h-3.98c.25 7.92.82 29.55.82 60.99 0 32.67-.63 75.36-.89 92.2l-.35 6.01h21.61c36.42 0 59.06-20.52 59.06-53.56.01-17.03-9.08-31.73-24.93-40.41zm-42.6-9.55c0-14.49.18-28.37.44-41.2V24.1l2.1-.74c4.65-1.47 9.51-2.15 14.39-2.02 12.15 0 25.24 9.27 25.24 24.26 0 13.51-11.99 24.17-25.85 24.17-5.49.08-10.97.58-16.39 1.49l.07-3.72zm9.86 92.14c-2.11 0-4.21-.17-6.29-.51l-2.66-.42v-2.7c-.18-8.89-.72-40.31-.84-71.23v-2.61l2.54-.54c4.11-.84 8.29-1.26 12.48-1.26 23.94.86 39.91 15.77 39.91 37.09-.09 26.03-17.37 42.19-45.16 42.19h.02zm161.79 11.28h12.48c-.21-9.73-.81-39.66-.81-72.51 0-22.03.26-39.12.49-49.58v-3.19c6.36 0 22.17.6 26.83.86l-1.1-10.52h-63.39l-1.1 10.52c4.77-.23 21.03-.84 26.85-.84v3.21c.23 10.52.49 27.55.49 49.53.06 32.85-.53 62.8-.74 72.52zm87.24.02h12.48c-.21-9.73-.81-39.66-.81-72.51 0-22.03.26-39.12.49-49.58V45.7c6.36 0 22.17.6 26.83.86l-1.1-10.52h-63.39l-1.1 10.52c4.77-.23 21.03-.84 26.85-.84v3.21c.23 10.52.49 27.55.49 49.53.07 32.86-.53 62.81-.74 72.52zm219.69-61.62l1.4-1.31c8.04-7.55 12.13-18.31 12.13-32.02 0-14.76-4.24-25.8-12.58-32.81-7.01-5.91-16.42-8.76-28.73-8.59-4.42 0-10.69.46-16.23.88-4.21.32-7.83.58-9.83.58h-.61c.25 7.2.75 25.99.75 56.56 0 33.3-.61 67.74-.81 78.31h12.5c-.14-7.61-.51-27.53-.68-50.4v-4l3.91.84a50.755 50.755 0 0 0 25.29-.82l3.19-.96.84 3.22c6.1 23.2 10.13 41.82 12.27 52.14h14.88c-3.51-11.6-10.15-34.25-17.05-59.73l-.64-1.89zm-27.48-1.75c-4.46-.02-8.9-.72-13.14-2.09l-2.23-.72V92.71c0-15.14.12-29.09.37-41.45v-2.63l2.58-.47c4.48-.9 9.03-1.39 13.6-1.47 20.07 0 27.17 15.77 27.17 29.39.05 15.23-9.9 31.41-28.34 31.41v.12zm341.23-9.31l-3.77-2.07 3.05-3.03a32.011 32.011 0 0 0 9.29-28.36c-2.61-17.74-17.25-29.22-37.3-29.22h-2.19c-2.52 0-5.63.14-8.59.23-3.51.11-6.82.21-8.76.21h-7.01c.25 7.2.75 25.99.75 56.56 0 33.3-.61 67.74-.82 78.31h11.5c3.19.11 6.55.42 9.8.7 3.91.35 7.61.7 10.73.7 24.54 0 42.96-17.09 42.96-39.77.02-14.93-7.14-27.42-19.64-34.26zm-43.62-6.43c0-14.95.12-28.74.37-41.03v-2.87l4.87-.44c2.91-.31 5.84-.47 8.76-.46 7.85 0 23.29 4.1 25.55 19.61 1.08 5.99-.69 12.13-4.78 16.63-5.59 6.26-15.56 9.99-31.35 11.76l-3.51.4.09-3.6zm20.35 67.88c-5.93.19-11.85-.6-17.53-2.33l-2.3-.65v-2.38c-.18-11.43-.37-26.69-.47-42.92v-2.23l2.16-.77a52.707 52.707 0 0 1 18.16-3.07c18.42 0 30.34 10.71 30.34 27.27-.04 17.75-15.28 27.08-30.37 27.08h.01z" fill="#fff"/></svg>