<svg width="403" height="341" viewBox="0 0 403 341" fill="none" xmlns="http://www.w3.org/2000/svg">
<g clip-path="url(#clip0_412_539)">
<path d="M134.924 259.518L141.239 259.124C141.184 258.24 141.813 257.473 142.664 257.321L135.913 219.171C135.913 219.171 108.853 229.56 83.7031 232.793L84.8306 238.609C100.961 246.946 117.79 253.93 134.917 259.511L134.924 259.518Z" fill="#F4F4F4"/>
<path d="M389.83 91.3528V198.013C396.118 185.22 400.392 170.79 402.26 154.668C404.958 131.396 400.178 110.148 389.83 91.3528Z" fill="#F4F4F4"/>
<path d="M222.244 141.93L223.904 146.178C224.485 145.95 225.17 146.047 225.675 146.482C226.069 146.828 226.256 147.318 226.249 147.802C229.217 147.843 232.066 147.891 234.743 147.933V131.956C231.783 136.466 227.57 140.058 222.244 141.923V141.93Z" fill="#F4F4F4"/>
<path d="M50.8539 79.6445C50.4181 79.3889 50.093 78.9468 50.01 78.408C49.9616 78.0903 50.01 77.7863 50.1207 77.51C48.9586 76.8815 48.0871 75.7417 47.8727 74.3326L46.7383 66.824L46.5654 66.8585C44.8568 67.1763 43.2313 65.9951 43.01 64.2751L42.346 58.0445C42.2422 57.0981 42.429 56.1932 42.8163 55.4058C26.7757 72.0876 16.0059 91.5601 11.4614 111.861C21.1937 106.55 38.9705 97.0862 52.2373 90.0404L50.847 79.6445H50.8539Z" fill="#F4F4F4"/>
<path d="M75.9629 71.6801C76.1428 72.8751 75.8454 74.0701 75.126 75.0441C74.4066 76.018 73.3552 76.6535 72.1586 76.8331L65.3799 77.8554L66.1477 82.6838C68.0914 81.6546 69.2188 81.0606 69.2188 81.0606C69.2188 81.0744 84.4571 150.585 87.0302 162.321C87.9017 162.128 88.7594 162.639 89.0361 163.468C97.8761 160.588 140.485 147.083 162.218 147.083C163.788 147.083 171.501 147.152 181.856 147.263L183.564 142.082C183.813 141.336 184.353 140.749 185.031 140.417C181.897 138.511 178.778 135.99 175.734 132.709C174.828 131.728 184.387 125.428 173.03 129.566C172.338 129.814 172.117 128.405 171.66 127.797C168.949 124.164 166.334 119.867 163.858 114.832C163.858 114.832 184.263 115.889 192.757 101.459L190.855 100.996C190.855 100.996 192.038 83.043 211.474 84.8736C222.625 85.9235 230.254 90.9246 234.757 97.5904V30.9875C234.757 28.5076 236.77 26.4975 239.253 26.4975H287.825C287.825 25.5443 288.599 24.7706 289.554 24.7706C290.508 24.7706 291.283 25.5443 291.283 26.4975H315.652C242.857 -8.3927 140.257 -11.2386 71.0864 32.4864C70.7682 32.6867 70.457 32.887 70.1457 33.0943L75.9629 71.687V71.6801ZM199.017 44.3951C201.652 44.3951 203.79 46.5295 203.79 49.1613C203.79 51.7931 201.652 53.9276 199.017 53.9276C196.382 53.9276 194.244 51.7931 194.244 49.1613C194.244 46.5295 196.382 44.3951 199.017 44.3951ZM116.338 134.228C115.023 134.228 113.951 133.165 113.951 131.845C113.951 130.526 115.016 129.462 116.338 129.462C117.659 129.462 118.724 130.526 118.724 131.845C118.724 133.165 117.659 134.228 116.338 134.228ZM113.343 45.2378H114.235C118.745 45.2378 122.404 41.5837 122.404 37.08V32.6177C122.404 31.7197 123.13 30.9944 124.029 30.9944H124.825C125.724 30.9944 126.45 31.7197 126.45 32.6177V37.073C126.45 41.5768 130.109 45.2309 134.619 45.2309C135.519 45.2309 136.238 45.9631 136.238 46.8542V47.6486C136.238 48.5466 135.512 49.2649 134.612 49.2649C130.103 49.2649 126.443 52.9191 126.443 57.4228V61.8851C126.443 62.7831 125.717 63.5084 124.818 63.5084H124.022C123.123 63.5084 122.397 62.7831 122.397 61.8851V57.4228C122.397 52.9191 118.738 49.2649 114.228 49.2649H113.336C112.443 49.2649 111.717 48.5396 111.717 47.6486V46.8542C111.717 45.9562 112.443 45.2309 113.343 45.2309V45.2378Z" fill="#F4F4F4"/>
<path d="M389.83 30.9874C389.83 28.5076 387.817 26.4975 385.334 26.4975H291.276V186.498C293.213 192.535 294.721 199.015 295.849 205.756H385.673C387.146 203.249 388.53 200.665 389.83 198.02V30.9874ZM370.718 34.3514H382.491C383.446 34.3514 384.22 35.1251 384.22 36.0783C384.22 37.0316 383.446 37.8052 382.491 37.8052H370.718C369.764 37.8052 368.989 37.0316 368.989 36.0783C368.989 35.1251 369.764 34.3514 370.718 34.3514ZM302.676 164.919C302.676 165.872 301.901 166.646 300.946 166.646C299.992 166.646 299.217 165.872 299.217 164.919V72.951C299.217 71.9978 299.992 71.2241 300.946 71.2241C301.901 71.2241 302.676 71.9978 302.676 72.951V164.919Z" fill="#3CBFDD"/>
<path d="M279.255 272.048C278.819 272.124 278.383 272.2 277.954 272.276C278.39 272.2 278.826 272.124 279.255 272.048Z" fill="#3CBFDD"/>
<path d="M284.933 270.964C284.525 271.047 284.11 271.13 283.702 271.213C284.117 271.13 284.525 271.047 284.933 270.964Z" fill="#3CBFDD"/>
<path d="M293.323 269.071C293.012 269.147 292.701 269.223 292.39 269.299C292.701 269.223 293.012 269.154 293.323 269.071Z" fill="#3CBFDD"/>
<path d="M297.564 218.736H332.785C333.74 218.736 334.514 219.509 334.514 220.463C334.514 221.416 333.74 222.189 332.785 222.189H297.882C299.175 237.621 298.947 253.536 297.951 267.862C334.431 257.936 364.922 238.623 383.563 209.203H296.395C296.858 212.339 297.245 215.524 297.564 218.736Z" fill="#3CBFDD"/>
<path d="M282.104 271.523C281.682 271.606 281.253 271.682 280.832 271.758C281.253 271.682 281.682 271.599 282.104 271.523Z" fill="#3CBFDD"/>
<path d="M239.246 26.4906C236.763 26.4906 234.75 28.5007 234.75 30.9805V97.5766C241.695 107.862 241.211 122.105 234.75 131.956V147.933C245.7 148.113 253.73 148.299 254.733 148.451C259.949 149.238 264.583 150.986 268.706 153.514V120.8H249.608C248.653 120.8 247.879 120.026 247.879 119.073C247.879 118.12 248.653 117.346 249.608 117.346H270.435C271.39 117.346 272.164 118.12 272.164 119.073V155.911C278.805 161.071 283.923 168.483 287.817 177.325V26.4906H239.246Z" fill="#3CBFDD"/>
<path d="M289.547 24.7637C288.592 24.7637 287.817 25.5373 287.817 26.4906V177.318C289.097 180.233 290.252 183.3 291.276 186.491V26.4906C291.276 25.5373 290.501 24.7637 289.547 24.7637Z" fill="#262626"/>
<path d="M270.435 117.346H249.608C248.654 117.346 247.879 118.12 247.879 119.073C247.879 120.026 248.654 120.8 249.608 120.8H268.706V153.514C269.903 154.246 271.058 155.048 272.165 155.911V119.073C272.165 118.12 271.39 117.346 270.435 117.346Z" fill="#262626"/>
<path d="M300.946 71.2242C299.992 71.2242 299.217 71.9978 299.217 72.951V164.919C299.217 165.872 299.992 166.646 300.946 166.646C301.901 166.646 302.675 165.872 302.675 164.919V72.951C302.675 71.9978 301.901 71.2242 300.946 71.2242Z" fill="#262626"/>
<path d="M296.388 209.203H383.556C384.276 208.063 384.981 206.917 385.666 205.749H295.841C296.035 206.896 296.215 208.043 296.381 209.203H296.388Z" fill="#262626"/>
<path d="M332.785 222.189C333.74 222.189 334.515 221.416 334.515 220.463C334.515 219.509 333.74 218.736 332.785 218.736H297.564C297.675 219.882 297.785 221.036 297.882 222.189H332.785Z" fill="#262626"/>
<path d="M370.718 37.8052H382.491C383.445 37.8052 384.22 37.0316 384.22 36.0783C384.22 35.1251 383.445 34.3514 382.491 34.3514H370.718C369.763 34.3514 368.989 35.1251 368.989 36.0783C368.989 37.0316 369.763 37.8052 370.718 37.8052Z" fill="#262626"/>
<path d="M51.9815 79.8655C51.8916 79.8793 51.8086 79.8863 51.7186 79.8863C51.4074 79.8863 51.1099 79.8034 50.854 79.6514L52.2443 90.0473C58.1307 86.9182 63.1317 84.2726 66.1476 82.6769L65.3798 77.8485L51.9815 79.8655Z" fill="#EDD5B7"/>
<path d="M46.9252 52.6911L50.9785 52.477C52.5418 52.3941 53.9667 53.0572 54.9143 54.1555L55.7513 53.9966C56.692 53.817 57.5981 54.4318 57.7711 55.3712C57.9509 56.3107 57.3353 57.2156 56.3946 57.3883L56.0902 57.4435V59.0323C56.9549 58.9839 57.7296 59.5641 57.8956 60.4276C58.0754 61.367 57.4598 62.2719 56.5191 62.4446L55.4539 62.6449C54.5961 64.3787 52.9637 65.6774 50.9509 66.0504L46.7453 66.824L47.8797 74.3326C48.0941 75.7417 48.9588 76.8815 50.1277 77.5101C50.3491 76.9644 50.8402 76.5361 51.4697 76.4463L71.6466 73.4139C71.9302 73.3724 72.1792 73.2204 72.3522 72.9925C72.5251 72.7645 72.5943 72.4813 72.5528 72.1981L66.3828 31.2568C66.2859 30.6283 66.5488 30.0342 67.0053 29.6612C66.0646 28.7356 64.7158 28.2451 63.3047 28.4524L45.77 31.0911C43.3906 31.4503 41.7581 33.6607 42.1109 36.0369L44.7255 53.3611C45.3758 52.9743 46.1228 52.7325 46.9321 52.6911H46.9252Z" fill="#FEBE10"/>
<path d="M42.353 58.0514L43.0171 64.282C43.2384 66.002 44.8639 67.1832 46.5724 66.8655L46.7453 66.8309L50.9509 66.0573C52.9638 65.6843 54.5962 64.3856 55.4539 62.6518L49.7888 63.7294C49.6782 63.7501 49.5675 63.757 49.4637 63.757C48.6475 63.757 47.9282 63.1837 47.7691 62.3548C47.5892 61.4154 48.2048 60.5105 49.1456 60.3378L55.8758 59.0599C55.9519 59.0461 56.028 59.0461 56.1041 59.0392V57.4504L49.6643 58.6731C49.5537 58.6938 49.443 58.7007 49.3392 58.7007C48.523 58.7007 47.8037 58.1274 47.6446 57.2984C47.4647 56.359 48.0803 55.4541 49.0211 55.2814L54.9144 54.1624C53.9667 53.071 52.5418 52.401 50.9786 52.4839L46.9252 52.698C46.1159 52.7394 45.3689 52.9812 44.7187 53.368C43.9024 53.8516 43.2453 54.563 42.8234 55.4127C42.436 56.207 42.2493 57.1119 42.353 58.0514Z" fill="#EDD5B7"/>
<path d="M57.771 55.3712C57.5912 54.4318 56.6851 53.817 55.7513 53.9966L54.9143 54.1555L49.021 55.2745C48.0803 55.4541 47.4646 56.359 47.6445 57.2915C47.8036 58.1205 48.5299 58.6938 49.3392 58.6938C49.4498 58.6938 49.5536 58.6869 49.6643 58.6662L56.0902 57.4435L56.3945 57.3883C57.3353 57.2087 57.9509 56.3038 57.771 55.3712Z" fill="#DCB282"/>
<path d="M57.8955 60.4276C57.7295 59.5641 56.9548 58.9908 56.104 59.0323C56.0279 59.0323 55.9519 59.0323 55.8758 59.053L49.1455 60.3309C48.2048 60.5105 47.5892 61.4154 47.769 62.3479C47.9281 63.1768 48.6544 63.7501 49.4637 63.7501C49.5744 63.7501 49.6781 63.7432 49.7888 63.7225L55.4538 62.6449L56.519 62.4446C57.4598 62.265 58.0754 61.3601 57.8955 60.4276Z" fill="#DCB282"/>
<path d="M66.3688 31.2499L72.5388 72.1912C72.5803 72.4744 72.5111 72.7576 72.3382 72.9856C72.1653 73.2135 71.9163 73.3655 71.6327 73.4069L51.4557 76.4394C50.8262 76.5361 50.3351 76.9574 50.1138 77.5031C50.0031 77.7794 49.9547 78.0834 50.0031 78.4011C50.0861 78.9399 50.4043 79.382 50.847 79.6376C51.1029 79.7896 51.4004 79.8724 51.7116 79.8724C51.7946 79.8724 51.8845 79.8724 51.9745 79.8517L65.3728 77.8347L72.1514 76.8124C73.3481 76.6328 74.4064 75.9973 75.1188 75.0233C75.8313 74.0493 76.1357 72.8543 75.9558 71.6593L70.1386 33.0666L69.7858 30.7181C69.6406 29.7717 68.7621 29.1224 67.8214 29.2675C67.5032 29.3158 67.2265 29.454 66.9913 29.6405C66.5348 30.0135 66.272 30.6075 66.3688 31.2361V31.2499Z" fill="#262626"/>
<path d="M195.621 140.127L197.108 132.653L197.481 130.761L197.55 130.408C195.192 129.345 193.186 127.756 191.83 125.649C187.479 118.852 192.958 112.103 193.476 105.479C193.58 104.146 193.801 102.916 194.106 101.79L192.743 101.459C184.249 115.889 163.844 114.832 163.844 114.832C166.32 119.874 168.935 124.164 171.646 127.797C172.103 128.405 172.324 129.821 173.016 129.566C184.374 125.428 174.814 131.728 175.72 132.709C178.764 135.99 181.883 138.511 185.017 140.417C185.39 140.238 185.805 140.134 186.241 140.134H195.621V140.127Z" fill="#262626"/>
<path d="M204.474 113.809L193.594 111.875C192.978 119.743 202.378 119.087 204.474 113.809Z" fill="white"/>
<path d="M89.6934 263.656L89.8248 264.346C90.6341 264.098 91.4226 263.87 92.1835 263.656H89.6934Z" fill="#FEBE10"/>
<path d="M89.8248 264.346L91.3465 272.214C95.1647 275.412 100.297 276.041 102.414 276.158L99.8683 261.701C99.8683 261.701 96.5135 262.426 92.1766 263.656C91.4157 263.87 90.6272 264.105 89.8179 264.346H89.8248Z" fill="#EDD5B7"/>
<path d="M92.2662 276.96C96.4372 279.177 100.843 279.578 102.829 279.633H102.856C102.905 279.633 102.953 279.633 103.001 279.633C103.008 279.633 103.015 279.633 103.022 279.633L102.407 276.152C100.29 276.034 95.1576 275.406 91.3394 272.207L92.2593 276.953L92.2662 276.96Z" fill="#DCB282"/>
<path d="M103.029 279.64C103.029 279.64 103.015 279.64 103.008 279.64C102.96 279.64 102.912 279.64 102.863 279.64H102.835C100.843 279.585 96.4441 279.184 92.2732 276.967L94.5696 288.806L98.5884 284.303C99.2248 283.591 100.318 283.529 101.03 284.157C101.743 284.793 101.805 285.884 101.175 286.596L94.8325 293.711C94.5005 294.084 94.0301 294.291 93.539 294.291C93.3868 294.291 93.2347 294.27 93.0825 294.229C92.4461 294.056 91.9688 293.538 91.8443 292.889L91.7613 292.447L79.8156 230.824C79.7879 230.679 79.7879 230.527 79.7949 230.382L47.852 228.323L0 225.243L12.0287 287.307V295.583L93.5321 301.461L104.447 287.687L103.029 279.64Z" fill="#FEBE10"/>
<path d="M141.239 259.124C141.294 260.043 142.055 260.741 142.961 260.741C142.996 260.741 143.03 260.741 143.072 260.741L193.995 257.57L241.031 205.646C241.674 204.941 241.619 203.85 240.906 203.207C240.201 202.565 239.101 202.62 238.465 203.332L192.37 254.213L142.851 257.301C142.781 257.301 142.719 257.321 142.657 257.335C141.799 257.487 141.177 258.247 141.232 259.138L141.239 259.124Z" fill="#608E20"/>
<path d="M79.802 230.817L91.7477 292.44L91.8307 292.882C91.9552 293.524 92.4394 294.042 93.0689 294.222C93.2211 294.263 93.3732 294.284 93.5254 294.284C94.0096 294.284 94.4869 294.077 94.8189 293.704L101.162 286.589C101.798 285.877 101.736 284.786 101.017 284.151C100.304 283.515 99.2112 283.577 98.5748 284.296L94.556 288.799L92.2596 276.96L91.3396 272.214L89.8179 264.346L89.6865 263.656L84.8307 238.616L83.7032 232.8L83.1914 230.161C83.0115 229.228 82.1054 228.614 81.1647 228.793C80.3761 228.945 79.8228 229.615 79.7744 230.375C79.7674 230.52 79.7674 230.665 79.7951 230.817H79.802Z" fill="#262626"/>
<path d="M234.743 97.5835C230.24 90.9177 222.618 85.9166 211.46 84.8666C192.024 83.0361 190.841 100.989 190.841 100.989L192.743 101.452L194.106 101.783L216.551 107.282C216.551 107.282 218.53 108.18 218.903 111.917C219.616 111.516 220.425 111.143 221.393 110.853C227.086 109.14 229.438 113.16 229.887 116.013C229.97 116.552 229.991 117.042 229.95 117.457C229.936 117.588 229.915 117.705 229.894 117.83C229.037 123.515 221.684 125.096 216.946 123.998C216.088 127.707 215.804 128.903 215.804 128.909L213.148 140.12H219.602C220.771 140.12 221.815 140.839 222.244 141.923C227.57 140.058 231.783 136.466 234.743 131.956C241.204 122.105 241.688 107.855 234.743 97.5766V97.5835Z" fill="#262626"/>
<path d="M229.895 116.02C229.445 113.167 227.093 109.147 221.4 110.86C220.439 111.15 219.623 111.516 218.91 111.924C218.537 108.187 216.558 107.289 216.558 107.289L194.113 101.79C193.801 102.916 193.587 104.139 193.483 105.479C192.965 112.103 187.479 118.852 191.837 125.649C193.186 127.756 195.192 129.351 197.557 130.408L197.488 130.761C198.18 130.968 198.955 131.141 199.778 131.223C200.719 131.32 201.728 131.306 202.745 131.092C203.513 130.933 204.267 131.306 204.62 131.963C204.696 132.108 204.765 132.253 204.8 132.418C205 133.351 204.405 134.27 203.471 134.47C202.572 134.663 201.694 134.739 200.85 134.739C199.377 134.739 198.007 134.498 196.817 134.166L197.115 132.66L195.628 140.134H213.162L215.818 128.923C215.818 128.909 216.102 127.714 216.96 124.012C221.698 125.11 229.051 123.528 229.908 117.843C229.929 117.719 229.95 117.595 229.964 117.47C230.005 117.063 229.984 116.566 229.901 116.027L229.895 116.02ZM193.587 111.868L204.468 113.803C202.372 119.08 192.965 119.736 193.587 111.868Z" fill="#EDD5B7"/>
<path d="M111.717 47.6486C111.717 48.5396 112.443 49.2649 113.335 49.2649H114.228C118.738 49.2649 122.397 52.919 122.397 57.4228V61.8851C122.397 62.7831 123.123 63.5084 124.022 63.5084H124.818C125.717 63.5084 126.443 62.7831 126.443 61.8851V57.4228C126.443 52.919 130.102 49.2649 134.612 49.2649C135.504 49.2649 136.231 48.5396 136.238 47.6486V46.8542C136.238 45.9562 135.518 45.2309 134.619 45.2309C130.109 45.2309 126.45 41.5768 126.45 37.073V32.6176C126.45 31.7197 125.724 30.9944 124.825 30.9944H124.029C123.13 30.9944 122.404 31.7197 122.404 32.6176V37.0799C122.404 41.5837 118.744 45.2378 114.235 45.2378H113.342C112.443 45.2378 111.717 45.9631 111.717 46.8611V47.6555V47.6486Z" fill="white"/>
<path d="M199.017 53.9276C201.653 53.9276 203.79 51.7936 203.79 49.1613C203.79 46.529 201.653 44.3951 199.017 44.3951C196.381 44.3951 194.244 46.529 194.244 49.1613C194.244 51.7936 196.381 53.9276 199.017 53.9276Z" fill="white"/>
<path d="M116.338 134.228C117.656 134.228 118.724 133.161 118.724 131.845C118.724 130.529 117.656 129.462 116.338 129.462C115.02 129.462 113.951 130.529 113.951 131.845C113.951 133.161 115.02 134.228 116.338 134.228Z" fill="white"/>
<path d="M297.882 222.189C297.785 221.036 297.674 219.882 297.564 218.736C297.246 215.524 296.858 212.339 296.395 209.203C296.222 208.043 296.042 206.896 295.855 205.749C294.728 199.008 293.22 192.528 291.283 186.491C290.259 183.293 289.104 180.226 287.825 177.318C283.93 168.476 278.812 161.071 272.171 155.904C271.065 155.041 269.909 154.24 268.713 153.507C264.59 150.979 259.956 149.238 254.74 148.444C253.737 148.292 245.707 148.112 234.757 147.926C232.08 147.885 229.23 147.836 226.263 147.795C226.263 148.195 226.125 148.589 225.841 148.914C225.668 149.107 223.143 151.863 216.309 154.074C211.647 155.58 204.972 156.83 195.683 156.83C194.728 156.83 193.954 156.056 193.954 155.103C193.954 154.15 194.728 153.376 195.683 153.376C206.958 153.376 213.958 151.456 217.838 149.839C221.774 148.202 223.226 146.641 223.24 146.627C223.427 146.413 223.662 146.261 223.911 146.165L222.251 141.916C221.829 140.832 220.778 140.114 219.609 140.114H186.248C185.812 140.114 185.397 140.217 185.024 140.397C184.346 140.721 183.806 141.309 183.557 142.061L181.849 147.242C171.494 147.132 163.788 147.063 162.211 147.063C140.478 147.063 97.8691 160.567 89.0291 163.447C89.0429 163.496 89.0706 163.544 89.0775 163.599L92.37 177.933C92.5844 178.865 92.0034 179.791 91.0696 180.005C90.9382 180.032 90.8068 180.046 90.6823 180.046C89.8937 180.046 89.1813 179.507 89.0014 178.706L85.7089 164.373C85.4945 163.44 86.0755 162.515 87.0093 162.301H87.0232C84.45 150.565 69.2118 81.0536 69.2118 81.0398C69.2118 81.0398 68.0843 81.6339 66.1406 82.6631C63.1248 84.2588 58.1307 86.9044 52.2374 90.0335C38.9705 97.0792 21.1938 106.543 11.4615 111.855C7.10379 114.231 4.35081 115.778 4.34389 115.902C3.54844 119.19 11.8074 206.053 47.8313 228.31L79.7741 230.368C79.8225 229.601 80.3759 228.938 81.1644 228.786C82.1051 228.607 83.0113 229.214 83.1911 230.154L83.703 232.793C108.846 229.56 135.913 219.171 135.913 219.171L142.664 257.321C142.726 257.308 142.788 257.294 142.857 257.287L192.376 254.199L238.472 203.318C239.108 202.613 240.208 202.558 240.913 203.194C241.619 203.836 241.674 204.927 241.038 205.632L194.002 257.556L143.079 260.727C143.044 260.727 143.003 260.727 142.968 260.727C142.062 260.727 141.301 260.022 141.246 259.111L134.931 259.504L99.875 261.687L102.42 276.145L103.036 279.626L104.454 287.673L113.668 339.978C113.668 339.978 210.637 347.818 242.525 319.732C250.639 312.582 265.725 295.196 277.241 272.387C277.484 272.345 277.719 272.304 277.954 272.263C278.39 272.187 278.825 272.111 279.254 272.035C279.78 271.938 280.306 271.841 280.831 271.744C281.253 271.669 281.682 271.586 282.104 271.51C282.637 271.406 283.169 271.302 283.702 271.199C284.117 271.116 284.525 271.033 284.933 270.95C285.473 270.84 286.019 270.722 286.559 270.612C286.953 270.529 287.354 270.446 287.748 270.356C288.316 270.232 288.876 270.107 289.436 269.976C289.803 269.893 290.169 269.81 290.536 269.727C291.152 269.582 291.767 269.437 292.376 269.285C292.687 269.209 292.998 269.14 293.31 269.057C294.866 268.671 296.402 268.27 297.937 267.856C298.94 253.529 299.162 237.621 297.868 222.183L297.882 222.189Z" fill="#95C14F"/>
<path d="M225.675 146.482C225.17 146.04 224.492 145.95 223.904 146.178C223.655 146.275 223.42 146.427 223.233 146.641C223.22 146.655 221.767 148.223 217.831 149.853C213.944 151.463 206.951 153.39 195.676 153.39C194.721 153.39 193.947 154.164 193.947 155.117C193.947 156.07 194.721 156.844 195.676 156.844C204.966 156.844 211.641 155.593 216.303 154.088C223.13 151.877 225.661 149.121 225.834 148.928C226.118 148.603 226.256 148.209 226.256 147.809C226.256 147.325 226.069 146.835 225.682 146.489L225.675 146.482Z" fill="#608E20"/>
<path d="M87.0233 162.315H87.0095C86.0757 162.529 85.4946 163.454 85.7091 164.387L89.0016 178.72C89.1883 179.521 89.8939 180.06 90.6824 180.06C90.8069 180.06 90.9383 180.046 91.0698 180.019C92.0036 179.805 92.5846 178.879 92.3701 177.946L89.0776 163.613C89.0638 163.558 89.0431 163.51 89.0292 163.461C88.7525 162.632 87.8948 162.121 87.0233 162.315Z" fill="#608E20"/>
<path d="M200.836 134.739C201.687 134.739 202.565 134.657 203.457 134.47C204.391 134.27 204.986 133.351 204.785 132.418C204.751 132.253 204.682 132.101 204.606 131.963C204.246 131.306 203.499 130.933 202.731 131.092C201.707 131.313 200.704 131.327 199.764 131.223C198.941 131.141 198.159 130.968 197.474 130.761L197.101 132.653L196.803 134.159C197.993 134.491 199.363 134.733 200.836 134.733V134.739Z" fill="#DCB282"/>
</g>
<defs>
<clipPath id="clip0_412_539">
<rect width="403" height="341" fill="white"/>
</clipPath>
</defs>
</svg>
