<svg width="481" height="420" viewBox="0 0 481 420" fill="none" xmlns="http://www.w3.org/2000/svg">
<g clip-path="url(#clip0_412_297)">
<path d="M438.117 198.448C440.663 205.157 439.644 213.227 437.197 221.076C436.302 223.955 435.53 225.57 433.214 226.472L437.476 234.584C438.692 234.387 439.743 234.247 440.613 234.141C441.467 233.977 442.428 233.878 443.561 233.878C446.518 233.878 449.31 234.567 451.921 235.789C451.913 226.981 451.404 218.107 450.41 209.225C447.167 200.138 442.904 198.219 439.382 196.89C439.365 197.153 439.291 197.407 439.152 197.645C438.914 198.055 438.528 198.325 438.109 198.44L438.117 198.448Z" fill="#F4F4F4"/>
<path d="M212.082 308.388L211.894 308.806C209.668 313.727 209.635 319.287 211.77 324.208H215.564V308.388H212.082Z" fill="#F4F4F4"/>
<path d="M78.8349 156.884C81.3067 156.884 93.4111 156.9 105.097 156.925H108.661L106.583 148.248C106.542 148.256 106.493 148.264 106.452 148.272C99.1267 150.864 89.9703 147.977 88.2622 141.834C84.263 127.416 84.3944 119.043 89.8471 112.892C88.6071 113.048 87.3589 113.22 86.0943 113.417C83.5403 122.332 81.6023 131.755 80.3623 141.695C79.73 146.763 79.2208 151.824 78.8267 156.884H78.8349Z" fill="#F4F4F4"/>
<path d="M338.432 285.809C342.669 280.839 347.03 275.656 351.579 270.579L348.557 268.463L294.892 277.058L298.078 281.43L308.861 278.723L318.272 288.819C320.883 286.137 324.036 284.497 327.576 284.161C331.304 283.808 334.975 284.399 338.432 285.809Z" fill="#F4F4F4"/>
<path d="M336.009 288.639C333.965 287.933 331.846 287.556 329.694 287.556C329.095 287.556 328.495 287.589 327.896 287.638C325.186 287.892 322.739 289.229 320.669 291.411L327.239 298.464C330.113 295.413 333.028 292.092 336.001 288.639H336.009Z" fill="#F4F4F4"/>
<path d="M240.159 331.417V303.213C238.139 304.631 235.076 305.944 230.551 305.944C225.312 305.944 221.477 304.197 219.054 302.598V331.417H240.151H240.159Z" fill="#F4F4F4"/>
<path d="M411.461 356.038C411.198 356.144 410.935 356.259 410.673 356.366C409.843 356.702 409.022 357.03 408.184 357.35C408.135 357.366 408.086 357.391 408.036 357.407C407.141 357.752 406.238 358.08 405.327 358.408C405.129 358.482 404.932 358.547 404.735 358.613C404.037 358.859 403.339 359.097 402.641 359.326C402.354 359.417 402.066 359.515 401.779 359.605C401.163 359.802 400.547 359.999 399.931 360.187C399.619 360.286 399.307 360.376 398.995 360.466C398.396 360.647 397.788 360.819 397.188 360.991C396.876 361.081 396.564 361.163 396.252 361.254C395.628 361.426 395.004 361.59 394.372 361.746C394.084 361.82 393.797 361.893 393.51 361.967C392.795 362.148 392.072 362.312 391.358 362.476C391.161 362.517 390.972 362.566 390.775 362.615C388.919 363.025 387.063 363.394 385.199 363.722C384.969 363.763 384.739 363.796 384.501 363.837C383.811 363.952 383.121 364.067 382.423 364.173C382.128 364.214 381.832 364.255 381.536 364.305C380.904 364.395 380.264 364.485 379.631 364.559C379.319 364.6 379.007 364.633 378.695 364.674C378.063 364.747 377.43 364.813 376.798 364.879C376.494 364.911 376.19 364.944 375.887 364.969C375.221 365.035 374.548 365.084 373.883 365.141C373.62 365.158 373.357 365.182 373.095 365.199C372.273 365.256 371.46 365.305 370.639 365.346C370.532 365.346 370.417 365.363 370.311 365.363C369.358 365.404 368.405 365.436 367.461 365.461C367.33 365.461 367.207 365.461 367.075 365.461C366.402 365.469 365.728 365.486 365.047 365.486C364.94 365.486 364.833 365.486 364.718 365.486C364.209 365.486 363.7 365.469 363.191 365.461C362.698 365.461 362.205 365.453 361.713 365.436C361.171 365.42 360.629 365.395 360.079 365.371C359.619 365.354 359.167 365.338 358.707 365.313C358.075 365.281 357.451 365.231 356.827 365.182C356.457 365.158 356.079 365.133 355.71 365.1C354.708 365.018 353.706 364.92 352.712 364.813C351.727 364.706 350.758 364.567 349.805 364.403C349.493 364.354 349.189 364.288 348.886 364.231C348.253 364.116 347.621 363.993 347.005 363.854C346.898 363.829 346.783 363.812 346.677 363.788C346.069 364.78 345.445 365.781 344.788 366.79C339.737 374.507 332.733 381.003 323.962 386.096C308.08 395.314 287.288 400.071 266.257 400.071C251.081 400.071 235.782 397.594 222.101 392.525C195.675 382.733 177.149 364.46 168.542 339.684C168.23 338.774 168.707 337.781 169.618 337.462C170.53 337.142 171.523 337.626 171.844 338.536C182.273 368.553 205.595 382.684 223.316 389.253C255.031 400.997 295.697 398.463 322.205 383.077C330.499 378.263 337.11 372.145 341.856 364.879C342.3 364.206 342.727 363.525 343.162 362.828C343.031 362.787 342.899 362.738 342.768 362.689C342.464 362.59 342.168 362.484 341.873 362.385C341.421 362.23 340.969 362.066 340.526 361.893C340.247 361.787 339.967 361.672 339.688 361.565C333.209 363.821 326.294 365.141 318.986 365.141C283.568 365.166 254.711 318.516 250.49 293.404L279.1 286.219L276.801 279.986L260.5 282.594C260.41 282.611 260.319 282.619 260.221 282.619C259.663 282.619 259.129 282.348 258.8 281.889L239.987 255.587C239.428 254.8 239.609 253.717 240.389 253.152C241.169 252.594 242.261 252.774 242.828 253.553L243.427 254.39L267.3 252.282C267.374 252.085 267.48 251.897 267.628 251.724C268.269 251.003 269.369 250.937 270.092 251.577C270.116 251.601 270.281 251.749 270.527 251.995L270.979 251.954C271.053 251.585 271.241 251.232 271.553 250.97C272.284 250.347 273.393 250.437 274.017 251.167C274.042 251.2 274.198 251.372 274.419 251.651L323.929 247.288C324.176 246.541 324.882 246.033 325.736 246.123C325.777 246.123 326.073 246.156 326.524 246.238L326.672 246.107C326.451 245.787 326.327 245.393 326.368 244.967C326.451 244.007 327.313 243.31 328.265 243.384C328.421 243.4 331.928 243.736 334.753 245.705C335.287 245.877 335.812 246.041 336.313 246.197L353.55 244.679L366.673 255.284C381.093 242.424 397.583 233.362 417.579 235.961L411.231 224.299C408.546 224.611 405.392 224.447 401.763 223.873C399.907 223.586 398.831 221.601 398.231 219.37C398.026 219.362 397.821 219.354 397.607 219.329C396.655 219.198 395.99 218.312 396.121 217.361C396.236 216.565 396.876 215.967 397.64 215.876C397.583 215.13 397.558 214.457 397.566 213.908C396.039 213.826 394.487 213.506 394.651 212.448L396.08 203.123L393.321 202.344C393.321 202.344 395.242 177.765 420.872 184.785C424.838 185.868 428.049 187.344 430.619 189.107C430.775 188.722 431.071 188.385 431.473 188.197C431.966 187.959 432.508 187.983 432.968 188.197C433.584 184.014 437.871 181.644 441.615 184.244C443.562 185.597 445.22 187.04 447.158 188.221C446.386 184.309 445.524 180.405 444.563 176.526C443.906 175.862 443.241 175.198 442.56 174.55C429.158 161.756 406.731 147.641 374.86 151.004C373.357 151.159 371.83 151.348 370.286 151.586C345.535 155.408 326.122 163.855 309.797 174.812C306.413 177.084 303.17 179.462 300.033 181.931L337.307 182.538V235.174C338.202 235.174 338.998 235.879 339.048 236.806C339.105 237.766 338.374 238.594 337.414 238.651L264.992 243.031C264.992 243.031 264.926 243.031 264.885 243.031C264.45 243.031 264.023 242.867 263.703 242.572C263.358 242.252 263.153 241.801 263.136 241.333L262.594 219.017C260.829 221.027 259.079 223.036 257.33 225.045C236.094 249.428 214.332 274.401 180.047 288.819C178.553 289.443 177.042 290.049 175.506 290.64C173.971 291.222 172.402 291.788 170.817 292.338C159.69 296.143 147.306 298.874 133.329 300.227C131.498 300.408 129.683 300.555 127.877 300.695C127.376 300.736 126.875 300.752 126.374 300.793C125.085 300.883 123.787 300.965 122.514 301.031C121.898 301.064 121.299 301.08 120.691 301.105C119.542 301.154 118.384 301.203 117.25 301.236C116.593 301.252 115.953 301.252 115.304 301.269C114.22 301.285 113.144 301.31 112.077 301.31C111.978 301.31 111.88 301.31 111.789 301.31C110.549 301.31 109.318 301.294 108.086 301.269C107.692 301.269 107.289 301.253 106.895 301.244C105.548 301.211 104.21 301.162 102.879 301.105C102.822 301.105 102.765 301.105 102.707 301.105C142.461 389.958 227.332 445.802 337.504 408.092C370.105 396.938 395.316 378.37 413.678 355.135C413.555 355.193 413.432 355.242 413.3 355.291C412.693 355.554 412.077 355.816 411.469 356.07L411.461 356.038ZM356.375 202.278C356.038 202.795 355.48 203.074 354.905 203.074C354.577 203.074 354.248 202.984 353.952 202.795L350.774 200.737C349.97 200.212 349.731 199.129 350.257 198.325C350.783 197.522 351.867 197.284 352.671 197.809L355.849 199.867C356.654 200.392 356.892 201.475 356.367 202.278H356.375ZM357.286 187.122C358.264 187.049 359.093 187.746 359.183 188.705C359.266 189.665 358.559 190.509 357.599 190.6L353.55 190.961C353.501 190.961 353.443 190.961 353.394 190.961C352.499 190.961 351.735 190.28 351.653 189.369C351.571 188.41 352.277 187.565 353.238 187.475L357.286 187.114V187.122ZM345.625 177.953L349.436 174.287C350.126 173.623 351.234 173.639 351.908 174.336C352.573 175.034 352.556 176.133 351.858 176.805L348.048 180.471C347.711 180.799 347.276 180.963 346.833 180.963C346.389 180.963 345.921 180.783 345.576 180.43C344.911 179.733 344.927 178.634 345.625 177.961V177.953ZM337.496 174.418C337.266 174.418 337.028 174.369 336.806 174.271C335.919 173.885 335.508 172.86 335.894 171.974L337.397 168.505C337.775 167.619 338.81 167.209 339.696 167.595C340.583 167.98 340.994 169.006 340.608 169.891L339.105 173.36C338.818 174.017 338.177 174.41 337.504 174.41L337.496 174.418ZM208.707 307.371L209.364 305.919C209.643 305.296 210.267 304.894 210.957 304.894H215.564V298.866C215.564 298.866 215.564 298.817 215.564 298.792C215.564 298.735 215.572 298.677 215.581 298.62C215.589 298.562 215.597 298.505 215.613 298.456C215.63 298.407 215.646 298.349 215.663 298.3C215.679 298.243 215.704 298.193 215.728 298.136C215.753 298.087 215.778 298.038 215.802 297.997C215.835 297.947 215.86 297.898 215.901 297.849C215.934 297.808 215.967 297.767 215.999 297.726C216.041 297.677 216.082 297.636 216.131 297.586C216.147 297.57 216.164 297.554 216.18 297.537C216.205 297.521 216.229 297.504 216.254 297.488C216.303 297.447 216.353 297.414 216.41 297.381C216.459 297.349 216.509 297.324 216.558 297.299C216.607 297.275 216.656 297.258 216.706 297.234C216.763 297.209 216.821 297.193 216.886 297.176C216.936 297.168 216.985 297.152 217.034 297.144C217.1 297.135 217.166 297.127 217.239 297.127C217.264 297.127 217.289 297.127 217.313 297.127H241.908C242.557 297.127 243.115 297.48 243.419 298.005C243.419 298.005 243.419 298.021 243.436 298.029C243.485 298.111 243.526 298.202 243.559 298.292C243.567 298.316 243.575 298.341 243.583 298.357C243.608 298.431 243.625 298.513 243.641 298.595C243.641 298.636 243.649 298.685 243.657 298.726C243.657 298.776 243.674 298.817 243.674 298.866V333.156C243.674 334.124 242.894 334.903 241.925 334.903H217.33C216.369 334.903 215.581 334.124 215.581 333.156V327.694H210.67C210.005 327.694 209.405 327.316 209.11 326.734C206.055 320.641 205.915 313.579 208.724 307.371H208.707Z" fill="#F4F4F4"/>
<path d="M205.587 136.249C191.462 128.655 174.422 122.044 156.192 117.599C156.142 118.157 156.093 118.723 156.052 119.281C156.052 119.371 156.036 119.461 156.027 119.559C155.978 120.339 155.929 121.126 155.896 121.921C155.888 122.135 155.88 122.348 155.871 122.561C155.855 123.143 155.839 123.718 155.822 124.308C155.822 124.571 155.822 124.841 155.814 125.112C155.814 125.669 155.814 126.227 155.814 126.785C155.814 127.039 155.814 127.285 155.822 127.539C155.839 128.261 155.855 128.975 155.888 129.705C155.888 129.787 155.888 129.869 155.888 129.951C155.921 130.746 155.97 131.55 156.027 132.354C156.044 132.6 156.069 132.854 156.085 133.1C156.126 133.666 156.175 134.232 156.225 134.798C156.249 135.093 156.282 135.38 156.315 135.675C156.372 136.225 156.43 136.774 156.496 137.324C156.528 137.594 156.561 137.873 156.594 138.144C156.684 138.874 156.791 139.604 156.898 140.334C156.914 140.424 156.923 140.506 156.931 140.596C157.054 141.4 157.185 142.212 157.333 143.024C157.382 143.294 157.432 143.565 157.481 143.836C157.588 144.393 157.695 144.959 157.801 145.517C157.859 145.812 157.924 146.115 157.99 146.419C158.105 146.985 158.236 147.551 158.36 148.117C158.417 148.387 158.483 148.65 158.54 148.92C158.737 149.74 158.935 150.569 159.148 151.389C159.649 153.316 160.199 155.211 160.799 157.081C183.127 157.105 205.685 157.105 205.685 157.105C205.685 157.105 205.628 147.92 205.562 136.282L205.587 136.249Z" fill="#F4F4F4"/>
<path d="M384.83 327.776C384.567 327.776 384.312 327.702 384.074 327.579C375.567 338.109 364.275 349.304 350.594 356.702C349.945 357.989 349.272 359.277 348.541 360.581C348.984 360.671 349.444 360.762 349.896 360.835C350.159 360.885 350.422 360.942 350.693 360.983C351.489 361.114 352.286 361.221 353.107 361.311C371.51 363.345 390.43 360.598 408.061 353.643C399.529 344.867 391.958 335.969 385.832 327.431C385.536 327.644 385.183 327.767 384.822 327.767L384.83 327.776Z" fill="#F4F4F4"/>
<path d="M155.165 149.658C155.099 149.38 155.042 149.101 154.976 148.83C154.845 148.24 154.713 147.649 154.59 147.067C154.524 146.755 154.459 146.444 154.401 146.132C154.286 145.558 154.18 144.984 154.073 144.41C154.015 144.114 153.966 143.819 153.909 143.532C153.785 142.81 153.662 142.089 153.555 141.375C153.531 141.244 153.506 141.104 153.49 140.973C153.367 140.137 153.252 139.3 153.145 138.464C153.112 138.177 153.079 137.89 153.046 137.611C152.981 137.045 152.915 136.479 152.857 135.913C152.825 135.585 152.792 135.265 152.767 134.945C152.718 134.404 152.677 133.854 152.636 133.313C152.611 133.002 152.586 132.698 152.57 132.386C152.529 131.739 152.488 131.091 152.463 130.443C152.455 130.254 152.439 130.065 152.43 129.877C152.398 129.057 152.373 128.237 152.365 127.416C152.365 127.154 152.365 126.891 152.365 126.637C152.365 126.063 152.365 125.489 152.365 124.915C152.365 124.612 152.373 124.308 152.381 124.005C152.389 123.455 152.406 122.906 152.43 122.364C152.439 122.077 152.447 121.798 152.463 121.52C152.496 120.863 152.529 120.207 152.57 119.551C152.578 119.395 152.586 119.24 152.595 119.076C152.652 118.321 152.71 117.567 152.784 116.82C146.501 115.393 140.088 114.237 133.625 113.384C137.107 119.617 137.608 128.146 128.172 132.452C129.018 135.536 129.33 138.644 127.335 141.761C126.127 143.663 124.321 145.099 122.202 146.058L124.403 156.99H124.411C126.177 156.99 127.515 156.99 128.263 156.999C135.768 157.032 146.313 157.048 157.202 157.064C156.717 155.481 156.249 153.882 155.83 152.258C155.608 151.397 155.395 150.544 155.198 149.683L155.165 149.658Z" fill="#F4F4F4"/>
<path d="M230.551 302.45C233.951 302.45 236.259 301.581 237.778 300.613H222.569C224.507 301.597 227.168 302.45 230.551 302.45Z" fill="#F4F4F4"/>
<path d="M209.414 212.391C209.487 212.415 209.561 212.44 209.627 212.465C209.758 212.506 209.882 212.538 210.013 212.579C210.374 212.686 210.727 212.793 211.089 212.891C211.228 212.932 211.368 212.965 211.499 212.998C211.853 213.096 212.214 213.186 212.567 213.268C212.69 213.301 212.813 213.326 212.937 213.35C213.322 213.44 213.7 213.522 214.086 213.596C214.177 213.613 214.259 213.629 214.349 213.646C214.784 213.728 215.219 213.81 215.655 213.883C215.679 213.883 215.712 213.892 215.737 213.9C227.636 215.794 238.656 212.161 244.585 204.222C244.602 204.206 244.61 204.189 244.627 204.173C244.856 203.861 245.086 203.541 245.3 203.213C245.316 203.197 245.325 203.172 245.341 203.156C245.784 202.475 246.203 201.77 246.573 201.04C246.581 201.024 246.597 201.007 246.606 200.983C247.336 199.556 247.911 198.063 248.33 196.505C240.159 205.92 224.598 210.381 209.414 212.391Z" fill="#F4F4F4"/>
<path d="M344.681 359.589C344.796 359.622 344.903 359.654 345.018 359.687C345.075 359.581 345.141 359.466 345.198 359.359C345.026 359.433 344.854 359.507 344.681 359.589Z" fill="#F4F4F4"/>
<path d="M112.282 106.396C117.448 105.478 120.946 103.731 126.883 106.487C128.197 107.102 129.56 108.151 130.817 109.505C138.208 110.366 145.689 111.637 153.153 113.31C153.194 113.015 153.244 112.728 153.285 112.441C153.359 111.908 153.441 111.366 153.531 110.841C153.597 110.448 153.663 110.062 153.736 109.669C153.827 109.152 153.925 108.635 154.024 108.119C154.098 107.725 154.18 107.339 154.262 106.954C154.369 106.446 154.484 105.937 154.599 105.429C154.689 105.043 154.779 104.666 154.87 104.28C154.993 103.772 155.124 103.263 155.264 102.755C155.362 102.386 155.461 102.017 155.559 101.656C155.707 101.131 155.863 100.614 156.019 100.098C156.126 99.7532 156.225 99.4169 156.331 99.0725C156.512 98.5066 156.701 97.9489 156.89 97.383C156.988 97.0959 157.079 96.8089 157.177 96.5301C157.456 95.7427 157.752 94.9554 158.048 94.1845C158.064 94.1353 158.081 94.0861 158.105 94.0368C158.425 93.2167 158.77 92.3966 159.115 91.5928C159.23 91.3304 159.345 91.0761 159.46 90.8219C159.707 90.2724 159.953 89.7311 160.207 89.1898C160.355 88.8864 160.503 88.5829 160.659 88.2795C160.897 87.7956 161.135 87.3117 161.382 86.836C161.546 86.5162 161.718 86.2045 161.891 85.8847C162.137 85.4336 162.384 84.9743 162.638 84.5315C162.819 84.2116 163.008 83.9 163.188 83.5801C163.443 83.1454 163.706 82.7108 163.977 82.2761C164.174 81.9644 164.363 81.6528 164.56 81.3411C164.839 80.9147 165.118 80.4882 165.397 80.0617C165.595 79.7665 165.8 79.463 166.005 79.1678C166.309 78.7331 166.613 78.3066 166.925 77.8801C167.122 77.6095 167.319 77.3307 167.524 77.06C167.869 76.6007 168.231 76.1415 168.592 75.6904C168.773 75.4689 168.945 75.2393 169.126 75.0179C169.668 74.3536 170.226 73.6893 170.793 73.0413C174.529 68.8094 178.496 65.0286 182.569 61.8219C183.332 61.2232 184.425 61.3544 185.024 62.1089C185.624 62.8635 185.492 63.9624 184.737 64.5611C180.828 67.6367 177.026 71.2699 173.429 75.3459C173.314 75.4772 173.207 75.6084 173.092 75.7396C172.673 76.2235 172.254 76.7156 171.844 77.2158C171.63 77.4783 171.425 77.7489 171.212 78.0114C170.908 78.3968 170.604 78.7741 170.316 79.1678C170.095 79.463 169.881 79.7583 169.668 80.0617C169.397 80.4308 169.126 80.808 168.871 81.1771C168.658 81.4888 168.444 81.8086 168.231 82.1203C167.984 82.4975 167.73 82.8666 167.491 83.252C167.286 83.5801 167.081 83.8999 166.876 84.228C166.637 84.6135 166.407 84.9989 166.178 85.3844C165.98 85.7125 165.792 86.0487 165.603 86.385C165.381 86.7868 165.159 87.1887 164.938 87.5906C164.757 87.9268 164.576 88.2549 164.404 88.5911C164.182 89.0176 163.977 89.4441 163.763 89.8705C163.607 90.1904 163.443 90.5184 163.287 90.8465C163.057 91.3304 162.835 91.8225 162.614 92.3228C162.49 92.6016 162.359 92.8722 162.244 93.1511C161.916 93.9138 161.603 94.6847 161.3 95.4557C161.201 95.7017 161.111 95.9642 161.02 96.2102C160.815 96.7515 160.61 97.301 160.413 97.8505C160.298 98.1785 160.191 98.5148 160.076 98.851C159.912 99.3349 159.756 99.8106 159.6 100.294C159.485 100.647 159.386 101.008 159.28 101.369C159.14 101.836 159 102.312 158.869 102.788C158.77 103.157 158.672 103.526 158.573 103.895C158.45 104.371 158.327 104.846 158.212 105.33C158.122 105.699 158.031 106.076 157.949 106.445C157.834 106.938 157.736 107.43 157.629 107.922C157.555 108.291 157.473 108.652 157.407 109.021C157.309 109.537 157.218 110.054 157.128 110.579C157.07 110.932 157.005 111.276 156.947 111.629C156.857 112.203 156.775 112.785 156.693 113.367C156.66 113.613 156.619 113.86 156.586 114.106C167.344 116.697 178.036 120.109 188.325 124.283C194.419 126.752 200.192 129.418 205.579 132.231C205.464 112.703 205.316 88.7798 205.316 88.7716C205.316 88.6977 209.315 88.5091 215.104 88.2877V84.6627L208.018 84.7283H207.968C205.431 84.7283 203.353 82.6779 203.329 80.1437L202.91 37.3818C202.901 36.4223 203.673 35.6267 204.642 35.6185C205.258 35.6185 205.809 35.9384 206.129 36.4387C207.32 34.9542 209.143 33.9865 211.196 33.9701L225.361 33.8306C228.991 33.7978 231.955 36.7011 231.997 40.3261L232.153 56.3516C233.918 57.0487 235.224 58.7136 235.331 60.7475L235.675 67.2102C235.733 68.9981 234.271 70.4661 232.473 70.4251H232.292L232.35 76.1907C232.366 78.1672 231.504 79.9551 230.124 81.1689V81.4067C230.543 81.7184 230.814 82.2105 230.822 82.7682C230.822 83.3095 230.584 83.7851 230.206 84.105L230.305 87.7546C232.629 87.6808 234.961 87.607 237.228 87.5414C238.468 84.8431 240.11 82.2023 242.262 79.8075C248.962 72.336 259.162 68.8341 272.555 69.4245C286.746 70.0396 294.235 76.7402 300.846 82.6533C307.153 88.2959 312.597 93.1593 322.837 93.1593C349.05 93.1593 355.086 110.62 355.332 111.358C355.505 111.891 355.414 112.474 355.086 112.925C354.757 113.376 354.232 113.646 353.673 113.646H262.332C264.82 135.528 265.222 166.635 252.707 189.829C252.707 195.799 251.024 201.253 247.649 205.944C247.599 206.01 247.55 206.084 247.501 206.149C247.427 206.248 247.369 206.346 247.295 206.437C240.726 215.155 229.016 219.157 216.451 217.517C216.418 217.517 216.386 217.508 216.345 217.5C215.154 217.344 213.955 217.131 212.748 216.877C212.633 216.852 212.518 216.819 212.395 216.795C211.943 216.696 211.491 216.582 211.031 216.467C210.851 216.418 210.67 216.377 210.489 216.327C210.079 216.213 209.66 216.098 209.249 215.975C209.077 215.925 208.904 215.876 208.732 215.819C208.157 215.638 207.582 215.458 207.016 215.253C205.299 214.646 203.608 213.949 201.932 213.178C184.392 214.679 169.191 213.342 169.191 213.342L155.732 293.035C203.008 282.045 228.219 253.119 254.703 222.716C257.281 219.756 259.86 216.795 262.479 213.834L261.691 181.34C261.666 180.381 262.43 179.577 263.391 179.552C264.36 179.569 265.156 180.291 265.181 181.258V181.332L294.547 181.808C313.829 165.873 337.249 153.119 369.769 148.1C396.704 143.942 422.572 151.733 442.913 170.063C425.783 107.389 384.756 49.4706 324.266 19.5029C234.518 -24.9485 119.123 7.08599 87.2358 109.71C89.7487 109.349 92.2369 109.07 94.6759 108.849C100.876 105.084 106.862 107.348 112.291 106.38L112.282 106.396ZM193.556 58.6152L190.009 59.952C189.803 60.0258 189.598 60.0668 189.393 60.0668C188.687 60.0668 188.021 59.6321 187.759 58.935C187.422 58.0329 187.874 57.0241 188.777 56.6878L192.316 55.351C193.211 55.0148 194.221 55.4658 194.566 56.368C194.903 57.2701 194.451 58.2789 193.548 58.6152H193.556ZM201.161 22.849C202.113 22.6604 203.025 23.2837 203.205 24.2268L203.928 27.9421C204.109 28.8852 203.493 29.8038 202.548 29.9842C202.433 30.0088 202.327 30.017 202.212 30.017C201.391 30.017 200.66 29.4347 200.495 28.6064L199.773 24.8911C199.592 23.948 200.208 23.0294 201.152 22.849H201.161ZM188.432 29.6971C189.04 28.9508 190.14 28.836 190.887 29.4429L194.911 32.707C195.659 33.3139 195.774 34.4129 195.166 35.1593C194.821 35.5857 194.32 35.8072 193.811 35.8072C193.425 35.8072 193.039 35.6759 192.71 35.4135L188.687 32.1494C187.939 31.5425 187.824 30.4435 188.432 29.6971ZM185.936 43.7953L191.224 43.9839C192.185 44.0167 192.94 44.8287 192.908 45.7882C192.875 46.7314 192.103 47.4695 191.167 47.4695C191.142 47.4695 191.126 47.4695 191.101 47.4695L185.812 47.2809C184.852 47.2481 184.096 46.4361 184.129 45.4766C184.162 44.5088 185.024 43.7707 185.936 43.7953Z" fill="#F4F4F4"/>
<path d="M355.324 111.366C355.077 110.62 349.042 93.1675 322.829 93.1675C312.581 93.1675 307.136 88.2959 300.837 82.6615C294.227 76.7483 286.737 70.0478 272.547 69.4327C259.145 68.8422 248.954 72.3524 242.253 79.8156C240.102 82.2186 238.459 84.8513 237.219 87.5495C238.566 87.5085 239.896 87.4757 241.186 87.4429C250.399 87.1969 257.766 87.0903 257.774 87.3117C258.078 88.5747 260.27 97.4814 261.913 110.161C262.06 111.292 262.2 112.457 262.34 113.646H353.681C354.24 113.646 354.765 113.376 355.094 112.925C355.422 112.473 355.513 111.891 355.34 111.358L355.324 111.366Z" fill="white"/>
<path d="M52.2774 289.885C51.9325 289.73 51.5876 289.582 51.2427 289.426C51.5794 289.582 51.9325 289.73 52.2774 289.885Z" fill="#333333"/>
<path d="M47.925 287.802C47.613 287.638 47.3091 287.474 46.9971 287.31C47.3091 287.474 47.613 287.646 47.925 287.802Z" fill="#333333"/>
<path d="M67.3626 295.438C66.8124 295.274 66.2704 295.11 65.7202 294.937C66.2622 295.101 66.8124 295.274 67.3626 295.438Z" fill="#333333"/>
<path d="M71.2472 296.504C70.7216 296.364 70.2043 296.225 69.6787 296.077C70.2043 296.217 70.7134 296.364 71.2472 296.504Z" fill="#333333"/>
<path d="M59.8161 292.961C59.2988 292.772 58.7732 292.584 58.2559 292.387C58.7732 292.584 59.2906 292.772 59.8161 292.961Z" fill="#333333"/>
<path d="M26.1307 272.416C25.8761 272.179 25.638 271.924 25.3916 271.678C25.638 271.924 25.8761 272.17 26.1307 272.416Z" fill="#333333"/>
<path d="M23.6421 269.915C23.3382 269.595 23.0426 269.267 22.7388 268.947C23.0344 269.267 23.33 269.595 23.6421 269.915Z" fill="#333333"/>
<path d="M29.1854 275.213C29.0293 275.082 28.8733 274.951 28.7173 274.811C28.8733 274.951 29.0293 275.074 29.1854 275.213Z" fill="#333333"/>
<path d="M38.3993 282.234C37.9887 281.955 37.5781 281.684 37.1675 281.397C37.5781 281.676 37.9887 281.955 38.3993 282.234Z" fill="#333333"/>
<path d="M32.4126 277.887C32.0841 277.624 31.7474 277.37 31.4189 277.108C31.7474 277.37 32.0759 277.633 32.4126 277.887Z" fill="#333333"/>
<path d="M430.357 346.245C430.069 346.426 429.782 346.614 429.486 346.786C429.774 346.606 430.061 346.426 430.357 346.245Z" fill="#333333"/>
<path d="M435.284 342.989C434.972 343.202 434.66 343.424 434.339 343.637C434.651 343.424 434.963 343.211 435.284 342.989Z" fill="#333333"/>
<path d="M21.2606 267.307C20.9486 266.954 20.6448 266.602 20.3491 266.241C20.653 266.602 20.9568 266.954 21.2606 267.307Z" fill="#333333"/>
<path d="M437.649 341.308C437.353 341.521 437.058 341.734 436.754 341.948C437.05 341.734 437.353 341.521 437.649 341.308Z" fill="#333333"/>
<path d="M439.973 339.577C439.727 339.766 439.48 339.947 439.226 340.135C439.472 339.947 439.727 339.766 439.973 339.577Z" fill="#333333"/>
<path d="M89.5022 299.932C88.8616 299.85 88.2211 299.768 87.5806 299.686C88.2211 299.776 88.8616 299.858 89.5022 299.932Z" fill="#333333"/>
<path d="M75.2136 297.472C74.8441 297.39 74.4745 297.291 74.105 297.209C74.4745 297.299 74.8358 297.39 75.2136 297.472Z" fill="#333333"/>
<path d="M80.7401 298.587C80.2227 298.489 79.6971 298.407 79.188 298.3C79.7053 298.398 80.2227 298.489 80.7401 298.587Z" fill="#333333"/>
<path d="M98.3468 300.801C97.6981 300.752 97.0575 300.703 96.417 300.646C97.0575 300.695 97.6981 300.752 98.3468 300.801Z" fill="#333333"/>
<path d="M416.873 353.635C416.553 353.79 416.232 353.938 415.904 354.086C416.224 353.938 416.553 353.782 416.873 353.635Z" fill="#333333"/>
<path d="M442.264 337.79C457.169 325.848 468.386 311.102 474.734 295.512C468.378 311.102 457.169 325.848 442.264 337.79Z" fill="#333333"/>
<path d="M21.0392 148.625C21.8358 149.175 22.0329 150.257 21.4909 151.053C38.1119 126.916 63.1585 116.968 86.1027 113.417C87.3591 113.22 88.6074 113.056 89.8556 112.892C90.8985 111.711 92.1385 110.612 93.5838 109.57C93.9451 109.308 94.3065 109.078 94.6678 108.865C92.2206 109.086 89.7406 109.373 87.2278 109.726C63.0763 113.154 36.3217 123.357 18.6167 149.068C19.1587 148.272 20.2427 148.076 21.0474 148.617L21.0392 148.625Z" fill="#333333"/>
<path d="M474.939 294.995C476.828 290.263 478.282 285.457 479.251 280.626C478.282 285.457 476.836 290.263 474.939 294.995Z" fill="#333333"/>
<path d="M16.7769 261.714C16.5059 261.353 16.235 260.984 15.9722 260.615C16.235 260.984 16.5059 261.345 16.7769 261.714Z" fill="#333333"/>
<path d="M14.6171 258.638C14.4036 258.318 14.1819 258.007 13.9766 257.679C14.1901 257.998 14.4036 258.318 14.6171 258.638Z" fill="#333333"/>
<path d="M208.732 215.835C208.157 215.655 207.582 215.474 207.016 215.269C207.59 215.474 208.165 215.655 208.732 215.835Z" fill="#333333"/>
<path d="M152.537 119.518C152.496 120.175 152.455 120.831 152.431 121.487C152.464 120.831 152.496 120.175 152.537 119.518Z" fill="#333333"/>
<path d="M152.398 122.34C152.381 122.889 152.365 123.431 152.349 123.98C152.357 123.431 152.373 122.881 152.398 122.34Z" fill="#333333"/>
<path d="M156.939 111.637C156.849 112.211 156.767 112.793 156.685 113.376C156.767 112.793 156.849 112.219 156.939 111.637Z" fill="#333333"/>
<path d="M212.394 216.811C211.943 216.713 211.491 216.598 211.031 216.483C211.483 216.598 211.935 216.705 212.394 216.811Z" fill="#333333"/>
<path d="M154.59 147.059C154.714 147.649 154.845 148.231 154.976 148.822C154.845 148.231 154.714 147.641 154.59 147.059Z" fill="#333333"/>
<path d="M152.62 133.289C152.661 133.83 152.702 134.371 152.751 134.921C152.702 134.379 152.661 133.83 152.62 133.289Z" fill="#333333"/>
<path d="M153.547 141.359C153.662 142.08 153.777 142.794 153.9 143.516C153.777 142.794 153.654 142.072 153.547 141.359Z" fill="#333333"/>
<path d="M152.447 130.41C152.48 131.058 152.513 131.706 152.554 132.354C152.513 131.706 152.472 131.058 152.447 130.41Z" fill="#333333"/>
<path d="M152.349 127.392C152.365 128.212 152.381 129.024 152.414 129.852C152.381 129.032 152.357 128.212 152.349 127.392Z" fill="#333333"/>
<path d="M157.399 109.029C157.3 109.546 157.21 110.062 157.12 110.587C157.21 110.07 157.3 109.546 157.399 109.029Z" fill="#333333"/>
<path d="M216.336 217.517C215.145 217.361 213.946 217.147 212.739 216.893C213.946 217.156 215.137 217.361 216.336 217.517Z" fill="#333333"/>
<path d="M157.941 106.454C157.826 106.946 157.727 107.438 157.621 107.93C157.719 107.438 157.826 106.946 157.941 106.454Z" fill="#333333"/>
<path d="M165.594 86.4095C165.373 86.8114 165.151 87.2133 164.929 87.6151C165.143 87.2133 165.364 86.8114 165.594 86.4095Z" fill="#333333"/>
<path d="M169.659 80.0863C169.388 80.4554 169.117 80.8326 168.863 81.2017C169.126 80.8244 169.397 80.4554 169.659 80.0863Z" fill="#333333"/>
<path d="M173.092 75.7642C172.673 76.2481 172.254 76.7402 171.844 77.2404C172.254 76.7402 172.673 76.2563 173.092 75.7642Z" fill="#333333"/>
<path d="M171.212 78.036C170.908 78.4214 170.604 78.7987 170.316 79.1924C170.612 78.8069 170.916 78.4214 171.212 78.036Z" fill="#333333"/>
<path d="M413.292 355.258C413.416 355.201 413.539 355.152 413.67 355.103C413.859 355.021 414.04 354.93 414.229 354.848C413.917 354.988 413.605 355.127 413.292 355.258Z" fill="#333333"/>
<path d="M168.222 82.1448C167.976 82.5221 167.722 82.8912 167.483 83.2766C167.73 82.8994 167.976 82.5221 168.222 82.1448Z" fill="#333333"/>
<path d="M159.271 101.385C159.132 101.853 158.992 102.328 158.861 102.804C158.992 102.328 159.132 101.861 159.271 101.385Z" fill="#333333"/>
<path d="M164.404 88.6157C164.182 89.0422 163.977 89.4687 163.763 89.8951C163.977 89.4687 164.182 89.034 164.404 88.6157Z" fill="#333333"/>
<path d="M158.565 103.903C158.442 104.379 158.319 104.854 158.204 105.338C158.319 104.863 158.442 104.379 158.565 103.903Z" fill="#333333"/>
<path d="M160.076 98.8674C159.912 99.3513 159.756 99.827 159.6 100.311C159.756 99.827 159.912 99.3431 160.076 98.8674Z" fill="#333333"/>
<path d="M163.287 90.8629C163.057 91.3468 162.835 91.8389 162.614 92.3392C162.835 91.8471 163.057 91.355 163.287 90.8629Z" fill="#333333"/>
<path d="M162.244 93.1675C161.916 93.9302 161.604 94.7011 161.3 95.4721C161.604 94.6929 161.916 93.9302 162.244 93.1675Z" fill="#333333"/>
<path d="M215.738 213.908C215.738 213.908 215.68 213.9 215.655 213.892C215.68 213.892 215.713 213.9 215.738 213.908Z" fill="#333333"/>
<path d="M156.036 119.559C156.036 119.469 156.052 119.379 156.06 119.281C156.06 119.371 156.044 119.461 156.036 119.559Z" fill="#333333"/>
<path d="M205.587 136.249C205.587 134.937 205.57 133.6 205.562 132.239C200.183 129.426 194.402 126.76 188.309 124.292C178.019 120.117 167.327 116.705 156.57 114.114C156.422 115.27 156.29 116.435 156.184 117.599C174.414 122.044 191.454 128.655 205.579 136.249H205.587Z" fill="#333333"/>
<path d="M248.33 196.505C247.911 198.063 247.336 199.556 246.605 200.983C247.057 200.171 248.075 199.851 248.921 200.277C249.784 200.712 250.12 201.762 249.685 202.623C249.085 203.796 248.404 204.903 247.648 205.953C251.024 201.261 252.699 195.808 252.707 189.837C252.066 191.026 251.393 192.199 250.679 193.339C249.989 194.454 249.2 195.504 248.33 196.505Z" fill="#333333"/>
<path d="M155.831 125.104C155.831 124.833 155.831 124.571 155.839 124.3C155.839 124.562 155.839 124.833 155.831 125.104Z" fill="#333333"/>
<path d="M155.839 127.531C155.839 127.277 155.839 127.031 155.831 126.777C155.831 127.031 155.831 127.277 155.839 127.531Z" fill="#333333"/>
<path d="M155.88 122.561C155.88 122.348 155.896 122.135 155.905 121.921C155.896 122.135 155.888 122.348 155.88 122.561Z" fill="#333333"/>
<path d="M336.009 288.639C336.814 287.704 337.619 286.769 338.424 285.818C334.966 284.407 331.296 283.816 327.567 284.169C328.528 284.087 329.382 284.784 329.473 285.744C329.563 286.703 328.857 287.556 327.904 287.646C328.504 287.589 329.103 287.564 329.702 287.564C331.854 287.564 333.964 287.942 336.017 288.647L336.009 288.639Z" fill="#333333"/>
<path d="M345.199 359.359C345.141 359.466 345.076 359.581 345.018 359.687C346.16 360.023 347.334 360.327 348.549 360.581C349.28 359.277 349.953 357.981 350.602 356.702C348.845 357.653 347.038 358.547 345.199 359.359Z" fill="#333333"/>
<path d="M173.264 72.9101C173.987 73.5416 174.053 74.6406 173.429 75.3623C177.025 71.2863 180.828 67.6613 184.736 64.5775C185.492 63.9788 185.623 62.8799 185.024 62.1253C184.424 61.3708 183.332 61.2396 182.568 61.8383C178.495 65.045 174.537 68.8258 170.792 73.0578C171.433 72.336 172.533 72.2622 173.256 72.9019L173.264 72.9101Z" fill="#333333"/>
<path d="M101.114 300.974C101.648 301.006 102.165 301.039 102.699 301.064C102.757 301.064 102.814 301.064 102.872 301.064C102.28 301.039 101.697 300.998 101.106 300.965L101.114 300.974Z" fill="#333333"/>
<path d="M152.759 116.796C152.685 117.542 152.628 118.296 152.571 119.051C152.727 116.82 152.973 114.622 153.293 112.449C153.252 112.736 153.203 113.031 153.162 113.318C145.697 111.645 138.216 110.366 130.825 109.513C131.852 110.62 132.804 111.932 133.601 113.359C140.064 114.212 146.469 115.369 152.759 116.796Z" fill="#333333"/>
<path d="M300.041 181.923C303.178 179.454 306.43 177.076 309.805 174.804C306.422 177.076 303.178 179.454 300.041 181.923Z" fill="#333333"/>
<path d="M156.956 140.58C156.939 140.489 156.931 140.407 156.923 140.317C156.939 140.407 156.947 140.489 156.956 140.58Z" fill="#333333"/>
<path d="M156.339 135.659C156.307 135.363 156.282 135.076 156.249 134.781C156.274 135.076 156.307 135.363 156.339 135.659Z" fill="#333333"/>
<path d="M245.333 203.156C245.333 203.156 245.308 203.197 245.292 203.214C245.308 203.197 245.316 203.173 245.333 203.156Z" fill="#333333"/>
<path d="M212.936 213.358C212.813 213.334 212.69 213.301 212.567 213.276C212.69 213.309 212.813 213.334 212.936 213.358Z" fill="#333333"/>
<path d="M221.855 217.886C220.081 217.886 218.274 217.771 216.443 217.533C229.015 219.173 240.717 215.171 247.287 206.453C247.361 206.355 247.427 206.256 247.492 206.166C241.949 213.711 232.489 217.894 221.846 217.894L221.855 217.886Z" fill="#333333"/>
<path d="M244.619 204.173C244.619 204.173 244.594 204.206 244.577 204.223C244.594 204.206 244.602 204.189 244.619 204.173Z" fill="#333333"/>
<path d="M211.499 212.998C211.36 212.957 211.22 212.924 211.089 212.891C211.228 212.932 211.368 212.965 211.499 212.998Z" fill="#333333"/>
<path d="M155.165 149.658C155.37 150.52 155.576 151.373 155.797 152.234C155.576 151.373 155.362 150.52 155.165 149.658Z" fill="#333333"/>
<path d="M158.573 148.888C158.508 148.617 158.45 148.354 158.393 148.084C158.45 148.354 158.516 148.617 158.573 148.888Z" fill="#333333"/>
<path d="M158.015 146.394C157.949 146.091 157.892 145.796 157.826 145.492C157.884 145.787 157.949 146.091 158.015 146.394Z" fill="#333333"/>
<path d="M381.561 364.28C381.857 364.239 382.152 364.198 382.448 364.149C382.152 364.19 381.857 364.231 381.561 364.28Z" fill="#333333"/>
<path d="M378.712 364.649C379.024 364.616 379.336 364.575 379.648 364.534C379.336 364.575 379.024 364.608 378.712 364.649Z" fill="#333333"/>
<path d="M153.531 110.841C153.597 110.448 153.663 110.062 153.737 109.669C153.671 110.062 153.597 110.448 153.531 110.841Z" fill="#333333"/>
<path d="M396.261 361.237C396.573 361.155 396.885 361.065 397.197 360.975C396.885 361.065 396.573 361.147 396.261 361.237Z" fill="#333333"/>
<path d="M108.078 301.236C107.684 301.236 107.281 301.22 106.887 301.211C107.281 301.22 107.676 301.228 108.078 301.236Z" fill="#333333"/>
<path d="M154.024 108.119C154.098 107.725 154.18 107.339 154.262 106.954C154.18 107.339 154.098 107.733 154.024 108.119Z" fill="#333333"/>
<path d="M384.518 363.812C384.748 363.771 384.977 363.739 385.216 363.698C384.986 363.739 384.756 363.771 384.518 363.812Z" fill="#333333"/>
<path d="M390.792 362.599C390.989 362.558 391.177 362.508 391.375 362.459C391.177 362.5 390.989 362.549 390.792 362.599Z" fill="#333333"/>
<path d="M399.012 360.458C399.324 360.368 399.636 360.27 399.948 360.179C399.636 360.278 399.324 360.368 399.012 360.458Z" fill="#333333"/>
<path d="M360.104 365.338C360.646 365.363 361.187 365.387 361.738 365.404C361.196 365.387 360.654 365.363 360.104 365.338Z" fill="#333333"/>
<path d="M156.02 100.098C156.126 99.7532 156.225 99.4169 156.332 99.0725C156.225 99.4087 156.126 99.7532 156.02 100.098Z" fill="#333333"/>
<path d="M155.264 102.755C155.362 102.386 155.461 102.017 155.559 101.656C155.461 102.025 155.362 102.386 155.264 102.755Z" fill="#333333"/>
<path d="M154.599 105.429C154.689 105.043 154.779 104.666 154.87 104.28C154.779 104.658 154.689 105.043 154.599 105.429Z" fill="#333333"/>
<path d="M159.124 91.5928C159.239 91.3304 159.353 91.0761 159.468 90.8219C159.353 91.0761 159.23 91.3304 159.124 91.5928Z" fill="#333333"/>
<path d="M356.843 365.149C357.467 365.199 358.1 365.24 358.724 365.281C358.091 365.248 357.467 365.199 356.843 365.149Z" fill="#333333"/>
<path d="M158.056 94.1845C158.072 94.1352 158.089 94.086 158.113 94.0368C158.097 94.086 158.08 94.1352 158.056 94.1845Z" fill="#333333"/>
<path d="M160.216 89.1898C160.364 88.8864 160.511 88.5829 160.667 88.2795C160.52 88.5829 160.364 88.8864 160.216 89.1898Z" fill="#333333"/>
<path d="M175.506 290.623C173.971 291.206 172.402 291.772 170.817 292.321C172.411 291.78 173.971 291.214 175.506 290.623Z" fill="#333333"/>
<path d="M162.646 84.5396C162.827 84.2198 163.016 83.9081 163.197 83.5883C163.008 83.8999 162.827 84.2198 162.646 84.5396Z" fill="#333333"/>
<path d="M352.729 364.788C353.731 364.895 354.725 364.993 355.726 365.076C354.725 364.993 353.723 364.895 352.729 364.788Z" fill="#333333"/>
<path d="M341.872 364.854C337.126 372.112 330.515 378.239 322.221 383.053C295.713 398.439 255.047 400.981 223.333 389.228C205.611 382.667 182.289 368.536 171.86 338.511C171.548 337.601 170.554 337.117 169.635 337.437C168.723 337.749 168.238 338.749 168.559 339.659C177.173 364.436 195.691 382.708 222.117 392.501C235.798 397.569 251.097 400.046 266.273 400.046C287.304 400.046 308.097 395.289 323.979 386.071C332.749 380.978 339.754 374.491 344.804 366.765C345.461 365.764 346.093 364.764 346.693 363.763C346.8 363.788 346.915 363.804 347.021 363.829C345.56 363.501 344.147 363.115 342.784 362.672C342.915 362.713 343.047 362.763 343.178 362.812C342.751 363.509 342.316 364.19 341.872 364.862V364.854Z" fill="#333333"/>
<path d="M180.056 288.803C178.561 289.426 177.05 290.033 175.515 290.623C177.05 290.041 178.57 289.434 180.056 288.803Z" fill="#333333"/>
<path d="M364.743 365.453C364.234 365.453 363.725 365.436 363.216 365.428C363.725 365.436 364.234 365.445 364.743 365.453Z" fill="#333333"/>
<path d="M165.406 80.0781C165.603 79.7829 165.808 79.4794 166.013 79.1842C165.808 79.4794 165.611 79.7747 165.406 80.0781Z" fill="#333333"/>
<path d="M133.33 300.203C131.498 300.383 129.684 300.531 127.877 300.67C129.684 300.539 131.498 300.383 133.33 300.203Z" fill="#333333"/>
<path d="M163.985 82.2843C164.182 81.9726 164.371 81.661 164.568 81.3493C164.371 81.661 164.174 81.9726 163.985 82.2843Z" fill="#333333"/>
<path d="M340.542 361.869C340.986 362.041 341.438 362.197 341.889 362.361C341.438 362.205 340.986 362.041 340.542 361.869Z" fill="#333333"/>
<path d="M115.296 301.228C114.212 301.244 113.136 301.269 112.069 301.269C113.136 301.269 114.22 301.244 115.296 301.228Z" fill="#333333"/>
<path d="M401.795 359.597C402.083 359.507 402.37 359.417 402.658 359.318C402.37 359.408 402.083 359.507 401.795 359.597Z" fill="#333333"/>
<path d="M120.691 301.072C119.542 301.121 118.384 301.17 117.25 301.203C118.392 301.17 119.542 301.121 120.691 301.072Z" fill="#333333"/>
<path d="M161.39 86.8442C161.554 86.5244 161.727 86.2127 161.899 85.8929C161.727 86.2045 161.554 86.5244 161.39 86.8442Z" fill="#333333"/>
<path d="M230.116 81.4067V81.1689C230.059 81.2099 230.018 81.2591 229.968 81.3001C230.018 81.3329 230.067 81.3657 230.116 81.4067Z" fill="#A47035"/>
<path d="M230.19 84.105C229.886 84.3592 229.508 84.5232 229.081 84.5232L215.088 84.6627V88.2877C219.457 88.1154 224.835 87.9268 230.288 87.7546L230.19 84.105Z" fill="#A47035"/>
<path d="M206.81 80.1191C206.81 80.7424 207.328 81.2509 207.96 81.2509H207.968L229.04 81.0458H229.057C229.385 81.0458 229.697 81.1443 229.96 81.3001C230.009 81.2591 230.059 81.2099 230.108 81.1689C231.487 79.9551 232.35 78.1754 232.333 76.1906L232.276 70.4251L227.858 70.3185C225.731 70.2693 223.834 69.1949 222.676 67.5382L221.584 67.5054C220.623 67.4808 219.859 66.6771 219.892 65.7093C219.917 64.8236 220.574 64.0936 221.461 64.028L221.198 62.3385H220.886C219.925 62.3057 219.161 61.502 219.194 60.5342C219.219 59.5747 220.056 58.7791 220.992 58.8448L221.855 58.8694C222.635 57.5817 223.99 56.6468 225.616 56.4746L229.779 56.0317C230.609 55.9415 231.413 56.0645 232.144 56.3515L231.988 40.3261C231.955 36.7011 228.983 33.7978 225.353 33.8306L211.187 33.97C209.134 33.9864 207.311 34.9542 206.121 36.4386C206.293 36.7011 206.4 37.0127 206.4 37.349L206.819 80.1109L206.81 80.1191Z" fill="#FEBE10"/>
<path d="M201.932 213.194C181.821 203.951 165.2 183.136 157.169 157.04C146.28 157.023 135.736 157.007 128.23 156.974L126.005 174.451L105.097 156.925C93.4112 156.908 81.3067 156.884 78.8349 156.884C78.7528 156.884 78.6871 156.884 78.6214 156.884C34.983 156.884 27.5758 211.882 18.3291 257.867C32.4537 278.223 55.3897 291.124 85.1335 295.799L95.8502 211.078C95.9733 210.127 96.8274 209.455 97.8046 209.569C98.7572 209.692 99.4388 210.562 99.3156 211.521L88.5908 296.307C102.108 298.111 116.971 298.284 132.993 296.733C141.115 295.946 148.67 294.708 155.724 293.059L169.183 213.367C169.183 213.367 184.383 214.695 201.924 213.203L201.932 213.194Z" fill="#3CBFDD"/>
<path d="M205.718 157.073C205.718 157.073 183.16 157.073 160.832 157.048C169.331 183.776 187.11 204.558 208.182 211.981C208.592 212.128 209.003 212.259 209.414 212.391C224.598 210.381 240.159 205.928 248.33 196.505C249.201 195.504 249.989 194.454 250.679 193.339C251.393 192.191 252.067 191.026 252.707 189.837C265.222 166.644 264.82 135.536 262.332 113.654C262.192 112.465 262.052 111.301 261.905 110.169C260.27 97.4896 258.078 88.5747 257.766 87.3199C257.757 87.0903 250.391 87.2051 241.177 87.4511C239.888 87.4839 238.558 87.525 237.211 87.5578C234.936 87.6234 232.604 87.6972 230.288 87.771C224.836 87.9432 219.457 88.1319 215.096 88.3041C209.307 88.5255 205.308 88.7224 205.308 88.788C205.308 88.7962 205.455 112.72 205.57 132.247C205.579 133.608 205.587 134.945 205.595 136.257C205.669 147.887 205.718 157.081 205.718 157.081V157.073Z" fill="#3CBFDD"/>
<path d="M128.23 156.974C127.474 156.974 126.136 156.974 124.378 156.966H128.23V156.974Z" fill="#3CBFDD"/>
<path d="M99.3159 211.521C99.4391 210.562 98.7575 209.692 97.8049 209.569C96.8276 209.455 95.9736 210.127 95.8504 211.078L85.1338 295.799C86.2753 295.979 87.4331 296.143 88.591 296.299L99.3159 211.513V211.521Z" fill="#1285B2"/>
<path d="M88.2625 141.843C89.9706 147.985 99.1269 150.872 106.452 148.281C102.625 149.109 100.769 146.304 100.268 143.138C98.7903 143.007 97.4189 142.449 96.4334 141.392C94.6104 139.431 92.4588 132.862 97.6159 130.156C96.6387 129.491 95.8093 128.442 95.2427 126.785C93.1322 120.65 97.5174 112.137 103.118 109.349C108.719 106.56 127.573 109.742 129.782 114.458C131.983 119.174 125.594 122.003 125.594 122.003C125.594 122.003 125.594 122.003 125.586 122.003C125.668 122.512 125.742 123.029 125.791 123.578C126.029 126.506 127.335 129.45 128.148 132.419C137.584 128.114 137.083 119.584 133.601 113.351C132.804 111.924 131.852 110.612 130.825 109.505C129.569 108.151 128.206 107.093 126.892 106.487C120.954 103.731 117.448 105.478 112.291 106.396C106.854 107.364 100.876 105.1 94.6761 108.865C94.3147 109.086 93.9534 109.316 93.5921 109.57C92.1468 110.612 90.9068 111.711 89.8638 112.892C84.4111 119.043 84.2797 127.416 88.2789 141.834L88.2625 141.843Z" fill="#333333"/>
<path d="M109.417 146.87C109.556 146.788 109.687 146.706 109.819 146.616C109.77 146.599 109.729 146.591 109.679 146.575C109.597 146.673 109.507 146.772 109.417 146.87Z" fill="#333333"/>
<path d="M98.1661 129.885C103.282 127.679 106.608 131.263 106.608 131.263C104.539 120.289 115.354 125.21 125.586 122.003C125.586 122.003 125.586 122.003 125.594 122.003C125.594 122.003 131.991 119.174 129.782 114.458C127.581 109.742 108.718 106.56 103.118 109.349C97.5173 112.137 93.1404 120.65 95.2426 126.785C95.8093 128.433 96.6387 129.483 97.6159 130.156C97.7883 130.065 97.9772 129.975 98.1661 129.893V129.885Z" fill="#333333"/>
<path d="M109.416 146.87C109.515 146.772 109.605 146.681 109.679 146.575C111.715 144.032 108.168 140.137 108.168 140.137L107.478 139.792C105.86 142.154 102.904 143.352 100.26 143.122C100.761 146.288 102.617 149.093 106.443 148.264C106.484 148.256 106.526 148.248 106.575 148.24C106.64 148.223 106.706 148.215 106.772 148.199C108.02 147.871 108.858 147.403 109.416 146.862V146.87Z" fill="#333333"/>
<path d="M124.37 156.966L122.169 146.033C124.288 145.074 126.095 143.63 127.302 141.736C129.289 138.611 128.977 135.511 128.139 132.427C127.326 129.459 126.021 126.514 125.783 123.586C125.742 123.037 125.659 122.52 125.577 122.012C115.353 125.218 104.53 120.298 106.599 131.271C106.599 131.271 103.274 127.687 98.1576 129.893C97.9687 129.975 97.7798 130.065 97.6074 130.156C92.4502 132.87 94.6018 139.431 96.4248 141.392C97.4103 142.449 98.7817 143.007 100.26 143.138C102.904 143.368 105.86 142.171 107.478 139.809L108.168 140.153C108.168 140.153 111.716 144.049 109.679 146.591C109.728 146.608 109.769 146.616 109.819 146.632C109.687 146.714 109.556 146.796 109.416 146.886C108.858 147.428 108.02 147.895 106.772 148.223C106.706 148.24 106.641 148.248 106.575 148.264L108.652 156.941H105.088L125.996 174.468L128.222 156.99H124.37L124.362 156.982L124.37 156.966ZM126.53 132.641C127.105 139.718 118.638 139.153 116.741 134.404L126.53 132.641Z" fill="#A47035"/>
<path d="M126.53 132.641L116.741 134.404C118.638 139.144 127.105 139.718 126.53 132.641Z" fill="white"/>
<path d="M229.771 56.0317L225.608 56.4746C223.982 56.6468 222.627 57.5735 221.847 58.8694L228.063 59.0498C229.024 59.0744 229.788 59.8781 229.755 60.8459C229.73 61.7891 228.95 62.5436 228.014 62.5436C227.997 62.5436 227.981 62.5436 227.965 62.5436L221.206 62.3467L221.469 64.0362C221.543 64.0362 221.617 64.0198 221.699 64.028L228.777 64.2331C229.738 64.2577 230.502 65.0614 230.469 66.0292C230.445 66.9723 229.664 67.7268 228.728 67.7268C228.712 67.7268 228.695 67.7268 228.679 67.7268L222.692 67.5546C223.85 69.2031 225.739 70.2857 227.874 70.3349L232.292 70.4415H232.473C234.263 70.4907 235.725 69.0145 235.676 67.2266L235.331 60.7639C235.224 58.7299 233.918 57.0651 232.153 56.3679C231.43 56.0809 230.625 55.9579 229.788 56.0481L229.771 56.0317Z" fill="#A47035"/>
<path d="M228.014 62.5354C228.958 62.5354 229.73 61.7891 229.754 60.8377C229.779 59.8699 229.024 59.0744 228.063 59.0416L221.846 58.8612L220.984 58.8366C220.048 58.7792 219.218 59.5665 219.186 60.5261C219.161 61.4938 219.917 62.2893 220.877 62.3222H221.189L227.948 62.5272C227.964 62.5272 227.981 62.5272 227.997 62.5272L228.014 62.5354Z" fill="#75370B"/>
<path d="M228.72 67.7187C229.664 67.7187 230.436 66.9723 230.461 66.021C230.486 65.0614 229.73 64.2577 228.769 64.2249L221.691 64.0198C221.608 64.0198 221.535 64.0198 221.461 64.028C220.574 64.0937 219.917 64.8236 219.892 65.7093C219.868 66.6689 220.623 67.4726 221.584 67.5054L222.676 67.5382L228.663 67.7104C228.663 67.7104 228.695 67.7104 228.712 67.7104L228.72 67.7187Z" fill="#75370B"/>
<path d="M192.324 55.351L188.785 56.6878C187.882 57.0241 187.43 58.0328 187.767 58.935C188.029 59.6321 188.695 60.0668 189.401 60.0668C189.606 60.0668 189.811 60.034 190.017 59.9519L193.564 58.6151C194.468 58.2789 194.919 57.2701 194.583 56.3679C194.238 55.4658 193.228 55.0147 192.333 55.351H192.324Z" fill="#333333"/>
<path d="M200.504 28.6063C200.668 29.4429 201.399 30.017 202.22 30.017C202.327 30.017 202.442 30.0088 202.557 29.9842C203.501 29.8037 204.125 28.8852 203.936 27.942L203.214 24.2268C203.025 23.2837 202.121 22.6604 201.169 22.849C200.224 23.0294 199.6 23.948 199.789 24.8911L200.512 28.6063H200.504Z" fill="#333333"/>
<path d="M185.804 47.289L191.093 47.4777C191.093 47.4777 191.134 47.4777 191.158 47.4777C192.094 47.4777 192.866 46.7395 192.899 45.7964C192.932 44.8368 192.177 44.0249 191.216 43.9921L185.927 43.8035C185.016 43.7788 184.154 44.517 184.121 45.4847C184.088 46.4443 184.843 47.2562 185.804 47.289Z" fill="#333333"/>
<path d="M188.686 32.1575L192.71 35.4217C193.03 35.6841 193.425 35.8153 193.811 35.8153C194.32 35.8153 194.821 35.5939 195.166 35.1674C195.773 34.4211 195.658 33.3221 194.911 32.7152L190.887 29.4511C190.14 28.8442 189.039 28.959 188.432 29.7053C187.824 30.4517 187.939 31.5506 188.686 32.1575Z" fill="#333333"/>
<path d="M230.19 84.105C230.568 83.7851 230.814 83.3012 230.806 82.7681C230.806 82.2104 230.527 81.7184 230.116 81.4067C230.067 81.3657 230.017 81.3329 229.968 81.3001C229.705 81.1361 229.393 81.0459 229.065 81.0459H229.048L207.976 81.2509H207.968C207.344 81.2509 206.827 80.7424 206.819 80.1191L206.4 37.3572C206.4 37.0209 206.293 36.7093 206.121 36.4468C205.8 35.9548 205.25 35.6267 204.634 35.6267C203.673 35.6349 202.893 36.4222 202.901 37.39L203.32 80.1519C203.345 82.6943 205.423 84.7365 207.96 84.7365H208.009L215.088 84.6709L229.081 84.5314C229.508 84.5314 229.894 84.3674 230.19 84.1132V84.105Z" fill="#333333"/>
<path d="M365.548 256.301C365.926 255.956 366.312 255.612 366.689 255.267L353.567 244.663L336.33 246.18C336.863 246.353 337.364 246.508 337.791 246.64L365.54 256.293L365.548 256.301Z" fill="white"/>
<path d="M270.987 251.987C270.987 251.987 270.987 251.962 270.987 251.954L270.535 251.995C270.535 251.995 270.56 252.02 270.576 252.036L270.979 251.987H270.987Z" fill="white"/>
<path d="M277.622 253.685C278.821 255.243 280.373 257.26 281.383 258.564L292.576 273.909L344.443 265.601L336.757 260.221L335.968 260.262C333.184 260.401 330.327 258.228 328.627 257.203C327.806 256.711 325.991 255.801 325.531 254.472L325.268 254.39C324.34 254.111 323.823 253.143 324.094 252.217C324.217 251.815 324.472 251.487 324.8 251.273C324.307 250.379 324.159 249.674 324.299 249.034C323.979 248.682 323.798 248.206 323.847 247.698C323.864 247.558 323.897 247.419 323.938 247.296L274.428 251.659C274.469 251.708 274.51 251.765 274.567 251.823C275.766 252.052 276.858 252.709 277.622 253.701V253.685Z" fill="white"/>
<path d="M275.577 276.632L272.81 269.128L272.136 268.709C269.771 267.241 268.195 264.781 267.85 262.017L266.955 254.849C266.889 254.308 267.02 253.791 267.275 253.357C267.168 253.004 267.185 252.618 267.316 252.266L243.444 254.374L261.026 278.953L275.577 276.624V276.632Z" fill="white"/>
<path d="M344.451 265.601L292.584 273.909L294.892 277.067L348.557 268.472L344.451 265.601Z" fill="#333333"/>
<path d="M275.577 276.632L261.026 278.961L243.444 254.382L242.844 253.545C242.286 252.758 241.194 252.577 240.406 253.143C239.617 253.701 239.437 254.792 240.003 255.579L258.817 281.881C259.145 282.34 259.679 282.611 260.237 282.611C260.328 282.611 260.418 282.611 260.517 282.586L276.817 279.978L275.586 276.64L275.577 276.632Z" fill="#333333"/>
<path d="M294.892 277.067L292.584 273.901L281.392 258.556C280.373 257.252 278.829 255.243 277.63 253.676C276.867 252.684 275.775 252.028 274.576 251.798C275.487 252.897 277.343 255.169 278.402 256.801C278.928 257.613 278.698 258.687 277.885 259.212C277.589 259.401 277.261 259.491 276.932 259.491C276.358 259.491 275.799 259.212 275.463 258.696C274.912 257.851 274.099 256.776 273.336 255.817C273.664 256.473 273.96 257.187 274.157 257.941C274.403 258.876 273.845 259.827 272.909 260.073C272.761 260.114 272.613 260.131 272.465 260.131C271.693 260.131 270.987 259.614 270.773 258.827C270.1 256.26 267.801 254.185 267.784 254.16C267.53 253.931 267.366 253.652 267.275 253.34C267.012 253.775 266.889 254.291 266.955 254.833L267.85 262.001C268.195 264.765 269.772 267.225 272.137 268.693L272.81 269.111L275.577 276.616L276.809 279.954L279.109 286.187L298.07 281.422L294.884 277.05L294.892 277.067Z" fill="#EFCAAB"/>
<path d="M270.987 251.987L270.584 252.036C270.699 252.151 270.823 252.282 270.962 252.43C270.954 252.282 270.962 252.135 270.987 251.987Z" fill="#EFCAAB"/>
<path d="M326.689 246.098L326.541 246.23C326.631 246.246 326.73 246.262 326.828 246.279C326.779 246.221 326.73 246.156 326.689 246.098Z" fill="#EFCAAB"/>
<path d="M335.607 248.575C335.262 249.002 334.761 249.223 334.244 249.223C333.858 249.223 333.472 249.1 333.151 248.838C332.297 248.149 331.271 247.698 330.359 247.394C331.189 247.771 332.043 248.255 332.815 248.887C333.562 249.494 333.677 250.593 333.069 251.339C332.724 251.765 332.224 251.979 331.714 251.979C331.328 251.979 330.934 251.847 330.614 251.585C328.553 249.912 325.473 249.584 325.44 249.584C324.997 249.543 324.611 249.33 324.324 249.018C324.184 249.658 324.324 250.371 324.825 251.257C325.243 250.978 325.769 250.871 326.286 251.027L334.047 253.34C334.975 253.619 335.492 254.587 335.221 255.513C334.999 256.268 334.301 256.76 333.546 256.76C333.381 256.76 333.209 256.735 333.045 256.686L325.547 254.447C325.999 255.776 327.822 256.686 328.643 257.178C330.343 258.203 333.201 260.377 335.985 260.237L336.773 260.196L344.459 265.577L348.565 268.455L351.587 270.571C356.046 265.601 360.686 260.738 365.556 256.293L337.808 246.64C337.372 246.5 336.871 246.344 336.346 246.18C335.845 246.024 335.328 245.852 334.786 245.688C334.983 245.819 335.172 245.967 335.352 246.115C336.1 246.722 336.223 247.821 335.615 248.567L335.607 248.575Z" fill="#EFCAAB"/>
<path d="M437.55 234.739C437.55 234.739 437.575 234.83 437.6 234.994C438.561 234.657 439.505 234.354 440.614 234.141C439.743 234.247 438.692 234.387 437.477 234.584L437.559 234.739H437.55Z" fill="#ED6B31"/>
<path d="M464.387 263.698C465.307 263.436 466.284 263.969 466.547 264.896L473.437 288.942C474.652 285.243 475.596 281.52 476.22 277.78C474.447 263.272 465.594 242.203 451.929 235.797C449.31 234.575 446.518 233.886 443.57 233.886C442.428 233.886 441.476 233.985 440.621 234.149C439.521 234.354 438.568 234.666 437.608 235.002C437.764 236.076 437.969 240.218 431.662 240.218C422.407 240.218 417.603 235.961 417.603 235.961C397.607 233.362 381.118 242.424 366.697 255.284C366.311 255.628 365.934 255.973 365.556 256.317C360.678 260.762 356.046 265.626 351.587 270.596C347.038 275.672 342.677 280.856 338.44 285.826C337.627 286.777 336.822 287.72 336.026 288.647C333.053 292.108 330.138 295.421 327.263 298.472L320.694 291.419C316.489 295.848 313.853 303.803 313.779 313.464C313.64 332.106 323.338 353.085 344.697 359.597C344.87 359.523 345.042 359.449 345.215 359.367C347.054 358.547 348.853 357.661 350.618 356.71C364.291 349.312 375.591 338.109 384.098 327.587C384.025 327.554 383.951 327.53 383.877 327.48C383.08 326.939 382.867 325.857 383.409 325.061L399.373 301.564C399.882 300.81 400.884 300.596 401.664 301.023C401.713 301.047 401.754 301.064 401.803 301.097C402.6 301.638 402.814 302.721 402.272 303.516L386.307 327.013C386.184 327.193 386.036 327.325 385.872 327.448C391.998 335.977 399.57 344.876 408.102 353.659C419.476 349.173 430.307 342.932 440.112 335.075C441.418 334.025 442.699 332.959 443.939 331.868C456.397 320.993 465.832 308.06 471.416 294.486L463.213 265.864C462.95 264.937 463.484 263.969 464.412 263.707L464.387 263.698Z" fill="#ED6B31"/>
<path d="M310.273 313.432C310.355 302.639 313.352 293.879 318.263 288.827L308.852 278.732L298.07 281.438L279.109 286.203L250.498 293.387C254.719 318.5 283.576 365.149 318.994 365.125C326.311 365.125 333.217 363.804 339.697 361.549C319.388 353.307 310.125 332.254 310.265 313.432H310.273Z" fill="#ED6B31"/>
<path d="M474.734 295.503C474.833 295.348 474.899 295.167 474.94 294.987C474.874 295.159 474.808 295.331 474.734 295.503Z" fill="#DC2D0A"/>
<path d="M464.387 263.698C463.459 263.961 462.925 264.929 463.188 265.855L471.392 294.478C472.147 292.641 472.829 290.796 473.437 288.942L466.547 264.896C466.284 263.969 465.307 263.436 464.387 263.698Z" fill="#DC2D0A"/>
<path d="M403.118 217.271C403.734 216.532 403.635 215.433 402.896 214.81C402.157 214.195 401.057 214.293 400.441 215.032C400.071 215.474 399.431 216.04 398.109 215.86C397.952 215.835 397.805 215.843 397.657 215.86C396.893 215.95 396.253 216.549 396.138 217.344C396.006 218.296 396.671 219.181 397.624 219.313C397.838 219.345 398.043 219.345 398.248 219.354C398.363 219.354 398.478 219.378 398.593 219.378C400.383 219.378 401.968 218.648 403.118 217.262V217.271Z" fill="#ED6B31"/>
<path d="M400.432 204.337L412.676 207.782C413.317 206.888 415.321 204.657 419.057 205.256C424.37 206.1 424.173 212.358 422.876 214.302C420.757 217.467 416.569 217.763 413.629 216.065C414.097 217.672 414.812 219.173 415.731 220.518C419.033 225.349 424.962 228.26 431.367 226.997C432.073 226.858 432.681 226.686 433.215 226.481C435.53 225.579 436.302 223.963 437.197 221.084C439.645 213.235 440.663 205.165 438.117 198.457C437.969 198.498 437.813 198.522 437.649 198.522C437.345 198.522 437.041 198.448 436.762 198.284C433.543 196.39 430.94 191.116 430.652 190.518C430.431 190.05 430.439 189.542 430.62 189.107C428.041 187.344 424.838 185.876 420.872 184.785C395.242 177.765 393.321 202.344 393.321 202.344L396.08 203.123L400.432 204.345V204.337Z" fill="#8A6239"/>
<path d="M437.6 234.994C437.575 234.838 437.55 234.739 437.55 234.739L437.468 234.584L433.206 226.472C432.681 226.677 432.073 226.85 431.359 226.989C424.953 228.244 419.024 225.341 415.723 220.51C414.803 219.157 414.089 217.656 413.621 216.057C416.561 217.763 420.749 217.467 422.867 214.293C424.165 212.35 424.362 206.092 419.049 205.247C415.312 204.657 413.309 206.879 412.668 207.773L400.424 204.329L396.072 203.107L394.643 212.432C394.479 213.481 396.031 213.801 397.558 213.892C397.55 214.433 397.566 215.114 397.632 215.86C397.78 215.843 397.928 215.835 398.084 215.86C399.406 216.04 400.046 215.474 400.416 215.032C401.032 214.293 402.132 214.195 402.871 214.81C403.61 215.425 403.709 216.524 403.093 217.271C401.935 218.648 400.358 219.386 398.568 219.386C398.453 219.386 398.338 219.37 398.223 219.362C398.823 221.584 399.899 223.569 401.754 223.864C405.384 224.43 408.538 224.603 411.223 224.291L417.571 235.953C417.571 235.953 422.375 240.21 431.63 240.21C437.936 240.21 437.731 236.068 437.575 234.994H437.6Z" fill="#EFCAAB"/>
<path d="M399.348 301.556L383.384 325.053C382.842 325.848 383.048 326.931 383.852 327.472C383.926 327.521 384 327.546 384.074 327.579C384.32 327.694 384.575 327.776 384.83 327.776C385.191 327.776 385.536 327.653 385.84 327.439C386.004 327.325 386.16 327.185 386.275 327.005L402.239 303.508C402.781 302.712 402.576 301.63 401.771 301.088C401.73 301.056 401.681 301.039 401.631 301.015C400.851 300.58 399.858 300.801 399.34 301.556H399.348Z" fill="#DC2D0A"/>
<path d="M267.275 253.365C267.366 253.668 267.53 253.955 267.784 254.185C267.809 254.209 270.1 256.276 270.773 258.851C270.979 259.639 271.685 260.155 272.465 260.155C272.613 260.155 272.761 260.139 272.909 260.098C273.845 259.852 274.403 258.901 274.157 257.966C273.96 257.211 273.672 256.498 273.336 255.842C272.309 254.538 271.381 253.455 271.365 253.43C271.118 253.135 270.987 252.791 270.962 252.43C270.823 252.274 270.7 252.143 270.585 252.036C270.568 252.02 270.56 252.011 270.544 251.995C270.297 251.749 270.133 251.601 270.108 251.577C269.386 250.937 268.285 251.003 267.645 251.724C267.497 251.888 267.39 252.085 267.316 252.282C267.185 252.635 267.177 253.012 267.275 253.373V253.365Z" fill="#D69D76"/>
<path d="M270.962 252.43C270.987 252.782 271.118 253.135 271.365 253.43C271.381 253.447 272.309 254.538 273.336 255.842C274.099 256.801 274.912 257.875 275.463 258.72C275.799 259.237 276.358 259.516 276.933 259.516C277.261 259.516 277.589 259.426 277.885 259.237C278.69 258.712 278.928 257.629 278.402 256.826C277.343 255.194 275.495 252.922 274.576 251.823C274.526 251.765 274.485 251.716 274.436 251.659C274.206 251.388 274.058 251.208 274.034 251.175C273.41 250.445 272.309 250.347 271.57 250.978C271.258 251.241 271.069 251.593 270.995 251.962C270.995 251.97 270.995 251.987 270.995 251.995C270.971 252.143 270.954 252.29 270.971 252.438L270.962 252.43Z" fill="#D69D76"/>
<path d="M324.316 249.026C324.595 249.33 324.981 249.543 325.432 249.592C325.465 249.592 328.545 249.92 330.606 251.593C330.926 251.856 331.32 251.987 331.706 251.987C332.216 251.987 332.716 251.765 333.061 251.347C333.669 250.601 333.554 249.502 332.807 248.895C332.035 248.263 331.189 247.78 330.351 247.402C329.054 246.976 327.986 246.861 327.97 246.861C327.51 246.82 327.116 246.607 326.837 246.287C326.738 246.271 326.64 246.246 326.549 246.238C326.098 246.156 325.802 246.131 325.761 246.123C324.899 246.033 324.201 246.541 323.954 247.287C323.913 247.419 323.88 247.55 323.864 247.689C323.815 248.198 323.995 248.674 324.316 249.026Z" fill="#D69D76"/>
<path d="M326.836 246.279C327.124 246.59 327.518 246.812 327.97 246.853C327.986 246.853 329.054 246.968 330.351 247.394C331.263 247.698 332.297 248.149 333.143 248.838C333.463 249.1 333.858 249.223 334.235 249.223C334.745 249.223 335.254 249.002 335.599 248.575C336.206 247.829 336.091 246.73 335.336 246.123C335.147 245.975 334.958 245.836 334.769 245.696C331.936 243.728 328.438 243.392 328.282 243.375C327.329 243.293 326.475 243.999 326.385 244.958C326.344 245.377 326.467 245.77 326.689 246.098C326.73 246.164 326.779 246.221 326.828 246.279H326.836Z" fill="#D69D76"/>
<path d="M216.886 297.185C216.936 297.176 216.985 297.16 217.034 297.152C216.985 297.152 216.936 297.168 216.886 297.185Z" fill="#333333"/>
<path d="M219.063 306.641V302.589C217.108 301.294 216.074 300.096 215.975 299.989C215.679 299.645 215.556 299.21 215.573 298.792C215.573 298.817 215.573 298.841 215.573 298.866V304.894H217.322C218.283 304.894 219.071 305.673 219.071 306.641H219.063Z" fill="#333333"/>
<path d="M216.008 297.718C216.049 297.669 216.09 297.627 216.139 297.578C216.09 297.619 216.049 297.669 216.008 297.718Z" fill="#333333"/>
<path d="M215.811 297.988C215.843 297.939 215.868 297.89 215.909 297.841C215.876 297.89 215.843 297.939 215.811 297.988Z" fill="#333333"/>
<path d="M215.589 298.62C215.597 298.562 215.605 298.505 215.622 298.456C215.605 298.513 215.597 298.571 215.589 298.62Z" fill="#333333"/>
<path d="M215.671 298.3C215.687 298.243 215.712 298.193 215.737 298.136C215.712 298.185 215.696 298.243 215.671 298.3Z" fill="#333333"/>
<path d="M243.477 299.637C243.411 299.776 242.483 301.572 240.159 303.213V331.417H219.063V325.955C219.063 326.915 218.283 327.702 217.314 327.702H215.564V333.164C215.564 334.132 216.345 334.911 217.314 334.911H241.908C242.869 334.911 243.658 334.132 243.658 333.164V298.874C243.658 298.825 243.649 298.784 243.641 298.735C243.666 299.038 243.617 299.342 243.477 299.637Z" fill="#333333"/>
<path d="M216.558 297.299C216.607 297.275 216.657 297.258 216.706 297.234C216.657 297.25 216.607 297.275 216.558 297.299Z" fill="#333333"/>
<path d="M243.567 298.366C243.592 298.439 243.608 298.521 243.625 298.603C243.608 298.521 243.592 298.448 243.567 298.366Z" fill="#333333"/>
<path d="M217.314 308.388H215.564V324.208H217.314C218.274 324.208 219.063 324.987 219.063 325.955V306.641C219.063 307.6 218.283 308.388 217.314 308.388Z" fill="#333333"/>
<path d="M216.262 297.488C216.311 297.447 216.361 297.414 216.418 297.381C216.369 297.414 216.311 297.447 216.262 297.488Z" fill="#333333"/>
<path d="M218.644 297.742C218.743 297.857 220.056 299.342 222.578 300.613H237.786C239.601 299.465 240.299 298.185 240.348 298.087C240.783 297.234 241.826 296.889 242.689 297.316C243.009 297.472 243.255 297.718 243.42 298.005C243.116 297.48 242.557 297.127 241.909 297.127H217.314C217.314 297.127 217.264 297.127 217.24 297.127C217.757 297.103 218.283 297.308 218.652 297.734L218.644 297.742Z" fill="#333333"/>
<path d="M210.654 327.694H217.314C218.274 327.694 219.063 326.915 219.063 325.947C219.063 324.979 218.283 324.2 217.314 324.2H211.77C209.635 319.279 209.668 313.727 211.894 308.798L212.082 308.379H217.305C218.266 308.379 219.054 307.6 219.054 306.633C219.054 305.665 218.274 304.886 217.305 304.886H210.949C210.259 304.886 209.644 305.288 209.356 305.911L208.699 307.362C205.891 313.571 206.03 320.632 209.085 326.726C209.381 327.316 209.988 327.685 210.645 327.685L210.654 327.694Z" fill="#333333"/>
<path d="M219.063 302.589C221.485 304.189 225.32 305.935 230.559 305.935C235.076 305.935 238.147 304.631 240.167 303.204C242.491 301.564 243.419 299.768 243.485 299.629C243.625 299.333 243.674 299.03 243.649 298.726C243.649 298.685 243.649 298.636 243.633 298.595C243.616 298.513 243.6 298.439 243.575 298.357C243.575 298.333 243.559 298.308 243.551 298.292C243.518 298.202 243.477 298.111 243.427 298.029C243.427 298.029 243.427 298.013 243.411 298.005C243.247 297.718 243 297.48 242.68 297.316C241.818 296.881 240.775 297.234 240.34 298.087C240.291 298.185 239.592 299.465 237.778 300.613C236.258 301.572 233.951 302.45 230.551 302.45C227.151 302.45 224.515 301.597 222.569 300.613C220.048 299.342 218.742 297.857 218.636 297.742C218.274 297.316 217.749 297.111 217.223 297.135C217.157 297.135 217.092 297.144 217.018 297.152C216.968 297.152 216.919 297.168 216.87 297.185C216.812 297.201 216.755 297.217 216.689 297.242C216.64 297.258 216.591 297.283 216.541 297.308C216.492 297.332 216.443 297.357 216.394 297.39C216.344 297.422 216.287 297.455 216.238 297.496C216.213 297.513 216.188 297.529 216.164 297.545C216.147 297.562 216.131 297.578 216.114 297.595C216.065 297.636 216.024 297.685 215.983 297.734C215.95 297.775 215.909 297.816 215.885 297.857C215.852 297.906 215.819 297.956 215.786 298.005C215.761 298.054 215.728 298.095 215.712 298.144C215.687 298.193 215.671 298.251 215.646 298.308C215.63 298.357 215.614 298.415 215.597 298.464C215.581 298.521 215.572 298.579 215.564 298.628C215.556 298.685 215.548 298.743 215.548 298.8C215.531 299.219 215.655 299.653 215.95 299.998C216.041 300.104 217.075 301.302 219.038 302.598L219.063 302.589Z" fill="#333333"/>
<path d="M333.537 256.776C334.293 256.776 334.983 256.284 335.213 255.53C335.492 254.603 334.966 253.635 334.038 253.357L326.278 251.044C325.761 250.888 325.227 250.995 324.816 251.273C324.488 251.495 324.233 251.815 324.11 252.217C323.831 253.143 324.356 254.111 325.284 254.39L325.547 254.472L333.045 256.711C333.209 256.76 333.381 256.785 333.546 256.785L333.537 256.776Z" fill="#D69D76"/>
<path d="M471.614 211.915C470.719 212.76 469.741 213.481 468.723 214.08C476.032 232.574 479.013 253.283 476.779 273.745C476.886 272.786 477.723 272.097 478.709 272.203C479.67 272.31 480.359 273.171 480.253 274.122C482.585 252.782 479.39 231.164 471.614 211.915Z" fill="#333333"/>
<path d="M369.761 148.117C370.73 147.977 371.608 148.625 371.756 149.576C371.904 150.528 371.247 151.422 370.294 151.569C371.846 151.332 373.366 151.143 374.868 150.987C406.739 147.616 429.166 161.739 442.568 174.533C443.25 175.181 443.907 175.845 444.572 176.51C448.867 180.848 452.776 185.605 456.29 190.69C457.514 190.706 458.861 190.632 460.347 190.452C455.871 183.711 450.731 177.502 444.974 172.007C444.284 171.351 443.595 170.711 442.897 170.08C422.555 151.75 396.688 143.959 369.752 148.117H369.761Z" fill="#333333"/>
<path d="M478.709 272.195C477.732 272.088 476.886 272.786 476.779 273.737C476.631 275.082 476.442 276.427 476.221 277.772C475.588 281.512 474.652 285.235 473.437 288.934C472.821 290.788 472.148 292.641 471.392 294.47C465.808 308.051 456.372 320.977 443.915 331.852C442.667 332.943 441.394 334.009 440.088 335.059C430.283 342.915 419.451 349.148 408.078 353.643C390.455 360.598 371.526 363.345 353.123 361.311C352.302 361.221 351.497 361.106 350.709 360.983C350.438 360.942 350.175 360.885 349.912 360.835C349.461 360.753 349.001 360.671 348.557 360.581C347.342 360.327 346.168 360.023 345.026 359.687C344.911 359.654 344.804 359.622 344.69 359.589C323.33 353.077 313.632 332.098 313.771 313.456C313.845 303.795 316.481 295.848 320.686 291.411C322.755 289.229 325.203 287.892 327.912 287.638C328.873 287.548 329.579 286.695 329.481 285.736C329.391 284.776 328.537 284.087 327.576 284.161C324.028 284.497 320.883 286.137 318.272 288.819C313.353 293.871 310.363 302.63 310.281 313.423C310.142 332.245 319.397 353.29 339.713 361.541C339.992 361.656 340.271 361.762 340.551 361.869C340.994 362.041 341.446 362.197 341.897 362.361C342.193 362.467 342.489 362.566 342.793 362.664C344.156 363.107 345.576 363.493 347.03 363.821C347.646 363.96 348.278 364.083 348.91 364.198C349.214 364.255 349.518 364.321 349.83 364.37C350.783 364.526 351.752 364.665 352.737 364.78C353.739 364.887 354.733 364.985 355.735 365.067C356.104 365.1 356.474 365.117 356.851 365.149C357.476 365.199 358.108 365.24 358.732 365.281C359.192 365.305 359.644 365.322 360.103 365.338C360.645 365.363 361.187 365.387 361.738 365.404C362.23 365.42 362.723 365.42 363.216 365.428C363.725 365.436 364.234 365.445 364.743 365.453C364.85 365.453 364.957 365.453 365.072 365.453C365.745 365.453 366.418 365.445 367.1 365.428C367.231 365.428 367.355 365.428 367.486 365.428C368.439 365.412 369.391 365.379 370.336 365.33C370.442 365.33 370.557 365.313 370.664 365.313C371.485 365.272 372.298 365.223 373.119 365.166C373.382 365.149 373.645 365.125 373.908 365.108C374.573 365.059 375.246 365.002 375.911 364.936C376.215 364.911 376.519 364.879 376.823 364.846C377.455 364.78 378.088 364.715 378.72 364.641C379.032 364.608 379.344 364.567 379.656 364.526C380.288 364.444 380.929 364.362 381.561 364.272C381.857 364.231 382.153 364.19 382.448 364.141C383.138 364.034 383.836 363.927 384.526 363.804C384.756 363.763 384.986 363.73 385.224 363.689C387.088 363.361 388.944 362.992 390.8 362.582C390.997 362.541 391.186 362.492 391.383 362.443C392.097 362.279 392.82 362.115 393.534 361.934C393.822 361.861 394.109 361.787 394.397 361.713C395.021 361.557 395.653 361.393 396.277 361.221C396.589 361.139 396.901 361.049 397.213 360.958C397.821 360.786 398.42 360.614 399.02 360.434C399.332 360.343 399.644 360.245 399.956 360.155C400.572 359.966 401.188 359.769 401.804 359.572C402.091 359.482 402.379 359.392 402.666 359.294C403.364 359.064 404.062 358.826 404.76 358.58C404.957 358.514 405.154 358.449 405.351 358.375C406.255 358.055 407.158 357.719 408.061 357.374C408.111 357.358 408.16 357.333 408.209 357.317C409.039 356.997 409.868 356.669 410.697 356.333C410.96 356.226 411.223 356.111 411.486 356.005C412.102 355.751 412.709 355.496 413.317 355.226C413.629 355.094 413.941 354.955 414.253 354.816C414.812 354.57 415.378 354.315 415.937 354.053C416.257 353.905 416.585 353.749 416.906 353.602C417.456 353.339 418.006 353.077 418.548 352.814C418.86 352.659 419.18 352.503 419.492 352.347C420.067 352.06 420.634 351.765 421.2 351.478C421.48 351.33 421.759 351.191 422.038 351.043C422.736 350.674 423.426 350.305 424.116 349.919C424.264 349.837 424.411 349.764 424.559 349.682C425.397 349.214 426.226 348.738 427.056 348.255C427.261 348.131 427.466 348.008 427.672 347.885C428.287 347.516 428.903 347.147 429.519 346.77C429.807 346.59 430.094 346.409 430.39 346.229C430.915 345.901 431.441 345.564 431.958 345.228C432.27 345.023 432.582 344.818 432.894 344.613C433.387 344.285 433.888 343.949 434.381 343.621C434.693 343.408 435.005 343.194 435.325 342.973C435.514 342.842 435.703 342.719 435.892 342.587C436.196 342.374 436.499 342.153 436.803 341.931C437.099 341.718 437.403 341.505 437.698 341.292C438.232 340.906 438.758 340.512 439.283 340.119C439.53 339.93 439.784 339.75 440.031 339.561C440.794 338.971 441.558 338.38 442.313 337.773C457.218 325.832 468.436 311.086 474.784 295.495C474.849 295.323 474.915 295.151 474.989 294.978C476.878 290.246 478.331 285.44 479.3 280.61C479.735 278.444 480.072 276.271 480.31 274.106C480.417 273.146 479.719 272.285 478.766 272.187L478.709 272.195Z" fill="#333333"/>
<path d="M152.537 119.518C152.496 120.175 152.455 120.831 152.431 121.487C152.414 121.766 152.406 122.053 152.398 122.332C152.381 122.881 152.365 123.422 152.348 123.972C152.348 124.275 152.34 124.579 152.332 124.882C152.332 125.456 152.332 126.03 152.332 126.604C152.332 126.867 152.332 127.129 152.332 127.384C152.348 128.204 152.365 129.016 152.398 129.844C152.398 130.033 152.414 130.221 152.431 130.41C152.463 131.058 152.496 131.706 152.537 132.354C152.554 132.665 152.578 132.969 152.603 133.28C152.644 133.822 152.685 134.363 152.734 134.912C152.767 135.232 152.792 135.56 152.825 135.88C152.882 136.446 152.948 137.012 153.014 137.578C153.046 137.865 153.079 138.152 153.112 138.431C153.219 139.267 153.334 140.104 153.457 140.94C153.473 141.072 153.498 141.211 153.523 141.342C153.638 142.064 153.753 142.778 153.876 143.499C153.925 143.794 153.983 144.09 154.04 144.377C154.147 144.951 154.254 145.525 154.369 146.099C154.434 146.411 154.492 146.722 154.557 147.034C154.681 147.625 154.812 148.207 154.943 148.797C155.009 149.076 155.067 149.355 155.132 149.626C155.338 150.487 155.543 151.34 155.765 152.201C156.183 153.825 156.652 155.424 157.136 157.007C165.167 183.104 181.788 203.919 201.9 213.162C203.575 213.933 205.266 214.63 206.983 215.237C207.558 215.442 208.132 215.622 208.699 215.802C208.871 215.86 209.044 215.909 209.216 215.958C209.627 216.081 210.046 216.204 210.456 216.311C210.637 216.36 210.818 216.409 210.998 216.45C211.45 216.565 211.902 216.672 212.362 216.778C212.477 216.803 212.592 216.836 212.715 216.86C213.922 217.123 215.121 217.328 216.312 217.484C216.344 217.484 216.377 217.492 216.418 217.5C218.25 217.738 220.056 217.853 221.83 217.853C232.473 217.853 241.933 213.67 247.476 206.125C247.525 206.059 247.575 205.985 247.624 205.92C248.379 204.87 249.061 203.763 249.66 202.59C250.096 201.729 249.751 200.679 248.897 200.244C248.059 199.818 247.041 200.138 246.581 200.95C246.573 200.966 246.556 200.983 246.548 201.007C246.17 201.745 245.76 202.451 245.316 203.123C245.3 203.14 245.292 203.164 245.275 203.181C245.062 203.509 244.832 203.828 244.602 204.14C244.585 204.157 244.577 204.173 244.561 204.189C238.632 212.128 227.611 215.761 215.712 213.867C215.687 213.867 215.655 213.859 215.63 213.851C215.195 213.777 214.759 213.703 214.324 213.613C214.234 213.596 214.152 213.58 214.061 213.563C213.684 213.49 213.298 213.399 212.912 213.317C212.789 213.293 212.665 213.26 212.542 213.235C212.189 213.153 211.836 213.055 211.475 212.965C211.335 212.932 211.195 212.891 211.064 212.858C210.703 212.76 210.35 212.653 209.988 212.547C209.857 212.506 209.734 212.473 209.602 212.432C209.528 212.407 209.455 212.382 209.389 212.358C208.978 212.227 208.568 212.095 208.157 211.948C187.085 204.526 169.306 183.743 160.807 157.015C160.216 155.145 159.657 153.251 159.156 151.323C158.943 150.503 158.737 149.675 158.549 148.855C158.483 148.584 158.425 148.322 158.368 148.051C158.236 147.485 158.113 146.919 157.998 146.353C157.933 146.05 157.875 145.755 157.809 145.451C157.694 144.893 157.588 144.328 157.489 143.77C157.44 143.499 157.391 143.229 157.341 142.958C157.202 142.146 157.062 141.342 156.939 140.53C156.923 140.44 156.914 140.358 156.906 140.268C156.799 139.538 156.693 138.808 156.602 138.078C156.569 137.807 156.537 137.529 156.504 137.258C156.438 136.709 156.372 136.159 156.323 135.61C156.29 135.314 156.266 135.027 156.233 134.732C156.183 134.166 156.134 133.6 156.093 133.034C156.077 132.788 156.052 132.534 156.036 132.288C155.978 131.484 155.937 130.68 155.896 129.885C155.896 129.803 155.896 129.721 155.896 129.639C155.863 128.917 155.847 128.195 155.83 127.474C155.83 127.22 155.83 126.973 155.822 126.719C155.822 126.162 155.822 125.604 155.822 125.046C155.822 124.776 155.822 124.513 155.83 124.242C155.839 123.66 155.855 123.078 155.88 122.496C155.88 122.282 155.896 122.069 155.904 121.856C155.937 121.069 155.978 120.281 156.036 119.494C156.036 119.404 156.052 119.313 156.06 119.215C156.101 118.649 156.151 118.091 156.2 117.534C156.307 116.361 156.43 115.196 156.586 114.048C156.619 113.802 156.66 113.556 156.693 113.31C156.775 112.728 156.857 112.154 156.947 111.571C157.005 111.219 157.07 110.874 157.128 110.522C157.218 110.005 157.308 109.48 157.407 108.963C157.481 108.594 157.555 108.225 157.629 107.864C157.727 107.372 157.834 106.88 157.949 106.388C158.031 106.011 158.121 105.642 158.212 105.273C158.327 104.797 158.45 104.313 158.573 103.837C158.672 103.468 158.77 103.099 158.869 102.73C159 102.255 159.14 101.787 159.279 101.311C159.386 100.951 159.493 100.598 159.6 100.237C159.756 99.7532 159.912 99.2693 160.076 98.7936C160.191 98.4573 160.298 98.1293 160.413 97.793C160.61 97.2435 160.815 96.694 161.02 96.1528C161.119 95.8985 161.201 95.6443 161.3 95.3982C161.603 94.6191 161.915 93.8564 162.244 93.0936C162.367 92.8148 162.49 92.5442 162.613 92.2653C162.835 91.7732 163.057 91.2811 163.287 90.7891C163.443 90.461 163.607 90.1412 163.763 89.8131C163.977 89.3866 164.182 88.952 164.404 88.5337C164.576 88.1974 164.757 87.8694 164.937 87.5331C165.151 87.1313 165.373 86.7294 165.603 86.3275C165.791 85.9913 165.989 85.6632 166.177 85.327C166.407 84.9415 166.637 84.556 166.875 84.1706C167.081 83.8425 167.278 83.5145 167.491 83.1946C167.738 82.8173 167.984 82.4401 168.23 82.0628C168.444 81.743 168.649 81.4313 168.871 81.1197C169.134 80.7424 169.405 80.3733 169.668 80.0043C169.881 79.709 170.095 79.4056 170.316 79.1103C170.612 78.7249 170.916 78.3394 171.211 77.9539C171.425 77.6915 171.63 77.4208 171.844 77.1584C172.254 76.6581 172.673 76.1742 173.092 75.6821C173.207 75.5509 173.314 75.4197 173.429 75.2885C174.061 74.5668 173.987 73.4678 173.264 72.8363C172.542 72.1966 171.441 72.2704 170.801 72.9921C170.234 73.64 169.676 74.2961 169.134 74.9686C168.953 75.1901 168.781 75.4197 168.6 75.6411C168.239 76.0922 167.886 76.5433 167.532 77.0108C167.327 77.2814 167.13 77.5603 166.933 77.8309C166.621 78.2574 166.317 78.6838 166.013 79.1185C165.808 79.4138 165.611 79.709 165.405 80.0125C165.118 80.4389 164.839 80.8572 164.568 81.2919C164.371 81.6035 164.174 81.9152 163.985 82.2268C163.722 82.6615 163.459 83.088 163.196 83.5309C163.008 83.8425 162.827 84.1624 162.646 84.4822C162.392 84.9333 162.145 85.3844 161.899 85.8354C161.727 86.1471 161.554 86.4669 161.39 86.7868C161.143 87.2625 160.905 87.7464 160.667 88.2302C160.519 88.5337 160.363 88.8371 160.216 89.1406C159.961 89.6819 159.715 90.2232 159.468 90.7727C159.353 91.0269 159.23 91.2811 159.123 91.5436C158.77 92.3473 158.434 93.1675 158.113 93.9876C158.097 94.0368 158.08 94.086 158.056 94.1352C157.752 94.9143 157.465 95.6935 157.185 96.4808C157.087 96.7597 156.996 97.0467 156.898 97.3337C156.709 97.8914 156.52 98.4573 156.339 99.0232C156.233 99.3595 156.134 99.7039 156.027 100.048C155.871 100.565 155.715 101.09 155.568 101.607C155.469 101.976 155.37 102.337 155.272 102.706C155.141 103.214 155.009 103.723 154.878 104.231C154.787 104.608 154.697 104.994 154.607 105.379C154.492 105.888 154.377 106.396 154.27 106.905C154.188 107.29 154.106 107.684 154.032 108.069C153.933 108.586 153.835 109.103 153.744 109.619C153.679 110.013 153.605 110.399 153.539 110.792C153.449 111.325 153.375 111.858 153.293 112.391C152.981 114.565 152.734 116.763 152.57 118.994C152.562 119.149 152.554 119.305 152.546 119.469L152.537 119.518Z" fill="#333333"/>
<path d="M340.6 169.891C340.986 169.005 340.575 167.98 339.689 167.595C338.802 167.209 337.775 167.619 337.389 168.505L335.886 171.974C335.5 172.86 335.911 173.885 336.798 174.271C337.02 174.369 337.258 174.418 337.488 174.418C338.161 174.418 338.81 174.025 339.089 173.369L340.592 169.899L340.6 169.891Z" fill="#333333"/>
<path d="M355.858 199.867L352.68 197.809C351.875 197.284 350.791 197.513 350.265 198.325C349.74 199.137 349.97 200.212 350.783 200.737L353.961 202.795C354.256 202.984 354.585 203.074 354.913 203.074C355.488 203.074 356.047 202.795 356.383 202.278C356.909 201.466 356.679 200.392 355.866 199.867H355.858Z" fill="#333333"/>
<path d="M346.833 180.955C347.268 180.955 347.703 180.791 348.048 180.463L351.858 176.797C352.556 176.124 352.573 175.025 351.908 174.328C351.234 173.631 350.126 173.615 349.436 174.279L345.625 177.945C344.927 178.617 344.911 179.716 345.576 180.414C345.921 180.766 346.381 180.947 346.833 180.947V180.955Z" fill="#333333"/>
<path d="M351.661 189.369C351.743 190.28 352.507 190.961 353.402 190.961C353.451 190.961 353.509 190.961 353.558 190.961L357.607 190.6C358.568 190.518 359.274 189.665 359.192 188.705C359.11 187.746 358.272 187.048 357.295 187.122L353.246 187.483C352.285 187.565 351.579 188.418 351.661 189.378V189.369Z" fill="#333333"/>
<path d="M102.871 301.072C104.202 301.129 105.54 301.179 106.887 301.211C107.281 301.22 107.675 301.228 108.078 301.236C109.301 301.261 110.533 301.277 111.781 301.277C111.88 301.277 111.978 301.277 112.069 301.277C113.136 301.277 114.22 301.252 115.296 301.236C115.945 301.228 116.585 301.22 117.242 301.203C118.384 301.17 119.533 301.121 120.683 301.072C121.291 301.047 121.898 301.031 122.506 300.998C123.779 300.933 125.076 300.851 126.366 300.76C126.867 300.728 127.368 300.703 127.868 300.662C129.675 300.531 131.49 300.375 133.321 300.194C147.298 298.841 159.682 296.11 170.809 292.305C172.402 291.763 173.962 291.198 175.498 290.607C177.034 290.025 178.553 289.418 180.039 288.786C214.324 274.368 236.086 249.395 257.322 225.013C259.071 223.003 260.82 220.994 262.586 218.985L262.463 213.842C259.851 216.795 257.265 219.764 254.686 222.724C228.202 253.127 202.992 282.061 155.715 293.043C148.653 294.683 141.106 295.93 132.985 296.717C116.963 298.267 102.099 298.095 88.5824 296.291C87.4245 296.135 86.2666 295.971 85.1251 295.79C55.3813 291.116 32.4453 278.215 18.3207 257.859C17.8855 257.236 17.442 256.612 17.0232 255.973C16.358 254.956 15.7175 253.922 15.0934 252.864C-2.48025 223.061 0.0818897 182.136 21.4823 151.053C22.0325 150.257 21.8272 149.175 21.0306 148.625C20.2341 148.076 19.1501 148.281 18.5999 149.076C-3.56423 181.258 -6.17564 223.684 12.0878 254.652C12.6955 255.677 13.3196 256.686 13.9683 257.687C14.1819 258.007 14.3954 258.327 14.6089 258.646C15.0523 259.311 15.504 259.975 15.9639 260.631C16.2266 261 16.4976 261.361 16.7686 261.73C17.2039 262.321 17.6391 262.903 18.0908 263.485C18.3782 263.854 18.6738 264.223 18.9694 264.592C19.4211 265.15 19.8728 265.708 20.3408 266.249C20.6447 266.61 20.9485 266.963 21.2524 267.315C21.7369 267.873 22.2378 268.414 22.7387 268.955C23.0344 269.275 23.33 269.603 23.642 269.923C24.2169 270.522 24.7999 271.112 25.3912 271.695C25.6376 271.941 25.8757 272.187 26.1303 272.433C26.9761 273.245 27.8384 274.049 28.7171 274.828C28.8731 274.967 29.0291 275.09 29.1851 275.23C29.916 275.869 30.6633 276.501 31.4188 277.124C31.7473 277.386 32.0757 277.649 32.4124 277.903C33.0119 278.379 33.6196 278.855 34.2355 279.314C34.6132 279.601 34.9992 279.88 35.3852 280.159C35.9682 280.585 36.5595 281.003 37.159 281.413C37.5696 281.692 37.9802 281.971 38.3908 282.25C38.9902 282.652 39.5979 283.045 40.2138 283.431C40.6326 283.693 41.0514 283.956 41.4785 284.218C42.119 284.612 42.776 284.989 43.4329 285.375C43.8353 285.612 44.2377 285.85 44.6483 286.08C45.412 286.506 46.2003 286.925 46.9805 287.335C47.2925 287.499 47.5964 287.671 47.9084 287.827C49.0006 288.385 50.1092 288.926 51.2343 289.443C51.571 289.598 51.9241 289.746 52.269 289.902C53.0738 290.263 53.8785 290.623 54.6997 290.968C55.1678 291.165 55.6441 291.353 56.1122 291.542C56.8266 291.829 57.5329 292.116 58.2555 292.395C58.7729 292.592 59.2902 292.78 59.8158 292.969C60.5138 293.223 61.2201 293.478 61.9263 293.724C62.4683 293.912 63.0103 294.093 63.5522 294.273C64.2667 294.511 64.9893 294.732 65.7202 294.954C66.2622 295.118 66.8124 295.29 67.3626 295.454C68.1263 295.676 68.9065 295.889 69.6784 296.102C70.2039 296.241 70.7131 296.389 71.2469 296.528C72.1912 296.775 73.152 297.004 74.1129 297.226C74.4824 297.316 74.8437 297.406 75.2215 297.488C76.5272 297.783 77.8493 298.062 79.1879 298.316C79.7052 298.415 80.2226 298.505 80.7399 298.603C81.6022 298.759 82.4644 298.923 83.3349 299.063C83.9344 299.161 84.5421 299.251 85.1497 299.342C85.9545 299.465 86.7675 299.588 87.5805 299.694C88.221 299.784 88.8616 299.866 89.5021 299.94C90.3069 300.039 91.1199 300.137 91.9328 300.227C92.5816 300.301 93.2303 300.367 93.8873 300.432C94.7249 300.514 95.5625 300.588 96.4084 300.654C97.0489 300.703 97.6894 300.76 98.3382 300.81C99.2497 300.875 100.178 300.924 101.106 300.982C101.697 301.015 102.28 301.056 102.871 301.08V301.072Z" fill="#333333"/>
<path d="M371.756 149.576C371.608 148.625 370.738 147.977 369.761 148.117C337.25 153.136 313.821 165.889 294.539 181.824L300.041 181.914C303.178 179.446 306.43 177.067 309.805 174.796C326.131 163.839 345.535 155.391 370.295 151.569C371.247 151.422 371.904 150.528 371.756 149.576Z" fill="#333333"/>
<path d="M294.539 181.832L265.173 181.357L266.585 239.431L337.2 235.158C337.2 235.158 337.266 235.158 337.307 235.158V182.521L300.033 181.914L294.531 181.824L294.539 181.832ZM300.911 197.661V197.431H305.469C305.469 197.505 305.469 197.587 305.477 197.661C305.592 198.809 306.561 199.703 307.744 199.703C308.31 199.703 308.819 199.498 309.222 199.162C309.632 198.817 309.912 198.325 309.994 197.776C310.027 197.587 310.183 197.44 310.372 197.44H314.174C314.387 197.44 314.56 197.612 314.56 197.825V208.799C314.56 220.157 303.186 222.429 303.186 222.429C303.186 222.429 291.812 220.157 291.812 208.799V197.825C291.812 197.612 291.985 197.44 292.198 197.44H296.001C296.198 197.44 296.354 197.587 296.378 197.776C296.46 198.325 296.748 198.817 297.15 199.162C297.544 199.498 298.062 199.703 298.628 199.703C299.811 199.703 300.78 198.809 300.895 197.661H300.911Z" fill="white"/>
<path d="M266.594 239.422L265.181 181.349V181.275C265.156 180.315 264.36 179.593 263.391 179.569C262.43 179.593 261.666 180.389 261.691 181.357L262.479 213.851L262.603 218.993L263.145 241.309C263.153 241.784 263.358 242.227 263.711 242.547C264.031 242.842 264.458 243.006 264.894 243.006C264.927 243.006 264.959 243.006 265 243.006L337.422 238.627C338.383 238.569 339.122 237.741 339.056 236.782C338.999 235.855 338.21 235.149 337.315 235.149C337.282 235.149 337.249 235.149 337.208 235.149L266.594 239.422Z" fill="#333333"/>
<path d="M297.175 199.162C296.765 198.817 296.485 198.325 296.403 197.776C296.37 197.587 296.214 197.44 296.026 197.44H292.223C292.01 197.44 291.837 197.612 291.837 197.825V208.798C291.837 220.157 303.211 222.429 303.211 222.429C303.211 222.429 314.585 220.157 314.585 208.798V197.825C314.585 197.612 314.412 197.44 314.199 197.44H310.396C310.199 197.44 310.043 197.587 310.019 197.776C309.937 198.325 309.649 198.817 309.247 199.162C308.853 199.498 308.335 199.703 307.769 199.703C306.586 199.703 305.617 198.809 305.502 197.661C305.502 197.587 305.494 197.505 305.494 197.431H300.944V197.661C300.821 198.809 299.852 199.703 298.67 199.703C298.103 199.703 297.594 199.498 297.192 199.162H297.175Z" fill="#FEBE10"/>
<path d="M456.29 190.69C452.193 190.641 449.474 189.607 447.167 188.205C445.221 187.024 443.57 185.572 441.624 184.227C437.871 181.627 433.584 183.998 432.977 188.18C433.33 188.344 433.634 188.623 433.814 188.992C434.471 190.345 436.59 194.11 438.544 195.258C439.136 195.603 439.439 196.25 439.398 196.89C442.929 198.211 447.183 200.138 450.427 209.225C450.468 209.34 450.509 209.438 450.55 209.553C452.973 216.516 461.932 218.041 468.731 214.072C469.758 213.473 470.727 212.752 471.622 211.907C471.893 211.653 472.156 211.39 472.41 211.111C479.555 203.312 477.116 187.696 462.474 190.149C461.735 190.272 461.037 190.37 460.363 190.452C458.869 190.632 457.522 190.706 456.307 190.69H456.29Z" fill="#8A6239"/>
<path d="M430.661 190.509C430.948 191.108 433.551 196.382 436.77 198.276C437.05 198.44 437.353 198.514 437.657 198.514C437.813 198.514 437.969 198.489 438.125 198.448C438.544 198.334 438.93 198.063 439.168 197.653C439.308 197.415 439.382 197.153 439.398 196.898C439.447 196.259 439.144 195.619 438.544 195.266C436.59 194.118 434.463 190.354 433.814 189C433.633 188.623 433.33 188.353 432.976 188.189C432.517 187.975 431.975 187.951 431.482 188.189C431.079 188.385 430.784 188.713 430.628 189.099C430.447 189.542 430.439 190.05 430.661 190.509Z" fill="#DC2D0A"/>
</g>
<defs>
<clipPath id="clip0_412_297">
<rect width="481" height="420" fill="white"/>
</clipPath>
</defs>
</svg>
