<svg width="394" height="340" viewBox="0 0 394 340" fill="none" xmlns="http://www.w3.org/2000/svg">
<g clip-path="url(#clip0_412_585)">
<path d="M250.452 252.785C239.667 254.762 212.621 240.625 192.141 228.631C191.467 229.399 190.831 230.107 190.225 230.761C190.687 247.18 191.384 266.581 192.111 285.183C224.512 284.399 260.7 274.908 288.443 244.207C295.797 236.069 301.977 226.958 306.832 217.178C304.159 216.471 301.493 215.695 298.842 214.851C294.396 213.429 290.033 211.809 285.777 210.022C280.044 231.415 269.478 249.302 250.445 252.793L250.452 252.785Z" fill="#F4F4F4"/>
<path d="M291.564 131.309C292.442 145.85 293.381 178.75 286.61 206.736C287.11 206.949 287.61 207.17 288.118 207.383C291.95 208.957 295.866 210.387 299.849 211.664C302.652 212.562 305.469 213.376 308.302 214.106C311.824 206.478 314.55 198.477 316.413 190.241C320.678 171.365 320.034 152.124 314.603 136.047C311.718 127.507 306.696 119.673 300.387 113.209C299.592 118.152 298.676 123.293 298.138 124.678C297.365 126.67 293.715 129.674 291.564 131.309Z" fill="#F4F4F4"/>
<path d="M262.48 135.066C261.578 134.891 260.988 134.009 261.162 133.104C261.184 132.975 261.23 132.845 261.283 132.731C260.2 131.91 259.609 130.526 259.882 129.096L262.464 115.704C261.881 115.894 261.253 115.955 260.609 115.833C258.541 115.445 257.178 113.445 257.572 111.369L260.586 95.2611C244.764 95.5197 232.237 104.745 225.163 121.461C224.421 123.217 223.838 125.027 223.398 126.868C224.216 127.317 225.065 127.834 225.921 128.442L235.994 119.111C236.713 118.441 237.796 118.373 238.614 118.913C238.622 118.913 238.637 118.928 238.645 118.936C239.569 119.552 239.697 120.86 238.932 121.666C236.592 124.13 231.768 129.37 230.495 131.918C231.056 131.963 231.571 132.29 231.843 132.83C232.078 133.294 232.063 133.819 231.866 134.26C233.207 137.089 231.025 138.466 230.033 139.743C227.64 142.823 225.618 144.321 223.641 145.15C226.011 155.022 231.813 165.327 240.833 175.259C244.34 179.122 248.218 182.803 252.444 186.279L268.524 136.237L262.487 135.066H262.48Z" fill="#F4F4F4"/>
<path d="M38.4298 181.29C28.0233 139.272 32.6358 97.6187 36.3167 76.5298C36.9529 72.9022 37.6497 69.3354 38.3995 65.8599C-13.0877 127.362 -18.094 220.821 56.1223 280.475C56.8343 264.322 57.6674 246.229 58.5157 228.958C49.6391 215.269 42.8984 199.314 38.4298 181.29Z" fill="#F4F4F4"/>
<path d="M218.188 146.466L217.037 146.671L199.715 165.996C205.184 171.479 210.667 177.244 216.166 183.092C215.969 183.792 215.772 184.476 215.567 185.153L245.886 206.675L251.346 189.686C246.605 185.86 242.265 181.792 238.372 177.502C229.011 167.19 222.952 156.444 220.43 146.063C219.703 146.2 218.968 146.322 218.196 146.459L218.188 146.466Z" fill="#F4F4F4"/>
<path d="M310.119 218.007C305.113 228.213 298.668 237.864 290.904 246.458C274.818 264.269 254.338 276.665 230.041 283.297C218.15 286.544 205.524 288.324 192.24 288.658C192.997 307.777 193.77 325.794 194.323 338.517C279.226 348.13 359.478 311.329 385.313 217.901C360.417 223.893 334.757 223.939 310.112 218.007H310.119ZM289.352 301.861C286.822 301.861 284.777 299.807 284.777 297.267C284.777 294.727 286.822 292.674 289.352 292.674C291.882 292.674 293.926 294.727 293.926 297.267C293.926 299.807 291.882 301.861 289.352 301.861Z" fill="#F4F4F4"/>
<path d="M41.664 180.476C45.6099 196.401 51.3509 210.653 58.8036 223.118C59.7276 204.751 60.6592 187.686 61.4923 175.373C63.2192 149.949 74.2846 134.032 85.8802 128.077C84.5623 124.556 84.7895 120.708 87.8191 117.742C95.5823 110.152 90.4093 98.9572 93.9918 82.3706C97.5742 65.7839 109.564 62.1487 122.326 59.89C134.989 57.6465 149.834 60.7341 149.887 77.7771C149.887 79.7468 149.092 81.3895 147.728 82.766L148.016 84.6445L148.66 84.5836C149.478 84.5076 150.205 85.116 150.281 85.9449C150.356 86.7663 149.751 87.4964 148.925 87.5724L148.471 87.6105L149.872 96.8506C150.084 98.2576 148.031 98.6758 146.002 98.7899C146.017 99.7101 145.971 100.919 145.827 102.235C146.471 102.326 147.009 102.828 147.107 103.505C147.221 104.326 146.653 105.087 145.835 105.201C145.668 105.224 145.502 105.224 145.335 105.239C144.593 108.532 143.131 111.658 140.435 112.084C136.466 112.707 132.929 112.966 129.816 112.806L128.438 125.225C145.373 123.712 162.384 132.982 179.523 147.265L211.046 127.347C213.159 126.107 211.758 127.088 214.257 125.59C215.613 124.784 217.756 124.716 220.294 125.522C220.763 123.697 221.354 121.902 222.096 120.145C229.829 101.878 243.674 91.9073 261.215 91.8921L261.874 88.3786C262.26 86.3024 264.252 84.9335 266.32 85.3289C267.024 85.4658 267.645 85.7928 268.145 86.2415L268.251 85.7016C268.638 83.7015 270.569 82.3858 272.561 82.7736L293.412 86.8271C294.836 87.1009 295.896 88.1732 296.252 89.4889C296.381 89.4889 296.509 89.4889 296.646 89.5117C297.547 89.6866 298.138 90.5688 297.964 91.4738L295.472 104.41C295.676 104.57 295.888 104.722 296.1 104.882C297.486 102.935 298.925 102.395 300.024 102.364C301.092 102.334 301.917 103.307 301.758 104.372C301.591 105.52 301.334 107.224 301.039 109.171C308.521 116.304 314.475 125.187 317.777 134.96C326.146 159.722 323.465 188.94 311.604 214.904C336.113 220.692 361.622 220.456 386.32 214.22C387.502 209.634 388.555 204.919 389.471 200.059C419.797 39.3867 203.767 -54.0492 73.9968 33.7285C62.5072 41.5009 52.1386 50.5433 43.05 60.5288C41.7548 65.8447 40.5885 71.404 39.5963 77.1078C35.9684 97.9381 31.4014 139.059 41.664 180.484V180.476ZM348.708 165.981C348.708 165.121 349.405 164.422 350.261 164.422H351.117C355.442 164.422 358.948 160.901 358.948 156.558V152.261C358.948 151.402 359.645 150.702 360.501 150.702H361.266C362.122 150.702 362.819 151.402 362.819 152.261V156.558C362.819 160.901 366.325 164.422 370.65 164.422C371.506 164.422 372.203 165.129 372.203 165.988V166.749C372.203 167.616 371.506 168.308 370.65 168.308C366.325 168.308 362.819 171.829 362.819 176.172V180.468C362.819 181.328 362.122 182.027 361.266 182.027H360.501C359.645 182.027 358.948 181.328 358.948 180.468V176.172C358.948 171.829 355.442 168.308 351.117 168.308H350.261C349.405 168.308 348.708 167.608 348.708 166.749V165.981ZM180.561 40.2385C180.561 39.3791 181.258 38.6794 182.114 38.6794H186.393C190.718 38.6794 194.224 35.1583 194.224 30.8158V29.9564C194.224 29.0894 194.921 28.3974 195.777 28.3974H196.542C197.398 28.3974 198.095 29.097 198.095 29.9564V30.8158C198.095 35.1583 201.601 38.6794 205.926 38.6794H210.205C211.061 38.6794 211.758 39.3791 211.758 40.2385V41.0066C211.758 41.8659 211.061 42.5656 210.205 42.5656H205.926C201.601 42.5656 198.095 46.0868 198.095 50.4293C198.095 51.2886 197.398 51.9883 196.542 51.9883H195.777C194.921 51.9883 194.224 51.2886 194.224 50.4293C194.224 46.0868 190.718 42.5656 186.393 42.5656H182.114C181.258 42.5656 180.561 41.8659 180.561 41.0066V40.2385Z" fill="#F4F4F4"/>
<path d="M393.939 213.862C393.682 212.972 392.758 212.463 391.872 212.722C390.016 213.261 388.16 213.756 386.297 214.227C361.599 220.471 336.09 220.699 311.581 214.912C323.442 188.948 326.123 159.729 317.754 134.967C314.451 125.195 308.498 116.312 301.015 109.178C300.819 110.448 300.606 111.817 300.379 113.202C306.696 119.673 311.71 127.499 314.595 136.04C320.026 152.117 320.67 171.358 316.406 190.233C314.542 198.47 311.816 206.47 308.294 214.098C305.461 213.368 302.644 212.554 299.841 211.657C300.72 211.938 301.205 212.881 300.925 213.756C300.697 214.471 300.046 214.919 299.334 214.919C299.167 214.919 298.993 214.897 298.827 214.843C301.477 215.687 304.136 216.463 306.817 217.17C301.962 226.951 295.774 236.061 288.428 244.199C260.685 274.908 224.497 284.392 192.096 285.175C192.141 286.339 192.187 287.495 192.232 288.651C205.509 288.316 218.142 286.536 230.033 283.289C254.33 276.65 274.802 264.261 290.897 246.45C298.66 237.856 305.105 228.205 310.112 217.999C334.757 223.931 360.417 223.893 385.313 217.893C387.812 217.292 390.311 216.646 392.796 215.923C393.682 215.665 394.189 214.737 393.932 213.847L393.939 213.862Z" fill="#262626"/>
<path d="M220.422 146.071C222.944 156.452 229.004 167.198 238.365 177.51C237.744 176.826 237.797 175.768 238.471 175.145C239.153 174.521 240.205 174.574 240.826 175.251C231.806 165.319 226.004 155.014 223.634 145.143C222.566 145.599 221.505 145.858 220.422 146.071Z" fill="#262626"/>
<path d="M296.085 104.897C295.881 104.737 295.668 104.585 295.456 104.425L295.017 106.722C295.365 106.007 295.721 105.406 296.085 104.897Z" fill="#262626"/>
<path d="M225.163 121.453C232.237 104.737 244.765 95.5121 260.586 95.2535L261.215 91.8921C243.674 91.8997 229.829 101.878 222.096 120.145C221.354 121.902 220.755 123.697 220.293 125.522C221.278 125.834 222.316 126.275 223.399 126.86C223.838 125.02 224.421 123.21 225.163 121.453Z" fill="#262626"/>
<path d="M38.4298 181.29C42.8983 199.314 49.6315 215.269 58.5156 228.958C58.6141 226.996 58.7126 225.049 58.8034 223.118C51.3583 210.661 45.6098 196.401 41.6638 180.476C31.4012 139.059 35.9682 97.9305 39.5961 77.1002C40.5883 71.3964 41.7547 65.8371 43.0498 60.5211C48.3061 38.9684 55.6906 21.5147 62.454 15.5904C63.1508 14.982 63.219 13.9249 62.6131 13.2328C62.0072 12.5331 60.9544 12.4647 60.2652 13.0731C52.2672 20.0774 43.8678 40.6263 38.3995 65.8599C37.6496 69.3354 36.9453 72.8946 36.3166 76.5298C32.6433 97.6187 28.0233 139.272 38.4298 181.29Z" fill="#262626"/>
<path d="M215.567 185.161C212.174 196.447 207.228 205.93 201.631 213.847C202.381 214.387 202.548 215.429 202.01 216.182C201.972 216.243 197.859 221.962 193.118 227.498C192.777 227.894 192.452 228.266 192.126 228.639C212.606 240.64 239.652 254.778 250.437 252.793C269.47 249.302 280.028 231.415 285.769 210.022C279.627 207.444 273.697 204.493 268.054 201.192C262.033 197.663 256.443 193.823 251.331 189.701L245.87 206.691L215.552 185.168L215.567 185.161Z" fill="#D8AC8B"/>
<path d="M300.008 102.379C298.902 102.41 297.471 102.95 296.085 104.897C295.721 105.406 295.365 106.007 295.017 106.722L291.223 126.396L289.587 134.868C289.314 136.275 288.511 137.492 287.33 138.298C286.436 138.907 285.406 139.218 284.345 139.218C284.005 139.218 283.664 139.188 283.315 139.12L268.508 136.245L252.429 186.286C257.678 190.614 263.457 194.629 269.728 198.302C275.105 201.451 280.755 204.265 286.595 206.744C293.366 178.757 292.419 145.858 291.548 131.317C293.699 129.674 297.35 126.678 298.122 124.685C298.66 123.301 299.569 118.16 300.372 113.217C300.599 111.833 300.811 110.456 301.008 109.194C301.311 107.247 301.561 105.543 301.727 104.395C301.887 103.33 301.061 102.357 299.993 102.387L300.008 102.379Z" fill="#D8AC8B"/>
<path d="M217.044 146.671L218.195 146.466C218.968 146.329 219.703 146.208 220.43 146.071C221.52 145.865 222.573 145.599 223.641 145.143C225.61 144.306 227.64 142.816 230.033 139.736C231.025 138.466 233.199 137.089 231.866 134.252C231.715 134.595 231.457 134.891 231.101 135.074C229.549 135.857 227.382 137.196 225.875 139.142C225.55 139.568 225.057 139.789 224.557 139.789C224.201 139.789 223.838 139.675 223.535 139.439C222.808 138.869 222.679 137.819 223.24 137.089C225.125 134.655 227.738 133.028 229.594 132.085C229.882 131.94 230.185 131.895 230.488 131.918C231.76 129.377 236.585 124.138 238.925 121.666C239.69 120.86 239.561 119.552 238.637 118.936C238.63 118.936 238.614 118.921 238.607 118.913C237.789 118.373 236.706 118.441 235.986 119.111L225.913 128.442C225.057 127.834 224.217 127.309 223.391 126.868C222.308 126.282 221.27 125.841 220.286 125.529C217.748 124.723 215.605 124.792 214.249 125.598C211.742 127.096 213.144 126.115 211.038 127.355L179.516 147.272C186.226 152.862 192.959 159.22 199.715 165.996L217.037 146.671H217.044Z" fill="#D8AC8B"/>
<path d="M231.836 132.83C231.563 132.29 231.048 131.971 230.488 131.918C230.192 131.895 229.882 131.94 229.594 132.085C227.731 133.02 225.118 134.655 223.24 137.089C222.672 137.819 222.808 138.869 223.535 139.439C223.838 139.675 224.201 139.789 224.557 139.789C225.057 139.789 225.542 139.568 225.875 139.142C227.383 137.203 229.549 135.857 231.101 135.074C231.457 134.891 231.715 134.595 231.866 134.252C232.063 133.811 232.071 133.286 231.843 132.823L231.836 132.83Z" fill="#B7734C"/>
<path d="M269.357 89.8007L269.046 91.4434C269.857 91.6867 270.372 92.5005 270.213 93.3523C270.061 94.1584 269.365 94.7136 268.577 94.7136C268.531 94.7136 268.486 94.706 268.433 94.6984L267.729 98.4553C268.622 98.6378 269.205 99.5048 269.039 100.402C268.887 101.208 268.191 101.763 267.403 101.763C267.304 101.763 267.214 101.756 267.115 101.733L266.244 106.38C267.145 106.555 267.744 107.429 267.57 108.334C267.418 109.14 266.721 109.696 265.934 109.696C265.835 109.696 265.729 109.688 265.623 109.665L265.04 112.768C264.775 114.198 263.737 115.278 262.45 115.688L259.867 129.081C259.594 130.511 260.185 131.895 261.268 132.716C261.579 132.032 262.321 131.613 263.101 131.765L283.952 135.819C284.482 135.925 285.012 135.819 285.459 135.507C285.906 135.203 286.209 134.747 286.307 134.214L294.669 90.835C294.82 90.0593 295.479 89.5193 296.229 89.4889C295.873 88.1732 294.813 87.1009 293.389 86.8271L272.538 82.7736C270.546 82.3857 268.615 83.6938 268.228 85.7016L268.122 86.2415C269.084 87.1009 269.592 88.4242 269.342 89.7931L269.357 89.8007Z" fill="#3CBFDD"/>
<path d="M199.715 165.996C192.959 159.22 186.226 152.862 179.516 147.272C162.376 132.99 145.365 123.712 128.43 125.233L128.354 125.94C131.323 125.286 134.383 125.111 137.738 125.925C138.632 126.145 139.185 127.05 138.965 127.948C138.746 128.845 137.844 129.393 136.951 129.18C131.626 127.887 127.021 129.606 121.697 131.598C116.971 133.363 111.737 135.317 105.231 135.378C105.216 135.378 105.209 135.378 105.193 135.378C103.747 136.412 101.596 137.119 98.7707 137.538C93.7947 138.268 87.9477 133.583 85.8876 128.092C74.292 134.047 63.219 149.964 61.4998 175.388C60.6666 187.701 59.7275 204.759 58.811 223.133C58.7126 225.065 58.6141 227.011 58.5232 228.974C57.6749 246.252 56.8418 264.345 56.1299 280.49C57.675 281.73 59.2503 282.962 60.8635 284.171C101.512 314.698 148.599 333.346 194.345 338.525C193.785 325.801 193.012 307.785 192.263 288.666C192.217 287.51 192.172 286.354 192.126 285.19C191.399 266.588 190.702 247.188 190.24 230.768C184.204 237.286 181.22 238.594 179.364 238.594C179.114 238.594 178.895 238.571 178.683 238.533C178.402 238.487 178.137 238.366 177.918 238.183L177.577 237.902L158.248 222.091C157.536 221.505 157.43 220.456 158.006 219.733C158.582 219.011 159.634 218.912 160.346 219.49L179.584 235.225C181.932 234.829 189.65 227.726 199.329 214.227C199.867 213.474 200.904 213.307 201.654 213.847C207.251 205.93 212.189 196.447 215.59 185.161C215.795 184.476 215.999 183.792 216.188 183.1C210.69 177.251 205.206 171.487 199.738 166.004L199.715 165.996Z" fill="#FEBE10"/>
<path d="M193.126 227.491C197.859 221.962 201.972 216.235 202.017 216.174C202.555 215.421 202.389 214.379 201.639 213.839C200.889 213.299 199.851 213.467 199.314 214.22C189.634 227.726 181.924 234.822 179.568 235.217L160.331 219.482C159.619 218.897 158.566 219.003 157.991 219.726C157.415 220.448 157.513 221.498 158.233 222.083L177.561 237.894L177.902 238.176C178.122 238.358 178.387 238.48 178.667 238.526C178.879 238.564 179.106 238.586 179.349 238.586C181.197 238.586 184.189 237.278 190.225 230.761C190.831 230.107 191.475 229.392 192.141 228.631C192.467 228.266 192.792 227.886 193.133 227.491H193.126Z" fill="#F68C1F"/>
<path d="M135.489 92.8123C136.292 93.7097 137.534 94.166 139.192 94.166C139.42 94.166 139.639 94.1584 139.851 94.1356C139.722 93.6565 139.662 93.1393 139.692 92.5613C139.776 91.162 140.245 89.679 140.912 88.2949L134.284 88.8881C134.269 89.717 134.375 91.5651 135.496 92.8123H135.489Z" fill="#D8AC8B"/>
<path d="M144.691 84.9487L148.016 84.6521L147.728 82.7736C146.902 83.595 145.872 84.3175 144.691 84.9563V84.9487Z" fill="#D8AC8B"/>
<path d="M139.851 94.1356C141.169 94.0291 142.169 93.588 142.873 92.7971C144.396 91.0936 144.146 88.2569 144.146 88.2341C144.138 88.158 144.146 88.082 144.146 88.0059L140.919 88.2949C140.245 89.6866 139.783 91.1696 139.7 92.5614C139.662 93.1393 139.73 93.6565 139.859 94.1356H139.851Z" fill="#D8AC8B"/>
<path d="M145.418 102.243C143.82 102.463 142.533 101.999 141.586 100.858C141.056 100.22 140.117 100.136 139.48 100.668C138.844 101.201 138.761 102.144 139.291 102.783C140.662 104.433 142.54 105.3 144.676 105.3C144.896 105.3 145.115 105.269 145.335 105.254C145.502 105.239 145.668 105.239 145.835 105.216C146.653 105.102 147.221 104.342 147.107 103.52C147.009 102.843 146.471 102.334 145.827 102.25C145.691 102.235 145.555 102.227 145.418 102.25V102.243Z" fill="#DC2D0A"/>
<path d="M121.697 131.591C127.029 129.598 131.626 127.879 136.951 129.172C137.837 129.385 138.746 128.838 138.965 127.94C139.185 127.043 138.632 126.138 137.738 125.917C134.383 125.103 131.323 125.278 128.354 125.932C125.726 126.51 123.159 127.461 120.531 128.45C116.441 129.978 112.252 131.537 107.284 131.925C107.133 133.34 106.421 134.481 105.186 135.363C105.201 135.363 105.209 135.363 105.224 135.363C111.73 135.302 116.963 133.347 121.689 131.583L121.697 131.591Z" fill="#F68C1F"/>
<path d="M107.292 131.933C107.473 130.222 106.845 128.1 105.322 125.491C101.058 118.198 123.053 118.35 123.848 110.852C123.946 109.901 123.818 108.851 123.545 107.726C122.894 105.094 121.424 102.098 120.144 99.2842C117.327 100.144 114.025 99.4743 112.199 96.7289C110.851 94.706 110.654 88.1732 116.161 87.291C117.062 87.1465 117.865 87.1617 118.577 87.291L144.691 84.9563C145.873 84.325 146.903 83.6026 147.728 82.7736C149.092 81.4047 149.895 79.762 149.887 77.7847C149.834 60.7417 134.989 57.6617 122.326 59.8975C109.564 62.1563 97.5743 65.7915 93.9918 82.3781C90.4094 98.9648 95.5823 110.152 87.8191 117.749C84.7896 120.715 84.5548 124.563 85.8802 128.085C87.9403 133.575 93.7949 138.268 98.7634 137.53C101.588 137.112 103.739 136.412 105.186 135.37C106.421 134.48 107.132 133.347 107.284 131.933H107.292Z" fill="#C9650A"/>
<path d="M144.691 84.9487L118.576 87.2834C120.916 87.6789 122.249 89.1999 122.765 89.9224L131.293 89.1619C131.285 88.5687 131.323 88.1732 131.331 88.1276C131.429 87.3062 132.164 86.713 132.989 86.8119C133.807 86.9108 134.39 87.6485 134.3 88.4698C134.3 88.485 134.284 88.6447 134.277 88.8957L140.904 88.3025L144.13 88.0135C144.168 87.2834 144.714 86.675 145.456 86.5914C146.198 86.5077 146.895 87.0172 147.061 87.7473L148.455 87.6256L148.91 87.5876C149.727 87.5116 150.341 86.7891 150.265 85.9601C150.189 85.1312 149.462 84.5228 148.644 84.5988L148.001 84.6597L144.676 84.9563L144.691 84.9487Z" fill="#262626"/>
<path d="M139.192 97.1624C140.101 97.1624 140.934 97.0559 141.699 96.8506C143.055 96.4856 144.191 95.8087 145.092 94.8048C147.524 92.0898 147.13 88.0896 147.115 87.9146C147.115 87.8538 147.092 87.8006 147.077 87.7397C146.91 87.0096 146.213 86.5001 145.471 86.5838C144.729 86.6598 144.176 87.2758 144.146 88.0059C144.146 88.082 144.146 88.158 144.146 88.2341C144.146 88.2645 144.403 91.1012 142.873 92.7971C142.161 93.588 141.169 94.0291 139.851 94.1356C139.639 94.1508 139.42 94.166 139.192 94.166C137.534 94.166 136.292 93.7097 135.489 92.8123C134.375 91.5651 134.269 89.7094 134.277 88.8881C134.277 88.6371 134.292 88.4774 134.3 88.4622C134.391 87.6409 133.807 86.9032 132.989 86.8043C132.164 86.7054 131.429 87.2986 131.331 88.12C131.331 88.1732 131.285 88.5611 131.293 89.1543C131.316 90.5156 131.603 92.9492 133.247 94.7972C134.64 96.3715 136.64 97.1624 139.192 97.1624Z" fill="#262626"/>
<path d="M149.871 96.8582L148.47 87.618L147.077 87.7397C147.092 87.8006 147.107 87.8538 147.115 87.9146C147.13 88.082 147.524 92.0898 145.092 94.8048C144.199 95.8011 143.063 96.4856 141.699 96.8506C140.934 97.0559 140.094 97.1624 139.192 97.1624C136.64 97.1624 134.64 96.3639 133.247 94.7972C131.611 92.9492 131.315 90.5156 131.293 89.1543L122.765 89.9148C122.25 89.1923 120.909 87.6713 118.576 87.2758C117.864 87.1541 117.061 87.1389 116.16 87.2758C110.646 88.158 110.851 94.6832 112.199 96.7137C114.024 99.4591 117.327 100.128 120.144 99.269C121.424 102.083 122.893 105.079 123.545 107.711C123.825 108.836 123.954 109.893 123.848 110.836C123.052 118.335 101.058 118.19 105.322 125.476C106.844 128.085 107.473 130.206 107.291 131.918C112.26 131.53 116.448 129.971 120.538 128.442C123.166 127.461 125.726 126.51 128.362 125.925L128.437 125.218L129.816 112.798C132.929 112.958 136.466 112.7 140.434 112.076C143.131 111.65 144.592 108.532 145.335 105.231C145.115 105.247 144.888 105.277 144.676 105.277C142.54 105.277 140.662 104.402 139.291 102.76C138.761 102.121 138.851 101.178 139.48 100.646C140.116 100.113 141.055 100.197 141.586 100.836C142.54 101.984 143.827 102.448 145.418 102.22C145.554 102.197 145.691 102.205 145.827 102.22C145.971 100.912 146.016 99.7025 146.001 98.7747C148.031 98.6606 150.083 98.2347 149.871 96.8354V96.8582Z" fill="#D8AC8B"/>
<path d="M350.261 168.308H351.117C355.442 168.308 358.948 171.829 358.948 176.172V180.468C358.948 181.328 359.645 182.027 360.501 182.027H361.266C362.122 182.027 362.819 181.328 362.819 180.468V176.172C362.819 171.829 366.325 168.308 370.65 168.308C371.506 168.308 372.203 167.608 372.203 166.749V165.981C372.203 165.121 371.513 164.414 370.65 164.414C366.325 164.414 362.819 160.893 362.819 156.55V152.254C362.819 151.394 362.122 150.695 361.266 150.695H360.501C359.645 150.695 358.948 151.394 358.948 152.254V156.55C358.948 160.893 355.442 164.414 351.117 164.414H350.261C349.405 164.414 348.708 165.114 348.708 165.973V166.741C348.708 167.601 349.405 168.3 350.261 168.3V168.308Z" fill="white"/>
<path d="M182.114 42.5656H186.393C190.718 42.5656 194.224 46.0867 194.224 50.4292C194.224 51.2886 194.921 51.9883 195.777 51.9883H196.542C197.398 51.9883 198.095 51.2886 198.095 50.4292C198.095 46.0867 201.601 42.5656 205.926 42.5656H210.205C211.061 42.5656 211.758 41.8659 211.758 41.0065V40.2384C211.758 39.3791 211.061 38.6794 210.205 38.6794H205.926C201.601 38.6794 198.095 35.1582 198.095 30.8158V29.9564C198.095 29.097 197.398 28.3973 196.542 28.3973H195.777C194.921 28.3973 194.224 29.097 194.224 29.9564V30.8158C194.224 35.1582 190.718 38.6794 186.393 38.6794H182.114C181.258 38.6794 180.561 39.3791 180.561 40.2384V41.0065C180.561 41.8659 181.258 42.5656 182.114 42.5656Z" fill="white"/>
<path d="M289.352 292.674C286.822 292.674 284.777 294.727 284.777 297.267C284.777 299.807 286.822 301.861 289.352 301.861C291.882 301.861 293.927 299.807 293.927 297.267C293.927 294.727 291.882 292.674 289.352 292.674Z" fill="white"/>
<path d="M257.572 111.361C257.186 113.437 258.542 115.437 260.609 115.825C261.253 115.947 261.882 115.878 262.465 115.696C263.752 115.285 264.79 114.205 265.055 112.776L265.638 109.673L260.087 108.616C259.185 108.441 258.587 107.566 258.761 106.661C258.935 105.756 259.806 105.155 260.708 105.33L266.259 106.387L267.13 101.741C267.13 101.741 267.115 101.741 267.108 101.741L261.556 100.684C260.655 100.509 260.056 99.6341 260.23 98.7291C260.405 97.8241 261.268 97.2233 262.177 97.3982L267.729 98.4553H267.744L268.448 94.6984C268.395 94.6984 268.335 94.6984 268.282 94.6832L262.73 93.6261C261.829 93.4511 261.23 92.5766 261.404 91.6716C261.579 90.7665 262.442 90.1657 263.351 90.3407L268.903 91.3978C268.956 91.4054 269.009 91.4282 269.062 91.4434L269.372 89.8007C269.63 88.4394 269.115 87.1161 268.153 86.2491C267.653 85.8004 267.039 85.4658 266.327 85.3365C264.26 84.9487 262.268 86.31 261.882 88.3862L261.223 91.8997L260.594 95.2611L257.58 111.369L257.572 111.361Z" fill="#D8AC8B"/>
<path d="M267.577 108.342C267.751 107.437 267.153 106.562 266.251 106.387L260.7 105.33C259.791 105.155 258.928 105.756 258.753 106.661C258.579 107.566 259.177 108.441 260.079 108.616L265.63 109.673C265.736 109.696 265.835 109.703 265.941 109.703C266.729 109.703 267.425 109.14 267.577 108.342Z" fill="#B7734C"/>
<path d="M269.047 100.402C269.213 99.4972 268.63 98.6302 267.736 98.4553H267.721L262.17 97.3982C261.261 97.2232 260.397 97.824 260.223 98.729C260.049 99.634 260.647 100.509 261.548 100.684L267.1 101.741C267.1 101.741 267.115 101.741 267.123 101.741C267.221 101.756 267.32 101.771 267.411 101.771C268.198 101.771 268.895 101.208 269.047 100.41V100.402Z" fill="#B7734C"/>
<path d="M270.213 93.3447C270.372 92.4929 269.857 91.6792 269.046 91.4358C268.993 91.4206 268.94 91.3978 268.887 91.3902L263.336 90.3331C262.427 90.1581 261.563 90.7589 261.389 91.6639C261.215 92.569 261.813 93.4435 262.714 93.6185L268.266 94.6756C268.327 94.6832 268.38 94.6832 268.433 94.6908C268.478 94.6908 268.531 94.706 268.577 94.706C269.364 94.706 270.061 94.1432 270.213 93.3447Z" fill="#B7734C"/>
<path d="M294.684 90.8426L286.322 134.222C286.224 134.754 285.921 135.211 285.474 135.515C285.027 135.819 284.489 135.925 283.967 135.827L263.116 131.773C262.336 131.621 261.594 132.039 261.283 132.724C261.23 132.838 261.185 132.967 261.162 133.096C260.988 134.001 261.578 134.884 262.48 135.058L268.516 136.23L283.323 139.104C283.664 139.173 284.012 139.203 284.353 139.203C285.406 139.203 286.443 138.891 287.337 138.283C288.519 137.477 289.321 136.26 289.594 134.853L291.23 126.381L295.025 106.707L295.464 104.41L297.956 91.4738C298.13 90.5688 297.539 89.6866 296.638 89.5117C296.509 89.4889 296.373 89.4813 296.244 89.4889C295.494 89.5269 294.835 90.0669 294.684 90.835V90.8426Z" fill="#262626"/>
<path d="M286.61 206.736C280.763 204.257 275.121 201.443 269.743 198.295C263.472 194.621 257.686 190.606 252.444 186.279C248.218 182.796 244.34 179.115 240.834 175.259C240.213 174.582 239.16 174.529 238.478 175.152C237.797 175.776 237.751 176.833 238.372 177.518C242.265 181.807 246.605 185.876 251.346 189.701C256.459 193.823 262.041 197.663 268.069 201.192C273.712 204.493 279.642 207.444 285.785 210.022C290.041 211.809 294.404 213.429 298.85 214.851C299.016 214.904 299.19 214.927 299.357 214.927C300.061 214.927 300.72 214.471 300.947 213.763C301.228 212.881 300.743 211.938 299.864 211.664C295.881 210.387 291.957 208.965 288.132 207.383C287.625 207.177 287.133 206.949 286.625 206.736H286.61Z" fill="#262626"/>
</g>
<defs>
<clipPath id="clip0_412_585">
<rect width="394" height="340" fill="white"/>
</clipPath>
</defs>
</svg>
