<svg width="1280" height="579" viewBox="0 0 1280 579" fill="none" xmlns="http://www.w3.org/2000/svg">
<g clip-path="url(#clip0_412_2241)">
<path d="M277.95 519.542C277.493 519.3 277.069 518.977 276.732 518.547C276.51 518.264 276.356 517.962 276.228 517.652C273.758 517.989 271.181 517.074 269.525 514.976L243.596 482.026C241.113 478.872 241.665 474.306 244.821 471.825L312.089 418.977L313.745 415.695C314.694 413.819 316.989 413.066 318.866 414.008C320.185 414.673 320.939 416.005 320.946 417.39C321.861 417.854 322.695 418.499 323.368 419.354L349.297 452.304C350.953 454.402 351.228 457.125 350.32 459.445C350.596 459.647 350.852 459.869 351.074 460.151C352.372 461.805 352.083 464.199 350.434 465.497L298.563 506.241C298.112 506.886 297.507 507.357 296.807 507.619L282.089 519.179C281.887 519.34 281.652 519.428 281.43 519.535H402.736C414.385 500.586 421.122 478.287 421.122 454.415C421.122 385.61 365.307 329.837 296.45 329.837C282.002 329.837 268.139 332.318 255.238 336.837L282.668 350.912C285.965 352.599 287.244 356.654 285.521 359.929C284 362.821 280.602 364.179 277.5 363.137L254.343 350.515C251.624 349.035 249.013 352.626 251.268 354.751L280.474 382.281C285.117 387.688 284.922 395.73 280.023 400.908L276.827 404.291C276.759 405.098 276.497 405.891 275.911 406.53C275.272 407.229 274.438 407.619 273.57 407.727L264.276 417.538C264.39 418.587 264.108 419.663 263.347 420.503C262.594 421.331 261.564 421.747 260.528 421.747C260.46 421.747 260.393 421.714 260.326 421.707L259.04 423.065C254.061 428.324 245.884 428.889 240.231 424.37L192.263 386.02C179.329 405.656 171.785 429.144 171.785 454.402C171.785 478.274 178.515 500.572 190.164 519.522H277.957L277.95 519.542ZM318.711 357.246L327.46 357.986L324.6 380.546L317.742 379.968L318.711 357.246ZM317.426 384.554C318.395 383.781 319.593 383.451 321.013 383.572C322.399 383.693 323.509 384.211 324.331 385.139C325.158 386.067 325.522 387.163 325.414 388.421C325.313 389.651 324.775 390.647 323.806 391.406C322.837 392.166 321.659 392.489 320.273 392.368C318.853 392.247 317.729 391.736 316.901 390.821C316.073 389.907 315.71 388.838 315.818 387.614C315.925 386.356 316.457 385.334 317.433 384.561L317.426 384.554Z" fill="#F4F4F4"/>
<path d="M279.734 519.999C279.115 519.999 278.502 519.838 277.95 519.542H190.157C212.088 555.209 251.483 579 296.443 579C341.403 579 380.798 555.209 402.73 519.542H281.423C280.884 519.818 280.312 519.999 279.727 519.999H279.734Z" fill="#ED6B31"/>
<path d="M277.378 513.194L292.661 501.191L312.85 461.227L298.644 454.065C296.766 453.117 296.012 450.824 296.961 448.948L312.103 418.97L244.834 471.818C241.678 474.299 241.133 478.865 243.609 482.019L269.538 514.969C271.194 517.067 273.764 517.982 276.241 517.646C275.602 516.106 276.012 514.277 277.392 513.194H277.378Z" fill="#3CBFDD"/>
<path d="M320.555 419.118L305.474 448.975L319.68 456.137C321.558 457.085 322.311 459.378 321.363 461.254L306.807 490.068L345.717 459.506C347.09 458.43 348.967 458.457 350.313 459.438C351.222 457.118 350.946 454.402 349.29 452.297L323.361 419.347C322.688 418.493 321.854 417.847 320.939 417.383C320.939 417.968 320.824 418.56 320.548 419.118H320.555Z" fill="#3CBFDD"/>
<path d="M298.556 506.241L296.8 507.619C297.5 507.357 298.105 506.886 298.556 506.241Z" fill="#262626"/>
<path d="M298.637 454.065L312.843 461.227L292.654 501.191L306.807 490.075L321.363 461.261C322.311 459.384 321.558 457.091 319.68 456.143L305.474 448.982L320.555 419.125C320.838 418.567 320.952 417.975 320.945 417.39C320.939 416.005 320.192 414.673 318.866 414.008C316.995 413.066 314.7 413.813 313.745 415.695L312.089 418.977L296.948 448.955C295.999 450.831 296.753 453.124 298.63 454.072L298.637 454.065Z" fill="#262626"/>
<path d="M259.034 423.086L260.319 421.727C259.471 421.68 258.637 421.384 257.957 420.772L230.884 396.188C229.323 394.775 229.208 392.361 230.628 390.808C232.048 389.248 234.464 389.14 236.012 390.552L263.085 415.137C263.805 415.79 264.175 416.657 264.276 417.551L273.569 407.74C273.408 407.76 273.253 407.787 273.092 407.787C272.176 407.787 271.261 407.458 270.528 406.799L243.461 382.214C241.9 380.802 241.786 378.388 243.206 376.835C244.632 375.274 247.035 375.167 248.589 376.579L275.656 401.164C276.571 401.991 276.921 403.161 276.827 404.304L280.023 400.922C284.922 395.744 285.117 387.701 280.474 382.295L251.268 354.765C249.013 352.64 251.624 349.049 254.343 350.528L277.499 363.15C280.602 364.192 283.994 362.834 285.521 359.943C287.244 356.668 285.965 352.613 282.668 350.925L255.238 336.851C229.222 345.956 207.156 363.426 192.256 386.047L240.225 424.397C245.877 428.916 254.061 428.351 259.034 423.092V423.086Z" fill="#D8AC8B"/>
<path d="M236.012 390.552C234.464 389.14 232.048 389.255 230.629 390.808C229.215 392.361 229.33 394.775 230.884 396.187L257.957 420.772C258.63 421.384 259.471 421.68 260.319 421.727C260.387 421.727 260.454 421.768 260.521 421.768C261.558 421.768 262.594 421.351 263.341 420.523C264.101 419.683 264.384 418.6 264.27 417.558C264.175 416.664 263.798 415.796 263.078 415.144L236.005 390.559L236.012 390.552Z" fill="#CC8A5C"/>
<path d="M275.656 401.164L248.589 376.579C247.035 375.167 244.632 375.274 243.206 376.834C241.792 378.388 241.907 380.802 243.461 382.214L270.528 406.799C271.254 407.465 272.176 407.787 273.092 407.787C273.253 407.787 273.408 407.76 273.569 407.74C274.437 407.633 275.279 407.243 275.911 406.543C276.497 405.898 276.759 405.104 276.826 404.304C276.921 403.161 276.571 401.997 275.656 401.164Z" fill="#CC8A5C"/>
<path d="M320.266 392.361C321.652 392.482 322.83 392.16 323.799 391.4C324.768 390.64 325.306 389.645 325.407 388.414C325.515 387.157 325.152 386.06 324.324 385.132C323.496 384.204 322.393 383.687 321.006 383.566C319.586 383.445 318.388 383.774 317.419 384.547C316.444 385.321 315.912 386.343 315.804 387.6C315.703 388.831 316.06 389.9 316.888 390.808C317.715 391.716 318.839 392.234 320.259 392.355L320.266 392.361Z" fill="#262626"/>
<path d="M327.466 357.986L318.711 357.246L317.742 379.961L324.6 380.54L327.466 357.986Z" fill="#262626"/>
<path d="M281.43 519.542C281.652 519.428 281.887 519.347 282.089 519.186L296.807 507.626L298.563 506.248L350.434 465.504C352.09 464.206 352.379 461.812 351.074 460.158C350.852 459.875 350.596 459.654 350.32 459.452C348.974 458.47 347.096 458.436 345.724 459.519L306.813 490.082L292.661 501.198L277.378 513.201C276.005 514.283 275.588 516.112 276.228 517.652C276.355 517.968 276.517 518.271 276.732 518.547C277.075 518.977 277.493 519.3 277.95 519.542C278.502 519.838 279.115 519.999 279.734 519.999C280.319 519.999 280.884 519.818 281.43 519.542Z" fill="#262626"/>
<path d="M640 329.85C571.143 329.85 515.329 385.623 515.329 454.429C515.329 523.234 571.143 579.007 640 579.007C708.857 579.007 764.672 523.234 764.672 454.429C764.672 385.623 708.857 329.85 640 329.85ZM563.223 451.544C569.138 448.504 573.647 444.019 577.086 439.11C577.698 438.236 577.247 437.025 576.211 436.763C565.336 434.026 557.274 424.215 557.274 412.494V397.627C557.274 383.788 568.499 372.564 582.355 372.564H656.171C670.021 372.564 681.246 383.781 681.246 397.62V412.488C681.246 426.327 670.021 437.55 656.165 437.55H601.581C601.11 437.55 600.673 437.779 600.383 438.148C589.441 452.445 572.947 454.502 563.862 454.422C562.267 454.408 561.803 452.27 563.223 451.544ZM708.446 502.132C708.446 513.853 700.384 523.664 689.509 526.401C688.473 526.663 688.022 527.874 688.635 528.748C692.073 533.657 696.582 538.142 702.497 541.181C703.917 541.908 703.453 544.046 701.858 544.059C692.773 544.14 676.279 542.082 665.337 527.786C665.054 527.416 664.61 527.188 664.139 527.188H609.549C595.7 527.188 584.475 515.971 584.475 502.125V487.258C584.475 473.418 595.7 462.195 609.556 462.195H683.365C697.215 462.195 708.44 473.412 708.44 487.251V502.119L708.446 502.132Z" fill="#3CBFDD"/>
<path d="M600.383 438.155C600.673 437.785 601.11 437.557 601.581 437.557H656.165C670.014 437.557 681.246 426.34 681.246 412.494V397.627C681.246 383.788 670.021 372.571 656.171 372.571H582.355C568.506 372.571 557.274 383.788 557.274 397.633V412.501C557.274 424.222 565.336 434.033 576.211 436.77C577.247 437.032 577.698 438.243 577.086 439.117C573.647 444.026 569.138 448.511 563.223 451.55C561.803 452.277 562.267 454.415 563.862 454.428C572.947 454.509 589.441 452.451 600.383 438.155ZM622.201 420.907C621.299 421.747 620.148 422.164 618.762 422.164C617.375 422.164 616.171 421.747 615.269 420.907C614.367 420.066 613.917 419.031 613.917 417.8C613.917 416.569 614.367 415.473 615.269 414.619C616.171 413.765 617.335 413.335 618.762 413.335C620.188 413.335 621.299 413.765 622.201 414.619C623.102 415.473 623.553 416.536 623.553 417.8C623.553 419.064 623.102 420.066 622.201 420.907ZM611.756 391.662C612.624 390.115 613.923 388.885 615.646 387.984C617.376 387.083 619.455 386.632 621.891 386.632C625.276 386.632 627.995 387.52 630.034 389.288C632.073 391.063 633.096 393.558 633.096 396.786C633.096 399.758 632.12 402.071 630.175 403.739C628.23 405.407 625.66 406.247 622.463 406.281L622.228 409.838H615.108L614.872 401.016H617.719C620.155 401.016 622.012 400.713 623.298 400.115C624.576 399.516 625.222 398.427 625.222 396.84C625.222 395.737 624.919 394.863 624.32 394.231C623.721 393.599 622.88 393.283 621.804 393.283C620.666 393.283 619.778 393.605 619.145 394.258C618.513 394.903 618.197 395.784 618.197 396.887H610.552C610.484 394.964 610.895 393.222 611.763 391.669L611.756 391.662Z" fill="#F4F4F4"/>
<path d="M683.365 462.202H609.556C595.706 462.202 584.475 473.419 584.475 487.264V502.132C584.475 515.971 595.699 527.194 609.549 527.194H664.139C664.61 527.194 665.047 527.423 665.337 527.793C676.279 542.089 692.773 544.147 701.858 544.066C703.453 544.053 703.917 541.914 702.497 541.188C696.582 538.149 692.073 533.663 688.634 528.755C688.022 527.88 688.466 526.67 689.509 526.408C700.384 523.671 708.446 513.86 708.446 502.139V487.271C708.446 473.432 697.221 462.216 683.372 462.216L683.365 462.202ZM643.284 508.292C642.382 509.132 641.232 509.549 639.845 509.549C638.459 509.549 637.254 509.132 636.359 508.292C635.458 507.451 635.007 506.416 635.007 505.185C635.007 503.955 635.458 502.858 636.359 502.004C637.261 501.15 638.425 500.72 639.845 500.72C641.265 500.72 642.382 501.15 643.284 502.004C644.186 502.858 644.637 503.921 644.637 505.185C644.637 506.449 644.186 507.451 643.284 508.292ZM643.284 488.986C642.382 489.826 641.232 490.243 639.845 490.243C638.459 490.243 637.254 489.826 636.359 488.986C635.458 488.145 635.007 487.11 635.007 485.879C635.007 484.649 635.458 483.552 636.359 482.698C637.261 481.844 638.425 481.414 639.845 481.414C641.265 481.414 642.382 481.844 643.284 482.698C644.186 483.552 644.637 484.615 644.637 485.879C644.637 487.143 644.186 488.145 643.284 488.986ZM658.533 505.535C657.255 509.018 655.465 511.863 653.163 514.062H647.154V513.497C649.522 511.029 651.366 508.117 652.665 504.755C653.971 501.393 654.623 497.896 654.623 494.271C654.623 490.647 653.95 487.076 652.598 483.626C651.245 480.177 649.327 477.225 646.831 474.757V474.185H652.806C655.249 476.411 657.134 479.296 658.459 482.84C659.785 486.383 660.451 490.19 660.451 494.265C660.451 498.34 659.812 502.052 658.533 505.535Z" fill="#FEBE10"/>
<path d="M618.762 413.342C617.335 413.342 616.171 413.772 615.269 414.626C614.367 415.48 613.917 416.543 613.917 417.807C613.917 419.071 614.367 420.073 615.269 420.914C616.171 421.754 617.335 422.171 618.762 422.171C620.188 422.171 621.299 421.754 622.201 420.914C623.102 420.073 623.553 419.037 623.553 417.807C623.553 416.576 623.102 415.48 622.201 414.626C621.299 413.772 620.148 413.342 618.762 413.342Z" fill="#FEBE10"/>
<path d="M619.139 394.251C619.771 393.599 620.66 393.276 621.797 393.276C622.874 393.276 623.715 393.592 624.314 394.224C624.913 394.856 625.216 395.723 625.216 396.833C625.216 398.413 624.576 399.503 623.291 400.108C622.006 400.713 620.148 401.009 617.712 401.009H614.865L615.101 409.832H622.221L622.456 406.274C625.653 406.241 628.224 405.393 630.168 403.732C632.113 402.071 633.089 399.758 633.089 396.779C633.089 393.551 632.066 391.057 630.027 389.281C627.988 387.513 625.269 386.625 621.884 386.625C619.448 386.625 617.369 387.076 615.639 387.977C613.917 388.878 612.618 390.102 611.75 391.655C610.882 393.202 610.471 394.943 610.538 396.873H618.183C618.183 395.771 618.499 394.89 619.132 394.244L619.139 394.251Z" fill="#FEBE10"/>
<path d="M639.839 481.421C638.412 481.421 637.248 481.851 636.353 482.705C635.451 483.559 635 484.622 635 485.886C635 487.15 635.451 488.152 636.353 488.992C637.254 489.833 638.419 490.25 639.839 490.25C641.258 490.25 642.376 489.833 643.277 488.992C644.179 488.152 644.63 487.116 644.63 485.886C644.63 484.655 644.179 483.559 643.277 482.705C642.376 481.851 641.225 481.421 639.839 481.421Z" fill="#262626"/>
<path d="M639.839 500.727C638.412 500.727 637.248 501.157 636.353 502.011C635.451 502.865 635 503.928 635 505.192C635 506.456 635.451 507.458 636.353 508.299C637.254 509.139 638.419 509.556 639.839 509.556C641.258 509.556 642.376 509.139 643.277 508.299C644.179 507.458 644.63 506.422 644.63 505.192C644.63 503.961 644.179 502.865 643.277 502.011C642.376 501.157 641.225 500.727 639.839 500.727Z" fill="#262626"/>
<path d="M652.806 474.178H646.831V474.75C649.32 477.218 651.245 480.17 652.598 483.62C653.95 487.069 654.623 490.62 654.623 494.265C654.623 497.909 653.971 501.386 652.665 504.748C651.36 508.11 649.522 511.029 647.154 513.49V514.055H653.163C655.465 511.849 657.255 509.011 658.533 505.528C659.812 502.045 660.451 498.286 660.451 494.258C660.451 490.23 659.785 486.37 658.459 482.833C657.134 479.289 655.249 476.404 652.806 474.178Z" fill="#262626"/>
<path d="M1020.72 463.5C1012.38 457.118 1000.43 458.699 994.048 467.03C987.662 475.362 989.243 487.291 997.581 493.68C1005.92 500.061 1017.86 498.481 1024.25 490.149C1030.64 481.817 1029.06 469.888 1020.72 463.5Z" fill="#F4F4F4"/>
<path d="M915.844 477.783C912.412 475.147 907.472 475.799 904.834 479.228C902.196 482.658 902.849 487.594 906.281 490.23C909.713 492.866 914.66 492.214 917.291 488.784C919.929 485.355 919.276 480.412 915.844 477.783Z" fill="#F4F4F4"/>
<path d="M983.557 329.85C914.7 329.85 858.885 385.623 858.885 454.429C858.885 523.234 914.7 579.007 983.557 579.007C1052.41 579.007 1108.23 523.234 1108.23 454.429C1108.23 385.623 1052.41 329.85 983.557 329.85ZM927.762 496.813C920.696 506.012 907.452 507.754 898.246 500.693C889.04 493.632 887.297 480.399 894.37 471.199C899.242 464.851 907.055 462.061 914.458 463.258L958.597 405.797C953.906 399.288 949.485 389.739 955.636 381.723L966.74 367.265C969.869 363.19 974.788 361.287 979.553 361.825C981.847 362.081 982.917 364.824 981.511 366.654L971.147 380.143C969.882 381.79 969.694 384.03 970.676 385.865L976.006 395.858C976.726 397.21 977.998 398.178 979.485 398.528L990.522 401.09C992.547 401.56 994.667 400.807 995.932 399.153L1006.29 385.67C1007.75 383.767 1010.7 384.258 1011.54 386.504C1013.2 390.922 1012.61 396.067 1009.53 400.088L998.422 414.545C991.511 423.536 981.269 421.559 974.001 418.405L930.245 475.369C933.314 482.201 932.634 490.465 927.755 496.813H927.762ZM1063.34 495.071L1047 494.789L1034.66 510.881L1039.19 526.576L1021.96 533.724L1014.03 519.441L993.92 516.812L982.581 528.58L967.769 517.242L976.188 503.235L968.409 484.521L952.54 480.587L954.963 462.101L971.309 462.377L983.644 446.285L979.115 430.583L996.343 423.435L1004.28 437.718L1024.38 440.347L1035.72 428.58L1050.54 439.917L1042.12 453.924L1049.9 472.638L1065.76 476.572L1063.34 495.058V495.071Z" fill="#F4F4F4"/>
<path d="M1042.11 453.944L1050.53 439.937L1035.72 428.6L1024.38 440.367L1004.27 437.738L996.336 423.455L979.109 430.603L983.638 446.305L971.302 462.397L954.956 462.121L952.534 480.607L968.402 484.541L976.181 503.255L967.763 517.262L982.574 528.6L993.914 516.832L1014.02 519.461L1021.96 533.744L1039.18 526.596L1034.65 510.901L1046.99 494.809L1063.34 495.091L1065.76 476.606L1049.89 472.672L1042.11 453.958V453.944ZM1024.25 490.149C1017.86 498.481 1005.92 500.061 997.581 493.679C989.243 487.298 987.662 475.369 994.048 467.03C1000.43 458.698 1012.38 457.118 1020.72 463.5C1029.06 469.881 1030.64 481.811 1024.25 490.149Z" fill="#ED6B31"/>
<path d="M1011.55 386.511C1010.71 384.265 1007.76 383.774 1006.3 385.677L995.939 399.16C994.674 400.807 992.554 401.567 990.528 401.097L979.492 398.535C977.998 398.185 976.733 397.217 976.013 395.865L970.683 385.872C969.701 384.037 969.889 381.797 971.154 380.15L981.518 366.66C982.924 364.831 981.854 362.088 979.559 361.832C974.795 361.294 969.875 363.197 966.746 367.272L955.642 381.73C949.485 389.746 953.913 399.294 958.603 405.804L914.464 463.265C907.062 462.068 899.256 464.865 894.377 471.206C887.311 480.405 889.054 493.632 898.253 500.7C907.459 507.761 920.703 506.019 927.769 496.82C932.641 490.472 933.327 482.214 930.259 475.375L974.014 418.412C981.282 421.566 991.524 423.543 998.436 414.552L1009.54 400.095C1012.63 396.08 1013.22 390.929 1011.56 386.511H1011.55ZM917.297 488.784C914.659 492.214 909.72 492.866 906.288 490.23C902.856 487.594 902.203 482.658 904.841 479.229C907.479 475.799 912.419 475.147 915.851 477.783C919.283 480.419 919.935 485.355 917.297 488.784ZM968.307 415.743L926.901 469.646C926.827 469.74 926.732 469.814 926.652 469.902C925.911 470.695 924.909 471.132 923.879 471.132C923.065 471.132 922.25 470.877 921.564 470.346C919.989 469.142 919.639 466.956 920.669 465.309C920.736 465.208 920.783 465.1 920.857 465L962.264 411.096C962.372 410.955 962.5 410.84 962.621 410.719C963.953 409.401 966.08 409.226 967.608 410.397C969.209 411.627 969.546 413.866 968.442 415.521C968.395 415.595 968.361 415.669 968.307 415.736V415.743Z" fill="#FEBE10"/>
<path d="M968.308 415.743C968.361 415.675 968.395 415.595 968.442 415.527C969.546 413.873 969.203 411.634 967.608 410.403C966.08 409.233 963.954 409.408 962.621 410.726C962.5 410.847 962.372 410.961 962.264 411.103L920.858 465.006C920.784 465.1 920.73 465.208 920.669 465.316C919.633 466.963 919.989 469.142 921.564 470.352C922.257 470.883 923.072 471.139 923.879 471.139C924.909 471.139 925.911 470.702 926.652 469.908C926.732 469.821 926.827 469.747 926.901 469.653L968.308 415.749V415.743Z" fill="#262626"/>
<path d="M124.672 0C55.8148 0 0 55.773 0 124.578C0 157.521 12.8198 187.459 33.715 209.737L95.3509 140.468L87.0332 134.705C85.3037 133.508 84.873 131.135 86.0709 129.406C86.2459 129.158 86.4477 128.942 86.6631 128.747C85.1288 126.01 85.1489 122.534 87.0601 119.777L101.286 99.2604C100.068 99.1192 98.8638 98.7224 97.7803 97.9827C94.2136 95.5418 93.2984 90.6732 95.7412 87.1092L118.433 53.9978C118.541 53.7153 118.669 53.4329 118.851 53.1707C119.032 52.9084 119.241 52.6865 119.47 52.4915L122.794 47.6431C125.237 44.0791 130.109 43.1713 133.676 45.6123C134.874 46.4327 135.735 47.5355 136.314 48.7527L144.853 36.4401C147.525 32.5937 152.808 31.6321 156.657 34.3017L196.907 62.168C199.666 64.0778 200.904 67.319 200.433 70.4257C200.709 70.5333 200.971 70.6611 201.22 70.8359C202.95 72.0329 203.38 74.4066 202.182 76.1348L189.026 95.1114C193.562 92.2198 196.9 92.388 199.107 93.2823C201.146 94.1094 201.886 96.6109 200.715 98.4736C195.695 106.449 180.877 129.81 177.196 133.488C173.636 137.039 161.852 139.923 157.256 140.946L144.396 159.492C144.288 159.646 144.167 159.774 144.053 159.922C134.47 183.559 119.772 216.159 100.957 246.897C108.642 248.376 116.562 249.176 124.678 249.176C193.535 249.176 249.35 193.403 249.35 124.598C249.35 55.7932 193.522 0 124.672 0Z" fill="#F4F4F4"/>
<path d="M177.182 133.468C180.863 129.79 195.688 106.429 200.702 98.4536C201.873 96.5909 201.126 94.0894 199.094 93.2622C196.886 92.3679 193.548 92.1998 189.013 95.0913L157.236 140.919C161.832 139.903 173.616 137.019 177.175 133.461L177.182 133.468Z" fill="#D8AC8B"/>
<path d="M134.261 164.757C131.845 164.757 129.409 164.051 127.276 162.572L95.3508 140.468L33.7148 209.737C51.3193 228.499 74.6507 241.813 100.943 246.877C119.766 216.146 134.456 183.545 144.039 159.902C141.637 163.056 137.982 164.757 134.254 164.757H134.261Z" fill="#D8AC8B"/>
<path d="M91.3738 128.445L131.623 156.311C133.743 157.777 136.657 157.246 138.124 155.128L195.911 71.784C196.94 70.3047 198.818 69.7869 200.426 70.4122C200.904 67.3122 199.659 64.0643 196.9 62.1546L156.65 34.2882C152.801 31.6186 147.512 32.5802 144.847 36.4266L136.307 48.7392C137.444 51.1667 137.33 54.0986 135.708 56.4723L133.999 58.9739C135.499 60.2179 135.849 62.4101 134.719 64.0509C133.979 65.1268 132.787 65.7051 131.576 65.7051C130.944 65.7051 130.318 65.5101 129.739 65.1873L124.699 72.5439C126.327 73.761 126.724 76.0474 125.567 77.742C124.826 78.8179 123.635 79.3962 122.424 79.3962C121.731 79.3962 121.038 79.1877 120.419 78.7977L116.401 84.6615C118.137 85.8517 118.575 88.2255 117.384 89.9604C116.643 91.0363 115.452 91.6146 114.241 91.6146C113.501 91.6146 112.747 91.3994 112.087 90.9489L108.655 95.9586C106.953 98.44 104.079 99.6033 101.28 99.2738L87.0534 119.79C85.1423 122.547 85.1221 126.017 86.6564 128.761C87.9417 127.611 89.8866 127.436 91.3671 128.458L91.3738 128.445Z" fill="#3CBFDD"/>
<path d="M124.153 52.1888L133.736 58.7654C133.83 58.8326 133.911 58.9133 133.999 58.9873L135.708 56.4858C137.337 54.112 137.444 51.1801 136.307 48.7526C135.735 47.5287 134.867 46.4259 133.669 45.6122C130.102 43.1712 125.23 44.079 122.787 47.643L119.463 52.4914C120.742 51.355 122.673 51.1801 124.147 52.1888H124.153Z" fill="#D8AC8B"/>
<path d="M108.655 95.9519L112.087 90.9421L102.504 84.3656C100.768 83.1753 100.331 80.8016 101.522 79.0667C102.713 77.3317 105.095 76.8947 106.818 78.0849L116.401 84.6547L120.418 78.791C120.371 78.7641 120.317 78.7506 120.27 78.717L110.687 72.1404C108.951 70.9502 108.514 68.5764 109.705 66.8415C110.896 65.1066 113.278 64.6695 115.001 65.8597L124.584 72.4363C124.624 72.4699 124.658 72.5036 124.705 72.5372L129.745 65.1806C129.645 65.12 129.53 65.0931 129.429 65.0259L119.846 58.4493C118.373 57.4407 117.848 55.578 118.44 53.9775L95.7478 87.089C93.305 90.653 94.2202 95.5215 97.7869 97.9625C98.8703 98.7022 100.075 99.099 101.293 99.2402C104.092 99.5697 106.966 98.4063 108.669 95.925L108.655 95.9519Z" fill="#D8AC8B"/>
<path d="M106.818 78.0918C105.095 76.9082 102.713 77.3453 101.522 79.0735C100.331 80.8085 100.768 83.1755 102.505 84.3724L112.087 90.949C112.747 91.3995 113.494 91.6147 114.241 91.6147C115.452 91.6147 116.65 91.0364 117.384 89.9605C118.575 88.2256 118.137 85.8586 116.401 84.6616L106.818 78.085V78.0918Z" fill="#CC8A5C"/>
<path d="M114.994 65.8732C113.265 64.6897 110.889 65.1268 109.698 66.855C108.507 68.5899 108.945 70.957 110.681 72.1539L120.264 78.7305C120.311 78.7641 120.365 78.7708 120.412 78.8045C121.038 79.1945 121.724 79.403 122.417 79.403C123.628 79.403 124.826 78.8246 125.56 77.7487C126.724 76.0609 126.32 73.7745 124.692 72.5507C124.651 72.5171 124.618 72.4767 124.571 72.4498L114.988 65.8732H114.994Z" fill="#CC8A5C"/>
<path d="M119.84 58.4628L129.422 65.0393C129.523 65.1066 129.638 65.1335 129.739 65.194C130.317 65.5168 130.943 65.7118 131.576 65.7118C132.787 65.7118 133.985 65.1335 134.719 64.0576C135.842 62.4168 135.499 60.2246 133.999 58.9806C133.911 58.9066 133.83 58.8259 133.736 58.7586L124.153 52.1821C122.686 51.1734 120.755 51.3482 119.469 52.4847C119.241 52.6864 119.032 52.9083 118.85 53.1639C118.669 53.4261 118.541 53.7085 118.433 53.991C117.834 55.5914 118.359 57.4474 119.84 58.4628Z" fill="#CC8A5C"/>
<path d="M134.261 164.757C137.989 164.757 141.643 163.056 144.046 159.902C144.16 159.754 144.281 159.626 144.389 159.472L157.249 140.925L189.026 95.0979L202.182 76.1214C203.38 74.3932 202.95 72.0194 201.22 70.8225C200.971 70.6476 200.702 70.5199 200.433 70.4123C198.824 69.7869 196.947 70.3047 195.917 71.7841L138.131 155.128C136.657 157.246 133.743 157.77 131.63 156.311L91.3805 128.445C89.9 127.423 87.9551 127.597 86.6698 128.747C86.4545 128.942 86.2458 129.158 86.0776 129.406C84.8798 131.135 85.3104 133.508 87.0399 134.705L95.3576 140.468L127.283 162.572C129.416 164.044 131.852 164.757 134.268 164.757H134.261Z" fill="#262626"/>
<path d="M1155.34 0C1086.48 0 1030.66 55.773 1030.66 124.578C1030.66 193.383 1086.48 249.156 1155.34 249.156C1224.19 249.156 1280.01 193.383 1280.01 124.578C1280.01 55.773 1224.19 0 1155.34 0ZM1154.65 35.808C1175.09 35.808 1191.67 52.3704 1191.67 72.7995C1191.67 82.0591 1188.24 90.4984 1182.62 96.9875C1183.04 99.1259 1183.06 100.565 1183.06 100.619C1183.06 102.724 1181.35 104.425 1179.25 104.425C1177.99 104.425 1176.87 103.799 1176.18 102.851C1170.11 107.202 1162.69 109.791 1154.65 109.791C1146.61 109.791 1139.18 107.202 1133.11 102.845C1132.42 103.793 1131.3 104.411 1130.05 104.411H1130.03C1127.93 104.398 1126.24 102.71 1126.24 100.612C1126.24 100.551 1126.26 99.1192 1126.68 96.9808C1121.05 90.4916 1117.63 82.0524 1117.63 72.7928C1117.63 52.3637 1134.2 35.8013 1154.65 35.8013V35.808ZM1170.11 209.132H1140.56C1138.45 209.132 1136.75 207.431 1136.75 205.326C1136.75 203.221 1138.46 201.52 1140.56 201.52H1170.11C1172.21 201.52 1173.92 203.221 1173.92 205.326C1173.92 207.431 1172.21 209.132 1170.11 209.132ZM1219.78 173.559C1219.78 178.509 1215.77 182.523 1210.81 182.523H1098.48C1093.52 182.523 1089.51 178.509 1089.51 173.559V130.059C1089.51 125.109 1093.52 121.095 1098.48 121.095H1210.81C1215.77 121.095 1219.78 125.109 1219.78 130.059V173.559Z" fill="#FEBE10"/>
<path d="M1154.65 65.9675C1157.71 65.9675 1160.19 63.4897 1160.19 60.4332C1160.19 57.3767 1157.71 54.8989 1154.65 54.8989C1151.59 54.8989 1149.11 57.3767 1149.11 60.4332C1149.11 63.4897 1151.59 65.9675 1154.65 65.9675Z" fill="#3CBFDD"/>
<path d="M1154.65 84.1101C1134.64 84.1101 1133.87 98.9511 1133.86 100.646C1133.85 101.473 1133.57 102.226 1133.11 102.851C1139.18 107.202 1146.61 109.798 1154.65 109.798C1162.69 109.798 1170.11 107.209 1176.18 102.858C1175.73 102.233 1175.44 101.473 1175.44 100.646C1175.42 98.9511 1174.65 84.1101 1154.65 84.1101Z" fill="#3CBFDD"/>
<path d="M1154.65 76.4914C1175.97 76.4914 1181.29 90.2497 1182.62 96.9876C1188.24 90.4985 1191.67 82.0592 1191.67 72.7996C1191.67 52.3706 1175.09 35.8081 1154.65 35.8081C1134.2 35.8081 1117.63 52.3706 1117.63 72.7996C1117.63 82.0592 1121.05 90.4985 1126.68 96.9876C1128.01 90.2497 1133.33 76.4914 1154.65 76.4914ZM1154.65 47.2868C1161.9 47.2868 1167.81 53.1842 1167.81 60.44C1167.81 67.6957 1161.91 73.5931 1154.65 73.5931C1147.39 73.5931 1141.49 67.6957 1141.49 60.44C1141.49 53.1842 1147.39 47.2868 1154.65 47.2868Z" fill="#3CBFDD"/>
<path d="M1154.65 76.4912C1133.32 76.4912 1128.01 90.2495 1126.68 96.9875C1126.26 99.1259 1126.24 100.565 1126.24 100.619C1126.24 102.71 1127.93 104.405 1130.03 104.418H1130.05C1131.3 104.418 1132.41 103.799 1133.11 102.851C1133.57 102.233 1133.85 101.473 1133.86 100.646C1133.88 98.9511 1134.64 84.1101 1154.65 84.1101C1174.66 84.1101 1175.42 98.9443 1175.44 100.646C1175.44 101.473 1175.72 102.233 1176.18 102.858C1176.87 103.806 1177.99 104.432 1179.25 104.432C1181.36 104.432 1183.06 102.73 1183.06 100.625C1183.06 100.565 1183.04 99.1326 1182.62 96.9942C1181.29 90.2563 1175.97 76.4979 1154.65 76.4979V76.4912Z" fill="#262626"/>
<path d="M1154.65 73.5863C1161.9 73.5863 1167.81 67.6889 1167.81 60.4332C1167.81 53.1774 1161.91 47.28 1154.65 47.28C1147.39 47.28 1141.49 53.1774 1141.49 60.4332C1141.49 67.6889 1147.39 73.5863 1154.65 73.5863ZM1154.65 54.8989C1157.7 54.8989 1160.19 57.3802 1160.19 60.4332C1160.19 63.4861 1157.7 65.9674 1154.65 65.9674C1151.59 65.9674 1149.11 63.4861 1149.11 60.4332C1149.11 57.3802 1151.59 54.8989 1154.65 54.8989Z" fill="#262626"/>
<path d="M1210.81 121.088H1098.48C1093.52 121.088 1089.51 125.103 1089.51 130.052V173.553C1089.51 178.502 1093.52 182.516 1098.48 182.516H1210.81C1215.77 182.516 1219.78 178.502 1219.78 173.553V130.052C1219.78 125.103 1215.77 121.088 1210.81 121.088ZM1170.44 172.1H1102.39C1100.28 172.1 1098.58 170.399 1098.58 168.294C1098.58 166.189 1100.29 164.488 1102.39 164.488H1170.44C1172.55 164.488 1174.25 166.189 1174.25 168.294C1174.25 170.399 1172.54 172.1 1170.44 172.1ZM1206.91 155.612H1102.39C1100.28 155.612 1098.58 153.91 1098.58 151.806C1098.58 149.701 1100.29 148 1102.39 148H1206.91C1209.02 148 1210.72 149.701 1210.72 151.806C1210.72 153.91 1209.01 155.612 1206.91 155.612ZM1206.91 139.13H1102.39C1100.28 139.13 1098.58 137.429 1098.58 135.324C1098.58 133.219 1100.29 131.518 1102.39 131.518H1206.91C1209.02 131.518 1210.72 133.219 1210.72 135.324C1210.72 137.429 1209.01 139.13 1206.91 139.13Z" fill="white"/>
<path d="M1170.11 201.52H1140.56C1138.45 201.52 1136.75 203.221 1136.75 205.326C1136.75 207.431 1138.46 209.132 1140.56 209.132H1170.11C1172.21 209.132 1173.92 207.431 1173.92 205.326C1173.92 203.221 1172.21 201.52 1170.11 201.52Z" fill="#262626"/>
<path d="M1206.91 131.511H1102.39C1100.28 131.511 1098.58 133.213 1098.58 135.317C1098.58 137.422 1100.29 139.123 1102.39 139.123H1206.91C1209.02 139.123 1210.72 137.422 1210.72 135.317C1210.72 133.213 1209.01 131.511 1206.91 131.511Z" fill="#262626"/>
<path d="M1206.91 147.993H1102.39C1100.28 147.993 1098.58 149.694 1098.58 151.799C1098.58 153.904 1100.29 155.605 1102.39 155.605H1206.91C1209.02 155.605 1210.72 153.904 1210.72 151.799C1210.72 149.694 1209.01 147.993 1206.91 147.993Z" fill="#262626"/>
<path d="M1170.44 164.481H1102.39C1100.28 164.481 1098.58 166.183 1098.58 168.288C1098.58 170.392 1100.29 172.094 1102.39 172.094H1170.44C1172.55 172.094 1174.25 170.392 1174.25 168.288C1174.25 166.183 1172.54 164.481 1170.44 164.481Z" fill="#262626"/>
<path d="M468.221 0C399.372 0 343.557 55.773 343.557 124.578C343.557 193.383 399.372 249.156 468.228 249.156C537.085 249.156 592.9 193.383 592.9 124.578C592.9 55.773 537.078 0 468.221 0ZM491.546 55.5578L495.456 45.377C495.772 44.5431 496.398 43.8841 497.212 43.521C498.027 43.1579 498.935 43.131 499.783 43.4537L500.732 43.8169C501.566 44.1396 502.226 44.765 502.596 45.5787C502.959 46.3923 502.986 47.3069 502.663 48.1407L498.753 58.3216C498.242 59.6531 496.97 60.4667 495.624 60.4667C495.227 60.4667 494.823 60.3928 494.426 60.2448L493.477 59.8817C492.643 59.5589 491.983 58.9336 491.62 58.1199C491.257 57.3062 491.23 56.3917 491.553 55.5578H491.546ZM433.854 45.5787C434.217 44.765 434.877 44.1329 435.711 43.8169L436.667 43.4537C438.376 42.7947 440.334 43.6555 440.994 45.377L444.904 55.5578C445.227 56.3917 445.2 57.2995 444.836 58.1199C444.473 58.9336 443.813 59.5657 442.979 59.8817L442.023 60.2448C441.633 60.3928 441.229 60.4667 440.826 60.4667C439.48 60.4667 438.208 59.6464 437.696 58.3216L433.786 48.1407C433.463 47.3069 433.49 46.3991 433.854 45.5787ZM542.711 126.737C542.711 201.17 468.221 216.058 468.221 216.058C468.221 216.058 393.732 201.17 393.732 126.737V54.8518C393.732 53.4396 394.876 52.3032 396.283 52.3032H421.155C422.44 52.3032 423.497 53.2581 423.692 54.5223C424.237 58.1468 426.095 61.3409 428.759 63.6138C431.364 65.8396 434.735 67.1845 438.43 67.1845C446.149 67.1845 452.495 61.3208 453.248 53.8028C453.289 52.9622 453.988 52.2965 454.836 52.2965H464.372V41.0396C464.372 39.1904 465.873 37.6908 467.724 37.6908H468.74C470.584 37.6908 472.091 39.1904 472.091 41.0396V52.2965H481.62C482.448 52.2965 483.121 52.9286 483.201 53.749C483.201 53.7691 483.201 53.7826 483.201 53.8028C483.955 61.314 490.301 67.1845 498.027 67.1845C501.721 67.1845 505.093 65.8329 507.697 63.6138C510.362 61.3409 512.219 58.1468 512.764 54.5223C512.953 53.2513 514.016 52.3032 515.295 52.3032H540.167C541.58 52.3032 542.718 53.4464 542.718 54.8518V126.737H542.711Z" fill="#FEBE10"/>
<path d="M540.16 52.3031H515.288C514.003 52.3031 512.946 53.258 512.758 54.5222C512.213 58.1467 510.355 61.3408 507.69 63.6137C505.086 65.8395 501.715 67.1844 498.02 67.1844C490.301 67.1844 483.955 61.3207 483.195 53.8027C483.195 53.7825 483.195 53.7691 483.195 53.7489C483.114 52.9285 482.441 52.2964 481.613 52.2964H472.084V55.699C472.084 57.5482 470.584 59.0478 468.733 59.0478H467.717C465.873 59.0478 464.366 57.5482 464.366 55.699V52.2964H454.83C453.982 52.2964 453.289 52.9554 453.242 53.8027C452.488 61.3139 446.142 67.1844 438.423 67.1844C434.729 67.1844 431.357 65.8328 428.753 63.6137C426.088 61.3408 424.231 58.1467 423.686 54.5222C423.497 53.2513 422.434 52.3031 421.148 52.3031H396.276C394.863 52.3031 393.726 53.4463 393.726 54.8517V126.737C393.726 201.17 468.215 216.058 468.215 216.058C468.215 216.058 542.704 201.17 542.704 126.737V54.8517C542.704 53.4396 541.56 52.3031 540.154 52.3031H540.16ZM416.694 69.074L415.94 69.7532C415.314 70.3113 414.533 70.6139 413.699 70.6139C413.638 70.6139 413.578 70.6139 413.517 70.6139C412.622 70.5669 411.801 70.1768 411.202 69.5111L407.777 65.705C406.539 64.3333 406.653 62.215 408.026 60.9777L408.78 60.2985C410.152 59.068 412.279 59.1756 413.51 60.5474L416.943 64.3534C418.174 65.7252 418.066 67.8434 416.694 69.0808V69.074ZM496.291 176.007C496.243 178.731 495.14 181.279 493.182 183.175C491.264 185.031 488.747 186.047 486.082 186.047C486.028 186.047 485.967 186.047 485.914 186.047L448.982 185.455C446.876 185.421 445.2 183.686 445.234 181.588C445.234 181.407 445.267 181.232 445.294 181.05C443.746 180.23 442.69 178.616 442.717 176.74L443.989 97.0816C444.029 94.4321 446.216 92.3139 448.867 92.3543L488.982 92.9931C490.853 93.02 492.441 94.1295 493.208 95.7031C493.363 95.6829 493.518 95.656 493.68 95.656H493.74C495.846 95.6896 497.522 97.4245 497.488 99.5226L496.27 175.994L496.291 176.007ZM528.666 65.7185L525.241 69.5246C524.582 70.2575 523.666 70.6274 522.751 70.6274C521.95 70.6274 521.15 70.345 520.51 69.7734L519.756 69.0942C518.384 67.8569 518.269 65.7387 519.508 64.3669L522.94 60.5608C523.539 59.8951 524.36 59.5051 525.255 59.458C526.136 59.4176 527.004 59.7135 527.664 60.312L528.417 60.9912C529.084 61.5897 529.474 62.41 529.521 63.3044C529.568 64.1988 529.265 65.0528 528.66 65.7185H528.666Z" fill="#F4F4F4"/>
<path d="M449.11 177.843L486.041 178.435C486.041 178.435 486.068 178.435 486.082 178.435C486.755 178.435 487.394 178.179 487.879 177.709C488.376 177.231 488.652 176.586 488.666 175.893L489.884 99.4219C489.918 97.5054 491.364 95.952 493.222 95.7234C492.455 94.1499 490.866 93.0471 488.996 93.0134L448.881 92.3746C446.229 92.3342 444.042 94.4457 444.002 97.1019L442.73 176.76C442.703 178.63 443.753 180.25 445.307 181.071C445.603 179.235 447.198 177.89 449.116 177.856L449.11 177.843Z" fill="#3CBFDD"/>
<path d="M493.76 95.6694H493.699C493.538 95.6694 493.383 95.6963 493.228 95.7165C491.378 95.9519 489.924 97.4985 489.89 99.415L488.672 175.886C488.666 176.579 488.383 177.224 487.885 177.702C487.4 178.172 486.761 178.428 486.088 178.428C486.075 178.428 486.061 178.428 486.048 178.428L449.116 177.836C447.198 177.863 445.603 179.215 445.307 181.05C445.28 181.225 445.247 181.4 445.247 181.588C445.213 183.693 446.889 185.421 448.995 185.455L485.927 186.047C485.981 186.047 486.041 186.047 486.095 186.047C488.76 186.047 491.277 185.031 493.195 183.175C495.153 181.279 496.257 178.737 496.304 176.007L497.522 99.536C497.555 97.4313 495.88 95.7031 493.773 95.6694H493.76Z" fill="#262626"/>
<path d="M468.74 40.2395H467.717C467.271 40.2395 466.909 40.6008 466.909 41.0464V55.7059C466.909 56.1515 467.271 56.5128 467.717 56.5128H468.74C469.186 56.5128 469.547 56.1515 469.547 55.7059V41.0464C469.547 40.6008 469.186 40.2395 468.74 40.2395Z" fill="#262626"/>
<path d="M467.717 59.0545H468.733C470.577 59.0545 472.084 57.555 472.084 55.7057V41.0463C472.084 39.1971 470.583 37.6975 468.733 37.6975H467.717C465.873 37.6975 464.365 39.1971 464.365 41.0463V55.7057C464.365 57.555 465.866 59.0545 467.717 59.0545ZM467.717 40.2394H468.733C469.177 40.2394 469.54 40.6025 469.54 41.0463V55.7057C469.54 56.1495 469.177 56.5127 468.733 56.5127H467.717C467.272 56.5127 466.909 56.1495 466.909 55.7057V41.0463C466.909 40.6025 467.272 40.2394 467.717 40.2394Z" fill="#262626"/>
<path d="M440.072 57.4071C440.233 57.8241 440.698 58.0325 441.115 57.8711L442.071 57.508C442.272 57.434 442.427 57.2794 442.521 57.0844C442.609 56.8893 442.616 56.6674 442.535 56.4657L438.625 46.2848C438.464 45.8679 437.986 45.6527 437.582 45.8208L436.626 46.1839C436.425 46.2579 436.27 46.4126 436.176 46.6076C436.088 46.8026 436.081 47.0245 436.162 47.2262L440.072 57.4071Z" fill="#262626"/>
<path d="M437.696 58.3148C438.208 59.6462 439.48 60.4599 440.826 60.4599C441.223 60.4599 441.626 60.3859 442.023 60.238L442.979 59.8749C443.814 59.5521 444.473 58.9267 444.836 58.113C445.2 57.2994 445.227 56.3848 444.904 55.551L440.994 45.3701C440.334 43.6486 438.376 42.7879 436.667 43.4469L435.711 43.81C434.877 44.1328 434.217 44.7582 433.854 45.5718C433.49 46.3855 433.463 47.3 433.786 48.1339L437.696 58.3148ZM436.62 46.1838L437.575 45.8207C437.979 45.6525 438.457 45.8677 438.618 46.2846L442.528 56.4655C442.602 56.6673 442.602 56.8825 442.515 57.0842C442.427 57.2792 442.266 57.4339 442.064 57.5078L441.108 57.871C440.691 58.0324 440.227 57.8239 440.065 57.407L436.155 47.2261C436.081 47.0243 436.081 46.8092 436.169 46.6074C436.256 46.4124 436.418 46.2577 436.62 46.1838Z" fill="#262626"/>
<path d="M494.386 57.5148L495.335 57.8779C495.752 58.0393 496.223 57.8308 496.378 57.4139L500.288 47.233C500.449 46.8161 500.241 46.3521 499.824 46.1907L498.875 45.8276C498.673 45.7536 498.451 45.7536 498.256 45.841C498.061 45.9284 497.906 46.0898 497.832 46.2849L493.922 56.4657C493.76 56.8827 493.969 57.3467 494.386 57.508V57.5148Z" fill="#262626"/>
<path d="M493.471 59.8818L494.42 60.2449C494.817 60.3928 495.22 60.4668 495.618 60.4668C496.963 60.4668 498.235 59.6464 498.747 58.3217L502.657 48.1408C502.98 47.3069 502.953 46.3991 502.589 45.5787C502.226 44.7651 501.566 44.1397 500.725 43.8169L499.776 43.4538C498.935 43.131 498.027 43.1579 497.206 43.521C496.391 43.8842 495.766 44.5432 495.449 45.377L491.539 55.5579C491.216 56.3918 491.243 57.2996 491.607 58.1199C491.97 58.9336 492.63 59.559 493.464 59.8818H493.471ZM498.256 45.841C498.451 45.7536 498.673 45.7469 498.875 45.8276L499.823 46.1907C500.241 46.3521 500.449 46.8161 500.288 47.233L496.378 57.4139C496.216 57.8308 495.745 58.0393 495.335 57.8779L494.386 57.5147C493.969 57.3534 493.76 56.8894 493.922 56.4724L497.832 46.2915C497.906 46.0898 498.06 45.9351 498.256 45.8477V45.841Z" fill="#262626"/>
<path d="M415.058 66.0482L411.626 62.2421C411.464 62.0673 411.249 61.9731 411.027 61.9731C410.832 61.9731 410.637 62.0404 410.482 62.1816L409.728 62.8608C409.398 63.1634 409.371 63.6744 409.667 64.0039L413.1 67.81C413.241 67.9714 413.443 68.0655 413.658 68.0723C413.853 68.0723 414.082 68.0117 414.244 67.8638L414.997 67.1846C415.327 66.8888 415.354 66.3777 415.058 66.0415V66.0482Z" fill="#262626"/>
<path d="M413.517 60.5475C412.279 59.1757 410.159 59.0681 408.786 60.2987L408.032 60.9779C406.66 62.2152 406.552 64.3334 407.783 65.7052L411.209 69.5113C411.808 70.177 412.629 70.567 413.524 70.6141C413.584 70.6141 413.645 70.6141 413.705 70.6141C414.533 70.6141 415.321 70.3115 415.946 69.7533L416.7 69.0742C418.073 67.8436 418.181 65.7186 416.949 64.3468L413.517 60.5408V60.5475ZM414.244 67.8705C414.082 68.0184 413.854 68.0789 413.658 68.0789C413.443 68.0655 413.248 67.9713 413.1 67.8167L409.668 64.0106C409.372 63.6811 409.399 63.1701 409.728 62.8674L410.482 62.1883C410.637 62.0471 410.832 61.9798 411.027 61.9798C411.249 61.9798 411.471 62.0672 411.626 62.2488L415.058 66.0549C415.361 66.3844 415.334 66.8954 414.998 67.198L414.244 67.8772V67.8705Z" fill="#262626"/>
<path d="M526.775 64.0172C526.923 63.8558 526.991 63.6474 526.984 63.4389C526.97 63.2237 526.876 63.022 526.721 62.8808L525.961 62.2016C525.813 62.0671 525.625 61.9932 525.423 61.9932C525.409 61.9932 525.396 61.9932 525.382 61.9932C525.167 62.0066 524.965 62.1008 524.824 62.2621L521.392 66.0682C521.25 66.2296 521.176 66.4381 521.183 66.6532C521.196 66.8684 521.291 67.0702 521.452 67.2114L522.206 67.8906C522.542 68.1932 523.054 68.1595 523.35 67.83L526.775 64.024V64.0172Z" fill="#262626"/>
<path d="M527.664 60.3122C527.004 59.7137 526.136 59.4111 525.254 59.4581C524.359 59.5052 523.538 59.8952 522.939 60.561L519.507 64.367C518.269 65.7388 518.384 67.857 519.756 69.0944L520.51 69.7735C521.149 70.3451 521.95 70.6275 522.751 70.6275C523.666 70.6275 524.581 70.2577 525.241 69.5247L528.666 65.7187C529.265 65.0529 529.568 64.1989 529.528 63.3046C529.481 62.4102 529.09 61.5898 528.424 60.9913L527.67 60.3122H527.664ZM522.213 67.8839L521.459 67.2048C521.297 67.0568 521.203 66.8618 521.19 66.6466C521.176 66.4315 521.25 66.223 521.398 66.0616L524.83 62.2555C524.978 62.0941 525.174 62 525.389 61.9866C525.402 61.9866 525.416 61.9866 525.429 61.9866C525.631 61.9866 525.82 62.0605 525.968 62.195L526.728 62.8742C526.89 63.0221 526.984 63.2171 526.991 63.4323C526.997 63.6475 526.93 63.8492 526.782 64.0106L523.357 67.8167C523.061 68.1462 522.556 68.1798 522.213 67.8772V67.8839Z" fill="#262626"/>
<path d="M834.457 184.742C834.356 184.615 834.235 184.507 834.141 184.372L821.287 165.833C816.691 164.818 804.908 161.933 801.348 158.376C799.154 156.183 793.003 147.004 787.33 138.249C776.469 147.69 763.763 150.246 763.763 150.246C763.763 150.246 725.008 142.499 725.008 103.773V66.3776C725.008 65.6446 725.6 65.0528 726.333 65.0528H739.274C739.941 65.0528 740.492 65.5505 740.593 66.2095C740.876 68.0923 741.845 69.7533 743.231 70.9368C744.584 72.0934 746.34 72.7928 748.258 72.7928C752.276 72.7928 755.58 69.7398 755.97 65.8329C755.991 65.3958 756.354 65.0528 756.791 65.0528H770.722C771.152 65.0528 771.502 65.3823 771.543 65.806C771.543 65.8127 771.543 65.8262 771.543 65.8329C771.933 69.7398 775.237 72.7928 779.255 72.7928C781.172 72.7928 782.929 72.0934 784.282 70.9368C785.668 69.7533 786.63 68.0923 786.92 66.2095C787.02 65.5505 787.572 65.0528 788.239 65.0528H801.179C801.913 65.0528 802.505 65.6446 802.505 66.3776V68.8186C803.367 68.8186 804.228 69.0876 804.941 69.6793C805.217 69.9079 805.433 70.1702 805.621 70.4459L821.873 59.1958C825.722 56.5262 831.011 57.4878 833.676 61.3342L842.216 73.6468C842.788 72.4229 843.656 71.3201 844.848 70.5064C848.414 68.0654 853.286 68.9732 855.729 72.5372L859.054 77.3856C859.276 77.5873 859.491 77.8092 859.666 78.0648C859.848 78.327 859.975 78.6027 860.083 78.8919L882.782 112.01C885.225 115.574 884.31 120.443 880.743 122.884C879.659 123.623 878.455 124.02 877.237 124.161L891.463 144.678C893.374 147.435 893.394 150.905 891.86 153.648C892.075 153.843 892.284 154.058 892.452 154.307C893.65 156.035 893.219 158.409 891.49 159.606L883.172 165.369L912.352 198.164C927.486 177.54 936.443 152.108 936.443 124.578C936.45 55.773 880.628 0 811.779 0C742.929 0 687.107 55.773 687.107 124.578C687.107 193.383 742.922 249.156 811.779 249.156C828.71 249.156 844.847 245.767 859.565 239.661C849.188 219.528 840.722 200.222 834.457 184.749V184.742Z" fill="#F4F4F4"/>
<path d="M787.323 138.249C792.996 146.998 799.147 156.183 801.341 158.375C804.901 161.933 816.684 164.811 821.28 165.833L795.574 128.761C793.164 132.513 790.318 135.647 787.316 138.249H787.323Z" fill="#D8AC8B"/>
<path d="M851.247 187.472C849.168 188.911 846.752 189.665 844.269 189.665C843.528 189.665 842.788 189.597 842.048 189.463C838.979 188.905 836.314 187.217 834.45 184.742C840.722 200.215 849.181 219.521 859.558 239.655C880.743 230.859 898.966 216.401 912.351 198.164L883.172 165.369L851.247 187.472Z" fill="#D8AC8B"/>
<path d="M805.439 75.0386L802.512 78.5623V103.772C802.512 110.389 801.361 116.078 799.483 121.007L840.406 180.028C841.112 181.057 842.182 181.743 843.414 181.965C844.652 182.187 845.884 181.918 846.913 181.212L887.163 153.345C888.643 152.323 890.588 152.498 891.873 153.648C893.408 150.911 893.387 147.435 891.476 144.678L877.25 124.161C874.45 124.491 871.577 123.327 869.874 120.846L866.442 115.843C865.783 116.293 865.036 116.509 864.296 116.509C863.084 116.509 861.886 115.93 861.153 114.854C859.962 113.119 860.399 110.752 862.135 109.556L857.721 103.107L857.633 103.167C856.974 103.618 856.227 103.833 855.48 103.833C854.269 103.833 853.071 103.255 852.337 102.179C851.146 100.444 851.584 98.0768 853.32 96.8798L853.407 96.8193L848.791 90.0814C848.212 90.4041 847.586 90.5991 846.954 90.5991C845.742 90.5991 844.551 90.0208 843.811 88.9449C842.687 87.3041 843.03 85.1119 844.531 83.8679L842.822 81.3664C841.193 78.9994 841.085 76.0608 842.223 73.6332L833.683 61.3206C831.011 57.4742 825.729 56.5126 821.879 59.1823L805.627 70.4323C806.576 71.8041 806.556 73.6803 805.439 75.0252V75.0386Z" fill="#3CBFDD"/>
<path d="M858.69 83.3638L849.107 89.9403C849.006 90.0076 848.892 90.0345 848.784 90.095L853.401 96.8329L862.896 90.3236C864.626 89.1401 867.008 89.5705 868.192 91.3054C869.383 93.0403 868.946 95.4073 867.21 96.6043L857.714 103.12L862.129 109.562L871.712 102.993C873.441 101.809 875.823 102.246 877.008 103.974C878.199 105.709 877.762 108.076 876.025 109.273L866.443 115.85L869.875 120.853C871.577 123.334 874.451 124.498 877.25 124.168C878.468 124.027 879.673 123.63 880.756 122.89C884.323 120.449 885.238 115.581 882.795 112.017L860.097 78.8987C860.695 80.4991 860.171 82.3618 858.697 83.3705L858.69 83.3638Z" fill="#D8AC8B"/>
<path d="M842.815 81.3866L844.525 83.8881C844.612 83.8142 844.693 83.7335 844.787 83.6662L854.37 77.0897C855.85 76.081 857.775 76.2558 859.054 77.3923L855.729 72.5439C853.286 68.9799 848.414 68.0721 844.848 70.5131C843.65 71.3335 842.788 72.4296 842.216 73.6535C841.079 76.081 841.194 79.0129 842.815 81.3866Z" fill="#D8AC8B"/>
<path d="M876.026 109.273C877.762 108.083 878.199 105.709 877.008 103.974C875.817 102.239 873.441 101.802 871.712 102.993L862.129 109.562C860.393 110.753 859.955 113.126 861.147 114.861C861.887 115.937 863.078 116.515 864.289 116.515C865.029 116.515 865.783 116.3 866.436 115.85L876.019 109.273H876.026Z" fill="#CC8A5C"/>
<path d="M867.21 96.6042C868.946 95.414 869.383 93.0403 868.192 91.3053C867.001 89.5704 864.626 89.1333 862.896 90.3236L853.401 96.8329L853.313 96.8934C851.577 98.0836 851.14 100.457 852.331 102.192C853.071 103.268 854.262 103.847 855.473 103.847C856.22 103.847 856.967 103.631 857.627 103.181L857.714 103.12L867.21 96.6042Z" fill="#CC8A5C"/>
<path d="M854.37 77.0898L844.787 83.6664C844.693 83.7336 844.612 83.8143 844.524 83.8883C843.024 85.1323 842.674 87.3245 843.804 88.9653C844.545 90.0412 845.736 90.6195 846.947 90.6195C847.58 90.6195 848.199 90.4245 848.784 90.1017C848.892 90.0412 849.006 90.0143 849.107 89.947L858.69 83.3705C860.164 82.3618 860.689 80.4991 860.09 78.8987C859.982 78.6163 859.854 78.3338 859.673 78.0716C859.491 77.8093 859.282 77.5941 859.06 77.3924C857.782 76.256 855.85 76.0811 854.376 77.0898H854.37Z" fill="#CC8A5C"/>
<path d="M842.048 189.463C842.788 189.597 843.528 189.665 844.269 189.665C846.745 189.665 849.161 188.911 851.247 187.472L883.172 165.369L891.49 159.606C893.219 158.409 893.65 156.035 892.452 154.307C892.277 154.058 892.075 153.843 891.86 153.648C890.575 152.498 888.63 152.323 887.149 153.345L846.9 181.212C845.877 181.925 844.639 182.194 843.401 181.965C842.169 181.743 841.106 181.057 840.392 180.028L799.47 121.007C798.387 123.845 797.068 126.421 795.567 128.754L821.274 165.826L834.127 184.366C834.221 184.5 834.343 184.608 834.443 184.735C836.308 187.21 838.973 188.898 842.041 189.456L842.048 189.463Z" fill="#262626"/>
<path d="M795.574 128.754C797.075 126.421 798.4 123.845 799.477 121.007C801.355 116.085 802.505 110.389 802.505 103.772V78.5623L764.571 124.154C763.884 124.975 762.888 125.472 761.818 125.526C761.758 125.526 761.697 125.526 761.644 125.526C760.634 125.526 759.665 125.129 758.952 124.41L738.951 104.425C737.464 102.939 737.464 100.525 738.951 99.0384C740.439 97.5523 742.855 97.5523 744.342 99.0384L761.388 116.072L799.578 70.1634C800.332 69.2556 801.415 68.805 802.505 68.805V66.364C802.505 65.6311 801.913 65.0393 801.18 65.0393H788.239C787.572 65.0393 787.021 65.5369 786.92 66.1959C786.637 68.0788 785.668 69.7397 784.282 70.9232C782.929 72.0799 781.173 72.7792 779.255 72.7792C775.237 72.7792 771.933 69.7263 771.543 65.8193C771.543 65.8126 771.543 65.7992 771.543 65.7924C771.502 65.3621 771.152 65.0393 770.722 65.0393H756.791C756.354 65.0393 755.991 65.3823 755.97 65.8193C755.58 69.7263 752.276 72.7792 748.258 72.7792C746.341 72.7792 744.584 72.0799 743.231 70.9232C741.845 69.7397 740.883 68.0788 740.593 66.1959C740.493 65.5369 739.941 65.0393 739.274 65.0393H726.334C725.6 65.0393 725.008 65.6311 725.008 66.364V103.759C725.008 142.485 763.763 150.232 763.763 150.232C763.763 150.232 776.469 147.677 787.33 138.236C790.325 135.626 793.178 132.493 795.587 128.747L795.574 128.754Z" fill="#FEBE10"/>
<path d="M799.578 70.1701L761.388 116.078L744.342 99.0451C742.855 97.559 740.439 97.559 738.951 99.0451C737.464 100.531 737.464 102.945 738.951 104.431L758.952 124.417C759.672 125.136 760.641 125.533 761.643 125.533C761.697 125.533 761.758 125.533 761.818 125.533C762.888 125.486 763.891 124.988 764.571 124.161L802.505 78.569L805.433 75.0454C806.55 73.7005 806.57 71.8243 805.621 70.4525C805.426 70.1768 805.211 69.9078 804.941 69.6859C804.228 69.0942 803.36 68.8252 802.505 68.8252C801.415 68.8252 800.332 69.2757 799.578 70.1835V70.1701Z" fill="#262626"/>
</g>
<defs>
<clipPath id="clip0_412_2241">
<rect width="1280" height="579" fill="white"/>
</clipPath>
</defs>
</svg>
