<svg width="920" height="293" viewBox="0 0 920 293" fill="none" xmlns="http://www.w3.org/2000/svg">
<path d="M118.011 0H116.075C113.884 0 112.108 1.7759 112.108 3.96658V31.9442C112.108 34.1349 113.884 35.9108 116.075 35.9108H118.011C120.201 35.9108 121.977 34.1349 121.977 31.9442V3.96658C121.977 1.7759 120.201 0 118.011 0Z" fill="#262626"/>
<path d="M176.25 174.107C176.25 199.895 159.76 221.822 136.764 229.956C130.587 232.135 123.944 233.341 117.016 233.341C110.088 233.341 103.445 232.146 97.2677 229.956C74.2616 221.822 57.7817 199.895 57.7817 174.107V134.05C57.7817 132.177 59.2943 130.665 61.1666 130.665H93.8829C95.7551 130.665 97.2677 132.177 97.2677 134.05V173.43C97.2677 183.944 105.201 193.125 115.694 193.813C127.192 194.553 136.754 185.446 136.754 174.107V134.05C136.754 132.177 138.266 130.665 140.139 130.665H172.855C174.727 130.665 176.24 132.177 176.24 134.05V174.107H176.25Z" fill="white"/>
<path d="M212.362 75.3862H179.339C177.646 75.3862 176.292 76.6661 176.039 78.3373C175.319 83.1395 172.855 87.3811 169.322 90.3957C165.874 93.3469 161.399 95.1345 156.512 95.1345C146.538 95.1345 138.308 87.7302 136.976 78.1152C136.637 76.5603 135.347 75.3862 133.728 75.3862H100.324C98.6744 75.3862 97.3416 76.6132 97.056 78.221C95.6809 87.7725 87.4728 95.1239 77.5404 95.1239C72.643 95.1239 68.1793 93.3363 64.731 90.3851C61.1981 87.3705 58.7441 83.129 58.0143 78.3267C57.7604 76.6555 56.4065 75.3756 54.7141 75.3756H21.691C19.8187 75.3756 18.3062 76.8882 18.3062 78.7604V174.096C18.3062 272.816 117.026 292.564 117.026 292.564C117.026 292.564 215.747 272.816 215.747 174.096V78.7604C215.747 76.8882 214.234 75.3756 212.362 75.3756V75.3862ZM176.25 174.106C176.25 199.895 159.76 221.822 136.764 229.956C130.587 232.135 123.944 233.341 117.016 233.341C110.088 233.341 103.445 232.145 97.2676 229.956C74.2614 221.822 57.7816 199.895 57.7816 174.106V134.049C57.7816 132.177 59.2942 130.664 61.1664 130.664H93.8828C95.755 130.664 97.2676 132.177 97.2676 134.049V173.43C97.2676 183.944 105.201 193.125 115.694 193.812C127.191 194.553 136.754 185.446 136.754 174.106V134.049C136.754 132.177 138.266 130.664 140.138 130.664H172.855C174.727 130.664 176.24 132.177 176.24 134.049V174.106H176.25Z" fill="#F4B81F"/>
<path d="M57.7212 10.811L55.9141 11.5047C53.8689 12.2897 52.8474 14.5841 53.6324 16.6293L61.0887 36.0534C61.8737 38.0986 64.1681 39.1201 66.2133 38.335L68.0204 37.6413C70.0656 36.8563 71.0871 34.5619 70.302 32.5167L62.8458 13.0926C62.0607 11.0474 59.7664 10.0259 57.7212 10.811Z" fill="#262626"/>
<path d="M171.246 13.1093L163.786 32.5321C163.001 34.5772 164.022 36.8717 166.067 37.6571L167.874 38.3511C169.919 39.1366 172.214 38.1154 172.999 36.0704L180.459 16.6476C181.244 14.6025 180.223 12.308 178.178 11.5226L176.371 10.8286C174.326 10.0431 172.031 11.0643 171.246 13.1093Z" fill="#262626"/>
<path d="M5.30031 42.506L3.86181 43.8012C2.23381 45.2671 2.10237 47.7751 3.56822 49.4031L10.1081 56.6664C11.5739 58.2944 14.082 58.4258 15.71 56.96L17.1485 55.6647C18.7765 54.1989 18.9079 51.6908 17.4421 50.0628L10.9022 42.7996C9.43636 41.1716 6.9283 41.0401 5.30031 42.506Z" fill="#262626"/>
<path d="M223.19 42.8283L216.649 50.0904C215.183 51.7182 215.314 54.2263 216.942 55.6924L218.38 56.9879C220.008 58.454 222.516 58.323 223.982 56.6953L230.523 49.4332C231.989 47.8054 231.858 45.2974 230.231 43.8312L228.792 42.5357C227.165 41.0696 224.657 41.2006 223.19 42.8283Z" fill="#262626"/>
<path d="M509.178 107.859H478.461H467.048H449.563C448.717 107.859 448.04 108.547 448.04 109.382V258.473C448.04 259.319 448.728 259.996 449.563 259.996H476.938C477.784 259.996 478.461 259.309 478.461 258.473V229.575H509.178C542.783 229.575 570.031 202.327 570.031 168.722C570.031 135.118 542.783 107.87 509.178 107.87V107.859ZM539.61 168.712C539.61 185.52 525.986 199.143 509.178 199.143H478.461V138.291H509.178C525.986 138.291 539.61 151.915 539.61 168.722V168.712Z" fill="#262626"/>
<path d="M378.842 200.529C378.842 217.136 365.536 230.633 349.003 230.95C331.942 231.278 317.979 216.988 317.979 199.926V109.382C317.979 108.536 317.292 107.859 316.456 107.859H289.081C288.235 107.859 287.558 108.547 287.558 109.382V199.757C287.558 233.309 314.393 261.128 347.956 261.371C381.772 261.625 409.274 234.282 409.274 200.519V109.382C409.274 108.536 408.586 107.859 407.751 107.859H380.376C379.53 107.859 378.853 108.547 378.853 109.382V200.519L378.842 200.529Z" fill="#262626"/>
<path d="M916.827 136.757V109.382C916.827 108.536 916.139 107.859 915.304 107.859H820.73C819.884 107.859 819.207 108.547 819.207 109.382V258.473C819.207 259.319 819.894 259.996 820.73 259.996H918.477C919.323 259.996 920 259.309 920 258.473V231.098C920 230.252 919.312 229.575 918.477 229.575H849.628V197.705H907.36C908.206 197.705 908.883 197.017 908.883 196.182V168.807C908.883 167.961 908.195 167.284 907.36 167.284H849.628V138.291H915.304C916.15 138.291 916.827 137.603 916.827 136.768V136.757Z" fill="#262626"/>
<path d="M626.41 154.157C626.41 144.478 636.861 136.916 657.053 136.916C668.974 136.471 687.654 139.507 704.144 145.028C705.128 145.356 706.133 144.637 706.133 143.601V115.253C706.133 114.586 705.699 114.005 705.065 113.804C694.572 110.599 681.18 106.484 656.429 106.484C616.657 106.484 596.56 131.14 596.56 153.787C596.56 218.373 683.677 184.25 683.677 215.56C683.677 226.729 671.544 230.844 655.16 230.844C630.493 230.844 610.258 224.117 598.781 219.822C597.798 219.452 596.75 220.182 596.75 221.24C596.75 227.576 596.75 245.801 596.75 250.391C596.75 251.026 597.142 251.597 597.745 251.809C609.994 256.199 631.307 261.392 655.551 261.392C696.306 261.392 714.69 235.826 714.69 211.783C714.69 149.947 626.41 180.368 626.41 154.167V154.157Z" fill="#262626"/>
<path d="M779.361 258.484C779.361 258.484 779.361 258.484 779.361 258.473V109.393C779.361 109.393 779.361 109.393 779.361 109.382C779.361 108.547 778.684 107.859 777.838 107.859H750.452C749.617 107.859 748.929 108.536 748.929 109.382V258.484C748.929 259.319 749.606 260.007 750.452 260.007H777.838C778.673 260.007 779.361 259.33 779.361 258.484Z" fill="#262626"/>
<path opacity="0.2" d="M117.026 193.823C117.026 193.823 117.079 193.823 117.1 193.823C117.227 193.823 117.344 193.823 117.471 193.823C117.777 193.823 118.084 193.802 118.391 193.781C118.782 193.749 119.174 193.717 119.554 193.675C119.829 193.643 120.094 193.601 120.369 193.548C120.781 193.474 121.183 193.4 121.596 193.305C121.829 193.252 122.061 193.189 122.283 193.125C122.326 193.115 122.379 193.093 122.421 193.083C122.802 192.977 123.182 192.861 123.553 192.734C123.743 192.67 123.934 192.596 124.124 192.522C124.568 192.353 125.002 192.163 125.436 191.962C125.594 191.888 125.742 191.813 125.901 191.739C126.356 191.507 126.8 191.263 127.223 191.01C127.339 190.936 127.456 190.872 127.572 190.798C128.027 190.512 128.471 190.195 128.905 189.867C128.979 189.804 129.064 189.751 129.138 189.687C129.592 189.328 130.037 188.958 130.46 188.556C130.502 188.513 130.544 188.482 130.587 188.439C130.629 188.397 130.661 188.355 130.703 188.323C131.116 187.921 131.518 187.508 131.898 187.075C131.898 187.075 131.909 187.064 131.92 187.054C132.321 186.588 132.702 186.102 133.062 185.604C133.189 185.435 133.295 185.255 133.411 185.076C133.644 184.737 133.866 184.388 134.077 184.028C134.204 183.817 134.31 183.595 134.426 183.383C134.606 183.045 134.775 182.706 134.945 182.357C135.051 182.124 135.156 181.881 135.251 181.648C135.4 181.299 135.526 180.95 135.653 180.591C135.738 180.347 135.823 180.104 135.897 179.85C136.013 179.48 136.108 179.099 136.203 178.718C136.267 178.475 136.32 178.232 136.373 177.989C136.457 177.566 136.521 177.142 136.574 176.709C136.605 176.497 136.637 176.286 136.658 176.063C136.722 175.418 136.764 174.773 136.764 174.107C136.764 174.107 136.764 174.096 136.764 174.085V134.028C136.764 132.156 138.277 130.643 140.149 130.643H172.865C174.737 130.643 176.25 132.156 176.25 134.028V145.135C176.25 145.293 176.271 145.441 176.271 145.59V174.085C176.271 199.874 159.781 221.801 136.785 229.935C130.608 232.114 123.965 233.32 117.037 233.32C117.037 233.32 117.037 233.32 117.026 233.32V292.554C117.026 292.554 121.755 291.613 129.127 289.095C130.185 288.736 131.295 288.344 132.448 287.921C134.183 287.286 136.024 286.578 137.959 285.774C141.82 284.187 146.041 282.273 150.441 279.977C151.911 279.216 153.403 278.412 154.905 277.555C156.407 276.709 157.93 275.81 159.464 274.868C181.634 261.255 205.698 238.069 213.303 199.81C213.568 198.488 213.811 197.155 214.033 195.801C214.699 191.739 215.186 187.508 215.461 183.108C215.651 180.178 215.747 177.164 215.747 174.085V78.75C215.747 77.8615 215.398 77.0576 214.837 76.4547C214.805 76.4229 214.784 76.3912 214.763 76.3595C214.149 75.746 213.303 75.3652 212.372 75.3652H179.349C179.349 75.3652 179.296 75.3652 179.265 75.3652C179.085 75.3652 178.905 75.3864 178.736 75.4181C178.715 75.4181 178.693 75.4287 178.672 75.4392C177.308 75.7248 176.261 76.8672 176.049 78.3163C176.007 78.6231 175.933 78.9193 175.869 79.226C175.816 79.501 175.774 79.7866 175.711 80.0511C175.637 80.3684 175.531 80.6751 175.436 80.9819C175.362 81.2463 175.288 81.5108 175.203 81.7646C175.097 82.0819 174.96 82.3781 174.843 82.6849C174.748 82.9281 174.663 83.1714 174.558 83.4147C174.41 83.732 174.251 84.0388 174.092 84.3455C173.986 84.5571 173.881 84.7792 173.764 84.9908C173.585 85.3081 173.384 85.6043 173.193 85.911C173.077 86.1014 172.971 86.2918 172.844 86.4716C172.622 86.7995 172.379 87.1063 172.135 87.4236C172.019 87.5717 171.913 87.7304 171.797 87.8679C171.501 88.2275 171.183 88.5766 170.856 88.915C170.781 88.9997 170.707 89.0843 170.633 89.1689C170.221 89.5814 169.798 89.9834 169.354 90.3642C168.063 91.4748 166.624 92.4162 165.07 93.1566C164.033 93.6538 162.954 94.0663 161.833 94.3836C161.177 94.5635 160.511 94.701 159.834 94.8173C158.755 94.9971 157.655 95.1029 156.534 95.1029C156.512 95.1029 156.491 95.1029 156.459 95.1029C155.857 95.1029 155.254 95.0712 154.661 95.0183C154.418 94.9971 154.185 94.9548 153.942 94.9231C153.572 94.8702 153.202 94.8385 152.842 94.7644C152.546 94.7115 152.271 94.6269 151.975 94.5635C151.678 94.4894 151.372 94.4365 151.076 94.3519C150.748 94.2567 150.441 94.1404 150.113 94.0346C149.87 93.95 149.626 93.8759 149.383 93.7807C149.034 93.6432 148.696 93.4845 148.357 93.3365C148.167 93.2518 147.966 93.1672 147.775 93.072C147.405 92.8922 147.056 92.6806 146.696 92.4797C146.548 92.3951 146.39 92.321 146.252 92.2258C145.871 91.9931 145.501 91.7392 145.131 91.4748C145.025 91.4008 144.919 91.3373 144.814 91.2527C144.422 90.9671 144.052 90.6603 143.682 90.343C143.618 90.2901 143.544 90.2267 143.481 90.1738C143.089 89.8353 142.719 89.4651 142.36 89.0949C142.317 89.0526 142.286 89.0208 142.243 88.9785C141.862 88.5871 141.513 88.1746 141.164 87.7409C141.143 87.7198 141.133 87.6986 141.111 87.6775C140.752 87.2332 140.413 86.7678 140.096 86.2918C138.488 83.8801 137.399 81.0876 136.986 78.0836C136.648 76.5287 135.357 75.3546 133.749 75.3546H117.037V193.791L117.026 193.823Z" fill="white"/>
</svg>
