<svg id="Layer_1" xmlns="http://www.w3.org/2000/svg" viewBox="0 0 100 100"><style/><path d="M77.43 50c0-1.15.77-2.57 1.51-3.96 1.05-1.96 2.14-3.99 1.51-5.92-.66-2.01-2.79-3.01-4.85-3.97-1.38-.65-2.8-1.32-3.44-2.18-.64-.88-.86-2.45-1.07-3.97-.31-2.24-.63-4.55-2.32-5.78-1.67-1.21-3.95-.78-6.16-.37-1.52.29-3.1.58-4.16.24-.99-.32-2.06-1.45-3.09-2.54-1.58-1.66-3.21-3.38-5.36-3.38-2.15 0-3.78 1.72-5.36 3.38-1.03 1.09-2.1 2.21-3.09 2.54-1.07.34-2.64.05-4.16-.24-2.21-.41-4.49-.84-6.16.37-1.69 1.22-2.01 3.54-2.32 5.78-.21 1.52-.43 3.09-1.07 3.97-.64.86-2.06 1.53-3.44 2.18-2.06.97-4.19 1.97-4.85 3.97-.63 1.93.46 3.96 1.51 5.92.74 1.38 1.51 2.81 1.51 3.96s-.77 2.57-1.51 3.96c-1.05 1.96-2.14 3.99-1.51 5.92.66 2.01 2.79 3.01 4.85 3.98 1.38.65 2.8 1.32 3.44 2.18.64.88.86 2.45 1.07 3.97.31 2.24.63 4.55 2.32 5.78 1.67 1.21 3.95.78 6.16.37 1.52-.29 3.09-.58 4.16-.24.99.32 2.06 1.45 3.09 2.54 1.58 1.66 3.21 3.38 5.36 3.38 2.15 0 3.79-1.72 5.36-3.38 1.03-1.09 2.1-2.21 3.09-2.54 1.06-.34 2.64-.05 4.16.24 2.2.41 4.49.84 6.16-.37 1.69-1.22 2.01-3.54 2.32-5.77.21-1.52.43-3.1 1.07-3.97.63-.86 2.06-1.53 3.44-2.18 2.06-.97 4.19-1.97 4.85-3.98.64-1.93-.45-3.96-1.51-5.92-.74-1.4-1.51-2.82-1.51-3.97zm1.12 9.25c-.39 1.19-2.12 2-3.8 2.79-1.6.75-3.26 1.53-4.2 2.8-.95 1.29-1.2 3.12-1.44 4.89-.25 1.82-.51 3.71-1.51 4.43-.98.7-2.83.36-4.62.02-1.77-.33-3.6-.67-5.14-.17-1.48.47-2.72 1.79-3.93 3.06-1.29 1.36-2.62 2.76-3.91 2.76s-2.62-1.4-3.91-2.76c-1.21-1.27-2.45-2.59-3.93-3.06-.56-.18-1.16-.25-1.78-.25-1.08 0-2.23.21-3.36.42-1.79.34-3.64.68-4.62-.03-1-.72-1.26-2.6-1.51-4.43-.24-1.77-.49-3.6-1.44-4.88-.94-1.27-2.59-2.05-4.2-2.81-1.68-.79-3.41-1.6-3.8-2.79-.37-1.12.52-2.76 1.37-4.35.86-1.6 1.75-3.25 1.75-4.9s-.89-3.3-1.75-4.9c-.85-1.59-1.74-3.23-1.37-4.35.39-1.19 2.13-2 3.8-2.79 1.6-.75 3.26-1.53 4.2-2.8.95-1.29 1.2-3.12 1.44-4.88.25-1.82.51-3.71 1.51-4.43.98-.7 2.83-.36 4.62-.03 1.77.33 3.6.67 5.14.17 1.48-.47 2.72-1.79 3.93-3.06 1.29-1.36 2.62-2.76 3.91-2.76s2.63 1.4 3.91 2.76c1.21 1.27 2.45 2.58 3.93 3.06 1.54.5 3.38.16 5.14-.17 1.79-.33 3.64-.68 4.62.03 1 .72 1.26 2.6 1.51 4.43.24 1.77.49 3.6 1.44 4.88.94 1.27 2.59 2.05 4.2 2.81 1.68.79 3.41 1.6 3.8 2.79.37 1.12-.52 2.76-1.37 4.35-.86 1.6-1.75 3.25-1.75 4.9s.89 3.3 1.75 4.9c.85 1.59 1.74 3.23 1.37 4.35zM50 33.03c-9.48 0-17.17 7.6-17.17 16.97S40.52 66.97 50 66.97 67.17 59.37 67.17 50 59.48 33.03 50 33.03z" fill="#fff"/></svg>