<svg id="Layer_1" xmlns="http://www.w3.org/2000/svg" viewBox="0 0 100 100"><style/><path d="M50 26.07c-1.85 0-3.65.23-5.38.62-.8.18-1.59.4-2.36.66C32.7 30.55 25.79 39.49 25.79 50c0 13.2 10.86 23.93 24.21 23.93 10.54 0 19.5-6.7 22.82-16.01A23.817 23.817 0 0 0 74.21 50c0-13.2-10.86-23.93-24.21-23.93zm0 45.86c-12.25 0-22.21-9.84-22.21-21.93 0-9.15 5.71-17 13.8-20.29-.39 1.73-.62 3.53-.62 5.38 0 13.35 10.73 24.21 23.93 24.21 1.9 0 3.73-.25 5.51-.67-3.4 7.81-11.27 13.3-20.41 13.3z" fill="#fff"/></svg>