<svg id="Layer_1" xmlns="http://www.w3.org/2000/svg" viewBox="0 0 100 100"><style/><path d="M73.52 71.05H26.48c-8.21 0-14.89-6.6-14.89-14.72s6.68-14.72 14.89-14.72c1.69 0 3.34.28 4.93.83 2.54-8 10.02-13.5 18.58-13.5s16.05 5.5 18.59 13.5c1.59-.55 3.24-.83 4.93-.83 8.21 0 14.89 6.6 14.89 14.72s-6.67 14.72-14.88 14.72zM26.48 43.61c-7.11 0-12.89 5.71-12.89 12.72s5.78 12.72 12.89 12.72h47.03c7.11 0 12.89-5.71 12.89-12.72s-5.78-12.72-12.89-12.72c-1.79 0-3.54.37-5.19 1.08l-1.08.47-.29-1.14C65 36.32 58.03 30.95 50 30.95s-15 5.38-16.96 13.08l-.29 1.14-1.08-.47a12.92 12.92 0 0 0-5.19-1.09z" fill="#fff"/></svg>