<svg id="Layer_1" xmlns="http://www.w3.org/2000/svg" viewBox="0 0 100 100"><style/><path d="M26.48 58.93v-2c-7.11 0-12.89-5.71-12.89-12.72s5.78-12.72 12.89-12.72c2.46 0 4.86.7 6.95 2.02l.88.55.52-.9c3.12-5.36 8.93-8.69 15.17-8.69s12.05 3.33 15.17 8.69l.52.9.88-.55c2.08-1.32 4.48-2.02 6.95-2.02 7.11 0 12.89 5.71 12.89 12.72s-5.78 12.72-12.89 12.72v2c8.21 0 14.89-6.6 14.89-14.72s-6.68-14.72-14.89-14.72c-2.5 0-4.95.62-7.14 1.81-3.58-5.47-9.76-8.83-16.37-8.83s-12.79 3.36-16.37 8.83a14.938 14.938 0 0 0-7.14-1.81c-8.21 0-14.89 6.6-14.89 14.72s6.67 14.72 14.87 14.72zm33.14.33c-2.18 0-3.2-.49-4.38-1.06-1.22-.59-2.61-1.25-5.25-1.25-2.63 0-4.02.67-5.24 1.25-1.18.57-2.2 1.06-4.38 1.06-2.17 0-3.19-.49-4.37-1.06-1.22-.59-2.61-1.25-5.24-1.25v2c2.18 0 3.19.49 4.37 1.06 1.22.59 2.61 1.25 5.24 1.25 2.63 0 4.02-.67 5.24-1.25 1.18-.57 2.2-1.06 4.38-1.06s3.2.49 4.38 1.06c1.22.59 2.61 1.25 5.25 1.25 2.63 0 4.02-.67 5.25-1.25 1.18-.57 2.2-1.06 4.38-1.06v-2c-2.63 0-4.02.67-5.25 1.25-1.19.57-2.21 1.06-4.38 1.06zm13.36 16.27c-2.65 0-3.95-.62-5.32-1.28-1.51-.73-3.08-1.48-6.18-1.48-3.1 0-4.67.75-6.18 1.48-1.37.66-2.67 1.28-5.31 1.28-2.64 0-3.94-.62-5.31-1.28-1.51-.73-3.08-1.48-6.18-1.48-3.1 0-4.67.75-6.18 1.48-1.37.66-2.67 1.28-5.31 1.28-2.65 0-3.94-.62-5.31-1.28-1.51-.73-3.08-1.48-6.18-1.48v2c2.64 0 3.94.62 5.31 1.28 1.51.73 3.08 1.48 6.18 1.48s4.67-.75 6.18-1.48c1.37-.66 2.67-1.28 5.31-1.28 2.64 0 3.94.62 5.31 1.28 1.51.73 3.08 1.48 6.18 1.48 3.1 0 4.67-.75 6.18-1.48 1.37-.66 2.67-1.28 5.31-1.28 2.65 0 3.95.62 5.32 1.28 1.52.73 3.08 1.48 6.19 1.48 3.1 0 4.67-.75 6.18-1.48 1.38-.66 2.67-1.28 5.32-1.28v-2c-3.1 0-4.67.75-6.18 1.48-1.38.65-2.68 1.28-5.33 1.28z" fill="#fff"/></svg>