<svg id="Layer_1" xmlns="http://www.w3.org/2000/svg" viewBox="0 0 100 100"><style/><path d="M82.6 57.81c-.31-1.22-.95-2.45-1.6-3.66-.79-1.48-1.62-3.01-1.62-4.24s.82-2.76 1.62-4.24c1.13-2.1 2.3-4.27 1.61-6.34-.71-2.15-2.99-3.22-5.19-4.26-1.48-.69-3-1.41-3.68-2.33-.69-.94-.92-2.63-1.15-4.25-.33-2.4-.67-4.88-2.49-6.19-1.79-1.29-4.23-.84-6.6-.4-1.63.3-3.31.62-4.46.25-1.06-.34-2.2-1.55-3.31-2.72-1.69-1.78-3.44-3.63-5.74-3.63-2.31 0-4.05 1.84-5.74 3.63-1.1 1.17-2.25 2.37-3.31 2.72-1.14.36-2.83.05-4.46-.25-2.36-.44-4.81-.9-6.6.4-1.81 1.31-2.15 3.79-2.48 6.18-.22 1.63-.46 3.31-1.15 4.25-.68.92-2.21 1.64-3.68 2.33-2.21 1.04-4.49 2.11-5.2 4.26-.68 2.07.49 4.24 1.62 6.34.79 1.48 1.62 3.01 1.62 4.24s-.81 2.78-1.61 4.26c-.65 1.21-1.29 2.44-1.6 3.66-3.53 2.69-5.81 6.9-5.81 11.64 0 8.12 6.68 14.72 14.89 14.72h47.03c8.21 0 14.89-6.6 14.89-14.72 0-4.74-2.28-8.95-5.8-11.65zm-61.71-2.64c.92-1.71 1.87-3.48 1.87-5.25s-.95-3.54-1.87-5.25c-.91-1.7-1.86-3.46-1.47-4.66.42-1.27 2.28-2.15 4.07-2.99 1.72-.81 3.49-1.64 4.5-3 1.01-1.38 1.28-3.34 1.54-5.23.27-1.95.54-3.97 1.61-4.74 1.05-.75 3.03-.39 4.95-.03 1.89.35 3.86.72 5.51.18 1.58-.51 2.92-1.92 4.21-3.28 1.38-1.45 2.81-2.96 4.19-2.96 1.38 0 2.81 1.5 4.19 2.96 1.29 1.36 2.63 2.77 4.21 3.28 1.65.53 3.61.17 5.51-.18 1.92-.36 3.9-.72 4.95.03 1.07.77 1.35 2.79 1.62 4.74.26 1.89.53 3.85 1.54 5.23 1 1.36 2.78 2.2 4.5 3.01 1.79.84 3.65 1.72 4.07 2.99.39 1.19-.55 2.96-1.47 4.66-.92 1.71-1.87 3.48-1.87 5.25s.95 3.54 1.87 5.25c.15.28.29.56.44.84a15.01 15.01 0 0 0-10.96-.44v-.01c.56-1.78.88-3.67.88-5.63 0-10.61-8.73-19.24-19.46-19.24s-19.47 8.63-19.47 19.24c0 1.96.32 3.85.88 5.63 0 .01 0 .01-.01.01a15.01 15.01 0 0 0-10.96.44c.13-.29.28-.57.43-.85zm52.63 27H26.48c-7.11 0-12.89-5.71-12.89-12.72 0-7.01 5.78-12.72 12.89-12.72 1.79 0 3.54.37 5.19 1.08l1.08.47.29-1.14C35 49.45 41.97 44.07 50 44.07c8.03 0 15 5.38 16.96 13.08l.29 1.14 1.08-.47c1.65-.72 3.4-1.08 5.19-1.08 7.11 0 12.89 5.71 12.89 12.72-.01 7.01-5.79 12.71-12.89 12.71z" fill="#fff"/></svg>