<svg id="Layer_1" xmlns="http://www.w3.org/2000/svg" viewBox="0 0 100 100"><style/><path d="M73.52 54.38c-1.69 0-3.34.28-4.93.83-.45-1.41-1.06-2.74-1.79-3.98 5.4-1.69 9.73-5.79 11.64-11.04.29-.8.55-1.62.72-2.46.24-1.16.37-2.36.37-3.59 0-9.91-8.15-17.97-18.17-17.97-1.21 0-2.39.12-3.54.35-.82.16-1.62.39-2.4.66-7.11 2.44-12.24 9.11-12.24 16.96 0 2.95.77 5.71 2.05 8.16-6.48 1.61-11.76 6.44-13.81 12.91a15.01 15.01 0 0 0-4.93-.83c-8.21 0-14.89 6.6-14.89 14.72s6.68 14.72 14.89 14.72h47.03c8.21 0 14.89-6.6 14.89-14.72s-6.68-14.72-14.89-14.72zM45.18 34.14c0-6.48 3.94-12.07 9.58-14.57-.22 1.15-.35 2.33-.35 3.54 0 10.02 8.06 18.17 17.97 18.17 1.23 0 2.43-.13 3.59-.37-1.99 4.17-5.78 7.31-10.36 8.55A19.517 19.517 0 0 0 50 41.7c-.92 0-1.82.08-2.72.2-1.31-2.29-2.1-4.93-2.1-7.76zm28.34 47.68H26.48c-7.11 0-12.89-5.71-12.89-12.72 0-7.01 5.78-12.72 12.89-12.72 1.79 0 3.54.37 5.19 1.08l1.08.47.29-1.14C35 49.1 41.97 43.72 50 43.72c8.03 0 15 5.38 16.96 13.08l.29 1.14 1.08-.47c1.65-.72 3.4-1.08 5.19-1.08 7.11 0 12.89 5.71 12.89 12.72-.01 7.01-5.79 12.71-12.89 12.71z" fill="#fff"/></svg>