<svg id="Layer_1" xmlns="http://www.w3.org/2000/svg" viewBox="0 0 100 100"><style/><path d="M73.52 23.4c-2.5 0-4.95.62-7.14 1.82-3.58-5.47-9.76-8.83-16.37-8.83s-12.79 3.36-16.37 8.83a14.947 14.947 0 0 0-7.14-1.82c-8.21 0-14.89 6.6-14.89 14.72 0 5.76 3.38 10.75 8.27 13.17v15.63h2V52.11c1.46.47 3.01.74 4.62.74H49v30.78h2V52.84h22.52c1.61 0 3.16-.26 4.62-.74v14.81h2V51.29c4.89-2.42 8.27-7.4 8.27-13.17C88.4 30 81.72 23.4 73.52 23.4zm0 27.44H26.48c-7.11 0-12.89-5.71-12.89-12.72 0-7.01 5.78-12.72 12.89-12.72 2.46 0 4.86.7 6.95 2.02l.88.55.52-.9c3.12-5.36 8.93-8.69 15.17-8.69s12.05 3.33 15.17 8.69l.52.9.88-.55c2.09-1.32 4.49-2.02 6.95-2.02 7.11 0 12.89 5.71 12.89 12.72-.01 7.01-5.79 12.72-12.89 12.72zM34.43 74.91h2V57.84h-2v17.07zm29.14 0h2V57.84h-2v17.07z" fill="#fff"/></svg>