<svg id="Layer_1" xmlns="http://www.w3.org/2000/svg" viewBox="0 0 100 100"><style/><path d="M73.52 23.4c-2.5 0-4.95.62-7.14 1.81-3.58-5.47-9.76-8.83-16.37-8.83-6.61 0-12.79 3.36-16.37 8.83a14.938 14.938 0 0 0-7.14-1.81c-8.21 0-14.89 6.6-14.89 14.72 0 5.76 3.38 10.75 8.27 13.17v16.33h2V52.11c1.46.47 3.01.73 4.62.73H49v30.78h2V52.84h22.52c1.61 0 3.16-.26 4.62-.73v15.51h2V51.29c4.89-2.42 8.27-7.4 8.27-13.17C88.4 30 81.73 23.4 73.52 23.4zm4.74 26.54h-.12v.04c-1.44.55-2.99.86-4.62.86H26.48c-1.63 0-3.18-.31-4.62-.86v-.04h-.12c-4.76-1.87-8.14-6.46-8.14-11.82 0-7.01 5.78-12.72 12.89-12.72 2.46 0 4.86.7 6.95 2.02l.88.56.52-.9c3.12-5.36 8.94-8.69 15.17-8.69s12.05 3.33 15.17 8.69l.52.9.88-.56c2.08-1.32 4.48-2.02 6.95-2.02 7.11 0 12.89 5.71 12.89 12.72-.02 5.36-3.4 9.95-8.16 11.82zm-6.13 10.85l-6.56 3.79V57h-2v7.58l-6.56-3.79-1 1.73 6.56 3.79-6.56 3.79 1 1.73 6.56-3.79v7.58h2v-7.58l6.56 3.79 1-1.73-6.56-3.79 6.56-3.79-1-1.73zm-29.14 0l-6.56 3.79V57h-2v7.58l-6.56-3.79-1 1.73 6.56 3.79-6.56 3.79 1 1.73 6.56-3.79v7.58h2v-7.58l6.56 3.79 1-1.73-6.56-3.79 6.56-3.79-1-1.73z" fill="#fff"/></svg>