<svg id="Layer_1" xmlns="http://www.w3.org/2000/svg" viewBox="0 0 100 100"><style/><path d="M78.54 54.6l-2.17-1.25-10.72 4.53-5.44-3.14c.69-1.44 1.08-3.04 1.08-4.74 0-1.7-.4-3.3-1.08-4.74l5.44-3.14 10.72 4.53 2.17-1.25-10.72-4.53 11.45-6.61-1-1.73-11.44 6.61 1.44-11.55-2.17 1.25-1.44 11.55-5.46 3.15a11.281 11.281 0 0 0-8.19-4.65v-6.38l9.29-7.02v-2.51L51 30V16.79h-2V30l-9.29-7.02v2.51L49 32.51v6.38c-3.38.29-6.32 2.07-8.19 4.65l-5.46-3.15-1.44-11.55-2.17-1.25 1.44 11.55-11.44-6.61-1 1.73 11.45 6.61-10.73 4.53 2.17 1.25 10.72-4.53 5.44 3.14c-.69 1.44-1.08 3.04-1.08 4.74 0 1.7.4 3.3 1.08 4.74l-5.44 3.14-10.72-4.53-2.17 1.25 10.72 4.53-11.45 6.61 1 1.73 11.44-6.61-1.44 11.55 2.17-1.25 1.44-11.55 5.46-3.15c1.87 2.59 4.81 4.36 8.19 4.65v6.38l-9.29 7.02v2.51L49 70v13.22h2V70l9.29 7.02v-2.51L51 67.49v-6.38c3.38-.29 6.32-2.07 8.19-4.65l5.46 3.15 1.44 11.55 2.17 1.25-1.44-11.55 11.44 6.61 1-1.73-11.45-6.61 10.73-4.53zM50 59.16c-5.12 0-9.29-4.11-9.29-9.16s4.17-9.16 9.29-9.16c5.12 0 9.29 4.11 9.29 9.16s-4.17 9.16-9.29 9.16z" fill="#fff"/></svg>