<svg id="Layer_1" xmlns="http://www.w3.org/2000/svg" viewBox="0 0 100 100"><style/><path d="M50.5 42.39c-6.53-2.88-13.28-5.86-20.15-5.86-5.88 0-10.34 1.44-14.81 3.88v2.16c4.58-2.65 8.88-4.16 14.81-4.16 6.47 0 13.04 2.9 19.39 5.7 6.39 2.82 13 5.74 19.58 5.74 6.38 0 11.44-1.46 15.14-4.29V43.1c-3.42 3.22-8.49 4.87-15.14 4.87-6.18 0-12.32-2.71-18.82-5.58zm18.82-8.31c-3.54 0-7.07-.9-10.65-2.2v1.99c3.53 1.23 7.1 2.09 10.65 2.09 6.38 0 11.44-1.46 15.14-4.29v-2.46c-3.42 3.22-8.49 4.87-15.14 4.87zM51.59 56.05c-6.61-2.77-13.45-5.64-20.3-5.64-6.52 0-11.22 1.24-15.75 4.24v2.26c4.54-3.29 9.15-4.62 15.75-4.62 6.48 0 13.14 2.79 19.58 5.49 6.47 2.71 13.16 5.52 19.73 5.52 5.95 0 10.15-1.05 13.86-3.19v-2.2c-3.7 2.39-7.77 3.52-13.86 3.52-6.2-.01-12.42-2.62-19.01-5.38zM15.54 68.53v2.26c4.54-3.29 9.15-4.62 15.75-4.62 3.32 0 6.69.74 10.05 1.82v-1.97c-3.33-1.03-6.69-1.72-10.05-1.72-6.52-.01-11.22 1.23-15.75 4.23z" fill="#fff"/></svg>