<svg xmlns="http://www.w3.org/2000/svg" viewBox="0 0 290.39 409.6"><defs><style>.cls-1{fill:#e34f26}</style></defs><g id="Layer_2" data-name="Layer 2"><g id="Layer_1-2" data-name="Layer 1"><path d="M26.64.55h18.48v18.26H62V.55h18.52v55.3H62V37.33H45.12v18.52H26.64zm78.19 18.34H88.55V.55h51v18.34h-16.24v37h-18.48zM147.69.55H167L178.82 20 190.66.55H210v55.3h-18.46V28.44l-12.72 19.67h-.32l-12.72-19.67v27.41h-18.09zm71.45 0h18.5v37h26v18.3h-44.5z"/><path class="cls-1" d="M26.44 376.66L0 80.1h290.38l-26.46 296.58-118.8 32.92-118.68-32.94z"/><path class="cls-1" d="M26.44 376.66L0 80.1h290.38l-26.46 296.58-118.8 32.92-118.68-32.94z"/><path fill="#ee652a" d="M145.19 104.35v280.08l96.06-26.64 22.63-253.44H145.19z"/><path fill="#fff" d="M54.09 140.73l9.82 109.99h126.05l-4.22 47.17-40.6 10.96-40.5-10.94-2.71-30.3H65.42l5.21 58.4 74.5 20.69 74.61-20.69 9.98-111.67H97.17l-3.32-37.24h139.18l3.26-36.37H54.09z"/><path d="M145.19 140.73h-91.1l9.82 109.99h81.28v-36.38H97.17l-3.32-37.24h51.34v-36.37zm0 168.11l-.05.01-40.5-10.94-2.71-30.3H65.42l5.21 58.4 74.5 20.69.06-.02v-37.84z" fill="#ebebeb"/><path fill="none" d="M0 0h290.39v80.1H0z"/></g></g></svg>