<svg xmlns="http://www.w3.org/2000/svg" viewBox="0 0 1920 1365.01"><defs><clipPath id="a"><path fill="none" d="M0 282.5h1920v800H0z"/></clipPath></defs><g data-name="Layer 2"><g clip-path="url(#a)" data-name="Layer 1"><path fill="#f2f2f2" d="M0 0h1920v1365.01H0z"/><path fill="#fff" d="M1920 569.78l-749.1 62.17L1920 384.81V368.9l-761.33 221.76 761.33-434v-13.85l-781.21 409.8 621.79-540.98h-22.46l-626.07 507.62 392.87-507.62h-26.62l-398.84 480.25 240.47-480.25h-27.39l-250.25 459.91 127.87-459.91h-27.33l-140.88 447.39 35.44-447.39h-27.18L960 454.79 909.79 11.63h-27.18l35.44 447.39L777.17 11.63h-27.32l127.86 459.91L627.46 11.63h-27.39l240.47 480.25L441.7 11.63h-26.62l392.87 507.62L181.88 11.63h-22.46l621.79 540.98L0 142.81v13.85l761.34 434L0 368.9v15.91l749.1 247.14L0 569.78v16.67l744.97 88.43L0 763.31v16.67l749.1-62.17L0 964.95v15.91l761.34-221.75L0 1193.1v13.85l781.21-409.79-621.79 540.97h22.46l626.07-507.62-392.87 507.62h26.62l398.84-480.25-240.47 480.25h27.39l250.25-459.91-127.86 459.91h27.31l140.89-447.39-35.44 447.39h27.18L960 894.97l50.21 443.16h27.18l-35.44-447.39 140.88 447.39h27.33l-127.87-459.91 250.25 459.91h27.39l-240.47-480.25 398.84 480.25h26.62l-392.87-507.62 626.07 507.62h22.46l-621.79-540.97L1920 1206.95v-13.85l-761.33-433.99L1920 980.86v-15.92l-749.1-247.13 749.1 62.17v-16.67l-744.97-88.43L1920 586.45v-16.67z"/></g></g></svg>