<svg id="Layer_1" data-name="Layer 1" xmlns="http://www.w3.org/2000/svg" viewBox="0 0 200 150"><defs><style>.cls-1{fill:#666;}.cls-2{fill:#424242;}.cls-3{fill:#7edfe9;}.cls-4,.cls-6{fill:#2ab0c6;}.cls-5{fill:#37bedb;}.cls-6{opacity:0.35;}</style></defs><title>ocu-illustrations</title><path class="cls-1" d="M.27,149.83,200,150l-.16-42.54s-19.92-27.32-57.37-16.1c-32.71,9.81-78.72-14.38-97.72-13C13,80.54,0,96,0,96Z"/><path class="cls-2" d="M160.69,104a5.18,5.18,0,0,1,0,9.66l-30.78,12c-17.62,6.9-42.06,6.9-59.84,0l-30.78-12a5.18,5.18,0,0,1,0-9.66l30.77-11.9c17.62-6.89,42.22-6.81,59.84,0Z"/><path class="cls-3" d="M160.69,99.45a5.18,5.18,0,0,1,0,9.66l-30.78,12c-17.62,6.9-42.06,6.9-59.84,0l-30.78-12a5.18,5.18,0,0,1,0-9.66l30.77-11.9c17.62-6.89,42.22-6.81,59.84,0Z"/><ellipse class="cls-4" cx="92.69" cy="112.85" rx="3.97" ry="14.42" transform="translate(-20.43 205.22) rotate(-89.83)"/><polygon class="cls-4" points="91.77 106.09 78.09 107.98 78.28 112.86 107.11 112.85 106.93 107.98 91.77 106.09"/><ellipse class="cls-5" cx="92.51" cy="107.98" rx="3.97" ry="14.42" transform="translate(-15.74 200.18) rotate(-89.83)"/><rect class="cls-3" x="67.52" y="77.17" width="1.83" height="5.88" rx="0.28" ry="0.28" transform="translate(-23.33 131.88) rotate(-78.93)"/><path class="cls-3" d="M72.2,71.94l-4.87-2.07a.34.34,0,0,1-.18-.41l.37-1.33a.25.25,0,0,1,.34-.19L72.74,70a.34.34,0,0,1,.17.41l-.37,1.33A.25.25,0,0,1,72.2,71.94Z"/><path class="cls-3" d="M76.07,63.33l-4-3.46a.36.36,0,0,1,0-.45l.77-1.16a.25.25,0,0,1,.38-.07l4,3.46a.36.36,0,0,1,0,.44l-.76,1.16A.26.26,0,0,1,76.07,63.33Z"/><rect class="cls-3" x="133.34" y="83.26" width="5.88" height="1.83" rx="0.28" ry="0.28" transform="translate(-6.83 12.23) rotate(-5.01)"/><path class="cls-3" d="M133.4,75.65l5.06-1.54a.35.35,0,0,0,.22-.39l-.23-1.37a.26.26,0,0,0-.32-.23l-5.06,1.55a.34.34,0,0,0-.22.39l.23,1.36A.26.26,0,0,0,133.4,75.65Z"/><path class="cls-3" d="M130.46,66.67l4.34-3a.35.35,0,0,0,.09-.44L134.26,62a.26.26,0,0,0-.38-.11l-4.34,3a.35.35,0,0,0-.09.44l.63,1.23A.26.26,0,0,0,130.46,66.67Z"/><path class="cls-6" d="M129.92,87.55A68.12,68.12,0,0,0,123,85.31l-3.94,12.44,4.52,2.9,19.43-8Z"/><path class="cls-2" d="M123.53,102.24l1.62-1.07a.19.19,0,0,0-.08-.34L84,94.8a.51.51,0,0,0-.32.06l-2,1.23a.18.18,0,0,0,.07.34l41.36,5.92A.69.69,0,0,0,123.53,102.24Z"/><path class="cls-4" d="M103.84,60.51a6.86,6.86,0,0,0,8.09-6.95v-.19l9,1.28a4.73,4.73,0,0,0,2.49,3.89v42.37l-38-5.4.2-42.25A3.3,3.3,0,0,0,87.88,50l7.88,1.12a1.37,1.37,0,0,0,0,.19A9.66,9.66,0,0,0,103.84,60.51Z"/><polygon class="cls-4" points="87.88 49.95 86.66 50.74 88.08 52.91 87.88 49.95"/><polygon class="cls-4" points="111.93 53.37 110.71 54.16 112.17 55.02 111.93 53.37"/><polyline class="cls-4" points="123.42 100.91 122.2 101.7 121.48 100.34 122.66 99.7"/><path class="cls-5" d="M102.62,61.29a6.85,6.85,0,0,0,8.09-6.94v-.19l9,1.28a4.75,4.75,0,0,0,2.49,3.89V101.7l-38-5.41V53.92a3.31,3.31,0,0,0,2.49-3.18l7.88,1.12a1.11,1.11,0,0,0,0,.19A9.65,9.65,0,0,0,102.62,61.29Z"/><path class="cls-3" d="M95.05,91.52A29.73,29.73,0,0,1,92,86.89a8.78,8.78,0,0,1-.83-3.6A7.24,7.24,0,0,1,92,79.92a20,20,0,0,1,3.06-3.76,2.24,2.24,0,0,1,1.79-.45l.9.13a3,3,0,0,1,2,1.26c2.22,3.11,3.72,5.33,4.08,6.06a4.61,4.61,0,0,1,.45,2h0a4.05,4.05,0,0,1-.46,1.88,22,22,0,0,1-2.2,2.72h-.06a.11.11,0,0,1,0,0l-1.1-1.61,1.25-1.48a2.72,2.72,0,0,0,.62-1.76,3.51,3.51,0,0,0-.62-1.94l-2.23-3.27-.81-1.18a2.21,2.21,0,0,0-.76-.7,1.57,1.57,0,0,0-1.75.15A22.63,22.63,0,0,0,93.63,81,5.55,5.55,0,0,0,93,83.55a6.3,6.3,0,0,0,.63,2.75c.52,1,2.58,4,4.23,6.33l-1-.15a3,3,0,0,1-1.79-1M94,74.88A21.42,21.42,0,0,0,90.58,79a8.73,8.73,0,0,0-1,4,10.57,10.57,0,0,0,1,4.32A32.79,32.79,0,0,0,94,92.49a4.93,4.93,0,0,0,2.89,1.56l5.17.73A3.64,3.64,0,0,0,104.9,94a21.27,21.27,0,0,0,3.37-4.14,8.65,8.65,0,0,0,1-4,10.37,10.37,0,0,0-1-4.31,31.2,31.2,0,0,0-3.37-5.11A4.82,4.82,0,0,0,102,74.88l-5.17-.74a3.72,3.72,0,0,0-2.89.74m5.48,11.79-1-1.45a1.5,1.5,0,0,1,0-1.8l1-1.16,1,1.44a1.47,1.47,0,0,1,0,1.8Zm4.38-9.27A31.76,31.76,0,0,1,106.87,82a8.8,8.8,0,0,1,.82,3.61,7.26,7.26,0,0,1-.82,3.37,21.13,21.13,0,0,1-3.06,3.76,2.33,2.33,0,0,1-1.8.45l-.9-.13a3.06,3.06,0,0,1-2-1.26c-2.22-3.11-3.71-5.34-4.07-6.07a4.42,4.42,0,0,1,0-3.87,21.69,21.69,0,0,1,2.2-2.71s0,0,.05,0a.07.07,0,0,1,0,0l1.11,1.62L97.19,82.3a3.07,3.07,0,0,0,0,3.69l2.24,3.27h0l.8,1.19a2.13,2.13,0,0,0,.77.69,1.54,1.54,0,0,0,1.74-.14,21.48,21.48,0,0,0,2.48-3.08,5.36,5.36,0,0,0,.62-2.54h0a6.29,6.29,0,0,0-.63-2.74c-.52-1-2.57-4-4.23-6.33l1,.14a3,3,0,0,1,1.8,1"/><polygon class="cls-3" points="85.71 94.71 85.71 96.46 85.14 96.38 85.14 94.63 85.71 94.71"/><polygon class="cls-3" points="85.71 87.15 85.71 92.98 85.14 92.91 85.14 87.07 85.71 87.15"/><polygon class="cls-3" points="85.71 79.59 85.71 85.43 85.14 85.35 85.14 79.51 85.71 79.59"/><polygon class="cls-3" points="85.71 72.04 85.71 77.87 85.14 77.79 85.14 71.96 85.71 72.04"/><polygon class="cls-3" points="85.71 64.48 85.71 70.32 85.14 70.24 85.14 64.4 85.71 64.48"/><polygon class="cls-3" points="85.71 56.92 85.71 62.76 85.14 62.68 85.14 56.84 85.71 56.92"/><polygon class="cls-3" points="121.22 99.76 121.22 101.52 120.66 101.43 120.66 99.68 121.22 99.76"/><polygon class="cls-3" points="121.22 92.2 121.22 98.04 120.66 97.96 120.66 92.12 121.22 92.2"/><polygon class="cls-3" points="121.22 84.64 121.22 90.48 120.66 90.4 120.66 84.56 121.22 84.64"/><polygon class="cls-3" points="121.22 77.09 121.22 82.92 120.66 82.84 120.66 77.01 121.22 77.09"/><polygon class="cls-3" points="121.22 69.53 121.22 75.37 120.66 75.29 120.66 69.45 121.22 69.53"/><polygon class="cls-3" points="121.22 61.98 121.22 67.81 120.66 67.73 120.66 61.9 121.22 61.98"/><path class="cls-3" d="M114.81,93.16h0c0-.18-.09-.28-.28-.3a1.7,1.7,0,0,0-.59,0l-.25,0V94a3.43,3.43,0,0,0,.78.29c.23,0,.3-.09.34-.29h0v1.14h0c-.07-.3-.19-.43-1.21-.94l-1.89-.91v-.69l2.15-.44c.79-.16.89-.29,1-.48h0Zm-2.75.1,1.42.67V93Z"/><path class="cls-3" d="M114.66,89a6.69,6.69,0,0,0,.2,1.06v0l-.37-.06a1.11,1.11,0,0,1,.37.77c0,.47-.4.85-1.09.75a1.52,1.52,0,0,1-1.32-1.46,3.31,3.31,0,0,1,0-.34l-.16,0c-.4,0-.5,0-.62.25h0a5.65,5.65,0,0,0-.2-1.07v0l2.55.37c.4.05.5,0,.61-.23Zm-1.94.77a.34.34,0,0,0-.14.28c0,.34.45.65,1,.72s1-.13,1-.52a.44.44,0,0,0-.06-.23Z"/><path class="cls-3" d="M114.81,86.11h0c-.11-.24-.26-.3-.59-.35l-1-.14a.31.31,0,0,0-.4.33,1.14,1.14,0,0,0,.07.34,2,2,0,0,1,.35,0l1,.14c.33,0,.48,0,.59-.18h0v1.27h0c-.11-.25-.26-.31-.59-.35l-1-.14c-.27,0-.4.09-.4.3a1,1,0,0,0,.06.32l1.34.19c.33.05.48,0,.59-.19h0V88.9h0c-.11-.25-.26-.31-.59-.36l-.91-.13c-.4,0-.5,0-.62.23h0a6.29,6.29,0,0,0-.21-1h0l.36,0a1.37,1.37,0,0,1-.35-.81.48.48,0,0,1,.38-.53,1.44,1.44,0,0,1-.39-.88c0-.34.21-.61.77-.53l1,.14c.33,0,.48,0,.59-.18h0Z"/><path class="cls-3" d="M112,84a.45.45,0,0,1-.37-.43.32.32,0,0,1,.37-.32.46.46,0,0,1,.38.43A.32.32,0,0,1,112,84Zm2.86.65h0c-.11-.25-.26-.31-.59-.36l-.91-.13c-.4-.05-.5,0-.62.23h0a6.29,6.29,0,0,0-.21-1v0l1.75.25c.33,0,.48,0,.59-.19h0Z"/><path class="cls-3" d="M114.48,81.59a1.1,1.1,0,0,1,.37.74c0,.42-.19.66-.7.59l-1.39-.2V83h-.05a3.07,3.07,0,0,0-.81-1.11v0l.61.08V81.4l.27,0V82l1.35.19a.3.3,0,0,0,.39-.32.59.59,0,0,0-.07-.26Z"/><path class="cls-3" d="M114.81,80.1h0c-.12-.33-.27-.39-.61-.44l-1.81-.26a3.22,3.22,0,0,1,.13.6h0a4.38,4.38,0,0,0-.82-1.43v0l2.54.36c.34,0,.49,0,.61-.25h0Z"/><ellipse class="cls-5" cx="134.83" cy="103.5" rx="0.77" ry="2.81" transform="translate(28.4 236.03) rotate(-88.74)"/><ellipse class="cls-4" cx="134.83" cy="103.35" rx="0.77" ry="2.81" transform="translate(28.55 235.88) rotate(-88.74)"/><path class="cls-5" d="M135.41,102.6,134,104.06l.42,0,1.46-1.45Z"/><ellipse class="cls-5" cx="71.53" cy="94" rx="0.77" ry="2.81" transform="translate(-24.02 163.45) rotate(-88.74)"/><ellipse class="cls-4" cx="71.53" cy="93.88" rx="0.77" ry="2.81" transform="translate(-23.9 163.34) rotate(-88.74)"/><path class="cls-5" d="M74.21,94.16l-4.75-.84a2,2,0,0,0-.55.24l4.82.85A1.5,1.5,0,0,0,74.21,94.16Z"/></svg>