<svg id="Layer_1" data-name="Layer 1" xmlns="http://www.w3.org/2000/svg" xmlns:xlink="http://www.w3.org/1999/xlink" viewBox="0 0 200 150"><defs><style>.cls-1{fill:#666;}.cls-2{fill:#424242;}.cls-3{fill:#f9bca5;}.cls-4,.cls-6,.cls-7{fill:#ffa87b;}.cls-4{opacity:0.44;}.cls-5{fill:#ffdecd;}.cls-7{stroke:#ffdecd;}.cls-7,.cls-8{stroke-miterlimit:10;stroke-width:0.21px;}.cls-11,.cls-8,.cls-9{fill:none;}.cls-8{stroke:#ffa87b;}.cls-11,.cls-8{stroke-linecap:round;}.cls-10{fill:#ef877b;}.cls-11{stroke-linejoin:round;stroke-width:1.03px;stroke-dasharray:1.03 4.12;stroke:url(#linear-gradient);}</style><linearGradient id="linear-gradient" x1="89.78" y1="111.17" x2="120.97" y2="99.82" gradientUnits="userSpaceOnUse"><stop offset="0" stop-color="#ef877b" stop-opacity="0"/><stop offset="0.18" stop-color="#ef877b" stop-opacity="0.25"/><stop offset="0.4" stop-color="#ef877b" stop-opacity="0.51"/><stop offset="0.6" stop-color="#ef877b" stop-opacity="0.72"/><stop offset="0.77" stop-color="#ef877b" stop-opacity="0.87"/><stop offset="0.91" stop-color="#ef877b" stop-opacity="0.97"/><stop offset="1" stop-color="#ef877b"/></linearGradient></defs><title>ocu-illustrations</title><path class="cls-1" d="M0,150H200V98.27s-24-27.83-60.9-27.83c-36.57,0-74.82,19.42-94.87,17.3C12.49,84.38,0,78.3,0,78.3Z"/><path class="cls-2" d="M160.69,104.12a5.18,5.18,0,0,1,0,9.66l-30.78,12c-17.62,6.89-42.06,6.89-59.84,0l-30.78-12a5.18,5.18,0,0,1,0-9.66l30.77-11.9c17.62-6.9,42.22-6.81,59.84,0Z"/><path class="cls-3" d="M160.69,99.62a5.18,5.18,0,0,1,0,9.66l-30.78,12c-17.62,6.89-42.06,6.89-59.84,0l-30.78-12a5.18,5.18,0,0,1,0-9.66l30.77-11.9c17.62-6.9,42.22-6.81,59.84,0Z"/><ellipse class="cls-4" cx="68.51" cy="97.7" rx="12.94" ry="2.69" transform="translate(-2.12 1.52) rotate(-1.25)"/><ellipse class="cls-5" cx="66.27" cy="77.1" rx="11.83" ry="2.5"/><ellipse class="cls-5" cx="66.27" cy="97.11" rx="10.14" ry="2.14"/><polygon class="cls-5" points="54.44 77.1 56.12 97.1 76.4 97.12 78.1 77.11 54.44 77.1"/><ellipse class="cls-6" cx="66.27" cy="96.55" rx="9.83" ry="2.08"/><polygon class="cls-6" points="56.03 84.15 55.56 84.22 56.44 96.55 76.1 96.55 76.98 84.22 56.03 84.15"/><ellipse class="cls-7" cx="66.27" cy="84.22" rx="10.71" ry="2.26"/><ellipse class="cls-5" cx="59.94" cy="90.52" rx="0.84" ry="0.85"/><ellipse class="cls-5" cx="73.46" cy="87.45" rx="0.49" ry="0.5"/><ellipse class="cls-5" cx="60.86" cy="93.54" rx="0.46" ry="0.47"/><path class="cls-8" d="M73,78.84a42.08,42.08,0,0,1-7.1.54c-6,0-10.89-1-10.89-2.24,0-.6,1.27-1.22,3.14-1.46"/><path class="cls-9" d="M160.69,99.62l-30.77-11.9c-17.62-6.81-42.22-6.9-59.84,0L39.31,99.62a5.18,5.18,0,0,0,0,9.66l30.78,12c14.26,5.53,32.79,6.61,48.66,3.28l-5,.14,3-34.85,44,11a.94.94,0,0,1,.25,1.72c-6.1,3.59-24.7,14.54-33,19.36.63-.22,1.27-.43,1.88-.67l30.78-12A5.18,5.18,0,0,0,160.69,99.62Z"/><path class="cls-4" d="M160.75,100.83l-44-11-3,34.85,5-.14a71.63,71.63,0,0,0,9.3-2.61c8.26-4.82,26.86-15.77,33-19.36A.94.94,0,0,0,160.75,100.83Z"/><path class="cls-10" d="M155.74,101.32v-2.6l-3.2,1.2-45-11.76a1,1,0,0,0-.69.08L64.89,111.87,62.54,111v2.8h0a.89.89,0,0,0,.68.83l46.35,12.12a4,4,0,0,0,3-.38l42.75-24.07A.9.9,0,0,0,155.74,101.32Z"/><path class="cls-6" d="M155.07,97.75,108.41,85.56a3.21,3.21,0,0,0-2.37.3L63,110.09a.92.92,0,0,0,.22,1.69l46.35,12.12a4,4,0,0,0,3-.38l42.75-24.07A.93.93,0,0,0,155.07,97.75Z"/><path class="cls-5" d="M112.51,120.06A2,2,0,0,1,112,120l-42.48-11.1a.48.48,0,0,1-.12-.88l37.45-21.08a1.09,1.09,0,0,1,.56-.15,1.35,1.35,0,0,1,.28,0L150.51,98a.49.49,0,0,1,.12.89l-37.17,20.92A2,2,0,0,1,112.51,120.06Z"/><ellipse class="cls-5" cx="88.16" cy="115.95" rx="0.77" ry="1.41" transform="translate(-38.73 187.46) rotate(-82.16)"/><path class="cls-10" d="M113.48,93.62a7.15,7.15,0,0,0-2.91.92l-2.8,1.94c-.59.41-.67.87-.21,1.26a18,18,0,0,0,3.59,2,20.19,20.19,0,0,0,4.36,1,37.66,37.66,0,0,0,5.42.26c1.93,0,6.1-.41,7.25-.57a7.17,7.17,0,0,0,2.91-.91l2.79-2c.59-.41.67-.87.22-1.26a17.83,17.83,0,0,0-3.6-2,20.27,20.27,0,0,0-4.35-1,35.12,35.12,0,0,0-5.43-.26c-1.93,0-6.09.41-7.24.56m18.72,2.92c.27.23.22.52-.15.78l-.56.38a47.65,47.65,0,0,0-4.42-2.46,12.51,12.51,0,0,0-2.77-.64,23.71,23.71,0,0,0-3.43-.16c-1.24,0-4.88.35-5.35.41-.77.1-1.33.33-1.41.6s.08.26.28.37l.81.47,2.26,1.29a5.16,5.16,0,0,0,1.83.51,12,12,0,0,0,2.49,0l2.62-.22,1.11.63s0,0,0,0l0,0c-.45.05-3.81.34-4.74.36a17,17,0,0,1-2.52-.12h0a8.22,8.22,0,0,1-2-.46A41.71,41.71,0,0,1,112,96c-.46-.28-.48-.61,0-.91l.48-.34a4.49,4.49,0,0,1,1.8-.56c1-.14,4.92-.48,6.57-.52a29.9,29.9,0,0,1,4.53.22,17.17,17.17,0,0,1,3.64.84,16.87,16.87,0,0,1,3.26,1.79m-10.85,1a4.26,4.26,0,0,1-2.11-.28l-1-.57,2.06-.17a4.31,4.31,0,0,1,2.12.27l1,.57Zm-11.89,0c-.28-.24-.22-.52.15-.78l.55-.39a43.3,43.3,0,0,0,4.43,2.46,11.87,11.87,0,0,0,2.76.64h0a22.13,22.13,0,0,0,3.42.17c1.24,0,4.88-.36,5.36-.42.77-.09,1.33-.32,1.4-.59s-.08-.27-.28-.38l-.81-.46h0l-2.25-1.29a8.56,8.56,0,0,0-4.33-.56l-2.62.22-1.11-.64s0,0,0,0,0,0,0,0c.45,0,3.8-.35,4.73-.37a13.37,13.37,0,0,1,4.54.58A43.51,43.51,0,0,1,129.69,98c.45.27.47.61.05.9l-.49.34a4.27,4.27,0,0,1-1.79.57c-1,.14-4.92.48-6.57.51a29.82,29.82,0,0,1-4.53-.21,17.17,17.17,0,0,1-3.64-.84,17.43,17.43,0,0,1-3.26-1.79"/><polyline class="cls-11" points="121.94 103.99 122.94 110.99 92.94 111.99 86.44 100.49"/></svg>