<svg id="Layer_1" data-name="Layer 1" xmlns="http://www.w3.org/2000/svg" viewBox="0 0 200 150"><defs><style>.cls-1{fill:#666;}.cls-2{fill:#424242;}.cls-3{fill:#f9bca5;}.cls-4{fill:#ef877b;}.cls-5,.cls-7{fill:#ffa87b;}.cls-5{opacity:0.38;}.cls-6{fill:#ffdecd;}</style></defs><title>ocu-illustrations</title><path class="cls-1" d="M200,150H0V110.83S24.38,80,61.27,79.17c42.46-1,75.13,20.7,95.28,20.7,32.08,0,43.45-12.12,43.45-12.12Z"/><path class="cls-2" d="M160.69,104.12a5.18,5.18,0,0,1,0,9.66l-30.78,12c-17.62,6.89-42.06,6.89-59.84,0l-30.78-12a5.18,5.18,0,0,1,0-9.66l30.77-11.9c17.62-6.9,42.22-6.81,59.84,0Z"/><path class="cls-3" d="M160.69,99.62a5.18,5.18,0,0,1,0,9.66l-30.78,12c-17.62,6.89-42.06,6.89-59.84,0l-30.78-12a5.18,5.18,0,0,1,0-9.66l30.77-11.9c17.62-6.9,42.22-6.81,59.84,0Z"/><ellipse class="cls-4" cx="117.36" cy="82.56" rx="1.37" ry="0.78" transform="translate(-0.76 1.1) rotate(-0.53)"/><ellipse class="cls-5" cx="69.17" cy="100.66" rx="7.92" ry="1.22"/><ellipse class="cls-5" cx="117.43" cy="103.56" rx="14.44" ry="2.84"/><polygon class="cls-6" points="65.16 87.9 57.49 80.73 65.11 88.23 65.16 87.9"/><polygon class="cls-6" points="68.01 89.49 65.66 80.08 68.29 89.73 68.01 89.49"/><path class="cls-4" d="M67.84,89.37l1.73.76a1.07,1.07,0,0,1-.2.07l11.9,2.26,3.5,3.9,1.38.42-.66.39L71.4,94.48,67.53,90.2Z"/><polygon class="cls-6" points="67.84 89.37 81.93 92.06 86.15 96.78 72.06 94.09 67.84 89.37"/><polygon class="cls-4" points="63.21 82.84 73.7 84.92 79.24 91.11 68.74 89.02 63.21 82.84"/><polygon class="cls-7" points="57.67 89.25 63.21 82.84 68.74 89.02 79.24 91.11 73.57 97.36 63.06 95.47 57.67 89.25"/><path class="cls-4" d="M45.32,82.28l2.27,1-.25.08,12,2.31,4.58,5.12,1.81.54-.85.52L50.24,89.13l-5.32-5.76Z"/><polygon class="cls-6" points="45.32 82.28 60.17 85.15 65.7 91.33 50.49 88.32 45.32 82.28"/><path class="cls-6" d="M67.78,85.65a1,1,0,0,0,.32.71l1.11,1.25a2.93,2.93,0,0,0,.92.69,19.75,19.75,0,0,0,1.93.78,3.82,3.82,0,0,0,1.3.2,1.45,1.45,0,0,0,.89-.27,2.11,2.11,0,0,0,.49-.86,1,1,0,0,0-.32-.72l-1.11-1.25a3.09,3.09,0,0,0-.92-.69,19.75,19.75,0,0,0-1.93-.78,4.45,4.45,0,0,0-1.31-.2,1.44,1.44,0,0,0-.88.28,2.11,2.11,0,0,0-.49.86m4.55.12a1.76,1.76,0,0,1,.57.42l.22.25c-.9-.38-2-.85-2.4-1a2.59,2.59,0,0,0-.83-.13,1,1,0,0,0-.56.17,2.17,2.17,0,0,0-.37.64c0,.11.08.27.27.42a1.14,1.14,0,0,0,.32.18l.45.19,1.25.52a1.77,1.77,0,0,0,.62.13c.17,0,.3-.06.35-.17l.17-.32.62.26a0,0,0,0,1,0,0h0a2.08,2.08,0,0,1-.32.57.71.71,0,0,1-.41.12h0a1.62,1.62,0,0,1-.6-.09c-.26-.08-1.1-.42-2.31-.94a1.94,1.94,0,0,1-.69-.48l-.19-.21a.61.61,0,0,1-.2-.45,2.06,2.06,0,0,1,.44-.78,1.25,1.25,0,0,1,.74-.23,3.59,3.59,0,0,1,1.09.17,16.68,16.68,0,0,1,1.75.71m-.62,1.36c-.06.1-.25.11-.48,0l-.55-.22.13-.25c.06-.11.25-.11.47,0l.56.23Zm-1.52.9a1.79,1.79,0,0,1-.57-.43l-.22-.25c.9.38,2,.86,2.4,1a2.53,2.53,0,0,0,.83.12h0a.85.85,0,0,0,.56-.17,2.13,2.13,0,0,0,.37-.63c0-.11-.08-.28-.27-.43A2,2,0,0,0,73,87l-.45-.19h0l-1.26-.51c-.46-.19-.85-.18-1,0l-.17.32-.62-.25s0,0,0,0a0,0,0,0,1,0,0,2,2,0,0,1,.32-.56,1.18,1.18,0,0,1,1,0c.26.08,1.1.43,2.31.94a1.94,1.94,0,0,1,.69.48l.19.22a.6.6,0,0,1,.2.44,2.06,2.06,0,0,1-.44.78,1.25,1.25,0,0,1-.74.23,3.26,3.26,0,0,1-1.09-.17,16.75,16.75,0,0,1-1.75-.7"/><ellipse class="cls-6" cx="160.56" cy="114.65" rx="0.65" ry="0.4"/><ellipse class="cls-4" cx="139.54" cy="109.83" rx="1.37" ry="0.92" transform="translate(-5.06 6.75) rotate(-2.72)"/><ellipse class="cls-6" cx="64.42" cy="111.1" rx="0.84" ry="1.37" transform="translate(-51.21 166.99) rotate(-85.69)"/><ellipse class="cls-4" cx="151.08" cy="108.78" rx="2.19" ry="1.11"/><ellipse class="cls-6" cx="148.09" cy="97.05" rx="0.71" ry="0.37" transform="translate(-4.97 8.04) rotate(-3.06)"/><ellipse class="cls-6" cx="85.94" cy="86.08" rx="0.71" ry="0.37"/><ellipse class="cls-4" cx="126.47" cy="124.69" rx="0.71" ry="0.37" transform="translate(-3.16 3.29) rotate(-1.47)"/><ellipse class="cls-4" cx="158.55" cy="91.44" rx="0.71" ry="0.37" transform="translate(-2.29 4.1) rotate(-1.47)"/><ellipse class="cls-6" cx="128.59" cy="117.56" rx="0.71" ry="0.37" transform="translate(-2.97 3.34) rotate(-1.47)"/><ellipse class="cls-6" cx="159.89" cy="103.31" rx="0.71" ry="0.37" transform="translate(-2.6 4.14) rotate(-1.47)"/><ellipse class="cls-4" cx="65.81" cy="121.63" rx="0.37" ry="0.71" transform="translate(-56.71 185.78) rotate(-89.22)"/><ellipse class="cls-4" cx="93.52" cy="101.61" rx="0.37" ry="0.71" transform="translate(-9.35 193.74) rotate(-89.22)"/><ellipse class="cls-6" cx="73.69" cy="113.67" rx="0.37" ry="0.71" transform="translate(-40.96 185.81) rotate(-89.22)"/><ellipse class="cls-6" cx="106.94" cy="123.37" rx="0.37" ry="0.71" transform="translate(-17.87 228.62) rotate(-89.22)"/><ellipse class="cls-4" cx="42.33" cy="105.72" rx="0.37" ry="0.71" transform="translate(-63.96 146.61) rotate(-89.22)"/><ellipse class="cls-6" cx="40.45" cy="95.27" rx="0.71" ry="0.37" transform="translate(-5.17 2.36) rotate(-3.15)"/><ellipse class="cls-4" cx="47.26" cy="99.29" rx="0.71" ry="0.37" transform="translate(-5.38 2.74) rotate(-3.15)"/><ellipse class="cls-6" cx="89.94" cy="87.91" rx="0.65" ry="0.4"/><ellipse class="cls-6" cx="92.99" cy="80.09" rx="0.65" ry="0.4"/><path class="cls-6" d="M104.4,119.75c-.46.66-4.39-1.57-8-3.88-1.52-1-3-1.94-4.14-2.73s-2.59-1.8-4-2.87c-3.48-2.57-7-5.44-6.52-6.1s4.5,1.64,8.2,4a2.43,2.43,0,0,0-.25.2c-4.56-2.89-7.37-4.22-7.7-4-.08.36,2.14,2.47,6.39,5.63,1.2.89,2.57,1.86,4.09,2.9s2.91,2,4.18,2.76c4.44,2.81,7.2,4.12,7.56,3.92,0-.4-2.21-2.54-6.51-5.72l.09-.31C101.24,116.14,104.86,119.08,104.4,119.75Z"/><path class="cls-4" d="M96.36,115.87a5.05,5.05,0,0,1-8.17-5.6c1.44,1.07,2.88,2.08,4,2.87S94.84,114.91,96.36,115.87Z"/><path class="cls-4" d="M97,115.11c-.13.19-.28.37-.42.54q-1.9-1.2-4.18-2.76c-1.52-1-2.89-2-4.09-2.9a5.17,5.17,0,0,1,.36-.59,4.73,4.73,0,0,1,1-1,2.43,2.43,0,0,1,.25-.2,5.06,5.06,0,0,1,7.85,5.38l-.09.31A5.31,5.31,0,0,1,97,115.11Z"/><ellipse class="cls-5" cx="92.73" cy="122.96" rx="3.1" ry="0.33"/><path class="cls-7" d="M142.69,58.35q2.53,1.35,4.89,2.77a27.63,27.63,0,0,0-6.24-11.29A39.25,39.25,0,0,1,142.69,58.35Z"/><path class="cls-7" d="M139.75,76.33c2.41.57,4.8,1.11,7.16,1.59v0a27.57,27.57,0,0,0,1.31-13.77q-2.62-1.66-5.48-3.21a43.75,43.75,0,0,1-2.66,14.51C140,75.73,139.88,76,139.75,76.33Z"/><path class="cls-7" d="M131.88,89.4a35.64,35.64,0,0,0,9.57-2.4A26.89,26.89,0,0,0,146,80.11c-2.35-.49-4.74-1-7.15-1.63A43.46,43.46,0,0,1,131.88,89.4Z"/><path class="cls-7" d="M124.64,95.88a27.87,27.87,0,0,0,12.79-5.21,39.39,39.39,0,0,1-7.88,1.16A38.24,38.24,0,0,1,124.64,95.88Z"/><path class="cls-7" d="M125.87,51a122.13,122.13,0,0,1,14.47,6.14,36.62,36.62,0,0,0-2.45-10.49h0a27,27,0,0,0-7-4C129.13,45.3,127.45,48.06,125.87,51Z"/><path class="cls-7" d="M126.13,91.88a49.71,49.71,0,0,1-13.43-2.2c-.27,1.68-.49,3.35-.66,5a27,27,0,0,0,7.9,1.46A35.22,35.22,0,0,0,126.13,91.88Z"/><path class="cls-7" d="M116.87,72.23a116.83,116.83,0,0,0-3.8,15.2,47.25,47.25,0,0,0,15.5,2.2,40.78,40.78,0,0,0,8.05-11.69c-5.86-1.48-11.88-3.2-18-5.15Z"/><path class="cls-7" d="M118.44,67.58c-.3.83-.59,1.66-.86,2.49l1.72.56c6.15,2,12.25,3.68,18.22,5.15.16-.36.31-.74.45-1.12a41.61,41.61,0,0,0,2.51-14.93,122.16,122.16,0,0,0-14.2-6.18c-.49-.18-1-.35-1.49-.51A121.15,121.15,0,0,0,118.44,67.58Z"/><path class="cls-7" d="M123.71,50.27q2.37-4.4,5-8.32a27.24,27.24,0,0,0-10.21-1,39.38,39.38,0,0,0-6.73,6A121.5,121.5,0,0,1,123.71,50.27Z"/><path class="cls-7" d="M108.83,88.32a52.44,52.44,0,0,1-8.25-4.11,39.59,39.59,0,0,0,.84,3.87,27.2,27.2,0,0,0,8.48,5.76c.18-1.61.4-3.24.65-4.88l-.34-.11Z"/><path class="cls-7" d="M101.38,66.7a44.19,44.19,0,0,0-1.16,14.58,48.81,48.81,0,0,0,9.44,4.93l1.28.49a115.74,115.74,0,0,1,3.78-15.19c-2.49-.83-4.92-1.67-7.33-2.55C105.36,68.23,103.35,67.48,101.38,66.7Z"/><path class="cls-7" d="M102.83,61.93c-.31.85-.59,1.7-.83,2.56q6.51,2.55,13.42,4.87c.29-.85.58-1.7.89-2.55a123.69,123.69,0,0,1,6.33-14.51,121.45,121.45,0,0,0-12.54-3.42A46.16,46.16,0,0,0,102.83,61.93Z"/><path class="cls-7" d="M109.23,46.39a42,42,0,0,1,4.53-4.61,27.77,27.77,0,0,0-8.42,3.87C106.64,45.87,107.94,46.11,109.23,46.39Z"/><path class="cls-7" d="M98.09,82.58c-.55-.37-1.08-.76-1.6-1.16a27.9,27.9,0,0,0,1.84,3C98.23,83.8,98.14,83.19,98.09,82.58Z"/><path class="cls-7" d="M93.71,63.61a27.38,27.38,0,0,0,.87,13.24,39.49,39.49,0,0,0,3.27,2.74,46.35,46.35,0,0,1,1.41-13.72C97.37,65.13,95.53,64.38,93.71,63.61Z"/><path class="cls-7" d="M94.93,59.07c-.27.74-.5,1.49-.7,2.24Q97,62.5,99.89,63.64c.24-.82.51-1.65.81-2.48a48.35,48.35,0,0,1,6.93-12.79c-1.59-.32-3.18-.58-4.76-.82A27.52,27.52,0,0,0,94.93,59.07Z"/><path class="cls-4" d="M111.76,46.93a39.38,39.38,0,0,1,6.73-6,26.77,26.77,0,0,0-4.73.84,42,42,0,0,0-4.53,4.61C110.08,46.55,110.91,46.73,111.76,46.93Z"/><path class="cls-4" d="M100.58,84.21c-.85-.52-1.69-1.07-2.49-1.63,0,.61.14,1.22.24,1.83a26.82,26.82,0,0,0,3.09,3.67A39.59,39.59,0,0,1,100.58,84.21Z"/><path class="cls-4" d="M99.26,65.87a46.35,46.35,0,0,0-1.41,13.72c.76.58,1.55,1.16,2.37,1.69a44.19,44.19,0,0,1,1.16-14.58C100.67,66.43,100,66.16,99.26,65.87Z"/><path class="cls-4" d="M100.7,61.16c-.3.83-.57,1.66-.81,2.48.69.29,1.39.57,2.11.85.24-.86.52-1.71.83-2.56a46.16,46.16,0,0,1,7.27-13c-.82-.19-1.64-.35-2.47-.51A48.35,48.35,0,0,0,100.7,61.16Z"/><path class="cls-4" d="M125.87,51c1.58-2.94,3.26-5.7,5-8.31a5.55,5.55,0,0,0-.52-.2c-.54-.2-1.09-.37-1.65-.54q-2.61,3.91-5,8.32c.2.06.4.12.61.2Z"/><path class="cls-4" d="M112.7,89.68c-.72-.22-1.43-.46-2.15-.72-.25,1.64-.47,3.27-.65,4.88.53.23,1.07.45,1.61.64a4.72,4.72,0,0,0,.53.18C112.21,93,112.43,91.36,112.7,89.68Z"/><path class="cls-4" d="M114.72,71.51a115.74,115.74,0,0,0-3.78,15.19c.71.26,1.42.5,2.13.73a116.83,116.83,0,0,1,3.8-15.2Z"/><path class="cls-4" d="M116.31,66.81c-.31.85-.6,1.7-.89,2.55.72.25,1.43.48,2.16.71.27-.83.56-1.66.86-2.49A121.15,121.15,0,0,1,124.79,53c-.39-.16-.79-.29-1.2-.43s-.64-.22-1-.31A123.69,123.69,0,0,0,116.31,66.81Z"/><path class="cls-4" d="M140.34,57.14c.79.39,1.57.8,2.35,1.21a39.25,39.25,0,0,0-1.35-8.52,25.36,25.36,0,0,0-3.45-3.18A36.62,36.62,0,0,1,140.34,57.14Z"/><path class="cls-4" d="M137.52,75.78l2.23.55c.13-.3.24-.6.34-.9a43.75,43.75,0,0,0,2.66-14.51c-.74-.41-1.5-.8-2.27-1.19A41.61,41.61,0,0,1,138,74.66C137.83,75,137.68,75.42,137.52,75.78Z"/><path class="cls-4" d="M128.57,89.63c1.12,0,2.22-.11,3.31-.23a43.46,43.46,0,0,0,7-10.92l-2.24-.54A40.78,40.78,0,0,1,128.57,89.63Z"/><path class="cls-4" d="M119.94,96.12a26.31,26.31,0,0,0,4.7-.24,38.24,38.24,0,0,0,4.91-4c-1.13.07-2.27.09-3.42,0A35.22,35.22,0,0,1,119.94,96.12Z"/><path class="cls-4" d="M94.58,76.85a26.12,26.12,0,0,0,1.91,4.57c.52.4,1.05.79,1.6,1.16.8.56,1.64,1.11,2.49,1.63a52.44,52.44,0,0,0,8.25,4.11l1.38.53.34.11c.72.26,1.43.5,2.15.72a49.71,49.71,0,0,0,13.43,2.2c1.15,0,2.29,0,3.42,0a39.39,39.39,0,0,0,7.88-1.16s0,0,0,0a26.75,26.75,0,0,0,4-3.67,35.64,35.64,0,0,1-9.57,2.4c-1.09.12-2.19.2-3.31.23a47.25,47.25,0,0,1-15.5-2.2c-.71-.23-1.42-.47-2.13-.73l-1.28-.49a48.81,48.81,0,0,1-9.44-4.93c-.82-.53-1.61-1.11-2.37-1.69A39.49,39.49,0,0,1,94.58,76.85Z"/><path class="cls-4" d="M94.23,61.31c-.21.77-.39,1.53-.52,2.3,1.82.77,3.66,1.52,5.55,2.26.7.29,1.41.56,2.12.83,2,.78,4,1.53,6,2.26,2.41.88,4.84,1.72,7.33,2.55l2.15.72,1.74.56c6.13,1.95,12.15,3.67,18,5.15l2.24.54c2.41.59,4.8,1.14,7.15,1.63q.5-1.06.9-2.19c-2.36-.48-4.75-1-7.16-1.59l-2.23-.55c-6-1.47-12.07-3.19-18.22-5.15l-1.72-.56c-.73-.23-1.44-.46-2.16-.71Q108.51,67,102,64.49c-.72-.28-1.42-.56-2.11-.85Q97,62.5,94.23,61.31Z"/><path class="cls-4" d="M102.87,47.55c1.58.24,3.17.5,4.76.82.83.16,1.65.32,2.47.51a121.45,121.45,0,0,1,12.54,3.42c.31.09.63.21,1,.31s.81.27,1.2.43,1,.33,1.49.51a122.16,122.16,0,0,1,14.2,6.18c.77.39,1.53.78,2.27,1.19q2.85,1.55,5.48,3.21a27.28,27.28,0,0,0-.65-3q-2.36-1.42-4.89-2.77c-.78-.41-1.56-.82-2.35-1.21A122.13,122.13,0,0,0,125.87,51l-1.55-.53c-.21-.08-.41-.14-.61-.2a121.5,121.5,0,0,0-11.95-3.34c-.85-.2-1.68-.38-2.53-.54-1.29-.28-2.59-.52-3.89-.74A25.31,25.31,0,0,0,102.87,47.55Z"/></svg>