<svg xmlns="http://www.w3.org/2000/svg" viewBox="0 0 200 101.96"><defs><style>.cls-1{fill:#666;}.cls-2{fill:#424242;}.cls-3{fill:#f9bca5;}.cls-4{fill:#ef877b;}.cls-5,.cls-7{fill:#ffa87b;}.cls-5{opacity:0.38;}.cls-6{fill:#ffdecd;}</style></defs><title>ocupop-focus-web</title><g id="Layer_2" data-name="Layer 2"><g id="Layer_1-2" data-name="Layer 1"><path class="cls-1" d="M200,102H0V49.09s25.69-26.18,62.59-27c42.45-.94,75.25,28.3,95.41,28.3,32.08,0,42-12.63,42-12.63Z"/><path class="cls-2" d="M160.69,63.29a5.18,5.18,0,0,1,0,9.66l-30.78,12c-17.62,6.9-42.06,6.9-59.84,0L39.3,73a5.18,5.18,0,0,1,0-9.66l30.77-11.9c17.62-6.9,42.22-6.81,59.84,0Z"/><path class="cls-3" d="M160.69,58.79a5.18,5.18,0,0,1,0,9.66l-30.78,12c-17.62,6.9-42.06,6.9-59.84,0l-30.78-12a5.18,5.18,0,0,1,0-9.66l30.77-11.9c17.62-6.9,42.22-6.81,59.84,0Z"/><ellipse class="cls-4" cx="117.36" cy="41.74" rx="1.37" ry="0.78" transform="translate(-0.38 1.09) rotate(-0.53)"/><ellipse class="cls-5" cx="69.17" cy="59.84" rx="7.92" ry="1.22"/><ellipse class="cls-5" cx="117.43" cy="62.73" rx="14.44" ry="2.84"/><polygon class="cls-6" points="65.16 47.07 57.49 39.9 65.11 47.41 65.16 47.07"/><polygon class="cls-6" points="68.01 48.66 65.66 39.25 68.29 48.9 68.01 48.66"/><path class="cls-4" d="M67.84,48.54l1.73.77-.2.06,11.9,2.26,3.5,3.9,1.38.42-.66.39L71.4,53.66l-3.87-4.29Z"/><polygon class="cls-6" points="67.84 48.55 81.93 51.23 86.15 55.95 72.06 53.26 67.84 48.55"/><polygon class="cls-4" points="63.21 42.01 73.7 44.1 79.24 50.28 68.74 48.2 63.21 42.01"/><polygon class="cls-7" points="57.67 48.42 63.21 42.01 68.74 48.2 79.24 50.28 73.57 56.53 63.06 54.64 57.67 48.42"/><path class="cls-4" d="M45.32,41.45l2.27,1a1.26,1.26,0,0,1-.25.08l12,2.31L63.89,50l1.81.55-.85.52L50.24,48.31l-5.32-5.77Z"/><polygon class="cls-6" points="45.32 41.45 60.17 44.32 65.7 50.51 50.49 47.49 45.32 41.45"/><path class="cls-6" d="M67.78,44.82a1,1,0,0,0,.32.71l1.11,1.26a3.26,3.26,0,0,0,.92.69,17.61,17.61,0,0,0,1.93.77,4.12,4.12,0,0,0,1.3.21,1.52,1.52,0,0,0,.89-.28,2.11,2.11,0,0,0,.49-.86,1,1,0,0,0-.32-.71l-1.11-1.26a3.26,3.26,0,0,0-.92-.69,19.75,19.75,0,0,0-1.93-.78,4.45,4.45,0,0,0-1.31-.2,1.51,1.51,0,0,0-.88.28,2.11,2.11,0,0,0-.49.86m4.55.12a1.65,1.65,0,0,1,.57.43l.22.25c-.9-.39-2-.86-2.4-1a2.59,2.59,0,0,0-.83-.13.91.91,0,0,0-.56.18,2.13,2.13,0,0,0-.37.63c0,.11.08.28.27.43a2,2,0,0,0,.32.18l.45.18,1.25.52a1.57,1.57,0,0,0,.62.13.37.37,0,0,0,.35-.16l.17-.32.62.25h0s0,0,0,0a2.19,2.19,0,0,1-.32.56.71.71,0,0,1-.41.13h0a2.18,2.18,0,0,1-.6-.09c-.26-.09-1.1-.43-2.31-.94a2.07,2.07,0,0,1-.69-.48l-.19-.22a.6.6,0,0,1-.2-.44,1.93,1.93,0,0,1,.44-.78,1.19,1.19,0,0,1,.74-.24,3.59,3.59,0,0,1,1.09.17c.42.13,1.47.57,1.75.71m-.62,1.36c-.06.1-.25.11-.48,0l-.55-.23.13-.25c.06-.1.25-.11.47,0l.56.23Zm-1.52.9a1.79,1.79,0,0,1-.57-.43l-.22-.25c.9.39,2,.86,2.4,1a2.55,2.55,0,0,0,.83.13h0a.91.91,0,0,0,.56-.18,2.13,2.13,0,0,0,.37-.63c0-.11-.08-.28-.27-.43a2,2,0,0,0-.32-.18L72.52,46h0l-1.26-.52c-.46-.19-.85-.18-1,0l-.17.32-.62-.25h0s0,0,0,0a2.19,2.19,0,0,1,.32-.56,1.22,1.22,0,0,1,1,0c.26.09,1.1.43,2.31.94a2.07,2.07,0,0,1,.69.48l.19.22a.6.6,0,0,1,.2.44,1.93,1.93,0,0,1-.44.78,1.19,1.19,0,0,1-.74.24,3.54,3.54,0,0,1-1.09-.17c-.42-.13-1.47-.57-1.75-.71"/><ellipse class="cls-6" cx="160.56" cy="73.83" rx="0.65" ry="0.4"/><ellipse class="cls-4" cx="139.54" cy="69" rx="1.37" ry="0.92" transform="translate(-3.12 6.71) rotate(-2.72)"/><ellipse class="cls-6" cx="64.42" cy="70.28" rx="0.84" ry="1.37" transform="matrix(0.08, -1, 1, 0.08, -10.5, 129.23)"/><ellipse class="cls-4" cx="151.08" cy="67.95" rx="2.19" ry="1.11"/><ellipse class="cls-6" cx="148.09" cy="56.23" rx="0.71" ry="0.37" transform="translate(-2.79 7.98) rotate(-3.06)"/><ellipse class="cls-6" cx="85.94" cy="45.25" rx="0.71" ry="0.37"/><ellipse class="cls-4" cx="126.47" cy="83.86" rx="0.71" ry="0.37" transform="translate(-2.11 3.27) rotate(-1.47)"/><ellipse class="cls-4" cx="158.55" cy="50.62" rx="0.71" ry="0.37" transform="translate(-1.25 4.09) rotate(-1.47)"/><ellipse class="cls-6" cx="128.59" cy="76.73" rx="0.71" ry="0.37" transform="translate(-1.93 3.33) rotate(-1.47)"/><ellipse class="cls-6" cx="159.89" cy="62.48" rx="0.71" ry="0.37" transform="translate(-1.55 4.12) rotate(-1.47)"/><ellipse class="cls-4" cx="65.81" cy="80.8" rx="0.37" ry="0.71" transform="translate(-15.88 145.51) rotate(-89.22)"/><ellipse class="cls-4" cx="93.52" cy="60.78" rx="0.37" ry="0.71" transform="translate(31.47 153.47) rotate(-89.22)"/><ellipse class="cls-6" cx="73.69" cy="72.84" rx="0.37" ry="0.71" transform="translate(-0.14 145.53) rotate(-89.22)"/><ellipse class="cls-6" cx="106.94" cy="82.54" rx="0.37" ry="0.71" transform="translate(22.95 188.35) rotate(-89.22)"/><ellipse class="cls-4" cx="42.33" cy="64.89" rx="0.37" ry="0.71" transform="translate(-23.14 106.33) rotate(-89.22)"/><ellipse class="cls-6" cx="40.45" cy="54.44" rx="0.71" ry="0.37" transform="translate(-2.93 2.3) rotate(-3.15)"/><ellipse class="cls-4" cx="47.26" cy="58.46" rx="0.71" ry="0.37" transform="translate(-3.14 2.68) rotate(-3.15)"/><ellipse class="cls-6" cx="89.94" cy="47.08" rx="0.65" ry="0.4"/><ellipse class="cls-6" cx="92.99" cy="39.27" rx="0.65" ry="0.4"/><path class="cls-6" d="M104.4,78.92c-.46.66-4.39-1.56-8-3.88-1.52-1-3-1.94-4.14-2.72s-2.59-1.81-4-2.88c-3.48-2.57-7-5.43-6.52-6.09s4.5,1.63,8.2,4a2.43,2.43,0,0,0-.25.2c-4.56-2.89-7.37-4.22-7.7-4-.08.37,2.14,2.47,6.39,5.63,1.2.89,2.57,1.86,4.09,2.9s2.91,2,4.18,2.76c4.44,2.82,7.2,4.12,7.56,3.93,0-.41-2.21-2.54-6.51-5.73l.09-.31C101.24,75.31,104.86,78.25,104.4,78.92Z"/><path class="cls-4" d="M96.36,75a5.05,5.05,0,0,1-8.17-5.6c1.44,1.07,2.88,2.09,4,2.88S94.84,74.08,96.36,75Z"/><path class="cls-4" d="M97,74.28c-.13.19-.28.37-.42.54q-1.9-1.2-4.18-2.76c-1.52-1-2.89-2-4.09-2.9a5.17,5.17,0,0,1,.36-.59,5,5,0,0,1,1-1,2.43,2.43,0,0,1,.25-.2,5.06,5.06,0,0,1,7.85,5.38l-.09.31A5.31,5.31,0,0,1,97,74.28Z"/><ellipse class="cls-5" cx="92.73" cy="82.13" rx="3.1" ry="0.33"/><path class="cls-7" d="M142.69,17.52q2.53,1.35,4.89,2.77A27.69,27.69,0,0,0,141.34,9,39.25,39.25,0,0,1,142.69,17.52Z"/><path class="cls-7" d="M139.75,35.5c2.41.57,4.8,1.11,7.16,1.59v0a27.55,27.55,0,0,0,1.31-13.77c-1.75-1.1-3.58-2.18-5.48-3.2a43.69,43.69,0,0,1-2.66,14.5C140,34.9,139.88,35.21,139.75,35.5Z"/><path class="cls-7" d="M131.88,48.57a35.27,35.27,0,0,0,9.57-2.4A26.89,26.89,0,0,0,146,39.28c-2.35-.49-4.74-1-7.15-1.62A43.4,43.4,0,0,1,131.88,48.57Z"/><path class="cls-7" d="M124.64,55.05a27.85,27.85,0,0,0,12.79-5.2A40.13,40.13,0,0,1,129.55,51,38.24,38.24,0,0,1,124.64,55.05Z"/><path class="cls-7" d="M125.87,10.18a120.47,120.47,0,0,1,14.47,6.13,36.7,36.7,0,0,0-2.45-10.49,0,0,0,0,1,0,0,27,27,0,0,0-7-3.95C129.13,4.47,127.45,7.23,125.87,10.18Z"/><path class="cls-7" d="M126.13,51.05a49.33,49.33,0,0,1-13.43-2.2c-.27,1.68-.49,3.35-.66,5a27.35,27.35,0,0,0,7.9,1.45A35.22,35.22,0,0,0,126.13,51.05Z"/><path class="cls-7" d="M116.87,31.4a117.23,117.23,0,0,0-3.8,15.2,47.25,47.25,0,0,0,15.5,2.2,40.78,40.78,0,0,0,8.05-11.69c-5.86-1.48-11.88-3.2-18-5.15Z"/><path class="cls-7" d="M118.44,26.76c-.3.83-.59,1.65-.86,2.48l1.72.56c6.15,2,12.25,3.68,18.22,5.16.16-.37.31-.75.45-1.13a41.54,41.54,0,0,0,2.51-14.93,122.16,122.16,0,0,0-14.2-6.18c-.49-.17-1-.35-1.49-.51A120.61,120.61,0,0,0,118.44,26.76Z"/><path class="cls-7" d="M123.71,9.44q2.37-4.39,5-8.32a27.44,27.44,0,0,0-10.21-1,39.38,39.38,0,0,0-6.73,6C115.71,7,119.72,8.11,123.71,9.44Z"/><path class="cls-7" d="M108.83,47.5a53.32,53.32,0,0,1-8.25-4.11,39.39,39.39,0,0,0,.84,3.86A27.2,27.2,0,0,0,109.9,53c.18-1.61.4-3.24.65-4.88l-.34-.11Z"/><path class="cls-7" d="M101.38,25.88a44.15,44.15,0,0,0-1.16,14.57,48.84,48.84,0,0,0,9.44,4.94c.43.16.84.33,1.28.48a115.74,115.74,0,0,1,3.78-15.19c-2.49-.82-4.92-1.67-7.33-2.54C105.36,27.4,103.35,26.65,101.38,25.88Z"/><path class="cls-7" d="M102.83,21.1c-.31.85-.59,1.7-.83,2.57q6.51,2.53,13.42,4.86c.29-.85.58-1.69.89-2.55a122.8,122.8,0,0,1,6.33-14.5A121.54,121.54,0,0,0,110.1,8.05,46.16,46.16,0,0,0,102.83,21.1Z"/><path class="cls-7" d="M109.23,5.56A42,42,0,0,1,113.76,1a27.56,27.56,0,0,0-8.42,3.88C106.64,5,107.94,5.28,109.23,5.56Z"/><path class="cls-7" d="M98.09,41.75c-.55-.37-1.08-.75-1.6-1.16a26.94,26.94,0,0,0,1.84,3C98.23,43,98.14,42.36,98.09,41.75Z"/><path class="cls-7" d="M93.71,22.78A27.37,27.37,0,0,0,94.58,36a37.62,37.62,0,0,0,3.27,2.74,46.32,46.32,0,0,1,1.41-13.71C97.37,24.3,95.53,23.55,93.71,22.78Z"/><path class="cls-7" d="M94.93,18.24c-.27.75-.5,1.49-.7,2.24q2.77,1.18,5.66,2.34.36-1.25.81-2.49a48.13,48.13,0,0,1,6.93-12.78c-1.59-.33-3.18-.59-4.76-.82A27.43,27.43,0,0,0,94.93,18.24Z"/><path class="cls-4" d="M111.76,6.1a39.38,39.38,0,0,1,6.73-6,26.77,26.77,0,0,0-4.73.84,42,42,0,0,0-4.53,4.61C110.08,5.72,110.91,5.9,111.76,6.1Z"/><path class="cls-4" d="M100.58,43.39c-.85-.53-1.69-1.07-2.49-1.64,0,.61.14,1.22.24,1.83a25.67,25.67,0,0,0,3.09,3.67A39.39,39.39,0,0,1,100.58,43.39Z"/><path class="cls-4" d="M99.26,25.05a46.32,46.32,0,0,0-1.41,13.71c.76.59,1.55,1.16,2.37,1.69a44.15,44.15,0,0,1,1.16-14.57C100.67,25.61,100,25.34,99.26,25.05Z"/><path class="cls-4" d="M100.7,20.33q-.45,1.25-.81,2.49l2.11.85c.24-.87.52-1.72.83-2.57a46.16,46.16,0,0,1,7.27-13c-.82-.19-1.64-.35-2.47-.5A48.13,48.13,0,0,0,100.7,20.33Z"/><path class="cls-4" d="M125.87,10.18c1.58-2.95,3.26-5.71,5-8.32l-.52-.2c-.54-.2-1.09-.37-1.65-.54q-2.61,3.92-5,8.32l.61.2C124.83,9.81,125.36,10,125.87,10.18Z"/><path class="cls-4" d="M112.7,48.85c-.72-.21-1.43-.46-2.15-.72-.25,1.64-.47,3.27-.65,4.88.53.23,1.07.45,1.61.65l.53.18C112.21,52.2,112.43,50.53,112.7,48.85Z"/><path class="cls-4" d="M114.72,30.68a115.74,115.74,0,0,0-3.78,15.19c.71.26,1.42.51,2.13.73a117.23,117.23,0,0,1,3.8-15.2C116.14,31.16,115.42,30.93,114.72,30.68Z"/><path class="cls-4" d="M116.31,26c-.31.86-.6,1.7-.89,2.55.72.25,1.43.48,2.16.71.27-.83.56-1.65.86-2.48a120.61,120.61,0,0,1,6.35-14.55c-.39-.15-.79-.29-1.2-.43l-1-.3A122.8,122.8,0,0,0,116.31,26Z"/><path class="cls-4" d="M140.34,16.31l2.35,1.21A39.25,39.25,0,0,0,141.34,9a26,26,0,0,0-3.45-3.18A36.7,36.7,0,0,1,140.34,16.31Z"/><path class="cls-4" d="M137.52,35l2.23.54c.13-.29.24-.6.34-.9a43.69,43.69,0,0,0,2.66-14.5c-.74-.42-1.5-.81-2.27-1.2A41.54,41.54,0,0,1,138,33.83C137.83,34.21,137.68,34.59,137.52,35Z"/><path class="cls-4" d="M128.57,48.8c1.12,0,2.22-.11,3.31-.23a43.4,43.4,0,0,0,7-10.91l-2.24-.55A40.78,40.78,0,0,1,128.57,48.8Z"/><path class="cls-4" d="M119.94,55.29a25.41,25.41,0,0,0,4.7-.24,38.24,38.24,0,0,0,4.91-4c-1.13.07-2.27.09-3.42,0A35.22,35.22,0,0,1,119.94,55.29Z"/><path class="cls-4" d="M94.58,36a26.12,26.12,0,0,0,1.91,4.57c.52.41,1.05.79,1.6,1.16.8.57,1.64,1.11,2.49,1.64a53.32,53.32,0,0,0,8.25,4.11l1.38.52.34.11c.72.26,1.43.51,2.15.72a49.33,49.33,0,0,0,13.43,2.2c1.15,0,2.29,0,3.42,0a40.13,40.13,0,0,0,7.88-1.15h0a26.75,26.75,0,0,0,4-3.67,35.27,35.27,0,0,1-9.57,2.4c-1.09.12-2.19.2-3.31.23a47.25,47.25,0,0,1-15.5-2.2c-.71-.22-1.42-.47-2.13-.73-.44-.15-.85-.32-1.28-.48a48.84,48.84,0,0,1-9.44-4.94c-.82-.53-1.61-1.1-2.37-1.69A37.62,37.62,0,0,1,94.58,36Z"/><path class="cls-4" d="M94.23,20.48c-.21.77-.39,1.53-.52,2.3,1.82.77,3.66,1.52,5.55,2.27.7.29,1.41.56,2.12.83,2,.77,4,1.52,6,2.26,2.41.87,4.84,1.72,7.33,2.54.7.25,1.42.48,2.15.72l1.74.56c6.13,1.95,12.15,3.67,18,5.15l2.24.55c2.41.58,4.8,1.13,7.15,1.62q.5-1.06.9-2.19c-2.36-.48-4.75-1-7.16-1.59L137.52,35c-6-1.48-12.07-3.19-18.22-5.16l-1.72-.56c-.73-.23-1.44-.46-2.16-.71q-6.92-2.31-13.42-4.86l-2.11-.85Q97,21.67,94.23,20.48Z"/><path class="cls-4" d="M102.87,6.73c1.58.23,3.17.49,4.76.82.83.15,1.65.31,2.47.5a121.54,121.54,0,0,1,12.54,3.43l1,.3c.41.14.81.28,1.2.43s1,.34,1.49.51a122.16,122.16,0,0,1,14.2,6.18c.77.39,1.53.78,2.27,1.2,1.9,1,3.73,2.1,5.48,3.2a27.28,27.28,0,0,0-.65-3q-2.36-1.42-4.89-2.77l-2.35-1.21a120.47,120.47,0,0,0-14.47-6.13c-.51-.19-1-.37-1.55-.54l-.61-.2c-4-1.33-8-2.45-11.95-3.34-.85-.2-1.68-.38-2.53-.54-1.29-.28-2.59-.52-3.89-.73A23.83,23.83,0,0,0,102.87,6.73Z"/></g></g></svg>