<svg xmlns="http://www.w3.org/2000/svg" viewBox="0 0 200 97.64"><defs><style>.cls-1{fill:#666;}.cls-2{fill:#424242;}.cls-3{fill:#7edfe9;}.cls-10,.cls-4,.cls-7,.cls-8,.cls-9{fill:#37bedb;}.cls-5{fill:none;}.cls-6{fill:#45bacd;}.cls-7{opacity:0.5;}.cls-8{opacity:0.2;}.cls-9{opacity:0.8;}.cls-10{opacity:0.34;}.cls-11{fill:#0d8a9b;}.cls-12{fill:#2ab0c6;}</style></defs><title>ocupop-focus-branding</title><g id="Layer_2" data-name="Layer 2"><g id="Layer_1-2" data-name="Layer 1"><path class="cls-1" d="M200,97.64H0V44.77s31.17-27,68.07-27c36.58,0,67.65,19.73,87.7,17.6C187.51,32,200,25.94,200,25.94Z"/><path class="cls-2" d="M160.69,59a5.18,5.18,0,0,1,0,9.66l-30.78,12c-17.62,6.89-42.06,6.89-59.84,0l-30.78-12a5.18,5.18,0,0,1,0-9.66l30.77-11.9c17.62-6.89,42.22-6.8,59.84,0Z"/><path class="cls-3" d="M160.69,54.46a5.18,5.18,0,0,1,0,9.66l-30.78,12C112.3,83,87.86,83,70.08,76.09l-30.78-12a5.18,5.18,0,0,1,0-9.66l30.77-11.9c17.62-6.89,42.22-6.8,59.84,0Z"/><path class="cls-4" d="M72.15,55.94a13.46,13.46,0,0,0-5.49,1.73l-5.27,3.66c-1.11.78-1.26,1.64-.41,2.38a35.05,35.05,0,0,0,6.78,3.72A39.18,39.18,0,0,0,76,69.32a69.89,69.89,0,0,0,10.23.49c3.63-.08,11.49-.78,13.66-1.07A13.63,13.63,0,0,0,105.36,67l5.27-3.67c1.11-.77,1.26-1.64.41-2.37a34,34,0,0,0-6.78-3.72A38.42,38.42,0,0,0,96,55.37a68.48,68.48,0,0,0-10.23-.5c-3.63.09-11.49.78-13.66,1.07m35.3,5.49c.52.45.42,1-.28,1.48l-1,.73A83.8,83.8,0,0,0,97.78,59a22.8,22.8,0,0,0-5.22-1.21,43.38,43.38,0,0,0-6.46-.31c-2.35.05-9.21.67-10.1.78-1.45.18-2.51.61-2.65,1.12-.06.25.14.5.52.71l1.54.88,4.24,2.43a10,10,0,0,0,3.45,1,23.65,23.65,0,0,0,4.71.09L92.75,64l2.1,1.2s0,0,0,0a.19.19,0,0,1-.1,0c-.85.1-7.17.65-8.93.69a31.64,31.64,0,0,1-4.76-.23h0a16.42,16.42,0,0,1-3.79-.87,79,79,0,0,1-8-4.45c-.86-.52-.89-1.15-.1-1.71l.92-.64A8.44,8.44,0,0,1,73.51,57c1.93-.26,9.28-.9,12.39-1a56.92,56.92,0,0,1,8.54.41,31.6,31.6,0,0,1,6.86,1.58,32.93,32.93,0,0,1,6.15,3.37M87,63.3a8,8,0,0,1-4-.52l-1.87-1.07L85,61.39a7.9,7.9,0,0,1,4,.51L90.88,63Zm-22.43,0c-.52-.45-.42-1,.28-1.47l1.05-.73a84.94,84.94,0,0,0,8.34,4.64,22.86,22.86,0,0,0,5.22,1.2h0a43.2,43.2,0,0,0,6.45.32c2.35-.06,9.21-.67,10.11-.78,1.45-.19,2.5-.62,2.64-1.13.06-.25-.15-.49-.52-.71l-1.53-.87h0l-4.25-2.42c-1.57-.9-4.9-1.33-8.16-1.06l-4.94.41-2.09-1.19s0,0,0-.05a.13.13,0,0,1,.09,0c.85-.11,7.17-.66,8.93-.7a24.77,24.77,0,0,1,8.56,1.1,80.85,80.85,0,0,1,8,4.46c.86.52.9,1.15.1,1.7l-.92.64a8.13,8.13,0,0,1-3.38,1.07c-1.94.27-9.29.91-12.4,1a58.28,58.28,0,0,1-8.54-.41,32.31,32.31,0,0,1-6.86-1.59,32.36,32.36,0,0,1-6.15-3.37"/><path class="cls-5" d="M72.15,55.94a13.46,13.46,0,0,0-5.49,1.73l-5.27,3.66c-1.11.78-1.26,1.64-.41,2.38a35.05,35.05,0,0,0,6.78,3.72A39.18,39.18,0,0,0,76,69.32a69.89,69.89,0,0,0,10.23.49c3.63-.08,11.49-.78,13.66-1.07A13.63,13.63,0,0,0,105.36,67l5.27-3.67c1.11-.77,1.26-1.64.41-2.37a34,34,0,0,0-6.78-3.72A38.42,38.42,0,0,0,96,55.37a68.48,68.48,0,0,0-10.23-.5c-3.63.09-11.49.78-13.66,1.07m35.3,5.49c.52.45.42,1-.28,1.48l-1,.73A83.8,83.8,0,0,0,97.78,59a22.8,22.8,0,0,0-5.22-1.21,43.38,43.38,0,0,0-6.46-.31c-2.35.05-9.21.67-10.1.78-1.45.18-2.51.61-2.65,1.12-.06.25.14.5.52.71l1.54.88,4.24,2.43a10,10,0,0,0,3.45,1,23.65,23.65,0,0,0,4.71.09L92.75,64l2.1,1.2s0,0,0,0a.19.19,0,0,1-.1,0c-.85.1-7.17.65-8.93.69a31.64,31.64,0,0,1-4.76-.23h0a16.42,16.42,0,0,1-3.79-.87,79,79,0,0,1-8-4.45c-.86-.52-.89-1.15-.1-1.71l.92-.64A8.44,8.44,0,0,1,73.51,57c1.93-.26,9.28-.9,12.39-1a56.92,56.92,0,0,1,8.54.41,31.6,31.6,0,0,1,6.86,1.58,32.93,32.93,0,0,1,6.15,3.37M87,63.3a8,8,0,0,1-4-.52l-1.87-1.07L85,61.39a7.9,7.9,0,0,1,4,.51L90.88,63Zm-22.43,0c-.52-.45-.42-1,.28-1.47l1.05-.73a84.94,84.94,0,0,0,8.34,4.64,22.86,22.86,0,0,0,5.22,1.2h0a43.2,43.2,0,0,0,6.45.32c2.35-.06,9.21-.67,10.11-.78,1.45-.19,2.5-.62,2.64-1.13.06-.25-.15-.49-.52-.71l-1.53-.87h0l-4.25-2.42c-1.57-.9-4.9-1.33-8.16-1.06l-4.94.41-2.09-1.19s0,0,0-.05a.13.13,0,0,1,.09,0c.85-.11,7.17-.66,8.93-.7a24.77,24.77,0,0,1,8.56,1.1,80.85,80.85,0,0,1,8,4.46c.86.52.9,1.15.1,1.7l-.92.64a8.13,8.13,0,0,1-3.38,1.07c-1.94.27-9.29.91-12.4,1a58.28,58.28,0,0,1-8.54-.41,32.31,32.31,0,0,1-6.86-1.59,32.36,32.36,0,0,1-6.15-3.37"/><path class="cls-6" d="M65.48,64.18l.28.17Z"/><path class="cls-6" d="M65.26,64l0,0Z"/><path class="cls-6" d="M85.8,67.74l-.28,0Z"/><path class="cls-6" d="M93.55,62.42h0S93.53,62.41,93.55,62.42Z"/><path class="cls-6" d="M68.84,66,68.71,66S68.8,66,68.84,66Z"/><path class="cls-6" d="M80.78,67.52s0,0,0,0Z"/><path class="cls-6" d="M80.33,68.93h0Z"/><path class="cls-6" d="M90.33,60h0Z"/><path class="cls-6" d="M90.24,60.11c1,.18-.2-.13,0-.13-.27,0-.84-.15-.57-.07a15,15,0,0,0-2.16-.25s.31.05-.09.05a4.12,4.12,0,0,1-.78-.08c-.17,0-1.07,0-1,0-.39,0,.42.07-.13.12-.36.06-.86,0-1.29.09s.51-.07.73-.09c-.49,0-1,.08-1.46.13s.19-.06.62-.09A7.7,7.7,0,0,0,82.6,60c-.36,0-.55.05-.89.06a7,7,0,0,1,.84-.19c.87-.06-.32.09.43,0l.06,0c.32,0,.57-.06.91-.09.19,0,0,0-.17,0,.62-.06,1.13-.07,1.6-.14-.86,0-2.11.17-2.48.14l-1.65.2s.58,0,.12.08a6.93,6.93,0,0,0-1.33,0c.12,0-.13,0-.38.08s-.3,0-.27.07a1.1,1.1,0,0,1,.45,0c-.62,0-.08.06-.42.09h-.08c-.49-.29.1,0-.57-.39h.06L79,60c.11,0,.38.19.36.17a2.31,2.31,0,0,1,.42-.07,1.18,1.18,0,0,0-.2,0l-.21,0h0l-.12-.09c.3.21-.25-.07,0,.09a4.39,4.39,0,0,0-.71-.34c-.07,0-.23-.09-.28-.15a1.08,1.08,0,0,1,.28,0s-.13,0-.08.11a.6.6,0,0,0,.33.08c-.06,0-.29-.08-.16-.08a.47.47,0,0,0,.2,0l.09,0,.56-.05h-.32c.27,0,.78-.07,1.1-.09l-.08,0,.31,0h.06c.34,0,1.23-.09,1.89-.16a8,8,0,0,0-1,.07c-.08,0-.7,0-.4,0l2.32-.23h-.29c.29-.05.69-.07,1.14-.1.81,0-.59.1-.1.09-.32.06-.87.06-.95.12l.51,0c.42-.07.89,0,1.19-.08h-.32a1.75,1.75,0,0,1,.5,0l-.21-.05c-.47,0-.78.11-1.12.1.82-.09.63-.13,1.62-.21.05,0-.19,0-.29.06.34,0,.7-.1,1.25-.11-.32,0-.83.1-.42.11l.29-.08c.25,0,.15,0,.26,0,.36,0-.09-.06.48,0,.09,0,.27,0,.19,0,.65,0,.32,0,.93,0-.55,0-.57-.09,0-.08a12.23,12.23,0,0,1,1.9.14h.36c-.23,0,.5.07.75.11.08.06-1.19-.14-1.2,0,.52.06.29.06.12.07.57,0,.22,0,.47-.05,0,0,1,.13.62.13.48.07.57,0,.92.1,0,0-.12,0-.09.06a4.72,4.72,0,0,1,.57.11c-.07,0,.18,0-.24-.08.12,0,1,.19,1,.16s.87.23,1.26.4c0-.13-.77-.2-.89-.32a6.45,6.45,0,0,1,1.24.39c.49.2,1,.47,1.45.67.72.41,0,0,.11.15-.68-.33-.84-.45-1.43-.71l2.16,1.09c.69.38.71.52,1.56,1A1.28,1.28,0,0,0,98.3,62c.23.12.48.28.72.42s-.35-.24,0-.07c.12.08.4.25.33.24l-.06,0c.81.43.53.41,1.24.75a4.1,4.1,0,0,0-.36-.23c-.11-.1.33.12.64.29a5.36,5.36,0,0,0,.49.31c.13.12-.55-.32-.68-.36l.6.37-.12-.08.68.35c-.47-.26-.2-.17,0-.05a4.27,4.27,0,0,1,.82.56c.07,0,.62.36.54.66,0-.32.06,0,0,.06a1,1,0,0,1-.42.46c.51-.48-.12.07,0-.07s.41-.42.31-.62c0,.37-.32.65-.91,1,0,0,0-.07.29-.25-.11,0-.54.44-.92.65.1,0,.35-.15,0,.1a5.54,5.54,0,0,1-.57.21c-.68.23-.21.14-.77.34l.38-.08c0,.08-.78.23-.79.28.37-.09.56-.18.94-.3.16,0-.47.19-.68.26a7,7,0,0,1-1.25.2c0-.07,1-.28.82-.35a16,16,0,0,1-2.45.35c-.71.1-.64.15-.53.18-.3,0-.45,0-.64.06l.34-.06c-.89.11-1.4.18-2.33.26-.53.06-.31.09-.18.11l-.58.06h.09a5.53,5.53,0,0,1-1,.12s.23,0,.21-.06a9.14,9.14,0,0,0-1.12.1s.22-.09.63-.11c0,0,0,0,.06,0l.68-.09c-.78.09-1.26.08-1.24,0-.78.09.64,0-.29.1-1.24,0-2.34.19-3,.09-.57.06-1.24.15-2.13.17,0,0-.6,0-.51.08.85,0,1.59-.13,2.27-.09a1.13,1.13,0,0,0,.42-.1,3.33,3.33,0,0,1,.71,0,10,10,0,0,1-1.21.17c.13,0,.94,0,1.3,0-.1,0,0,0,.24,0-.25,0-.82.12-1.12.16.1,0-.09,0,0,0l-1.05.11c-.32,0-.41,0-.23-.06a9.82,9.82,0,0,1-1.56,0c-.75,0,.23,0,.3.05h-.07l.79,0c.09.07-.89,0-1,.07s-1.11,0-1.67,0l.64-.09-.55,0a8.14,8.14,0,0,1,.81-.13l-2.34-.07c-.19,0-.28-.07-.19-.1a14.37,14.37,0,0,1-1.84-.14c-.7,0,.69.1.18.1a7.11,7.11,0,0,0-.78,0c.21,0,.95.09,1.46.14a1,1,0,0,0-.45,0l.64,0a7.58,7.58,0,0,1-1.09,0c.19,0,.09,0,.28-.08a14.53,14.53,0,0,1-1.84-.18c-.27,0,.23,0,.38,0-.12,0-.55,0-.65-.09a4.12,4.12,0,0,1,.53,0c-.53-.06-1.07-.13-1.6-.21a3.87,3.87,0,0,1,.65.07,9.61,9.61,0,0,0-1.41-.14c-.54-.1-1.16-.25-1-.25-.25,0-.09,0-.09,0-.73-.15-.82-.1-1.26-.19l.32.11c-.69-.2-.18,0-.79-.15.11,0,.08-.07,0-.14a3.75,3.75,0,0,1-.76-.18c.15.08-.58-.12-.16,0-.63-.14-.89-.28-1.35-.38.27.11-.54-.13-.31,0-.58-.2-1-.43-.78-.4s.51.22.5.18c-.35-.13-.7-.27-1-.42a2.92,2.92,0,0,1-.58-.37c-.34-.11-.93-.51-1.2-.59a4.34,4.34,0,0,1,.73.41l-.16-.07.08,0-.47-.15c.4.24.09,0,.68.29s-1.21-.49-.7-.17a4,4,0,0,0,.76.3l-.1-.05.84.37s-.23-.06-.23-.06a16.44,16.44,0,0,0,2.28,1c-.08,0-.28-.18.23,0s.4.15.71.24A2.28,2.28,0,0,1,72,67v.06a7.19,7.19,0,0,1-1.6-.4,7.64,7.64,0,0,1-1.49-.62l.27.18c-.65-.24-.09-.11-.9-.45-.29-.24-.84-.63-.38-.45-.53-.31-.74-.38-1.22-.66-.26-.22.18,0,.15,0-.35-.2-.8-.44-.56-.26L65.63,64a3.52,3.52,0,0,1,.32.18c-.25-.16-.75-.44-.9-.53l.28.19c-.28-.15-.76-.47-.8-.49a6.43,6.43,0,0,0,.83.58.86.86,0,0,1-.35-.18c.32.26.67.46.8.59a2.68,2.68,0,0,0-.55-.32,9.14,9.14,0,0,0,1,.58c0,.08,1,.59.66.44a6.19,6.19,0,0,1,.66.36S67,65.1,66.74,65c-1.06-.57,0,0-.19-.19l-.79-.46c.07.05-.34-.15.18.15a5.34,5.34,0,0,1-1.16-.68c-.1,0,.19.15.28.21-.1-.05-.63-.32,0,.12-.18-.12.33.17,0-.06.25.17.94.61.64.48l1.2.64c.06.07-.23-.11-.37-.18l.93.5-.25-.17a14.12,14.12,0,0,0,1.72.8,4.69,4.69,0,0,1-.94-.38c.31.24.24.09.81.39.08,0,.09.07,0,.07l.49.18c.14.07.05,0,0,0,.84.31,0-.07,1.12.37-.66-.29-.58-.2-1.13-.45-.3-.18.65.23.83.27a6,6,0,0,0,1.28.52,3.28,3.28,0,0,1-.73-.2c-.4-.11.19.1.27.16s-.11-.1.4.08h0l.86.21c.78.26,1.8.4,2.34.57l-.12-.08c.51.1,1.23.23,1.59.28a4,4,0,0,1-.79-.09,18,18,0,0,0,2.34.3l-.93-.2c.6,0,.69.15,1.46.21,0,.06-.23,0,0,.09s.86.07,1.22.07c.19.07-.16.09-1,0-.59-.12-1.26-.12-1.74-.24l.29.08-1.46-.21h-.24l.27,0a7.09,7.09,0,0,1-1-.1,5,5,0,0,0,1.34.11,13,13,0,0,0,1.57.29s.46.11.12.1a5,5,0,0,0-.77-.09c.44.06.27.06.95.14.14,0,.66,0,1.15,0s1.18.09,1.59.13c-.52,0-1,0-.91,0,.3,0,1,.12.86,0a14.4,14.4,0,0,1,1.67.16c-.57,0-1.12-.07-1.6-.09.13,0,.26,0,.18,0l-.71,0a9.15,9.15,0,0,0,1.12.12s-.13,0-.07,0l.56,0,0,.06c.52,0,1.51.11,2.45.08h-.08c.75,0,.81-.09,1.63-.12-.24,0-.13.05-.08.08.4,0,.62,0,1,0-.48,0,.32-.07,0-.08a7.41,7.41,0,0,1,1.25-.1c.26.06-1.33.1-.68.15.43,0,.53-.06.23-.06.54,0,1.35-.06,1.74,0a12.89,12.89,0,0,0,1.29-.18,5.22,5.22,0,0,1-.78.08l.46-.08c.62,0,1.11,0,1.54-.07l-.45.06h0c-.17,0-.75.06-.68.1.4-.08.72-.06,1.25-.13h0c.94-.12,1.63,0,2.22-.2-.17,0-.52,0-.42,0s.79,0,.78,0l-.19,0c.53,0,.85-.06,1-.09s0-.06.37-.12c.94-.06-.37.12.27.09l.87-.12h.2a17.15,17.15,0,0,0,3.71-.68,5.07,5.07,0,0,1-1.32.39,9.5,9.5,0,0,0,1.65-.4c.54-.17.92-.43.82-.42.64-.37.48-.25.56-.28a4.89,4.89,0,0,1,.52-.42,3.33,3.33,0,0,0,.8-.66h0a1.2,1.2,0,0,0,.12-1.29c.13.32,0,0,0,.06a1.13,1.13,0,0,0-.16-.26,1.19,1.19,0,0,1,.21.93,1.55,1.55,0,0,1-.49.76,7.5,7.5,0,0,1-1.14.78c.2-.16-.09,0,.11-.13s.21-.14.24-.14.36-.31,0-.06c0,0,.17-.17.41-.35a1.61,1.61,0,0,0,.71-.87c.06-.32.1-.15,0,.15a1.74,1.74,0,0,1-.48.64,1.65,1.65,0,0,0,.56-.77.53.53,0,0,1,0,.13.93.93,0,0,0,0-.6c0-.09,0-.1,0-.08s0,.19,0,.07a2.06,2.06,0,0,0-.78-.86l.24.14c-.58-.4-.72-.4-1.23-.72l-.22-.18c.62.43.82.41,1.18.65-.46-.3-.39-.29-.18-.19a3.59,3.59,0,0,1,.8.46c-.48-.41-.82-.54-1-.72-.63-.3-1.22-.76-1.83-1-.31-.19.29.13,0-.06-.6-.37-1.26-.74-1.92-1.08-.34-.19-.27-.18-.35-.25-.81-.47-1.39-.76-2-1.05A14.58,14.58,0,0,0,94,59.05l.3.06a4.32,4.32,0,0,0-1-.24,24.55,24.55,0,0,0-2.51-.47,11.16,11.16,0,0,0-1.66-.07s.22,0-.15-.08a47.36,47.36,0,0,0-6.95.33l.21,0c-.83.06-1.64.15-2.42.22l-1.26.12-.91.08a1,1,0,0,0-.35.07.65.65,0,0,0-.26.09c0,.07-.23.11-.2.27s.15.18.12.12-.08-.11-.06-.16a.08.08,0,0,1,.07,0c-.07.07,0,.09,0,.12l.09.09.14.14.14.16c.06.07.1.11.64.42.29.24-.76-.38-.88-.38l1.59.86.47.28.87-.08.71,0c-.26,0-.08.06-.51.07l.08,0c-.39,0-.55.05-.67.07a4.5,4.5,0,0,1-.49.07l-.44-.24.44.25L80.41,61l1-.08c-.15,0,.55-.07.74-.11h0a4.79,4.79,0,0,1,.55-.09l.17,0c.3,0-.08,0,.21-.06a12,12,0,0,1,2-.1,11.37,11.37,0,0,1,1.18-.06,1.81,1.81,0,0,1-.19,0,18,18,0,0,1,3.49.32,11.87,11.87,0,0,1,2,.49c-.2-.09-.82-.3-.42-.21a3.75,3.75,0,0,1,.85.33c-.1,0,.78.47.14.13.12.15,1.36.76,1.32.82.15.06,1,.59,1.39.74.06.07-.49-.25-.5-.23l.41.22v0a15.77,15.77,0,0,0,1.43.72h0l.19.1,0-.53h0l-.41.3.43.23.13.07L96.45,64,96,63.82l.42-.38h0l0,.56-.26-.1.25.13,0-.61h0l-.46.35.49.26c.36.19.64.3,1.1.56l0,0,.34.18c-.06,0-.08,0-.05,0a1.11,1.11,0,0,1,.48.31c.09.15,0,.29-.11.38s-.38.15-.66.31l0-.08c.36-.15.41-.19.48-.22a.44.44,0,0,0,.24-.25c-.06.08-.08.11-.31.24a3.35,3.35,0,0,1-.82.31,9.33,9.33,0,0,1-2,.31c-1,.12-2.63.18-3,.31l.1,0-1.68.09c-1.42.13-2.88.21-4,.35h-.3c-1.11.22-3.81.06-4.55.13-.63-.08.19,0,.26-.06a13.18,13.18,0,0,1-1.69-.12s.65,0,.36,0-.49,0-.86-.1a3.64,3.64,0,0,1-1.19-.06l.15,0c.07,0-.35,0-.58-.06a.21.21,0,0,1,.09,0,17.77,17.77,0,0,1-4.48-1.17,45.62,45.62,0,0,1-4.2-2.27l.51.26c-.4-.2-1.08-.61-1.29-.75l.06,0c-.69-.48-.84-.42-1.36-.81l.12.06c-.34-.2-.61-.38-.87-.55l-.92-.57-.61.44c-.64.43-.61.29-1.07.74a.83.83,0,0,0-.19.87.76.76,0,0,1,0-.3c0-.16,0,0,0,.25a1.1,1.1,0,0,0,.39.61,1,1,0,0,1-.11-.28.84.84,0,0,1,0-.75c.35-.57.48-.39,1.07-.84a2.48,2.48,0,0,1,.52-.38,5.1,5.1,0,0,0,.85.52c-.34-.14.68.44.14.18.21.18,1.27.71,1.7,1a.71.71,0,0,1-.18-.07,10,10,0,0,1,.9.57v-.06c.2.09.23.16.41.25-.13-.09-.4-.27-.24-.2l.67.34s-.18-.06-.3-.12a5.84,5.84,0,0,1,.54.34,6.67,6.67,0,0,0-.61-.29c.67.4,0,0,.35.27-.06-.11.61.32,1,.51,0,0-.26-.14-.36-.17a14.17,14.17,0,0,0,2,1.08l-.2-.08c.45.21.74.41,1.05.51s0,.12.75.39c-.19-.13.82.3.86.23l.54.19c.49.09-.1-.14.84.08s-.1.1.4.24h.22l.42.11h-.07a4.2,4.2,0,0,1,.72.14s-.32,0-.36,0a12.41,12.41,0,0,0,2.13.29,4.08,4.08,0,0,1,.71.13c.23,0,1.14.11,1.48.09a1.56,1.56,0,0,0,.54.06c-.34,0-.13,0,.11-.06s1.16,0,1.29.1c.48,0,.3-.07.41-.11.3,0,1.27,0,1.1.08s-.84,0-.73,0a2.38,2.38,0,0,0,.62,0s.28,0,.2.06l.92-.06c-.54,0,.34-.07,0-.07l-.51.08c-.63,0-.14,0-.37,0,1.09-.09.87-.15,1.89-.26l.65,0c-.35,0-.28.09-.08.09a11.54,11.54,0,0,1,1.5-.08c-.41,0-.2,0,0-.06,1-.11.38,0,.81,0,1.52-.13,2.49-.12,3.7-.26H93.7l-.19.07c-.45,0,.07-.13.33-.18.06,0,.81,0,.51,0l.73-.08c-.11,0-.58,0-.24,0s1,0,.52,0a3,3,0,0,0,.78-.11c.64-.11-.06.09-.33.11.49,0,.44,0,.29,0,.23,0,.47-.07.7-.12-.15,0-.14.07-.29.11a10,10,0,0,0,1.2-.29l.16-.1a2.69,2.69,0,0,0,.76-.37,1.37,1.37,0,0,0,.51-.58.92.92,0,0,0,0-.79,1.51,1.51,0,0,0-.35-.42,2,2,0,0,0-.39-.26l.17.14c-.83-.42-.54-.37-1.58-.94l-.08,0,0,.91h0l.7-.52-.74-.39c-.54-.29-.88-.47-.83-.38a3.12,3.12,0,0,1-.54-.35,9.54,9.54,0,0,1-1.25-.65l.78.4c-.05-.09-.88-.52-1.3-.78a17.54,17.54,0,0,0-1.94-.88c.26.16.13.15-.42,0a7.09,7.09,0,0,0-1.1-.35c.2,0-.85-.25,0-.09.23.06.33.13.65.2A8.22,8.22,0,0,0,89.68,60a3,3,0,0,1,.61.08C90.13,60.06,90.22,60.09,90.24,60.11Z"/><path class="cls-6" d="M68.84,66l.08,0L68.83,66S68.86,66,68.84,66Z"/><path class="cls-6" d="M80.43,59.57l.12,0Z"/><path class="cls-6" d="M91.91,59.47l0,0S91.88,59.46,91.91,59.47Z"/><path class="cls-6" d="M68.34,65.36l.19.09Z"/><path class="cls-6" d="M87.21,63.53h0Z"/><path class="cls-6" d="M87.16,63.48Z"/><path class="cls-6" d="M83.46,62.41s0,0,0,0Z"/><path class="cls-6" d="M80.81,61.34h0Z"/><path class="cls-6" d="M87.81,63.46h0S87.8,63.46,87.81,63.46Z"/><path class="cls-6" d="M84.1,62.67v0Z"/><path class="cls-6" d="M90.08,63.49h0S90.08,63.48,90.08,63.49Z"/><path class="cls-6" d="M83,62.12v0Z"/><path class="cls-6" d="M82.82,62s.1.07.14.1l0,0c.07.08,0,0,0,0s0,0,0-.05,0,0,0,0,.13,0,.11,0-.07-.07,0-.11.13,0,.19,0-.07,0-.1,0l.22,0c.07,0,0,.05-.09.05a.2.2,0,0,0,.22-.06h.15c-.06,0-.05.1-.13.12s0-.06-.07-.06v0s-.08,0-.14,0,0,0,0,0-.18,0-.25.06c.14,0,.33-.05.39,0l.25-.08s-.09,0,0-.09.11.07.21.07.16-.06.1-.11-.07,0-.08,0,0-.06.06-.07,0,0,.18,0A1.27,1.27,0,0,1,84,62s.1,0,.14,0,0-.06,0-.07a3.71,3.71,0,0,1,.46-.13c0,.08-.28.08-.22.18s.08-.06.14-.06.2,0,.31,0l0,0s.12,0,.17,0v0l0,0h0s.19,0,.29,0-.1,0-.15,0-.11,0-.07,0,.21-.07.35-.08h0s.1,0,.17,0-.09.06,0,.08-.13,0-.14.06l.08,0c.06,0,.13,0,.18,0l0,0s0,0,.07,0l0-.06c-.07,0-.12.05-.17,0,.12,0,.09-.08.25-.08,0,0,0,0,0,0s.11,0,.19,0-.12,0-.06.08l0,0s0,0,0,0,0-.06.08,0,0,0,0,0,.05,0,.15,0c-.09,0-.09-.08,0-.09s.21,0,.29,0l.06,0s.07,0,.11,0-.18,0-.19.07.05,0,0,.06,0-.06.07-.09.15,0,.1.06.09,0,.14,0a.08.08,0,0,0,0,.07s.07,0,.08,0,0,0,0,0,.15,0,.15,0,.13,0,.2.05-.13,0-.14-.06.3,0,.45,0,0,0,0,.09-.14,0-.24,0a.79.79,0,0,0,.37,0c.11,0,.11.13.25.13a.07.07,0,0,0,0-.06.25.25,0,0,1,.12,0s-.05,0,0-.05.06,0,.05.05h0c.14,0,.07.11.2.07s0,0-.06,0,.07,0,.12,0,0,0,.08,0-.09,0-.12,0l.1,0h.1c-.08,0,0-.06,0-.06s.14.07.12.11.11,0,.18,0,0,0,0,0l.08.09c-.11,0,0,.05,0,.06s-.1,0-.15-.05c.07.13.17,0,.23.11s0,0-.06,0,.11,0,.12,0,0-.07,0-.06a.17.17,0,0,1,0,.07s.06,0,.14,0v0s.08,0,.13,0-.09,0-.12,0,.07,0,.12,0,0,.06.07.11-.2,0-.29.06c.06,0,.18,0,.16.08a.52.52,0,0,0,.25,0s0,0,0,0l-.08,0a1.44,1.44,0,0,1,.3.12.86.86,0,0,0,.22,0l.09,0h0a.4.4,0,0,1,.19.07l-.12,0s.06,0,.15.07L90,62.65h0l-.13,0c.14,0,0,.06-.09,0,.14,0,.08,0,.22,0-.14,0,.19.12,0,.11l-.17,0c.06,0,.14.06.06.07.11,0,0,0,.12.06s0-.08.25,0a.76.76,0,0,0-.21-.06h.08l.17.05c.08,0,.19,0,.11.06h.19l0,0,.16,0,.31.1,0,0A1.11,1.11,0,0,0,91,63v.06a1,1,0,0,1-.27-.06c-.13,0-.15.06-.3,0s.13,0,.18,0h0l.12,0c.21.06-.2,0,0,.06s-.31,0-.35,0L90.21,63l0,0S90,63,90,62.92a2.46,2.46,0,0,0-.31,0l-.16-.08c0,.06-.15,0-.2,0s.11,0,.12.09a.09.09,0,0,0-.09,0s.12,0,.2,0,0,0,0,.06h.1c.06.05-.11,0-.12,0s0,0-.07-.1a.27.27,0,0,1-.22,0s0,0,0,0,0,0-.08,0,0,0,0,0h-.15s0,0,0,0-.06,0-.15.07-.19,0-.17-.07,0,0,0,.06-.12.07-.19.08l.06,0c-.12,0,0,.07-.13,0a.15.15,0,0,0,0-.13s-.08,0-.13,0-.09,0,0,.08c-.1,0-.15,0-.22.05s-.08,0,0,.07-.17,0-.14-.07.09,0,.08,0l-.18,0s-.1,0-.11-.07-.17,0-.21,0,.11,0,.14,0l0,0h0l-.07.08c.08,0,0-.05.12-.06s-.2.14-.1.17.06-.05.12-.08h0l.14-.05s0,.05,0,.05c.17,0,.2,0,.39,0a.05.05,0,0,1,0-.1c.06,0,.07,0,.12,0s0,.06-.09,0v.06c-.14.07-.06.12-.25.16,0,0-.14.07-.24.07l.05,0c-.1.08,0-.06-.15,0s-.18-.14-.11-.21c-.09,0-.12,0-.21,0s0-.07,0-.12-.14,0-.09.07h-.13s0,0,.06,0a.28.28,0,0,0-.16,0h0s-.13.06-.14.08.09,0,.16,0,0,0-.06,0,.13,0,.16.06-.08,0-.1,0a.34.34,0,0,0,.18,0c0,.07.18,0,.13,0s.07,0,.11,0-.09.06-.13.09,0,0,0-.07l-.15,0s-.05,0,0,0a.18.18,0,0,1-.2.06s0,0,.06,0-.1.1,0,.1c0,0,0,0,0,0s.17,0,.12,0l.21-.07s0,0-.06,0l.16,0,0,0c.12,0,.19-.07.29-.1s-.09.06-.15.1,0,0,.13,0,0,0,0,0l.07-.06s0,0,0,0c.14-.07,0-.08.17-.12-.11,0-.09.05-.18.05s.1-.08.13-.11.1.09.21,0c-.07,0,0,0-.11.06s0,0,.05,0,0-.06.06,0h0l.13-.07c.13,0,.28-.08.37,0l0-.05.24,0s-.06,0-.12.05a.87.87,0,0,0,.39-.1l-.18-.05c.08-.09.13,0,.27,0s0,.05,0,.1.17,0,.21-.08,0,.09-.13.11-.31.06-.37,0l0,0a1.28,1.28,0,0,0-.23.06h0l0,.06h0a.41.41,0,0,1-.14.1c.13,0,.14-.11.2-.16s.15.08.29,0,.14,0,.05.07-.19,0-.19,0a2.07,2.07,0,0,0,.26,0s.14-.11.23-.16a1.23,1.23,0,0,1,.38,0c-.11,0-.21.07-.14.1s.3,0,.19,0a1.52,1.52,0,0,1,.53,0,3.42,3.42,0,0,1-.44,0s.09,0,.08,0H90a.87.87,0,0,0,.36,0h.12l.09,0c.11,0,.53,0,.75-.06h0c.25,0,0-.1.22-.13,0,0,.09,0,.16.06a1.71,1.71,0,0,1,.4,0c-.23,0-.06-.06-.21-.06s.06-.06.2-.07c.3.05-.26.06.14.1.15,0,.06,0-.07,0h.44s0,0,0-.05c-.32-.12-.29-.14-.59-.23.08,0,.24.08.26.12L92,63.1c-.14-.08-.13-.13-.21-.18l.17.07h0a1.25,1.25,0,0,0,.3.12,3.71,3.71,0,0,1-.4-.19h0c-.32-.14-.2-.21-.57-.31,0,0,0,.06,0,0s-.14-.1-.07-.09l.06,0a1.23,1.23,0,0,0-.24-.15.55.55,0,0,1-.24,0c-.17-.12.24,0,.15,0l-.28-.12v0a9.27,9.27,0,0,0-.95-.46s.3.08.39.13-.27-.13-.38-.24-.26-.1-.26-.06c-.16-.07-.09-.09-.1-.11s-.2-.07-.3-.09v0l-.16,0s0,0,0,.06l0,0c.1.14.32.07.43.25-.06,0,0,0-.06,0s0,0,0,0-.1,0,0,.05-.17,0-.27-.05.1,0,.16,0-.08,0-.13,0l0,0c-.14,0-.05,0-.1.06s-.12,0-.16-.05h0c-.09-.06-.13,0-.23,0l0-.05c.1.09.17,0,.23,0-.16-.11.07-.09.15-.11a.42.42,0,0,1-.19-.09c-.13,0-.23-.1-.36,0s.07,0,0,0a1.08,1.08,0,0,0-.36,0c-.07,0,0,0-.06-.06-.3-.08-.44,0-.76,0l.05,0c-.07,0-.13,0-.17,0-.08-.11-.29,0-.4-.07s-.15,0-.27.06,0-.06,0-.07c-.38,0-.71,0-1.12.08l0,0c-.27,0-.5.13-.72.12,0,0-.15,0-.11.07s.06.05.06.08c-.19.06-.1-.06-.23,0s.08,0,.07-.11l-.18.06c-.1,0-.2,0-.29,0s0-.06.07,0,0,0,0,0c.16,0,.08,0,.22-.07a1.35,1.35,0,0,1-.39,0c0,.05-.08,0-.11.06h0s-.06,0-.08,0l0-.06c-.05,0,0,0,0,0s-.3,0-.32,0-.1.05-.19.05l0,0c-.27,0-.64.06-1,0a1.79,1.79,0,0,0-.48.11s.25,0,.19,0-.11,0-.18,0-.28,0-.14,0c-.18-.06-.36,0-.51,0s-.3,0-.29.07.08,0,0-.05l-.1,0h-.06c-.29,0-.08.07-.17.09h0l0,0-.07,0c-.06,0-.07,0-.08,0l.29.12h0l.13.06,0,0c.23.08.33.16.51.21,0,0-.11,0,.08.08l-.19,0c-.19-.1.07,0-.18-.13s.33.27.6.42.52.33.75.35h-.08l.31.21a4.92,4.92,0,0,0,.82.42l0,.05c.23,0,.64.19.79.08.09.06,0,0-.06.06s.22,0,.28,0-.11,0-.07,0,.09,0,.14,0,.11-.07.21-.06h0s.06,0,.1,0h0c.48,0,1,.05,1.5.09l-.09,0a.57.57,0,0,1,.23,0h0c.14.06.15-.06.25,0h0c.16,0,.26.06.41,0s.11.06.2.08a.17.17,0,0,0,.11-.06h0s.07,0,.12,0,0-.15-.17-.2-.11-.09-.22-.07-.17,0-.27,0c.05-.06-.13,0,0-.09s-.22.05-.3,0,0,0,0,0-.08,0-.16,0v.06s0,0-.07,0,.07,0,0,.06a.45.45,0,0,1-.11,0s0,0,.05,0-.09,0-.1,0,.08,0,.11,0,0,0-.07-.06-.11,0-.17,0,0,0,.06,0-.18,0-.34,0l0,0c-.07,0-.12,0-.17,0s0-.07-.12-.08-.12,0-.13,0l-.08-.05c-.08,0,0,.13-.14.11s0-.11,0-.16l0,0-.06,0h0s-.11,0-.1,0,0,0,.06,0-.23-.14-.31,0-.11,0-.09-.07-.16-.06-.21,0,0-.05-.06-.05,0,0,0,.06-.15,0-.15-.12-.06.06-.09.09-.15-.09-.1-.14.09.06.1,0,0,0-.09,0,0,0,0-.07a.16.16,0,0,1-.1,0c0,.06,0,0,0,.07l.07,0c.08,0,0,0,0,.07-.13,0-.15,0-.26,0a.14.14,0,0,1,0,0s0,0,0-.06,0,0,0-.06l-.06,0c-.09,0,0,0,0-.05s0-.07-.09-.08h0a.83.83,0,0,1-.28,0s0,0,0,0l-.09,0s0,0,0,0,0,0,.08,0a.38.38,0,0,0-.15,0s.16,0,.21,0H83l0,0,.13,0s-.12,0,0,0H82.9c.06,0,.08,0,.07,0l-.1,0c-.18,0,.07,0,.06,0h0L82.67,62s0,0,.1,0-.18-.07-.09,0l.07,0,.12,0a.62.62,0,0,1-.19-.12c-.08,0-.19-.09-.2-.13s.11,0,.17,0,.14.06.11.08l-.09,0,.17.09,0,0Z"/><path class="cls-6" d="M87.81,63.46h0Z"/><path class="cls-6" d="M85,61.84l0,0Z"/><path class="cls-6" d="M86.7,61.78h0S86.69,61.78,86.7,61.78Z"/><path class="cls-6" d="M87.66,63.1h0Z"/><path class="cls-6" d="M106.54,60.51l-.28-.17Z"/><path class="cls-6" d="M106.77,60.71h0Z"/><path class="cls-6" d="M86.22,57l.28,0Z"/><path class="cls-6" d="M78.47,62.26a0,0,0,0,0,0,0S78.49,62.28,78.47,62.26Z"/><path class="cls-6" d="M103.18,58.65l.13.08S103.22,58.67,103.18,58.65Z"/><path class="cls-6" d="M91.24,57.17h0Z"/><path class="cls-6" d="M91.69,55.76h0Z"/><path class="cls-6" d="M81.69,64.69h0Z"/><path class="cls-6" d="M81.78,64.58c-1-.19.2.12,0,.12.27,0,.84.15.58.08a18.09,18.09,0,0,0,2.15.25s-.31,0,.09,0a6,6,0,0,1,.78.07l1,0c.39,0-.42-.07.13-.11.36-.07.86,0,1.29-.1s-.51.07-.73.1l1.46-.14c.43,0-.19.07-.61.1a8.34,8.34,0,0,0,1.48-.17l.89,0a7.15,7.15,0,0,1-.83.18c-.88.07.31-.08-.44,0l-.06,0a7.37,7.37,0,0,0-.91.09c-.19,0,0,0,.17,0-.61.06-1.13.07-1.6.13.86,0,2.11-.16,2.48-.14l1.65-.2s-.58,0-.12-.08a7.56,7.56,0,0,0,1.33,0c-.12,0,.13,0,.38-.09s.3,0,.27-.06a1.71,1.71,0,0,1-.45,0c.62-.06.08-.06.42-.09h.08c.49.3-.1,0,.57.39h0L93,64.65a2.77,2.77,0,0,0-.37-.16,3.53,3.53,0,0,1-.42.07h.2l.21,0,0,0,.12.08c-.3-.21.25.08,0-.08l.28.14.13.07,0,0,.2.09.34.15c0,.06-.17,0-.28.07s.13,0,.08-.11a.62.62,0,0,0-.32-.09c.05,0,.28.08.15.08a.65.65,0,0,0-.2,0H93.1l-.56.06h.32c-.27,0-.78.06-1.1.08l.08,0-.31.05h-.06c-.34.06-1.23.1-1.89.17a8,8,0,0,0,1-.07c.08,0,.7,0,.4,0l-2.32.23h.3c-.3,0-.7.07-1.15.11-.8,0,.59-.11.1-.09.32-.07.87-.07,1-.13l-.51,0c-.42.07-.89.06-1.19.09h.32a1.46,1.46,0,0,1-.5,0l.21,0c.47,0,.78-.11,1.12-.09-.82.08-.63.12-1.62.2,0,0,.19,0,.29,0-.34,0-.69.1-1.25.1.32,0,.83-.1.42-.1l-.29.07a1.41,1.41,0,0,1-.25,0c-.36,0,.08,0-.49,0-.08,0-.27,0-.19,0-.65,0-.31,0-.93,0,.55,0,.57.09,0,.08a12.23,12.23,0,0,1-1.9-.14h-.36c.24,0-.5-.07-.75-.12a11,11,0,0,0,1.2,0c-.52-.06-.29-.06-.12-.07-.57,0-.22,0-.47,0,0,0-1-.13-.62-.13-.48-.07-.57,0-.92-.1.06,0,.12,0,.09-.06a5.12,5.12,0,0,1-.57-.11c.08,0-.17,0,.24.08-.11,0-1-.2-1-.17s-.87-.22-1.26-.4c0,.13.77.21.89.33a7.53,7.53,0,0,1-1.24-.39c-.49-.21-1-.48-1.44-.68-.72-.4,0,0-.11-.15.68.34.83.46,1.43.71L75,63.38c-.69-.38-.71-.53-1.55-1a1,1,0,0,0,.32.25c-.23-.11-.48-.27-.72-.41s.36.24,0,.06c-.12-.08-.39-.24-.33-.23l.06,0c-.81-.43-.53-.41-1.24-.75,0,0,.2.11.36.22s-.32-.11-.64-.29c.07,0-.27-.17-.49-.3s.56.31.68.35l-.6-.36.12.08-.67-.36c.46.26.19.18,0,.06-.45-.28-.91-.57-.82-.57-.07,0-.63-.36-.55-.65,0,.31-.06,0,0-.07a1.07,1.07,0,0,1,.42-.46c-.51.48.13-.07,0,.07s-.41.43-.31.63c0-.37.32-.66.91-1,0,0,0,.08-.29.25.11,0,.54-.43.92-.64-.1,0-.34.14,0-.11a5.49,5.49,0,0,1,.57-.2c.68-.24.21-.15.77-.35l-.38.08c0-.07.78-.22.79-.27-.37.09-.56.18-.94.29-.16,0,.47-.18.68-.26a7.73,7.73,0,0,1,1.26-.19c0,.06-1,.27-.83.35a16.12,16.12,0,0,1,2.45-.36c.72-.09.64-.14.53-.18a6.33,6.33,0,0,1,.64,0l-.33.06c.88-.11,1.39-.19,2.32-.27.53-.06.32-.08.18-.11l.58-.05h-.09a5.88,5.88,0,0,1,1-.11s-.23,0-.21.06c.34,0,.85-.06,1.12-.1a1.59,1.59,0,0,1-.63.1H80l-.68.08a3.12,3.12,0,0,1,1.24,0c.78-.08-.64,0,.29-.09,1.24,0,2.34-.19,3-.09.57-.06,1.24-.15,2.14-.17,0,0,.59,0,.5-.08-.85-.05-1.58.12-2.27.08-.38,0-.25.07-.42.1a3.55,3.55,0,0,1-.7,0,9.21,9.21,0,0,1,1.2-.18c-.13,0-.94,0-1.3.05.1,0,0-.05-.24-.05.25,0,.82-.11,1.12-.16-.1,0,.09,0,0,0L85,56c.32,0,.41,0,.24.07a11.83,11.83,0,0,1,1.55,0c.75,0-.23,0-.3,0h.07l-.79,0c-.09-.08.9,0,1-.07s1.11,0,1.67,0l-.64.09h.55c-.32,0-.32.09-.81.13l2.35.06c.18,0,.27.08.18.11a13,13,0,0,1,1.85.14c.7,0-.7-.1-.19-.11a7.19,7.19,0,0,0,.78.06c-.21,0-1-.1-1.46-.14a1,1,0,0,0,.45,0l-.64,0c0-.05.79,0,1.09,0-.19,0-.09,0-.28.09a14.59,14.59,0,0,1,1.84.17c.27.05-.23,0-.38,0,.12.05.55,0,.65.1a4.52,4.52,0,0,1-.53,0c.53.06,1.07.13,1.6.21a4.85,4.85,0,0,1-.65-.06,8.47,8.47,0,0,0,1.41.13c.54.11,1.16.26,1,.25.25,0,.09,0,.09,0,.73.15.82.09,1.26.19l-.32-.11c.69.19.18,0,.79.14-.11,0-.08.07,0,.14a3.76,3.76,0,0,1,.76.19c-.15-.09.58.12.17,0,.62.14.89.28,1.34.38-.27-.11.54.14.31,0,.58.2,1,.42.78.4s-.51-.23-.49-.19c.34.13.69.27,1,.43a2.59,2.59,0,0,1,.58.36c.35.11.93.51,1.2.59a3.89,3.89,0,0,1-.72-.4l.16.07-.08,0,.46.15c-.4-.25-.09,0-.68-.3s1.21.5.7.18a3,3,0,0,0-.76-.3l.1,0-.84-.37s.23,0,.23,0a16.43,16.43,0,0,0-2.28-.95c.08,0,.28.18-.23,0s-.4-.15-.71-.24a2.63,2.63,0,0,1,.6.15v-.06a7.06,7.06,0,0,1,1.6.4,7.64,7.64,0,0,1,1.49.62l-.27-.17c.65.24.09.1.9.45.3.23.84.63.38.45.53.31.74.38,1.22.65.27.23-.18,0-.15.06.35.19.8.44.56.25l.65.42a2,2,0,0,1-.32-.18c.25.17.75.45.9.53a3.23,3.23,0,0,1-.28-.18c.28.15.76.47.8.49a7.07,7.07,0,0,0-.82-.58A.77.77,0,0,1,107,61c-.32-.26-.67-.47-.8-.59a3.63,3.63,0,0,0,.56.32,10.3,10.3,0,0,0-1-.58c0-.09-1-.59-.65-.45a4.25,4.25,0,0,1-.67-.36s.57.26.81.36c1.06.58,0,0,.19.19l.79.47c-.07-.06.34.15-.17-.16a5.87,5.87,0,0,1,1.15.69c.1,0-.19-.15-.28-.21.1,0,.63.31,0-.12.18.12-.33-.18,0,.05-.26-.16-1-.61-.65-.47l-1.2-.65c-.06-.07.23.12.37.18l-.93-.5.25.18a15,15,0,0,0-1.71-.81,6.15,6.15,0,0,1,.94.38c-.32-.23-.25-.09-.82-.39-.07,0-.09-.07,0-.06l-.49-.18c-.13-.07,0-.05,0,0-.84-.31,0,.06-1.12-.38.66.3.58.2,1.13.46.3.18-.65-.23-.83-.27a6,6,0,0,0-1.28-.52,3.72,3.72,0,0,1,.73.19c.4.12-.19-.1-.26-.15s.1.09-.41-.09h0l-.86-.2c-.78-.26-1.8-.4-2.34-.58l.12.08c-.51-.1-1.22-.23-1.59-.28a5.55,5.55,0,0,1,.79.1,16.1,16.1,0,0,0-2.34-.3l.93.19c-.6,0-.69-.15-1.46-.2,0-.06.24,0,0-.1s-.85-.06-1.22-.06c-.19-.07.16-.09,1,0,.59.11,1.26.12,1.74.24l-.29-.08,1.46.21h.25l-.28-.05c.2,0,.78.07,1,.1a5.3,5.3,0,0,0-1.34-.1,15.8,15.8,0,0,0-1.57-.3s-.46-.11-.11-.09a6.55,6.55,0,0,0,.77.09c-.45-.06-.28-.06-1-.15a7.89,7.89,0,0,1-1.15,0c-.51,0-1.18-.08-1.58-.12.51,0,1,0,.9,0-.3,0-1-.12-.86,0A12.6,12.6,0,0,1,90,55.66c.57,0,1.12.07,1.6.09-.13,0-.26,0-.18,0l.71.06A9.15,9.15,0,0,0,91,55.65c.05,0,.13,0,.07,0l-.56,0,0-.06c-.52,0-1.51-.11-2.45-.07h.08c-.75,0-.81.09-1.63.11.24,0,.13,0,.09-.07-.41,0-.63,0-1,0,.48,0-.32.06,0,.07a6.44,6.44,0,0,1-1.25.1c-.26-.06,1.33-.1.68-.14-.43,0-.53.06-.23.06-.54,0-1.35.05-1.74,0-.63.1-.89.09-1.29.19a5.22,5.22,0,0,1,.78-.08l-.46.08c-.62,0-1.11,0-1.54.06l.45,0h0a5.87,5.87,0,0,0,.68-.1c-.4.08-.72.05-1.25.13h0c-.93.11-1.63,0-2.21.2.17,0,.51,0,.41,0s-.79,0-.78,0l.2,0c-.54,0-.86.06-1,.09s0,.06-.37.11c-.94.07.37-.12-.27-.09l-.87.13-.2,0A17.31,17.31,0,0,0,71.5,57a5,5,0,0,1,1.32-.4,9.5,9.5,0,0,0-1.65.4c-.54.18-.92.44-.82.42-.64.38-.48.26-.56.28a3.21,3.21,0,0,1-.52.42,4.16,4.16,0,0,0-.8.66h0a1.18,1.18,0,0,0-.12,1.28c-.13-.32,0,0,0,0a1.64,1.64,0,0,0,.16.26,1.2,1.2,0,0,1-.21-.93,1.53,1.53,0,0,1,.5-.77,6.88,6.88,0,0,1,1.13-.77c-.2.15.09,0-.11.13s-.21.14-.24.14-.35.31,0,0c0,0-.17.18-.41.36a1.61,1.61,0,0,0-.71.87c-.06.32-.1.14,0-.15a1.91,1.91,0,0,1,.48-.65,1.68,1.68,0,0,0-.55.78c0-.05,0-.09,0-.13a.9.9,0,0,0,0,.59c0,.09,0,.1,0,.08s0-.18,0-.06a2.26,2.26,0,0,0,.78.86L69,60.54c.58.41.72.4,1.23.73l.22.18c-.61-.44-.82-.41-1.17-.66.45.31.39.3.17.2a4,4,0,0,1-.8-.46c.48.4.82.54,1,.72.62.29,1.21.76,1.83,1,.3.19-.3-.13,0,.07.61.36,1.26.73,1.92,1.07.34.2.27.18.35.26.81.47,1.39.76,2,1a14.46,14.46,0,0,0,2.28.91l-.31-.06a4.39,4.39,0,0,0,1,.25,23.83,23.83,0,0,0,2.5.47,13,13,0,0,0,1.67.08s-.22,0,.14.08a49,49,0,0,0,7-.34l-.22,0c.83-.06,1.64-.14,2.42-.22l1.26-.12.91-.07a1,1,0,0,0,.35-.07,1.91,1.91,0,0,0,.26-.09c0-.08.24-.11.2-.28s-.14-.18-.12-.11.08.1.07.15-.07,0-.08,0-.14-.18-.18-.25L94.74,65a1.22,1.22,0,0,0-.14-.16,3.81,3.81,0,0,0-.59-.36c-.24-.22.51.23.8.35l.08,0,0,0L93.3,64l-.47-.28-.87.08c-.24,0-.48,0-.7,0,.25,0,.08-.06.5-.07l-.08,0c.39,0,.56-.05.67-.07s.12,0,.49-.07l.45.24-.44-.24-1.24.12-1,.08c.16,0-.55.07-.74.12h0a4.79,4.79,0,0,1-.55.09L89.09,64c-.3,0,.08,0-.21.05a11.15,11.15,0,0,1-2,.11,11.4,11.4,0,0,1-1.18,0l.19,0a18.06,18.06,0,0,1-3.49-.31,14.12,14.12,0,0,1-2-.49c.2.09.82.3.42.21a4.29,4.29,0,0,1-.85-.33c.1,0-.78-.47-.14-.13-.12-.16-1.36-.77-1.31-.82-.16-.07-1-.59-1.4-.75-.06-.07.49.26.5.24l-.41-.22v0c-.77-.46-1-.47-1.43-.73h0l-.32-.17.4.16-1.35-.69,0-.05-.35-.17c.06,0,.08,0,0,0a1.12,1.12,0,0,1-.48-.32c-.09-.15,0-.28.11-.37s.38-.16.66-.32l0,.09c-.36.15-.41.19-.48.22a.41.41,0,0,0-.24.24.94.94,0,0,1,.31-.24,4.43,4.43,0,0,1,.82-.31,9.33,9.33,0,0,1,2-.31c1-.12,2.63-.17,3-.3l-.1,0,1.68-.1c1.42-.13,2.88-.21,4-.35h.3c1.11-.21,3.81-.05,4.55-.12s-.19,0-.26.06a11.83,11.83,0,0,1,1.7.12s-.66,0-.37,0,.49,0,.87.09a3.8,3.8,0,0,1,1.18.07l-.15,0c-.07,0,.35,0,.58.06H93.7a17.74,17.74,0,0,1,4.48,1.16c1.45.67,2.86,1.49,4.2,2.28l-.51-.26c.4.2,1.08.61,1.29.75l-.06,0c.69.47.84.42,1.36.81l-.11-.06.86.54.92.58.61-.44c.64-.44.62-.3,1.07-.74a1.08,1.08,0,0,0,.24-.62.46.46,0,0,0,0-.25.71.71,0,0,1,0,.29c-.05.16,0,0,0-.25a1.08,1.08,0,0,0-.39-.61,1.69,1.69,0,0,1,.12.28.88.88,0,0,1,0,.76c-.35.57-.48.39-1.06.84a3.08,3.08,0,0,1-.52.37,6.74,6.74,0,0,0-.86-.51c.34.14-.68-.44-.14-.19-.21-.18-1.26-.7-1.7-1a.71.71,0,0,1,.18.07c-.66-.36-.42-.3-.9-.57v0c-.2-.09-.23-.15-.4-.24.12.08.39.26.23.2s-.42-.21-.66-.35a1.09,1.09,0,0,1,.29.13,4.44,4.44,0,0,1-.54-.35c.19.09.44.23.62.3-.68-.41,0-.05-.36-.28.06.11-.61-.31-1-.5,0-.05.26.13.37.17a13.88,13.88,0,0,0-2-1.08l.2.08a11.08,11.08,0,0,0-1-.52c-.43-.2-.05-.11-.74-.39.18.13-.83-.3-.87-.22l-.54-.2c-.49-.08.1.14-.84-.07s.1-.1-.39-.25H94.8l-.42-.11h.06a5,5,0,0,1-.72-.15s.32,0,.37,0A15.09,15.09,0,0,0,92,57.29a7,7,0,0,1-.71-.12c-.23,0-1.14-.11-1.48-.1a1.73,1.73,0,0,0-.54,0c.35,0,.13,0-.11,0S88,57,87.82,57c-.48,0-.3.07-.41.11-.3,0-1.27,0-1.1-.09s.84,0,.73,0a3.77,3.77,0,0,0-.62,0s-.28,0-.2,0l-.92,0c.54,0-.34.08,0,.08L85.8,57c.62-.05.13,0,.36,0-1.09.09-.87.14-1.89.25l-.65,0c.35,0,.28-.08.08-.08a11.35,11.35,0,0,1-1.49.07c.4,0,.19,0,0,.07-1,.11-.38,0-.81,0-1.52.12-2.49.12-3.7.25h.58l.19-.06c.45,0-.07.12-.33.17-.06,0-.81.06-.51,0l-.73.08c.11,0,.58,0,.25,0s-1,0-.53,0c-.38,0-.87.08-.78.11-.64.1.06-.09.33-.12-.49,0-.44,0-.29,0-.23,0-.47.07-.7.12.15,0,.14-.06.3-.1a12,12,0,0,0-1.21.28l-.16.11a3,3,0,0,0-.76.36,1.4,1.4,0,0,0-.51.59.92.92,0,0,0,0,.79,1.34,1.34,0,0,0,.35.41,2.7,2.7,0,0,0,.39.27l-.17-.15c.83.42.54.38,1.58.95.58.31,1,.51.91.42a2.71,2.71,0,0,1,.54.34,9.14,9.14,0,0,1,1.25.66l-.78-.4c0,.08.88.51,1.3.78a16,16,0,0,0,1.94.87c-.26-.15-.13-.15.42,0a6.4,6.4,0,0,0,1.1.35c-.19,0,.85.25,0,.1a5.78,5.78,0,0,0-.65-.2,8.53,8.53,0,0,0,1.22.36,3.55,3.55,0,0,1-.61-.07C81.89,64.62,81.8,64.59,81.78,64.58Z"/><path class="cls-6" d="M103.18,58.65l-.08,0,.09.06S103.17,58.65,103.18,58.65Z"/><path class="cls-6" d="M91.59,65.12s-.12,0-.12,0Z"/><path class="cls-6" d="M80.11,65.23h0Z"/><path class="cls-6" d="M103.68,59.33l-.18-.09Z"/><path class="cls-6" d="M73.24,56.06l.28,0Z"/><path class="cls-6" d="M73,56h0Z"/><path class="cls-6" d="M65.58,67l-.23-.1Z"/><path class="cls-6" d="M81.8,69.38h0S81.82,69.39,81.8,69.38Z"/><path class="cls-6" d="M76.47,55.72h0Z"/><path class="cls-6" d="M61.86,64.9h0Z"/><path class="cls-6" d="M86.49,55.31h0Z"/><path class="cls-6" d="M85.09,70.39l.11,0C85.13,70.37,85.09,70.38,85.09,70.39Z"/><path class="cls-6" d="M85.14,70.26c-.84,0,.18.07.06.11.22,0,.7,0,.48,0,.44.08,1.33-.08,1.81,0,0,0-.26,0,.07-.05a2.93,2.93,0,0,1,.66,0,6.8,6.8,0,0,1,.82-.07c.32,0-.35-.06.1-.12.3-.07.73-.06,1.09-.1s-.44.06-.62.09l1.24-.11c.36,0-.16.07-.53.08a4.92,4.92,0,0,0,1.27-.13l.77,0a4.85,4.85,0,0,1-.72.17c-.75,0,.27-.08-.37,0l0,0a7.19,7.19,0,0,0-.78.06c-.16,0,0,0,.14,0-.52,0-1,0-1.34.12.71,0,1.78-.13,2.1-.1l1.4-.17s-.49,0-.09-.08a5.2,5.2,0,0,0,1.13,0c-.21,0,.87-.12.59-.14a1.13,1.13,0,0,1-.42,0c.53,0,.07-.06.35-.09,1-.07,0,0,.92,0-.2,0-.7.15-1.22.21,0,0,.52,0,.74,0-.31,0,.21-.08,0-.07l2.56-.33c-.13.1-1.55.21-1.25.29s.45-.1.81-.13,1.07-.1,1.69-.16h-.28a8.94,8.94,0,0,1,1-.1l-.07,0,.27,0h.05c.29-.06,1.06-.13,1.63-.26a7.74,7.74,0,0,0-.84.13c-.08,0-.61.06-.36,0,.71-.1,1.2-.23,2-.41l-.26,0c.25-.09.59-.15,1-.25.68-.16-.49.19-.07.1-.26.11-.74.18-.8.24l.45,0c.35-.12.76-.18,1-.27l-.28.06c0-.06.31-.1.43-.14h-.2a8,8,0,0,1-.94.27c.69-.21.52-.21,1.35-.47,0,0-.16.06-.24.1.29-.07.57-.22,1-.39-.25.12-.67.31-.32.21l.22-.14a1.16,1.16,0,0,1,.22-.06c.3-.13-.08,0,.38-.22.07,0,.23-.1.17-.06a3.08,3.08,0,0,0,.69-.47c-.4.27-.46.22,0-.07.58-.39.94-.69,1.36-.91l.24-.2c-.14.15.37-.24.55-.36s-.85.59-.8.66c.38-.25.23-.12.12,0,.4-.29.12-.16.27-.31,0,0,.69-.47.48-.27.35-.23.38-.32.63-.49,0,0,0,.1,0,.1s.36-.24.42-.28.09-.12-.2.1c0-.09.7-.49.67-.51a10.61,10.61,0,0,0,1-.64c-.09-.07-.56.44-.71.44.19-.16.54-.41.92-.67a3.29,3.29,0,0,0,1.08-1c.39-.75.05,0,.16-.11a3.13,3.13,0,0,1-1.09,1.09,3.26,3.26,0,0,0,.92-.8,1.46,1.46,0,0,0,.3-1.18,2.09,2.09,0,0,0-.36-.84,2.55,2.55,0,0,0-.69-.62,1,1,0,0,0,.26.26l-.6-.42c-.14-.07.29.23,0,.06-.1-.08-.33-.23-.27-.22l0,0c-.68-.39-.43-.38-1-.67,0,0,.18.1.31.2s-.28-.1-.56-.24c.06,0-.23-.15-.42-.26s.48.26.59.3l-.52-.31.11.07-.59-.29c.4.21.16.15,0,0-.4-.23-.8-.45-.73-.46a7.3,7.3,0,0,1-.93-.42c.38.21,0,.06-.09,0l-.58-.33c.64.29-.11-.1,0,0a5.16,5.16,0,0,1,.9.42,12.1,12.1,0,0,0-1.48-.7s.07,0,.32.1c-.1-.06-.54-.2-.93-.38.1.05.31.18-.09,0l-.5-.24c-.61-.22-.23,0-.74-.17l.32.15c-.07,0-.68-.22-.71-.18.31.1.5.12.82.25.11.08-.42-.12-.62-.15l-1-.38c0-.08.87.16.79,0l-2.09-.55c-.61-.12-.57-.05-.49,0l-.54-.12.29,0-2-.33c-.45-.06-.28,0-.17.07l-.49-.07.07,0a4.54,4.54,0,0,1-.87-.1s.2,0,.19,0a7.3,7.3,0,0,0-1-.13,1.19,1.19,0,0,1,.55,0s0,0,0,0l.58,0c-.67-.07-1.06-.17-1-.22-.67-.06.54.12-.26,0-1-.23-2-.19-2.57-.37-.49,0-1.08,0-1.84,0,0,0-.51,0-.44.05.73.09,1.37,0,2,.11.32,0,.22,0,.36,0a2.49,2.49,0,0,1,.6.08c-.67,0-.19.08-1,0,.11,0,.8.08,1.1.12-.09,0,0,0,.2.08h-1c.09,0-.07,0,0,0H92.2c-.28,0-.35-.08-.2-.09a12.73,12.73,0,0,1-1.33-.09c-.63,0,.2,0,.26.07h-.06l.67,0c.07.07-.76-.06-.87,0S89.73,55,89.26,55l.55-.08h-.48a4.74,4.74,0,0,1,.69-.12c-.65,0-1.58-.07-2-.06-.16,0-.23-.06-.16-.09a13.65,13.65,0,0,1-1.59,0c-.6,0,.6,0,.17.1a5.12,5.12,0,0,0-.68,0c.19,0,.82,0,1.26,0a.65.65,0,0,0-.38.07h.55a9,9,0,0,1-.93.05c.16-.06.07-.06.23-.11-.47,0-1.18,0-1.58,0-.24,0,.2,0,.32-.06-.11,0-.47,0-.56,0a4.16,4.16,0,0,1,.45,0l-1.38,0a2.45,2.45,0,0,1,.56,0,4.8,4.8,0,0,0-1.21.13c-.48,0-1,0-.86,0-.22,0-.07,0-.07,0-.64,0-.7.11-1.08.14l.29,0c-.62,0-.14.08-.69.08.09,0,0-.09-.05-.12A4.58,4.58,0,0,1,80,55c.15,0-.5.08-.12.09-.54.07-.79,0-1.19.12.25,0-.47.08-.25.09-.52.05-.89,0-.75,0s.48,0,.45-.05l-.95.09a2.19,2.19,0,0,1-.59,0c-.31.08-.91,0-1.14.13a2.74,2.74,0,0,1,.71,0l-.15,0h.08l-.41.12c.4,0,.06-.06.63-.11s-1.1.22-.58.22.33-.08.68-.14h-.09l.77-.11s-.19.07-.19.07c.94-.08,1.09,0,2.1-.13-.07,0-.28-.06.17-.11a4.84,4.84,0,0,1,.64,0,2,2,0,0,1-.52.06l0,.06a8.1,8.1,0,0,1-1.38.25,7.75,7.75,0,0,1-1.35.17h.27c-.57.12-.11,0-.85.08-.31-.05-.88-.08-.47-.18-.53,0-.7.09-1.18.14-.29,0,.14-.08.08-.14-.34,0-.77.12-.51.12l-.66,0a1.75,1.75,0,0,1,.31,0,6.8,6.8,0,0,0-.88.14,1.2,1.2,0,0,1,.28,0c-.26,0-.75.13-.78.15.39-.08.44,0,.85-.1a.71.71,0,0,1-.32.08c.34,0,.69-.05.84,0A2,2,0,0,0,73,56c.26,0,.78-.08,1-.12s1-.11.68,0a3.57,3.57,0,0,1,.63-.07s-.52.1-.73.15c-1,.14,0-.05-.23-.05l-.77.09c.08,0-.3.08.2,0a5.54,5.54,0,0,1-1.11.17c-.09,0,.2,0,.29,0-.09,0-.56.16.07.1-.18,0,.3-.07,0-.06.25,0,.94-.08.67,0l1.13-.17c.08,0-.21,0-.34.07l.89-.11H75a14.54,14.54,0,0,0,1.58-.23,4.34,4.34,0,0,1-.84.17c.33,0,.21-.06.76-.1.07,0,.09,0,0,0L77,55.8c.13,0,.06,0,0,0a5.66,5.66,0,0,1,1-.18c-.6,0-.5.08-1,.12-.29,0,.57-.12.72-.16a6.79,6.79,0,0,0,1.16,0,3.26,3.26,0,0,1-.63.1c-.34.06.18,0,.26,0s-.11-.05.34-.08h0l.74-.12c.69,0,1.55-.18,2-.15l-.11,0,1.36-.1a5,5,0,0,1-.67.08c.78,0,1.47-.11,2-.18-.38,0-.44,0-.8,0A11,11,0,0,1,84.58,55c0,.06-.2.06,0,.1s.72-.06,1-.1c.16,0-.12.1-.79.14-.51,0-1.07.08-1.49.06l.26,0c-.51,0-.82.06-1.25.11h0l-.21.07.23,0a5.71,5.71,0,0,1-.79.14,4.81,4.81,0,0,0,1.11-.22c.65,0,.91,0,1.35,0,0,0,.4,0,.11.07a3.45,3.45,0,0,0-.65.05c.38,0,.23,0,.81,0a5.58,5.58,0,0,1,.95-.17,12.57,12.57,0,0,1,1.34,0c-.44,0-.87.07-.76.1s.85,0,.72,0A7.17,7.17,0,0,1,88,55.3c-.48,0-.95,0-1.35,0,.11,0,.22,0,.15,0h-.59a8.55,8.55,0,0,0,.94,0s-.11,0-.06,0h.47l0,.06c.43,0,1.26.05,2.06,0h-.07c.63,0,.68-.08,1.37-.06-.2,0-.11,0-.08.07a5,5,0,0,1,.87.07c-.4-.05.27,0,0-.07a3.7,3.7,0,0,1,1,0c.21.08-1.12,0-.58.07.36,0,.45,0,.2,0a12.73,12.73,0,0,1,1.45.18c.54,0,.75,0,1.1,0a3.27,3.27,0,0,1-.67,0h.4c.52,0,.93.14,1.29.2l-.38,0h0c-.15,0-.63-.07-.58,0,.35,0,.61.07,1.06.09h0c.79.06,1.34.27,1.85.25-.14,0-.42-.11-.32-.11s.65.13.63.15l-.16,0,.86.16c.13,0,0-.06.34,0,.77.18-.34,0,.19.16l.72.12.15.06c1.06.28,1.9.39,3,.75a5.23,5.23,0,0,1-1.08-.25c.33.15.84.24,1.28.43s.75.22.7.17c.51.18.34.17.4.21a6.36,6.36,0,0,1,1.22.49v0l.64.27c-.16-.08,0,0,0,0l.16.08c-.57-.4-1.41-.63-2-1,.2.07-.06-.06.15,0s.19.09.2.11.38.11,0,0a4.67,4.67,0,0,1,1.2.48c.36.22-.41-.14-.62-.19a5.14,5.14,0,0,1,.59.26l-.09,0c.66.3.2,0,.37.07a3.83,3.83,0,0,1,.75.39l-.2-.09c.48.28.62.29,1.06.54l.19.16a10.42,10.42,0,0,0-1-.51c.78.48-.23,0-.5-.09a6.67,6.67,0,0,1,.84.48c.54.22,1,.62,1.55.83.26.17-.24-.1,0,.06.5.32,1.06.65,1.52,1,.21.19.15.17.18.24a.71.71,0,0,1,.23.54,1,1,0,0,1-.24.52,7.89,7.89,0,0,1-1.51,1.16l.2-.17a4.22,4.22,0,0,0-.69.51c-.43.18-1.24.93-1.77,1.18-.64.42-.62.51-1.11.86,0,0,.12-.15-.14,0s-.78.58-1.15.79a9.78,9.78,0,0,1-1.23.55,16,16,0,0,1-2.85.74l.18,0c-1.35.23-2.72.42-3.88.51-.21,0-.86.12-.66.14s.32,0,.3,0a10,10,0,0,1-1.2,0c-.22,0,.43-.08.42-.15l-1,.14c-.56,0-1.11.11-1.61.12.22,0,.07-.06.44-.06h-.08c.84-.06.45-.07,1.19-.15-.65.08-1.53.17-2.11.2.13,0-.47,0-.63.1h0a2.5,2.5,0,0,1-.46.07l-.15,0c-.26,0,.07,0-.18,0a10.25,10.25,0,0,1-1.74.08c-.44,0-.56.07-1,.09a1.24,1.24,0,0,1,.16,0c-1,0-2.13.11-3,.08-.74,0-1.37,0-1.84.07.2,0,.78,0,.42,0a6.8,6.8,0,0,1-.82,0c.08,0-.78,0-.16-.05-.15-.07-1.33,0-1.31-.1-.15,0-1,0-1.35,0-.07,0,.47,0,.47,0h-.39v0c-.76-.06-.91,0-1.36,0h0l-.31,0,.37,0c-.49,0-.75,0-1.29,0l0,0h-.33c.06,0,.08,0,0,0-.31,0-1-.07-1.3-.07a3,3,0,0,0-.68-.11l.06-.06c.72.08.27.08,1,.15-.55-.15-2.1-.35-3.13-.54-.84-.1-2.18-.47-2.55-.46l.09,0-1.36-.4a29.59,29.59,0,0,1-3.15-1.11l-.21-.14c-.92-.28-2.9-1.46-3.5-1.67-.45-.31.16,0,.22,0a9,9,0,0,1-1.23-.75s.48.29.27.14a6.43,6.43,0,0,1-.6-.41c.1.11-.52-.2-.76-.55l.07.1c0,.07-.19-.2-.24-.37l0,.06c-.24-.51.16-1.11.67-1.48s1.09-.79,1.65-1.18c1.12-.79,2.26-1.58,3.36-2.32l-.39.3c.3-.23.87-.61,1.05-.71l-.05,0a6.82,6.82,0,0,1,1.19-.56l-.1,0a19.69,19.69,0,0,1,2.08-.61,9.73,9.73,0,0,1,1-.13,3.29,3.29,0,0,0,.56-.14l-.18,0c-.2,0,.38-.09.65-.14a1.49,1.49,0,0,0-.88-.08c-.55.12-.55,0-1.18.15-.33.16-.9.16-1.44.42.28-.16-.66.2-.2,0a10.26,10.26,0,0,0-1.57.7c.06,0,0,0,.13-.11-.55.36-.41.21-.8.47l0,0c-.14.12-.2.12-.33.22.11-.07.34-.2.24-.1s-.31.25-.51.38a1.18,1.18,0,0,1,.21-.18,3.43,3.43,0,0,1-.47.28,5.54,5.54,0,0,0,.45-.37c-.56.37-.06,0-.35.17.11,0-.46.36-.75.57,0,0,.2-.15.27-.21a13,13,0,0,0-1.59,1.09s.1-.08.14-.12c-.33.26-.61.37-.81.56s-.1,0-.61.34c.19,0-.6.4-.57.47l-.42.23c-.33.32.15,0-.5.6s0-.15-.38.24l-.07.22a1.72,1.72,0,0,0-.16.45v-.07a1.91,1.91,0,0,0,0,.53c0,.17.09.3.08.3a1.28,1.28,0,0,1-.15-.4,2,2,0,0,0,.54,1,2.58,2.58,0,0,0,.81.58c.17.14.55.38.49.38.19.07.82.53,1.09.64,0,0,.19.16.38.26-.24-.16-.07-.09.11,0s.87.49.94.59c.37.16.26.05.36.06s1,.52.79.51-.63-.34-.57-.26a3.16,3.16,0,0,0,.49.22s.19.14.13.13c.19.08.44.21.71.34-.41-.22.29.08,0-.06l-.43-.14c-.48-.23-.08-.08-.26-.18.86.39.72.25,1.54.57l.51.23c-.28-.1-.24,0-.09,0a12.42,12.42,0,0,1,1.21.46c-.33-.12-.14-.1,0-.08.82.22.31.12.65.26a28.54,28.54,0,0,0,3.09.78l-.47-.16-.18,0c-.37-.12.1-.1.32-.09,0,0,.68.15.42.13l.62.09c-.09,0-.48-.1-.19-.07s.82.18.42.14a2.12,2.12,0,0,0,.68.07c.52.08-.07.06-.31,0,.42.07.36.1.23.1l.58.08a2.26,2.26,0,0,1-.26,0c.38.09.66.07,1,.16l.15,0c1,.18.94.17,1.93.28L77.31,70c.75,0,.54.11,1.54.17.57,0,.94,0,.87,0a1.72,1.72,0,0,1,.54.07,7,7,0,0,1,1.21,0h-.75a12.32,12.32,0,0,0,1.3.09c.29,0,1.24-.06,1.77-.1-.24,0-.14-.1.33-.14a9.25,9.25,0,0,0,1,0c-.16,0,.74.07,0,.09a3,3,0,0,0-.56,0,10.21,10.21,0,0,0,1.06.09,2.25,2.25,0,0,1-.51,0C85.24,70.28,85.16,70.27,85.14,70.26Z"/><path class="cls-6" d="M76.47,55.72h0S76.49,55.72,76.47,55.72Z"/><path class="cls-6" d="M99.33,69.26l.1,0Z"/><path class="cls-6" d="M108.47,65.36h0S108.45,65.36,108.47,65.36Z"/><path class="cls-6" d="M75.8,55.41l.18,0Z"/><ellipse class="cls-7" cx="54.07" cy="52.05" rx="1.43" ry="0.74"/><ellipse class="cls-7" cx="147.19" cy="53.68" rx="1.43" ry="0.74"/><ellipse class="cls-7" cx="46.82" cy="57.34" rx="1.03" ry="0.6"/><ellipse class="cls-7" cx="146.51" cy="64.53" rx="1.03" ry="0.6"/><ellipse class="cls-7" cx="151.64" cy="61.67" rx="1.03" ry="0.6"/><ellipse class="cls-8" cx="87.19" cy="75.74" rx="1.03" ry="0.6"/><ellipse class="cls-7" cx="51.95" cy="65.59" rx="1.03" ry="0.6"/><ellipse class="cls-7" cx="70.73" cy="45.18" rx="1.03" ry="0.6"/><ellipse class="cls-9" cx="41.16" cy="59.93" rx="0.77" ry="0.45"/><ellipse class="cls-8" cx="100.19" cy="76.49" rx="0.77" ry="0.45"/><ellipse class="cls-8" cx="70.39" cy="52.26" rx="0.77" ry="0.45"/><ellipse class="cls-7" cx="89.33" cy="39.88" rx="0.77" ry="0.45"/><ellipse class="cls-7" cx="83.37" cy="43.26" rx="0.77" ry="0.45"/><ellipse class="cls-8" cx="112.31" cy="70.54" rx="0.77" ry="0.45"/><ellipse class="cls-8" cx="100.49" cy="51.85" rx="0.77" ry="0.45"/><ellipse class="cls-8" cx="116.99" cy="44.12" rx="0.77" ry="0.45"/><ellipse class="cls-8" cx="64.59" cy="46.39" rx="0.77" ry="0.45"/><ellipse class="cls-8" cx="119.91" cy="71.97" rx="0.77" ry="0.45"/><ellipse class="cls-8" cx="136.33" cy="68.59" rx="0.77" ry="0.45"/><ellipse class="cls-8" cx="159.04" cy="60.1" rx="0.77" ry="0.45"/><ellipse class="cls-8" cx="141.1" cy="50.93" rx="0.77" ry="0.45"/><path class="cls-10" d="M82.22,17.46c-2.57,2.76-13.1,15.82-.44,33.23a.15.15,0,0,0,.27-.13c-1.36-3.83-5.62-18.16.41-32.93A.15.15,0,0,0,82.22,17.46Z"/><path class="cls-10" d="M84,.05c2.57,2.75,13.1,15.82.44,33.22a.15.15,0,0,1-.26-.13C85.55,29.31,89.81,15,83.79.21A.14.14,0,0,1,84,.05Z"/><ellipse class="cls-10" cx="116.64" cy="50.09" rx="2.27" ry="11.43" transform="translate(60.74 164.06) rotate(-87.11)"/><polyline class="cls-11" points="100.19 27.47 107.25 21.06 109.4 24.06 102.55 30.47"/><path class="cls-11" d="M107.25,21.06s12.51-5.16,24.25-4c9.52.92,9.44,1.25,9.44,1.25l2.16,3.85A63.33,63.33,0,0,0,129.88,21C122,21,113.73,22,109.4,24.06S107.25,21.06,107.25,21.06Z"/><path class="cls-10" d="M140.13,18.78s-5.86-.81-9-1a38.22,38.22,0,0,1,5.07,3.41s.55,0,.77.07c.45,0,.91-.26,1-.1Z"/><polygon class="cls-12" points="140.94 18.28 139.96 18.68 133.19 24.44 133.91 24.96 133.56 25.28 136.31 28.78 143.1 22.13 140.94 18.28"/><path class="cls-12" d="M97.72,26.24l4.65,5.56A10.9,10.9,0,0,0,107,34.74a107.66,107.66,0,0,0,11.28,3,34.05,34.05,0,0,0,8.34.5,18.15,18.15,0,0,0,6.55-1.62,21.23,21.23,0,0,0,5.23-4.24c.62-.9.43-2.09-.55-3.26l-4.65-5.55a11,11,0,0,0-4.64-2.95,108.76,108.76,0,0,0-11.29-3,34.53,34.53,0,0,0-8.33-.51,18.15,18.15,0,0,0-6.56,1.62A20.76,20.76,0,0,0,97.17,23C96.54,23.89,96.74,25.07,97.72,26.24Zm6.51,4.24c5.21,1.5,11.8,3.35,14,3.78a20.2,20.2,0,0,0,5.29.32h0a11.44,11.44,0,0,0,4.15-1,21.63,21.63,0,0,0,3.88-3.12c.41-.54.1-1.29-.87-1.93a6.36,6.36,0,0,0-1.73-.74l-2.63-.72h0l-7.28-2c-2.69-.74-5.38-.54-6.59.49l-1.82,1.57-3.6-1a.14.14,0,0,1-.09-.05s0,0,0-.06a20.3,20.3,0,0,1,3.42-2.77,12,12,0,0,1,6.89-.53c1.54.3,6.46,1.64,13.44,3.64a7.33,7.33,0,0,1,3.54,2l.81,1c.62.74.75,1.47.36,2a19.7,19.7,0,0,1-4.73,3.85,15.2,15.2,0,0,1-5.47,1.36,28.24,28.24,0,0,1-7-.43A104.14,104.14,0,0,1,108,33.42a6.74,6.74,0,0,1-2.86-1.83Zm11.07-3.73a3.84,3.84,0,0,1,3.21-.24l3.21.88-1.44,1.24a3.88,3.88,0,0,1-3.21.24L113.86,28ZM100.51,26a1.62,1.62,0,0,1-.36-2,19.9,19.9,0,0,1,4.73-3.85,15.26,15.26,0,0,1,5.48-1.35,28.62,28.62,0,0,1,7,.42A100.52,100.52,0,0,1,127.55,22a6.65,6.65,0,0,1,2.86,1.83l.93,1.1c-5.2-1.49-11.8-3.34-14-3.77a20.22,20.22,0,0,0-5.3-.32,11.54,11.54,0,0,0-4.14,1A21.69,21.69,0,0,0,104,24.94c-.42.53-.1,1.28.86,1.93a6.49,6.49,0,0,0,1.73.74l2.64.72,7.27,2a11.72,11.72,0,0,0,3.85.41,4.81,4.81,0,0,0,2.74-.91l1.83-1.57,3.59,1,.1,0s0,.05,0,.07a21.71,21.71,0,0,1-3.42,2.76,8.32,8.32,0,0,1-3,.76h0a15,15,0,0,1-3.83-.23c-1.54-.29-6.46-1.63-13.45-3.64a7.38,7.38,0,0,1-3.54-2Z"/><path class="cls-4" d="M96.74,27.07l4.65,5.56A10.83,10.83,0,0,0,106,35.57a108.09,108.09,0,0,0,11.27,3,34.08,34.08,0,0,0,8.34.5,18.21,18.21,0,0,0,6.56-1.62,21,21,0,0,0,5.22-4.24c.63-.9.43-2.09-.54-3.26l-4.65-5.55a11,11,0,0,0-4.64-2.95,108.76,108.76,0,0,0-11.29-3A34.53,34.53,0,0,0,108,18a17.89,17.89,0,0,0-6.56,1.63,20.36,20.36,0,0,0-5.22,4.24C95.55,24.72,95.76,25.9,96.74,27.07Zm6.5,4.24c5.22,1.5,11.81,3.35,14,3.78a20.27,20.27,0,0,0,5.3.32h0a11.44,11.44,0,0,0,4.15-1,22,22,0,0,0,3.88-3.12c.41-.54.1-1.29-.88-1.93A6.29,6.29,0,0,0,128,28.6l-2.63-.72h0l-7.27-2c-2.69-.74-5.38-.54-6.59.49l-1.82,1.57-3.6-1a.17.17,0,0,1-.1-.05s0,0,0-.06a20.85,20.85,0,0,1,3.43-2.77,11.85,11.85,0,0,1,6.88-.52c1.54.29,6.47,1.63,13.45,3.63a7.43,7.43,0,0,1,3.54,2l.81,1a1.65,1.65,0,0,1,.36,2A19.46,19.46,0,0,1,129.71,36a15.2,15.2,0,0,1-5.47,1.36,28.22,28.22,0,0,1-7-.43A103.39,103.39,0,0,1,107,34.25a6.84,6.84,0,0,1-2.87-1.83Zm11.07-3.73a3.87,3.87,0,0,1,3.22-.24l3.21.88-1.44,1.24a3.9,3.9,0,0,1-3.22.24l-3.21-.89Zm-14.78-.72a1.62,1.62,0,0,1-.36-2A19.7,19.7,0,0,1,103.9,21a15.2,15.2,0,0,1,5.48-1.35,28.62,28.62,0,0,1,7,.42,100.52,100.52,0,0,1,10.23,2.73,6.71,6.71,0,0,1,2.86,1.83l.93,1.1c-5.21-1.49-11.8-3.34-14-3.77a20.22,20.22,0,0,0-5.3-.32,11.49,11.49,0,0,0-4.14,1A21.33,21.33,0,0,0,103,25.77c-.42.53-.11,1.28.86,1.93a6.49,6.49,0,0,0,1.73.74l2.63.72,7.28,2a11.72,11.72,0,0,0,3.85.41,4.75,4.75,0,0,0,2.73-.91l1.83-1.57,3.6,1a.28.28,0,0,1,.09.05s0,.05,0,.07A22.19,22.19,0,0,1,124.22,33a8.38,8.38,0,0,1-3.06.76h0a14.93,14.93,0,0,1-3.83-.23c-1.54-.29-6.47-1.63-13.45-3.64a7.38,7.38,0,0,1-3.54-2Z"/></g></g></svg>