<svg xmlns="http://www.w3.org/2000/svg" viewBox="0 0 200 88.5"><defs><style>.cls-1{fill:#666;}.cls-2{fill:#424242;}.cls-3{fill:#f9bca5;}.cls-4{fill:#ef877b;}.cls-5,.cls-7{fill:#ffa87b;}.cls-6{fill:none;}.cls-7{opacity:0.38;}.cls-8{fill:#ffbb9b;}.cls-9{fill:#ffdecd;}</style></defs><title>ocupop-focus-strategy</title><g id="Layer_2" data-name="Layer 2"><g id="Layer_1-2" data-name="Layer 1"><path class="cls-1" d="M200,88.5H0V35.63S28.62,8.19,65.52,7.37c42.45-1,72.12,25.87,92.13,28.3C188.79,39.44,200,30.32,200,30.32Z"/><path class="cls-2" d="M160.69,49.82a5.18,5.18,0,0,1,0,9.66l-30.78,12c-17.62,6.89-42.06,6.89-59.84,0l-30.78-12a5.18,5.18,0,0,1,0-9.66l30.77-11.9c17.62-6.89,42.22-6.8,59.84,0Z"/><path class="cls-3" d="M160.69,45.32a5.18,5.18,0,0,1,0,9.66L129.92,67c-17.62,6.89-42.06,6.89-59.84,0L39.3,55a5.18,5.18,0,0,1,0-9.66l30.77-11.9c17.62-6.89,42.22-6.8,59.84,0Z"/><path class="cls-4" d="M129.89,14.43C141.5,15.55,147.46,19,154.16,20a.87.87,0,0,0,.79-.3,11.63,11.63,0,0,0,2.41-9.7,12.4,12.4,0,0,0-9.48-9.7,11.52,11.52,0,0,0-12.29,5,9.78,9.78,0,0,0-5.75-2.19,9.07,9.07,0,0,0-9.14,6.82,5.07,5.07,0,0,0-2.46-.49,4.16,4.16,0,0,0-2.51,1.12c-1.92,1.77-2.11,3.2-1.86,4.49a.34.34,0,0,0,.42.26A46.79,46.79,0,0,1,129.89,14.43Z"/><path class="cls-4" d="M59.2,43.41a7.49,7.49,0,0,0-.42-2.55,8.49,8.49,0,0,0,.22-2A6.69,6.69,0,0,0,57.89,35c0-.21,0-.42,0-.64,0-2.65-.67-4.8-1.48-4.8S55,31.67,55,34.32c0,.22,0,.43,0,.64a6.69,6.69,0,0,0-1.11,3.95,8,8,0,0,0,.23,2,7.48,7.48,0,0,0-.43,2.55c0,2.36,1,4.32,2.29,4.73v5.74h1V48.14C58.22,47.73,59.2,45.77,59.2,43.41Z"/><path class="cls-4" d="M65.24,36.43A5.18,5.18,0,0,0,65,34.7a5.58,5.58,0,0,0,.15-1.33,4.53,4.53,0,0,0-.76-2.69c0-.14,0-.29,0-.43,0-1.81-.45-3.28-1-3.28s-1,1.47-1,3.28c0,.14,0,.29,0,.43a4.53,4.53,0,0,0-.76,2.69,5.57,5.57,0,0,0,.16,1.33,4.94,4.94,0,0,0-.29,1.73c0,1.61.67,3,1.55,3.22v3.92h.67V39.65C64.57,39.38,65.24,38,65.24,36.43Z"/><path class="cls-5" d="M128,15.17c11.61,1.12,17.57,4.59,24.27,5.55a.87.87,0,0,0,.79-.3,11.59,11.59,0,0,0,2.41-9.69A12.39,12.39,0,0,0,146,1a11.52,11.52,0,0,0-12.29,5A9.7,9.7,0,0,0,128,3.82a9.05,9.05,0,0,0-9.14,6.82,5,5,0,0,0-2.46-.5,4.14,4.14,0,0,0-2.51,1.13C112,13,111.77,14.46,112,15.75a.34.34,0,0,0,.42.27A46.41,46.41,0,0,1,128,15.17Z"/><path class="cls-4" d="M98.77,25.45a4.5,4.5,0,0,0-.25-1.53,5.37,5.37,0,0,0,.13-1.17A4,4,0,0,0,98,20.38V20c0-1.59-.39-2.88-.88-2.88s-.89,1.29-.89,2.88c0,.13,0,.26,0,.38a4,4,0,0,0-.67,2.37,4.81,4.81,0,0,0,.14,1.17,4.5,4.5,0,0,0-.26,1.53c0,1.41.59,2.59,1.37,2.83v3.44h.59V28.28C98.18,28,98.77,26.86,98.77,25.45Z"/><path class="cls-6" d="M160.69,45.32,154.8,43l-25.28,9.54L79.28,36.36l33.27-7.23c-14.39-1.93-30.14-.53-42.47,4.29L39.31,45.32a5.18,5.18,0,0,0,0,9.66L70.08,67c17.78,6.89,42.22,6.89,59.84,0L160.7,55A5.18,5.18,0,0,0,160.69,45.32Z"/><path class="cls-7" d="M129.52,52.58,154.8,43l-24.88-9.62a77.09,77.09,0,0,0-17.37-4.29L79.28,36.36Z"/><path class="cls-4" d="M104.8,29.58a4.3,4.3,0,0,0-.24-1.44,4.82,4.82,0,0,0,.12-1.1,3.78,3.78,0,0,0-.62-2.24v-.36c0-1.51-.37-2.73-.83-2.73s-.84,1.22-.84,2.73c0,.12,0,.24,0,.36a3.77,3.77,0,0,0-.63,2.24,4.82,4.82,0,0,0,.12,1.1,4.3,4.3,0,0,0-.24,1.44c0,1.34.56,2.45,1.3,2.68v3.25h.56V32.26C104.24,32,104.8,30.92,104.8,29.58Z"/><path class="cls-4" d="M83.49,35.74c-.27,0-4.22.62-4.22.62v5.36L119.9,47l4.57,1.54,7-5-5.84-4.24-9.81-2.95-14.17-1Z"/><polygon class="cls-8" points="98.84 37.92 98.26 37.6 98.26 41.01 99.75 41.01 99.81 38.76 98.84 37.92"/><path class="cls-5" d="M90.58,38.93l1.94.18-.08,2.34-8.61.1s-3.73,1-4,1.11-1.36,6.45-1.36,6.45L72.8,45.33l-2.67-4s4.23-1.51,5.59-1.86S90.58,38.93,90.58,38.93Z"/><polygon class="cls-5" points="101.16 38.28 99.33 38.99 99.33 41.15 108.46 42.51 109.62 44.67 120.75 44.42 113.15 39.84 103.68 38.33 101.16 38.28"/><path class="cls-4" d="M93.43,41.85s2.15,2.82,2.32,2.86,13.87,0,13.87,0v-1.9s-3.49-.75-4-.92-7.76-.77-7.86-.77S93.43,41.85,93.43,41.85Z"/><path class="cls-5" d="M82.28,42.26l7.53-.47,5.71,2.48,8.93.74,17.87-1.34v4.09l-22,.68s-12.62-.88-13.23-.94S82.28,42.26,82.28,42.26Z"/><path class="cls-4" d="M78.32,48.18l-.06.08v.51l9.8,4.72,11.79,1.38c4.89,0,12.89-.23,19.54-.42l5.66-.21a5.1,5.1,0,0,0,1.73-.37l4.38-1.78c1.77-.72,2.65-1.58,2.47-2.4V44l-4.16,1.69-.48-.31a17.19,17.19,0,0,0-2.64,1.31,2,2,0,0,1-.75.18l.34.26-.16.06-5.42.65c-.18-.16-.37-.31-.56-.45l-5,.31c.23.18.47.36.71.56l-6.3.11a4.08,4.08,0,0,0-.87-.51l-14.83.19S85.39,47,84.89,46.69A38,38,0,0,1,82,43.84l-1.51-.68-2.24-.37v5.38ZM99.76,48a14.48,14.48,0,0,1,3.28.29l-4.94-.25Z"/><path class="cls-5" d="M66.94,48.47a1,1,0,0,0,.14.62A20.88,20.88,0,0,0,73,53.88a35.8,35.8,0,0,0,9.11,2.77,87,87,0,0,0,12.77,1.28c4.74.15,15.37-.11,18.38-.3A29.08,29.08,0,0,0,121.49,56V50s-20.63,2-21.69,1.91-6.7-.31-6.85-.36l-6.07-1.24-1.79-.16-.34-.28c-3.16-.66-6-1.27-6.06-1.34S72,45.3,72,45.3l.09-.36-5.19-2.43"/><path class="cls-9" d="M109.45,50.41l.15,0c-4.09.14-10.8.26-14,.16A73.65,73.65,0,0,1,85,49.47a29.85,29.85,0,0,1-7.61-2.31,19.84,19.84,0,0,1-5.32-4.35c-.33-.56.21-1.18,1.48-1.69l1.67-.68a19.19,19.19,0,0,1,6.27-1c4.17-.12,7.89-.21,11-.28l-1.18-1.38L81.2,38l-5.79.19a3.71,3.71,0,0,0-1.32.28l-4.66,1.9c-2,.82-2.88,1.82-2.35,2.73A20.71,20.71,0,0,0,73,47.88a35.4,35.4,0,0,0,9.11,2.77,87,87,0,0,0,12.77,1.28c4.74.16,15.37-.11,18.38-.3A28.73,28.73,0,0,0,121.49,50Z"/><path class="cls-9" d="M93.12,36c4-.11,9.17-.18,11.82-.09A72.5,72.5,0,0,1,115.61,37a30,30,0,0,1,7.6,2.32,19.75,19.75,0,0,1,5.33,4.34c.33.56-.22,1.18-1.48,1.7l-1.67.68a19.61,19.61,0,0,1-6.28,1c-11.44.32-19.48.47-21.93.42a38.26,38.26,0,0,1-5.87-.6h0a16.72,16.72,0,0,1-4.24-1.29,21.16,21.16,0,0,1-3.85-3.13s0,0,.05,0a.56.56,0,0,1,.17,0l5.86-.13,2,1.75A8.34,8.34,0,0,0,95,45.38a29.68,29.68,0,0,0,6,.43l11.89-.25,4.3-.09a17.43,17.43,0,0,0,2.94-.29c1.76-.37,2.57-1,2.2-1.51a21.51,21.51,0,0,0-4.38-3.53,22.46,22.46,0,0,0-5.76-1.75,53.3,53.3,0,0,0-8.13-.81c-1.21,0-3.27,0-5.79,0L99.33,39c1.89,0,3.28,0,4.07,0,3.88.09,8,.8,10.13,1.88A21.59,21.59,0,0,1,117.38,44s0,0,0,0a.59.59,0,0,1-.17,0l-4.35.1h0l-6.74.14-5.24.11c-2.15.05-4.07-.31-4.73-.87l-1.58-1.38,5.24-.11c2.13,0,4.07.32,4.72.87l0,0,5.12-.19-.38-.33c-1.33-1.15-5.28-1.88-9.67-1.79l-11.89.25h0l-4.29.1a16.47,16.47,0,0,0-3,.29c-1.76.36-2.57,1-2.21,1.5a21.9,21.9,0,0,0,4.39,3.54,22.53,22.53,0,0,0,5.75,1.74h0a52,52,0,0,0,8.13.82c3.52.08,14.31-.18,22.85-.42l5.66-.21a5.1,5.1,0,0,0,1.73-.37l4.38-1.78c2-.83,2.87-1.82,2.34-2.74a20.66,20.66,0,0,0-5.87-4.79,36.16,36.16,0,0,0-9.12-2.77,88.28,88.28,0,0,0-12.77-1.28c-4.73-.15-15.36.11-18.37.3a29.25,29.25,0,0,0-8.1,1.53Z"/><path class="cls-4" d="M113.54,59.55a5.72,5.72,0,0,0-.32-1.92,6.83,6.83,0,0,0,.16-1.47,5.05,5.05,0,0,0-.83-3c0-.16,0-.32,0-.49,0-2-.5-3.62-1.12-3.62s-1.11,1.62-1.11,3.62c0,.17,0,.33,0,.49a5,5,0,0,0-.84,3,6.24,6.24,0,0,0,.17,1.47,5.72,5.72,0,0,0-.32,1.92c0,1.78.74,3.26,1.72,3.57v4.33h.74V63.12C112.79,62.81,113.54,61.33,113.54,59.55Z"/><path class="cls-4" d="M149.89,44.58a5.68,5.68,0,0,0-.31-1.87,6.45,6.45,0,0,0,.16-1.43,4.92,4.92,0,0,0-.81-2.9c0-.15,0-.31,0-.47,0-1.94-.49-3.52-1.09-3.52s-1.08,1.58-1.08,3.52c0,.16,0,.32,0,.47a4.92,4.92,0,0,0-.81,2.9,6.45,6.45,0,0,0,.16,1.43,5.43,5.43,0,0,0-.31,1.87c0,1.73.72,3.16,1.67,3.46v4.21h.72V48C149.17,47.74,149.89,46.31,149.89,44.58Z"/><path class="cls-4" d="M144,37.19a6.72,6.72,0,0,0-.37-2.23,7.63,7.63,0,0,0,.19-1.7,5.81,5.81,0,0,0-1-3.46c0-.18,0-.36,0-.55,0-2.32-.58-4.2-1.3-4.2s-1.29,1.88-1.29,4.2c0,.19,0,.37,0,.55a5.88,5.88,0,0,0-1,3.46,7.07,7.07,0,0,0,.2,1.7,6.48,6.48,0,0,0-.37,2.23c0,2.06.86,3.77,2,4.12v5H142v-5C143.18,41,144,39.25,144,37.19Z"/></g></g></svg>