<svg xmlns="http://www.w3.org/2000/svg" xmlns:xlink="http://www.w3.org/1999/xlink" viewBox="0 0 200 79.56"><defs><style>.cls-1{fill:#666;}.cls-2{fill:#424242;}.cls-3{fill:#f9bca5;}.cls-4,.cls-6,.cls-7{fill:#ffa87b;}.cls-4{opacity:0.44;}.cls-5{fill:#ffdecd;}.cls-7{stroke:#ffdecd;}.cls-7,.cls-8{stroke-miterlimit:10;stroke-width:0.21px;}.cls-11,.cls-8,.cls-9{fill:none;}.cls-8{stroke:#ffa87b;}.cls-11,.cls-8{stroke-linecap:round;}.cls-10{fill:#ef877b;}.cls-11{stroke-linejoin:round;stroke-width:1.03px;stroke-dasharray:1.03 4.12;stroke:url(#linear-gradient);}</style><linearGradient id="linear-gradient" x1="89.78" y1="47.94" x2="120.97" y2="36.59" gradientUnits="userSpaceOnUse"><stop offset="0" stop-color="#ef877b" stop-opacity="0"/><stop offset="0.18" stop-color="#ef877b" stop-opacity="0.25"/><stop offset="0.4" stop-color="#ef877b" stop-opacity="0.51"/><stop offset="0.6" stop-color="#ef877b" stop-opacity="0.72"/><stop offset="0.77" stop-color="#ef877b" stop-opacity="0.87"/><stop offset="0.91" stop-color="#ef877b" stop-opacity="0.97"/><stop offset="1" stop-color="#ef877b"/></linearGradient></defs><title>ocupop-focus-animation</title><g id="Layer_2" data-name="Layer 2"><g id="Layer_1-2" data-name="Layer 1"><path class="cls-1" d="M0,79.56H200V27.83S176,0,139.1,0C102.53,0,64.28,19.42,44.23,17.3,12.49,13.93,0,7.86,0,7.86Z"/><path class="cls-2" d="M160.69,40.89a5.18,5.18,0,0,1,0,9.65l-30.78,12c-17.62,6.89-42.06,6.89-59.84,0l-30.78-12a5.18,5.18,0,0,1,0-9.65L70.08,29c17.62-6.89,42.22-6.8,59.84,0Z"/><path class="cls-3" d="M160.69,36.39a5.18,5.18,0,0,1,0,9.65L129.92,58C112.3,64.9,87.86,64.9,70.08,58L39.3,46a5.18,5.18,0,0,1,0-9.65L70.08,24.48c17.62-6.89,42.22-6.8,59.84,0Z"/><ellipse class="cls-4" cx="68.51" cy="34.47" rx="12.94" ry="2.69" transform="translate(-0.74 1.5) rotate(-1.25)"/><ellipse class="cls-5" cx="66.27" cy="13.87" rx="11.83" ry="2.5"/><ellipse class="cls-5" cx="66.27" cy="33.88" rx="10.14" ry="2.14"/><polygon class="cls-5" points="54.44 13.87 56.12 33.87 76.4 33.89 78.1 13.88 54.44 13.87"/><ellipse class="cls-6" cx="66.27" cy="33.32" rx="9.83" ry="2.08"/><polygon class="cls-6" points="56.03 20.92 55.56 20.99 56.44 33.32 76.1 33.32 76.98 20.99 56.03 20.92"/><ellipse class="cls-7" cx="66.27" cy="20.99" rx="10.71" ry="2.26"/><ellipse class="cls-5" cx="59.94" cy="27.29" rx="0.84" ry="0.85"/><ellipse class="cls-5" cx="73.46" cy="24.22" rx="0.49" ry="0.5"/><ellipse class="cls-5" cx="60.86" cy="30.3" rx="0.46" ry="0.47"/><path class="cls-8" d="M73,15.61a42.08,42.08,0,0,1-7.1.54c-6,0-10.89-1-10.89-2.24,0-.6,1.27-1.22,3.14-1.46"/><path class="cls-9" d="M160.69,36.39,129.92,24.48c-17.62-6.8-42.22-6.89-59.84,0L39.31,36.39a5.18,5.18,0,0,0,0,9.65L70.08,58c14.26,5.53,32.79,6.61,48.66,3.27-2.51.09-5,.15-5,.15l3-34.85,44,11a.94.94,0,0,1,.25,1.72c-6.1,3.59-24.7,14.54-33,19.36.63-.22,1.27-.43,1.88-.67L160.7,46A5.18,5.18,0,0,0,160.69,36.39Z"/><path class="cls-4" d="M160.75,37.6l-44-11-3,34.85s2.46-.06,5-.15a71.62,71.62,0,0,0,9.3-2.6c8.26-4.82,26.86-15.77,33-19.36A.94.94,0,0,0,160.75,37.6Z"/><path class="cls-10" d="M155.74,38.09v-2.6l-3.2,1.2-45-11.76a.92.92,0,0,0-.69.08L64.89,48.63l-2.35-.88v2.8h0a.89.89,0,0,0,.68.83L109.58,63.5a4,4,0,0,0,3-.38L155.29,39A.88.88,0,0,0,155.74,38.09Z"/><path class="cls-6" d="M155.07,34.52,108.41,22.33a3.21,3.21,0,0,0-2.37.3L63,46.86a.92.92,0,0,0,.22,1.69l46.35,12.12a4,4,0,0,0,3-.38l42.75-24.08A.92.92,0,0,0,155.07,34.52Z"/><path class="cls-5" d="M112.51,56.82a2,2,0,0,1-.48-.06L69.55,45.66a.48.48,0,0,1-.12-.88L106.88,23.7a1.09,1.09,0,0,1,.56-.15,1.35,1.35,0,0,1,.28,0l42.79,11.18a.49.49,0,0,1,.12.89L113.46,56.58A2,2,0,0,1,112.51,56.82Z"/><ellipse class="cls-5" cx="88.16" cy="52.72" rx="0.77" ry="1.41" transform="translate(23.91 132.86) rotate(-82.16)"/><path class="cls-10" d="M113.48,30.39a7.15,7.15,0,0,0-2.91.92l-2.8,1.94c-.59.41-.67.87-.21,1.26a18,18,0,0,0,3.59,2,20.8,20.8,0,0,0,4.36,1,37.66,37.66,0,0,0,5.42.26c1.93,0,6.1-.41,7.25-.57a7.17,7.17,0,0,0,2.91-.91l2.79-2c.59-.41.67-.87.22-1.26a17.83,17.83,0,0,0-3.6-2,20.27,20.27,0,0,0-4.35-1,35.12,35.12,0,0,0-5.43-.26c-1.93,0-6.09.41-7.24.56M132.2,33.3c.27.24.22.53-.15.79l-.56.38A45.39,45.39,0,0,0,127.07,32a12.51,12.51,0,0,0-2.77-.64,23.71,23.71,0,0,0-3.43-.16c-1.24,0-4.88.35-5.35.41-.77.1-1.33.33-1.41.6s.08.26.28.37l.81.47,2.26,1.29a5.38,5.38,0,0,0,1.83.51,12,12,0,0,0,2.49,0l2.62-.22,1.11.63s0,0,0,0h0c-.45.06-3.81.35-4.74.37a17,17,0,0,1-2.52-.12h0a9.26,9.26,0,0,1-2-.46A43.94,43.94,0,0,1,112,32.79c-.46-.28-.48-.61,0-.91l.48-.34a4.64,4.64,0,0,1,1.8-.57c1-.13,4.92-.47,6.57-.51a29.9,29.9,0,0,1,4.53.22,17.17,17.17,0,0,1,3.64.84,17.48,17.48,0,0,1,3.26,1.78m-10.85,1a4.27,4.27,0,0,1-2.11-.27l-1-.57,2.06-.17a4.31,4.31,0,0,1,2.12.27l1,.57Zm-11.89,0c-.28-.24-.22-.52.15-.78l.55-.39a43.3,43.3,0,0,0,4.43,2.46,12.41,12.41,0,0,0,2.76.64h0a23.45,23.45,0,0,0,3.42.17c1.24,0,4.88-.36,5.36-.42.77-.1,1.33-.32,1.4-.6s-.08-.26-.28-.37l-.81-.47h0l-2.25-1.28a8.56,8.56,0,0,0-4.33-.56l-2.62.22-1.11-.64s0,0,0,0,0,0,0,0c.45-.06,3.8-.35,4.73-.37a13.37,13.37,0,0,1,4.54.58,43.51,43.51,0,0,1,4.23,2.37c.45.27.47.61.05.9l-.49.34a4.42,4.42,0,0,1-1.79.57c-1,.14-4.92.48-6.57.51a31.17,31.17,0,0,1-4.53-.21,17.17,17.17,0,0,1-3.64-.84,17.43,17.43,0,0,1-3.26-1.79"/><polyline class="cls-11" points="121.94 40.76 122.94 47.76 92.94 48.76 86.44 37.26"/></g></g></svg>