<svg xmlns="http://www.w3.org/2000/svg" viewBox="0 0 200 92.67"><defs><style>.cls-1{fill:#666;}.cls-2{fill:#424242;}.cls-3,.cls-7{fill:#7edfe9;}.cls-4,.cls-6{fill:#2ab0c6;}.cls-5{fill:#37bedb;}.cls-6{opacity:0.35;}.cls-7{font-size:4.56px;font-family:BerlingskeSerif-XBd, Berlingske Serif;font-weight:700;}.cls-8{letter-spacing:-0.02em;}</style></defs><title>ocupop-focus-events</title><g id="Layer_2" data-name="Layer 2"><g id="Layer_1-2" data-name="Layer 1"><path class="cls-1" d="M.27,92.67,200,91.92l-.16-49.79S178.56,14.8,138.23,27.47c-32.59,10.23-66-14.67-85-14.67C15.56,12.8,0,38.82,0,38.82Z"/><path class="cls-2" d="M160.69,54a5.18,5.18,0,0,1,0,9.66l-30.78,12c-17.62,6.89-42.06,6.89-59.84,0l-30.78-12a5.18,5.18,0,0,1,0-9.66L70.08,42.1c17.62-6.9,42.22-6.81,59.84,0Z"/><path class="cls-3" d="M160.69,49.5a5.18,5.18,0,0,1,0,9.66l-30.78,12C112.3,78,87.86,78,70.08,71.12l-30.78-12a5.18,5.18,0,0,1,0-9.66L70.08,37.6c17.62-6.9,42.22-6.81,59.84,0Z"/><ellipse class="cls-4" cx="92.69" cy="62.9" rx="3.97" ry="14.42" transform="translate(29.53 155.41) rotate(-89.83)"/><polygon class="cls-4" points="91.77 56.13 78.09 58.03 78.28 62.9 107.11 62.9 106.93 58.03 91.77 56.13"/><ellipse class="cls-5" cx="92.51" cy="58.03" rx="3.97" ry="14.42" transform="translate(34.21 150.37) rotate(-89.83)"/><rect class="cls-3" x="67.52" y="27.22" width="1.83" height="5.88" rx="0.28" ry="0.28" transform="translate(25.69 91.52) rotate(-78.93)"/><path class="cls-3" d="M72.2,22l-4.87-2.07a.34.34,0,0,1-.18-.41l.37-1.34a.26.26,0,0,1,.34-.19l4.88,2.07a.35.35,0,0,1,.17.41l-.37,1.34A.25.25,0,0,1,72.2,22Z"/><path class="cls-3" d="M76.07,13.37l-4-3.46a.35.35,0,0,1,0-.44l.77-1.16a.25.25,0,0,1,.38-.08l4,3.47a.36.36,0,0,1,0,.44l-.76,1.16A.26.26,0,0,1,76.07,13.37Z"/><rect class="cls-3" x="133.34" y="33.3" width="5.88" height="1.83" rx="0.28" ry="0.28" transform="translate(-2.47 12.04) rotate(-5.01)"/><path class="cls-3" d="M133.4,25.7l5.06-1.55a.34.34,0,0,0,.22-.39l-.23-1.36a.25.25,0,0,0-.32-.23l-5.06,1.54a.35.35,0,0,0-.22.39l.23,1.37A.26.26,0,0,0,133.4,25.7Z"/><path class="cls-3" d="M130.46,16.72l4.34-3a.35.35,0,0,0,.09-.44L134.26,12a.26.26,0,0,0-.38-.11l-4.34,3a.35.35,0,0,0-.09.44l.63,1.23A.26.26,0,0,0,130.46,16.72Z"/><path class="cls-6" d="M129.92,37.6A65.7,65.7,0,0,0,123,35.36L119.07,47.8l4.52,2.89,19.43-8Z"/><path class="cls-2" d="M123.53,52.29l1.62-1.08a.18.18,0,0,0-.08-.33L84,44.85a.45.45,0,0,0-.32.06l-2,1.22a.19.19,0,0,0,.07.35l41.36,5.91A.64.64,0,0,0,123.53,52.29Z"/><path class="cls-4" d="M103.84,10.55a6.85,6.85,0,0,0,8.09-6.94V3.42l9,1.28a4.75,4.75,0,0,0,2.49,3.89V51l-38-5.41.2-42.24A3.31,3.31,0,0,0,87.88,0l7.88,1.12a1.11,1.11,0,0,0,0,.19A9.65,9.65,0,0,0,103.84,10.55Z"/><polygon class="cls-4" points="87.88 0 86.66 0.79 88.08 2.95 87.88 0"/><polygon class="cls-4" points="111.93 3.42 110.71 4.21 112.17 5.07 111.93 3.42"/><polyline class="cls-4" points="123.42 50.96 122.2 51.75 121.48 50.39 122.66 49.74"/><path class="cls-5" d="M102.62,11.34a6.86,6.86,0,0,0,8.09-6.94V4.21l9,1.28a4.72,4.72,0,0,0,2.49,3.88V51.75l-38-5.41V4A3.3,3.3,0,0,0,86.66.79l7.88,1.12a1.1,1.1,0,0,0,0,.18A9.66,9.66,0,0,0,102.62,11.34Z"/><path class="cls-3" d="M95.05,41.57A30.21,30.21,0,0,1,92,36.94a8.78,8.78,0,0,1-.83-3.61A7.23,7.23,0,0,1,92,30a20.06,20.06,0,0,1,3.06-3.77,2.28,2.28,0,0,1,1.79-.44l.9.12a3.05,3.05,0,0,1,2,1.26c2.22,3.12,3.72,5.34,4.08,6.07a4.57,4.57,0,0,1,.45,2h0a4.05,4.05,0,0,1-.46,1.88,22.63,22.63,0,0,1-2.2,2.71,0,0,0,0,1-.06,0,.06.06,0,0,1,0,0l-1.1-1.62,1.25-1.48a2.68,2.68,0,0,0,.62-1.75,3.46,3.46,0,0,0-.62-1.94l-2.23-3.27-.81-1.19a2.28,2.28,0,0,0-.76-.69,1.55,1.55,0,0,0-1.75.14,22.19,22.19,0,0,0-2.48,3.08A5.55,5.55,0,0,0,93,33.6a6.23,6.23,0,0,0,.63,2.74c.52,1.06,2.58,4,4.23,6.33l-1-.14a3,3,0,0,1-1.79-1M94,24.93a21.42,21.42,0,0,0-3.37,4.15,8.73,8.73,0,0,0-1,4,10.57,10.57,0,0,0,1,4.32A32.19,32.19,0,0,0,94,42.53a4.82,4.82,0,0,0,2.89,1.56l5.17.74a3.71,3.71,0,0,0,2.89-.74,21.06,21.06,0,0,0,3.37-4.15,8.61,8.61,0,0,0,1-4,10.41,10.41,0,0,0-1-4.32,31.52,31.52,0,0,0-3.37-5.1A4.82,4.82,0,0,0,102,24.93l-5.17-.74a3.69,3.69,0,0,0-2.89.74m5.48,11.78-1-1.44a1.5,1.5,0,0,1,0-1.8l1-1.17,1,1.45a1.47,1.47,0,0,1,0,1.8Zm4.38-9.26a31.22,31.22,0,0,1,3.06,4.63,8.77,8.77,0,0,1,.82,3.61,7.22,7.22,0,0,1-.82,3.36,20.87,20.87,0,0,1-3.06,3.77,2.29,2.29,0,0,1-1.8.44l-.9-.13a3,3,0,0,1-2-1.25c-2.22-3.12-3.71-5.34-4.07-6.07a4.42,4.42,0,0,1,0-3.87,21.69,21.69,0,0,1,2.2-2.71s0,0,.05,0,0,0,0,0l1.11,1.62-1.26,1.48a3.07,3.07,0,0,0,0,3.69l2.24,3.27h0l.8,1.18a2.15,2.15,0,0,0,.77.7,1.54,1.54,0,0,0,1.74-.15A21.89,21.89,0,0,0,105.22,38a5.43,5.43,0,0,0,.62-2.55h0a6.3,6.3,0,0,0-.63-2.75c-.52-1.05-2.57-4-4.23-6.33l1,.15a3,3,0,0,1,1.8,1"/><polygon class="cls-3" points="85.71 44.75 85.71 46.51 85.14 46.43 85.14 44.67 85.71 44.75"/><polygon class="cls-3" points="85.71 37.2 85.71 43.03 85.14 42.95 85.14 37.12 85.71 37.2"/><polygon class="cls-3" points="85.71 29.64 85.71 35.48 85.14 35.4 85.14 29.56 85.71 29.64"/><polygon class="cls-3" points="85.71 22.08 85.71 27.92 85.14 27.84 85.14 22 85.71 22.08"/><polygon class="cls-3" points="85.71 14.53 85.71 20.36 85.14 20.28 85.14 14.45 85.71 14.53"/><polygon class="cls-3" points="85.71 6.97 85.71 12.81 85.14 12.73 85.14 6.89 85.71 6.97"/><polygon class="cls-3" points="121.22 49.8 121.22 51.56 120.66 51.48 120.66 49.72 121.22 49.8"/><polygon class="cls-3" points="121.22 42.25 121.22 48.08 120.66 48 120.66 42.17 121.22 42.25"/><polygon class="cls-3" points="121.22 34.69 121.22 40.53 120.66 40.45 120.66 34.61 121.22 34.69"/><polygon class="cls-3" points="121.22 27.14 121.22 32.97 120.66 32.89 120.66 27.05 121.22 27.14"/><polygon class="cls-3" points="121.22 19.58 121.22 25.41 120.66 25.34 120.66 19.5 121.22 19.58"/><polygon class="cls-3" points="121.22 12.02 121.22 17.86 120.66 17.78 120.66 11.94 121.22 12.02"/><text class="cls-7" transform="matrix(0, -0.99, 0.99, 0.14, 114.78, 45.25)"><tspan class="cls-8">A</tspan><tspan x="3.43" y="0">dmit 1</tspan></text><ellipse class="cls-5" cx="134.83" cy="53.55" rx="0.77" ry="2.81" transform="translate(78.34 187.17) rotate(-88.74)"/><ellipse class="cls-4" cx="134.83" cy="53.39" rx="0.77" ry="2.81" transform="translate(78.49 187.02) rotate(-88.74)"/><path class="cls-5" d="M135.41,52.65,134,54.11l.42,0,1.46-1.46Z"/><ellipse class="cls-5" cx="71.53" cy="44.04" rx="0.77" ry="2.81" transform="translate(25.93 114.59) rotate(-88.74)"/><ellipse class="cls-4" cx="71.53" cy="43.93" rx="0.77" ry="2.81" transform="translate(26.04 114.48) rotate(-88.74)"/><path class="cls-5" d="M74.21,44.21l-4.75-.84a1.78,1.78,0,0,0-.55.23l4.82.85A1.33,1.33,0,0,0,74.21,44.21Z"/></g></g></svg>