<svg xmlns="http://www.w3.org/2000/svg" viewBox="0 0 200 89.76"><defs><style>.cls-1{fill:#666;}.cls-2{fill:#424242;}.cls-3{fill:#7edfe9;}.cls-4{fill:#2ab0c6;}.cls-5,.cls-6,.cls-7{fill:#37bedb;}.cls-6{opacity:0.34;}.cls-7{opacity:0.5;}.cls-8{fill:none;}</style></defs><title>ocupop-focus-illustration</title><g id="Layer_2" data-name="Layer 2"><g id="Layer_1-2" data-name="Layer 1"><path class="cls-1" d="M0,89.76H200V38.89S171.38,9.45,134.48,8.63C92,7.69,62.36,34.51,42.35,36.93,11.21,40.71,0,31.59,0,31.59Z"/><path class="cls-2" d="M160.69,51.09a5.18,5.18,0,0,1,0,9.66l-30.78,12c-17.62,6.9-42.06,6.9-59.84,0l-30.78-12a5.18,5.18,0,0,1,0-9.66l30.77-11.9c17.62-6.89,42.22-6.81,59.84,0Z"/><path class="cls-3" d="M160.69,46.59a5.18,5.18,0,0,1,0,9.66l-30.78,12c-17.62,6.9-42.06,6.9-59.84,0l-30.78-12a5.18,5.18,0,0,1,0-9.66l30.77-11.9c17.62-6.89,42.22-6.81,59.84,0Z"/><path class="cls-4" d="M93,3A4,4,0,0,0,91.83,6l-.1,5.69a5.93,5.93,0,0,0,1.08,3.45,36.55,36.55,0,0,0,4.5,4.75,10.41,10.41,0,0,0,4.1,2,7.81,7.81,0,0,0,4.13-.15,19.41,19.41,0,0,0,4.63-2.68,4,4,0,0,0,1.18-2.93l.1-5.7A5.92,5.92,0,0,0,110.37,7a35.92,35.92,0,0,0-4.5-4.75,10.64,10.64,0,0,0-4.1-2,7.94,7.94,0,0,0-4.14.16A19.53,19.53,0,0,0,93,3m16.23,4.9a3.65,3.65,0,0,1,.66,2.13l0,1.14c-2-2.29-4.61-5.16-5.57-6A6.36,6.36,0,0,0,101.71,4a5,5,0,0,0-2.61.09,20.65,20.65,0,0,0-3.43,2,1.77,1.77,0,0,0-.42,1.84,2.52,2.52,0,0,0,.57,1l1,1.13,2.87,3.12a3.55,3.55,0,0,0,1.81,1.1,2.48,2.48,0,0,0,1.83-.27l1.65-1,1.42,1.54a.09.09,0,0,1,0,.07s0,0,0,.05a20.86,20.86,0,0,1-3,1.75,3.71,3.71,0,0,1-1.93.07h0a4.53,4.53,0,0,1-1.89-.93C99,14.92,97,12.82,94.28,9.74a3.66,3.66,0,0,1-.93-2.43l0-1a2.49,2.49,0,0,1,.72-1.82,18.44,18.44,0,0,1,4.2-2.44,6.6,6.6,0,0,1,3.45-.13,8.83,8.83,0,0,1,3.42,1.69,34.08,34.08,0,0,1,4.08,4.32m-6.78,4.39a1.43,1.43,0,0,1-1.78-.4l-1.27-1.38,1.31-.8a1.45,1.45,0,0,1,1.78.41l1.26,1.38Zm-8.53,1.82A3.66,3.66,0,0,1,93.27,12l0-1.13c2,2.29,4.62,5.16,5.57,5.95a6.4,6.4,0,0,0,2.61,1.29h0a4.9,4.9,0,0,0,2.61-.1,19.7,19.7,0,0,0,3.43-2,1.73,1.73,0,0,0,.41-1.83,2.42,2.42,0,0,0-.56-1l-1-1.13h0L103.45,9a2.93,2.93,0,0,0-3.64-.82l-1.66,1L96.73,7.63a.09.09,0,0,1,0-.06s0,0,0-.05a19.83,19.83,0,0,1,3-1.75,4.21,4.21,0,0,1,3.82.85c.66.55,2.62,2.65,5.33,5.72a3.62,3.62,0,0,1,.92,2.44v1a2.46,2.46,0,0,1-.73,1.82A18.51,18.51,0,0,1,104.89,20a6.61,6.61,0,0,1-3.45.13A8.79,8.79,0,0,1,98,18.46a33.52,33.52,0,0,1-4.09-4.31"/><path class="cls-5" d="M92.41,3.37A4,4,0,0,0,91.22,6.3L91.13,12a5.83,5.83,0,0,0,1.08,3.44,36.57,36.57,0,0,0,4.5,4.76,10.69,10.69,0,0,0,4.1,2,7.91,7.91,0,0,0,4.13-.15,19.76,19.76,0,0,0,4.63-2.68,4,4,0,0,0,1.18-2.93l.1-5.7a5.9,5.9,0,0,0-1.08-3.44,36.57,36.57,0,0,0-4.5-4.76,10.75,10.75,0,0,0-4.1-2A7.94,7.94,0,0,0,97,.69a19.88,19.88,0,0,0-4.62,2.68m16.23,4.9a3.71,3.71,0,0,1,.66,2.14l0,1.13c-2-2.29-4.61-5.15-5.57-5.94a6.24,6.24,0,0,0-2.6-1.29,5,5,0,0,0-2.62.09,20.22,20.22,0,0,0-3.42,2,1.75,1.75,0,0,0-.42,1.83,2.47,2.47,0,0,0,.56,1l1,1.13,2.88,3.13a3.53,3.53,0,0,0,1.81,1.09,2.43,2.43,0,0,0,1.83-.26l1.65-1,1.42,1.54a.09.09,0,0,1,0,.06.07.07,0,0,1,0,.06,20.86,20.86,0,0,1-3,1.75,3.82,3.82,0,0,1-1.93.07h0A4.53,4.53,0,0,1,99,15.8c-.66-.55-2.62-2.65-5.34-5.72a3.7,3.7,0,0,1-.92-2.43l0-1a2.52,2.52,0,0,1,.72-1.82,18.81,18.81,0,0,1,4.2-2.43,6.5,6.5,0,0,1,3.45-.13A8.83,8.83,0,0,1,104.56,4a34,34,0,0,1,4.08,4.31m-6.78,4.4a1.44,1.44,0,0,1-1.78-.41l-1.27-1.37,1.31-.8a1.44,1.44,0,0,1,1.78.4l1.26,1.38Zm-8.53,1.82a3.71,3.71,0,0,1-.66-2.14l0-1.13c2,2.29,4.62,5.15,5.57,5.94a6.22,6.22,0,0,0,2.61,1.29h0a5,5,0,0,0,2.61-.09,20.78,20.78,0,0,0,3.43-2,1.73,1.73,0,0,0,.41-1.83,2.46,2.46,0,0,0-.56-1l-1-1.12h0l-2.87-3.13a2.93,2.93,0,0,0-3.64-.83l-1.66,1L96.13,8s0,0,0-.06a.07.07,0,0,1,0-.06,19.83,19.83,0,0,1,3-1.75A4.22,4.22,0,0,1,103,7c.66.55,2.62,2.65,5.33,5.72a3.6,3.6,0,0,1,.92,2.43v1a2.47,2.47,0,0,1-.73,1.82,18.5,18.5,0,0,1-4.19,2.43,6.51,6.51,0,0,1-3.45.13,8.76,8.76,0,0,1-3.42-1.69,34.18,34.18,0,0,1-4.09-4.31"/><path class="cls-4" d="M70.25,40.06l-.61-1.36h.51l-.56-1.34h.26l-1.18-3.53a0,0,0,0,0-.06,0l-1.18,3.53h.26l-.56,1.34h.51L67,40.06s0,0,0,0l1.38.19v.63a0,0,0,0,0,0,0h.32a0,0,0,0,0,0,0v-.64l1.38-.18S70.26,40.08,70.25,40.06Z"/><path class="cls-4" d="M81,33.2l-.43-1H81l-.39-.94h.18l-.82-2.48s0,0,0,0l-.83,2.48h.18l-.39.94h.36l-.43,1s0,0,0,0l1,.13v.44a0,0,0,0,0,0,0H80a0,0,0,0,0,0,0v-.44l1-.13S81.05,33.21,81,33.2Z"/><path class="cls-4" d="M73.75,35.33l-.56-1.25h.47l-.52-1.24h.24l-1.09-3.26s0,0-.05,0l-1.09,3.26h.24l-.51,1.24h.47l-.56,1.25s0,0,0,0l1.27.18v.57a0,0,0,0,0,0,0h.29a0,0,0,0,0,0,0v-.58l1.28-.17A0,0,0,0,0,73.75,35.33Z"/><path class="cls-6" d="M54.58,43.4h0a6.53,6.53,0,0,0,3.56,7.11L93.81,67.83Z"/><path class="cls-5" d="M44.45,38.5C44.51,38.24,46,35,52.35,35c5.51,0,9.06,3.93,8.2,7s-6.34,6.72-9.57.86C47.23,36.1,45.13,38.42,44.45,38.5Z"/><path class="cls-4" d="M55.67,46a5.14,5.14,0,0,1,5-5.62s31.31,23.93,33.46,25.3,1.42,3.67-1.4,1.88S55.67,46,55.67,46Z"/><path class="cls-7" d="M43.57,50.27A1.85,1.85,0,0,1,44,48.9a2.56,2.56,0,0,0-1.2.64s-.48-.85-.34-1.23a1.64,1.64,0,0,0-.88,1.29,6.08,6.08,0,0,0-.89-.55,4,4,0,0,1,.11,1.22l1.52.49Z"/><path class="cls-7" d="M52.22,60.33a1.56,1.56,0,0,0-.33-1.17,2.18,2.18,0,0,1,1,.55s.41-.73.29-1.06A1.42,1.42,0,0,1,54,59.76a4.77,4.77,0,0,1,.77-.47,3.69,3.69,0,0,0-.1,1l-1.3.43Z"/><path class="cls-7" d="M73.7,63.19a1.36,1.36,0,0,1,.28-1,1.87,1.87,0,0,0-.9.48s-.36-.64-.26-.92a1.24,1.24,0,0,0-.65,1,5,5,0,0,0-.67-.42,3.06,3.06,0,0,1,.08.92l1.14.37Z"/><path class="cls-7" d="M92.6,56.24a1,1,0,0,0-.21-.75,1.34,1.34,0,0,1,.66.36s.26-.48.19-.69a.91.91,0,0,1,.48.72,3.12,3.12,0,0,1,.5-.31,2.24,2.24,0,0,0-.07.67l-.84.28Z"/><path class="cls-7" d="M146.08,56.36a1,1,0,0,0-.21-.76,1.44,1.44,0,0,1,.66.36s.27-.47.19-.68a.93.93,0,0,1,.49.71,2.84,2.84,0,0,1,.49-.3,2,2,0,0,0-.06.67l-.84.27Z"/><path class="cls-7" d="M103.05,69.5a1,1,0,0,1,.21-.76,1.44,1.44,0,0,0-.66.36s-.26-.47-.19-.68a.88.88,0,0,0-.48.71,2.84,2.84,0,0,0-.49-.3,2.35,2.35,0,0,1,.06.67l.84.27Z"/><path class="cls-7" d="M64.48,38.47a1.22,1.22,0,0,1,.22-.86A1.5,1.5,0,0,0,64,38s-.28-.54-.2-.78a1.06,1.06,0,0,0-.52.82,3.21,3.21,0,0,0-.53-.35,2.49,2.49,0,0,1,.07.76l.9.31Z"/><path class="cls-7" d="M105.55,60.13a1,1,0,0,0-.21-.76,1.44,1.44,0,0,1,.66.36s.26-.47.19-.68a.91.91,0,0,1,.48.71,2.84,2.84,0,0,1,.49-.3,2.35,2.35,0,0,0-.06.67l-.84.27Z"/><path class="cls-7" d="M78.22,50.08a1,1,0,0,1,.21-.76,1.39,1.39,0,0,0-.67.36s-.26-.47-.18-.68a.91.91,0,0,0-.49.71,3.34,3.34,0,0,0-.49-.31,2.44,2.44,0,0,1,.06.68l.84.27Z"/><path class="cls-4" d="M117.6,62.72l-1-2.18h.82l-.89-2.14H117l-1.89-5.65a0,0,0,0,0-.09,0L113.1,58.4h.42l-.89,2.14h.81l-1,2.18s0,.06,0,.06l2.21.31v1a.06.06,0,0,0,.06.06h.51a.07.07,0,0,0,.07-.06v-1l2.21-.3A0,0,0,0,0,117.6,62.72Z"/><path class="cls-4" d="M126.78,65.21l-1-2.34h.88l-1-2.31h.45l-2-6.09a.05.05,0,0,0-.1,0l-2,6.09h.45l-1,2.31h.88l-1,2.34a0,0,0,0,0,0,.07l2.38.33v1.08a.07.07,0,0,0,.07.07h.55a.07.07,0,0,0,.07-.07V65.6l2.38-.32A0,0,0,0,0,126.78,65.21Z"/><path class="cls-4" d="M112.77,52.34l-.72-1.6h.6L112,49.16h.31L110.91,45a0,0,0,0,0-.07,0l-1.39,4.16h.31l-.66,1.58h.6l-.72,1.6a0,0,0,0,0,0,0l1.63.23v.73a0,0,0,0,0,0,0h.38a0,0,0,0,0,0,0v-.74l1.63-.22A0,0,0,0,0,112.77,52.34Z"/><path class="cls-4" d="M120.92,51.77l-.7-1.57h.59l-.64-1.54h.29l-1.35-4.07s-.06,0-.07,0l-1.36,4.07h.3l-.64,1.54h.58l-.7,1.57s0,0,0,0l1.59.22v.72a0,0,0,0,0,0,0h.37a0,0,0,0,0,0,0V52l1.59-.21S120.93,51.79,120.92,51.77Z"/><path class="cls-4" d="M129.62,54.23l-.85-1.88h.71l-.77-1.85h.36l-1.64-4.9s-.06,0-.08,0l-1.63,4.9h.36l-.77,1.85h.7l-.84,1.88s0,.06,0,.06l1.91.27v.86a.06.06,0,0,0,.06.06h.45a.06.06,0,0,0,0-.06v-.87l1.91-.26A0,0,0,0,0,129.62,54.23Z"/><path class="cls-4" d="M136,61.73l-1-2.17h.82L135,57.42h.41l-1.89-5.65a0,0,0,0,0-.09,0l-1.89,5.65H132l-.89,2.14h.81l-1,2.18s0,.06,0,.06l2.21.31v1a.06.06,0,0,0,.06.06h.51a.07.07,0,0,0,.07-.06v-1l2.21-.3A0,0,0,0,0,136,61.73Z"/><path class="cls-4" d="M142,54.85l-.73-1.62h.61l-.67-1.6h.31L140.1,47.4s0,0-.07,0l-1.41,4.23h.31l-.66,1.6h.61l-.73,1.62a0,0,0,0,0,0,.06l1.65.22v.75a0,0,0,0,0,0,0h.38a0,0,0,0,0,.05,0v-.76L142,54.9S142,54.88,142,54.85Z"/><path class="cls-4" d="M89.31,46.35l-.71-1.59h.59l-.65-1.56h.3l-1.37-4.14a0,0,0,0,0-.07,0L86,43.2h.3l-.65,1.56h.6l-.71,1.59a0,0,0,0,0,0,0l1.62.22v.73a0,0,0,0,0,0,0h.37a0,0,0,0,0,0,0v-.74l1.61-.21S89.32,46.37,89.31,46.35Z"/><path class="cls-4" d="M84.66,40.86l-.8-1.8h.67l-.74-1.78h.35L82.57,32.6a0,0,0,0,0-.07,0l-1.57,4.68h.35l-.74,1.78h.67l-.8,1.8a0,0,0,0,0,0,0l1.83.26V42a.06.06,0,0,0,0,.06h.43a.06.06,0,0,0,0-.06v-.83l1.83-.25A0,0,0,0,0,84.66,40.86Z"/><path class="cls-4" d="M78,38.12l-.56-1.25h.47l-.51-1.23h.23l-1.08-3.26a0,0,0,0,0-.06,0l-1.08,3.26h.23l-.51,1.23h.47L75,38.12s0,0,0,0l1.27.18v.57a0,0,0,0,0,0,0h.3a0,0,0,0,0,0,0v-.58l1.27-.17S78,38.14,78,38.12Z"/><path class="cls-8" d="M144.6,52.05,130,42.63l4.75-6,.09,0-4.94-1.91c-17.62-6.81-42.22-6.89-59.84,0L39.31,46.59a5.18,5.18,0,0,0,0,9.66l30.78,12c17.78,6.9,42.22,6.9,59.84,0l30.78-12a5.18,5.18,0,0,0,2.73-7.2Z"/><path class="cls-6" d="M130,42.63l14.58,9.42,18.83-3a5.06,5.06,0,0,0-2.74-2.46l-25.83-10-.09,0Z"/><path class="cls-5" d="M78.64,35.52l14.21-8.64a.67.67,0,0,1,.87.14l3.79,4.44a.53.53,0,0,0,.74.08c1.56-1.15,7.12-5.28,8.76-6.81s8.52-3.16,10.81-3.68a1.59,1.59,0,0,1,1.33.29l12.66,9.55,13.6,16.52L145,51.46a.82.82,0,0,1-.87.74L109.6,50a17.34,17.34,0,0,1-6.66-1.8L78.66,36.11A.34.34,0,0,1,78.64,35.52Z"/><path class="cls-3" d="M110,46.23l8.72-16.63,0,0,1.66-2.3a.28.28,0,0,1,.51.16v7.92a.27.27,0,0,0,.06.17l3.1,3.93,0,0,4.28,7a.28.28,0,0,1-.21.43l-14,1.41a1.68,1.68,0,0,1-.91-.16l-3.16-1.51A.27.27,0,0,1,110,46.23Z"/><path class="cls-3" d="M96.29,33.89,90.2,38.31a.22.22,0,0,1-.35-.21l.58-3.77a.3.3,0,0,1,0-.1l2.6-3.41a.24.24,0,0,0,.05-.14V28.75l3.23,4.84A.22.22,0,0,1,96.29,33.89Z"/><path class="cls-3" d="M130.63,34.57l12.16,15.64a.26.26,0,0,1-.23.42L133.15,50a.27.27,0,0,1-.18-.45l2.41-2.69a.24.24,0,0,0,.07-.18,5.73,5.73,0,0,0-1.34-3.58c-1.12-1.12-3.05-6.69-3.66-8.48A.1.1,0,0,1,130.63,34.57Z"/><path class="cls-3" d="M110.35,26.07l-1.53,1.79-2.17,2.53a2.06,2.06,0,0,0-.43.83l-.72,2.72Z"/><path class="cls-7" d="M143.51,42.73a.8.8,0,0,1,.16-.58,1.13,1.13,0,0,0-.5.27s-.2-.36-.14-.52a.7.7,0,0,0-.37.55,2.37,2.37,0,0,0-.38-.23,1.73,1.73,0,0,1,.05.51l.64.2Z"/><path class="cls-4" d="M149.85,45.64l-.61-1.37h.51l-.56-1.34h.26l-1.18-3.55a0,0,0,0,0-.06,0L147,42.93h.26l-.55,1.34h.51l-.61,1.37a0,0,0,0,0,0,0l1.39.19v.63a0,0,0,0,0,0,0h.32a0,0,0,0,0,0,0v-.64l1.39-.18A0,0,0,0,0,149.85,45.64Z"/><path class="cls-4" d="M159.06,48.69l-.73-1.62h.61l-.66-1.6h.31l-1.41-4.23a0,0,0,0,0-.07,0l-1.41,4.23H156l-.67,1.6H156l-.73,1.62a0,0,0,0,0,0,.05l1.65.23v.75a.05.05,0,0,0,0,.05h.38a.05.05,0,0,0,0-.05V49l1.65-.22A0,0,0,0,0,159.06,48.69Z"/><path class="cls-4" d="M153.15,52.56l-.55-1.22h.46l-.5-1.21h.23L151.73,47s0,0,0,0l-1.06,3.17h.23l-.5,1.21h.46l-.55,1.22a.05.05,0,0,0,0,0l1.24.17v.56a0,0,0,0,0,0,0h.29s0,0,0,0v-.57l1.24-.16S153.16,52.57,153.15,52.56Z"/><path class="cls-5" d="M134.35,29c8.49,2.11,10.14,7.1,16.51,8a.19.19,0,0,0,.19-.09,4.47,4.47,0,0,0,.65-2.35,4.88,4.88,0,0,0-4.52-4.87,3,3,0,0,0-.42,0,6.51,6.51,0,0,0-5.95-5.39,5.64,5.64,0,0,0-1.37.09.59.59,0,0,1-.65-.34,7.74,7.74,0,0,0-6.61-4.75,6.91,6.91,0,0,0-7.26,7.07A8,8,0,0,0,125.1,28a.2.2,0,0,0,.21.16A27.52,27.52,0,0,1,134.35,29Z"/><path class="cls-3" d="M133.32,29.47c8.49,2.12,10.14,7.11,16.51,8a.18.18,0,0,0,.19-.08,4.53,4.53,0,0,0,.65-2.35,4.88,4.88,0,0,0-4.52-4.88c-.14,0-.28,0-.41,0a6.54,6.54,0,0,0-6-5.39,6.19,6.19,0,0,0-1.37.09.56.56,0,0,1-.64-.34,7.74,7.74,0,0,0-6.62-4.74,6.91,6.91,0,0,0-7.26,7.06,8.08,8.08,0,0,0,.18,1.64.22.22,0,0,0,.22.16A27.43,27.43,0,0,1,133.32,29.47Z"/></g></g></svg>