<svg xmlns="http://www.w3.org/2000/svg" xmlns:xlink="http://www.w3.org/1999/xlink" viewBox="0 0 1920 1000"><defs><style>.cls-1{isolation:isolate;}.cls-2{fill:#fddf87;}.cls-3{fill:#e09108;}.cls-4{fill:#fbc730;}.cls-5{fill:#ea7a72;}.cls-6{fill:#b7251d;}.cls-7{fill:#34a853;}.cls-8{fill:#73cb8a;}.cls-9{fill:#df382b;}.cls-10{fill:#fdaf00;}.cls-11{fill:#ef9b95;}.cls-12{fill:#6199f6;}.cls-13{fill:#4285f4;}.cls-14{fill:#23893c;}.cls-15{fill:#eda606;}.cls-16{fill:#2c66bf;}.cls-17{fill:#9fc1f9;}.cls-18,.cls-19,.cls-20,.cls-21,.cls-22,.cls-26,.cls-27,.cls-28,.cls-29{mix-blend-mode:multiply;}.cls-18{fill:url(#linear-gradient);}.cls-19{fill:url(#linear-gradient-2);}.cls-20{fill:url(#linear-gradient-3);}.cls-21{fill:url(#linear-gradient-4);}.cls-22{fill:url(#linear-gradient-5);}.cls-23{fill:#e6a609;}.cls-24{fill:#e4594e;}.cls-25{fill:#fcd35c;}.cls-26{fill:url(#linear-gradient-6);}.cls-27{fill:url(#linear-gradient-7);}.cls-28{fill:url(#linear-gradient-8);}.cls-29{fill:url(#linear-gradient-9);}.cls-30{fill:#126b26;}.cls-31{fill:#92dda6;}.cls-32{opacity:0.5;}.cls-33{fill:#f6f6f7;}.cls-34{fill:#fabb05;}.cls-35,.cls-36{fill:#636363;}.cls-36{font-size:14.16px;font-family:ProductSans-Regular, Product Sans;letter-spacing:0.03em;}.cls-37{letter-spacing:0.04em;}.cls-38{letter-spacing:0.03em;}.cls-39{letter-spacing:0.04em;}.cls-40{letter-spacing:0.04em;}.cls-41{fill:#ffa700;}</style><linearGradient id="linear-gradient" x1="264.83" y1="658.88" x2="395.85" y2="789.89" gradientUnits="userSpaceOnUse"><stop offset="0" stop-color="#ccc"/><stop offset="1" stop-color="#fff" stop-opacity="0"/></linearGradient><linearGradient id="linear-gradient-2" x1="393.08" y1="726.25" x2="481.1" y2="814.27" xlink:href="#linear-gradient"/><linearGradient id="linear-gradient-3" x1="182.58" y1="726.25" x2="270.6" y2="814.27" xlink:href="#linear-gradient"/><linearGradient id="linear-gradient-4" x1="482.7" y1="768.2" x2="570.72" y2="856.22" xlink:href="#linear-gradient"/><linearGradient id="linear-gradient-5" x1="91.56" y1="768.2" x2="179.58" y2="856.22" xlink:href="#linear-gradient"/><linearGradient id="linear-gradient-6" x1="879.54" y1="649.43" x2="1043.19" y2="813.08" xlink:href="#linear-gradient"/><linearGradient id="linear-gradient-7" x1="841.96" y1="700.68" x2="1101.16" y2="959.87" xlink:href="#linear-gradient"/><linearGradient id="linear-gradient-8" x1="897.18" y1="592.32" x2="1021.36" y2="716.49" xlink:href="#linear-gradient"/><linearGradient id="linear-gradient-9" x1="1198.43" y1="782.09" x2="1355.05" y2="938.7" xlink:href="#linear-gradient"/></defs><title>GDD-china</title><g class="cls-1"><g id="Layer_1" data-name="Layer 1"><rect class="cls-2" x="270.19" y="765.48" width="104.94" height="73.08"/><rect class="cls-3" x="164.28" y="985.66" width="317.89" height="13.7"/><rect class="cls-3" x="164.28" y="958.51" width="317.89" height="13.7"/><rect class="cls-4" x="164.28" y="971.6" width="317.89" height="13.7"/><rect class="cls-5" x="466.12" y="806.66" width="105.33" height="57.22" transform="translate(1037.56 1670.54) rotate(-180)"/><rect class="cls-6" x="390.77" y="780.21" width="75.35" height="83.67" transform="translate(856.88 1644.09) rotate(-180)"/><rect class="cls-7" x="555.87" y="803.13" width="15.57" height="60.75" transform="translate(1127.32 1667.01) rotate(-180)"/><rect class="cls-6" x="480.42" y="803.13" width="75.35" height="19.33" transform="translate(1036.2 1625.59) rotate(-180)"/><rect class="cls-8" x="563.37" y="746.39" width="8.58" height="16.78" transform="translate(1135.33 1509.57) rotate(-180)"/><rect class="cls-9" x="481.79" y="762.89" width="90.17" height="39.88" transform="translate(1053.75 1565.66) rotate(-180)"/><rect class="cls-10" x="481.79" y="782.59" width="90.17" height="21.02" transform="translate(1053.75 1586.19) rotate(-180)"/><path class="cls-11" d="M571.43,823.58l68.74-47.4c-20.86,10.45-50.84,18.08-68.74-3Z"/><polygon class="cls-7" points="555.87 822.84 555.87 837.06 541.38 822.84 555.87 822.84"/><rect class="cls-12" x="466.22" y="761.5" width="15.57" height="102.38" transform="translate(948 1625.38) rotate(-180)"/><rect class="cls-8" x="390.77" y="761.5" width="75.35" height="19.33" transform="translate(856.88 1542.33) rotate(-180)"/><rect class="cls-13" x="473.72" y="698.81" width="8.58" height="16.78" transform="translate(956.02 1414.4) rotate(-180)"/><rect class="cls-12" x="390.77" y="715.31" width="91.54" height="39.88" transform="translate(873.07 1470.49) rotate(-180)"/><rect class="cls-9" x="390.77" y="740.59" width="91.54" height="20.91" transform="translate(873.07 1502.09) rotate(-180)"/><path class="cls-14" d="M481.77,776l68.74-47.41c-20.86,10.46-50.84,18.08-68.74-3Z"/><polygon class="cls-4" points="466.22 780.43 466.22 794.65 451.73 780.43 466.22 780.43"/><polygon class="cls-4" points="481.77 823.07 481.77 837.29 496.26 823.07 481.77 823.07"/><rect class="cls-5" x="74.97" y="806.66" width="105.33" height="57.22"/><rect class="cls-6" x="180.3" y="780.21" width="75.35" height="83.67"/><rect class="cls-9" x="74.97" y="803.13" width="15.57" height="60.75"/><rect class="cls-6" x="90.64" y="803.13" width="75.35" height="19.33"/><rect class="cls-13" x="74.46" y="762.89" width="90.17" height="39.88"/><rect class="cls-11" x="74.46" y="782.59" width="90.17" height="21.02"/><polygon class="cls-7" points="90.54 822.84 90.54 837.06 105.03 822.84 90.54 822.84"/><rect class="cls-12" x="164.63" y="761.5" width="15.57" height="102.38"/><rect class="cls-15" x="180.3" y="761.5" width="75.35" height="19.33"/><rect class="cls-9" x="255.65" y="754.78" width="15.67" height="83.29"/><rect class="cls-9" x="375.13" y="754.78" width="15.67" height="83.29"/><rect class="cls-13" x="164.11" y="698.81" width="8.58" height="16.78"/><rect class="cls-15" x="291.43" y="685.3" width="8.58" height="16.78"/><rect class="cls-9" x="164.11" y="715.31" width="91.54" height="39.88"/><rect class="cls-14" x="164.11" y="740.59" width="91.54" height="20.91"/><path class="cls-15" d="M164.64,776,95.91,728.59c20.86,10.46,50.83,18.08,68.73-3Z"/><rect class="cls-7" x="255.65" y="641.19" width="8.58" height="16.78"/><rect class="cls-4" x="382.96" y="641.19" width="8.58" height="16.78"/><rect class="cls-15" x="255.65" y="657.69" width="136.18" height="39.88"/><rect class="cls-16" x="255.65" y="697.19" width="136.18" height="21.02"/><path class="cls-13" d="M255.65,724.51,186.91,677.1c20.86,10.45,50.84,18.08,68.74-3Z"/><path class="cls-9" d="M391.16,724.51,459.9,677.1c-20.86,10.45-50.83,18.08-68.74-3Z"/><rect class="cls-7" x="255.65" y="727.34" width="15.67" height="83.29"/><rect class="cls-12" x="375.13" y="727.34" width="15.67" height="83.29"/><rect class="cls-13" x="271.32" y="727.34" width="103.81" height="38.66"/><rect class="cls-9" x="375.13" y="754.78" width="15.67" height="83.29"/><rect class="cls-7" x="255.65" y="718.21" width="15.67" height="92.43"/><rect class="cls-12" x="375.13" y="718.21" width="15.67" height="92.43"/><rect class="cls-13" x="271.32" y="718.21" width="103.81" height="42.9"/><rect class="cls-10" x="283.98" y="726.94" width="78.49" height="25.42"/><rect class="cls-13" x="255.65" y="837.82" width="135.15" height="26.06"/><polygon class="cls-9" points="271.32 766 271.32 780.22 285.81 766 271.32 766"/><polygon class="cls-4" points="180.2 780.43 180.2 794.65 194.69 780.43 180.2 780.43"/><polygon class="cls-11" points="390.77 780.43 390.77 794.65 405.26 780.43 390.77 780.43"/><polygon class="cls-16" points="255.65 781.11 255.65 794.65 241.16 781.11 255.65 781.11"/><polygon class="cls-4" points="164.64 823.07 164.64 837.29 150.15 823.07 164.64 823.07"/><polygon class="cls-9" points="375.41 766 375.41 780.22 360.92 766 375.41 766"/><rect class="cls-16" x="293.98" y="766.74" width="58.48" height="79.83" rx="4.57" transform="matrix(0, -1, 1, 0, -483.21, 1130.45)"/><path class="cls-6" d="M278.53,830.62l0,2.66a4.56,4.56,0,0,0,4.57,4.56l80.21-.05a4.56,4.56,0,0,0,4.56-4.57l0-2.66Z"/><rect class="cls-7" x="301.39" y="769.21" width="43.67" height="70.42" transform="translate(1127.42 480.63) rotate(89.96)"/><rect class="cls-16" x="44.26" y="863.88" width="121.54" height="39.15"/><rect class="cls-16" x="482" y="863.88" width="121.54" height="39.15"/><rect class="cls-10" x="164.28" y="863.88" width="317.89" height="13.7"/><rect class="cls-6" x="164.28" y="877.51" width="317.89" height="13.7"/><rect class="cls-11" x="164.28" y="890.61" width="317.89" height="13.7"/><rect class="cls-10" x="164.28" y="863.88" width="317.89" height="13.7"/><rect class="cls-4" x="164.28" y="877.51" width="317.89" height="13.7"/><rect class="cls-3" x="164.28" y="890.61" width="317.89" height="13.7"/><rect class="cls-10" x="164.28" y="904.8" width="317.89" height="13.7"/><rect class="cls-4" x="164.28" y="918.43" width="317.89" height="13.7"/><rect class="cls-3" x="164.28" y="931.52" width="317.89" height="13.7"/><rect class="cls-10" x="164.28" y="944.87" width="317.89" height="13.7"/><rect class="cls-14" x="270.19" y="861.68" width="12.66" height="138.17"/><rect class="cls-14" x="362.73" y="861.68" width="12.66" height="138.17"/><rect class="cls-17" x="466.22" y="861.68" width="16.21" height="138.24"/><rect class="cls-17" x="164.31" y="861.68" width="16.21" height="138.24"/><rect class="cls-8" x="194.84" y="794.12" width="42.03" height="69.67" rx="3.62" transform="translate(431.71 1657.91) rotate(180)"/><rect class="cls-16" x="200.13" y="800.86" width="31.45" height="48.13"/><rect class="cls-7" x="210.86" y="853.96" width="9.99" height="3.9"/><rect class="cls-4" x="407.48" y="794.12" width="42.03" height="69.67" rx="3.62" transform="translate(856.98 1657.91) rotate(180)"/><rect class="cls-7" x="412.77" y="800.86" width="31.45" height="48.13"/><rect class="cls-16" x="423.5" y="853.96" width="9.99" height="3.9"/><rect class="cls-17" x="282.85" y="861.68" width="79.88" height="46.21"/><rect class="cls-12" x="282.85" y="908.03" width="79.88" height="46.21"/><path class="cls-14" d="M164.31,999.36H-41l50-71a47.25,47.25,0,0,1,42.05-25.71H164.31Z"/><rect class="cls-14" x="482.77" y="902.68" width="180.53" height="97.24"/><polygon class="cls-18" points="255.65 717.25 390.77 717.25 390.77 763.83 314 763.93 255.65 717.25"/><polygon class="cls-19" points="390.73 761.65 466.22 761.65 466.22 808.23 449.08 808.33 390.73 761.65"/><polygon class="cls-20" points="180.23 761.65 255.71 761.65 255.71 808.23 238.58 808.33 180.23 761.65"/><polygon class="cls-21" points="480.36 803.6 555.84 803.6 555.84 850.18 538.71 850.28 480.36 803.6"/><polygon class="cls-22" points="89.21 803.6 164.69 803.6 164.69 850.18 147.56 850.28 89.21 803.6"/><path class="cls-16" d="M77,823.58,8.29,776.18c20.86,10.45,50.83,18.08,68.74-3Z"/><rect class="cls-13" x="282.85" y="953.72" width="79.88" height="46.21"/><rect class="cls-13" x="709.34" y="408.86" width="16.57" height="64.15"/><rect class="cls-23" x="713.48" y="325.19" width="8.28" height="64.15"/><rect class="cls-7" x="699.51" y="526.79" width="36.22" height="243.19"/><polygon class="cls-16" points="718.45 822.15 718.45 976.22 605.8 976.22 718.45 822.15"/><polygon class="cls-10" points="716.79 822.15 716.79 976.22 829.45 976.22 716.79 822.15"/><path class="cls-9" d="M753.81,504.93a36.19,36.19,0,1,0-72.37,0Z"/><path class="cls-23" d="M681.44,504.93a36.19,36.19,0,0,0,72.37,0Z"/><rect class="cls-4" x="709.34" y="725.36" width="16.57" height="28.66"/><rect class="cls-4" x="709.34" y="681.39" width="16.57" height="28.66"/><rect class="cls-4" x="709.34" y="642.06" width="16.57" height="28.66"/><rect class="cls-4" x="709.34" y="601.89" width="16.57" height="28.66"/><rect class="cls-4" x="709.34" y="557.17" width="16.57" height="28.66"/><circle class="cls-9" cx="717.62" cy="399.52" r="16.98"/><circle class="cls-9" cx="717.62" cy="325.19" r="6.42"/><polygon class="cls-7" points="717.62 872.75 657.99 976.04 777.26 976.04 717.62 872.75"/><path class="cls-13" d="M773.12,820.4a55.5,55.5,0,0,0-111,0Z"/><path class="cls-8" d="M662.12,820.4a55.5,55.5,0,0,0,111,0Z"/><path class="cls-16" d="M953.59,708.55V812H796.81S924.55,757.27,953.59,708.55Z"/><path class="cls-13" d="M953.59,708.55V812h156.78S982.63,757.27,953.59,708.55Z"/><path class="cls-15" d="M953.27,641.66v81.39H830S930.42,680,953.27,641.66Z"/><path class="cls-4" d="M953.27,641.66v81.39h123.31S976.11,680,953.27,641.66Z"/><rect class="cls-15" x="946.49" y="572.34" width="14.75" height="38.09"/><rect class="cls-17" x="889.05" y="669.04" width="129.63" height="12.37"/><rect class="cls-17" x="866.19" y="752.67" width="174.03" height="12.37"/><rect class="cls-15" x="866.19" y="765.04" width="174.03" height="12.37"/><rect class="cls-9" x="889.05" y="681.37" width="129.63" height="12.37"/><rect class="cls-9" x="889.05" y="647" width="129.63" height="22.02"/><polygon class="cls-16" points="862 647 889.05 669.04 889.05 647 862 647"/><polygon class="cls-16" points="1045.5 647 1018.45 669.04 1018.45 647 1045.5 647"/><rect class="cls-16" x="866.31" y="723.05" width="174.22" height="29.6"/><polygon class="cls-24" points="829.95 723.05 866.3 752.67 866.3 723.05 829.95 723.05"/><polygon class="cls-7" points="1076.58 723.05 1040.23 752.67 1040.23 723.05 1076.58 723.05"/><rect class="cls-7" x="827.04" y="811.89" width="252.6" height="25.02"/><polygon class="cls-11" points="1110.37 811.89 1079.64 836.93 1079.64 811.89 1110.37 811.89"/><rect class="cls-15" x="935.9" y="647" width="34.04" height="39.92"/><rect class="cls-16" x="941.38" y="652.51" width="23.06" height="28.9"/><polygon class="cls-9" points="796.81 811.89 827.54 836.93 827.54 811.89 796.81 811.89"/><circle class="cls-24" cx="953.86" cy="569.32" r="11.53"/><path class="cls-7" d="M953.86,586.36V647H862S936.85,614.91,953.86,586.36Z"/><path class="cls-8" d="M953.86,586.36V647h91.87S970.88,614.91,953.86,586.36Z"/><rect class="cls-12" x="866.19" y="752.58" width="12.39" height="12.39"/><rect class="cls-12" x="920.13" y="752.66" width="12.39" height="12.39"/><rect class="cls-12" x="974.07" y="752.58" width="12.39" height="12.39"/><rect class="cls-12" x="1028.01" y="752.66" width="12.39" height="12.39"/><rect class="cls-12" x="889.05" y="669.07" width="12.39" height="12.39"/><rect class="cls-12" x="1006.29" y="669.07" width="12.39" height="12.39"/><rect class="cls-17" x="955.38" y="899.59" width="11.07" height="19.77"/><rect class="cls-9" x="827.73" y="835.81" width="50.69" height="84.01" rx="4.36" transform="translate(1706.15 1755.64) rotate(180)"/><rect class="cls-15" x="834.11" y="843.94" width="37.93" height="58.04"/><rect class="cls-4" x="878.58" y="835.81" width="50.69" height="84.01" rx="4.36" transform="translate(1807.84 1755.64) rotate(180)"/><rect class="cls-13" x="884.96" y="843.94" width="37.93" height="58.04"/><rect class="cls-16" x="929.25" y="835.81" width="50.69" height="84.01" rx="4.36" transform="translate(1909.19 1755.64) rotate(180)"/><rect class="cls-8" x="935.63" y="843.94" width="37.93" height="58.04"/><rect class="cls-7" x="847.05" y="907.97" width="12.04" height="4.71"/><rect class="cls-9" x="897.9" y="907.97" width="12.04" height="4.71"/><rect class="cls-25" x="948.57" y="907.97" width="12.04" height="4.71"/><rect class="cls-9" x="978.57" y="835.81" width="50.69" height="84.01" rx="4.36" transform="translate(2007.83 1755.64) rotate(180)"/><rect class="cls-15" x="984.95" y="843.94" width="37.93" height="58.04"/><rect class="cls-7" x="997.89" y="907.97" width="12.04" height="4.71"/><rect class="cls-4" x="1028.95" y="835.81" width="50.69" height="84.01" rx="4.36" transform="translate(2108.59 1755.64) rotate(180)"/><rect class="cls-7" x="1035.33" y="843.94" width="37.93" height="58.04"/><rect class="cls-16" x="1048.27" y="907.97" width="12.04" height="4.71"/><rect class="cls-9" x="731.98" y="919.83" width="442.71" height="26.82"/><rect class="cls-5" x="668.56" y="946.41" width="569.56" height="26.82"/><rect class="cls-6" x="605.94" y="973.18" width="695.88" height="26.82"/><rect class="cls-8" x="731.98" y="899.59" width="10.35" height="20.24"/><rect class="cls-13" x="762.41" y="899.59" width="10.35" height="20.24"/><rect class="cls-4" x="668.77" y="926.41" width="10.35" height="20.24"/><rect class="cls-15" x="699.2" y="926.41" width="10.35" height="20.24"/><rect class="cls-9" x="605.94" y="952.99" width="10.35" height="20.24"/><rect class="cls-6" x="636.37" y="952.99" width="10.35" height="20.24"/><rect class="cls-9" x="1261.03" y="952.99" width="10.35" height="20.24"/><rect class="cls-8" x="1291.46" y="952.99" width="10.35" height="20.24"/><rect class="cls-4" x="1196.9" y="926.41" width="10.35" height="20.24"/><rect class="cls-15" x="1227.34" y="926.41" width="10.35" height="20.24"/><rect class="cls-7" x="792.85" y="899.59" width="10.35" height="20.24"/><rect class="cls-7" x="1103.48" y="899.59" width="10.35" height="20.24"/><rect class="cls-3" x="1133.91" y="899.59" width="10.35" height="20.24"/><rect class="cls-17" x="1164.34" y="899.59" width="10.35" height="20.24"/><polygon class="cls-26" points="867.17 723.25 1039.55 723.25 1039.55 777.82 935.53 777.94 867.17 723.25"/><polygon class="cls-27" points="827.65 812.31 1079.55 812.31 1079.55 919.86 955.3 919.77 827.65 812.31"/><polygon class="cls-28" points="887.79 648.33 1018.59 648.33 1018.59 689.74 939.66 689.83 887.79 648.33"/><polygon class="cls-29" points="1195.85 843.47 1323.79 843.47 1323.79 932.72 1293.27 931.5 1195.85 843.47"/><polygon class="cls-5" points="1420.46 828.67 1401.4 834.71 1401.4 815.33 1420.46 809.29 1420.46 828.67"/><polygon class="cls-9" points="1444.13 821.17 1425.07 827.21 1425.07 807.83 1444.13 801.79 1444.13 821.17"/><polygon class="cls-5" points="1467.81 813.67 1448.75 819.71 1448.75 800.33 1467.81 794.29 1467.81 813.67"/><polygon class="cls-9" points="1491.62 806.13 1472.56 812.17 1472.56 792.79 1491.62 786.75 1491.62 806.13"/><polygon class="cls-6" points="1515.29 798.63 1496.23 804.67 1496.23 785.28 1515.29 779.25 1515.29 798.63"/><polygon class="cls-24" points="1538.97 791.13 1519.91 797.17 1519.91 777.78 1538.97 771.75 1538.97 791.13"/><polygon class="cls-9" points="1562.65 783.63 1543.59 789.67 1543.59 770.28 1562.65 764.25 1562.65 783.63"/><polygon class="cls-6" points="1585.92 776.26 1566.86 782.29 1566.86 762.91 1585.92 756.88 1585.92 776.26"/><polygon class="cls-5" points="1609.6 768.76 1590.54 774.79 1590.54 755.41 1609.6 749.38 1609.6 768.76"/><polygon class="cls-9" points="1633.27 761.26 1614.21 767.29 1614.21 747.91 1633.27 741.88 1633.27 761.26"/><polygon class="cls-5" points="1656.95 753.76 1637.89 759.79 1637.89 740.41 1656.95 734.38 1656.95 753.76"/><polygon class="cls-6" points="1400.98 826.49 1680.44 737.83 1680.44 802.26 1400.98 890.92 1400.98 826.49"/><rect class="cls-13" x="1782.64" y="766.83" width="24.92" height="25.34"/><rect class="cls-16" x="1813.6" y="766.83" width="24.92" height="25.34"/><rect class="cls-12" x="1844.55" y="766.83" width="24.92" height="25.34"/><rect class="cls-16" x="1875.51" y="766.83" width="24.92" height="25.34"/><rect class="cls-3" x="1387.28" y="746.8" width="19.06" height="19.38"/><rect class="cls-4" x="1410.96" y="746.8" width="19.06" height="19.38"/><rect class="cls-15" x="1434.63" y="746.8" width="19.06" height="19.38"/><rect class="cls-3" x="1458.31" y="746.8" width="19.06" height="19.38"/><rect class="cls-14" x="1662.73" y="689.57" width="16.45" height="16.72"/><rect class="cls-7" x="1683.16" y="689.57" width="16.45" height="16.72"/><rect class="cls-8" x="1703.59" y="689.57" width="16.45" height="16.72"/><rect class="cls-7" x="1724.02" y="689.57" width="16.45" height="16.72"/><path class="cls-30" d="M1397.64,875.44l342.82-100.69,160.72,41.88V984.8H1348.53l2.18-49.46A65.43,65.43,0,0,1,1397.64,875.44Z"/><rect class="cls-16" x="1662.32" y="698.2" width="78.14" height="106.67" rx="6.1" transform="translate(3402.79 1503.06) rotate(180)"/><rect class="cls-5" x="1669.08" y="705.45" width="64.63" height="82.96"/><rect class="cls-9" x="1669.08" y="705.45" width="64.63" height="19.03"/><rect class="cls-4" x="1695.93" y="794.19" width="10.92" height="4.27"/><polygon class="cls-16" points="1819.28 863.92 1838.34 866.6 1838.34 847.22 1819.28 844.53 1819.28 863.92"/><polygon class="cls-12" points="1795.6 860.58 1814.66 863.26 1814.66 843.88 1795.6 841.2 1795.6 860.58"/><polygon class="cls-13" points="1771.92 857.24 1790.98 859.93 1790.98 840.55 1771.92 837.86 1771.92 857.24"/><polygon class="cls-16" points="1748.12 853.89 1767.18 856.57 1767.18 837.19 1748.12 834.51 1748.12 853.89"/><polygon class="cls-17" points="1724.44 850.55 1743.5 853.24 1743.5 833.86 1724.44 831.17 1724.44 850.55"/><polygon class="cls-12" points="1700.76 847.21 1719.82 849.9 1719.82 830.52 1700.76 827.83 1700.76 847.21"/><polygon class="cls-16" points="1677.09 843.88 1696.15 846.56 1696.15 827.18 1677.09 824.5 1677.09 843.88"/><polygon class="cls-13" points="1653.81 840.6 1672.87 843.28 1672.87 823.9 1653.81 821.22 1653.81 840.6"/><polygon class="cls-12" points="1630.14 837.26 1649.19 839.95 1649.19 820.57 1630.14 817.88 1630.14 837.26"/><polygon class="cls-17" points="1606.46 833.92 1625.52 836.61 1625.52 817.23 1606.46 814.54 1606.46 833.92"/><polygon class="cls-16" points="1582.78 830.59 1601.84 833.27 1601.84 813.89 1582.78 811.21 1582.78 830.59"/><polygon class="cls-12" points="1559.14 827.25 1578.2 829.94 1578.2 810.56 1559.14 807.88 1559.14 827.25"/><polygon class="cls-13" points="1535.46 823.92 1554.52 826.6 1554.52 807.22 1535.46 804.54 1535.46 823.92"/><polygon class="cls-16" points="1511.79 820.58 1530.85 823.27 1530.85 803.89 1511.79 801.2 1511.79 820.58"/><polygon class="cls-17" points="1488.11 817.24 1507.17 819.93 1507.17 800.55 1488.11 797.86 1488.11 817.24"/><polygon class="cls-12" points="1464.95 813.98 1484.01 816.67 1484.01 797.29 1464.95 794.6 1464.95 813.98"/><polygon class="cls-16" points="1441.28 810.64 1460.34 813.33 1460.34 793.95 1441.28 791.26 1441.28 810.64"/><polygon class="cls-13" points="1417.6 807.31 1436.66 809.99 1436.66 790.61 1417.6 787.93 1417.6 807.31"/><polygon class="cls-16" points="1838.75 858.31 1417.6 798.95 1417.6 863.39 1838.75 922.74 1838.75 858.31"/><path class="cls-30" d="M1896.89,942.52,1342.7,971.15l-.08,28.77H1961l-18.26-34.15A56.9,56.9,0,0,0,1896.89,942.52Z"/><path class="cls-9" d="M1683.23,736a5.23,5.23,0,0,0-5.23,5.23v8.53h10.47v-8.53A5.23,5.23,0,0,0,1683.23,736Z"/><path class="cls-9" d="M1701.39,736a5.23,5.23,0,0,0-5.23,5.23v8.53h10.47v-8.53A5.24,5.24,0,0,0,1701.39,736Z"/><path class="cls-9" d="M1719.55,736a5.23,5.23,0,0,0-5.23,5.23v8.53h10.47v-8.53A5.24,5.24,0,0,0,1719.55,736Z"/><rect class="cls-9" x="1386.92" y="757.42" width="90.24" height="123.19" rx="7.05" transform="translate(2864.07 1638.02) rotate(180)"/><rect class="cls-7" x="1394.72" y="765.8" width="74.63" height="95.81"/><rect class="cls-14" x="1394.72" y="765.8" width="74.63" height="21.97"/><rect class="cls-9" x="1425.73" y="868.28" width="12.61" height="4.93"/><path class="cls-31" d="M1411.59,801.3a5.9,5.9,0,0,0-5.9,5.89v9.6h11.79v-9.6A5.89,5.89,0,0,0,1411.59,801.3Z"/><path class="cls-31" d="M1432,801.3a5.89,5.89,0,0,0-5.89,5.89v9.6h11.79v-9.6A5.9,5.9,0,0,0,1432,801.3Z"/><path class="cls-31" d="M1452.48,801.3a5.9,5.9,0,0,0-5.9,5.89v9.6h11.79v-9.6A5.89,5.89,0,0,0,1452.48,801.3Z"/><polygon class="cls-15" points="1344.25 921.16 1802.93 881.25 1802.93 941.73 1344.25 981.64 1344.25 921.16"/><rect class="cls-14" x="1781.6" y="784.51" width="119.58" height="21.08"/><rect class="cls-14" x="1781.62" y="779.39" width="119.94" height="163.73" rx="9.37" transform="translate(3683.19 1722.52) rotate(180)"/><rect class="cls-4" x="1791.99" y="790.53" width="99.2" height="127.35"/><rect class="cls-3" x="1791.99" y="790.53" width="99.2" height="29.21"/><rect class="cls-9" x="1833.21" y="926.74" width="16.77" height="6.55"/><g class="cls-32"><path class="cls-33" d="M1814.22,834.93a7.84,7.84,0,0,0-7.84,7.84v12.75h15.67V842.77A7.84,7.84,0,0,0,1814.22,834.93Z"/><path class="cls-33" d="M1841.39,834.93a7.84,7.84,0,0,0-7.83,7.84v12.75h15.67V842.77A7.84,7.84,0,0,0,1841.39,834.93Z"/><path class="cls-33" d="M1868.57,834.93a7.84,7.84,0,0,0-7.84,7.84v12.75h15.67V842.77A7.83,7.83,0,0,0,1868.57,834.93Z"/></g><path class="cls-14" d="M1357.17,936.73l544.73,63.19H1323.6l14.87-53.13A18.74,18.74,0,0,1,1357.17,936.73Z"/><polygon class="cls-4" points="1363.81 919.9 1344.15 921.62 1344.15 910.3 1363.81 908.58 1363.81 919.9"/><polygon class="cls-15" points="1388.24 917.76 1368.58 919.48 1368.58 908.17 1388.24 906.45 1388.24 917.76"/><polygon class="cls-15" points="1412.66 915.63 1393 917.35 1393 906.03 1412.66 904.31 1412.66 915.63"/><polygon class="cls-3" points="1437.21 913.48 1417.56 915.2 1417.56 903.88 1437.21 902.16 1437.21 913.48"/><polygon class="cls-4" points="1461.64 911.34 1441.98 913.06 1441.98 901.75 1461.64 900.02 1461.64 911.34"/><polygon class="cls-15" points="1486.06 909.21 1466.4 910.92 1466.4 899.61 1486.06 897.89 1486.06 909.21"/><polygon class="cls-3" points="1510.48 907.07 1490.82 908.79 1490.82 897.47 1510.48 895.75 1510.48 907.07"/><polygon class="cls-3" points="1534.49 904.97 1514.83 906.69 1514.83 895.37 1534.49 893.65 1534.49 904.97"/><polygon class="cls-4" points="1558.91 902.83 1539.25 904.55 1539.25 893.23 1558.91 891.51 1558.91 902.83"/><polygon class="cls-15" points="1583.34 900.7 1563.68 902.41 1563.68 891.1 1583.34 889.38 1583.34 900.7"/><polygon class="cls-15" points="1607.76 898.56 1588.1 900.28 1588.1 888.96 1607.76 887.24 1607.76 898.56"/><polygon class="cls-3" points="1632.14 896.42 1612.48 898.14 1612.48 886.83 1632.14 885.11 1632.14 896.42"/><polygon class="cls-4" points="1656.57 894.29 1636.91 896.01 1636.91 884.69 1656.57 882.97 1656.57 894.29"/><polygon class="cls-15" points="1680.99 892.15 1661.33 893.87 1661.33 882.55 1680.99 880.83 1680.99 892.15"/><polygon class="cls-15" points="1705.41 890.01 1685.75 891.74 1685.75 880.42 1705.41 878.7 1705.41 890.01"/><polygon class="cls-3" points="1729.3 887.92 1709.64 889.64 1709.64 878.33 1729.3 876.61 1729.3 887.92"/><polygon class="cls-4" points="1753.72 885.79 1734.06 887.51 1734.06 876.19 1753.72 874.47 1753.72 885.79"/><polygon class="cls-15" points="1778.14 883.65 1758.48 885.37 1758.48 874.05 1778.14 872.33 1778.14 883.65"/><polygon class="cls-34" points="1262.28 481.34 1259.96 481.34 1258.45 519.91 1263.79 519.91 1262.28 481.34"/><rect class="cls-12" x="1240.88" y="559.29" width="40.15" height="20.22"/><rect class="cls-13" x="1219.83" y="559.29" width="21.38" height="20.22"/><rect class="cls-16" x="1281.04" y="559.29" width="21.38" height="20.22"/><rect class="cls-16" x="1209.1" y="825.34" width="102.43" height="139.83" rx="8" transform="translate(2155.58 -365.06) rotate(90)"/><rect class="cls-8" x="1211.94" y="840.88" width="84.72" height="108.76" transform="translate(359.04 2149.55) rotate(-90)"/><rect class="cls-5" x="1311.88" y="892.46" width="14.32" height="5.59" transform="translate(423.78 2214.3) rotate(-90)"/><rect class="cls-15" x="1179.21" y="945.86" width="162.87" height="26.4"/><polygon class="cls-13" points="1378.64 971.15 1139 971.15 983.06 1000 1538.22 1000 1378.64 971.15"/><rect class="cls-9" x="1219.83" y="540.71" width="82.58" height="18.57"/><path class="cls-7" d="M1261.31,513.7v27.16h-41.16S1253.68,526.49,1261.31,513.7Z"/><path class="cls-8" d="M1261.31,513.7v27.16h41.16S1268.93,526.49,1261.31,513.7Z"/><path class="cls-4" d="M1326.74,544.38l-24.33,15V540.71S1310.33,550.45,1326.74,544.38Z"/><path class="cls-5" d="M1195.5,544.38l24.33,15V540.71S1211.92,550.45,1195.5,544.38Z"/><path class="cls-24" d="M1220.24,559.29h41.29V540.71S1247,558,1220.24,559.29Z"/><path class="cls-3" d="M1302.67,559.29h-41.29V540.71S1276,558,1302.67,559.29Z"/><rect class="cls-9" x="1240.16" y="597.76" width="42.85" height="21.58"/><rect class="cls-5" x="1217.7" y="597.76" width="22.81" height="21.58"/><rect class="cls-15" x="1283.01" y="597.76" width="22.81" height="21.58"/><rect class="cls-34" x="1217.7" y="577.94" width="88.12" height="19.82"/><path class="cls-15" d="M1331.78,581.86l-26,16V577.94S1314.27,588.34,1331.78,581.86Z"/><path class="cls-5" d="M1191.74,581.86l26,16V577.94S1209.25,588.34,1191.74,581.86Z"/><path class="cls-7" d="M1186.47,623.16l27.77,17.12V619S1205.21,630.09,1186.47,623.16Z"/><rect class="cls-34" x="1238.28" y="639.94" width="45.84" height="23.09"/><rect class="cls-15" x="1214.24" y="639.94" width="24.4" height="23.09"/><rect class="cls-5" x="1284.12" y="639.94" width="24.4" height="23.09"/><rect class="cls-14" x="1214.24" y="618.73" width="94.28" height="21.21"/><path class="cls-8" d="M1336.3,622.92,1308.52,640V618.73S1317.56,629.86,1336.3,622.92Z"/><rect class="cls-8" x="1236.05" y="685.64" width="49.2" height="24.78"/><rect class="cls-14" x="1210.25" y="685.64" width="26.19" height="24.78"/><rect class="cls-7" x="1285.24" y="685.64" width="26.19" height="24.78"/><rect class="cls-12" x="1210.25" y="662.88" width="101.18" height="22.76"/><path class="cls-16" d="M1341.25,667.37l-29.82,18.38V662.88S1321.13,674.82,1341.25,667.37Z"/><path class="cls-13" d="M1180.44,667.37l29.81,18.38V662.88S1200.55,674.82,1180.44,667.37Z"/><rect class="cls-14" x="1196.06" y="815.22" width="127.78" height="28.74"/><path class="cls-13" d="M1361.49,820.89l-37.65,23.21V815.22S1336.09,830.29,1361.49,820.89Z"/><path class="cls-16" d="M1158.41,820.89l37.65,23.21V815.22S1183.81,830.29,1158.41,820.89Z"/><path class="cls-14" d="M1218.13,598.31h44.06V578.49S1246.65,596.94,1218.13,598.31Z"/><path class="cls-7" d="M1306.09,598.31H1262V578.49S1277.58,596.93,1306.09,598.31Z"/><path class="cls-12" d="M1214.71,640.23h47.14V619S1245.21,638.76,1214.71,640.23Z"/><path class="cls-13" d="M1308.81,640.23h-47.14V619S1278.31,638.75,1308.81,640.23Z"/><rect class="cls-34" x="1231.49" y="786.53" width="57.62" height="29.02"/><rect class="cls-5" x="1201.28" y="786.53" width="30.68" height="29.02"/><rect class="cls-15" x="1289.12" y="786.53" width="30.68" height="29.02"/><rect class="cls-9" x="1201.28" y="759.87" width="118.51" height="26.66"/><path class="cls-5" d="M1354.71,765.14l-34.92,21.52V759.87S1331.15,773.85,1354.71,765.14Z"/><path class="cls-6" d="M1166.36,765.14l34.92,21.52V759.87S1189.92,773.85,1166.36,765.14Z"/><path class="cls-12" d="M1201.86,786.9h59.26V760.23S1240.21,785,1201.86,786.9Z"/><path class="cls-13" d="M1320.16,786.89H1260.9V760.23S1281.81,785,1320.16,786.89Z"/><path class="cls-24" d="M1210.75,685.64h50.59V662.88S1243.49,684.06,1210.75,685.64Z"/><path class="cls-3" d="M1311.75,685.64h-50.59V662.88S1279,684.06,1311.75,685.64Z"/><path class="cls-24" d="M1196.69,844.44h63.89V815.69S1238,842.44,1196.69,844.44Z"/><path class="cls-3" d="M1324.23,844.43h-63.89V815.69S1282.89,842.44,1324.23,844.43Z"/><rect class="cls-12" x="1234.33" y="733.65" width="51.99" height="26.18"/><rect class="cls-13" x="1207.07" y="733.65" width="27.68" height="26.18"/><rect class="cls-16" x="1286.32" y="733.65" width="27.68" height="26.18"/><rect class="cls-34" x="1207.07" y="709.6" width="106.93" height="24.05"/><path class="cls-4" d="M1345.51,714.35,1314,733.77V709.6S1324.25,722.21,1345.51,714.35Z"/><path class="cls-14" d="M1175.57,714.35l31.5,19.42V709.6S1196.82,722.21,1175.57,714.35Z"/><path class="cls-7" d="M1207.6,733.65h53.46v-24S1242.2,732,1207.6,733.65Z"/><path class="cls-14" d="M1314.33,733.65h-53.46V709.59S1279.73,732,1314.33,733.65Z"/><circle class="cls-9" cx="1261.12" cy="507.64" r="3.95"/><path class="cls-35" d="M921.73,243.74V226h5.43a8.83,8.83,0,0,1,6.53,2.46,9.59,9.59,0,0,1,0,12.85,8.86,8.86,0,0,1-6.53,2.45ZM924,228.16v13.4h3.15a6.71,6.71,0,1,0,0-13.4Z"/><path class="cls-35" d="M943.55,244.13a5.81,5.81,0,0,1-4.41-1.83,6.47,6.47,0,0,1-1.74-4.64,6.56,6.56,0,0,1,1.69-4.62,6,6,0,0,1,8.61-.1,7,7,0,0,1,1.6,4.9l0,.24h-9.55a4,4,0,0,0,1.19,2.88,3.85,3.85,0,0,0,6.15-1.09l2,1a6.13,6.13,0,0,1-2.27,2.41A6.29,6.29,0,0,1,943.55,244.13Zm-3.65-7.93h7a3,3,0,0,0-1-2.1,3.62,3.62,0,0,0-2.49-.83,3.31,3.31,0,0,0-2.22.8A3.77,3.77,0,0,0,939.9,236.2Z"/><path class="cls-35" d="M957,243.74h-2.28l-4.91-12.15h2.48L955.9,241H956l3.62-9.42H962Z"/><path class="cls-35" d="M968.58,244.13a5.83,5.83,0,0,1-4.42-1.83,6.47,6.47,0,0,1-1.74-4.64,6.61,6.61,0,0,1,1.69-4.62,6.06,6.06,0,0,1,8.62-.1,7,7,0,0,1,1.6,4.9l0,.24h-9.54A4,4,0,0,0,966,241a3.85,3.85,0,0,0,6.15-1.09l2,1a6,6,0,0,1-2.27,2.41A6.25,6.25,0,0,1,968.58,244.13Zm-3.65-7.93h7a3.07,3.07,0,0,0-1-2.1,3.62,3.62,0,0,0-2.49-.83,3.31,3.31,0,0,0-2.22.8A3.77,3.77,0,0,0,964.93,236.2Z"/><path class="cls-35" d="M978.69,226v17.76h-2.28V226Z"/><path class="cls-35" d="M980.65,237.66a6.46,6.46,0,0,1,1.76-4.64,6,6,0,0,1,4.49-1.83,5.94,5.94,0,0,1,4.47,1.83,6.39,6.39,0,0,1,1.78,4.64,6.33,6.33,0,0,1-1.78,4.64,5.94,5.94,0,0,1-4.47,1.83,6,6,0,0,1-4.49-1.83A6.44,6.44,0,0,1,980.65,237.66Zm2.29,0a4.46,4.46,0,0,0,1.14,3.18,3.9,3.9,0,0,0,5.65,0,5,5,0,0,0,0-6.33,3.84,3.84,0,0,0-5.65,0A4.42,4.42,0,0,0,982.94,237.66Z"/><path class="cls-35" d="M1001.44,244.13a5.29,5.29,0,0,1-2.45-.57,4.22,4.22,0,0,1-1.69-1.51h-.1l.1,1.69v5.36H995V231.59h2.19v1.68h.1a4.22,4.22,0,0,1,1.69-1.51,5.41,5.41,0,0,1,6.52,1.31,6.67,6.67,0,0,1,1.71,4.59,6.6,6.6,0,0,1-1.71,4.59A5.22,5.22,0,0,1,1001.44,244.13Zm-.37-2.08a3.55,3.55,0,0,0,2.75-1.24,4.49,4.49,0,0,0,1.11-3.15,4.56,4.56,0,0,0-1.11-3.15,3.7,3.7,0,0,0-5.53,0,5.14,5.14,0,0,0,0,6.33A3.61,3.61,0,0,0,1001.07,242.05Z"/><path class="cls-35" d="M1014.76,244.13a5.83,5.83,0,0,1-4.42-1.83,6.46,6.46,0,0,1-1.73-4.64,6.6,6.6,0,0,1,1.68-4.62,6.06,6.06,0,0,1,8.62-.1,7,7,0,0,1,1.6,4.9l0,.24h-9.55a4,4,0,0,0,1.19,2.88,3.85,3.85,0,0,0,6.15-1.09l2,1a6,6,0,0,1-2.27,2.41A6.23,6.23,0,0,1,1014.76,244.13Zm-3.65-7.93h7a3.07,3.07,0,0,0-1-2.1,3.62,3.62,0,0,0-2.49-.83,3.31,3.31,0,0,0-2.22.8A3.77,3.77,0,0,0,1011.11,236.2Z"/><path class="cls-35" d="M1024.88,243.74h-2.29V231.59h2.19v2h.1a3.23,3.23,0,0,1,1.42-1.65,4,4,0,0,1,2.12-.68,4.26,4.26,0,0,1,1.69.3l-.7,2.2a3.9,3.9,0,0,0-1.34-.17,3,3,0,0,0-2.24,1,3.48,3.48,0,0,0-.95,2.43Z"/><path class="cls-35" d="M1035.78,243.74V226h5.43a8.83,8.83,0,0,1,6.53,2.46,9.59,9.59,0,0,1,0,12.85,8.86,8.86,0,0,1-6.53,2.45Zm2.28-15.58v13.4h3.15a6.71,6.71,0,1,0,0-13.4Z"/><path class="cls-35" d="M1057.13,231.19a5.64,5.64,0,0,1,4,1.35,4.79,4.79,0,0,1,1.47,3.71v7.49h-2.19v-1.69h-.1a4.33,4.33,0,0,1-3.77,2.08,4.88,4.88,0,0,1-3.36-1.19,3.79,3.79,0,0,1-1.35-3,3.61,3.61,0,0,1,1.43-3,6,6,0,0,1,3.81-1.12,6.66,6.66,0,0,1,3.34.75v-.53a2.6,2.6,0,0,0-.94-2,3.25,3.25,0,0,0-2.21-.83,3.49,3.49,0,0,0-3,1.61l-2-1.26A5.59,5.59,0,0,1,1057.13,231.19Zm-3,8.83a1.84,1.84,0,0,0,.75,1.49,2.85,2.85,0,0,0,1.78.59,3.62,3.62,0,0,0,2.57-1.07,3.33,3.33,0,0,0,1.12-2.5,4.69,4.69,0,0,0-3-.84,3.84,3.84,0,0,0-2.32.67A2,2,0,0,0,1054.18,240Z"/><path class="cls-35" d="M1075.78,231.59l-7.61,17.51h-2.36l2.83-6.13-5-11.38h2.48l3.62,8.73h0l3.52-8.73Z"/><path class="cls-35" d="M1086.32,240.37a3.27,3.27,0,0,1-1.39,2.67,5.45,5.45,0,0,1-3.49,1.09,5.54,5.54,0,0,1-3.23-.95,5.22,5.22,0,0,1-2-2.52l2-.87a3.75,3.75,0,0,0,1.3,1.7,3.15,3.15,0,0,0,1.88.61,3.35,3.35,0,0,0,1.82-.47,1.33,1.33,0,0,0,.73-1.12c0-.77-.6-1.34-1.79-1.71l-2.08-.52c-2.36-.59-3.55-1.73-3.55-3.42a3.15,3.15,0,0,1,1.36-2.67,6.2,6.2,0,0,1,6.37-.23,4.12,4.12,0,0,1,1.82,2.06l-2,.84a2.57,2.57,0,0,0-1.13-1.2,3.53,3.53,0,0,0-1.75-.44,2.93,2.93,0,0,0-1.6.45,1.28,1.28,0,0,0-.7,1.09c0,.69.65,1.19,1.95,1.49l1.84.47Q1086.31,237.61,1086.32,240.37Z"/><path class="cls-35" d="M844.13,244.21a9.43,9.43,0,0,0,7.18-2.89,9.29,9.29,0,0,0,2.44-6.58,9.17,9.17,0,0,0-.15-1.76h-9.47v2.81h6.73a5.94,5.94,0,0,1-1.53,3.55,6.93,6.93,0,0,1-5.2,2.06,7.49,7.49,0,0,1,0-15,7.17,7.17,0,0,1,5.07,2l2-2a9.82,9.82,0,0,0-7.06-2.84,10.3,10.3,0,1,0,0,20.6Zm17.27-13.27a6.64,6.64,0,1,0,6.66,6.63A6.54,6.54,0,0,0,861.4,230.94Zm0,10.66a4,4,0,1,1,3.74-4A3.84,3.84,0,0,1,861.4,241.6Zm14.52-10.66a6.64,6.64,0,1,0,6.66,6.63A6.54,6.54,0,0,0,875.92,230.94Zm0,10.66a4,4,0,1,1,3.75-4A3.84,3.84,0,0,1,875.92,241.6Zm17.83-10.25v1.08h-.1a4.61,4.61,0,0,0-3.49-1.49,6.64,6.64,0,0,0,0,13.27,4.55,4.55,0,0,0,3.49-1.51h.1v1c0,2.54-1.36,3.9-3.54,3.9a3.66,3.66,0,0,1-3.34-2.36l-2.54,1.05a6.32,6.32,0,0,0,5.88,3.92c3.41,0,6.3-2,6.3-6.91v-11.9Zm-3.34,10.25a4,4,0,0,1,0-8c2,0,3.54,1.71,3.54,4A3.71,3.71,0,0,1,890.41,241.6Zm11-17.29h-2.91v19.5h2.91Zm8,17.29a3.36,3.36,0,0,1-3.21-2l8.87-3.67-.31-.75A6.14,6.14,0,0,0,909.1,231a6.3,6.3,0,0,0-6.26,6.63,6.5,6.5,0,0,0,6.58,6.63,6.61,6.61,0,0,0,5.53-2.94l-2.26-1.51A3.8,3.8,0,0,1,909.42,241.6Zm-.23-8.09a2.57,2.57,0,0,1,2.47,1.4l-5.93,2.46A3.62,3.62,0,0,1,909.19,233.51Z"/><text class="cls-36" transform="translate(923.17 272.42)">C<tspan class="cls-37" x="10.75" y="0">hi</tspan><tspan class="cls-38" x="22.67" y="0">n</tspan><tspan class="cls-39" x="30.83" y="0">a 2</tspan><tspan x="50.23" y="0">0</tspan><tspan class="cls-40" x="59.69" y="0">17</tspan></text><polygon class="cls-9" points="941.75 184.48 955.79 160 939.88 160 933.8 170.6 941.75 184.48"/><path class="cls-13" d="M927.16,182.19a4.62,4.62,0,0,0,0,4.58L939.88,209h15.91l-22-38.36Z"/><polygon class="cls-41" points="978.25 184.48 964.21 208.96 980.12 208.96 986.2 198.36 978.25 184.48"/><path class="cls-7" d="M992.84,186.77a4.62,4.62,0,0,0,0-4.58L980.12,160H964.21l22,38.36Z"/></g></g></svg>