<svg width="69" height="91" viewBox="0 0 69 91" fill="none" xmlns="http://www.w3.org/2000/svg">
<mask id="mask0_98_458" style="mask-type:luminance" maskUnits="userSpaceOnUse" x="0" y="0" width="69" height="91">
<path d="M68.0511 0.5H0V90.3104H68.0511V0.5Z" fill="white"/>
</mask>
<g mask="url(#mask0_98_458)">
<path d="M67.949 0.397705H0V91.0757H67.949V0.397705Z" fill="#353535"/>
</g>
<path d="M57.6605 80.267V81.0788H59.1916V81.5839H57.6605V82.3957H59.3787V83.0091H57.1842V79.7618H59.2937V80.267H57.6605ZM51.6212 80.285V81.0968H53.1523V81.602H51.6212V82.4138H53.3565V83.0271H51.0428V79.7799H53.2544V80.285H51.6212ZM47.3172 80.285H46.4496V83.0271H45.8711V80.285H45.0205V79.7618H47.3172V80.285ZM41.5671 80.285H40.6995V83.0271H40.1211V80.285H39.2534V79.7618H41.5501V80.285H41.5671ZM35.4257 83.0271H34.8473V79.7799H35.4257V83.0271ZM30.8325 79.7799V83.0271H30.254L30.3561 80.285L29.6926 83.0271H29.1993L28.5188 80.285V83.0271H28.0255V79.7799H28.791L29.3694 82.2153L30.0499 79.7799H30.8325ZM24.0276 79.7799V83.0271H23.4492V80.285L22.7857 83.0271H22.3094L21.6289 80.285L21.731 83.0271H21.1526V79.7799H22.0202L22.5986 82.2153L23.177 79.7799H24.0276ZM15.7938 80.1948C15.3174 80.1948 14.9262 80.6999 14.9262 81.4216C14.9262 82.1432 15.3004 82.5401 15.7938 82.5401C16.168 82.5401 16.6614 82.2334 16.6614 81.4216C16.7294 80.7901 16.3552 80.1768 15.7938 80.1948ZM15.7938 83.1354C15.3855 83.1173 15.0112 82.9369 14.739 82.6303C14.4838 82.2875 14.3477 81.8545 14.3477 81.4035C14.3477 80.3932 14.9262 79.6716 15.7938 79.6716C16.5593 79.6716 17.2398 80.285 17.2398 81.4035C17.2058 82.3055 16.7294 83.1173 15.7938 83.1354ZM10.7072 82.1251C10.6051 82.2334 10.6051 82.4318 10.418 82.6303C10.1458 82.9369 9.77149 83.1173 9.3632 83.1354C8.59766 83.1354 7.91718 82.4138 7.91718 81.4035C7.91718 80.285 8.58065 79.6716 9.3632 79.6716C10.3159 79.6716 10.6051 80.4834 10.6051 80.6819L10.0267 80.7901C10.0267 80.6819 9.99265 80.5737 9.9246 80.4834C9.80552 80.285 9.58436 80.1587 9.34619 80.1768C8.86985 80.1768 8.58065 80.6819 8.58065 81.4035C8.58065 82.1251 8.86985 82.522 9.34619 82.522C9.6354 82.522 9.82253 82.3236 10.0097 82.2153C10.0777 82.089 10.1117 81.9447 10.1117 81.8004L10.7072 82.1251Z" fill="#EEEEEE"/>
<path d="M42.232 28.5054L59.3787 45.7024V59.8786H45.2758L28.0445 42.6647V59.8786H8.41199V8.91187H59.3787V28.5054" fill="#EEEEEE"/>
<path d="M58.7129 66.7723H59.8736V67.2047H58.1496V64.4247H58.73L58.7129 66.7723ZM55.248 66.2626L54.7701 64.9498L54.3946 66.2626H55.248ZM55.3333 66.695H54.1727L54.0703 67.2201H53.4046L54.4628 64.4401H55.1456L56.2038 67.2201H55.5382L55.3333 66.695ZM50.9126 64.4247H51.4929V67.2047H51.015L49.6666 65.2896V67.2047H49.1887V64.4247H49.6666L51.015 66.4325L50.9126 64.4247ZM45.6213 64.8571C45.041 64.8571 44.6655 65.2124 44.6655 65.8147C44.6655 66.417 45.041 66.8649 45.6213 66.8649C46.0139 66.8649 46.4918 66.6024 46.4918 65.9074C46.4918 65.3823 46.2017 64.8571 45.6213 64.8571ZM45.6213 67.2974C45.2117 67.3283 44.8191 67.1584 44.5631 66.8649C44.2388 66.6024 44.0681 66.2163 44.0852 65.8147C44.0852 64.9498 44.7509 64.332 45.6213 64.332C46.3894 64.332 47.0722 64.8571 47.0722 65.8147C47.0722 66.6024 46.4918 67.2974 45.6213 67.2974ZM42.0711 67.2047H41.4908V64.4247H42.0711V67.2047ZM39.4767 64.9498H38.6062V67.2201H38.0259V64.9498H37.2578V64.4247H39.4767V64.9498ZM34.9535 66.2471L34.5609 64.9344L34.083 66.2471H34.9535ZM35.1413 66.6796H33.9806L33.7929 67.2047H33.2125L34.1684 64.4247H34.834L35.8923 67.2047H35.312L35.1413 66.6796ZM30.7205 64.4247H31.3009V67.2047H30.8229L29.4745 65.2896V67.2047H28.8942V64.4247H29.3721L30.8229 66.4325L30.7205 64.4247ZM24.9514 64.8571V65.722H25.5317C25.6341 65.722 26.112 65.722 26.112 65.2896C26.0608 65.1506 25.9584 65.027 25.8219 64.9344C25.7195 64.8417 25.5317 64.8417 25.2415 64.8417H24.9514V64.8571ZM24.371 64.4247H25.3269C25.7024 64.4247 25.9926 64.4247 26.2827 64.6873C26.5217 64.8263 26.6582 65.0579 26.6753 65.305C26.6753 65.9074 26.1974 66.0927 25.9926 66.0927L26.6753 67.2201H26.095L25.4293 66.1699H24.9514V67.2201H24.371V64.4247ZM20.5306 64.9498V65.5521H21.9815V65.9846H20.5306V66.7723H22.2546V67.2047H19.9503V64.4247H22.0668V64.9498H20.5306ZM17.9362 64.9498H17.1681V67.2201H16.6049V64.9498H15.7344V64.4247H17.9533L17.9362 64.9498ZM13.1229 64.4247H13.7032V67.2047H13.2253L11.8769 65.2896V67.2047H11.399V64.4247H11.8769L13.2253 66.4325L13.1229 64.4247ZM8.88991 67.2047H8.41199V64.4247H8.88991V67.2047Z" fill="#EEEEEE"/>
<path d="M52.5302 69.5696H59.1082V71.3847H55.1005V72.6231H58.8207V74.4382H55.1005V76.0666H59.3787V77.8817H52.5133V69.5696M43.5679 69.5696H46.1382V74.7265C46.1382 75.0997 46.1382 75.4899 46.4257 75.7783C46.6793 75.9649 46.9668 76.0666 47.2881 76.0666C47.5925 76.0497 47.8968 75.9479 48.1505 75.7783C48.438 75.4899 48.438 75.1167 48.438 74.7265V69.5696H51.1097V73.9632C51.1097 74.9131 51.1097 76.1684 50.1628 77.1184C49.5033 77.6951 48.5394 78.0683 47.305 78.0683C46.0706 78.0683 45.0221 77.6782 44.3457 77.1184C43.5848 76.355 43.5848 75.4051 43.5848 74.5399V69.5696H43.5679ZM42.5195 75.7952C42.232 76.1854 42.046 76.5586 41.657 76.9487C40.7946 77.8139 39.6617 78.1871 38.4103 78.1871C35.4511 78.1871 34.1152 75.897 34.1152 73.7935C34.1152 71.5883 35.6371 69.2982 38.4103 69.2982C39.7462 69.2982 40.8961 69.6884 41.7416 70.6383C42.0291 70.9267 42.2827 71.249 42.5025 71.5883L40.3042 72.64C40.0168 72.165 39.6278 71.2999 38.4949 71.2999C38.089 71.2999 37.7001 71.4695 37.4465 71.7749C36.787 72.3516 36.787 73.3016 36.787 73.59C36.787 74.8283 37.2604 76.0836 38.5963 76.0836C39.7462 76.0836 40.1182 74.9301 40.2197 74.6417L42.5195 75.7952ZM27.1821 75.0319C27.3681 75.4051 27.5541 75.7104 28.332 75.897C28.6194 76.0836 29.0929 76.0836 29.4818 76.0836C29.6679 76.0836 30.7163 76.0836 30.7163 75.5069C30.7163 75.4051 30.7163 75.1167 30.2428 74.9301C29.5495 74.7605 28.8562 74.6248 28.146 74.5569C27.385 74.3703 25.8631 73.8953 25.8631 72.0633C25.88 71.707 25.9477 71.3508 26.0491 71.0115C26.6241 69.7732 28.0445 69.2813 29.4818 69.2813C30.3781 69.2643 31.2574 69.4679 32.0522 69.858C32.5087 70.0785 32.8977 70.4008 33.202 70.808L31.5787 72.1481C31.4434 71.9106 31.2405 71.724 31.0037 71.5713C30.4795 71.3847 29.9384 71.2829 29.3804 71.2829C29.0084 71.2829 28.518 71.3847 28.518 71.8597C28.518 72.2329 28.89 72.3347 29.6679 72.4365C31.4772 72.8097 33.2866 73.098 33.2866 75.2015C33.2866 75.88 33.016 76.5416 32.5256 77.0166C31.4772 78.1701 29.8539 78.1701 29.3804 78.1701C28.7378 78.1701 28.0952 78.0683 27.4696 77.8817C26.1337 77.5085 25.5587 76.7282 25.1867 76.2532L27.1821 75.0319ZM17.3743 69.5696H23.9523V71.3847H20.0461V72.6231H23.6648V74.4382H20.0461V76.0666H24.3412V77.8817H17.3743V69.5696ZM10.9823 71.2999V73.1998H12.1322C12.5042 73.1998 13.3666 73.1998 13.3666 72.2499C13.3666 71.2999 12.5042 71.2999 12.1322 71.2999H10.9823ZM8.41199 69.5696H12.5042C13.2652 69.5696 14.0261 69.5696 14.4996 69.858C15.6495 70.333 15.9369 71.3847 15.9369 72.2499C15.9369 72.5382 15.9369 73.3016 15.362 73.8784C14.99 74.2516 14.7025 74.3533 14.3136 74.5399L16.309 77.8817H13.3666L11.7433 74.9131H10.9823V77.8817H8.41199V69.5696Z" fill="#EEEEEE"/>
</svg>
