<svg width="146" height="49" viewBox="0 0 146 49" fill="none" xmlns="http://www.w3.org/2000/svg">
<path d="M127.418 30.534C127.418 31.5469 128.033 32.3546 129.751 32.3546C131.771 32.3546 133.928 31.202 134.055 28.578C133.11 28.4558 132.161 28.3903 131.206 28.3728C129.175 28.3728 127.418 28.8225 127.418 30.534Z" fill="#353535"/>
<path d="M0 0.5V48.2818H146V0.5H0ZM41.3334 36.5354H33.2591V25.4434C33.2591 22.0405 32.1476 20.7263 29.9674 20.7263C27.3169 20.7263 26.2428 22.6459 26.2428 25.3998V32.26H28.7971V36.5354H20.7228V25.4434C20.7228 22.0405 19.6113 20.7263 17.4311 20.7263C14.7806 20.7263 13.7065 22.6459 13.7065 25.3998V32.26H17.3776V36.5354H5.60552V32.26H8.17049V21.1244H5.39712V16.849H13.6905V19.8156C14.8447 17.7215 16.8593 16.4564 19.5525 16.4564C22.2457 16.4564 24.9015 17.8088 25.842 20.6936C26.9108 18.076 29.091 16.4564 32.1315 16.4564C35.5942 16.4564 38.7631 18.5941 38.7631 23.2675V32.2655H41.328V36.5354H41.3334ZM53.6078 36.9717C47.6603 36.9717 43.5563 33.258 43.5563 26.9758C43.5563 21.2116 46.9763 16.4509 53.9017 16.4509C60.8271 16.4509 64.215 21.2116 64.215 26.7086C64.215 32.9962 59.7691 36.9717 53.6131 36.9717H53.6078ZM84.3233 36.5354H67.464L66.9082 33.5634L77.5047 21.1189H71.4717L70.6167 24.1782L66.6357 23.742L67.3197 16.8435H84.2805L84.708 19.8156L74.01 32.2655H80.246L81.1438 29.2062L85.5096 29.6424L84.3233 36.5354ZM94.7595 36.5354H88.9829V29.4625H94.7595V36.5354ZM94.7595 23.9165H88.9829V16.849H94.7595V23.9165ZM97.7893 36.5354L106.142 6.50954H111.576L103.235 36.5354H97.7947H97.7893ZM109 36.5354L117.347 6.50954H122.782L114.446 36.5354H109.006H109ZM137.749 36.9717C135.184 36.9717 133.774 35.4393 133.517 33.0398C132.406 35.0467 130.434 36.9717 127.313 36.9717C124.54 36.9717 121.366 35.4393 121.366 31.3384C121.366 26.4904 125.945 25.3561 130.348 25.3561C131.406 25.3452 132.464 25.4052 133.517 25.5306V24.8763C133.517 22.8694 133.474 20.47 130.348 20.47C129.194 20.47 128.296 20.5572 127.393 21.0371L126.677 23.8292L122.269 23.3493L123.124 18.245C126.501 16.849 128.216 16.44 131.38 16.44C135.532 16.44 139.037 18.6213 139.037 23.1203V31.6765C139.037 32.8108 139.465 33.2089 140.362 33.2089C140.64 33.2089 140.913 33.1598 141.175 33.078L141.217 36.0501C140.149 36.6445 138.957 36.9608 137.744 36.9771H137.739L137.749 36.9717Z" fill="#353535"/>
<path d="M53.6878 20.4092C50.8668 20.4092 49.1091 22.5591 49.1091 26.2942C49.1091 29.7165 50.6478 32.3546 53.6504 32.3546C56.653 32.3546 58.4 29.9853 58.4 26.2064C58.3947 22.2081 56.3003 20.4092 53.6878 20.4092Z" fill="#353535"/>
</svg>
