<svg width="82" height="90" viewBox="0 0 82 90" fill="none" xmlns="http://www.w3.org/2000/svg">
<g clip-path="url(#clip0_98_451)">
<path d="M57.7515 28.051C58.7242 27.7145 60.1235 26.8762 61.409 26.4884C62.1712 26.2603 62.9903 26.6024 63.3088 27.3324C63.3088 27.3324 67.5465 36.2062 71.932 46.4258C76.7328 57.6093 81.7327 70.2413 81.8805 70.5835C82.1024 71.091 81.9317 71.6613 81.5222 71.9351C80.9477 72.3172 80.3675 72.0662 80.0319 71.6442C80.0319 71.6442 74.1731 61.647 72.0856 58.2195C71.6476 57.5009 70.4929 57.6834 70.3223 58.5332C69.9526 60.3296 69.6454 63.1126 68.8434 64.9832C68.6386 65.4565 68.1039 65.6447 67.6489 65.3995C66.5624 64.8178 65.6353 63.9681 64.9698 62.9301L64.7138 62.5309C64.2644 61.8352 63.9345 61.0767 63.7241 60.2726L63.1609 58.094C63.087 57.8032 62.9675 57.5295 62.8538 57.25C62.6376 56.7196 62.1826 55.7558 61.9266 55.2882C61.5626 54.6267 60.624 54.6267 60.3339 55.3281L59.6286 57.0447C59.2873 57.8773 58.5706 58.499 57.7003 58.7271C57.177 58.8696 56.9268 58.8982 56.5627 58.9723C56.2556 59.0293 56.0053 59.2517 55.9029 59.5483C55.6185 60.398 55.135 61.8808 54.7596 62.7533C54.515 63.3179 53.8779 63.4548 53.3603 63.1126C52.6379 62.6393 52.1772 62.0747 51.7335 61.6641C50.6072 60.6261 49.7882 59.2974 49.4582 57.8032L48.7358 54.5411C48.5709 53.7997 48.2751 53.104 47.9281 52.431C47.4333 51.4672 46.5289 49.8362 45.9714 48.9237C45.4481 48.074 44.356 48.1995 44.2252 49.1975C43.9692 51.1422 43.3719 54.1932 42.8486 55.7159C42.496 56.7424 41.6655 56.4858 41.2844 56.0467C41.1081 55.8471 40.4596 54.8605 40.2719 54.621C39.7543 53.9537 38.2583 53.6458 37.7805 56.098C37.3653 58.2195 36.3812 61.4531 35.7328 63.1525C35.4484 63.9053 34.5383 64.0422 34.1174 63.3579C33.2869 62.012 32.3142 59.9532 31.7113 58.8183C31.2847 58.0085 30.4599 57.4895 29.5498 57.4553L29.1403 57.4382C28.1505 57.3983 27.2746 56.7938 26.8821 55.8813L25.5738 52.8074C25.4202 52.4481 25.1472 52.1516 24.8002 51.9691L23.6057 51.3361C22.6615 50.8342 21.8367 50.1442 21.1712 49.3058L20.5228 48.5017C19.624 47.1444 18.0541 47.3098 17.5934 49.1632C17.0359 51.3874 15.3921 56.7653 14.6867 58.4875C14.4365 59.1035 13.7368 59.286 13.2476 58.8411C12.275 57.9629 11.8484 56.4402 10.9838 55.8813C10.3695 55.4821 9.68688 55.6703 9.40816 56.2007C7.44576 59.9703 2.0591 71.5188 2.0591 71.5188C1.67231 72.1917 0.824778 72.2145 0.466426 71.8837C-0.102386 71.3591 -0.0227525 70.7032 0.159267 70.2014C0.159267 70.2014 4.19215 56.2007 5.73363 51.5528C7.44007 46.4144 9.65275 40.7058 9.65275 40.7058C9.95422 39.7876 10.6254 39.0405 11.5071 38.647L12.9575 37.9912C13.7368 37.6376 14.3568 37.0103 14.6981 36.2233C15.6822 33.9364 17.6389 29.3855 18.6457 27.0359C18.8903 26.4599 19.4079 26.0493 20.0165 25.9295C20.8072 25.7755 21.6149 25.5987 22.1382 25.479C22.8378 25.3136 23.4351 24.8459 23.7764 24.2129L32.2005 8.74655C32.5304 8.14204 33.0878 7.69721 33.7476 7.50901L35.71 6.94442C36.2049 6.80185 36.6372 6.48248 36.9159 6.04906L40.2435 0.882202C40.5791 0.357532 41.3356 0.346126 41.6883 0.853687C43.4573 3.42001 46.7507 9.90995 49.3502 14.786C51.7506 19.2913 54.3671 24.9828 55.5502 27.1613C55.9768 27.9483 56.9097 28.3247 57.7572 28.0282L57.7515 28.051ZM0 89.2207V79.3147H4.89179C6.10905 79.3147 7.00777 79.4915 7.58227 79.845C8.3331 80.307 8.70852 80.9742 8.70852 81.8582C8.70852 82.7421 8.28191 83.4094 7.42869 83.9626C7.93493 84.0994 8.3331 84.3675 8.62888 84.7667C8.92467 85.1659 9.07256 85.662 9.07256 86.2551C9.07256 86.6771 9.0043 87.0649 8.86779 87.4071C8.73127 87.7493 8.54356 88.0402 8.29329 88.274C8.12264 88.4451 7.87805 88.6047 7.55952 88.7644C7.24098 88.9241 6.91676 89.0382 6.60391 89.1066C6.29107 89.175 5.75069 89.215 4.98849 89.215H0V89.2207ZM3.13416 81.5445V83.2896H4.3571C4.85766 83.2896 5.20463 83.2098 5.40372 83.0501C5.6028 82.8904 5.6995 82.6794 5.6995 82.4228C5.6995 82.2289 5.64262 82.0578 5.52317 81.9095C5.40372 81.7612 5.25583 81.6586 5.06243 81.6072C4.92023 81.5673 4.62444 81.5445 4.16371 81.5445H3.12847H3.13416ZM3.13416 85.0746V86.9509H4.4538C5.08518 86.9509 5.5061 86.8653 5.71088 86.7C5.91565 86.5346 6.02372 86.2951 6.02372 85.9985C6.02372 85.702 5.92134 85.4738 5.71657 85.3141C5.51179 85.1545 5.09087 85.0746 4.44811 85.0746H3.12847H3.13416ZM14.3682 79.3147H17.5934V85.4168C17.5934 85.8217 17.6446 86.1297 17.7413 86.335C17.838 86.5403 18.0143 86.7114 18.2703 86.8425C18.5262 86.9737 18.8163 87.0364 19.1405 87.0364C19.6183 87.0364 19.9881 86.9053 20.2497 86.6486C20.5114 86.392 20.6422 85.9814 20.6422 85.4168V79.3147H23.8674V85.0974C23.8674 85.8274 23.8105 86.4034 23.6967 86.8254C23.583 87.2474 23.3953 87.6238 23.1336 87.9489C22.8719 88.274 22.5534 88.5534 22.178 88.7872C21.8026 89.0211 21.3589 89.1979 20.847 89.3176C20.335 89.4374 19.7833 89.5001 19.1804 89.5001C18.4807 89.5001 17.8778 89.4374 17.3602 89.3176C16.8425 89.1979 16.4046 89.0154 16.0291 88.7758C15.6537 88.5363 15.3409 88.2626 15.0906 87.9375C14.8403 87.6124 14.6412 87.1904 14.4933 86.6486C14.4023 86.3065 14.3568 85.7818 14.3568 85.0689V79.309L14.3682 79.3147ZM29.345 89.2207V79.3147H34.1743C34.8511 79.3147 35.4199 79.3489 35.875 79.423C36.3301 79.4972 36.7112 79.6112 37.0069 79.7652C37.3027 79.9192 37.5587 80.1188 37.7635 80.3583C37.9682 80.5978 38.1218 80.8487 38.2242 81.1168C38.3266 81.3848 38.3778 81.7213 38.3778 82.1205C38.3778 82.6167 38.2981 83.033 38.1446 83.3694C37.991 83.7059 37.7691 83.9854 37.479 84.2021C37.28 84.3561 37.024 84.4758 36.7168 84.5557C37.3539 84.7952 37.7862 85.0632 38.008 85.3598C38.2299 85.6563 38.355 86.1468 38.3778 86.8425L38.4233 88.4051C38.4347 88.6333 38.4574 88.7644 38.4915 88.8101C38.537 88.8671 38.6167 88.9013 38.7361 88.9127V89.2207H35.4541C35.3631 88.9526 35.3119 88.4964 35.2948 87.8463L35.2721 87.1163C35.2721 86.7798 35.2152 86.5175 35.1128 86.335C35.0104 86.1525 34.8568 86.0099 34.6521 85.913C34.4473 85.816 34.1401 85.7704 33.7249 85.7704H32.4678V89.2207H29.3337H29.345ZM32.4792 83.6033H34.0264C34.5269 83.6033 34.8796 83.5177 35.0844 83.3466C35.2891 83.1756 35.3915 82.9417 35.3915 82.6509C35.3915 82.36 35.2948 82.1148 35.1014 81.9494C34.908 81.784 34.561 81.6985 34.0719 81.6985H32.4849V83.6033H32.4792ZM43.2525 79.3147H52.3251V81.9209H49.4014V89.2207H46.1762V81.9209H43.2525V79.3147ZM66.7217 86.8197C66.3406 87.6067 65.7604 88.2512 64.9811 88.7416C64.2019 89.2321 63.2519 89.4773 62.1314 89.4773C60.5501 89.4773 59.2873 88.9982 58.3431 88.0459C57.3989 87.0935 56.9268 85.8274 56.9268 84.2477C56.9268 83.4949 57.0348 82.8163 57.251 82.2118C57.4671 81.6072 57.7629 81.1054 58.1326 80.6948C58.5024 80.2842 58.8892 79.9648 59.2873 79.7481C59.6855 79.5314 60.1235 79.3546 60.5899 79.2348C61.0563 79.1151 61.5512 79.0523 62.0631 79.0523C63.0415 79.0523 63.9345 79.2576 64.7536 79.6682C65.5727 80.0789 66.1984 80.672 66.6307 81.4533C67.063 82.2346 67.2791 83.1299 67.2791 84.145C67.2791 85.1602 67.0857 86.027 66.7046 86.8197M62.0859 87.0364C62.4556 87.0364 62.7912 86.9452 63.0927 86.757C63.3941 86.5688 63.6387 86.2608 63.8208 85.8331C64.0028 85.4054 64.0938 84.8807 64.0938 84.2591C64.0938 83.8143 64.0483 83.4151 63.963 83.0672C63.8776 82.7193 63.7525 82.4399 63.6046 82.2232C63.4567 82.0064 63.2519 81.8297 63.0017 81.6814C62.7514 81.5331 62.467 81.4647 62.1484 81.4647C61.7958 81.4647 61.4602 81.5673 61.1473 81.7669C60.8345 81.9665 60.5842 82.2802 60.4022 82.6965C60.2202 83.1128 60.1292 83.6375 60.1292 84.2591C60.1292 85.1887 60.3396 85.913 60.7605 86.4376C61.0905 86.8368 61.5341 87.0364 62.0859 87.0364ZM72.4724 89.2207V79.3147H75.4871L78.8943 84.6184V79.3147H82V89.2207H78.917L75.5895 84.0481V89.2207H72.4781H72.4724Z" fill="#353535"/>
</g>
<defs>
<clipPath id="clip0_98_451">
<rect width="82" height="89" fill="white" transform="translate(0 0.5)"/>
</clipPath>
</defs>
</svg>
