<svg width="153" height="37" viewBox="0 0 153 37" fill="none" xmlns="http://www.w3.org/2000/svg">
<path d="M24.7619 25.4861C24.7619 32.6104 19.6465 36.3357 12.8115 36.3357C4.41317 36.333 0 31.9504 0 24.4452V23.4565H7.59106V24.1713C7.59106 27.7322 9.36709 29.7017 12.7577 29.7017C15.0719 29.7017 16.5276 28.6061 16.5302 26.5791C16.5302 24.7713 15.5588 23.8974 13.5163 23.24L8.34708 21.5965C3.66226 20.1174 0.32804 17.4304 0.32804 11.3496C0.330603 4.88261 4.85397 0.5 11.9581 0.5C20.0335 0.5 24.2288 5.32348 24.2263 12.4452V13.4887H16.6916V12.7765C16.6916 9.32261 15.1847 7.18609 11.9017 7.18609C9.69256 7.18609 8.34708 8.33913 8.34708 10.3661C8.34708 11.9522 9.26201 12.9409 11.038 13.5435L16.0458 15.2443C21.643 17.1043 24.7645 19.9009 24.7619 25.4887M42.207 17.7617L52.2122 35.6783H43.1168L37.4658 25.1026L31.9173 35.6783H23.1422L33.1628 18.0357L23.8572 1.15478H32.9527L37.9015 10.8539L42.8579 1.15478H51.5766L42.207 17.7591V17.7617ZM75.9567 25.4887C75.9567 32.613 70.8387 36.3383 64.0037 36.3383C55.6054 36.3383 51.1948 31.9557 51.1973 24.4504V23.4617H58.7884V24.1765C58.7884 27.7374 60.5619 29.707 63.9525 29.707C66.2692 29.707 67.7224 28.6113 67.7249 26.5843C67.7249 24.7765 66.7587 23.9026 64.7111 23.2452L59.5444 21.6017C54.8622 20.1226 51.5254 17.4357 51.5279 11.3548C51.5279 4.88783 56.0539 0.505217 63.158 0.505217C71.2334 0.505217 75.4313 5.3287 75.4313 12.4504V13.4939H67.8941V12.7817C67.8941 9.32783 66.3897 7.1913 63.1042 7.1913C60.895 7.1913 59.5495 8.34435 59.5495 10.3713C59.5495 11.9574 60.4645 12.9461 62.2431 13.5487L67.2457 15.2496C72.8429 17.1096 75.9669 19.9061 75.9644 25.4939M106.49 1.15478H114.404L108.041 35.6757H98.6196L95.4494 13.5409H95.2367L92.0537 35.6757H82.6328L76.2899 1.15478H84.7395L88.2864 23.347H88.5017L91.7385 1.15478H99.4936L102.715 23.347H102.93L106.487 1.15478H106.49ZM111.436 33.2078C110.78 33.2078 110.239 33.727 110.239 34.4443C110.239 35.1591 110.78 35.6783 111.436 35.6783C112.092 35.6783 112.643 35.1591 112.643 34.4443C112.643 33.727 112.103 33.2078 111.436 33.2078ZM111.436 35.4696C110.896 35.4696 110.455 35.0391 110.457 34.447C110.457 33.8443 110.896 33.4217 111.439 33.4217C111.982 33.4217 112.428 33.847 112.428 34.447C112.428 35.0391 111.99 35.4696 111.439 35.4696H111.436ZM111.987 34.7887C111.974 34.6322 111.895 34.5591 111.757 34.5304C111.918 34.5043 112.036 34.3817 112.036 34.1939C112.036 33.9461 111.872 33.7896 111.546 33.7896H110.929V35.0835H111.252V34.653H111.459C111.593 34.653 111.652 34.7 111.657 34.8487C111.67 34.9896 111.685 35.0496 111.716 35.0861H112.056C112.01 35.0391 112 34.9791 111.99 34.7913L111.987 34.7887ZM111.464 34.3974H111.252V34.0583H111.464C111.616 34.0583 111.698 34.1104 111.698 34.2278C111.698 34.3452 111.618 34.3974 111.464 34.3974ZM152.593 7.76261L133.894 26.733H152.58V35.6704H118.663L118.674 1.14696H127.451L127.446 20.0783L146.098 1.15217L152.593 7.76261Z" fill="#353535"/>
</svg>
