<svg width="174" height="47" viewBox="0 0 174 47" fill="none" xmlns="http://www.w3.org/2000/svg">
<path d="M11.6426 31.4011L11.1071 34.2025L16.4444 31.9151C16.1017 31.1998 15.8318 30.4545 15.6305 29.6963L11.6426 31.4054V31.4011Z" fill="#353535"/>
<path d="M76.1349 21.1936V21.185L54.5289 0.538551L47.2641 8.10749C44.2614 6.94666 39.541 6.01286 35.9557 6.01286C30.7341 6.01286 25.354 7.7948 21.5974 10.1207L11.4626 0.521417V0.508567H11.4541L11.4455 0.5V0.508567L7.82167 0.889798L0 43.7205L3.64097 44.1017V44.0889L20.1496 36.8712C20.1753 36.8926 20.201 36.9183 20.2267 36.944C24.1546 40.4094 30.0487 42.6154 36.641 42.6154C41.2158 42.6154 45.4522 41.5488 48.9304 39.7411L55.5655 46.115L76.1392 24.6889V21.2021V21.1979L76.1349 21.1936ZM35.7801 6.83101C39.1897 6.83101 43.7431 7.70484 46.6387 8.76287L46.5102 8.89994L43.2976 12.2454L43.289 12.2582C41.2715 11.5814 39.0184 11.2045 36.641 11.2045C32.4946 11.2045 28.7294 12.3567 25.928 14.2329L25.8852 14.1943L22.5183 11.0031L22.2185 10.7204C25.9023 8.49729 30.6784 6.84386 35.7843 6.84386L35.7801 6.83101ZM40.3034 15.3552L34.0195 21.9004L28.5024 16.6702C30.8712 15.6379 33.6554 15.0425 36.6368 15.0425C37.9004 15.0425 39.1255 15.1538 40.3034 15.3552ZM3.80375 43.1893L11.3341 1.23676L22.0857 11.4272L25.4525 14.6184L28.0269 17.06L34.1352 22.8856V25.5413L36.731 28.0386L28.618 31.731C26.7847 30.9557 25.1913 29.9148 23.9448 28.6726C23.9148 28.6426 23.8934 28.6126 23.8634 28.5826L30.0873 25.6741L15.4463 12.0397L15.1593 11.7485L14.8081 13.6375L11.3513 31.6582L10.8158 34.4596L11.7325 34.0655V34.0441L16.4401 32.0265C17.1768 33.5772 18.2306 35.0164 19.5413 36.3058L3.79946 43.1893H3.80375ZM38.0546 29.298L41.5585 32.6648C39.9265 33.0632 38.2259 33.2688 36.504 33.2688C34.3537 33.2688 32.2719 32.9603 30.3186 32.3521C30.0573 32.2707 29.8046 32.1807 29.5519 32.0908L37.3221 28.5955L38.0546 29.298ZM22.574 26.9806C22.5355 26.9249 22.4884 26.8692 22.4541 26.8135C21.9401 25.9954 21.5674 25.1387 21.3575 24.2691C21.3361 24.1792 21.3275 24.0849 21.3061 23.995C21.5546 23.1169 21.9486 22.2773 22.4669 21.4891L26.5448 25.5242L22.574 26.9892V26.9806ZM14.7438 25.0102C14.7438 25.0359 14.7566 25.0573 14.7609 25.083C14.7524 25.1815 14.7438 25.2715 14.7438 25.3443C14.7438 26.3766 15.3778 28.8268 15.6305 29.8034L12.2765 31.2384L15.4763 14.5627L16.7913 15.8606C15.3221 18.0966 14.5725 20.4997 14.5725 23.0055C14.5725 23.6566 14.6281 24.3077 14.7438 25.0059V25.0102ZM48.4635 35.826C47.6753 36.2244 46.84 36.5885 45.9791 36.9055C43.0235 37.9977 39.8322 38.5503 36.504 38.5503C31.7836 38.5503 27.3116 37.428 23.5807 35.3034C21.516 34.1297 19.7855 32.7033 18.4276 31.0713C17.9093 30.4459 17.451 29.7948 17.0655 29.1309C16.2687 27.773 15.7461 26.3423 15.5063 24.8817C15.3992 24.2306 15.3478 23.618 15.3478 23.0098C15.3478 20.7481 15.9946 18.5721 17.2753 16.5331L20.7107 20.0113C20.4751 20.8081 20.3595 21.6176 20.3595 22.4229C20.3595 23.0912 20.4451 23.7765 20.6079 24.449C20.8435 25.4043 21.2462 26.3381 21.803 27.2247C22.2442 27.9272 22.7839 28.5997 23.405 29.2166C25.1099 30.9171 27.423 32.2579 30.0916 33.0889C32.1177 33.7185 34.2766 34.0398 36.504 34.0398C38.303 34.0398 40.0807 33.8256 41.7898 33.4016C42.7622 33.1574 43.7002 32.849 44.5784 32.4849C46.6002 31.6453 48.3778 30.4716 49.7228 29.0923C51.0893 27.6916 51.9888 26.1282 52.4 24.4448C52.5671 23.768 52.6485 23.0826 52.6485 22.4187C52.6485 20.5039 51.9288 18.3408 50.7552 16.6873L53.6765 13.6418C56.1781 16.2504 57.6602 19.7201 57.6602 23.0098C57.6602 23.6138 57.6088 24.2434 57.5017 24.8817C57.0519 27.636 55.587 30.2617 53.2739 32.472C51.916 33.7699 50.3011 34.8965 48.4635 35.8217V35.826ZM49.3073 28.407L44.21 23.4424L48.5277 18.9447C50.0612 20.2255 51.2006 21.7547 51.8003 23.4338C51.7618 23.708 51.7147 23.9864 51.6504 24.2606C51.2863 25.7469 50.4982 27.1391 49.3116 28.4027L49.3073 28.407ZM58.2856 24.8474C58.3798 24.222 58.4355 23.6052 58.4355 23.0098C58.4355 19.5059 56.8506 15.8135 54.1862 13.0592L54.8802 12.3353L65.6746 22.7014L56.7349 32.0094C57.6859 29.8034 58.2984 27.0791 58.2984 25.1258C58.2984 25.0444 58.2941 24.9459 58.2856 24.8431V24.8474ZM55.5613 42.6111L51.1749 38.3961C52.9012 37.2139 54.3576 35.8303 55.4841 34.2882C55.5013 34.2668 55.5141 34.2454 55.527 34.224L66.1972 23.1426L66.5142 22.7999L67.9063 21.3521L54.8759 8.83997L51.946 11.8898L48.7162 15.2566L46.5145 17.5483L42.3638 21.8704L42.004 22.2473L43.2162 23.4081L48.8319 28.8825C47.6025 30.0433 46.039 31.0413 44.2785 31.7738L40.5733 28.2185L36.9366 24.7232L34.4607 22.3758L40.342 16.2461L43.2976 13.1663L46.5102 9.82089L54.5289 1.46807L75.6509 21.6862L55.5613 42.6111Z" fill="#353535"/>
<path d="M166.106 31.384C167.288 31.384 168.252 32.335 168.252 33.5215C168.252 34.708 167.301 35.6675 166.106 35.6675C164.91 35.6675 163.968 34.7294 163.968 33.5215C163.968 32.3136 164.91 31.384 166.106 31.384ZM166.106 35.402C167.151 35.402 167.986 34.5667 167.986 33.5301C167.986 32.4935 167.151 31.6496 166.106 31.6496C165.06 31.6496 164.234 32.4849 164.234 33.5215C164.234 34.5581 165.06 35.402 166.106 35.402ZM165.279 32.4292C165.386 32.4206 165.403 32.4121 165.617 32.3949C165.831 32.3778 165.921 32.3692 166.016 32.3692C166.718 32.3692 167.065 32.6434 167.065 33.166C167.065 33.4787 166.932 33.6714 166.65 33.7785L166.615 33.7871C166.641 33.8042 166.65 33.8128 166.658 33.8299C166.731 33.8984 166.979 34.2711 167.189 34.6095H166.388C166.221 34.3011 166.174 34.2197 165.964 33.8727V34.6095H165.279V32.4335V32.4292ZM166.046 33.4572C166.234 33.4572 166.345 33.3673 166.345 33.1917C166.345 33.016 166.247 32.9347 166.054 32.9347C166.011 32.9347 166.003 32.9347 165.964 32.9432V33.4487C165.998 33.4572 166.016 33.4572 166.046 33.4572Z" fill="#353535"/>
<path d="M81.1381 11.123H98.1393L96.5372 17.6682H88.39L87.5847 21.1079H96.0875L94.6054 27.1733H86.214L84.2008 35.7917H75.4196L81.1423 11.123H81.1381Z" fill="#353535"/>
<path d="M100.452 11.123H109.233L103.511 35.7917H94.7296L100.452 11.123Z" fill="#353535"/>
<path d="M111.534 11.2687L112.099 11.1959C114.918 10.8618 118.426 10.6433 120.358 10.6433C123.579 10.6433 126.081 11.0117 127.974 11.7913C130.39 12.7893 131.842 14.9739 131.842 17.5997C131.842 19.8571 131.075 22.0031 129.627 23.6651C128.376 25.1087 127.25 25.8112 124.915 26.5137L124.35 26.6979C124.59 26.8821 124.671 26.9592 124.795 27.0662C125.481 27.8416 127.537 31.8381 129.267 35.796H119.6C118.349 32.2835 117.989 31.3583 116.336 27.3618L114.404 35.796H105.862L111.542 11.273L111.534 11.2687ZM118.019 22.8855C120.837 22.8855 122.812 21.2193 122.812 18.8548C122.812 17.5954 121.887 16.97 120.071 16.97C119.548 16.97 119.265 17.0086 118.7 17.12L117.372 22.817C117.655 22.8556 117.693 22.8898 118.015 22.8898L118.019 22.8855Z" fill="#353535"/>
<path d="M152.69 11.123H174L172.509 18.2636H166.183L161.993 35.7917H153.212L157.401 18.2636H150.548L152.69 11.123Z" fill="#353535"/>
<path d="M130.124 35.1665C132.591 35.8989 135.294 36.3102 137.817 36.3102C141.244 36.3102 143.861 35.5349 146.114 33.9071C148.612 32.1295 150.222 29.3966 150.222 26.9165C150.222 25.2502 149.498 23.7338 148.209 22.6629C147.202 21.8491 146.153 21.2194 144.02 20.2213L142.289 19.4075C141.724 19.1119 141.441 18.8164 141.441 18.4822C141.441 17.5956 142.568 16.9273 144.101 16.9273C145.245 16.9273 146.611 17.2614 149.22 18.1139L151.019 11.4359C149.07 10.9047 147.168 10.6392 145.266 10.6392C138.096 10.6392 132.574 14.5586 132.574 19.6259C132.574 22.2903 134.348 24.175 138.777 26.2482C140.871 27.2077 141.235 27.469 141.235 28.133C141.235 29.131 140.147 29.7607 138.374 29.7607C136.802 29.7607 134.789 29.2809 132.047 28.2829L130.12 35.1622L130.124 35.1665Z" fill="#353535"/>
</svg>
