<svg width="178" height="41" viewBox="0 0 178 41" fill="none" xmlns="http://www.w3.org/2000/svg">
<path d="M132.847 11.4557C131.741 11.4578 130.646 11.6839 129.628 12.1207C128.61 12.5575 127.69 13.1961 126.921 13.9986V5.42714C126.919 5.29553 126.866 5.16981 126.774 5.07728C126.681 4.98474 126.556 4.93285 126.425 4.93286H123.406C123.276 4.93285 123.151 4.98474 123.058 5.07728C122.965 5.16981 122.912 5.29553 122.911 5.42714V28.6C122.912 28.7316 122.965 28.8573 123.058 28.9499C123.151 29.0424 123.276 29.0943 123.406 29.0943H126.425C126.556 29.0943 126.681 29.0424 126.774 28.9499C126.866 28.8573 126.919 28.7316 126.921 28.6V27.0029C127.688 27.8071 128.609 28.4467 129.627 28.8833C130.645 29.32 131.74 29.5448 132.847 29.5443C137.556 29.5443 141.363 25.4943 141.363 20.5C141.363 15.5057 137.556 11.4557 132.847 11.4557ZM132.149 25.9214C129.287 25.9214 126.966 23.5371 126.945 20.5671V20.4314C126.99 17.4614 129.289 15.0771 132.149 15.0771C135.034 15.0771 137.353 17.5071 137.353 20.4986C137.353 23.49 135.009 25.9214 132.149 25.9214ZM152.472 11.4557C147.38 11.4557 143.257 15.5057 143.257 20.5C143.257 25.4943 147.38 29.5443 152.472 29.5443C157.565 29.5443 161.688 25.4943 161.688 20.5C161.688 15.5057 157.565 11.4557 152.472 11.4557ZM152.45 25.9214C149.565 25.9214 147.245 23.4914 147.245 20.5C147.245 17.5086 149.588 15.0786 152.45 15.0786C155.312 15.0786 157.654 17.5086 157.654 20.5C157.654 23.4914 155.312 25.9214 152.45 25.9214ZM96.1207 11.9057H93.1017C92.9713 11.9057 92.8462 11.9576 92.7534 12.0501C92.6607 12.1427 92.6079 12.2684 92.6064 12.4V13.9971C91.8389 13.1927 90.9184 12.5528 89.9001 12.1159C88.8819 11.6789 87.7867 11.4539 86.6802 11.4543C81.9713 11.4543 78.1639 15.5043 78.1639 20.4986C78.1639 25.4929 81.9713 29.5429 86.6802 29.5429C87.7863 29.5408 88.8808 29.3146 89.8987 28.8779C90.9167 28.4411 91.8374 27.8025 92.6064 27V28.5971C92.6079 28.7288 92.6607 28.8545 92.7534 28.947C92.8462 29.0395 92.9713 29.0914 93.1017 29.0914H96.1207C96.2511 29.0914 96.3763 29.0395 96.469 28.947C96.5618 28.8545 96.6146 28.7288 96.6161 28.5971V12.4014C96.6146 12.2698 96.5618 12.1441 96.469 12.0516C96.3763 11.959 96.2511 11.9057 96.1207 11.9057ZM87.378 25.9214C84.4935 25.9214 82.1737 23.4914 82.1737 20.5C82.1737 17.5086 84.5175 15.0786 87.378 15.0786C90.2384 15.0786 92.5597 17.4629 92.5823 20.4329V20.5686C92.5597 23.5386 90.2384 25.9214 87.378 25.9214ZM111.194 11.4557C110.088 11.4578 108.994 11.6839 107.976 12.1207C106.958 12.5575 106.037 13.1961 105.268 13.9986V12.4014C105.267 12.2698 105.214 12.1441 105.121 12.0516C105.028 11.959 104.903 11.9071 104.773 11.9071H101.754C101.624 11.9071 101.498 11.959 101.406 12.0516C101.313 12.1441 101.26 12.2698 101.259 12.4014V35.5729C101.26 35.7045 101.313 35.8302 101.406 35.9227C101.498 36.0153 101.624 36.0672 101.754 36.0671H104.773C104.903 36.0672 105.028 36.0153 105.121 35.9227C105.214 35.8302 105.267 35.7045 105.268 35.5729V27.0014C106.036 27.8059 106.956 28.4458 107.975 28.8827C108.993 29.3196 110.088 29.5446 111.194 29.5443C115.903 29.5443 119.711 25.4943 119.711 20.5C119.711 15.5057 115.903 11.4557 111.194 11.4557ZM110.497 25.9214C107.635 25.9214 105.314 23.5371 105.292 20.5671V20.4314C105.338 17.4614 107.636 15.0771 110.497 15.0771C113.381 15.0771 115.701 17.5071 115.701 20.4986C115.701 23.49 113.38 25.9214 110.497 25.9214ZM69.1282 11.4557C68.0247 11.4645 66.9458 11.7853 66.0139 12.3817C65.0819 12.9781 64.3343 13.8263 63.8559 14.83C62.7519 12.7371 60.5439 11.4329 58.1774 11.4557C57.2695 11.4572 56.3745 11.6737 55.5645 12.0878C54.7546 12.5019 54.0522 13.102 53.5138 13.84V12.4014C53.5123 12.2698 53.4595 12.1441 53.3667 12.0516C53.274 11.959 53.1488 11.9071 53.0184 11.9071H49.9994C49.869 11.9071 49.7439 11.959 49.6511 12.0516C49.5584 12.1441 49.5055 12.2698 49.5041 12.4014V28.6C49.5055 28.7316 49.5584 28.8573 49.6511 28.9499C49.7439 29.0424 49.869 29.0943 49.9994 29.0943H53.0184C53.1488 29.0943 53.274 29.0424 53.3667 28.9499C53.4595 28.8573 53.5123 28.7316 53.5138 28.6V18.9043C53.627 16.7443 55.1358 15.0129 56.9843 15.0129C58.8993 15.0129 60.4987 16.61 60.4987 18.7029V28.6014C60.5001 28.733 60.553 28.8588 60.6457 28.9513C60.7385 29.0438 60.8636 29.0957 60.994 29.0957H64.0357C64.1661 29.0957 64.2912 29.0438 64.384 28.9513C64.4767 28.8588 64.5296 28.733 64.5311 28.6014L64.5084 18.5229C64.7787 16.5429 66.1984 15.0129 67.9336 15.0129C69.8486 15.0129 71.448 16.61 71.448 18.7029V28.6014C71.4495 28.733 71.5023 28.8588 71.5951 28.9513C71.6878 29.0438 71.813 29.0957 71.9434 29.0957H74.985C75.1154 29.0957 75.2405 29.0438 75.3333 28.9513C75.426 28.8588 75.4789 28.733 75.4804 28.6014L75.4577 17.4657C75.4577 14.1357 72.6185 11.4586 69.1268 11.4586L69.1282 11.4557ZM177.932 28.3957L172.705 20.4543L177.887 12.58C178.023 12.3771 177.955 12.0857 177.752 11.95C177.684 11.9043 177.595 11.8829 177.505 11.8829H174.011C173.741 11.8829 173.493 12.0171 173.359 12.2429L170.317 17.35L167.274 12.2657C167.14 12.0414 166.892 11.9057 166.622 11.9057H163.129C162.881 11.9057 162.679 12.1086 162.679 12.3557C162.679 12.4457 162.701 12.5357 162.747 12.6029L167.928 20.4771L162.701 28.4186C162.565 28.6214 162.633 28.9129 162.836 29.0486C162.91 29.0938 162.996 29.1171 163.083 29.1157H166.577C166.847 29.1157 167.095 28.98 167.23 28.7557L170.339 23.5814L173.448 28.7557C173.584 28.9814 173.832 29.1157 174.102 29.1157H177.55C177.798 29.1157 178 28.9129 178 28.6657C178 28.5757 177.977 28.4857 177.932 28.3957ZM20.0303 0.5C8.9678 0.5 0 9.45429 0 20.5C0 31.5457 8.9678 40.5 20.0303 40.5C31.0929 40.5 40.0607 31.5457 40.0607 20.5C40.0607 9.45429 31.0943 0.5 20.0303 0.5ZM29.5388 25.4043C22.6884 32.2429 10.4539 30.0614 10.4539 30.0614C10.4539 30.0614 8.24596 17.8686 15.1176 11.0057C18.9249 7.20429 25.2347 7.36143 29.2232 11.32C33.2117 15.2786 33.3462 21.6014 29.5388 25.4029V25.4043ZM22.3289 12.2214L20.3686 16.2486L16.3362 18.2057L20.3686 20.1629L22.3289 24.19L24.2892 20.1629L28.323 18.2057L24.2892 16.2486L22.3289 12.2214Z" fill="#353535"/>
</svg>
