<svg width="142" height="60" viewBox="0 0 142 60" fill="none" xmlns="http://www.w3.org/2000/svg">
<path d="M132.688 26.6778C129.457 25.0002 126.88 23.6508 126.88 21.0739C126.88 19.2333 128.434 18.1289 131.093 18.1289C134.201 18.1289 136.983 19.1513 139.11 20.4197V13.7525C136.901 12.8122 133.833 11.9939 131.093 11.9939C123.321 11.9939 119.844 16.6154 119.844 21.6461C119.844 27.5361 123.813 30.359 128.148 32.6498C132.443 34.9396 134.079 35.9209 134.079 38.3757C134.079 40.4614 132.279 41.6478 129.252 41.6478C125.039 41.6478 122.094 39.7252 120.131 38.1717V45.247C121.931 46.5155 125.816 48.029 129.17 48.029C136.697 48.029 141.483 44.1027 141.483 37.7625C141.523 31.1363 135.92 28.3554 132.688 26.6778ZM75.1793 12.28H65.8531V47.6199H72.8065V36.3721H74.198C82.9099 36.3721 88.3087 31.7495 88.3087 24.305C88.3508 16.7795 83.4421 12.28 75.1793 12.28ZM72.8065 18.1699H74.8522C78.9426 18.1699 81.5605 20.5417 81.5605 24.183C81.5605 28.1503 79.1466 30.399 74.8922 30.399H72.8065V18.1699ZM110.56 28.6005C112.933 26.9639 114.077 24.5511 114.077 21.319C114.077 15.7561 109.988 12.28 103.361 12.28H92.5631V47.6199H103.811C112.442 47.6199 116.368 42.057 116.368 36.9032C116.409 32.8539 114.159 29.7048 110.56 28.6005ZM102.83 18.2509C105.571 18.2509 107.329 19.9285 107.329 22.5874C107.329 25.2463 105.406 26.9639 102.461 26.9639H99.5165V18.293H102.83V18.2509ZM99.5165 41.7299V32.4847H103.934C107.451 32.4847 109.538 34.2023 109.538 37.0663C109.538 40.1333 107.451 41.6878 103.28 41.6878H99.5165V41.7299ZM58.8998 29.9499C58.8998 46.2294 45.7294 59.3998 29.4499 59.3998C13.1704 59.3998 0 46.2294 0 29.9499C0 13.6704 13.1704 0.5 29.4499 0.5C45.7294 0.5 58.8998 13.6704 58.8998 29.9499Z" fill="#353535"/>
<path d="M50.9231 30.2361L47.6521 30.8903V36.9443C47.6521 38.989 45.9745 40.5845 43.8067 40.5845H42.1291V47.6199H36.7303V40.5845H38.4069C40.5746 40.5845 42.2522 38.949 42.2522 36.9443V30.8903L45.5243 30.2361C46.2195 30.073 46.5877 29.2958 46.2605 28.6815L37.6706 12.28H43.0295L51.6183 28.6815C51.9864 29.2958 51.6173 30.113 50.9231 30.2361Z" fill="white"/>
<path d="M39.8794 28.6815L31.2905 12.28H22.4135C14.3568 12.28 7.48448 18.8652 7.68853 26.964C7.81264 32.977 11.6979 37.4765 17.0967 39.1941V47.6199H30.3492V40.5845H32.0268C34.1934 40.5845 35.871 38.949 35.871 36.9443V30.8903L39.1431 30.2361C39.8794 30.114 40.2475 29.2958 39.8794 28.6815ZM28.7557 27.7412C27.8672 27.7376 27.016 27.3831 26.3876 26.7549C25.7592 26.1267 25.4044 25.2757 25.4005 24.3871C25.4044 23.4985 25.7592 22.6475 26.3876 22.0193C27.016 21.3911 27.8672 21.0366 28.7557 21.033C29.6443 21.0368 30.4953 21.3916 31.1235 22.02C31.7518 22.6484 32.1063 23.4996 32.1099 24.3881C32.1057 25.2765 31.7508 26.1273 31.1224 26.7553C30.4941 27.3833 29.6441 27.7376 28.7557 27.7412Z" fill="white"/>
</svg>
