<svg width="89" height="48" viewBox="0 0 89 48" fill="none" xmlns="http://www.w3.org/2000/svg">
<g clip-path="url(#clip0_98_504)">
<path d="M23.5904 0.763184L32.0436 29.212L40.4847 0.763184H63.3868V3.58593L54.7767 18.2977C57.8017 19.2666 60.0901 21.0069 61.6419 23.5485C63.1936 26.0902 63.9786 29.0684 63.9786 32.4892C63.9786 36.7234 62.8434 40.2817 60.5611 43.1643C58.2968 46.0468 55.3503 47.4941 51.7396 47.4941C49.0225 47.4941 46.6556 46.6329 44.6328 44.9225C42.6101 43.2121 41.1187 40.8977 40.1466 37.9733L44.9227 36.0117C45.6231 37.7819 46.5469 39.1753 47.6881 40.192C48.8292 41.2146 50.1817 41.717 51.7335 41.717C53.2853 41.717 54.7404 40.808 55.8695 39.0019C56.9926 37.1958 57.5602 35.0249 57.5602 32.4833C57.5602 29.6784 56.9564 27.5016 55.7488 25.9646C54.354 24.1525 52.1501 23.2495 49.1674 23.2495H46.8367V20.4866L54.994 6.52231H45.1521L44.5845 7.46722L32.6112 47.4881H32.0376L23.2946 18.519L14.5516 47.4881H13.9719L0 0.763184H6.11649L14.5636 29.212L20.2756 10.0508L17.48 0.763184H23.5965H23.5904Z" fill="#353535"/>
<path fill-rule="evenodd" clip-rule="evenodd" d="M87.6777 0.5L84.2239 7.32364C84.2239 7.32364 82.7386 4.60854 81.2714 3.37059C79.8705 2.18647 78.0773 1.09804 75.7828 1.33128C73.5669 1.55853 71.0792 3.48422 69.3946 6.6957C67.4927 10.3497 66.8466 14.0516 66.8345 18.1243C66.8164 23.8415 68.9418 27.7407 68.9418 27.7407C68.9418 27.7407 68.4587 25.9227 68.5372 22.8548C68.5916 20.941 68.6036 18.8539 70.0709 14.548C71.2906 10.9478 74.0861 8.02933 76.5436 7.521C78.4697 7.13227 79.6894 7.41335 81.5793 8.73502C83.8133 10.2959 85.1598 13.1127 85.1598 13.1127L88.6679 6.46246L87.6777 0.5ZM88.1124 34.2594C88.1124 34.2594 86.5606 37.0044 85.5885 38.0569C84.6285 39.1155 82.8895 40.9754 80.7581 41.9083C78.6328 42.8353 77.5097 43.0147 75.3964 42.8114C73.2891 42.614 71.3328 41.406 70.6505 40.8976C69.9562 40.3953 68.2112 38.9121 67.2209 37.5247C66.2247 36.1372 64.679 33.3683 64.679 33.3683C64.679 33.3683 65.5424 36.1432 66.0737 37.3214C66.3877 38.0031 67.3417 40.0783 68.7063 41.8844C69.9682 43.5589 72.4257 46.4654 76.1632 47.1173C79.9007 47.7751 82.4669 46.1125 83.1009 45.7119C83.7409 45.3052 85.0813 44.1988 85.9206 43.2958C86.8082 42.3569 87.6475 41.1608 88.1124 40.4431C88.4505 39.9228 89 38.8583 89 38.8583L88.1124 34.2474V34.2594Z" fill="#353535"/>
</g>
<defs>
<clipPath id="clip0_98_504">
<rect width="89" height="47" fill="white" transform="translate(0 0.5)"/>
</clipPath>
</defs>
</svg>
