<svg xmlns="http://www.w3.org/2000/svg" viewBox="0 0 95.24 93.07"><defs><style>.cls-1{fill:#fff;}</style></defs><title>airbel-icon-5</title><g id="Layer_2" data-name="Layer 2"><g id="Layer_1-2" data-name="Layer 1"><path class="cls-1" d="M48.28,93.07c-2.17,0-4.79,0-9.07-.19-6-.19-12.59-.5-13.25-.69a2.8,2.8,0,0,1-1.61-1.27c-.28-.57-.6-5.37-.74-9.6-.17-4.68-.44-9.24-.61-9.95a2.83,2.83,0,0,1-.06-.37c-.13-.8-.13-.84-9.86-.87H9.92c-8.12,0-9.4-.15-9.78-.85s.15-14,.16-14.11a178.06,178.06,0,0,0,0-20.54c-.5-7.29-.51-7.43.49-8.28s12.81-2.55,19.83-3.07l.51,0c2.69-.18,2.69-.18,2.85-8.33l0-1.45c.21-10.39.21-10.59,3.39-12C29.59.49,35.42,0,44.78,0c2.5,0,5.29,0,8.29.1L69.54.46c4.75.06,4.75.27,4.81,11.26l.05,9.34L79,21c2,0,3.33-.07,4.47-.07,2.09,0,3.47.09,6.57.3l1.08.06c1.45.08,2.49.13,3.17.88,1.25,1.39,1.07,4.82.46,16.2l-.23,4.27C94,53,93.63,63.44,93.73,65.81c.19,4.23.2,4.48-1.06,5.24s-10.08,1.76-16.59,2.13L73,73.35,72.68,78a54.51,54.51,0,0,0,0,7.9c.22,2,.22,3.56-.53,4.46-.54.65-1.4,1-3,1.09-1.16.09-5.62.54-10,1A89.57,89.57,0,0,1,48.28,93.07Zm-9.69-4.29c3.53.16,6.37.26,8.76.26A68.36,68.36,0,0,0,56,88.49c3.7-.42,8-.85,9.68-.95l2.68-.16.1-7.35c.12-8.6.37-10.07,1.8-10.47.5-.14,4-.43,7.07-.63,3.44-.23,7.63-.59,9.36-.8l2.85-.36,0-5.73c0-3.33.15-8.51.29-11.56s.54-9.92.9-15.28l.64-9.47-1.51-.44a27.23,27.23,0,0,0-5.5-.33q-1.86,0-4.29.06c-2.37.07-4.06.1-5.29.1h0c-2.66,0-3.26-.17-3.84-.74-.8-.77-.88-1.82-.79-10.17,0-5,0-8.71-.07-9.38a11.69,11.69,0,0,0-2.91-.3c-1.64,0-8.57-.17-15.41-.32-2.78-.06-5.35-.09-7.66-.09-10.18,0-13.64.6-14.75,1.1l-.95.44-.25,9.49c-.24,9.27-.31,9.86-1.25,10.61-1.12.89-3.38,1.5-6.38,1.72-3.75.28-14.87,1.72-16.18,2.05a44.78,44.78,0,0,0,.16,6c.28,3.95.25,10.33-.06,18.44L4,66l8,0c3.84,0,8,0,9.72-.1.71,0,1.28,0,1.73,0,1.72,0,2.06.25,2.63,1.22.92,1.55,1.31,4.52,1.55,11.77.1,3.26.26,6.76.35,7.8l.14,1.63Z"/></g></g></svg>