<svg width="729" height="728" viewBox="0 0 729 728" fill="none" xmlns="http://www.w3.org/2000/svg">
<rect width="728.562" height="728" rx="20" fill="#511425"/>
<g clip-path="url(#clip0_1018_142)">
<path d="M307.376 270.854C307.376 268.836 308.044 266.868 309.27 265.268L310.429 263.759L311.588 265.268C312.82 266.868 313.482 268.83 313.482 270.854V274.766H319.288V270.854C319.288 268.836 319.956 266.868 321.182 265.268L322.341 263.759L323.5 265.268C324.732 266.868 325.394 268.83 325.394 270.854V274.766H331.2V270.854C331.2 268.836 331.868 266.868 333.094 265.268L334.253 263.759L335.412 265.268C336.644 266.868 337.306 268.83 337.306 270.854V274.766H343.112V270.854C343.112 268.836 343.78 266.868 345.006 265.268L346.165 263.759L347.324 265.268C348.556 266.868 349.218 268.83 349.218 270.854V274.766H358.304V261.435H298.271V274.766H307.357V270.854H307.376Z" fill="white"/>
<path d="M340.09 212.008L329.968 172.968H332.12V171.741H328.925V162.409H327.699V171.741H324.505V172.968H326.657L316.535 212.008H340.096H340.09ZM326.222 180.338H330.391V181.564H326.222V180.338ZM323.874 188.45H332.745V189.676H323.874V188.45ZM322.261 196.562H334.357V197.789H322.261V196.562ZM336.442 204.674V205.901H320.177V204.674H336.442Z" fill="white"/>
<path d="M343.567 234.922H313.054L302.441 260.209H354.185L343.573 234.922H343.567ZM314.875 238.846H341.746V240.072H314.875V238.846ZM311.429 246.958H345.191V248.185H311.429V246.958ZM307.377 256.291V255.064H349.238V256.291H307.377Z" fill="white"/>
<path d="M317.787 223.339C317.787 221.904 318.271 220.482 319.142 219.341L320.178 217.992L321.214 219.341C322.091 220.482 322.569 221.904 322.569 223.339V233.696H325.916V223.339C325.916 221.904 326.401 220.482 327.271 219.341L328.307 217.992L329.343 219.341C330.22 220.482 330.698 221.904 330.698 223.339V233.696H334.046V223.339C334.046 221.904 334.53 220.482 335.401 219.341L336.437 217.992L337.473 219.341C338.349 220.482 338.828 221.904 338.828 223.339V233.696H343.352V213.234H313.25V233.696H317.775V223.339H317.787Z" fill="white"/>
<path d="M328.312 334.47C341.107 334.47 351.511 324.058 351.511 311.267C351.511 298.477 341.101 288.065 328.312 288.065C315.523 288.065 305.113 298.477 305.113 311.267C305.113 324.058 315.523 334.47 328.312 334.47ZM328.925 332.759H327.699V328.767H328.925V332.759ZM338.52 330.183L336.521 326.725L337.582 326.112L339.581 329.57L338.52 330.183ZM346.613 322.543L343.155 320.544L343.768 319.484L347.226 321.483L346.613 322.543ZM346.613 299.991L347.226 301.052L343.768 303.051L343.155 301.99L346.613 299.991ZM338.52 292.351L339.581 292.964L337.582 296.423L336.521 295.809L338.52 292.351ZM327.699 289.776H328.925V293.768H327.699V289.776ZM328.312 308.655C328.57 308.655 328.809 308.704 329.042 308.772L332.542 302.714L329.287 302.462L336.754 296.637L335.442 306.019L333.597 303.327L330.102 309.379C330.458 309.716 330.715 310.157 330.832 310.648H344.056L342.646 307.705L351.425 311.261L342.646 314.818L344.056 311.874H330.832C330.556 313.015 329.532 313.867 328.306 313.867C326.865 313.867 325.7 312.702 325.7 311.261C325.7 309.82 326.865 308.655 328.306 308.655H328.312ZM318.098 292.351L320.097 295.809L319.036 296.423L317.038 292.964L318.098 292.351ZM319.03 326.112L320.091 326.725L318.092 330.183L317.032 329.57L319.03 326.112ZM310.006 299.991L313.463 301.99L312.85 303.051L309.393 301.052L310.006 299.991ZM306.824 310.654H310.815V311.88H306.824V310.654ZM309.393 321.483L312.85 319.484L313.463 320.544L310.006 322.543L309.393 321.483Z" fill="white"/>
<path d="M328.313 338.241C343.187 338.241 355.289 326.137 355.289 311.261C355.289 296.386 343.187 284.282 328.313 284.282C313.44 284.282 301.338 296.386 301.338 311.261C301.338 326.137 313.44 338.241 328.313 338.241ZM328.313 286.833C341.783 286.833 352.738 297.79 352.738 311.261C352.738 324.732 341.783 335.69 328.313 335.69C314.844 335.69 303.888 324.732 303.888 311.261C303.888 297.79 314.844 286.833 328.313 286.833Z" fill="white"/>
<path d="M359.555 275.998H286.127V346.537H370.493V275.998H359.555ZM293.312 332.759H292.086V289.776H293.312V332.759ZM356.508 339.467H300.111V283.062H356.508V339.467ZM364.534 332.759H363.307V289.776H364.534V332.759Z" fill="white"/>
<path d="M156.02 553.94V568.405H137.922V632.321H156.02V646.725H102.369V632.321H120.02V568.405H102.369V553.94H156.02Z" fill="white"/>
<path d="M200.94 606.065V632.26H245.48V646.725H182.971V553.94H245.29V568.534H200.94V591.92H239.043V606.065H200.94Z" fill="white"/>
<path d="M305.047 568.534V646.725H287.078V568.534H258.852V553.94H333.653V568.534H305.047Z" fill="white"/>
<path d="M368.12 608.297V646.725H350.15V553.94H412.85V568.534H368.12V593.771H407.878V608.304H368.12V608.297Z" fill="white"/>
<path d="M461.688 103.116C444.644 98.5291 427.055 95.1751 409.098 93.0964L407.412 103.949C413.751 104.673 420.042 105.568 426.277 106.623L415.805 160.066L429.434 162.74L439.924 109.198C446.379 110.547 452.761 112.074 459.07 113.772L461.682 103.116H461.688Z" fill="white"/>
<path d="M594.235 234.683L614.442 196.415C611.506 192.957 608.459 189.56 605.301 186.224L555.262 226.595C558.572 229.925 561.736 233.34 564.752 236.841L593.647 213.529L574.715 249.479C577.602 253.495 580.306 257.609 582.807 261.803L632.988 221.316C630.468 217.434 627.826 213.614 625.067 209.862L594.229 234.689L594.235 234.683Z" fill="white"/>
<path d="M262.885 149.263C258.532 150.71 254.222 152.249 249.973 153.88L253.523 163.022C248.588 164.917 243.732 166.94 238.956 169.099L221.796 130.855C227.222 128.409 232.74 126.109 238.337 123.957L241.887 133.093C246.142 131.456 250.445 129.911 254.792 128.452L250.605 117.678L239.404 111.774C237.89 112.332 236.375 112.89 234.873 113.466C234.695 113.533 234.518 113.595 234.34 113.662C228.565 115.888 222.869 118.261 217.272 120.781C216.113 121.302 214.96 121.829 213.814 122.363C213.575 122.473 213.342 122.584 213.103 122.694L208.443 136.3L226.897 176.181L239.502 181.043C239.735 180.933 239.974 180.816 240.207 180.706C240.63 180.51 241.059 180.313 241.488 180.117C242.126 179.823 242.77 179.528 243.413 179.234C248.349 177.008 253.4 174.917 258.55 172.961C259.139 172.735 259.733 172.514 260.328 172.293C260.788 172.121 261.254 171.956 261.72 171.784C262.026 171.674 262.339 171.563 262.652 171.453L266.716 159.147L262.879 149.269L262.885 149.263Z" fill="white"/>
<path d="M576.977 160.287C576.927 160.244 576.878 160.208 576.823 160.165C576.167 159.644 575.511 159.128 574.849 158.613C574.628 158.442 574.414 158.27 574.199 158.098C573.917 157.884 573.641 157.663 573.366 157.448C566.652 152.273 559.682 147.386 552.484 142.769L537.832 145.295L513.799 182.386L517.41 196.335C517.41 196.335 517.447 196.36 517.465 196.372C523.994 200.536 530.235 204.957 536.158 209.617C536.495 209.88 536.832 210.15 537.169 210.42C537.194 210.444 537.225 210.463 537.249 210.487L551.534 209.083L578.595 174.666L576.977 160.293V160.287ZM541.755 199.984C541.516 199.8 541.283 199.61 541.044 199.426C536.096 195.618 530.965 191.994 525.693 188.554L548.769 153.536C554.906 157.546 560.865 161.765 566.628 166.198C566.898 166.407 567.167 166.621 567.437 166.83L541.755 199.984Z" fill="white"/>
<path d="M498.067 142.867L482.114 136.239L491.936 112.595C487.651 110.989 483.316 109.462 478.939 108.027L454.293 167.375C458.713 168.749 463.072 170.221 467.358 171.784L477.719 146.828L493.671 153.457L483.384 178.222C487.602 180.08 491.746 182.03 495.798 184.072L520.413 124.809C516.312 122.817 512.155 120.904 507.95 119.076L498.067 142.873V142.867Z" fill="white"/>
<path d="M377.31 90.2207C377.31 90.2207 377.31 90.2207 377.304 90.2207C373.061 90.0797 368.806 90 364.539 90C362.884 90 361.229 90.0184 359.58 90.0429C359.488 90.0429 359.396 90.0429 359.304 90.0429C358.151 90.0613 356.999 90.092 355.846 90.1165L345.81 100.976L345.693 154.579C350.242 154.309 354.828 154.131 359.445 154.058V135.669C361.143 135.644 362.841 135.62 364.546 135.62C368.543 135.62 372.522 135.699 376.494 135.84L376.212 154.229C380.817 154.401 385.384 154.671 389.915 155.032L390.822 102.404L380.676 90.3495C379.554 90.3005 378.432 90.2514 377.31 90.2146V90.2207ZM376.66 124.803C372.632 124.662 368.592 124.583 364.533 124.583C362.835 124.583 361.137 124.601 359.445 124.632L359.531 101.086C361.198 101.062 362.866 101.037 364.533 101.037C368.733 101.037 372.92 101.123 377.095 101.27L376.66 124.809V124.803Z" fill="white"/>
<path d="M289.835 129.488L288.897 125.368L282.828 98.9891C278.297 100.007 273.797 101.117 269.34 102.306L283.704 164.757C288.137 163.537 292.631 162.415 297.18 161.391L293.967 147.429L302.563 130.101L319.575 157.252C325.124 156.443 330.74 155.781 336.411 155.272L309.938 117.274L322.31 92.3546C316.89 92.9616 311.507 93.6913 306.155 94.5314L289.823 129.488H289.835Z" fill="white"/>
<path d="M133.636 216.3L122.943 229.869L101.663 213.093C98.9905 216.858 96.4339 220.678 94 224.566L144.671 264.519C146.945 260.534 149.398 256.628 152.022 252.796L131.95 236.97L142.642 223.401L162.462 239.03C165.375 235.541 168.44 232.132 171.646 228.809L121.165 189.02C118.051 192.411 115.053 195.863 112.159 199.377L133.642 216.306L133.636 216.3Z" fill="white"/>
<path d="M185.404 147.852L172.952 145.161C172.91 145.185 172.867 145.216 172.83 145.24C171.788 145.933 170.752 146.626 169.722 147.331C169.292 147.619 168.857 147.901 168.434 148.196L168.446 148.208C164.118 151.188 159.869 154.26 155.725 157.448C155.314 157.761 154.916 158.08 154.511 158.399C154.444 158.448 154.376 158.503 154.309 158.558C153.518 159.178 152.727 159.797 151.942 160.422C151.722 160.6 151.501 160.778 151.28 160.956C150.833 161.317 150.379 161.673 149.938 162.035V162.041V175.666L182.713 218.176C186.115 215.141 189.64 212.192 193.288 209.335L182.118 194.729C182.602 194.349 183.074 193.969 183.559 193.595C187.623 190.461 191.811 187.457 196.09 184.569L207.285 199.205C211.074 196.673 214.967 194.232 218.958 191.89L185.422 147.865L185.404 147.852ZM176.809 184.851C176.337 185.213 175.877 185.587 175.411 185.948L161.169 167.192C161.592 166.86 162.015 166.523 162.444 166.192C166.57 163.016 170.801 159.962 175.123 157.007L189.377 175.776C185.085 178.682 180.892 181.705 176.809 184.845V184.851Z" fill="white"/>
<path d="M137.67 454.074L139.147 453.516L144.457 455.686C144.874 455.852 145.248 455.987 145.572 456.091C145.897 456.195 146.192 456.263 146.455 456.306C146.707 456.349 146.934 456.361 147.136 456.349C147.338 456.336 147.522 456.293 147.694 456.232C147.945 456.134 148.16 456.018 148.325 455.87C148.497 455.723 148.626 455.558 148.718 455.38C148.803 455.196 148.846 454.994 148.846 454.785C148.846 454.577 148.81 454.356 148.724 454.135C148.613 453.847 148.478 453.608 148.313 453.418C148.147 453.228 147.964 453.093 147.755 453.007C147.54 452.915 147.295 452.878 147.025 452.89C146.756 452.903 146.474 452.964 146.167 453.08L145.352 450.916C145.855 450.726 146.363 450.64 146.884 450.665C147.406 450.689 147.896 450.812 148.368 451.033C148.834 451.253 149.257 451.572 149.637 451.995C150.017 452.418 150.324 452.927 150.551 453.528C150.765 454.104 150.882 454.644 150.888 455.147C150.894 455.65 150.808 456.103 150.63 456.514C150.453 456.919 150.189 457.275 149.84 457.581C149.49 457.888 149.073 458.139 148.583 458.323C148.209 458.464 147.835 458.538 147.449 458.55C147.062 458.562 146.67 458.525 146.259 458.44C145.848 458.348 145.413 458.219 144.953 458.047C144.493 457.875 144.009 457.679 143.494 457.452L140.441 456.177L142.317 461.138L140.588 461.794L137.676 454.086L137.67 454.074Z" fill="white" stroke="white" stroke-width="0.25" stroke-miterlimit="10"/>
<path d="M148.435 470.286C147.834 470.445 147.276 470.488 146.761 470.415C146.24 470.341 145.762 470.151 145.333 469.844C144.903 469.538 144.523 469.127 144.205 468.612C143.886 468.103 143.683 467.582 143.604 467.061C143.518 466.539 143.561 466.031 143.726 465.528C143.886 465.025 144.168 464.541 144.572 464.068C144.977 463.596 145.516 463.155 146.172 462.744L148.625 461.217C149.287 460.806 149.918 460.518 150.519 460.359C151.12 460.199 151.684 460.156 152.205 460.236C152.72 460.31 153.192 460.5 153.621 460.806C154.051 461.107 154.425 461.518 154.743 462.027C155.062 462.542 155.264 463.063 155.35 463.584C155.436 464.105 155.399 464.614 155.24 465.117C155.074 465.62 154.792 466.104 154.382 466.57C153.971 467.036 153.437 467.478 152.775 467.895L150.323 469.421C149.661 469.832 149.029 470.12 148.429 470.28L148.435 470.286ZM149.992 466.895C150.145 466.797 150.262 466.73 150.335 466.68C150.409 466.638 150.513 466.57 150.648 466.484L146.92 465.013C146.614 465.215 146.363 465.417 146.154 465.62C145.946 465.822 145.799 466.024 145.7 466.221C145.578 466.454 145.523 466.687 145.541 466.92C145.553 467.153 145.639 467.386 145.786 467.625C145.921 467.845 146.087 468.011 146.271 468.134C146.461 468.25 146.669 468.311 146.908 468.318C147.16 468.324 147.442 468.269 147.76 468.152C148.079 468.036 148.422 467.858 148.803 467.625L149.992 466.883V466.895ZM151.978 465.657C152.358 465.405 152.659 465.16 152.892 464.915C153.125 464.669 153.272 464.43 153.352 464.185C153.413 463.995 153.431 463.805 153.395 463.602C153.358 463.406 153.284 463.21 153.155 463.014C153.021 462.793 152.855 462.627 152.671 462.511C152.487 462.394 152.273 462.333 152.04 462.321C151.788 462.309 151.506 462.358 151.194 462.468C150.881 462.585 150.531 462.756 150.151 462.995L149.017 463.7C148.79 463.842 148.643 463.933 148.563 463.983C148.49 464.032 148.38 464.099 148.232 464.191L151.972 465.657H151.978Z" fill="white" stroke="white" stroke-width="0.25" stroke-miterlimit="10"/>
<path d="M148.521 474.639L149.674 473.56L155.412 473.548C155.86 473.548 156.259 473.523 156.602 473.493C156.945 473.462 157.239 473.419 157.497 473.358C157.742 473.303 157.963 473.229 158.141 473.137C158.318 473.045 158.478 472.941 158.613 472.818C158.809 472.634 158.962 472.438 159.06 472.242C159.158 472.04 159.22 471.837 159.232 471.635C159.238 471.433 159.201 471.23 159.128 471.034C159.048 470.838 158.932 470.654 158.766 470.476C158.551 470.249 158.337 470.077 158.116 469.967C157.895 469.857 157.669 469.795 157.442 469.795C157.215 469.795 156.97 469.851 156.724 469.967C156.479 470.084 156.24 470.249 156.001 470.47L154.419 468.778C154.812 468.41 155.253 468.14 155.744 467.962C156.234 467.784 156.737 467.711 157.258 467.741C157.773 467.766 158.288 467.901 158.803 468.146C159.318 468.391 159.79 468.747 160.231 469.219C160.648 469.667 160.961 470.126 161.157 470.586C161.353 471.046 161.451 471.506 161.445 471.948C161.433 472.389 161.329 472.818 161.12 473.235C160.918 473.652 160.624 474.038 160.237 474.4C159.943 474.67 159.624 474.885 159.275 475.044C158.925 475.197 158.545 475.314 158.128 475.394C157.712 475.467 157.258 475.51 156.774 475.528C156.283 475.547 155.762 475.547 155.198 475.535L151.887 475.516L155.504 479.391L154.15 480.655L148.521 474.633V474.639Z" fill="white" stroke="white" stroke-width="0.25" stroke-miterlimit="10"/>
<path d="M156.693 482.942L157.619 481.666L163.247 480.55C163.689 480.458 164.075 480.366 164.4 480.268C164.731 480.17 165.013 480.072 165.252 479.962C165.485 479.857 165.681 479.741 165.84 479.618C166 479.496 166.135 479.361 166.239 479.214C166.398 478.993 166.509 478.778 166.57 478.557C166.631 478.343 166.65 478.134 166.625 477.932C166.595 477.73 166.521 477.54 166.405 477.362C166.288 477.184 166.135 477.025 165.945 476.884C165.693 476.7 165.448 476.577 165.209 476.509C164.97 476.442 164.737 476.43 164.516 476.473C164.283 476.516 164.063 476.62 163.848 476.779C163.633 476.939 163.425 477.147 163.235 477.411L161.359 476.056C161.672 475.62 162.052 475.271 162.499 475.001C162.947 474.731 163.425 474.566 163.94 474.492C164.449 474.419 164.982 474.449 165.534 474.59C166.086 474.731 166.619 474.989 167.14 475.363C167.637 475.725 168.029 476.111 168.311 476.528C168.593 476.945 168.777 477.374 168.851 477.809C168.924 478.245 168.9 478.686 168.783 479.14C168.667 479.594 168.452 480.029 168.14 480.452C167.907 480.777 167.631 481.047 167.318 481.268C167.005 481.488 166.656 481.679 166.264 481.832C165.865 481.985 165.43 482.114 164.958 482.224C164.479 482.335 163.964 482.439 163.413 482.537L160.163 483.156L164.461 486.259L163.376 487.761L156.699 482.936L156.693 482.942Z" fill="white" stroke="white" stroke-width="0.25" stroke-miterlimit="10"/>
<path d="M140.883 411.857L144.016 405.928L145.745 406.842L143.501 411.091L145.714 412.587C145.708 412.391 145.726 412.127 145.782 411.796C145.837 411.471 145.959 411.122 146.149 410.76C146.419 410.245 146.744 409.834 147.124 409.515C147.504 409.196 147.915 408.982 148.375 408.865C148.829 408.755 149.313 408.742 149.84 408.828C150.361 408.914 150.907 409.11 151.465 409.405C151.943 409.656 152.36 409.969 152.715 410.337C153.071 410.705 153.335 411.121 153.506 411.587C153.678 412.054 153.745 412.562 153.696 413.108C153.647 413.654 153.47 414.23 153.151 414.837C152.906 415.297 152.605 415.702 152.243 416.058C151.882 416.413 151.477 416.689 151.042 416.879C150.6 417.075 150.134 417.173 149.644 417.173C149.147 417.173 148.651 417.057 148.148 416.812L149.209 414.801C149.699 414.997 150.147 415.021 150.551 414.868C150.956 414.715 151.275 414.42 151.514 413.973C151.661 413.697 151.728 413.439 151.728 413.188C151.728 412.943 151.667 412.71 151.551 412.489C151.434 412.274 151.262 412.078 151.042 411.888C150.821 411.698 150.57 411.532 150.282 411.379C150 411.232 149.718 411.128 149.442 411.072C149.166 411.017 148.908 411.017 148.657 411.072C148.406 411.128 148.179 411.244 147.97 411.416C147.762 411.588 147.578 411.821 147.418 412.121C147.314 412.323 147.241 412.501 147.192 412.667C147.149 412.832 147.124 412.986 147.118 413.127C147.118 413.268 147.118 413.402 147.149 413.525C147.173 413.654 147.204 413.77 147.241 413.893L145.978 415.309L140.877 411.839L140.883 411.857Z" fill="white" stroke="white" stroke-width="0.25" stroke-miterlimit="10"/>
<path d="M158.521 392.076L158.423 392.162C157.969 392.567 157.614 392.978 157.375 393.413C157.129 393.842 156.982 394.278 156.933 394.713C156.878 395.155 156.915 395.59 157.044 396.019C157.172 396.448 157.381 396.871 157.681 397.282C157.681 397.092 157.706 396.896 157.736 396.681C157.767 396.467 157.828 396.252 157.914 396.031C158 395.817 158.11 395.602 158.245 395.394C158.386 395.185 158.558 394.983 158.772 394.799C159.202 394.419 159.655 394.167 160.121 394.051C160.587 393.934 161.053 393.916 161.513 394.002C161.979 394.094 162.426 394.278 162.862 394.554C163.297 394.83 163.689 395.179 164.057 395.59C164.443 396.031 164.738 396.497 164.928 397C165.118 397.503 165.21 398.006 165.191 398.515C165.173 399.024 165.05 399.52 164.817 400.011C164.584 400.501 164.235 400.949 163.769 401.36C163.285 401.789 162.764 402.083 162.218 402.249C161.672 402.414 161.121 402.451 160.569 402.372C160.011 402.292 159.471 402.102 158.938 401.795C158.405 401.489 157.908 401.072 157.454 400.557L156.866 399.888C156.234 399.171 155.744 398.423 155.401 397.638C155.057 396.853 154.879 396.068 154.867 395.277C154.867 394.492 155.033 393.726 155.388 392.966C155.744 392.205 156.29 391.5 157.044 390.838L157.277 390.635L158.546 392.07L158.521 392.076ZM159.085 397.117C158.981 397.294 158.907 397.478 158.864 397.669C158.828 397.84 158.815 398.012 158.822 398.19C158.828 398.368 158.858 398.545 158.907 398.723L159.355 399.232C159.649 399.563 159.937 399.827 160.225 400.011C160.514 400.195 160.79 400.317 161.059 400.373C161.329 400.428 161.587 400.422 161.832 400.354C162.077 400.287 162.298 400.164 162.494 399.992C162.696 399.815 162.843 399.606 162.935 399.379C163.027 399.146 163.064 398.907 163.046 398.656C163.027 398.404 162.966 398.147 162.843 397.889C162.721 397.632 162.555 397.374 162.341 397.129C162.126 396.884 161.893 396.687 161.648 396.534C161.403 396.381 161.157 396.283 160.906 396.228C160.661 396.179 160.416 396.191 160.17 396.252C159.925 396.313 159.698 396.442 159.484 396.632C159.318 396.779 159.183 396.939 159.079 397.117H159.085Z" fill="white" stroke="white" stroke-width="0.25" stroke-miterlimit="10"/>
<path d="M180.23 391.684L174.387 385.534L177.079 392.843L174.878 393.652L170.709 382.315L172.91 381.505L178.716 387.637L176.043 380.353L178.238 379.543L182.407 390.881L180.224 391.684H180.23Z" fill="white" stroke="white" stroke-width="0.25" stroke-miterlimit="10"/>
<path d="M192.001 385.577C191.977 386.055 191.903 386.503 191.787 386.92C191.658 387.343 191.48 387.735 191.253 388.103C191.027 388.471 190.757 388.79 190.438 389.06C190.15 389.299 189.819 389.495 189.457 389.661C189.089 389.82 188.691 389.937 188.256 389.998C187.79 390.065 187.354 390.065 186.937 389.998C186.527 389.937 186.14 389.814 185.791 389.642C185.441 389.458 185.117 389.219 184.816 388.931C184.516 388.643 184.252 388.306 184.025 387.919C183.817 387.564 183.645 387.171 183.498 386.736C183.351 386.301 183.247 385.841 183.179 385.35L182.928 383.609C182.854 383.081 182.824 382.579 182.848 382.094C182.873 381.61 182.94 381.156 183.057 380.733C183.173 380.328 183.326 379.96 183.529 379.617C183.731 379.274 183.97 378.973 184.258 378.71C184.54 378.452 184.865 378.237 185.239 378.066C185.613 377.894 186.024 377.778 186.478 377.71C186.937 377.643 187.379 377.643 187.796 377.698C188.213 377.759 188.599 377.876 188.954 378.047C189.31 378.207 189.629 378.421 189.911 378.679C190.199 378.936 190.45 379.237 190.677 379.568C190.929 379.948 191.137 380.365 191.309 380.837C191.48 381.303 191.603 381.806 191.683 382.352L191.934 384.093C192.008 384.608 192.032 385.105 192.008 385.577H192.001ZM189.169 381.806C189.102 381.536 189.016 381.285 188.918 381.058C188.795 380.776 188.648 380.524 188.476 380.31C188.305 380.095 188.114 379.93 187.912 379.807C187.747 379.721 187.569 379.66 187.379 379.623C187.189 379.586 186.98 379.586 186.753 379.623C186.539 379.654 186.349 379.709 186.189 379.789C186.024 379.868 185.883 379.973 185.76 380.095C185.595 380.273 185.466 380.488 185.368 380.739C185.27 380.991 185.209 381.273 185.184 381.585C185.166 381.831 185.159 382.094 185.178 382.376C185.196 382.658 185.221 382.953 185.27 383.259L185.521 385.019C185.564 385.307 185.613 385.589 185.674 385.853C185.736 386.117 185.809 386.362 185.895 386.583C185.999 386.865 186.122 387.116 186.275 387.337C186.429 387.558 186.594 387.729 186.772 387.858C186.937 387.968 187.121 388.048 187.324 388.091C187.526 388.134 187.741 388.14 187.986 388.103C188.219 388.073 188.421 388.005 188.605 387.913C188.789 387.821 188.942 387.699 189.071 387.551C189.236 387.374 189.365 387.153 189.457 386.901C189.555 386.65 189.617 386.374 189.653 386.068C189.678 385.828 189.69 385.571 189.678 385.295C189.666 385.019 189.641 384.731 189.598 384.437L189.347 382.677C189.304 382.37 189.243 382.082 189.175 381.806H189.169Z" fill="white" stroke="white" stroke-width="0.25" stroke-miterlimit="10"/>
<path d="M193.314 377.091L195.883 377.219L197.539 385.203L197.704 386.025L197.968 385.215L200.414 377.446L202.983 377.575L198.728 389.458L196.355 389.342L193.314 377.097V377.091Z" fill="white" stroke="white" stroke-width="0.25" stroke-miterlimit="10"/>
<path d="M206.158 385.172L205.355 388.483L210.989 389.851L210.542 391.684L202.633 389.765L205.484 378.023L213.368 379.936L212.92 381.781L207.311 380.42L206.593 383.382L211.412 384.553L210.977 386.343L206.158 385.172Z" fill="white" stroke="white" stroke-width="0.25" stroke-miterlimit="10"/>
<path d="M219.002 387.214L222.141 383.688L224.752 384.945L219.517 395.835L217.586 394.909L219.137 391.684L221.675 386.638L217.972 390.679L216.93 390.182L217.825 385.044L215.562 389.98L214.011 393.205L212.08 392.279L217.316 381.389L219.927 382.646L218.989 387.233L219.002 387.214Z" fill="white" stroke="white" stroke-width="0.25" stroke-miterlimit="10"/>
<path d="M228.682 387.41L231.876 389.906C232.397 390.311 232.827 390.734 233.17 391.169C233.513 391.604 233.752 392.046 233.887 392.5C234.022 392.953 234.04 393.401 233.949 393.855C233.857 394.308 233.636 394.756 233.293 395.204C233.066 395.486 232.802 395.719 232.502 395.897C232.207 396.074 231.882 396.185 231.545 396.228C231.361 396.252 231.165 396.252 230.963 396.234C230.761 396.215 230.558 396.179 230.35 396.111C230.595 396.448 230.761 396.755 230.84 397.037C230.92 397.319 230.951 397.595 230.938 397.871C230.92 398.165 230.852 398.447 230.742 398.723C230.632 398.999 230.479 399.257 230.295 399.496C229.939 399.956 229.54 400.293 229.111 400.52C228.682 400.747 228.229 400.863 227.756 400.869C227.278 400.875 226.788 400.777 226.279 400.569C225.77 400.36 225.249 400.048 224.728 399.643L221.258 396.933L228.694 387.416L228.682 387.41ZM224.25 396.89L225.887 398.165C226.126 398.355 226.365 398.49 226.604 398.576C226.843 398.662 227.064 398.705 227.272 398.699C227.505 398.693 227.72 398.631 227.922 398.521C228.124 398.41 228.302 398.257 228.461 398.049C228.627 397.834 228.75 397.62 228.829 397.411C228.909 397.196 228.934 396.988 228.909 396.779C228.885 396.565 228.805 396.35 228.67 396.142C228.535 395.927 228.339 395.719 228.088 395.516L226.377 394.18L224.256 396.89H224.25ZM228.774 393.916C229.056 394.131 229.332 394.29 229.59 394.394C229.853 394.498 230.098 394.535 230.325 394.511C230.515 394.498 230.693 394.437 230.865 394.339C231.036 394.241 231.196 394.1 231.337 393.916C231.484 393.726 231.594 393.536 231.656 393.352C231.717 393.168 231.735 392.99 231.711 392.818C231.686 392.579 231.588 392.346 231.417 392.113C231.245 391.88 231.012 391.647 230.718 391.408L229.357 390.347L227.407 392.843L228.774 393.91V393.916Z" fill="white" stroke="white" stroke-width="0.25" stroke-miterlimit="10"/>
<path d="M234.844 401.967L232.22 404.144L235.929 408.601L234.482 409.803L229.283 403.543L238.571 395.823L243.758 402.065L242.299 403.279L238.608 398.84L236.266 400.784L239.436 404.597L238.02 405.775L234.85 401.961L234.844 401.967Z" fill="white" stroke="white" stroke-width="0.25" stroke-miterlimit="10"/>
<path d="M240.471 411.177L236.48 413.28L235.395 411.22L246.08 405.585L247.969 409.166C248.281 409.76 248.496 410.331 248.606 410.882C248.717 411.434 248.729 411.955 248.643 412.44C248.551 412.918 248.355 413.36 248.048 413.752C247.742 414.144 247.325 414.482 246.798 414.764C246.418 414.966 246.05 415.101 245.694 415.175C245.339 415.248 245.001 415.26 244.67 415.224C244.333 415.181 244.014 415.089 243.708 414.948C243.401 414.807 243.107 414.623 242.819 414.396L239.619 419.019L239.521 419.068L238.356 416.861L241.286 412.746L240.465 411.183L240.471 411.177ZM242.948 411.827C243.113 412.145 243.309 412.403 243.524 412.593C243.745 412.789 243.978 412.918 244.229 412.979C244.431 413.035 244.646 413.047 244.873 413.01C245.1 412.973 245.326 412.894 245.565 412.771C245.848 412.624 246.074 412.446 246.252 412.244C246.424 412.041 246.534 411.821 246.589 411.575C246.638 411.355 246.638 411.121 246.589 410.864C246.54 410.606 246.442 410.337 246.295 410.055L245.492 408.534L242.145 410.3L242.948 411.827Z" fill="white" stroke="white" stroke-width="0.25" stroke-miterlimit="10"/>
<path d="M153.575 401.248L150.701 405.366L152.461 406.594L155.334 402.476L153.575 401.248Z" fill="white"/>
<path d="M250.181 434.281C249.12 434.281 248.232 435.017 247.986 436.004H227.65L219.325 427.677L211.281 435.722L211.226 435.667L203.158 427.597L186.899 443.858L186.844 443.803L178.813 435.771L170.769 443.816L170.714 443.76L162.885 435.93H142.261C141.985 434.986 141.121 434.293 140.091 434.293C138.84 434.293 137.822 435.311 137.822 436.562C137.822 437.813 138.84 438.831 140.091 438.831C141.182 438.831 142.095 438.052 142.31 437.028H162.437L170.806 445.397L178.849 437.353L178.905 437.408L186.936 445.44L203.109 429.265L203.164 429.32L211.195 437.353L219.282 429.265L219.337 429.32L227.166 437.15H247.999C248.262 438.113 249.133 438.831 250.181 438.831C251.432 438.831 252.45 437.813 252.45 436.562C252.45 435.311 251.432 434.293 250.181 434.293V434.281ZM140.085 437.898C139.343 437.898 138.736 437.291 138.736 436.55C138.736 435.808 139.343 435.201 140.085 435.201C140.826 435.201 141.433 435.808 141.433 436.55C141.433 437.291 140.826 437.898 140.085 437.898ZM250.181 437.898C249.439 437.898 248.832 437.291 248.832 436.55C248.832 435.808 249.439 435.201 250.181 435.201C250.923 435.201 251.53 435.808 251.53 436.55C251.53 437.291 250.923 437.898 250.181 437.898Z" fill="white"/>
<path d="M521.707 478.754V478.987L521.689 479.005L515.135 487.681H521.701V499.375C521.701 500.27 522.43 501.006 523.332 501.006H537.892C544.826 501.006 554.047 498.817 554.047 479.913C554.047 477.803 553.795 475.823 553.293 474.026H522.4C521.934 475.553 521.701 477.147 521.701 478.76L521.707 478.754ZM542.711 485.505H542.785C544.838 485.505 546.512 483.831 546.512 481.777C546.512 479.723 544.838 478.049 542.785 478.049H542.711V476.669H542.785C545.599 476.669 547.892 478.956 547.892 481.777C547.892 484.597 545.605 486.884 542.785 486.884H542.711V485.505ZM529.561 489.797C532.528 489.797 534.937 491.698 534.937 494.034C534.937 496.37 532.528 498.271 529.561 498.271C526.593 498.271 524.184 496.37 524.184 494.034C524.184 491.698 526.593 489.797 529.561 489.797Z" fill="white"/>
<path d="M538.935 462.591C534.41 462.309 530.1 463.86 526.814 466.95C525.091 468.569 523.773 470.482 522.896 472.641H552.851C549.633 463.921 541.387 462.744 538.928 462.597L538.935 462.591Z" fill="white"/>
<path d="M495.487 456.428L483.262 507.131H567.253L579.478 456.428H495.487ZM504.192 489.797L516.16 492.372L515.871 493.721L503.904 491.146L504.192 489.797ZM504.204 499.24L503.916 497.891L515.884 495.315L516.172 496.664L504.204 499.24ZM537.899 502.379H523.339C521.677 502.379 520.328 501.03 520.328 499.368V489.055H512.371L520.335 478.515C520.353 477.006 520.574 475.498 520.991 474.014H509.961V472.634H521.438C522.382 470.09 523.915 467.778 525.871 465.939C529.445 462.585 534.117 460.904 539.021 461.205C543.521 461.487 547.604 463.302 550.51 466.331C553.735 469.685 555.433 474.376 555.433 479.9C555.433 495.021 549.695 502.373 537.899 502.373V502.379Z" fill="white"/>
<path d="M387.192 185.304H386.003L381.662 202.473L364.496 206.814V208.004L381.662 212.345L386.003 229.514H387.192L391.533 212.345L408.699 208.004V206.814L391.533 202.473L387.192 185.304ZM390.877 211.248L390.435 211.689L386.598 226.859L382.76 211.689L382.318 211.248L367.151 207.409L382.318 203.571L382.76 203.129L386.598 187.959L390.435 203.129L390.877 203.571L406.044 207.409L390.877 211.248Z" fill="white"/>
<path d="M455.484 210.156H454.294L451.903 219.617L442.438 222.009V223.198L451.903 225.59L454.294 235.051H455.484L457.875 225.59L467.335 223.198V222.009L457.875 219.617L455.484 210.156Z" fill="white"/>
<path d="M275.005 210.156H273.816L271.425 219.617L261.965 222.009V223.198L271.425 225.59L273.816 235.051H275.005L277.396 225.59L286.856 223.198V222.009L277.396 219.617L275.005 210.156Z" fill="white"/>
<path d="M209.026 246.406H207.837L205.446 255.868L195.986 258.259V259.449L205.446 261.84L207.837 271.301H209.026L211.418 261.84L220.877 259.449V258.259L211.418 255.868L209.026 246.406ZM210.762 260.742L210.32 261.184L208.432 268.652L206.544 261.184L206.102 260.742L198.635 258.854L206.102 256.965L206.544 256.524L208.432 249.055L210.32 256.524L210.762 256.965L218.229 258.854L210.762 260.742Z" fill="white"/>
<path d="M521.462 246.406H520.273L517.882 255.868L508.422 258.259V259.449L517.882 261.84L520.273 271.301H521.462L523.853 261.84L533.313 259.449V258.259L523.853 255.868L521.462 246.406ZM523.197 260.742L522.756 261.184L520.867 268.652L518.979 261.184L518.538 260.742L511.07 258.854L518.538 256.965L518.979 256.524L520.867 249.055L522.756 256.524L523.197 256.965L530.664 258.854L523.197 260.742Z" fill="white"/>
<path d="M169.109 299.096H167.919L165.528 308.557L156.068 310.948V312.138L165.528 314.529L167.919 323.99H169.109L171.506 314.529L180.965 312.138V310.948L171.506 308.557L169.109 299.096Z" fill="white"/>
<path d="M563.765 308.557L561.374 299.096H560.185L557.794 308.557L548.334 310.948V312.138L557.794 314.529L560.185 323.99H561.374L563.765 314.529L573.231 312.138V310.948L563.765 308.557Z" fill="white"/>
<path d="M588.736 397.797H503.046C495.836 397.797 489.969 403.665 489.969 410.876C489.969 418.087 495.836 423.955 503.046 423.955H518.63V440.609L535.281 423.955H588.73C595.939 423.955 601.806 418.087 601.806 410.876C601.806 403.665 595.939 397.797 588.73 397.797H588.736ZM588.785 416.37H503.003V405.634H588.785V416.37Z" fill="white"/>
<path d="M464.065 368.519L462.367 373.988H466.702L465.01 368.519H464.065Z" fill="white"/>
<path d="M469.779 384.614V394.879L474.941 391.494C472.685 389.556 470.883 387.196 469.779 384.62V384.614Z" fill="white"/>
<path d="M426.533 375.214V395.529H434.571V375.214H426.533ZM429.304 378.225H431.8V382.45H429.304V378.225ZM429.304 385.749H431.8V389.973H429.304V385.749Z" fill="white"/>
<path d="M435.429 396.755H424.455V401.556H435.429V396.755Z" fill="white"/>
<path d="M430.083 368.519L428.385 373.988H432.719L431.021 368.519H430.083Z" fill="white"/>
<path d="M460.516 375.214V395.529H468.553V375.214H460.516ZM463.287 378.225H465.782V382.45H463.287V378.225ZM463.287 385.749H465.782V389.973H463.287V385.749Z" fill="white"/>
<path d="M413.18 395.529H425.306V384.614C423.222 389.489 418.661 393.579 413.18 395.529Z" fill="white"/>
<path d="M435.797 395.529H436.649H458.438H459.29V382.45H435.797V395.529Z" fill="white"/>
<path d="M425.306 378.838V371.26H426.532V373.994H427.103L429.181 367.298H429.941V364.723H431.167V367.298H431.928L434.006 373.994H434.576V371.26H435.802V378.225H459.295V371.26H460.522V373.994H461.092L463.17 367.298H463.93V364.723H465.156V367.298H465.917L467.995 373.994H468.565V371.26H469.791V378.838C469.791 383.296 472.293 387.619 476.075 390.752L488.214 382.787V362.142H406.828V395.51C416.417 395.179 425.319 387.233 425.319 378.832L425.306 378.838Z" fill="white"/>
<path d="M459.664 401.513L466.911 396.755H459.664V401.513Z" fill="white"/>
<path d="M423.222 396.755H406.816V399.913H423.222V396.755Z" fill="white"/>
<path d="M459.29 379.451H435.797V381.223H459.29V379.451Z" fill="white"/>
<path d="M436.648 398.024L442.154 396.755H436.648V398.024Z" fill="white"/>
<path d="M436.648 399.913H458.437V399.281L447.543 396.773L436.648 399.281V399.913Z" fill="white"/>
<path d="M458.437 396.755H452.932L458.437 398.024V396.755Z" fill="white"/>
<path d="M429.348 293.951C430.464 294.65 431.481 295.527 432.352 296.564H436.086C435.994 294.54 435.46 292.633 434.571 290.935L429.342 293.951H429.348Z" fill="white"/>
<path d="M432.235 282.755C432.235 281.995 431.616 281.382 430.856 281.382C430.095 281.382 429.482 282.001 429.482 282.755C429.482 282.933 429.519 283.098 429.58 283.252H432.137C432.198 283.098 432.235 282.927 432.235 282.755Z" fill="white"/>
<path d="M438.329 288.85C438.329 288.09 437.709 287.476 436.955 287.476C436.201 287.476 435.582 288.096 435.582 288.85C435.582 289.028 435.619 289.193 435.68 289.347H438.237C438.298 289.193 438.335 289.022 438.335 288.85H438.329Z" fill="white"/>
<path d="M429.58 312.095H432.137C432.198 311.942 432.235 311.77 432.235 311.598C432.235 310.838 431.616 310.225 430.856 310.225C430.095 310.225 429.482 310.844 429.482 311.598C429.482 311.776 429.519 311.942 429.58 312.095Z" fill="white"/>
<path d="M423.947 316.007H427.197L425.94 311.568C425.382 311.697 424.812 311.801 424.235 311.868C424.787 312.346 425.143 313.039 425.143 313.824C425.143 314.738 424.665 315.541 423.953 316.007H423.947Z" fill="white"/>
<path d="M428.091 293.265L433.958 289.874C432.897 288.224 431.493 286.814 429.838 285.753L425.957 292.474C426.693 292.676 427.404 292.94 428.084 293.265H428.091Z" fill="white"/>
<path d="M433.957 304.48L428.09 301.089C427.41 301.414 426.692 301.677 425.963 301.88L429.844 308.6C431.493 307.539 432.903 306.135 433.964 304.48H433.957Z" fill="white"/>
<path d="M414.242 281.382C413.482 281.382 412.869 282.001 412.869 282.755C412.869 282.933 412.906 283.098 412.967 283.252H415.524C415.585 283.098 415.622 282.927 415.622 282.755C415.622 281.995 415.003 281.382 414.242 281.382Z" fill="white"/>
<path d="M416.982 301.095L411.115 304.486C412.176 306.135 413.58 307.545 415.235 308.606L419.116 301.886C418.38 301.683 417.669 301.42 416.989 301.095H416.982Z" fill="white"/>
<path d="M451.566 288.684C451.86 288.684 452.148 288.715 452.436 288.776C452.682 286.391 454.558 284.49 456.93 284.208V275.14H388.137V293.933C390.509 294.215 392.385 296.122 392.631 298.501C392.913 298.44 393.207 298.409 393.501 298.409C395.843 298.409 397.75 300.316 397.75 302.658V303.272H388.137V319.226H408.013V316.013H416.596L417.945 311.243C417.515 311.102 417.099 310.948 416.688 310.771C416.78 311.034 416.835 311.31 416.835 311.605C416.835 313.039 415.67 314.204 414.229 314.204C412.789 314.204 411.63 313.039 411.63 311.605C411.63 310.348 412.525 309.299 413.708 309.054C412.562 308.201 411.544 307.184 410.686 306.037C410.441 307.22 409.392 308.109 408.141 308.109C406.707 308.109 405.542 306.944 405.542 305.51C405.542 304.075 406.707 302.91 408.141 302.91C408.43 302.91 408.699 302.965 408.951 303.051C408.387 301.757 408.007 300.365 407.841 298.912C407.363 299.445 406.676 299.789 405.91 299.789C404.475 299.789 403.304 298.624 403.304 297.189C403.304 295.754 404.469 294.589 405.91 294.589C406.682 294.589 407.363 294.933 407.841 295.466C408.013 294.013 408.393 292.621 408.951 291.327C408.693 291.413 408.423 291.468 408.135 291.468C406.701 291.468 405.536 290.303 405.536 288.868C405.536 287.434 406.701 286.268 408.135 286.268C409.386 286.268 410.434 287.158 410.68 288.341C411.538 287.194 412.556 286.183 413.702 285.324C412.519 285.079 411.624 284.03 411.624 282.773C411.624 281.339 412.789 280.174 414.223 280.174C415.658 280.174 416.829 281.339 416.829 282.773C416.829 283.068 416.767 283.344 416.682 283.607C417.981 283.049 419.373 282.669 420.826 282.504C420.274 282.025 419.919 281.333 419.919 280.548C419.919 279.113 421.084 277.948 422.524 277.948C423.965 277.948 425.124 279.113 425.124 280.548C425.124 281.333 424.768 282.025 424.216 282.504C425.688 282.669 427.092 283.056 428.398 283.626C428.306 283.356 428.244 283.074 428.244 282.78C428.244 281.345 429.409 280.18 430.844 280.18C432.278 280.18 433.449 281.345 433.449 282.78C433.449 284.043 432.542 285.097 431.34 285.33C432.499 286.195 433.523 287.219 434.387 288.378C434.62 287.182 435.675 286.268 436.938 286.268C438.372 286.268 439.537 287.434 439.537 288.868C439.537 290.303 438.372 291.468 436.938 291.468C436.637 291.468 436.355 291.407 436.092 291.315C436.662 292.621 437.042 294.025 437.214 295.497C437.692 294.945 438.385 294.589 439.169 294.589C440.604 294.589 441.769 295.754 441.769 297.189C441.769 298.624 440.604 299.789 439.169 299.789C438.385 299.789 437.692 299.433 437.214 298.881C437.048 300.353 436.662 301.757 436.092 303.063C436.361 302.971 436.643 302.91 436.938 302.91C438.372 302.91 439.537 304.075 439.537 305.51C439.537 306.944 438.372 308.109 436.938 308.109C435.675 308.109 434.62 307.202 434.387 306C433.523 307.159 432.499 308.183 431.34 309.048C432.536 309.281 433.449 310.335 433.449 311.598C433.449 313.033 432.284 314.198 430.844 314.198C429.403 314.198 428.244 313.033 428.244 311.598C428.244 311.298 428.306 311.016 428.398 310.752C427.975 310.936 427.545 311.096 427.104 311.243L428.453 316.013H437.036V319.226H456.912V293.547H447.299V292.934C447.299 290.591 449.205 288.684 451.547 288.684H451.566Z" fill="white"/>
<path d="M414.242 310.219C413.482 310.219 412.869 310.838 412.869 311.592C412.869 311.77 412.906 311.936 412.967 312.089H415.524C415.585 311.936 415.622 311.764 415.622 311.592C415.622 310.832 415.003 310.219 414.242 310.219Z" fill="white"/>
<path d="M406.773 305.503C406.773 305.681 406.81 305.847 406.872 306H409.428C409.489 305.847 409.526 305.675 409.526 305.503C409.526 304.743 408.907 304.13 408.153 304.13C407.399 304.13 406.78 304.749 406.78 305.503H406.773Z" fill="white"/>
<path d="M415.726 300.402C414.61 299.703 413.592 298.826 412.722 297.79H408.988C409.08 299.813 409.614 301.72 410.503 303.419L415.732 300.402H415.726Z" fill="white"/>
<path d="M411.116 289.874L416.983 293.265C417.663 292.94 418.38 292.676 419.11 292.474L415.229 285.753C413.58 286.814 412.17 288.218 411.109 289.874H411.116Z" fill="white"/>
<path d="M424.708 302.162C424.199 302.248 423.678 302.303 423.15 302.327V310.728C425.174 310.636 427.08 310.102 428.778 309.213L424.708 302.162Z" fill="white"/>
<path d="M423.996 297.177C423.996 296.367 423.34 295.717 422.537 295.717C421.734 295.717 421.078 296.373 421.078 297.177C421.078 297.98 421.734 298.636 422.537 298.636C423.34 298.636 423.996 297.98 423.996 297.177Z" fill="white"/>
<path d="M421.923 302.327C421.396 302.303 420.875 302.248 420.366 302.162L416.295 309.213C417.993 310.096 419.9 310.636 421.923 310.728V302.327Z" fill="white"/>
<path d="M421.126 316.007C420.409 315.541 419.937 314.738 419.937 313.824C419.937 313.039 420.292 312.346 420.844 311.868C420.262 311.801 419.698 311.703 419.14 311.568L417.883 316.007H421.132H421.126Z" fill="white"/>
<path d="M408.147 287.476C407.386 287.476 406.773 288.096 406.773 288.85C406.773 289.028 406.81 289.193 406.872 289.347H409.428C409.489 289.193 409.526 289.022 409.526 288.85C409.526 288.09 408.907 287.476 408.153 287.476H408.147Z" fill="white"/>
<path d="M417.067 317.233H417.061H409.244V319.226H435.827V317.233H428.004H417.067Z" fill="white"/>
<path d="M404.543 297.177C404.543 297.355 404.58 297.52 404.641 297.673H407.198C407.259 297.52 407.296 297.348 407.296 297.177C407.296 296.416 406.676 295.803 405.922 295.803C405.168 295.803 404.543 296.423 404.543 297.177Z" fill="white"/>
<path d="M440.561 297.177C440.561 296.416 439.942 295.803 439.188 295.803C438.434 295.803 437.814 296.423 437.814 297.177C437.814 297.355 437.851 297.52 437.913 297.673H440.469C440.53 297.52 440.567 297.348 440.567 297.177H440.561Z" fill="white"/>
<path d="M421.156 313.824C421.156 314.002 421.193 314.168 421.254 314.321H423.811C423.872 314.168 423.909 313.996 423.909 313.824C423.909 313.064 423.29 312.451 422.536 312.451C421.782 312.451 421.156 313.07 421.156 313.824Z" fill="white"/>
<path d="M408.987 296.564H412.72C413.597 295.527 414.609 294.65 415.724 293.951L410.495 290.935C409.612 292.633 409.072 294.54 408.98 296.564H408.987Z" fill="white"/>
<path d="M419.582 293.626C417.363 294.203 415.352 295.417 413.801 297.177C415.346 298.93 417.363 300.144 419.582 300.727C418.564 299.881 417.915 298.605 417.915 297.177C417.915 295.748 418.564 294.479 419.582 293.626Z" fill="white"/>
<path d="M438.231 306C438.292 305.847 438.329 305.675 438.329 305.503C438.329 304.743 437.709 304.13 436.955 304.13C436.201 304.13 435.582 304.749 435.582 305.503C435.582 305.681 435.619 305.847 435.68 306H438.237H438.231Z" fill="white"/>
<path d="M425.492 300.727C427.712 300.151 429.722 298.936 431.274 297.177C429.729 295.423 427.712 294.209 425.492 293.626C426.51 294.473 427.16 295.748 427.16 297.177C427.16 298.605 426.51 299.875 425.492 300.727Z" fill="white"/>
<path d="M436.085 297.79H432.352C431.475 298.826 430.463 299.703 429.348 300.402L434.577 303.419C435.46 301.72 436 299.813 436.092 297.79H436.085Z" fill="white"/>
<path d="M420.366 292.192C420.875 292.106 421.396 292.051 421.923 292.026V283.626C419.9 283.718 417.993 284.251 416.295 285.14L420.366 292.192Z" fill="white"/>
<path d="M423.15 292.026C423.678 292.051 424.193 292.106 424.708 292.192L428.778 285.14C427.08 284.257 425.174 283.718 423.15 283.626V292.026Z" fill="white"/>
<path d="M422.536 279.15C421.775 279.15 421.156 279.769 421.156 280.523C421.156 280.701 421.193 280.867 421.254 281.02H423.811C423.872 280.867 423.909 280.695 423.909 280.523C423.909 279.763 423.29 279.15 422.536 279.15Z" fill="white"/>
<path d="M302.981 431.773V360.633V356.715H353.639V360.633V529.941L363.308 515.2V350.939H293.312V410.373L302.981 431.773Z" fill="white"/>
<path d="M304.207 434.489L310.111 447.562V364.263H311.337V450.272L318.903 467.03V364.263H320.129V469.74L327.7 486.498V364.263H328.926V489.208L336.492 505.966V364.263H337.718V508.676L345.283 525.434V364.263H346.509V528.144L349.9 535.643L352.413 531.811V360.633H304.207V434.489Z" fill="white"/>
<path d="M401.391 268.885C402.877 268.885 404.082 267.68 404.082 266.193C404.082 264.707 402.877 263.502 401.391 263.502C399.904 263.502 398.699 264.707 398.699 266.193C398.699 267.68 399.904 268.885 401.391 268.885Z" fill="#FFCE00"/>
<path d="M390.834 268.885C392.32 268.885 393.525 267.68 393.525 266.193C393.525 264.707 392.32 263.502 390.834 263.502C389.348 263.502 388.143 264.707 388.143 266.193C388.143 267.68 389.348 268.885 390.834 268.885Z" fill="#FFCE00"/>
<path d="M364.533 465.62V472.456H381.074C384.176 472.456 386.696 469.936 386.696 466.834V401.059C386.696 397.957 384.176 395.437 381.074 395.437H364.533V411.011H379.658V465.62H364.533ZM379.48 406.173L378.616 407.038L375.746 404.168L372.877 407.038L372.013 406.173L374.882 403.304L372.013 400.434L372.877 399.569L375.746 402.439L378.616 399.569L379.48 400.434L376.611 403.304L379.48 406.173Z" fill="#FFCE00"/>
<path d="M459.571 258.333H385.493C382.391 258.333 379.871 260.853 379.871 263.955V321.667C379.871 324.769 382.391 327.289 385.493 327.289H459.571C461.38 327.289 462.992 326.425 464.022 325.088C464.366 324.647 464.635 324.15 464.838 323.616C464.856 323.561 464.881 323.506 464.899 323.451C464.93 323.365 464.954 323.273 464.979 323.181C465.003 323.101 465.022 323.022 465.04 322.936C465.058 322.856 465.077 322.776 465.089 322.703C465.107 322.599 465.126 322.494 465.138 322.384C465.144 322.323 465.156 322.255 465.163 322.194C465.181 322.022 465.187 321.844 465.187 321.667V263.955C465.187 260.853 462.667 258.333 459.565 258.333H459.571ZM450.498 263.324L451.362 262.459L454.231 265.329L457.101 262.459L457.965 263.324L455.096 266.193L457.965 269.063L457.101 269.928L454.231 267.058L451.362 269.928L450.498 269.063L453.367 266.193L450.498 263.324ZM401.39 262.275C403.548 262.275 405.308 264.035 405.308 266.193C405.308 268.352 403.548 270.112 401.39 270.112C399.232 270.112 397.473 268.352 397.473 266.193C397.473 264.035 399.232 262.275 401.39 262.275ZM390.833 262.275C392.991 262.275 394.75 264.035 394.75 266.193C394.75 268.352 392.991 270.112 390.833 270.112C388.675 270.112 386.915 268.352 386.915 266.193C386.915 264.035 388.675 262.275 390.833 262.275ZM458.155 284.159V320.446H386.909V273.901H458.155V284.159Z" fill="#FFCE00"/>
<path d="M409.508 355.9C410.994 355.9 412.199 354.695 412.199 353.208C412.199 351.721 410.994 350.516 409.508 350.516C408.021 350.516 406.816 351.721 406.816 353.208C406.816 354.695 408.021 355.9 409.508 355.9Z" fill="#FFCE00"/>
<path d="M490.846 345.341H404.175C401.072 345.341 398.553 347.861 398.553 350.964V416.738C398.553 419.841 401.072 422.361 404.175 422.361H456.341L449.506 415.524H405.591V360.915H489.429V381.978L496.467 377.361V350.958C496.467 347.855 493.948 345.335 490.846 345.335V345.341ZM409.508 357.126C407.35 357.126 405.591 355.366 405.591 353.208C405.591 351.05 407.35 349.29 409.508 349.29C411.666 349.29 413.426 351.05 413.426 353.208C413.426 355.366 411.666 357.126 409.508 357.126ZM420.072 357.126C417.914 357.126 416.154 355.366 416.154 353.208C416.154 351.05 417.914 349.29 420.072 349.29C422.23 349.29 423.989 351.05 423.989 353.208C423.989 355.366 422.23 357.126 420.072 357.126ZM489.252 356.084L488.387 356.948L485.518 354.079L482.649 356.948L481.784 356.084L484.653 353.214L481.784 350.344L482.649 349.48L485.518 352.349L488.387 349.48L489.252 350.344L486.382 353.214L489.252 356.084Z" fill="#FFCE00"/>
<path d="M420.072 355.9C421.559 355.9 422.764 354.695 422.764 353.208C422.764 351.721 421.559 350.516 420.072 350.516C418.586 350.516 417.381 351.721 417.381 353.208C417.381 354.695 418.586 355.9 420.072 355.9Z" fill="#FFCE00"/>
<path d="M404.175 423.587C400.399 423.587 397.327 420.515 397.327 416.738V350.964C397.327 347.187 400.399 344.115 404.175 344.115H490.846C494.623 344.115 497.694 347.187 497.694 350.964V376.563L530.426 355.09L465.164 325.603C463.926 327.357 461.884 328.51 459.573 328.51H385.495C381.718 328.51 378.647 325.438 378.647 321.661V286.508L371.713 283.374V347.757H364.527V394.204H381.068C384.845 394.204 387.916 397.276 387.916 401.053V466.828C387.916 470.605 384.845 473.677 381.068 473.677H364.527V513.324L405.879 450.272L434.504 478.901L473.686 439.713L457.562 423.587H404.169H404.175Z" fill="#FFCE00"/>
<path d="M292.085 350.939V347.763H284.9V319.735H260.879V319.122C260.879 313.064 265.802 308.14 271.86 308.14C273.074 308.14 274.257 308.336 275.397 308.729C275.409 302.689 279.413 297.575 284.9 295.865V274.765H297.063V260.209H301.104L304.187 252.863L215.499 212.787L207.615 220.672L230.213 270.7C228.11 271.792 226.516 273.735 225.909 276.139C224.959 275.789 223.972 275.612 222.961 275.612C218.234 275.612 214.384 279.456 214.384 284.19V284.803H236.577L292.079 407.663V350.939H292.085ZM215.64 283.571C215.953 279.806 219.117 276.832 222.967 276.832C224.052 276.832 225.106 277.071 226.1 277.543L226.841 277.893L226.97 277.083C227.534 273.539 230.55 270.97 234.131 270.97C234.566 270.97 235.026 271.013 235.486 271.099L236.068 271.209L236.197 270.627C237.38 265.212 242.266 261.282 247.809 261.282C254.369 261.282 259.702 266.617 259.702 273.177C259.702 273.545 259.684 273.919 259.641 274.33L259.549 275.287L260.456 274.968C261.505 274.6 262.578 274.416 263.657 274.416C268.831 274.416 273.074 278.463 273.392 283.558H215.64V283.571Z" fill="#FFCE00"/>
<path d="M455.372 646.725V575.542L431.922 583.955V568.534L472.318 553.94H473.274V646.725H455.372Z" fill="#FFCE00"/>
<path d="M520.634 646.725V575.542L497.184 583.955V568.534L537.579 553.94H538.536V646.725H520.634Z" fill="#FFCE00"/>
<path d="M571.802 553.94H623.288V568.981H586.393L584.162 589.375C585.48 588.609 587.349 587.824 589.771 587.014C592.193 586.211 594.976 585.806 598.115 585.806C602.578 585.806 606.557 586.518 610.064 587.94C613.571 589.363 616.532 591.411 618.954 594.09C621.332 596.77 623.159 600.038 624.435 603.907C625.71 607.776 626.347 612.148 626.347 617.035C626.347 621.198 625.728 625.153 624.502 628.888C623.27 632.628 621.381 635.921 618.831 638.766C616.281 641.611 613.074 643.861 609.212 645.523C605.343 647.178 600.782 648.006 595.51 648.006C591.518 648.006 587.662 647.411 583.947 646.222C580.232 645.032 576.927 643.291 574.04 640.998C571.152 638.704 568.804 635.89 567.001 632.554C565.193 629.219 564.23 625.405 564.102 621.113H581.562C581.985 625.147 583.444 628.274 585.927 630.482C588.41 632.689 591.586 633.793 595.454 633.793C597.833 633.793 599.862 633.345 601.542 632.456C603.222 631.561 604.589 630.335 605.65 628.759C606.668 627.189 607.422 625.319 607.912 623.148C608.403 620.984 608.642 618.648 608.642 616.14C608.642 613.632 608.335 611.412 607.716 609.352C607.097 607.292 606.153 605.52 604.877 604.03C603.602 602.546 602.008 601.393 600.102 600.59C598.189 599.787 595.939 599.382 593.345 599.382C591.604 599.382 590.096 599.529 588.821 599.83C587.546 600.13 586.418 600.51 585.443 600.976C584.468 601.442 583.597 601.988 582.831 602.601C582.065 603.22 581.341 603.864 580.667 604.545L566.523 601.038L571.814 553.94H571.802Z" fill="#FFCE00"/>
<path d="M195.133 505.733C157.202 505.733 126.346 474.872 126.346 436.936C126.346 398.999 157.202 368.139 195.133 368.139C233.064 368.139 263.92 398.999 263.92 436.936C263.92 474.872 233.064 505.733 195.133 505.733ZM195.133 371.204C158.894 371.204 129.411 400.692 129.411 436.936C129.411 473.18 158.894 502.667 195.133 502.667C231.372 502.667 260.855 473.18 260.855 436.936C260.855 400.692 231.372 371.204 195.133 371.204Z" fill="#FFCE00"/>
<path d="M155.902 423.692C161.438 407.332 176.924 395.516 195.126 395.516C213.329 395.516 228.815 407.332 234.351 423.692H235.645C230.06 406.645 214.009 394.29 195.12 394.29C176.231 394.29 160.181 406.645 154.596 423.692H155.889H155.902Z" fill="#FFCE00"/>
<path d="M234.314 450.303C228.741 466.601 213.285 478.355 195.126 478.355C176.967 478.355 161.511 466.601 155.938 450.303H154.645C160.266 467.288 176.28 479.582 195.126 479.582C213.972 479.582 229.986 467.288 235.608 450.303H234.314Z" fill="#FFCE00"/>
<path d="M183.111 493.758L182.59 495.567L174.902 493.359L178.237 481.746L180.487 482.39L177.673 492.194L183.111 493.758Z" fill="#FFCE00" stroke="#FFCE00" stroke-width="0.25" stroke-miterlimit="10"/>
<path d="M193.533 493.206C193.392 493.66 193.214 494.077 192.994 494.457C192.767 494.837 192.497 495.174 192.191 495.475C191.884 495.775 191.541 496.02 191.167 496.204C190.83 496.364 190.462 496.48 190.069 496.548C189.677 496.615 189.26 496.628 188.819 496.578C188.353 496.529 187.924 496.425 187.543 496.26C187.157 496.1 186.814 495.892 186.514 495.634C186.219 495.371 185.962 495.064 185.741 494.708C185.52 494.353 185.349 493.96 185.22 493.531C185.103 493.132 185.03 492.709 184.999 492.256C184.969 491.802 184.975 491.33 185.024 490.833L185.208 489.086C185.263 488.558 185.361 488.062 185.502 487.596C185.643 487.13 185.821 486.706 186.035 486.326C186.244 485.965 186.489 485.64 186.765 485.358C187.041 485.075 187.353 484.842 187.691 484.652C188.028 484.468 188.396 484.34 188.8 484.266C189.205 484.193 189.634 484.18 190.088 484.223C190.548 484.272 190.977 484.376 191.369 484.536C191.761 484.695 192.111 484.904 192.411 485.155C192.712 485.4 192.975 485.683 193.19 486.001C193.405 486.326 193.582 486.676 193.717 487.05C193.87 487.479 193.969 487.939 194.018 488.436C194.067 488.932 194.067 489.447 194.011 489.993L193.828 491.741C193.772 492.256 193.674 492.746 193.533 493.2V493.206ZM191.7 488.853C191.7 488.571 191.676 488.307 191.633 488.068C191.584 487.761 191.498 487.485 191.387 487.24C191.271 486.989 191.13 486.786 190.958 486.615C190.823 486.492 190.664 486.388 190.486 486.308C190.308 486.228 190.106 486.179 189.879 486.155C189.665 486.13 189.469 486.142 189.291 486.179C189.113 486.216 188.947 486.277 188.8 486.369C188.598 486.504 188.42 486.682 188.267 486.897C188.114 487.111 187.985 487.375 187.881 487.675C187.801 487.908 187.734 488.16 187.678 488.442C187.623 488.718 187.58 489.012 187.55 489.319L187.366 491.085C187.335 491.379 187.317 491.661 187.311 491.931C187.304 492.2 187.317 492.458 187.347 492.697C187.378 492.998 187.439 493.267 187.531 493.519C187.623 493.77 187.746 493.979 187.887 494.144C188.022 494.291 188.181 494.414 188.365 494.5C188.549 494.592 188.757 494.647 189.003 494.672C189.236 494.696 189.45 494.684 189.646 494.641C189.843 494.598 190.026 494.518 190.186 494.408C190.388 494.273 190.566 494.095 190.719 493.874C190.872 493.654 191.001 493.396 191.112 493.108C191.197 492.881 191.265 492.636 191.326 492.366C191.387 492.096 191.43 491.808 191.461 491.514L191.645 489.748C191.676 489.441 191.694 489.147 191.688 488.865L191.7 488.853Z" fill="#FFCE00" stroke="#FFCE00" stroke-width="0.25" stroke-miterlimit="10"/>
<path d="M202.147 496.352L198.107 488.889L198.799 496.652L196.464 496.861L195.391 484.824L197.726 484.616L201.742 492.047L201.062 484.315L203.391 484.107L204.464 496.143L202.153 496.352H202.147Z" fill="#FFCE00" stroke="#FFCE00" stroke-width="0.25" stroke-miterlimit="10"/>
<path d="M204.674 483.88L207.678 483.003C208.211 482.844 208.732 482.764 209.241 482.758C209.744 482.752 210.222 482.813 210.676 482.936C211.068 483.034 211.436 483.187 211.786 483.395C212.129 483.604 212.454 483.843 212.748 484.119C213.098 484.462 213.404 484.861 213.674 485.321C213.944 485.781 214.158 486.283 214.324 486.841L214.606 487.798C214.765 488.331 214.851 488.859 214.875 489.368C214.9 489.877 214.863 490.367 214.765 490.827C214.667 491.244 214.526 491.636 214.342 492.017C214.158 492.397 213.937 492.734 213.668 493.028C213.361 493.378 212.999 493.684 212.583 493.942C212.166 494.199 211.7 494.408 211.185 494.561L208.07 495.475L204.674 483.88ZM209.799 493.016L210.657 492.765C210.933 492.685 211.179 492.575 211.399 492.434C211.62 492.293 211.804 492.127 211.963 491.937C212.123 491.741 212.258 491.508 212.356 491.25C212.454 490.986 212.521 490.698 212.552 490.373C212.576 490.097 212.564 489.797 212.527 489.478C212.491 489.159 212.417 488.822 212.313 488.466L212.031 487.498C211.933 487.16 211.816 486.854 211.675 486.566C211.534 486.283 211.381 486.026 211.215 485.805C211.013 485.542 210.78 485.321 210.523 485.143C210.265 484.965 209.989 484.836 209.695 484.763C209.474 484.708 209.235 484.683 208.984 484.689C208.732 484.695 208.475 484.738 208.205 484.818L207.457 485.039L209.793 493.016H209.799Z" fill="#FFCE00" stroke="#FFCE00" stroke-width="0.25" stroke-miterlimit="10"/>
<path d="M224.874 484.738C225.009 485.198 225.089 485.64 225.113 486.075C225.132 486.516 225.095 486.946 225.003 487.369C224.911 487.792 224.758 488.184 224.549 488.54C224.353 488.859 224.114 489.159 223.82 489.429C223.532 489.705 223.188 489.944 222.796 490.146C222.379 490.367 221.968 490.514 221.557 490.588C221.147 490.661 220.748 490.68 220.356 490.637C219.963 490.582 219.577 490.465 219.203 490.287C218.823 490.116 218.461 489.883 218.118 489.595C217.805 489.331 217.505 489.012 217.229 488.656C216.953 488.295 216.696 487.896 216.463 487.455L215.647 485.897C215.402 485.425 215.206 484.959 215.071 484.493C214.93 484.027 214.844 483.579 214.82 483.138C214.795 482.721 214.82 482.316 214.893 481.93C214.967 481.544 215.096 481.176 215.28 480.832C215.457 480.495 215.696 480.182 215.991 479.9C216.285 479.618 216.634 479.367 217.045 479.152C217.456 478.938 217.873 478.791 218.284 478.705C218.701 478.625 219.105 478.6 219.491 478.65C219.878 478.686 220.252 478.778 220.607 478.932C220.963 479.085 221.306 479.275 221.625 479.514C221.987 479.79 222.324 480.115 222.643 480.501C222.961 480.888 223.243 481.323 223.495 481.807L224.31 483.365C224.549 483.825 224.739 484.285 224.868 484.744L224.874 484.738ZM220.951 482.12C220.797 481.887 220.632 481.679 220.46 481.501C220.245 481.274 220.025 481.09 219.798 480.943C219.565 480.796 219.332 480.704 219.099 480.661C218.915 480.63 218.725 480.636 218.535 480.661C218.345 480.685 218.149 480.759 217.946 480.863C217.756 480.961 217.597 481.078 217.468 481.206C217.339 481.335 217.235 481.482 217.162 481.636C217.07 481.863 217.015 482.108 217.008 482.371C217.002 482.635 217.039 482.923 217.119 483.23C217.18 483.469 217.266 483.714 217.376 483.978C217.487 484.242 217.609 484.505 217.756 484.781L218.578 486.357C218.713 486.615 218.854 486.86 219.001 487.093C219.148 487.326 219.295 487.528 219.455 487.706C219.645 487.939 219.847 488.135 220.062 488.288C220.276 488.448 220.491 488.552 220.705 488.613C220.901 488.663 221.098 488.675 221.3 488.65C221.502 488.626 221.711 488.558 221.925 488.442C222.134 488.331 222.305 488.209 222.446 488.055C222.587 487.908 222.692 487.743 222.765 487.559C222.857 487.332 222.912 487.087 222.919 486.817C222.925 486.547 222.894 486.265 222.827 485.965C222.771 485.732 222.698 485.486 222.594 485.223C222.489 484.965 222.373 484.701 222.232 484.438L221.41 482.862C221.269 482.586 221.116 482.335 220.963 482.102L220.951 482.12Z" fill="#FFCE00" stroke="#FFCE00" stroke-width="0.25" stroke-miterlimit="10"/>
<path d="M233.794 482.586L226.296 478.613L231.17 484.689L229.337 486.161L221.777 476.736L223.61 475.265L231.065 479.232L226.216 473.174L228.043 471.708L235.602 481.133L233.788 482.586H233.794Z" fill="#FFCE00" stroke="#FFCE00" stroke-width="0.25" stroke-miterlimit="10"/>
<path d="M240.282 478.748C240.539 479.416 240.662 480.084 240.643 480.753L239.35 481.213C239.203 480.79 239.019 480.373 238.798 479.974C238.577 479.569 238.246 479.165 237.805 478.748L236.389 477.423L237.866 475.841L239.197 477.098C239.656 477.528 240.018 478.079 240.276 478.754L240.282 478.748Z" fill="#FFCE00" stroke="#FFCE00" stroke-width="0.25" stroke-miterlimit="10"/>
<path d="M244.744 462.652C245.32 463.008 245.78 463.4 246.129 463.835C246.479 464.271 246.718 464.731 246.841 465.215C246.963 465.706 246.975 466.221 246.871 466.748C246.767 467.275 246.546 467.821 246.203 468.367C245.884 468.888 245.516 469.305 245.099 469.624C244.682 469.943 244.229 470.157 243.738 470.261C243.248 470.366 242.733 470.366 242.181 470.255C241.629 470.139 241.071 469.906 240.495 469.55L233.678 465.344L234.898 463.357L241.721 467.545C242.071 467.754 242.39 467.901 242.69 467.999C242.99 468.097 243.26 468.134 243.512 468.109C243.738 468.085 243.947 468.017 244.125 467.895C244.309 467.772 244.468 467.6 244.603 467.38C244.75 467.14 244.842 466.901 244.873 466.662C244.903 466.423 244.873 466.196 244.787 465.969C244.701 465.73 244.548 465.503 244.333 465.283C244.118 465.062 243.849 464.841 243.518 464.633L236.7 460.426L237.914 458.452L244.738 462.64L244.744 462.652Z" fill="#FFCE00" stroke="#FFCE00" stroke-width="0.25" stroke-miterlimit="10"/>
<path d="M247.276 458.102L250.612 459.341L249.796 461.536L238.473 457.33L239.288 455.135L244.475 457.06L243.469 455.521L240.686 451.351L241.679 448.678L245.272 454.35L253.058 452.743L252.095 455.343L246.406 456.416L247.276 458.102Z" fill="#FFCE00" stroke="#FFCE00" stroke-width="0.25" stroke-miterlimit="10"/>
<path d="M186.889 430.278L180.668 436.499L186.889 442.721L193.11 436.499L186.889 430.278Z" fill="#FFCE00"/>
<path d="M178.848 422.23L172.627 428.452L178.848 434.674L185.069 428.452L178.848 422.23Z" fill="#FFCE00"/>
<path d="M170.701 430.275L164.523 436.454L170.744 442.676L176.922 436.497L170.701 430.275Z" fill="#FFCE00"/>
<path d="M195.039 422.229L188.818 428.451L194.992 434.625L201.212 428.403L195.039 422.229Z" fill="#FFCE00"/>
<path d="M240.506 435.207L235.57 430.265L230.629 435.207H240.506Z" fill="#FFCE00"/>
<path d="M159.365 435.121L154.51 430.265L149.654 435.121H159.365Z" fill="#FFCE00"/>
<path d="M211.237 422.214L205.072 428.38L211.28 434.588L217.445 428.423L211.237 422.214Z" fill="#FFCE00"/>
<path d="M219.282 430.381L213.113 436.551L219.273 442.712L225.442 436.542L219.282 430.381Z" fill="#FFCE00"/>
<path d="M149.611 437.813L154.51 442.712L159.408 437.813H149.611Z" fill="#FFCE00"/>
<path d="M211.195 438.469L211.177 438.45L205.016 444.619L211.238 450.842L217.455 444.619L211.251 438.407L211.195 438.469Z" fill="#FFCE00"/>
<path d="M230.795 437.942L235.571 442.712L240.341 437.942H230.795Z" fill="#FFCE00"/>
<path d="M203.107 430.386L196.93 436.564L203.081 442.717L209.259 436.538L203.107 430.386Z" fill="#FFCE00"/>
<path d="M195.069 438.424L188.848 444.646L195.047 450.846L201.268 444.624L195.069 438.424Z" fill="#FFCE00"/>
<path d="M178.852 438.468L172.67 444.651L178.86 450.843L185.042 444.66L178.852 438.468Z" fill="#FFCE00"/>
<path d="M592.034 449.634C591.458 448.899 590.587 448.482 589.655 448.482H493.126C490.827 448.482 488.853 450.039 488.314 452.271L473.465 513.851H407.553V525.066C407.553 526.25 408.515 527.212 409.699 527.212H575.432C576.615 527.212 577.578 526.25 577.578 525.066V514.532L592.604 452.216C592.825 451.308 592.617 450.364 592.04 449.634H592.034ZM489.503 452.559C489.908 450.879 491.397 449.708 493.126 449.708H588.006L580.275 481.777L572.544 513.845H474.734L489.509 452.553L489.503 452.559ZM449.132 515.078V516.825C449.132 517.365 448.69 517.806 448.151 517.806H431.469C430.929 517.806 430.488 517.365 430.488 516.825V515.078H449.132ZM473.213 525.986H409.699C409.19 525.986 408.779 525.575 408.779 525.066V515.078H429.262V516.825C429.262 518.039 430.249 519.033 431.469 519.033H448.151C449.365 519.033 450.358 518.045 450.358 516.825V515.078H473.213V525.986Z" fill="#FFCE00"/>
<path d="M503.002 405.634V416.37H588.784V405.634H503.002ZM518.39 413.255L516.962 414.292L515.821 412.274L514.687 414.218L513.247 413.225L514.767 411.434L512.633 410.913L513.167 409.257L515.202 410.159L515.006 407.817H516.766L516.551 410.202L518.568 409.319L519.101 411.005L516.931 411.502L518.39 413.261V413.255ZM530.4 413.255L528.972 414.292L527.832 412.274L526.697 414.218L525.257 413.225L526.777 411.434L524.644 410.913L525.177 409.257L527.212 410.159L527.016 407.817H528.776L528.561 410.202L530.578 409.319L531.112 411.005L528.941 411.502L530.4 413.261V413.255ZM542.417 413.255L540.988 414.292L539.848 412.274L538.714 414.218L537.273 413.225L538.793 411.434L536.66 410.913L537.193 409.257L539.229 410.159L539.033 407.817H540.792L540.578 410.202L542.595 409.319L543.128 411.005L540.964 411.502L542.423 413.261L542.417 413.255ZM554.427 413.255L552.998 414.292L551.858 412.274L550.724 414.218L549.283 413.225L550.804 411.434L548.67 410.913L549.204 409.257L551.239 410.159L551.043 407.817H552.802L552.588 410.202L554.605 409.319L555.138 411.005L552.974 411.502L554.433 413.261L554.427 413.255ZM566.437 413.255L565.009 414.292L563.868 412.274L562.734 414.218L561.293 413.225L562.814 411.434L560.68 410.913L561.214 409.257L563.249 410.159L563.053 407.817H564.813L564.598 410.202L566.615 409.319L567.148 411.005L564.978 411.502L566.437 413.261V413.255ZM578.453 413.255L577.025 414.292L575.885 412.274L574.75 414.218L573.31 413.225L574.83 411.434L572.697 410.913L573.23 409.257L575.265 410.159L575.069 407.817H576.829L576.614 410.202L578.631 409.319L579.165 411.005L576.994 411.502L578.453 413.261V413.255Z" fill="#FFCE00"/>
<path d="M346.605 300.019L343.148 302.014L343.761 303.077L347.218 301.081L346.605 300.019Z" fill="#FFCE00"/>
<path d="M328.925 328.761H327.699V332.753H328.925V328.761Z" fill="#FFCE00"/>
<path d="M337.591 326.113L336.529 326.726L338.525 330.183L339.587 329.57L337.591 326.113Z" fill="#FFCE00"/>
<path d="M343.775 319.5L343.162 320.562L346.619 322.558L347.232 321.496L343.775 319.5Z" fill="#FFCE00"/>
<path d="M300.111 311.267V339.473H328.313C312.765 339.473 300.111 326.823 300.111 311.267Z" fill="#FFCE00"/>
<path d="M328.312 339.467H356.514V311.261C356.514 326.811 343.866 339.467 328.312 339.467Z" fill="#FFCE00"/>
<path d="M312.844 319.509L309.387 321.504L310 322.566L313.456 320.571L312.844 319.509Z" fill="#FFCE00"/>
<path d="M356.508 311.267V283.062H328.307C343.854 283.062 356.508 295.711 356.508 311.267Z" fill="#FFCE00"/>
<path d="M338.513 292.323L336.518 295.78L337.58 296.393L339.575 292.936L338.513 292.323Z" fill="#FFCE00"/>
<path d="M328.925 289.776H327.699V293.768H328.925V289.776Z" fill="#FFCE00"/>
<path d="M300.111 311.267C300.111 295.717 312.759 283.062 328.313 283.062H300.111V311.267Z" fill="#FFCE00"/>
<path d="M310.815 310.654H306.824V311.881H310.815V310.654Z" fill="#FFCE00"/>
<path d="M328.314 335.696C341.783 335.696 352.739 324.739 352.739 311.267C352.739 297.796 341.783 286.839 328.314 286.839C314.844 286.839 303.889 297.796 303.889 311.267C303.889 324.739 314.844 335.696 328.314 335.696ZM328.314 288.059C341.109 288.059 351.513 298.471 351.513 311.261C351.513 324.052 341.103 334.463 328.314 334.463C315.525 334.463 305.115 324.052 305.115 311.261C305.115 298.471 315.525 288.059 328.314 288.059Z" fill="#FFCE00"/>
<path d="M310.01 299.999L309.396 301.061L312.853 303.057L313.466 301.995L310.01 299.999Z" fill="#FFCE00"/>
<path d="M318.097 292.341L317.035 292.954L319.031 296.411L320.093 295.798L318.097 292.341Z" fill="#FFCE00"/>
<path d="M319.022 326.089L317.027 329.547L318.089 330.16L320.084 326.702L319.022 326.089Z" fill="#FFCE00"/>
</g>
<defs>
<clipPath id="clip0_1018_142">
<rect width="539" height="558" fill="white" transform="translate(94 90)"/>
</clipPath>
</defs>
</svg>
