<svg width="729" height="728" viewBox="0 0 729 728" fill="none" xmlns="http://www.w3.org/2000/svg">
<rect width="728.562" height="728" rx="20" fill="#262435"/>
<g clip-path="url(#clip0_1018_144)">
<path d="M292.908 221.265C292.596 221.916 291.896 222.241 291.208 222.066C290.583 221.903 289.933 221.828 289.295 221.828C284.958 221.828 281.42 225.358 281.42 229.714C281.42 230.039 281.445 230.365 281.482 230.678L281.62 231.842H322.598L322.573 230.49C322.51 226.71 319.397 223.643 315.622 223.643H315.597C314.897 223.643 314.309 223.23 314.097 222.579C312.559 217.873 308.197 214.719 303.246 214.719C298.859 214.719 294.796 217.285 292.921 221.265H292.908ZM311.572 223.405C312.134 225.133 313.772 226.322 315.622 226.284C317.485 226.284 319.097 227.498 319.685 229.176H284.095C284.358 226.535 286.595 224.469 289.295 224.469C289.72 224.469 290.158 224.519 290.57 224.632C292.471 225.108 294.471 224.169 295.308 222.391C296.758 219.337 299.871 217.36 303.246 217.36C307.047 217.36 310.397 219.788 311.584 223.405H311.572Z" fill="#D4B165"/>
<path d="M255.294 274.224C249.293 274.224 244.418 279.105 244.418 285.113V286.44H266.169V285.113C266.169 279.105 261.294 274.224 255.294 274.224ZM247.181 283.787C247.818 279.869 251.218 276.877 255.306 276.877C259.394 276.877 262.794 279.869 263.432 283.787H247.193H247.181Z" fill="#D4B165"/>
<path d="M504.509 301.185V302.512H525.835V301.185C525.835 295.302 521.047 290.508 515.172 290.508C509.297 290.508 504.509 295.302 504.509 301.185ZM523.085 299.858H507.271C507.909 296.066 511.209 293.162 515.184 293.162C519.16 293.162 522.46 296.066 523.097 299.858H523.085Z" fill="#D4B165"/>
<path d="M410.328 338.16H387.627C386.889 338.16 386.302 338.748 386.302 339.487C386.302 340.225 386.889 340.814 387.627 340.814H410.328C411.066 340.814 411.653 340.225 411.653 339.487C411.653 338.748 411.066 338.16 410.328 338.16Z" fill="#D4B165"/>
<path d="M410.328 350.602H387.627C386.889 350.602 386.302 351.19 386.302 351.929C386.302 352.667 386.889 353.255 387.627 353.255H410.328C411.066 353.255 411.653 352.667 411.653 351.929C411.653 351.19 411.066 350.602 410.328 350.602Z" fill="#D4B165"/>
<path d="M410.328 363.056H387.627C386.889 363.056 386.302 363.644 386.302 364.383C386.302 365.121 386.889 365.71 387.627 365.71H410.328C411.066 365.71 411.653 365.121 411.653 364.383C411.653 363.644 411.066 363.056 410.328 363.056Z" fill="#D4B165"/>
<path d="M410.328 375.498H387.627C386.889 375.498 386.302 376.086 386.302 376.825C386.302 377.563 386.889 378.152 387.627 378.152H410.328C411.066 378.152 411.653 377.563 411.653 376.825C411.653 376.086 411.066 375.498 410.328 375.498Z" fill="#D4B165"/>
<path d="M410.328 387.94H387.627C386.889 387.94 386.302 388.528 386.302 389.266C386.302 390.005 386.889 390.593 387.627 390.593H410.328C411.066 390.593 411.653 390.005 411.653 389.266C411.653 388.528 411.066 387.94 410.328 387.94Z" fill="#D4B165"/>
<path d="M410.328 400.381H387.627C386.889 400.381 386.302 400.97 386.302 401.708C386.302 402.447 386.889 403.035 387.627 403.035H410.328C411.066 403.035 411.653 402.447 411.653 401.708C411.653 400.97 411.066 400.381 410.328 400.381Z" fill="#D4B165"/>
<path d="M410.328 412.823H387.627C386.889 412.823 386.302 413.412 386.302 414.15C386.302 414.889 386.889 415.477 387.627 415.477H410.328C411.066 415.477 411.653 414.889 411.653 414.15C411.653 413.412 411.066 412.823 410.328 412.823Z" fill="#D4B165"/>
<path d="M410.328 425.265H387.627C386.889 425.265 386.302 425.853 386.302 426.592C386.302 427.33 386.889 427.919 387.627 427.919H410.328C411.066 427.919 411.653 427.33 411.653 426.592C411.653 425.853 411.066 425.265 410.328 425.265Z" fill="#D4B165"/>
<path d="M410.328 437.707H387.627C386.889 437.707 386.302 438.295 386.302 439.034C386.302 439.772 386.889 440.36 387.627 440.36H410.328C411.066 440.36 411.653 439.772 411.653 439.034C411.653 438.295 411.066 437.707 410.328 437.707Z" fill="#D4B165"/>
<path d="M368.926 319.26C369.663 319.26 370.251 318.671 370.251 317.933V315.379C370.251 314.641 369.663 314.053 368.926 314.053C368.188 314.053 367.601 314.641 367.601 315.379V317.933C367.601 318.671 368.188 319.26 368.926 319.26Z" fill="#D4B165"/>
<path d="M377.163 319.26C377.901 319.26 378.488 318.671 378.488 317.933V315.379C378.488 314.641 377.901 314.053 377.163 314.053C376.425 314.053 375.838 314.641 375.838 315.379V317.933C375.838 318.671 376.425 319.26 377.163 319.26Z" fill="#D4B165"/>
<path d="M368.926 307.231C369.663 307.231 370.251 306.643 370.251 305.904V303.351C370.251 302.612 369.663 302.024 368.926 302.024C368.188 302.024 367.601 302.612 367.601 303.351V305.904C367.601 306.643 368.188 307.231 368.926 307.231Z" fill="#D4B165"/>
<path d="M377.163 307.231C377.901 307.231 378.488 306.643 378.488 305.904V303.351C378.488 302.612 377.901 302.024 377.163 302.024C376.425 302.024 375.838 302.612 375.838 303.351V305.904C375.838 306.643 376.425 307.231 377.163 307.231Z" fill="#D4B165"/>
<path d="M504.709 157.366C467.132 119.728 417.153 99 364 99C310.847 99 260.869 119.728 223.291 157.366C185.701 194.992 165 245.034 165 298.256V618H563V298.256C563 245.034 542.299 194.992 504.709 157.366ZM560.35 615.346H167.65V298.256C167.65 245.735 188.076 196.369 225.166 159.231C262.244 122.106 311.547 101.654 364 101.654C416.453 101.654 465.756 122.106 502.846 159.244C539.936 196.381 560.362 245.748 560.362 298.269V615.359L560.35 615.346Z" fill="#D4B165"/>
<path d="M364 115.572C263.393 115.572 181.551 197.52 181.551 298.256V451.238C181.476 451.4 181.426 451.588 181.426 451.788C181.426 451.989 181.476 452.176 181.551 452.339V560.285C181.388 562.2 181.388 564.015 181.551 565.729V601.428H202.952H524.797H546.449V298.256C546.449 251.969 526.972 205.556 493.02 170.922C458.018 135.224 412.203 115.572 364 115.572ZM363.65 210.025C366.962 210.025 369.663 212.728 369.663 216.045C369.663 219.125 367.35 221.653 364.375 222.016C364.25 221.978 364.125 221.953 364 221.953C363.825 221.953 363.65 221.991 363.5 222.053C360.262 221.966 357.649 219.312 357.649 216.045C357.649 212.778 360.35 210.025 363.662 210.025H363.65ZM365.325 328.76V280.507H375.2V289.044L383.801 294.739V315.867L383.713 328.372H387.526C387.526 328.372 387.589 328.372 387.614 328.372H387.676V332.54L373.463 339.837L376.838 450.462H365.275C365.3 450.361 365.312 450.274 365.312 450.174V328.772L365.325 328.76ZM421.116 314.716V450.462H379.501L376.175 341.427L390.339 334.155V328.372H410.34C411.078 328.372 411.665 327.784 411.665 327.045C411.665 326.307 411.078 325.718 410.34 325.718H390.339H386.389L386.451 315.88V293.325L384.739 292.186C392.176 283.774 396.239 273.122 398.452 263.947V314.165L421.128 314.716H421.116ZM456.631 267.077V276.727H482.47V314.891C479.732 314.954 477.019 315.167 474.369 315.567V291.222C474.369 290.483 473.782 289.895 473.044 289.895C472.307 289.895 471.719 290.483 471.719 291.222V316.03C466.756 317.007 461.993 318.571 457.518 320.649V291.222C457.518 290.483 456.931 289.895 456.193 289.895C455.455 289.895 454.868 290.483 454.868 291.222V321.45C454.868 321.613 454.905 321.763 454.955 321.913C449.718 324.642 444.917 328.084 440.667 332.127V291.222C440.667 290.483 440.08 289.895 439.342 289.895C438.604 289.895 438.017 290.483 438.017 291.222V334.167C438.017 334.342 438.054 334.518 438.117 334.68C431.616 341.615 426.654 350.014 423.816 359.339V291.222C423.816 290.483 423.228 289.895 422.491 289.895C421.753 289.895 421.166 290.483 421.166 291.222V312.062L413.578 311.875V282.084H429.529L429.616 267.077H456.606H456.631ZM543.773 376.286H530.023C529.685 364.508 524.96 353.831 517.397 345.82L527.11 336.095C537.148 346.596 543.423 360.715 543.761 376.286H543.773ZM522.622 545.177C519.009 543.437 514.922 542.711 510.909 542.974V538.655C510.909 533.273 506.534 528.892 501.158 528.892H486.882C486.332 527.39 484.907 526.301 483.22 526.301C481.057 526.301 479.307 528.054 479.307 530.219C479.307 532.385 481.057 534.137 483.22 534.137C484.907 534.137 486.345 533.048 486.882 531.546H501.158C505.071 531.546 508.259 534.738 508.259 538.655V543.287C505.346 543.8 502.546 544.839 500.046 546.403C493.395 550.559 489.07 558.32 489.02 566.168C489.02 568.333 489.308 570.523 489.883 572.664C487.77 571.162 485.52 569.923 482.895 569.297C479.794 568.558 475.207 568.083 470.944 570.073C466.831 571.988 464.069 576.018 464.069 580.086C464.069 582.402 465.106 584.793 466.856 586.482C466.994 586.62 467.144 586.745 467.281 586.87C467.431 588.898 469.106 590.5 471.169 590.5C473.232 590.5 475.082 588.748 475.082 586.583C475.082 584.417 473.332 582.665 471.169 582.665C469.981 582.665 468.931 583.203 468.206 584.042C467.269 582.903 466.719 581.476 466.719 580.086C466.719 577.02 468.856 573.966 472.057 572.476C475.619 570.811 479.569 571.237 482.27 571.875C485.807 572.726 488.733 574.979 491.645 577.445C493.708 581.764 496.921 585.832 501.133 589.299C506.109 593.392 511.909 596.321 517.797 598.774H209.928C215.815 596.321 221.628 593.404 226.591 589.299C230.791 585.832 234.004 581.764 236.079 577.445C239.004 574.992 241.917 572.726 245.455 571.875C248.142 571.224 252.105 570.811 255.668 572.476C258.868 573.966 261.018 577.032 261.006 580.086C261.006 581.476 260.456 582.903 259.518 584.042C258.806 583.203 257.743 582.665 256.555 582.665C254.393 582.665 252.643 584.417 252.643 586.583C252.643 588.748 254.393 590.5 256.555 590.5C258.718 590.5 260.293 588.898 260.443 586.87C260.593 586.745 260.731 586.62 260.868 586.482C262.606 584.793 263.656 582.402 263.656 580.086C263.656 576.018 260.906 571.988 256.781 570.073C252.53 568.083 247.942 568.558 244.83 569.297C242.205 569.923 239.954 571.162 237.842 572.664C238.417 570.511 238.717 568.333 238.704 566.168C238.654 558.32 234.329 550.559 227.679 546.403C225.179 544.839 222.378 543.8 219.466 543.287V538.655C219.466 534.738 222.653 531.546 226.566 531.546H240.842C241.392 533.048 242.817 534.137 244.505 534.137C246.667 534.137 248.417 532.385 248.417 530.219C248.417 528.054 246.667 526.301 244.505 526.301C242.817 526.301 241.38 527.39 240.842 528.892H226.566C221.191 528.892 216.816 533.273 216.816 538.655V542.974C212.79 542.711 208.715 543.424 205.102 545.177C205.077 545.189 205.052 545.202 205.015 545.214V537.767L204.202 537.429C198.214 534.95 193.377 531.233 190.201 526.689C186.689 521.658 185.301 515.437 186.489 510.042C187.814 504.059 192.489 499.34 198.127 498.289C203.065 497.375 207.64 499.49 210.678 504.096C212.19 506.374 212.728 508.853 212.153 510.868C211.915 511.732 211.353 512.558 210.64 513.196C209.928 512.282 208.828 511.682 207.577 511.682C205.415 511.682 203.665 513.434 203.665 515.599C203.665 517.765 205.415 519.517 207.577 519.517C209.74 519.517 211.29 517.927 211.453 515.912C212.965 514.974 214.178 513.446 214.703 511.581C215.478 508.815 214.815 505.561 212.878 502.632C211.415 500.416 209.653 498.702 207.665 497.487H221.128C224.128 499.215 226.391 502.219 227.191 505.586C228.016 509.053 227.291 512.883 225.254 515.812C224.841 516.413 224.979 517.239 225.579 517.652C225.804 517.815 226.079 517.89 226.329 517.89C226.741 517.89 227.154 517.69 227.416 517.327C229.879 513.784 230.754 509.166 229.754 504.973C229.079 502.131 227.541 499.528 225.454 497.487H502.158C500.071 499.528 498.533 502.131 497.858 504.973C496.858 509.166 497.733 513.784 500.196 517.327C500.458 517.702 500.858 517.89 501.283 517.89C501.546 517.89 501.808 517.815 502.033 517.652C502.633 517.239 502.783 516.413 502.358 515.812C500.321 512.883 499.596 509.066 500.421 505.586C501.221 502.219 503.483 499.215 506.484 497.487H520.009C518.034 498.702 516.259 500.416 514.797 502.632C512.859 505.561 512.197 508.828 512.972 511.581C513.497 513.434 514.709 514.961 516.222 515.9C516.384 517.915 518.047 519.505 520.097 519.505C522.26 519.505 524.01 517.752 524.01 515.587C524.01 513.421 522.26 511.669 520.097 511.669C518.847 511.669 517.747 512.27 517.034 513.184C516.322 512.545 515.759 511.707 515.522 510.855C514.947 508.84 515.497 506.374 516.997 504.084C520.047 499.478 524.622 497.362 529.548 498.276C535.185 499.327 539.861 504.046 541.186 510.029C542.373 515.424 540.986 521.645 537.473 526.677C534.298 531.22 529.448 534.938 523.472 537.416L522.66 537.754V545.202C522.66 545.202 522.61 545.177 522.572 545.164L522.622 545.177ZM211.853 344.081V412.635C209.065 410.42 205.615 409.018 201.852 408.768V344.081H211.853ZM279.619 414.663H316.572L320.66 424.677H218.616C218.153 420.834 216.49 417.379 214.015 414.663H279.619ZM242.83 376.374C242.83 370.491 247.617 365.697 253.493 365.697C259.368 365.697 264.156 370.491 264.156 376.374C264.156 382.257 259.368 387.051 253.493 387.051C247.617 387.051 242.83 382.257 242.83 376.374ZM276.932 412.01H230.054C230.741 399.655 240.992 389.83 253.493 389.83C265.994 389.83 276.244 399.668 276.932 412.01ZM329.91 414.563L349.024 422.386L339.148 428.006L351.186 440.06L347.886 443.364L335.848 431.311L330.235 441.199L318.659 412.823L317.259 409.394L329.885 414.563H329.91ZM364 453.115H439.617C439.754 453.165 439.904 453.203 440.067 453.203C440.23 453.203 440.38 453.165 440.517 453.115H543.811V475.608C540.123 475.508 536.711 473.493 534.86 470.276C534.848 470.251 534.823 470.238 534.81 470.213C534.76 470.138 534.698 470.075 534.635 470.013C534.573 469.95 534.51 469.888 534.435 469.838C534.41 469.825 534.398 469.8 534.373 469.788C534.323 469.763 534.273 469.75 534.21 469.738C534.123 469.7 534.048 469.675 533.96 469.65C533.873 469.637 533.798 469.637 533.71 469.637C533.623 469.637 533.548 469.637 533.46 469.65C533.373 469.662 533.285 469.7 533.21 469.738C533.16 469.763 533.098 469.763 533.048 469.788C533.023 469.8 533.01 469.825 532.985 469.838C532.91 469.888 532.848 469.95 532.785 470.013C532.723 470.075 532.66 470.138 532.61 470.213C532.598 470.238 532.573 470.251 532.56 470.276C530.648 473.58 527.11 475.62 523.297 475.62C519.484 475.62 515.947 473.568 514.034 470.276C514.022 470.251 513.997 470.238 513.984 470.213C513.934 470.138 513.872 470.075 513.809 470.013C513.747 469.95 513.684 469.888 513.609 469.838C513.584 469.825 513.572 469.8 513.547 469.788C513.497 469.763 513.447 469.763 513.384 469.738C513.297 469.7 513.222 469.662 513.122 469.65C513.034 469.637 512.959 469.637 512.872 469.637C512.784 469.637 512.709 469.637 512.622 469.65C512.534 469.662 512.447 469.7 512.359 469.738C512.309 469.763 512.247 469.763 512.197 469.788C512.172 469.8 512.159 469.825 512.134 469.838C512.059 469.888 511.996 469.95 511.934 470.013C511.871 470.075 511.809 470.138 511.759 470.213C511.747 470.238 511.721 470.251 511.709 470.276C509.796 473.58 506.259 475.62 502.446 475.62C498.633 475.62 495.095 473.568 493.183 470.276C493.17 470.251 493.145 470.238 493.133 470.213C493.083 470.138 493.02 470.075 492.958 470.013C492.895 469.95 492.833 469.888 492.758 469.838C492.733 469.825 492.72 469.8 492.695 469.788C492.645 469.763 492.595 469.75 492.533 469.738C492.445 469.7 492.37 469.675 492.283 469.65C492.195 469.637 492.12 469.637 492.033 469.637C491.945 469.637 491.87 469.637 491.783 469.65C491.695 469.662 491.608 469.7 491.533 469.738C491.483 469.763 491.42 469.763 491.37 469.788C491.345 469.8 491.333 469.825 491.308 469.838C491.233 469.888 491.17 469.95 491.108 470.013C491.045 470.075 490.983 470.138 490.933 470.213C490.92 470.238 490.895 470.251 490.883 470.276C488.97 473.58 485.432 475.62 481.62 475.62C477.807 475.62 474.269 473.568 472.357 470.276C472.344 470.251 472.319 470.238 472.307 470.213C472.257 470.138 472.194 470.075 472.132 470.013C472.069 469.95 472.007 469.888 471.932 469.838C471.906 469.825 471.894 469.8 471.869 469.788C471.819 469.763 471.769 469.763 471.707 469.738C471.619 469.7 471.544 469.662 471.444 469.65C471.356 469.637 471.281 469.637 471.194 469.637C471.106 469.637 471.031 469.637 470.944 469.65C470.856 469.662 470.769 469.7 470.681 469.738C470.631 469.763 470.569 469.763 470.519 469.788C470.494 469.8 470.481 469.825 470.456 469.838C470.381 469.888 470.319 469.95 470.256 470.013C470.194 470.075 470.131 470.138 470.081 470.213C470.069 470.238 470.044 470.251 470.031 470.276C468.119 473.58 464.581 475.62 460.768 475.62C456.956 475.62 453.418 473.568 451.505 470.276C451.493 470.251 451.468 470.238 451.455 470.213C451.405 470.138 451.343 470.075 451.28 470.013C451.218 469.95 451.155 469.888 451.08 469.838C451.055 469.825 451.043 469.8 451.018 469.788C450.968 469.763 450.918 469.75 450.855 469.738C450.768 469.7 450.693 469.675 450.605 469.65C450.518 469.637 450.443 469.637 450.355 469.637C450.268 469.637 450.193 469.637 450.105 469.65C450.018 469.662 449.93 469.7 449.855 469.738C449.805 469.763 449.743 469.763 449.693 469.788C449.668 469.8 449.655 469.825 449.63 469.838C449.555 469.888 449.493 469.95 449.43 470.013C449.368 470.075 449.305 470.138 449.255 470.213C449.243 470.238 449.218 470.251 449.205 470.276C447.292 473.58 443.755 475.62 439.942 475.62C436.129 475.62 432.592 473.568 430.679 470.276C430.316 469.637 429.504 469.425 428.866 469.788C428.229 470.151 428.016 470.964 428.379 471.603C430.754 475.721 435.179 478.274 439.93 478.274C443.992 478.274 447.83 476.397 450.33 473.267C452.843 476.397 456.668 478.274 460.731 478.274C464.794 478.274 468.619 476.397 471.131 473.267C473.644 476.397 477.469 478.274 481.532 478.274C485.595 478.274 489.433 476.397 491.933 473.267C494.445 476.397 498.271 478.274 502.333 478.274C506.396 478.274 510.221 476.397 512.734 473.267C515.247 476.397 519.072 478.274 523.135 478.274C527.197 478.274 531.035 476.397 533.535 473.267C535.986 476.321 539.686 478.174 543.636 478.262V494.834H185.401C184.863 494.834 184.401 495.159 184.201 495.622V478.349C187.776 477.999 191.064 476.209 193.302 473.405C195.814 476.534 199.639 478.412 203.702 478.412C207.765 478.412 211.603 476.534 214.103 473.405C216.615 476.534 220.441 478.412 224.503 478.412C228.566 478.412 232.391 476.534 234.904 473.405C237.417 476.534 241.242 478.412 245.305 478.412C249.368 478.412 253.205 476.534 255.705 473.405C258.218 476.534 262.043 478.412 266.106 478.412C270.169 478.412 273.994 476.534 276.507 473.405C279.019 476.534 282.845 478.412 286.907 478.412C291.658 478.412 296.083 475.858 298.458 471.74C298.821 471.102 298.608 470.301 297.971 469.925C297.333 469.562 296.533 469.775 296.158 470.413C294.245 473.718 290.708 475.758 286.895 475.758C283.082 475.758 279.544 473.705 277.632 470.401C277.619 470.376 277.594 470.363 277.582 470.338C277.532 470.263 277.469 470.201 277.407 470.138C277.344 470.076 277.282 470.013 277.207 469.963C277.182 469.95 277.169 469.925 277.144 469.913C277.094 469.888 277.044 469.888 276.994 469.863C276.907 469.825 276.832 469.788 276.732 469.775C276.644 469.763 276.569 469.763 276.482 469.763C276.394 469.763 276.319 469.763 276.232 469.775C276.144 469.788 276.057 469.825 275.982 469.863C275.932 469.888 275.869 469.888 275.819 469.913C275.794 469.925 275.782 469.95 275.757 469.963C275.682 470.013 275.619 470.076 275.557 470.138C275.494 470.201 275.432 470.263 275.382 470.338C275.369 470.363 275.344 470.376 275.332 470.401C273.419 473.705 269.881 475.746 266.069 475.746C262.256 475.746 258.718 473.693 256.806 470.388C256.793 470.363 256.768 470.351 256.756 470.326C256.706 470.251 256.643 470.188 256.58 470.126C256.518 470.063 256.455 470 256.38 469.95C256.355 469.938 256.343 469.913 256.318 469.9C256.268 469.875 256.218 469.875 256.168 469.85C256.08 469.813 256.005 469.775 255.905 469.763C255.818 469.75 255.743 469.75 255.655 469.75C255.568 469.75 255.493 469.75 255.405 469.763C255.318 469.775 255.23 469.813 255.155 469.85C255.105 469.875 255.043 469.875 254.993 469.9C254.968 469.913 254.955 469.938 254.93 469.95C254.855 470 254.793 470.063 254.73 470.126C254.668 470.188 254.605 470.251 254.555 470.326C254.543 470.351 254.518 470.363 254.505 470.388C252.593 473.693 249.055 475.733 245.242 475.733C241.43 475.733 237.892 473.68 235.979 470.376C235.967 470.351 235.942 470.338 235.929 470.313C235.879 470.238 235.817 470.176 235.754 470.113C235.692 470.05 235.629 469.988 235.554 469.938C235.529 469.925 235.517 469.9 235.492 469.888C235.442 469.863 235.392 469.863 235.342 469.838C235.254 469.8 235.179 469.763 235.079 469.75C234.992 469.738 234.917 469.738 234.829 469.738C234.742 469.738 234.667 469.738 234.579 469.75C234.492 469.763 234.404 469.8 234.329 469.838C234.279 469.863 234.217 469.863 234.167 469.888C234.142 469.9 234.129 469.925 234.104 469.938C234.029 469.988 233.967 470.05 233.904 470.113C233.842 470.176 233.779 470.238 233.729 470.313C233.717 470.338 233.692 470.351 233.679 470.376C231.766 473.68 228.229 475.721 224.416 475.721C220.603 475.721 217.066 473.668 215.153 470.363C215.14 470.338 215.115 470.326 215.103 470.301C215.053 470.226 214.99 470.163 214.928 470.101C214.865 470.038 214.803 469.975 214.728 469.925C214.703 469.913 214.69 469.888 214.665 469.875C214.615 469.85 214.565 469.85 214.515 469.825C214.428 469.788 214.353 469.75 214.253 469.738C214.165 469.725 214.09 469.725 214.003 469.725C213.915 469.725 213.84 469.725 213.753 469.738C213.665 469.75 213.578 469.788 213.503 469.825C213.453 469.85 213.39 469.85 213.34 469.875C213.315 469.888 213.303 469.913 213.278 469.925C213.203 469.975 213.14 470.038 213.078 470.101C213.015 470.163 212.953 470.226 212.903 470.301C212.89 470.326 212.865 470.338 212.853 470.363C210.94 473.668 207.402 475.708 203.59 475.708C199.777 475.708 196.239 473.655 194.327 470.351C194.314 470.326 194.289 470.313 194.277 470.288C194.227 470.213 194.164 470.151 194.102 470.088C194.039 470.025 193.977 469.963 193.902 469.913C193.877 469.9 193.864 469.875 193.839 469.863C193.789 469.838 193.739 469.838 193.689 469.813C193.602 469.775 193.527 469.738 193.427 469.725C193.339 469.712 193.264 469.712 193.177 469.712C193.089 469.712 193.014 469.712 192.927 469.725C192.839 469.738 192.751 469.775 192.676 469.813C192.626 469.838 192.564 469.838 192.514 469.863C192.489 469.875 192.476 469.9 192.451 469.913C192.376 469.963 192.314 470.025 192.251 470.088C192.189 470.151 192.126 470.213 192.076 470.288C192.064 470.313 192.039 470.326 192.026 470.351C190.339 473.267 187.364 475.207 184.063 475.62V453.04H363.875L364 453.115ZM482.457 317.545V331.313C470.694 331.651 460.031 336.383 452.03 343.955L442.317 334.23C452.805 324.179 466.906 317.895 482.457 317.557V317.545ZM524.26 393.898C518.509 394.611 513.559 397.903 510.596 402.584L486.982 378.94H527.385C527.235 384.11 526.185 389.129 524.272 393.898H524.26ZM525.31 450.462H497.958L496.083 439.146C504.059 437.557 511.659 434.415 518.497 429.846C520.572 430.835 522.86 431.461 525.272 431.624V450.174C525.272 450.274 525.285 450.374 525.31 450.462ZM423.828 450.462V395.875C426.754 405.488 431.929 414.125 438.742 421.172V450.462H423.828ZM437.542 378.928C437.879 390.706 442.605 401.383 450.168 409.394L440.455 419.119C430.716 408.93 424.504 395.325 423.841 380.292V378.928H437.554H437.542ZM507.646 412.711C507.646 413.186 507.684 413.662 507.721 414.125C503.196 417.104 498.208 419.194 492.97 420.308L486.682 382.382L509.296 405.025C508.246 407.378 507.659 409.982 507.659 412.723L507.646 412.711ZM442.317 420.997L452.03 411.271C458.093 417.016 465.706 421.134 474.157 422.924L471.906 436.518C460.556 434.227 450.368 428.72 442.317 420.997ZM453.905 409.394L480.882 382.382L474.594 420.308C466.694 418.606 459.581 414.751 453.905 409.394ZM476.769 423.413C479.057 423.763 481.395 423.938 483.782 423.938C486.17 423.938 488.495 423.763 490.795 423.413L493.045 436.993C489.995 437.469 486.907 437.707 483.782 437.707C480.657 437.707 477.544 437.456 474.519 436.993L476.769 423.413ZM483.782 421.285C481.545 421.285 479.344 421.109 477.207 420.784L483.782 381.08L490.358 420.784C488.195 421.109 485.995 421.285 483.782 421.285ZM482.457 372.882L482.245 374.184L453.905 345.808C461.418 338.723 471.431 334.28 482.457 333.954V372.882ZM480.582 376.286H440.192C440.517 365.247 444.967 355.221 452.03 347.698L480.582 376.286ZM480.582 378.928L452.03 407.516C444.955 399.993 440.517 389.967 440.192 378.928H480.582ZM441.392 423.776C445.43 427.506 449.968 430.685 454.88 433.263V450.474H441.392V423.788V423.776ZM457.518 434.565C461.918 436.605 466.594 438.17 471.481 439.146L469.606 450.474H457.518V434.578V434.565ZM474.082 439.609C477.244 440.098 480.482 440.36 483.782 440.36C487.082 440.36 490.295 440.11 493.483 439.609L495.283 450.462H472.294L474.094 439.609H474.082ZM495.658 436.53L493.408 422.937C498.621 421.835 503.596 419.845 508.159 417.004C509.246 421.698 512.072 425.728 515.922 428.382C509.684 432.35 502.833 435.091 495.658 436.53ZM486.982 376.286L515.534 347.698C522.61 355.221 527.047 365.247 527.385 376.286H486.995H486.982ZM485.32 374.196L485.107 372.894V333.967C496.133 334.292 506.146 338.748 513.659 345.833L485.32 374.209V374.196ZM440.442 336.095L450.155 345.82C442.605 353.819 437.867 364.508 437.529 376.286H423.816V374.922C424.479 359.889 430.691 346.296 440.43 336.095H440.442ZM201.927 411.421C209.128 412.035 214.928 417.592 215.94 424.689H201.927V411.421ZM256.956 440.999C251.718 440.999 247.467 445.229 247.405 450.462H218.841L218.753 427.33H265.056V440.999H256.943H256.956ZM216.115 427.33L216.203 450.462H185.176L185.089 427.33H216.115ZM184.188 496.711C184.401 497.175 184.851 497.5 185.389 497.5H192.714C188.676 499.766 185.526 503.708 184.176 508.415V496.711H184.188ZM543.811 497.5V509.391C542.648 504.247 539.348 499.916 535.023 497.5H543.811ZM250.055 450.462C250.105 446.694 253.18 443.652 256.956 443.652H307.571C311.346 443.652 314.409 446.694 314.472 450.462H250.068H250.055ZM267.719 440.999V427.33H296.808V440.999H267.719ZM199.277 411.421V424.689H185.264C186.276 417.592 192.076 412.047 199.277 411.421ZM184.188 519.818C184.939 522.759 186.239 525.638 188.039 528.216C190.751 532.097 194.564 535.389 199.177 537.93C192.464 539.732 187.176 545.339 184.188 551.36V519.805V519.818ZM539.698 528.229C541.723 525.325 543.111 522.058 543.798 518.729V551.898C540.861 545.69 535.473 539.794 528.56 537.942C533.173 535.401 536.986 532.109 539.698 528.229ZM543.811 450.462H527.897C527.922 450.361 527.935 450.274 527.935 450.174V431.624C534.998 431.135 540.998 426.755 543.824 420.621V450.462H543.811ZM527.923 428.97V412.711C527.923 411.972 527.335 411.384 526.597 411.384C525.86 411.384 525.272 411.972 525.272 412.711V428.97C516.897 428.294 510.296 421.272 510.296 412.711C510.296 403.711 517.609 396.389 526.597 396.389C535.586 396.389 542.898 403.711 542.898 412.711C542.898 421.71 536.286 428.294 527.923 428.97ZM539.823 399.142C536.536 395.925 532.073 393.91 527.16 393.76C528.923 389.016 529.885 384.034 530.023 378.928H543.773C543.624 385.899 542.298 392.684 539.823 399.142ZM515.534 343.943C507.546 336.383 496.871 331.639 485.107 331.301V317.532C500.658 317.87 514.759 324.154 525.247 334.205L515.534 343.93V343.943ZM362.712 450.462H317.109C317.059 445.229 312.797 440.999 307.559 440.999H299.446V427.33H321.735L328.035 442.789C328.372 443.627 329.148 444.178 330.048 444.241C330.935 444.303 331.785 443.853 332.235 443.064L336.436 435.642L347.886 447.107L354.937 440.047L343.486 428.582L345.686 427.33H362.675V450.161C362.675 450.261 362.687 450.361 362.712 450.449V450.462ZM362.675 424.689H350.349L350.899 424.376C351.686 423.926 352.136 423.087 352.074 422.186C352.011 421.285 351.461 420.509 350.624 420.171L337.161 414.663H352.662V341.427H249.755V331.413H362.675V424.677V424.689ZM249.443 344.081C249.443 344.081 249.48 344.081 249.505 344.081H350.011V412.01H330.673L317.959 406.815C317.022 406.427 315.947 406.652 315.234 407.366C314.522 408.079 314.297 409.156 314.684 410.095L315.472 412.022H279.569C278.994 400.432 270.831 390.806 259.981 388.015C264.043 385.724 266.794 381.381 266.794 376.399C266.794 369.052 260.818 363.069 253.48 363.069C246.142 363.069 240.167 369.052 240.167 376.399C240.167 381.381 242.917 385.737 246.98 388.015C236.117 390.806 227.966 400.432 227.391 412.022H214.49V344.093H223.778L239.779 358.325C240.042 358.563 240.379 358.688 240.717 358.688C240.905 358.688 241.105 358.65 241.292 358.563L242.117 358.137V344.093H249.443V344.081ZM247.117 341.427H239.479V354.495L224.804 341.427H184.188V305.979H247.105V341.427H247.117ZM199.202 344.081V408.78C192.551 409.293 186.914 413.399 184.201 419.157V344.081H199.202ZM184.188 574.429C185.926 577.595 188.526 580.587 192.101 583.616C195.214 586.257 199.777 587.909 204.84 587.909C209.94 587.909 215.553 586.232 220.666 582.214C221.241 581.764 221.341 580.925 220.891 580.349C220.441 579.773 219.603 579.673 219.028 580.124C212.14 585.531 200.827 587.571 193.814 581.601C187.776 576.469 184.788 571.55 184.188 565.442V560.385C185.264 548.481 195.077 540.909 202.39 540.07V546.366C202.39 546.491 202.415 546.604 202.44 546.716C197.889 549.783 194.852 554.414 194.314 559.321C193.577 565.942 198.039 572.601 204.04 573.89C207.29 574.579 210.953 573.452 213.603 570.949C214.965 569.66 215.903 568.133 216.39 566.531C216.415 566.531 216.44 566.531 216.478 566.531C218.641 566.531 220.391 564.778 220.391 562.613C220.391 560.447 218.641 558.695 216.478 558.695C214.315 558.695 212.565 560.447 212.565 562.613C212.565 563.789 213.103 564.841 213.928 565.554C213.59 566.793 212.865 567.995 211.79 569.021C209.765 570.937 207.015 571.813 204.602 571.299C199.864 570.298 196.364 564.941 196.952 559.621C197.502 554.69 201.077 550.071 206.277 547.555C212.54 544.526 220.403 544.964 226.304 548.644C232.204 552.336 236.042 559.208 236.079 566.18C236.117 573.578 231.941 581.451 224.916 587.246C218.478 592.553 210.428 595.845 202.715 598.762H184.201V574.416L184.188 574.429ZM525.047 598.787C517.322 595.87 509.271 592.566 502.846 587.271C495.82 581.476 491.645 573.603 491.683 566.205C491.72 559.246 495.558 552.361 501.458 548.669C507.359 544.977 515.222 544.551 521.485 547.58C526.61 550.058 530.273 554.79 530.81 559.646C531.398 564.966 527.898 570.311 523.16 571.325C520.747 571.838 517.997 570.962 515.972 569.046C514.897 568.02 514.159 566.831 513.834 565.579C514.659 564.866 515.197 563.814 515.197 562.638C515.197 560.472 513.447 558.72 511.284 558.72C509.121 558.72 507.371 560.472 507.371 562.638C507.371 564.803 509.121 566.556 511.284 566.556C511.309 566.556 511.334 566.556 511.371 566.556C511.859 568.158 512.797 569.685 514.159 570.974C516.809 573.477 520.46 574.604 523.722 573.916C529.735 572.639 534.185 565.967 533.448 559.346C532.898 554.427 529.86 549.808 525.322 546.741C525.36 546.629 525.372 546.516 525.372 546.391V540.095C532.698 540.934 542.523 548.531 543.573 560.46C544.324 569.034 541.536 575.167 533.935 581.626C526.91 587.596 515.597 585.569 508.721 580.149C508.146 579.698 507.309 579.798 506.859 580.374C506.409 580.95 506.509 581.789 507.084 582.239C512.197 586.27 517.809 587.934 522.91 587.934C528.01 587.934 532.548 586.282 535.648 583.641C539.398 580.449 542.073 577.32 543.811 573.966V598.787H525.047ZM543.811 404.812C543.248 403.598 542.573 402.459 541.786 401.395C542.561 399.518 543.236 397.615 543.811 395.675V404.8V404.812ZM543.811 359.589C540.811 349.575 535.373 340.613 528.198 333.379C528.16 333.329 528.148 333.278 528.11 333.241C528.073 333.203 528.01 333.178 527.973 333.153C516.922 322.151 501.821 315.254 485.12 314.904V274.086H459.281V264.436H443.867V234.37C443.867 233.632 443.28 233.043 442.542 233.043C441.805 233.043 441.217 233.632 441.217 234.37V264.436H427.004L426.916 279.443H410.953V311.812L401.102 311.574V243.783H398.452C398.452 244.083 398.239 273.21 382.501 290.709L377.851 287.629V277.866H365.325V224.544C369.3 223.768 372.313 220.251 372.313 216.045C372.313 211.84 369.3 208.322 365.325 207.546V183.752C365.325 183.013 364.737 182.425 364 182.425C363.262 182.425 362.675 183.013 362.675 183.752V207.446C358.362 207.934 354.999 211.602 354.999 216.058C354.999 220.514 358.362 224.181 362.675 224.67V328.785H249.755V303.351H184.188V298.281C184.188 198.985 264.856 118.213 364 118.213C411.49 118.213 456.643 137.59 491.133 172.775C524.61 206.921 543.811 252.657 543.811 298.256V359.589Z" fill="#D4B165"/>
<path d="M318.198 475.796H329.398L337.724 483.869L344.974 476.847L351.812 484.182L368.413 467.56L378.626 477.536L385.639 470.751L390.952 476.472L403.19 476.584C403.928 476.559 404.515 476.008 404.528 475.27C404.528 474.544 403.953 473.943 403.215 473.931L392.115 473.831L385.739 466.971L378.639 473.843L368.401 463.83L351.887 480.364L345.087 473.067L337.736 480.177L330.486 473.142H318.223C317.485 473.142 316.897 473.73 316.897 474.469C316.897 475.207 317.485 475.796 318.223 475.796H318.198Z" fill="#D4B165"/>
<path d="M338.961 355.158H318.497V375.648H338.961V355.158ZM336.311 373.007H321.135V357.812H336.311V373.007Z" fill="#D4B165"/>
<path d="M312.234 355.158H291.771V375.648H312.234V355.158ZM309.584 373.007H294.408V357.812H309.584V373.007Z" fill="#D4B165"/>
<path d="M338.961 380.868H318.497V401.358H338.961V380.868ZM336.311 398.704H321.135V383.509H336.311V398.704Z" fill="#D4B165"/>
<path d="M312.234 380.868H291.771V401.358H312.234V380.868ZM309.584 398.704H294.408V383.509H309.584V398.704Z" fill="#D4B165"/>
<path d="M197.752 329.386C201.052 329.386 203.727 326.707 203.727 323.403C203.727 320.098 201.052 317.42 197.752 317.42C194.452 317.42 191.776 320.098 191.776 323.403C191.776 326.707 194.452 329.386 197.752 329.386ZM197.752 320.073C199.589 320.073 201.077 321.563 201.077 323.403C201.077 325.243 199.589 326.732 197.752 326.732C195.914 326.732 194.427 325.243 194.427 323.403C194.427 321.563 195.914 320.073 197.752 320.073Z" fill="#D4B165"/>
<path d="M215.653 329.386C218.953 329.386 221.628 326.707 221.628 323.403C221.628 320.098 218.953 317.42 215.653 317.42C212.353 317.42 209.678 320.098 209.678 323.403C209.678 326.707 212.353 329.386 215.653 329.386ZM215.653 320.073C217.491 320.073 218.978 321.563 218.978 323.403C218.978 325.243 217.491 326.732 215.653 326.732C213.815 326.732 212.328 325.243 212.328 323.403C212.328 321.563 213.815 320.073 215.653 320.073Z" fill="#D4B165"/>
<path d="M233.554 329.386C236.855 329.386 239.53 326.707 239.53 323.403C239.53 320.098 236.855 317.42 233.554 317.42C230.254 317.42 227.579 320.098 227.579 323.403C227.579 326.707 230.254 329.386 233.554 329.386ZM233.554 320.073C235.392 320.073 236.88 321.563 236.88 323.403C236.88 325.243 235.392 326.732 233.554 326.732C231.717 326.732 230.229 325.243 230.229 323.403C230.229 321.563 231.717 320.073 233.554 320.073Z" fill="#D4B165"/>
<path d="M350.599 248.99C351.337 248.99 351.924 248.402 351.924 247.663C351.924 246.925 351.337 246.336 350.599 246.336C312.209 246.336 280.97 277.616 280.97 316.055C280.97 316.794 281.557 317.382 282.295 317.382C283.032 317.382 283.62 316.794 283.62 316.055C283.62 279.068 313.672 248.99 350.599 248.99Z" fill="#D4B165"/>
<path d="M350.599 265.324C351.337 265.324 351.924 264.736 351.924 263.998C351.924 263.259 351.337 262.671 350.599 262.671C321.197 262.671 297.283 286.616 297.283 316.055H299.933C299.933 288.08 322.66 265.324 350.599 265.324Z" fill="#D4B165"/>
<path d="M351.924 296.667C351.924 295.928 351.337 295.34 350.599 295.34C339.186 295.34 329.91 304.627 329.91 316.055C329.91 316.794 330.498 317.382 331.235 317.382C331.973 317.382 332.56 316.794 332.56 316.055C332.56 306.092 340.648 297.993 350.599 297.993C351.337 297.993 351.924 297.405 351.924 296.667Z" fill="#D4B165"/>
<path d="M351.924 280.332C351.924 279.594 351.337 279.005 350.599 279.005C330.198 279.005 313.597 295.628 313.597 316.055C313.597 316.794 314.184 317.382 314.922 317.382C315.659 317.382 316.247 316.794 316.247 316.055C316.247 297.092 331.66 281.659 350.599 281.659C351.337 281.659 351.924 281.071 351.924 280.332Z" fill="#D4B165"/>
<path d="M349.524 308.27C345.823 308.27 342.823 311.274 342.823 314.979C342.823 318.684 345.823 321.688 349.524 321.688C353.224 321.688 356.224 318.684 356.224 314.979C356.224 311.274 353.224 308.27 349.524 308.27ZM349.524 319.047C347.286 319.047 345.473 317.232 345.473 314.991C345.473 312.751 347.286 310.936 349.524 310.936C351.761 310.936 353.574 312.751 353.574 314.991C353.574 317.232 351.761 319.047 349.524 319.047Z" fill="#D4B165"/>
<path d="M417.803 207.659C413.316 207.259 409.078 209.724 407.228 213.817C407.003 214.306 406.49 214.556 405.99 214.443C405.465 214.318 404.915 214.255 404.378 214.255C400.627 214.255 397.465 217.184 397.19 220.927L397.077 222.354H426.529L426.829 221.44C427.329 219.901 427.479 218.298 427.254 216.671C426.591 211.877 422.616 208.085 417.803 207.647V207.659ZM424.554 219.713H400.177C400.877 218.073 402.515 216.922 404.378 216.922C404.728 216.922 405.065 216.959 405.403 217.034C407.153 217.435 408.89 216.571 409.64 214.919C411.028 211.852 414.216 210 417.566 210.313C421.166 210.638 424.141 213.479 424.629 217.059C424.754 217.96 424.729 218.849 424.554 219.725V219.713Z" fill="#D4B165"/>
<path d="M265.019 518.603H271.681V549.946H265.019V518.603Z" fill="#FDFCE7"/>
<path d="M283.507 518.603H305.658V524.336H290.17V531.145H305.333V536.878H290.17V544.163H305.658V549.946H283.507V518.603Z" fill="#FDFCE7"/>
<path d="M323.722 524.474H314.571V518.603H339.535V524.474H330.435V549.946H323.722V524.474Z" fill="#FDFCE7"/>
<path d="M349.437 518.603H371.588V524.336H356.099V531.145H371.263V536.878H356.099V549.946H349.437V518.603Z" fill="#FDFCE7"/>
<path d="M398.227 527.202L393.014 532.51L389.214 528.517L399.064 518.603H404.877V549.946H398.214V527.202H398.227Z" fill="#FDFCE7"/>
<path d="M423.141 527.202L417.928 532.51L414.128 528.517L423.979 518.603H429.791V549.946H423.129V527.202H423.141Z" fill="#FDFCE7"/>
<path d="M442.942 541.109C445.105 543.362 448.53 544.676 451.58 544.676C455.381 544.676 457.493 543.036 457.493 540.633C457.493 538.092 455.568 536.916 451.205 536.916C449.893 536.916 447.78 536.916 447.305 536.966V531.145C447.868 531.195 450.03 531.195 451.205 531.195C454.681 531.195 456.981 530.069 456.981 527.716C456.981 525.225 454.443 523.961 451.168 523.961C448.168 523.961 445.393 525.137 443.192 527.253L439.905 523.122C442.442 520.256 446.38 518.14 451.868 518.14C459.193 518.14 463.694 521.432 463.694 526.652C463.694 530.595 460.319 533.186 456.843 533.799C460.031 534.124 464.169 536.615 464.169 541.322C464.169 546.729 459.331 550.534 451.83 550.534C446.055 550.534 441.792 548.331 439.492 545.502L442.967 541.134L442.942 541.109Z" fill="#FDFCE7"/>
<path d="M293.208 570.724L289.345 580.587H288.07L284.208 570.724V580.587H281.295V566.881H285.383L288.708 575.43L292.033 566.881H296.133V580.587H293.196V570.724H293.208Z" fill="#FDFCE7"/>
<path d="M310.659 578.234H304.546L303.684 580.6H300.483L305.784 566.894H309.434L314.709 580.6H311.534L310.672 578.234H310.659ZM305.321 575.705H309.859L307.596 569.422L305.321 575.705Z" fill="#FDFCE7"/>
<path d="M324.097 575.68H321.96V580.587H319.047V566.881H325.447C328.297 566.881 330.048 568.746 330.048 571.3C330.048 573.853 328.522 575.017 327.047 575.367L330.123 580.587H326.772L324.085 575.68H324.097ZM325.022 569.397H321.96V573.177H325.022C326.197 573.177 327.072 572.439 327.072 571.287C327.072 570.135 326.185 569.397 325.022 569.397Z" fill="#FDFCE7"/>
<path d="M334.673 573.753C334.673 569.535 337.848 566.656 341.861 566.656C344.986 566.656 346.724 568.295 347.686 570.01L345.186 571.249C344.611 570.135 343.386 569.259 341.861 569.259C339.486 569.259 337.673 571.174 337.673 573.765C337.673 576.356 339.473 578.271 341.861 578.271C343.386 578.271 344.611 577.408 345.186 576.281L347.686 577.495C346.699 579.198 344.973 580.862 341.861 580.862C337.861 580.862 334.673 577.983 334.673 573.778V573.753Z" fill="#FDFCE7"/>
<path d="M361.9 574.842H355.437V580.6H352.524V566.894H355.437V572.276H361.9V566.894H364.838V580.6H361.9V574.842Z" fill="#FDFCE7"/>
<path d="M381.751 570.649L379.476 572.977L377.813 571.224L382.126 566.881H384.676V580.587H381.764V570.636L381.751 570.649Z" fill="#FDFCE7"/>
<path d="M391.777 577.22C392.514 577.896 393.302 578.271 394.502 578.271C396.702 578.271 397.927 576.406 397.927 574.329V574.041C397.265 574.967 395.889 575.806 394.402 575.806C391.939 575.806 389.727 574.278 389.727 571.362C389.727 568.683 391.864 566.656 394.977 566.656C399.127 566.656 400.865 569.86 400.865 573.753C400.865 577.883 398.54 580.825 394.502 580.825C392.839 580.825 391.439 580.274 390.477 579.41L391.764 577.232L391.777 577.22ZM395.102 569.184C393.539 569.184 392.702 570.273 392.702 571.237C392.702 572.701 393.914 573.34 395.227 573.34C396.252 573.34 397.265 572.864 397.915 572.063C397.79 570.749 397.052 569.184 395.102 569.184Z" fill="#FDFCE7"/>
<path d="M405.277 574.516H410.203V576.732H405.277V574.516Z" fill="#FDFCE7"/>
<path d="M414.865 578.296C420.466 574.166 422.116 572.751 422.116 571.062C422.116 569.873 421.028 569.272 419.878 569.272C418.341 569.272 417.153 569.885 416.228 570.849L414.565 568.921C415.903 567.382 417.928 566.681 419.841 566.681C422.753 566.681 425.079 568.32 425.079 571.062C425.079 573.402 423.153 575.443 419.478 578.034H425.191V580.599H414.89V578.296H414.865Z" fill="#FDFCE7"/>
<path d="M431.905 576.807C432.855 577.771 434.117 578.284 435.555 578.284C437.18 578.284 438.105 577.358 438.105 576.231C438.105 574.979 437.205 574.141 435.642 574.141C434.517 574.141 433.592 574.491 432.767 575.267L430.73 574.717V566.881H440.13V569.384H433.58V572.814C434.292 572.176 435.405 571.663 436.655 571.663C438.98 571.663 441.043 573.327 441.043 576.106C441.043 578.885 438.868 580.837 435.567 580.837C433.192 580.837 431.467 580.061 430.292 578.785L431.892 576.807H431.905Z" fill="#FDFCE7"/>
<path d="M218.653 242.218L233.979 252.394C233.979 252.394 233.329 254.134 232.254 257.426C231.204 260.643 230.617 262.683 230.617 262.683L212.278 261.77C206.89 261.494 204.54 261.432 202.84 262.32C202.84 262.32 203.34 261.031 204.615 257.113C205.928 253.083 206.315 251.643 206.315 251.643C206.478 252.207 206.865 253.07 208.165 253.496C209.403 253.896 211.628 254.034 214.441 254.259L226.941 255.223C227.929 255.311 229.216 255.536 229.417 255.561C229.254 255.474 228.141 254.91 227.266 254.347L216.578 247.688C214.141 246.186 212.29 245.034 211.053 244.634C209.74 244.208 208.928 244.684 208.453 245.034C208.453 245.034 208.99 243.608 210.053 240.353C211.04 237.312 211.353 236.122 211.353 236.122C212.203 237.85 214.128 239.227 218.628 242.218H218.653Z" fill="#FDFCE7"/>
<path d="M241.368 235.847C239.705 239.001 239.055 240.391 239.055 240.391L238.655 239.802C237.755 238.488 237.605 238.2 227.754 232.993C218.191 227.949 217.991 228.012 216.316 228.012H215.604C215.604 228.012 216.329 226.797 218.029 223.568C219.816 220.176 220.341 219.024 220.341 219.024L220.741 219.613C221.641 220.927 221.791 221.215 231.642 226.422C241.205 231.466 241.405 231.404 243.08 231.404H243.793C243.793 231.404 243.018 232.718 241.368 235.847Z" fill="#FDFCE7"/>
<path d="M256.593 210.025L257.781 210.989L248.768 223.243C247.58 224.857 247.105 225.571 247.105 225.571L246.793 224.932C246.13 223.518 245.992 223.193 237.029 216.571C228.329 210.15 228.116 210.187 226.454 209.925L225.741 209.824C225.741 209.824 226.254 209.186 227.441 207.571L236.254 195.593C236.254 195.593 236.954 196.156 238.592 197.37C240.292 198.622 241.142 199.16 241.205 199.21C241.155 199.21 240.755 199.21 239.63 199.661C238.68 200.074 237.579 201.063 236.542 202.465L234.454 205.306L239.867 209.299L241.43 207.171C242.467 205.769 243.18 204.48 243.28 203.453C243.405 202.339 243.305 201.901 243.292 201.801C243.317 201.826 244.067 202.515 246.343 204.179C248.43 205.719 249.43 206.32 249.493 206.357C249.443 206.357 249.018 206.382 247.893 206.845C246.943 207.259 245.942 208.31 244.905 209.724L243.342 211.852L248.818 215.895L250.693 213.354C253.43 209.637 252.905 208.523 252.105 206.22C252.105 206.22 253.255 207.296 256.593 210.037V210.025Z" fill="#FDFCE7"/>
<path d="M263.168 169.871C263.543 171.285 263.593 171.736 271.069 180.022L279.832 189.747C279.832 189.747 278.982 190.411 276.994 192.213C274.869 194.128 273.206 195.73 273.206 195.73L256.505 188.471C255.118 187.87 253.868 187.094 253.743 187.006L258.055 191.788C265.306 199.823 265.506 199.836 267.081 200.412L267.756 200.662C267.756 200.662 266.818 201.401 264.806 203.228C262.656 205.168 261.881 205.969 261.881 205.969L261.706 205.281C261.331 203.866 261.281 203.416 253.805 195.13C246.555 187.094 246.355 187.081 244.78 186.506L244.104 186.255C244.104 186.255 245.342 185.241 248.13 182.725C250.505 180.585 251.692 179.408 251.692 179.408L268.319 186.631C269.944 187.319 271.131 188.145 271.131 188.145L266.818 183.364C259.568 175.328 259.368 175.315 257.793 174.74L257.118 174.489C257.118 174.489 258.055 173.751 260.068 171.923C262.218 169.983 262.993 169.17 262.993 169.17L263.168 169.858V169.871Z" fill="#FDFCE7"/>
<path d="M295.083 150.482C295.133 151.946 295.083 152.397 300.509 162.148L306.872 173.588C306.872 173.588 305.897 174.051 303.559 175.353C301.059 176.742 299.084 177.931 299.084 177.931L284.433 167.104C283.208 166.216 282.17 165.177 282.07 165.064L285.195 170.684C290.458 180.147 290.658 180.197 292.058 181.123L292.658 181.511C292.658 181.511 291.583 182.024 289.208 183.351C286.67 184.766 285.733 185.366 285.733 185.366V184.653C285.67 183.189 285.72 182.738 280.295 172.987C275.032 163.525 274.832 163.474 273.432 162.548L272.832 162.16C272.832 162.16 274.27 161.447 277.545 159.619C280.332 158.067 281.758 157.178 281.758 157.178L296.333 167.955C297.759 168.994 298.734 170.058 298.734 170.058L295.608 164.438C290.346 154.975 290.146 154.925 288.746 153.999L288.145 153.611C288.145 153.611 289.221 153.098 291.596 151.784C294.133 150.369 295.071 149.768 295.071 149.768V150.482H295.083Z" fill="#FDFCE7"/>
<path d="M332.748 165.027C329.897 165.865 327.522 166.629 327.522 166.629C327.897 166.166 328.397 165.365 328.01 164.05C327.697 162.974 326.847 161.522 325.822 159.732L325.197 158.643L318.172 160.696L318.234 161.96C318.334 164.025 318.359 165.715 318.684 166.791C319.072 168.118 319.922 168.519 320.484 168.707C320.484 168.707 318.647 169.17 316.084 169.921C313.484 170.684 311.934 171.21 311.934 171.21C312.884 169.533 312.884 167.167 312.784 161.772L312.459 145.701C312.446 145.237 312.421 144.787 312.284 144.311C312.146 143.848 311.909 143.685 311.821 143.635L323.797 140.13C323.797 140.13 323.66 140.443 323.797 140.944C323.935 141.407 324.135 141.82 324.36 142.208L332.41 156.014C335.123 160.683 336.36 162.648 338.06 163.55C338.06 163.55 335.935 164.1 332.76 165.027H332.748ZM318.422 146.702C317.622 145.275 317.272 144.486 317.159 144.236C317.172 144.424 317.322 145.2 317.422 146.99L317.934 156.29L323.034 154.8L318.422 146.689V146.702Z" fill="#FDFCE7"/>
<path d="M387.452 163.462C384.502 163.137 382.014 162.936 382.014 162.936C382.526 162.661 383.301 162.11 383.451 160.733C383.576 159.619 383.351 157.955 383.089 155.902L382.926 154.65L375.651 153.836L375.226 155.026C374.526 156.966 373.901 158.543 373.776 159.657C373.626 161.021 374.251 161.735 374.701 162.123C374.701 162.123 372.826 161.835 370.163 161.547C367.463 161.246 365.838 161.146 365.838 161.146C367.35 159.97 368.263 157.792 370.238 152.773L376.126 137.827C376.289 137.402 376.451 136.964 376.501 136.488C376.551 136.012 376.389 135.762 376.326 135.687L388.727 137.064C388.727 137.064 388.477 137.302 388.414 137.815C388.364 138.29 388.389 138.754 388.452 139.204L390.577 155.051C391.289 160.408 391.677 162.698 392.89 164.175C392.89 164.175 390.714 163.862 387.439 163.487L387.452 163.462ZM381.264 141.032C381.076 139.404 381.051 138.541 381.051 138.278C380.989 138.453 380.839 139.229 380.239 140.919L377.139 149.706L382.414 150.294L381.276 141.032H381.264Z" fill="#FDFCE7"/>
<path d="M428.792 148.654C427.742 149.668 427.367 149.969 424.392 158.706L423.367 161.697C422.054 165.54 421.029 168.331 418.266 169.745C415.791 171.022 412.816 170.985 408.878 169.645C404.765 168.243 402.14 166.479 400.953 164.113C399.665 161.547 400.065 159.018 401.328 155.276L402.353 152.247C405.565 142.809 405.578 142.308 405.328 140.644L405.215 139.943C405.215 139.943 406.741 140.544 410.041 141.67C413.316 142.784 414.954 143.272 414.954 143.272L414.428 143.76C413.378 144.774 413.003 145.075 410.028 153.811L408.341 158.781C408.041 159.657 407.666 160.871 407.603 161.634C407.516 163.174 408.053 164.576 410.653 165.465C413.328 166.378 414.616 165.602 415.479 164.326C415.891 163.687 416.341 162.498 416.641 161.622L417.841 158.105C421.329 147.866 421.241 147.666 420.979 146.013L420.866 145.312C420.866 145.312 422.354 145.901 425.092 146.84C427.942 147.816 429.304 148.204 429.304 148.204L428.779 148.692L428.792 148.654Z" fill="#FDFCE7"/>
<path d="M432.254 180.034C427.954 177.518 426.416 175.378 426.416 175.378C426.416 175.378 426.929 174.64 428.066 172.687C429.316 170.534 429.991 169.245 429.991 169.245C430.154 171.41 430.779 174.014 433.991 175.891C436.242 177.205 437.917 177.418 438.854 175.804C439.717 174.327 438.954 173.275 437.842 171.56L436.079 168.757C434.229 165.865 433.529 162.961 435.392 159.744C438.217 154.888 442.567 154.813 447.992 157.98C452.005 160.32 453.518 162.461 453.518 162.461C453.518 162.461 452.98 163.224 451.805 165.252C450.593 167.342 449.992 168.506 449.992 168.506C449.805 165.94 448.842 163.612 446.305 162.135C443.892 160.733 442.692 161.021 442.017 162.173C441.229 163.525 441.98 164.526 443.205 166.403L444.805 168.894C446.867 172.074 447.48 174.852 445.48 178.294C442.18 183.952 437.242 183.001 432.229 180.072L432.254 180.034Z" fill="#FDFCE7"/>
<path d="M475.482 186.756C475.482 186.756 475.544 186.28 475.169 185.116C474.832 184.14 474.057 182.938 472.719 181.799L471.307 180.585L465.344 187.569C458.318 195.793 458.331 196.006 457.956 197.646L457.793 198.347C457.793 198.347 456.681 197.295 454.006 195.004C451.293 192.676 450.093 191.75 450.093 191.75L450.755 191.487C452.243 190.899 452.543 190.824 459.793 182.337L465.519 175.641L464.106 174.427C462.781 173.288 461.468 172.712 460.456 172.524C459.331 172.349 458.868 172.437 458.793 172.474C458.818 172.449 459.593 171.648 460.981 170.033C462.306 168.481 462.856 167.78 462.856 167.78L479.482 182.024C479.482 182.024 478.87 182.675 477.545 184.227C476.169 185.842 475.519 186.706 475.469 186.768L475.482 186.756Z" fill="#FDFCE7"/>
<path d="M478.332 222.116C476.282 219.513 475.92 217.91 477.507 214.343L479.02 210.926C480.283 208.085 480.72 207.309 479.958 206.345C479.77 206.107 479.608 205.957 479.608 205.957C472.72 211.389 472.857 211.564 472.245 212.954L471.957 213.605C471.957 213.605 471.069 212.365 469.007 209.737C466.957 207.133 465.932 205.957 465.932 205.957L466.632 205.832C468.119 205.556 468.519 205.531 477.27 198.622C485.758 191.913 485.783 191.713 486.458 190.173L486.745 189.522C486.745 189.522 487.696 190.849 489.033 192.551C489.821 193.54 491.971 196.156 492.708 197.095C496.659 202.114 500.046 206.833 494.833 210.951C489.821 214.906 486.083 211.427 484.545 209.787C485.858 212.065 485.758 213.617 484.358 216.571L482.245 220.977C481.408 222.729 481.195 223.555 481.52 224.92C481.52 224.92 480.495 224.882 478.332 222.129V222.116ZM489.833 199.548C489.233 198.785 488.971 198.572 488.971 198.572L482.645 203.566C482.645 203.566 482.82 203.854 483.47 204.668C483.933 205.256 484.383 205.706 484.895 206.057C486.12 206.896 487.545 206.958 489.346 205.519C491.946 203.466 491.558 201.726 489.833 199.536V199.548Z" fill="#FDFCE7"/>
<path d="M485.37 233.519C483.645 230.39 482.845 229.088 482.845 229.088H483.557C485.157 229.038 485.47 229.088 495.221 223.693C504.684 218.461 504.746 218.261 505.671 216.859L506.059 216.258C506.059 216.258 506.671 217.535 508.434 220.727C510.284 224.081 510.959 225.158 510.959 225.158H510.246C508.646 225.208 508.334 225.158 498.583 230.552C489.12 235.784 489.058 235.985 488.133 237.387L487.745 237.987C487.745 237.987 487.07 236.611 485.37 233.519Z" fill="#FDFCE7"/>
<path d="M497.571 262.621C496.596 259.804 495.708 257.476 495.708 257.476C496.183 257.827 497.008 258.29 498.308 257.839C499.358 257.476 500.771 256.55 502.509 255.436L503.571 254.748L501.171 247.826L499.921 247.951C497.871 248.151 496.183 248.264 495.121 248.627C493.821 249.077 493.458 249.954 493.295 250.517C493.295 250.517 492.745 248.702 491.87 246.174C490.983 243.608 490.383 242.08 490.383 242.08C492.095 242.944 494.458 242.832 499.833 242.469L515.847 241.367C516.309 241.329 516.759 241.292 517.222 241.129C517.685 240.966 517.822 240.716 517.872 240.629L521.96 252.432C521.96 252.432 521.635 252.307 521.147 252.482C520.685 252.645 520.297 252.858 519.91 253.108L506.534 261.845C502.009 264.786 500.108 266.125 499.296 267.853C499.296 267.853 498.646 265.75 497.571 262.633V262.621ZM515.134 247.4C516.522 246.524 517.297 246.136 517.522 246.023C517.334 246.048 516.572 246.236 514.784 246.424L505.521 247.388L507.259 252.419L515.122 247.413L515.134 247.4Z" fill="#FDFCE7"/>
<path d="M350.112 149.268C351.934 149.268 353.412 147.788 353.412 145.963C353.412 144.138 351.934 142.659 350.112 142.659C348.289 142.659 346.812 144.138 346.812 145.963C346.812 147.788 348.289 149.268 350.112 149.268Z" fill="#FDFCE7"/>
</g>
<defs>
<clipPath id="clip0_1018_144">
<rect width="398" height="519" fill="white" transform="translate(165 99)"/>
</clipPath>
</defs>
</svg>
