<svg width="729" height="728" viewBox="0 0 729 728" fill="none" xmlns="http://www.w3.org/2000/svg">
<rect width="728.562" height="728" rx="20" fill="#988676"/>
<g clip-path="url(#clip0_1018_143)">
<path d="M622.389 216.995C617.438 208.693 610.436 203.106 602.672 201.279C593.903 199.208 582.487 199.736 570.328 208.761C568.717 210.002 567.633 208.351 568.424 207.276C575.455 198.241 582.897 192.449 590.7 189.958C600.192 186.93 610.485 188.825 621.305 195.585L627.682 199.57L625.505 192.371C617.995 167.493 601.911 153.222 581.373 153.222C573.648 153.222 566.998 156.045 561.588 161.603C556.285 167.053 552.213 175.102 549.39 185.651C548.951 187.341 547.652 186.774 547.418 185.651H547.408C546.929 183.297 546.373 181.021 545.728 178.882C540.298 160.734 529.185 150.146 512.7 147.401C505.776 146.248 499.37 147.02 494.224 149.52C491.88 150.653 489.809 152.148 488.061 153.974C484.233 157.979 482.27 163.351 482.319 169.476C482.329 171.009 482.466 172.592 482.729 174.203C482.817 174.74 482.924 175.287 483.042 175.834L483.784 179.321L487.007 177.807C493.774 174.623 500.249 173.871 506.323 175.532C508.345 176.088 510.327 176.909 512.261 178.003C520.806 182.828 528.14 192.742 533.443 205.977C533.882 207.188 532.515 207.237 532.007 206.544C523.052 194.354 511.9 184.674 502.202 184.674C497.602 184.674 493.599 186.95 491.216 190.925C487.553 197.011 488.237 206.046 493.042 215.091L494.468 217.767L497.036 216.155C501.802 213.176 506.948 212.356 512.349 213.694C516.372 214.7 520.445 216.917 524.449 220.179C525.288 220.971 524.39 221.508 523.618 221.186V221.205C518.999 219.242 514.497 218.255 510.327 218.412C503.735 218.656 500.718 222.162 499.341 225.053C494.116 236.052 503.569 256.925 511.597 267.562L516.079 273.501L516.675 266.078C517.525 255.421 519.4 249.502 522.769 246.913C524.468 245.605 526.743 244.96 529.771 244.813C531.314 244.735 532.486 245.653 532.134 248.31C524.732 303.644 515.523 356.682 506.069 399.269C505.542 401.642 503.032 402.121 500.981 400.636C497.231 397.569 491.802 394.561 484.643 391.591C484.643 391.591 484.624 391.591 484.614 391.582C484.301 391.455 483.989 391.328 483.676 391.201C480.327 389.609 479.682 386.268 480.288 383.924C480.298 383.875 480.298 383.846 480.298 383.807C483.442 370.435 485.053 356.037 485.053 340.722V334.519H475.629C473.813 334.519 472.446 333.542 472.446 331.56V126H254.552V331.589C254.552 333.562 253.185 334.549 251.368 334.549H240.958V340.751C240.958 356.067 242.579 370.464 245.724 383.836C245.724 383.875 245.724 383.904 245.734 383.943C246.349 386.288 245.694 389.618 242.355 391.22C242.042 391.347 241.72 391.474 241.417 391.601C241.417 391.601 241.398 391.601 241.388 391.611C234.239 394.58 228.8 397.589 225.05 400.656C223.009 402.141 220.489 401.662 219.962 399.288C210.508 356.702 201.299 303.654 193.897 248.33C193.545 245.673 194.717 244.755 196.26 244.833C199.278 244.979 201.563 245.624 203.262 246.933C206.622 249.531 208.506 255.441 209.356 266.097L209.952 273.52L214.434 267.582C222.462 256.935 231.915 236.071 226.69 225.073C225.313 222.182 222.296 218.685 215.704 218.431C211.534 218.275 207.032 219.261 202.422 221.225V221.205C201.651 221.527 200.743 220.99 201.592 220.189C205.596 216.917 209.669 214.71 213.692 213.704C219.093 212.356 224.239 213.186 229.005 216.165L231.573 217.777L232.999 215.1C237.804 206.055 238.487 197.02 234.825 190.935C232.433 186.96 228.429 184.684 223.839 184.684C214.151 184.684 202.989 194.364 194.034 206.563C193.526 207.247 192.149 207.198 192.598 205.987C197.901 192.752 205.225 182.838 213.78 178.013C221.514 173.646 230.02 173.578 239.034 177.817L242.257 179.331L242.999 175.844C244.864 167.092 243.077 159.327 237.98 153.984C232.384 148.133 223.409 145.731 213.34 147.411C196.856 150.155 185.742 160.743 180.313 178.892C179.668 181.041 179.121 183.307 178.633 185.67H178.623C178.389 186.784 177.08 187.35 176.65 185.67C173.818 175.121 169.756 167.073 164.453 161.623C159.053 156.065 152.392 153.242 144.668 153.242C124.13 153.242 108.046 167.512 100.536 192.391L98.3583 199.589L104.735 195.604C115.556 188.845 125.849 186.95 135.341 189.978C143.144 192.469 150.586 198.261 157.617 207.296C158.408 208.37 157.324 210.011 155.713 208.771C143.554 199.755 132.138 199.228 123.368 201.299C115.605 203.135 108.603 208.712 103.651 217.015C97.0497 227.994 95.2724 241.668 98.7294 254.503L100.546 261.223L103.935 255.138C109.003 246.044 119.501 235.202 133.808 232.037C140.312 230.601 147.09 230.846 154.082 232.731C155.635 233.297 155.986 235.505 153.867 235.642V235.671C144.687 236.433 135.566 239.207 127.87 243.993C115.224 251.846 108.368 263.538 108.564 276.929C108.71 286.902 113.046 296.211 120.156 301.837C124.179 305.021 130.605 308.254 140.117 308.254C143.359 308.254 146.953 307.883 150.937 306.994L158.594 305.304L151.621 301.72C143.72 297.656 139.707 292.323 138.613 284.402C136.523 269.262 148.281 257.56 164.141 251.074C166.865 250.039 168.496 251.27 168.574 253.878C170.41 318.891 176.162 373.795 181.348 411.928C181.66 414.243 179.277 415.053 177.442 414.301C172.236 412.543 165.381 413.119 158.105 416.079C131.122 427.068 110.917 453.049 115.536 464.419C115.898 465.318 116.366 466.158 116.913 466.939C121.103 474.47 134.999 499.612 141.962 514.048C144.472 519.245 151.894 521.872 164.072 521.872C166.455 521.872 169.014 521.774 171.758 521.569C184.746 520.622 200.674 517.438 214.356 513.071C238.653 505.306 259.962 491.475 265.021 480.184C266.857 476.072 266.271 473.024 265.441 471.178C263.888 467.701 262.355 463.97 260.89 460.19C261.242 460.004 261.574 459.828 261.925 459.643C265.958 457.464 270.412 455.062 277.541 452.825C279.963 452.112 283.849 452.747 286.545 455.14C306.135 472.956 331.663 485.429 362.434 491.632L362.991 491.749L363.548 491.632C394.31 485.429 419.838 472.956 439.438 455.13C442.143 452.747 446.02 452.121 448.442 452.835C455.571 455.081 460.024 457.474 464.057 459.652C464.409 459.848 464.75 460.014 465.092 460.199C463.627 463.979 462.094 467.711 460.541 471.188C459.721 473.024 459.125 476.081 460.961 480.194C466.02 491.495 487.319 505.326 511.626 513.081C525.308 517.447 541.236 520.632 554.224 521.579C556.969 521.784 559.527 521.882 561.91 521.882C574.088 521.882 581.51 519.264 584.02 514.058C590.983 499.621 604.879 474.48 609.069 466.949C609.616 466.167 610.085 465.327 610.446 464.429C615.065 453.059 594.87 427.077 567.877 416.089C560.601 413.129 553.746 412.543 548.541 414.311C546.705 415.063 544.322 414.243 544.634 411.928C549.82 373.805 555.582 318.901 557.408 253.878C557.486 251.27 559.117 250.049 561.842 251.074C577.691 257.56 589.449 269.262 587.369 284.402C586.276 292.313 582.272 297.656 574.361 301.72L567.389 305.304L575.045 306.994C579.029 307.873 582.623 308.254 585.865 308.254C595.377 308.254 601.803 305.021 605.827 301.837C612.936 296.211 617.272 286.902 617.419 276.929C617.614 263.538 610.758 251.846 598.112 243.993C590.407 239.217 581.295 236.433 572.115 235.671V235.642C570.006 235.505 570.357 233.297 571.9 232.731C578.893 230.846 585.66 230.601 592.174 232.037C606.481 235.202 616.989 246.044 622.048 255.138L625.436 261.223L627.253 254.503C630.72 241.668 628.942 228.003 622.38 216.995H622.389ZM174.756 269.584C174.697 268.002 174.639 266.419 174.58 264.827C175.654 261.282 176.895 256.075 181.426 250.625C179.19 251.455 176.631 253.428 174.287 255.88C174.248 254.688 174.219 253.487 174.19 252.295L174.219 252.315C174.15 249.697 174.727 247.656 177.49 247.04C178.096 246.913 178.701 246.806 179.307 246.689C179.688 246.62 180.049 246.562 180.42 246.493C180.996 246.396 181.572 246.298 182.149 246.22L187.793 245.399C188.252 248.838 188.711 252.276 189.18 255.695C189.512 258.166 188.047 259.631 186.875 260.393C183.555 262.698 180.43 265.999 177.774 269.828H177.764C176.729 271.254 174.834 271.391 174.756 269.594V269.584ZM176.69 306.603H176.65C176.299 301.124 175.977 295.537 175.684 289.842C176.787 280.534 183.35 269.506 190.45 264.817C190.801 267.318 191.162 269.809 191.514 272.29C186.573 278.228 182.725 284.763 182.315 288.074C186.25 282.8 189.678 280.25 192.403 278.375C192.725 280.582 193.057 282.78 193.389 284.968C193.868 287.674 192.578 291.122 190.723 292.665C186.66 296.328 182.998 301.573 180.069 307.268C179.092 309.104 176.836 308.821 176.699 306.594L176.69 306.603ZM179.746 347.032C179.688 346.426 179.639 345.82 179.58 345.205C180.625 341.679 181.953 336.737 186.25 331.569C183.946 332.429 181.279 334.5 178.877 337.069C178.77 335.74 178.652 334.402 178.545 333.054H178.565C177.871 324.087 185.733 304.171 195.118 296.308C195.635 299.61 196.153 302.901 196.68 306.164C190.869 311.282 185.987 317.191 184.961 320.473C190.371 315.189 194.483 313.353 197.608 311.888C198.077 314.75 198.545 317.592 199.024 320.425C199.493 323.208 197.442 326.881 196.397 327.858C191.241 332.859 186.846 339.696 183.545 347.002C182.754 348.692 179.971 349.405 179.736 347.022L179.746 347.032ZM188.477 389.96C187.442 392.656 184.571 392.637 184.248 389.96C183.78 386.063 183.311 382.039 182.852 377.888C184.336 374.488 188.545 369.507 193.819 363.168C191.407 364.066 186.563 365.668 183.067 368.091C184.824 355.49 191.709 339.852 200.909 331.364C201.377 334.06 201.856 336.746 202.325 339.403C197.881 343.769 194.405 348.262 193.565 350.968C197.354 347.266 200.508 345.264 203.125 343.886C203.917 348.233 204.708 352.531 205.508 356.76C206.055 359.681 204.581 363.041 202.852 364.838C197.08 371.177 192.051 380.154 188.487 389.941L188.477 389.96ZM194.053 438.3C193.467 440.029 191.348 440.674 190.967 438.369C190.225 433.7 189.424 428.523 188.604 422.877C187.432 404.534 196.182 379.978 207.657 367.983C208.223 370.865 208.79 373.727 209.356 376.549C205.86 380.222 201.143 387.128 200.44 390.273C204.278 386.063 207.823 384.354 210.704 383.143C211.163 385.37 211.631 387.577 212.09 389.755C208.946 393.76 205.577 399.064 205.03 401.525C208.077 398.653 210.84 396.671 213.311 395.43C213.594 396.729 213.878 398.009 214.161 399.288C214.874 402.531 213.419 405.354 212.09 406.673C206.221 412.817 198.555 424.665 194.053 438.31V438.3ZM222.755 446.427C216.046 449.738 208.155 453.049 199.561 456.126C197.325 456.917 196.182 455.491 196.319 453.87C196.319 453.841 196.319 453.802 196.329 453.772C197.725 450.334 209.014 435.722 214.424 429.207C212.344 429.988 205.743 433.524 200.557 437.001C205.137 424.889 212.1 414.78 216.632 410.15C219.317 421.725 222.003 432.43 224.679 442.071C225.294 444.317 223.839 445.89 222.764 446.437L222.755 446.427ZM333.352 131.655H466.791V151.806H345.061C343.001 151.806 341.594 150.82 340.852 149.53L331.897 134.009C331.135 132.681 331.731 131.655 333.362 131.655H333.352ZM260.197 157.462H466.791V269.672C462.739 265.14 456.86 262.258 450.317 262.258H445.717C443.266 262.258 441.996 260.735 441.664 259.387C439.047 247.373 428.334 238.347 415.55 238.347C406.732 238.347 398.9 242.655 394.027 249.258C392.972 250.791 390.609 252.002 388.284 251.436C382.503 249.961 373.821 248.34 363.509 248.34C353.196 248.34 344.505 249.961 338.733 251.436C336.399 252.002 334.036 250.781 332.981 249.248C328.108 242.635 320.276 238.337 311.457 238.337C298.674 238.337 287.961 247.363 285.344 259.377C285.011 260.725 283.742 262.249 281.291 262.249H276.691C270.148 262.249 264.269 265.12 260.216 269.662V157.462H260.197ZM260.197 291.747V284.382C260.197 275.298 267.589 267.904 276.671 267.904H281.017C284.289 267.904 285.226 270.346 285.763 272.524C288.83 283.083 298.254 290.975 309.611 291.747C314.211 291.835 315.725 287.928 315.442 285.798C314.133 286.052 312.795 286.189 311.438 286.189C299.797 286.189 290.324 276.714 290.324 265.071C290.324 253.428 299.797 243.954 311.438 243.954C323.078 243.954 332.551 253.428 332.551 265.071H332.6C340.208 263.567 337.122 253.956 363.489 253.956C389.857 253.956 386.771 263.567 394.378 265.071H394.427C394.427 253.428 403.9 243.954 415.541 243.954C427.181 243.954 436.654 253.428 436.654 265.071C436.654 276.714 427.181 286.189 415.541 286.189C414.193 286.189 412.855 286.052 411.537 285.798C411.254 287.928 412.767 291.835 417.367 291.747C428.715 290.975 438.139 283.093 441.215 272.524C441.752 270.346 442.69 267.904 445.961 267.904H450.307C459.389 267.904 466.782 275.298 466.782 284.382V332.058C466.782 333.289 465.61 334.451 463.754 334.119C452.26 332.243 436.898 323.98 424.535 308.059L422.357 305.255L420.111 308.01C406.175 325.123 385.882 334.549 362.991 334.549C340.1 334.549 319.817 325.123 305.871 308.01L303.625 305.255L301.447 308.059C289.347 323.638 274.386 331.872 262.98 333.982C261.271 334.197 260.187 333.24 260.187 332.068V291.757L260.197 291.747ZM453.578 430.623C452.153 432.401 450.16 433.7 446.42 433.758C444.447 433.67 442.494 433.416 440.57 432.996C441.039 432.44 441.508 431.873 441.967 431.316C458.92 410.248 468.422 383.523 470.209 351.896L470.366 349.083H255.626L255.783 351.896C257.56 383.523 267.062 410.248 284.025 431.316C284.484 431.883 284.953 432.44 285.422 432.996C283.508 433.407 281.554 433.661 279.572 433.758C275.822 433.7 273.83 432.391 272.404 430.613C255.685 406.995 247.023 377.634 246.632 343.183C246.837 340.751 248.273 340.204 249.611 340.204H476.362C477.7 340.204 479.135 340.751 479.34 343.183C478.95 377.634 470.288 406.995 453.569 430.623H453.578ZM526.451 456.116C517.857 453.049 509.966 449.728 503.257 446.417C502.183 445.87 500.728 444.298 501.343 442.051C504.009 432.41 506.704 421.705 509.39 410.13C513.911 414.76 520.884 424.87 525.464 436.982C520.279 433.504 513.667 429.969 511.597 429.187C517.017 435.702 528.306 450.314 529.693 453.753C529.693 453.782 529.693 453.821 529.703 453.85C529.829 455.472 528.697 456.898 526.46 456.107L526.451 456.116ZM537.398 422.887C536.578 428.533 535.777 433.71 535.035 438.378C534.664 440.684 532.544 440.029 531.949 438.31C527.447 424.665 519.781 412.817 513.911 406.673C512.593 405.354 511.128 402.541 511.841 399.288C512.124 398.009 512.407 396.729 512.691 395.43C515.152 396.671 517.925 398.663 520.972 401.525C520.425 399.064 517.056 393.76 513.911 389.755C514.38 387.567 514.839 385.37 515.298 383.143C518.179 384.363 521.724 386.063 525.562 390.273C524.859 387.128 520.142 380.212 516.646 376.549C517.212 373.727 517.779 370.865 518.345 367.983C529.82 379.978 538.57 404.543 537.398 422.887ZM541.754 389.97C541.421 392.646 538.55 392.666 537.525 389.97C533.951 380.183 528.921 371.206 523.159 364.877C521.431 363.07 519.956 359.71 520.503 356.789C521.304 352.55 522.095 348.262 522.886 343.916C525.503 345.293 528.658 347.295 532.447 350.997C531.607 348.292 528.13 343.799 523.687 339.432C524.165 336.766 524.634 334.089 525.103 331.394C534.302 339.872 541.187 355.52 542.945 368.12C539.449 365.698 534.605 364.096 532.193 363.197C537.457 369.536 541.675 374.518 543.16 377.917C542.701 382.058 542.232 386.092 541.763 389.99L541.754 389.97ZM547.457 333.054C547.349 334.402 547.242 335.74 547.125 337.069C544.722 334.5 542.056 332.439 539.751 331.569C544.048 336.737 545.386 341.679 546.422 345.205C546.363 345.82 546.314 346.416 546.255 347.032C546.021 349.425 543.238 348.712 542.447 347.012C539.146 339.706 534.751 332.878 529.595 327.877C528.55 326.891 526.499 323.218 526.968 320.434C527.447 317.602 527.915 314.759 528.384 311.897C531.509 313.363 535.621 315.199 541.031 320.483C540.005 317.201 535.123 311.302 529.312 306.174C529.839 302.901 530.357 299.62 530.874 296.318C540.259 304.171 548.121 324.097 547.427 333.054H547.447H547.457ZM549.351 306.613H549.312C549.166 308.83 546.92 309.114 545.943 307.277C543.013 301.593 539.351 296.347 535.289 292.685C533.433 291.141 532.144 287.693 532.622 284.978C532.955 282.79 533.277 280.592 533.609 278.385C536.343 280.25 539.761 282.809 543.697 288.084C543.287 284.773 539.439 278.228 534.498 272.299C534.859 269.819 535.21 267.328 535.562 264.827C542.662 269.516 549.224 280.543 550.328 289.852C550.035 295.546 549.703 301.134 549.361 306.623L549.351 306.613ZM551.715 255.88C549.371 253.428 546.812 251.465 544.576 250.625C549.107 256.075 550.347 261.282 551.422 264.827C551.363 266.419 551.304 268.002 551.246 269.584C551.168 271.381 549.273 271.245 548.238 269.809H548.228C545.572 265.999 542.447 262.698 539.126 260.393C537.955 259.621 536.49 258.156 536.822 255.685C537.291 252.266 537.75 248.828 538.209 245.39L543.853 246.21C544.429 246.298 545.005 246.386 545.582 246.484C545.953 246.552 546.314 246.611 546.695 246.679C547.3 246.786 547.906 246.904 548.511 247.031C551.275 247.656 551.851 249.687 551.783 252.305L551.812 252.286C551.783 253.487 551.744 254.679 551.715 255.87V255.88Z" fill="#131E33"/>
<path d="M260.195 269.662C264.248 265.13 270.127 262.249 276.67 262.249H281.27C283.721 262.249 284.991 260.725 285.323 259.377C287.94 247.363 298.653 238.337 311.436 238.337C320.255 238.337 328.087 242.645 332.96 249.248C334.015 250.781 336.378 251.993 338.712 251.426C344.493 249.951 353.175 248.33 363.488 248.33C373.801 248.33 382.482 249.951 388.264 251.426C390.598 251.993 392.961 250.772 394.006 249.238C398.879 242.625 406.711 238.328 415.53 238.328C428.313 238.328 439.026 247.353 441.643 259.367C441.975 260.715 443.245 262.239 445.696 262.239H450.296C456.839 262.239 462.718 265.111 466.771 269.652V157.462H260.176V269.672L260.195 269.662Z" fill="white"/>
<path d="M450.315 267.914H445.97C442.698 267.914 441.76 270.356 441.223 272.534C438.157 283.093 428.733 290.985 417.375 291.757C412.776 291.845 411.262 287.937 411.545 285.808C412.854 286.062 414.192 286.199 415.549 286.199C427.19 286.199 436.663 276.724 436.663 265.081C436.663 253.438 427.19 243.964 415.549 243.964C403.908 243.964 394.436 253.438 394.436 265.081H394.387C386.779 263.577 389.865 253.966 363.498 253.966C337.13 253.966 340.216 263.577 332.608 265.081H332.56C332.56 253.438 323.087 243.964 311.446 243.964C299.805 243.964 290.332 253.438 290.332 265.081C290.332 276.724 299.805 286.199 311.446 286.199C312.804 286.199 314.132 286.062 315.45 285.808C315.733 287.937 314.22 291.845 309.62 291.757C298.272 290.985 288.848 283.103 285.772 272.534C285.235 270.356 284.297 267.914 281.026 267.914H276.68C267.598 267.914 260.205 275.308 260.205 284.392V332.068C260.205 333.24 261.279 334.197 262.998 333.982C274.405 331.872 289.366 323.648 301.465 308.059L303.643 305.255L305.889 308.01C319.835 325.123 340.118 334.549 363.009 334.549C385.9 334.549 406.184 325.123 420.129 308.01L422.375 305.255L424.553 308.059C436.926 323.98 452.288 332.243 463.773 334.119C465.628 334.451 466.8 333.289 466.8 332.058V284.382C466.8 275.298 459.407 267.904 450.325 267.904L450.315 267.914Z" fill="#16B5B5"/>
<path d="M198.838 361.156C199.502 361.156 200.039 360.618 200.039 359.954C200.039 359.29 199.502 358.753 198.838 358.753C198.174 358.753 197.637 359.29 197.637 359.954C197.637 360.618 198.174 361.156 198.838 361.156Z" fill="#131E33"/>
<path d="M200.488 397.54C201.152 397.54 201.689 397.002 201.689 396.339C201.689 395.675 201.152 395.137 200.488 395.137C199.825 395.137 199.287 395.675 199.287 396.339C199.287 397.002 199.825 397.54 200.488 397.54Z" fill="#131E33"/>
<path d="M215.039 425.895C215.703 425.895 216.24 425.358 216.24 424.694C216.24 424.03 215.703 423.493 215.039 423.493C214.375 423.493 213.838 424.03 213.838 424.694C213.838 425.358 214.375 425.895 215.039 425.895Z" fill="#131E33"/>
<path d="M212.1 444.688C211.436 444.688 210.898 445.226 210.898 445.89C210.898 446.554 211.436 447.091 212.1 447.091C212.764 447.091 213.301 446.554 213.301 445.89C213.301 445.226 212.764 444.688 212.1 444.688Z" fill="#131E33"/>
<path d="M196.396 419.459C197.06 419.459 197.598 418.921 197.598 418.257C197.598 417.594 197.06 417.056 196.396 417.056C195.733 417.056 195.195 417.594 195.195 418.257C195.195 418.921 195.733 419.459 196.396 419.459Z" fill="#131E33"/>
<path d="M193.555 326.373C194.219 326.373 194.756 325.836 194.756 325.172C194.756 324.507 194.219 323.97 193.555 323.97C192.891 323.97 192.354 324.507 192.354 325.172C192.354 325.836 192.891 326.373 193.555 326.373Z" fill="#131E33"/>
<path d="M180.166 299.424C180.829 299.424 181.367 298.886 181.367 298.223C181.367 297.559 180.829 297.021 180.166 297.021C179.503 297.021 178.965 297.559 178.965 298.223C178.965 298.886 179.503 299.424 180.166 299.424Z" fill="#131E33"/>
<path d="M185.898 256.886C186.563 256.886 187.1 256.349 187.1 255.685C187.1 255.021 186.563 254.483 185.898 254.483C185.234 254.483 184.697 255.021 184.697 255.685C184.697 256.349 185.234 256.886 185.898 256.886Z" fill="#131E33"/>
<path d="M378.059 482.216C373.196 483.632 368.186 484.882 363.001 485.947C357.815 484.882 352.805 483.632 347.942 482.216C347.59 482.001 347.492 481.483 347.971 481.336C353.645 479.647 359.036 477.029 363.001 473.298C366.956 477.019 372.346 479.627 378.02 481.317V481.336C378.509 481.473 378.411 482.001 378.059 482.216Z" fill="#16B5B5"/>
<path d="M426.703 458.392C417.249 465.562 406.653 471.559 394.944 476.365C392.61 477.273 388.733 477.771 385.628 477.273C378.001 475.896 370.051 472.751 365.09 467.369L363.01 465.122L360.93 467.369C355.998 472.712 348.186 475.857 340.608 477.244C337.473 477.801 333.459 477.302 331.076 476.365C319.357 471.559 308.771 465.562 299.318 458.392C298.732 457.826 298.585 456.917 299.464 456.37C301.398 455.189 303.244 453.85 304.962 452.366C305.754 451.672 306.681 451.535 307.58 452.278C315.06 458.666 324.709 461.586 334.67 461.586C345.197 461.586 355.373 458.334 363.02 451.154C370.667 458.334 380.842 461.586 391.37 461.586C401.331 461.586 410.97 458.666 418.46 452.278C419.359 451.545 420.277 451.672 421.077 452.375C422.796 453.85 424.642 455.189 426.576 456.37C427.445 456.927 427.308 457.836 426.722 458.392H426.703Z" fill="#16B5B5"/>
<path d="M444.603 441.914C441.253 445.655 437.679 449.172 433.91 452.493C433.226 452.903 432.191 452.981 431.302 452.571C427.757 450.686 424.515 448.205 421.78 445.235L419.7 442.989L417.62 445.235C410.862 452.551 401.292 455.941 391.35 455.941C381.409 455.941 371.829 452.551 365.071 445.235L362.99 442.989L360.91 445.235C354.152 452.551 344.582 455.941 334.64 455.941C324.699 455.941 315.119 452.551 308.361 445.235L306.281 442.989L304.201 445.235C301.466 448.195 298.234 450.676 294.698 452.561C293.81 452.991 292.765 452.913 292.081 452.493C288.312 449.172 284.737 445.665 281.388 441.924C280.587 440.918 280.606 439.424 282.023 439.257C290.226 438.437 298.019 435.155 304.367 429.9C305.363 429.05 306.681 428.689 307.999 429.754C315.412 435.966 324.865 439.463 334.621 439.463C345.148 439.463 355.324 435.399 362.971 428.22C370.618 435.399 380.793 439.463 391.321 439.463C401.077 439.463 410.53 435.966 417.942 429.744C419.261 428.689 420.579 429.05 421.575 429.9C427.913 435.145 435.716 438.427 443.919 439.248C445.335 439.424 445.355 440.908 444.554 441.914H444.603Z" fill="#16B5B5"/>
<path d="M288.174 427.976C272.432 408.411 263.389 383.68 261.289 354.416H464.72C462.61 383.68 453.577 408.421 437.825 427.986C436.926 429.109 435.979 430.222 435.012 431.326C430.022 429.363 425.481 426.306 421.78 422.301L419.7 420.054L417.619 422.301C410.862 429.617 401.291 433.817 391.35 433.817C381.408 433.817 371.828 429.617 365.07 422.301L362.99 420.054L360.91 422.301C354.152 429.617 344.581 433.817 334.64 433.817C324.698 433.817 315.118 429.617 308.36 422.301L306.28 420.054L304.2 422.301C300.499 426.306 295.958 429.373 290.967 431.326C290.02 430.232 289.073 429.128 288.155 427.986L288.174 427.976Z" fill="white"/>
<g opacity="0.5">
<path d="M121.581 463.677C121.181 462.954 120.898 462.456 120.751 462.192C119.716 459.35 122.294 452.18 129.316 443.79C137.275 434.266 148.554 426.081 160.244 421.314C163.457 420.006 167.451 418.98 171.104 418.98C173.916 418.98 176.533 419.586 178.408 421.148C179.414 421.979 180.518 423.414 180.088 425.514C179.483 428.445 175.713 432.518 166.924 435.126C160.976 436.894 153.086 436.659 153.008 436.659L148.154 436.503L150.41 440.801C153.437 446.564 158.262 456.195 161.435 462.553C162.519 464.731 160.986 466.665 159.336 466.968C155.43 467.652 151.465 468.219 147.588 468.57C133.886 469.83 124.794 468.092 121.591 463.667L121.581 463.677Z" fill="#E5A3E3"/>
<path d="M228.947 421.969C230.793 422.555 232.707 423.034 234.563 423.483C238.889 424.538 243.782 425.739 244.846 427.898C245.051 428.318 245.266 429.021 244.739 430.262C243.508 433.172 239.543 436.698 233.606 440.439C232.092 441.416 230.207 440.869 229.709 439.082C228.449 434.481 227.18 429.656 225.91 424.596C225.559 423.004 226.262 421.187 228.938 421.959L228.947 421.969Z" fill="#E5A3E3"/>
<path d="M500.084 424.606C498.814 429.656 497.555 434.491 496.295 439.091C495.807 440.869 493.912 441.416 492.398 440.449C486.461 436.708 482.496 433.182 481.265 430.271C480.738 429.021 480.953 428.328 481.158 427.908C482.222 425.759 487.125 424.557 491.451 423.493C493.307 423.033 495.23 422.565 497.066 421.979C499.742 421.207 500.445 423.024 500.094 424.616L500.084 424.606Z" fill="#E5A3E3"/>
<path d="M547.593 421.148C549.468 419.586 552.086 418.98 554.898 418.98C558.551 418.98 562.545 420.006 565.758 421.314C577.447 426.071 588.727 434.266 596.686 443.79C603.708 452.18 606.286 459.359 605.251 462.192C605.104 462.456 604.821 462.954 604.421 463.677C601.217 468.092 592.125 469.84 578.424 468.58C574.547 468.219 570.572 467.662 566.676 466.978C565.025 466.675 563.492 464.741 564.576 462.563C567.74 456.214 572.574 446.573 575.602 440.811L577.858 436.513L573.004 436.669C572.926 436.669 565.035 436.903 559.088 435.136C550.299 432.528 546.529 428.454 545.924 425.524C545.494 423.424 546.597 421.988 547.603 421.158L547.593 421.148Z" fill="#E5A3E3"/>
</g>
<path d="M181.326 433.817C182.507 432.606 184.382 432.87 184.714 435.018C186.091 443.878 187.332 451.174 188.328 456.722C188.718 458.91 186.98 460.268 185.535 460.697C182.166 461.694 177.986 462.856 173.347 463.999C170.369 464.741 168.122 463.325 167.341 461.772C165.29 457.66 162.204 451.467 159.372 445.9C158.454 444.102 159.646 442.159 161.277 441.953C163.62 441.69 166.169 441.27 168.523 440.566C173.972 438.945 178.337 436.62 181.316 433.827L181.326 433.817Z" fill="#E5A3E3"/>
<path d="M259.863 477.859C256.132 486.191 238.319 499.475 212.645 507.67C183.143 517.096 150.662 519.03 147.068 511.577C142.527 502.161 135.085 488.281 129.255 477.595C127.849 475.017 129.704 473.894 131.101 474.079C133.611 474.441 136.384 474.636 139.46 474.636C142.136 474.636 145.017 474.489 148.113 474.206C165.769 472.585 185.076 466.851 192.557 464.458C206.014 460.16 218.954 454.876 229.003 449.572C234.891 446.466 239.608 443.467 243.114 440.586C244.716 439.209 247.685 439.267 248.417 441.582C251.405 451.184 255.888 463.589 260.302 473.464C260.81 474.607 260.673 476.081 259.882 477.849L259.863 477.859Z" fill="#E5A3E3"/>
<path d="M273.905 448.039C268.944 449.728 265.272 451.467 262.069 453.147C260.145 454.124 258.231 453.059 257.811 451.897C254.178 441.69 251.414 432.371 250.701 428.337C250.623 427.146 250.281 426.149 249.91 425.397C247.684 420.894 241.688 419.42 235.906 418.003C230.73 416.733 225.369 415.425 224.558 412.455C223.338 408.021 230.008 402.541 243.084 397.052C245.242 396.182 249.285 396.798 250.174 399.298C256.033 416.225 264.637 431.219 275.77 444.063H275.76C277.108 445.646 275.995 447.365 273.915 448.048L273.905 448.039Z" fill="#E5A3E3"/>
<path d="M463.919 453.137C460.726 451.467 457.054 449.719 452.083 448.039C450.003 447.355 448.89 445.636 450.237 444.053H450.227C461.36 431.209 469.954 416.216 475.824 399.288C476.712 396.788 480.755 396.163 482.914 397.042C495.99 402.541 502.66 408.011 501.439 412.445C500.629 415.405 495.267 416.724 490.091 417.993C484.3 419.41 478.314 420.885 476.087 425.388C475.716 426.14 475.374 427.136 475.296 428.328C474.583 432.362 471.82 441.68 468.187 451.887C467.767 453.049 465.853 454.124 463.929 453.137H463.919Z" fill="#E5A3E3"/>
<path d="M596.743 477.595C590.913 488.281 583.471 502.161 578.93 511.577C575.336 519.03 542.855 517.096 513.353 507.67C487.679 499.465 469.866 486.191 466.135 477.859C465.344 476.091 465.208 474.616 465.715 473.474C470.12 463.598 474.612 451.194 477.6 441.592C478.333 439.277 481.302 439.218 482.903 440.596C486.409 443.467 491.126 446.476 497.015 449.582C507.064 454.886 520.003 460.17 533.461 464.468C540.941 466.861 560.248 472.594 577.905 474.216C581 474.499 583.881 474.646 586.547 474.646C589.614 474.646 592.397 474.45 594.907 474.079C596.313 473.903 598.159 475.036 596.753 477.605L596.743 477.595Z" fill="#E5A3E3"/>
<path d="M544.672 433.817C547.651 436.611 552.016 438.935 557.466 440.557C559.819 441.25 562.368 441.68 564.712 441.944C566.343 442.149 567.534 444.093 566.616 445.89C563.784 451.467 560.688 457.65 558.647 461.762C557.876 463.315 555.62 464.731 552.641 463.989C548.003 462.846 543.823 461.684 540.454 460.688C539.018 460.258 537.28 458.9 537.661 456.712C538.657 451.154 539.897 443.868 541.274 435.009C541.606 432.86 543.481 432.586 544.663 433.807L544.672 433.817Z" fill="#E5A3E3"/>
<path d="M565.639 165.539C570.004 161.056 575.151 158.878 581.372 158.878C597.329 158.878 610.288 169.095 617.681 187.175C611.558 184.322 605.561 182.887 599.721 182.887C596.069 182.887 592.485 183.443 588.979 184.567C581.577 186.921 574.545 191.824 567.895 199.179L588.198 167.942C561.938 170.247 553.295 208.722 550.277 226.294C550.902 188.913 558.754 172.631 565.639 165.549V165.539Z" fill="#16B5B5"/>
<path d="M511.098 162.326L519.516 176.088C518.061 174.955 516.567 173.939 515.034 173.07C514.477 172.758 513.911 172.465 513.344 172.181C513.159 172.093 512.973 172.006 512.787 171.927C512.397 171.742 512.016 171.566 511.625 171.41C511.401 171.322 511.186 171.234 510.961 171.146C510.6 170.999 510.239 170.863 509.868 170.736C509.633 170.658 509.399 170.579 509.174 170.501C508.813 170.384 508.442 170.277 508.08 170.169C507.846 170.101 507.621 170.042 507.387 169.984C507.006 169.886 506.615 169.798 506.235 169.72C506.02 169.671 505.805 169.622 505.59 169.583C505.141 169.495 504.692 169.427 504.233 169.358C504.076 169.339 503.93 169.31 503.774 169.29C503.158 169.212 502.543 169.153 501.928 169.114C501.84 169.114 501.752 169.114 501.664 169.105C501.137 169.075 500.61 169.056 500.082 169.056C500.033 169.056 499.985 169.056 499.936 169.056C499.594 169.056 499.262 169.065 498.92 169.075C498.783 169.075 498.647 169.075 498.51 169.075C497.983 169.105 497.455 169.134 496.928 169.192C496.752 169.212 496.576 169.232 496.401 169.251C496.039 169.29 495.668 169.339 495.297 169.388C495.082 169.417 494.867 169.456 494.662 169.495C494.33 169.554 493.998 169.612 493.656 169.681C493.432 169.72 493.217 169.769 492.992 169.818C492.66 169.886 492.328 169.974 491.986 170.052C491.772 170.101 491.557 170.159 491.342 170.218C490.981 170.316 490.619 170.423 490.248 170.531C490.063 170.589 489.877 170.638 489.691 170.697C489.145 170.872 488.598 171.058 488.051 171.253C487.992 170.57 487.963 169.905 487.963 169.251C487.963 164.68 489.369 160.812 492.152 157.891C492.524 157.501 492.924 157.139 493.344 156.788C493.432 156.709 493.529 156.631 493.617 156.563C494.037 156.231 494.477 155.908 494.936 155.615C494.984 155.586 495.043 155.557 495.092 155.518C495.522 155.244 495.971 155 496.43 154.766C496.527 154.717 496.625 154.668 496.723 154.619C497.221 154.375 497.748 154.15 498.276 153.955C498.363 153.916 498.461 153.887 498.559 153.857C499.047 153.681 499.555 153.525 500.072 153.379C500.16 153.359 500.248 153.33 500.336 153.301C500.912 153.154 501.498 153.027 502.104 152.92C502.231 152.9 502.358 152.88 502.485 152.861C503.061 152.773 503.647 152.695 504.252 152.646C504.301 152.646 504.35 152.636 504.399 152.627C505.033 152.578 505.688 152.558 506.342 152.548C506.479 152.548 506.625 152.548 506.762 152.548C507.504 152.548 508.246 152.587 509.008 152.646C509.116 152.646 509.233 152.666 509.35 152.675C510.151 152.754 510.961 152.841 511.782 152.978C535.2 156.875 545.903 179.273 543.706 219.662C541.274 193.445 530.952 166.037 511.108 162.326H511.098Z" fill="#16B5B5"/>
<path d="M500.062 201.445L509.975 207.579C505.424 207.12 500.961 207.872 496.781 209.855C494.037 203.535 493.734 197.685 496.049 193.836C497.406 191.57 499.594 190.32 502.191 190.32C508.617 190.32 517.651 197.099 526.362 208.449C528.764 211.584 530.981 214.915 532.993 218.285C523.08 203.457 503.119 193.934 500.062 201.445Z" fill="#16B5B5"/>
<path d="M509.72 239.138L526.234 239.529C523.587 239.998 521.273 240.916 519.29 242.45C515.53 245.351 513.245 250.02 511.937 257.873C505.647 247.089 501.507 233.649 504.436 227.476C505.1 226.089 506.448 224.213 510.53 224.067C519.095 223.754 530.013 229.664 540.052 239.861C521.771 227.368 509.729 231.402 509.729 239.138H509.72Z" fill="#16B5B5"/>
<path d="M595.151 248.789C606.04 255.548 611.948 265.511 611.782 276.832C611.655 285.124 608.13 292.812 602.339 297.393C598.237 300.635 593.022 302.354 586.977 302.54C585.766 302.354 584.809 301.436 585.756 300.401H585.737C589.751 296.279 592.153 291.239 592.993 285.163C593.735 279.742 593.051 274.712 591.235 270.112L602.475 279.498C599.135 253.868 581.616 242.967 554.379 242.606C558.441 241.561 562.738 241.043 567.084 241.043C576.869 241.043 586.909 243.661 595.161 248.789H595.151Z" fill="#16B5B5"/>
<path d="M623.071 246.376C616.645 237.869 606.44 229.4 593.413 226.519C590.581 225.893 587.719 225.552 584.819 225.473L606.694 219.662C585.209 206.886 565.043 224.204 556.107 233.092C567.69 215.169 580.688 205.928 594.243 205.928C596.606 205.928 598.989 206.212 601.382 206.778C607.553 208.234 613.442 213.01 617.544 219.896C622.212 227.72 624.126 237.087 623.081 246.386L623.071 246.376Z" fill="#16B5B5"/>
<path d="M525.512 397.54C526.175 397.54 526.713 397.002 526.713 396.339C526.713 395.675 526.175 395.137 525.512 395.137C524.848 395.137 524.311 395.675 524.311 396.339C524.311 397.002 524.848 397.54 525.512 397.54Z" fill="#131E33"/>
<path d="M510.961 425.895C511.625 425.895 512.162 425.358 512.162 424.694C512.162 424.03 511.625 423.493 510.961 423.493C510.297 423.493 509.76 424.03 509.76 424.694C509.76 425.358 510.297 425.895 510.961 425.895Z" fill="#131E33"/>
<path d="M513.91 447.091C514.574 447.091 515.111 446.554 515.111 445.89C515.111 445.225 514.574 444.688 513.91 444.688C513.246 444.688 512.709 445.225 512.709 445.89C512.709 446.554 513.246 447.091 513.91 447.091Z" fill="#131E33"/>
<path d="M529.604 419.458C530.267 419.458 530.805 418.921 530.805 418.257C530.805 417.594 530.267 417.056 529.604 417.056C528.94 417.056 528.402 417.594 528.402 418.257C528.402 418.921 528.94 419.458 529.604 419.458Z" fill="#131E33"/>
<path d="M532.445 323.97C531.781 323.97 531.244 324.507 531.244 325.172C531.244 325.836 531.781 326.373 532.445 326.373C533.109 326.373 533.647 325.836 533.647 325.172C533.647 324.507 533.109 323.97 532.445 323.97Z" fill="#131E33"/>
<path d="M545.834 299.424C546.498 299.424 547.035 298.887 547.035 298.223C547.035 297.559 546.498 297.021 545.834 297.021C545.17 297.021 544.633 297.559 544.633 298.223C544.633 298.887 545.17 299.424 545.834 299.424Z" fill="#131E33"/>
<path d="M540.102 254.493C539.438 254.493 538.9 255.03 538.9 255.695C538.9 256.359 539.438 256.896 540.102 256.896C540.766 256.896 541.303 256.359 541.303 255.695C541.303 255.03 540.766 254.493 540.102 254.493Z" fill="#131E33"/>
<path d="M332.383 400.802H315.508V362.738H304.727L293.799 368.305L293.789 379.636L304.727 374.127V400.802H289.551V411.097H332.383V400.802Z" fill="#131E33"/>
<path d="M383.245 400.802H366.36V362.738H355.578L344.65 368.305L344.641 379.636L355.578 374.127V400.802H340.402V411.097H383.245V400.802Z" fill="#131E33"/>
<path d="M430.178 362.738H398.537L391.301 369.976V386.981V387.44L397.727 393.867L402.082 393.916H426.702V400.802H391.252V411.097H429.837L437.483 403.449V370.044L430.178 362.738ZM426.702 383.621H402.082V373.033H426.702V383.621Z" fill="#131E33"/>
<path d="M186.67 490.205L182.412 488.936L172.52 491.143L170.137 486.064L182.969 483.202L181.24 478.68L180.498 478.846C176.094 479.988 171.182 481.131 166.055 482.137L164.561 486.093L171.817 502.249L175.508 504.955C179.6 504.495 183.946 503.821 188.379 502.962L189.766 498.322L186.67 490.196V490.205ZM176.621 499.905L174.512 495.392L182.842 493.663L184.6 498.518L176.621 499.895V499.905Z" fill="#131E33"/>
<path d="M214.072 490.586L220.088 476.726L218.076 471.53L217.285 469.479L214.141 467.974C210.43 469.41 206.572 470.817 202.607 472.184L201.025 476.375L202.695 481.747L207.1 480.086L205.693 476.091L213.682 473.161L215.01 476.726C215.01 476.726 210.186 487.617 207.559 493.429L209.121 497.795C209.238 497.756 209.346 497.727 209.463 497.687C214.102 496.203 220.205 493.839 226.319 490.928L224.287 486.181L214.072 490.606V490.586Z" fill="#131E33"/>
<path d="M234.942 480.496L239.766 467.759L237.031 460.903L233.799 459.359C230.43 461.059 226.738 462.768 222.793 464.468L221.953 468.062L224.277 473.718L228.516 471.676L226.592 467.437L233.447 464.214L235.01 467.828C235.01 467.828 230.733 478.406 228.623 484.433L230.508 488.838C236.172 485.908 241.553 482.577 245.489 479.129L243.731 475.027L234.942 480.496Z" fill="#131E33"/>
<path d="M450.873 552.796L461.625 566.393L440.229 559.712C438.197 560.884 436.117 562.017 433.988 563.091L454.975 600.208C456.762 599.271 458.52 598.294 460.268 597.298L443.1 566.94L468.266 574.793L477.221 586.114C478.833 584.893 480.425 583.652 481.968 582.373L455.659 549.104C454.125 550.354 452.524 551.585 450.873 552.787V552.796Z" fill="white"/>
<path d="M287.121 607.671C288.986 608.423 290.861 609.146 292.756 609.839L309.875 570.613C307.961 569.958 306.067 569.265 304.192 568.532L287.111 607.671H287.121Z" fill="white"/>
<path d="M497.25 559.214L487.045 550.472L494.428 537.715L489.76 534.306L482.729 546.78L473.588 538.956L481.615 528.348L476.752 524.793C473.734 530.077 469.965 535.166 465.482 539.962L497.534 567.399C500.346 564.225 502.973 560.962 505.405 557.602L509.887 550.96C510.171 550.521 510.454 550.071 510.727 549.632L506.04 546.203L497.25 559.214Z" fill="white"/>
<path d="M276.407 553.724C275.215 552.884 274.063 552.025 272.93 551.155L246.836 584.639C248.408 585.87 250.029 587.081 251.67 588.263L263.047 573.67L270 578.534L263.701 596.126C265.723 597.327 267.784 598.48 269.873 599.603L275.293 582.021H280.215L289.747 567.311L289.102 561.548C284.669 559.165 280.43 556.557 276.416 553.724H276.407ZM277.217 575.594L266.924 568.698L274.346 559.184L283.79 565.211L277.217 575.604V575.594Z" fill="white"/>
<path d="M247.51 554.105H250.762L260.694 545.441V540.069C256.163 535.234 252.305 530.136 249.268 524.802L215.303 549.651C219.287 556.157 224.004 562.369 229.317 568.259H234.532L247.52 556.928V554.096L247.51 554.105ZM247.696 533.427L254.903 542.472L247.696 548.762L240.235 538.887L247.696 533.427ZM232.08 562.378L223.281 551.292L235.508 542.345L243.272 552.621L232.08 562.378Z" fill="white"/>
<path d="M378.83 597.454L381.643 594.299L381.028 582.451L376.76 578.642C372.219 579.003 367.629 579.189 363 579.189C360.998 579.189 358.996 579.149 357.014 579.091V621.912C359.006 621.971 360.998 622 363 622C368.361 622 373.694 621.785 378.977 621.394L382.834 617.067L381.955 600.238L378.83 597.444V597.454ZM363.049 584.541L375.08 584.317L375.627 594.729L363.049 594.914V584.541ZM363.049 616.345V600.765L375.93 600.57L376.741 616.13L363.039 616.345H363.049Z" fill="white"/>
<path d="M420.451 573.387L415.53 570.788C410.998 572.322 406.33 573.65 401.564 574.774L398.918 579.784L406.291 617.536C408.254 617.126 410.207 616.686 412.141 616.218L409.309 602.602L423.44 598.314L428.147 611.627C430.149 610.963 432.122 610.259 434.085 609.527L420.461 573.387H420.451ZM408.108 596.848L404.592 579.941L415.725 576.493L421.487 592.795L408.117 596.858L408.108 596.848Z" fill="white"/>
<path d="M322.297 577.88L318.742 593.176L320.344 596.516L332.961 599.066L330.637 613.6L315.295 609.712L313.693 616.178C319.426 617.565 325.266 618.708 331.194 619.607L336.174 617.224L339.319 597.552L337.639 594.045L325.158 591.525L327.629 581.308L341.301 583.848L342.063 577.928C337.082 577.323 332.18 576.493 327.375 575.448L322.307 577.88H322.297Z" fill="white"/>
<path d="M577.494 483.905L573.393 491.866L566.108 491.544L570.112 483.056C568.608 482.841 567.113 482.606 565.619 482.362L554.32 506.166C555.971 506.303 557.553 506.4 559.076 506.449L564.154 495.675L571.196 496.134L565.912 506.381C568.324 506.205 569.926 505.902 570.912 505.629L571.088 505.58L571.166 505.414C573.471 500.725 576.518 494.816 580.248 487.793L582.075 484.228L581.508 484.198C580.18 484.13 578.842 484.032 577.494 483.915V483.905Z" fill="#131E33"/>
<path d="M517.426 469.215C514.457 468.121 511.557 467.017 508.764 465.894L505.258 467.281L494.779 489.463C496.039 490.127 497.348 490.801 498.725 491.465L502.553 483.319L509.76 486.044L506.557 494.933C507.895 495.47 509.272 495.998 510.678 496.515L519.096 472.975L517.436 469.225L517.426 469.215ZM511.352 481.542L504.565 478.982L508.403 470.807L514.379 473.122L511.352 481.532V481.542Z" fill="#131E33"/>
<path d="M550.912 484.345L559.575 486.162L561.664 481.649C558.217 481.004 554.848 480.272 551.645 479.529L547.582 481.131L538.461 501.223L539.77 504.193C543.256 504.818 546.674 505.326 549.936 505.707L551.655 501.8L543.549 500.696L550.932 484.335L550.912 484.345Z" fill="#131E33"/>
<path d="M496.166 460.395L487.612 469.352L488.5 456.497C486.938 455.648 485.502 454.837 484.174 454.036L483.764 453.792H483.744L483.588 454.251C481.01 461.694 478.285 468.805 475.707 474.812L475.619 475.017L475.756 475.202C476.43 476.15 477.436 477.254 478.725 478.475L484.35 463.647L483.774 475.74L485.043 476.589L493.08 468.844L486.957 484.833C488.061 485.566 489.242 486.298 490.492 487.041L490.961 487.197L500.395 462.338C498.95 461.694 497.534 461.039 496.166 460.395Z" fill="#131E33"/>
<path d="M539.555 476.414C535.834 475.368 532.729 474.411 530.502 473.698C529.164 473.268 527.836 472.839 526.518 472.399L516.635 498.547C518.022 498.987 519.447 499.416 520.873 499.827L524.779 489.414L528.998 490.801L527.748 501.653C529.389 502.054 531.039 502.434 532.69 502.796L533.364 492.169L533.569 492.081L537.504 490.342V490.362L541.342 480.487L539.545 476.423L539.555 476.414ZM533.666 488.086L526.166 485.781L528.969 478.308L536.616 480.526L533.666 488.086Z" fill="#131E33"/>
<path d="M363.487 318.608C395.812 318.608 401.33 283.923 401.33 283.923C403.761 286.404 406.398 288.494 412.326 289.168C411.642 288.035 411.418 286.756 411.545 285.808C412.853 286.062 414.191 286.199 415.549 286.199C427.189 286.199 436.662 276.724 436.662 265.081C436.662 253.438 427.189 243.964 415.549 243.964C403.908 243.964 394.435 253.438 394.435 265.081H394.386C386.779 263.577 389.865 253.966 363.497 253.966C337.13 253.966 340.216 263.577 332.608 265.081H332.559C332.559 253.438 323.086 243.964 311.446 243.964C299.805 243.964 290.332 253.438 290.332 265.081C290.332 276.724 299.805 286.199 311.446 286.199C312.803 286.199 314.131 286.062 315.45 285.808C315.567 286.687 315.371 287.859 314.795 288.934C319.59 288.084 321.954 286.17 324.141 283.923C324.727 290.77 331.172 318.608 363.507 318.608H363.487Z" fill="#E5A3E3"/>
<path d="M151.033 484.462H151.004C149.637 484.609 148.27 484.736 146.912 484.833L149.393 489.58L153.231 489.248L160.76 505.599C161.737 505.658 162.84 505.687 164.1 505.687C164.94 505.687 165.828 505.668 166.727 505.638L156.229 483.808C154.49 484.052 152.752 484.277 151.023 484.452L151.033 484.462Z" fill="#131E33"/>
<path d="M190.273 486.875L191.406 490.508L201.485 487.265L200.274 483.759L190.273 486.875Z" fill="#131E33"/>
<path d="M123.533 279.508L134.773 270.121C132.967 274.722 132.273 279.752 133.015 285.173C133.855 291.258 136.258 296.299 140.271 300.411H140.242C141.189 301.446 140.242 302.364 139.021 302.55C132.976 302.354 127.761 300.645 123.66 297.402C117.869 292.821 114.333 285.134 114.216 276.841C114.05 265.521 119.949 255.558 130.847 248.799C139.099 243.671 149.139 241.053 158.924 241.053C163.27 241.053 167.567 241.571 171.629 242.616C144.393 242.987 126.873 253.878 123.533 279.508Z" fill="#16B5B5"/>
<path d="M199.639 208.449C208.34 197.099 217.373 190.32 223.809 190.32C226.407 190.32 228.594 191.57 229.952 193.836C232.266 197.685 231.973 203.545 229.219 209.855C225.049 207.872 220.577 207.11 216.026 207.579L225.938 201.445C222.881 193.934 202.92 203.467 193.008 218.285C195.02 214.915 197.236 211.584 199.639 208.449Z" fill="#16B5B5"/>
<path d="M215.469 224.077C219.551 224.233 220.899 226.099 221.563 227.486C224.493 233.659 220.352 247.099 214.063 257.882C212.754 250.029 210.469 245.351 206.709 242.459C204.727 240.926 202.412 240.008 199.766 239.539L216.28 239.148C216.28 231.412 204.239 227.378 185.957 239.871C195.996 229.683 206.905 223.764 215.479 224.077H215.469Z" fill="#16B5B5"/>
<path d="M214.238 152.978C216.035 152.675 217.793 152.529 219.473 152.529C225.44 152.529 230.528 154.385 233.867 157.882C237.051 161.212 238.448 165.793 237.969 171.244C228.526 167.776 219.258 168.392 210.977 173.07C209.443 173.94 207.949 174.946 206.494 176.088L214.912 162.326C195.078 166.047 184.755 193.455 182.314 219.672C180.117 179.282 190.82 156.875 214.238 152.988V152.978Z" fill="#16B5B5"/>
<path d="M137.02 184.567C133.504 183.443 129.92 182.887 126.278 182.887C120.438 182.887 114.441 184.323 108.318 187.175C115.711 169.085 128.67 158.878 144.627 158.878C150.848 158.878 155.995 161.056 160.36 165.539C167.255 172.621 175.106 188.913 175.722 226.284C172.704 208.722 164.061 170.238 137.801 167.932L158.104 199.169C151.454 191.814 144.413 186.911 137.02 184.557V184.567Z" fill="#16B5B5"/>
<path d="M119.305 219.662L141.181 225.473C138.28 225.552 135.419 225.893 132.587 226.519C119.559 229.4 109.354 237.869 102.928 246.376C101.883 237.087 103.797 227.71 108.465 219.886C112.567 213.01 118.456 208.234 124.628 206.768C127.02 206.202 129.403 205.919 131.767 205.919C145.321 205.919 158.32 215.169 169.902 233.082C160.966 224.194 140.8 206.876 119.315 219.652L119.305 219.662Z" fill="#16B5B5"/>
<path d="M295.723 173.734H278.398V226.372H295.723V173.734Z" fill="#131E33"/>
<path d="M372.942 226.382H390.266V187.585H402.688V173.734H390.266H372.942H360.529V187.585H372.942V226.382Z" fill="#131E33"/>
<path d="M328.555 226.382H349.092V212.619H328.555V206.983H349.092V193.133H328.555V187.585H349.092V173.734H328.555H311.924H311.23V226.382H311.924H328.555Z" fill="#131E33"/>
<path d="M430.52 210.461H450.364V196.61H430.52V187.585H450.364V173.734H430.52H413.195V187.585V196.61V210.461V226.382H430.52V210.461Z" fill="#131E33"/>
<path d="M260.195 131.655H323.175C325.284 131.655 326.671 133.062 327.218 134.009L335.675 148.651C336.71 150.448 335.568 151.806 334.015 151.806H260.195V131.655Z" fill="#E5A3E3"/>
<path d="M447.668 334.549H437.482V328.405C440.891 330.847 444.309 332.888 447.668 334.549Z" fill="white"/>
<path d="M405.481 328.375V334.549H393.254C397.522 332.859 401.604 330.798 405.481 328.375Z" fill="white"/>
<path d="M332.744 334.549H320.518V328.375C324.395 330.798 328.477 332.859 332.744 334.549Z" fill="white"/>
<path d="M288.516 328.405V334.549H278.33C281.69 332.878 285.117 330.847 288.516 328.405Z" fill="white"/>
<path d="M431.828 323.921V334.549H424.309V316.547C426.75 319.253 429.26 321.704 431.828 323.921Z" fill="white"/>
<path d="M418.654 317.973V334.549H411.135V324.478C413.762 322.486 416.272 320.317 418.654 317.973Z" fill="white"/>
<path d="M314.863 324.478V334.549H307.344V317.973C309.727 320.317 312.236 322.486 314.863 324.478Z" fill="white"/>
<path d="M301.69 316.547V334.549H294.17V323.921C296.738 321.704 299.248 319.243 301.69 316.547Z" fill="white"/>
<path d="M343.204 288.162C345.597 287.195 346.681 284.304 345.626 281.716C344.572 279.127 341.788 277.808 339.396 278.775C337.003 279.742 335.919 282.634 336.974 285.222C338.029 287.81 340.812 289.129 343.204 288.162Z" fill="#131E33"/>
<path d="M383.773 288.162C386.165 289.129 388.949 287.81 390.003 285.222C391.058 282.634 389.974 279.742 387.581 278.775C385.189 277.808 382.406 279.127 381.351 281.716C380.296 284.304 381.38 287.195 383.773 288.162Z" fill="#131E33"/>
<path d="M363.489 309.299C375.667 309.299 376.272 278.414 363.489 278.414C350.705 278.414 351.311 309.299 363.489 309.299Z" fill="#131E33"/>
<path d="M320.88 265.052V275.66C320.88 302.599 337.999 320.698 363.488 320.698C388.976 320.698 406.096 302.599 406.096 275.66V265.052C406.096 259.846 410.334 255.607 415.539 255.607C420.744 255.607 424.983 259.846 424.983 265.052V267.152H425.002V267.113C428.703 267.113 430.881 265.941 430.227 261.77C428.723 255.03 422.717 249.98 415.529 249.98C407.219 249.98 400.461 256.74 400.461 265.052V275.66C400.461 299.239 385.597 315.082 363.468 315.082C341.339 315.082 326.475 299.239 326.475 275.66V265.052C326.475 256.74 319.717 249.98 311.407 249.98C304.229 249.98 298.213 255.04 296.709 261.77C296.055 265.941 298.233 267.113 301.934 267.113V267.152H301.953V265.052C301.953 259.846 306.192 255.607 311.397 255.607C316.602 255.607 320.84 259.846 320.84 265.052H320.88Z" fill="#131E33"/>
<path d="M353.332 323.833C351.662 323.833 350.305 325.191 350.305 326.861C350.305 328.532 351.662 329.889 353.332 329.889C355.002 329.889 356.359 328.532 356.359 326.861C356.359 325.191 355.002 323.833 353.332 323.833Z" fill="#131E33"/>
<path d="M335.002 317.377C333.332 317.377 331.975 318.735 331.975 320.405C331.975 322.075 333.332 323.433 335.002 323.433C336.672 323.433 338.029 322.075 338.029 320.405C338.029 318.735 336.672 317.377 335.002 317.377Z" fill="#131E33"/>
<path d="M319.641 305.871C317.971 305.871 316.613 307.229 316.613 308.899C316.613 310.569 317.971 311.927 319.641 311.927C321.311 311.927 322.668 310.569 322.668 308.899C322.668 307.229 321.311 305.871 319.641 305.871Z" fill="#131E33"/>
<path d="M303.713 300.938C305.383 300.938 306.74 299.58 306.74 297.91C306.74 296.24 305.383 294.882 303.713 294.882C302.043 294.882 300.686 296.24 300.686 297.91C300.686 299.58 302.043 300.938 303.713 300.938Z" fill="#131E33"/>
<path d="M272.441 323.052C274.111 323.052 275.469 321.694 275.469 320.024C275.469 318.354 274.111 316.996 272.441 316.996C270.771 316.996 269.414 318.354 269.414 320.024C269.414 321.694 270.771 323.052 272.441 323.052Z" fill="#131E33"/>
<path d="M288.32 311.917C289.99 311.917 291.348 310.559 291.348 308.889C291.348 307.219 289.99 305.861 288.32 305.861C286.65 305.861 285.293 307.219 285.293 308.889C285.293 310.559 286.65 311.917 288.32 311.917Z" fill="#131E33"/>
<path d="M373.654 323.833C371.984 323.833 370.627 325.191 370.627 326.861C370.627 328.532 371.984 329.889 373.654 329.889C375.324 329.889 376.682 328.532 376.682 326.861C376.682 325.191 375.324 323.833 373.654 323.833Z" fill="#131E33"/>
<path d="M391.984 317.377C390.314 317.377 388.957 318.735 388.957 320.405C388.957 322.075 390.314 323.433 391.984 323.433C393.654 323.433 395.012 322.075 395.012 320.405C395.012 318.735 393.654 317.377 391.984 317.377Z" fill="#131E33"/>
<path d="M407.348 305.871C405.678 305.871 404.32 307.229 404.32 308.899C404.32 310.569 405.678 311.927 407.348 311.927C409.018 311.927 410.375 310.569 410.375 308.899C410.375 307.229 409.018 305.871 407.348 305.871Z" fill="#131E33"/>
<path d="M423.273 300.938C424.943 300.938 426.301 299.58 426.301 297.91C426.301 296.24 424.943 294.882 423.273 294.882C421.604 294.882 420.246 296.24 420.246 297.91C420.246 299.58 421.604 300.938 423.273 300.938Z" fill="#131E33"/>
<path d="M454.545 323.052C456.215 323.052 457.572 321.694 457.572 320.024C457.572 318.354 456.215 316.996 454.545 316.996C452.875 316.996 451.518 318.354 451.518 320.024C451.518 321.694 452.875 323.052 454.545 323.052Z" fill="#131E33"/>
<path d="M438.654 311.917C440.324 311.917 441.682 310.559 441.682 308.889C441.682 307.219 440.324 305.861 438.654 305.861C436.984 305.861 435.627 307.219 435.627 308.889C435.627 310.559 436.984 311.917 438.654 311.917Z" fill="#131E33"/>
<path d="M418.225 148.651C422.043 148.651 425.149 145.545 425.149 141.726C425.149 137.907 422.043 134.801 418.225 134.801C414.406 134.801 411.301 137.907 411.301 141.726C411.301 145.545 414.406 148.651 418.225 148.651Z" fill="#131E33"/>
<path d="M418.225 138.844C419.816 138.844 421.115 140.144 421.115 141.736C421.115 143.328 419.816 144.627 418.225 144.627C416.633 144.627 415.334 143.328 415.334 141.736C415.334 140.144 416.633 138.844 418.225 138.844Z" fill="#E5A3E3"/>
<path d="M313.408 135.103C309.59 135.103 306.484 138.21 306.484 142.029C306.484 145.848 309.59 148.954 313.408 148.954C317.227 148.954 320.332 145.848 320.332 142.029C320.332 138.21 317.227 135.103 313.408 135.103Z" fill="#131E33"/>
<path d="M313.408 144.92C311.816 144.92 310.518 143.621 310.518 142.029C310.518 140.437 311.816 139.137 313.408 139.137C315 139.137 316.299 140.437 316.299 142.029C316.299 143.621 315 144.92 313.408 144.92Z" fill="#E5A3E3"/>
<path d="M436.088 148.651C439.906 148.651 443.012 145.545 443.012 141.726C443.012 137.907 439.906 134.801 436.088 134.801C432.27 134.801 429.164 137.907 429.164 141.726C429.164 145.545 432.27 148.651 436.088 148.651Z" fill="#131E33"/>
<path d="M436.088 138.844C437.68 138.844 438.979 140.144 438.979 141.736C438.979 143.328 437.68 144.627 436.088 144.627C434.496 144.627 433.197 143.328 433.197 141.736C433.197 140.144 434.496 138.844 436.088 138.844Z" fill="#E5A3E3"/>
<path d="M453.959 148.651C457.777 148.651 460.883 145.545 460.883 141.726C460.883 137.907 457.777 134.801 453.959 134.801C450.141 134.801 447.035 137.907 447.035 141.726C447.035 145.545 450.141 148.651 453.959 148.651Z" fill="#131E33"/>
<path d="M453.959 138.844C455.551 138.844 456.85 140.144 456.85 141.736C456.85 143.328 455.551 144.627 453.959 144.627C452.367 144.627 451.068 143.328 451.068 141.736C451.068 140.144 452.367 138.844 453.959 138.844Z" fill="#E5A3E3"/>
<path d="M348.381 148.251H352.414V143.748H356.916V139.714H352.414V135.211H348.381V139.714H343.879V143.748H348.381V148.251Z" fill="#131E33"/>
<path d="M293.506 140.036H268.096V144.08H293.506V140.036Z" fill="#131E33"/>
<path d="M260.195 134.635C260.195 133.375 261.074 131.655 263.526 131.655V129.946H255.4L258.486 134.644H260.205L260.195 134.635Z" fill="#131E33"/>
<path d="M466.791 134.635C466.791 133.375 465.912 131.655 463.461 131.655V129.946H471.586L468.5 134.644H466.781L466.791 134.635Z" fill="#131E33"/>
<path d="M260.195 160.441C260.195 159.181 261.074 157.462 263.526 157.462V155.752H255.4L258.486 160.45H260.205L260.195 160.441Z" fill="#131E33"/>
<path d="M466.791 160.441C466.791 159.181 465.912 157.462 463.461 157.462V155.752H471.586L468.5 160.45H466.781L466.791 160.441Z" fill="#131E33"/>
<path d="M260.195 148.827C260.195 150.087 261.074 151.806 263.526 151.806V153.515H255.4L258.486 148.817H260.205L260.195 148.827Z" fill="#131E33"/>
<path d="M466.791 148.827C466.791 150.087 465.912 151.806 463.461 151.806V153.515H471.586L468.5 148.817H466.781L466.791 148.827Z" fill="#131E33"/>
<path d="M352.092 509.311H337.131L333.342 513.101V538.389L337.131 542.179H339.524H352.092H354.68L358.274 538.584V512.905L354.68 509.311H352.092ZM352.092 537.432H339.524V514.038H352.092V537.432Z" fill="#131E33"/>
<path d="M325.325 542.179L325.315 535.996L306.867 537.246V534.756L323.879 523.572V512.886L320.305 509.311H317.698H306.867H304.533L300.686 513.15V521.013L306.867 521.003V514.048H317.698V521.384L300.686 532.558V537.139V542.179H306.867H325.325Z" fill="#131E33"/>
<path d="M419.584 524.226H405.883V509.311H399.916V524.226V525.418L403.471 528.973H419.584V542.179H425.766V509.311H419.584V524.226Z" fill="#131E33"/>
<path d="M371.586 542.179H392.817V535.996L374.359 537.246V534.756L391.381 523.572V512.886L387.797 509.311H385.199H374.359H372.025L368.178 513.15V519.567H374.359V514.048H385.199V521.384L368.178 532.558V537.139V542.179H371.586Z" fill="#131E33"/>
</g>
<defs>
<clipPath id="clip0_1018_143">
<rect width="532" height="496" fill="white" transform="translate(97 126)"/>
</clipPath>
</defs>
</svg>
