<svg width="70" height="71" viewBox="0 0 70 71" fill="none" xmlns="http://www.w3.org/2000/svg">
<path d="M26.1301 22.36C25.3401 21.8 24.48 21.49 23.69 21.49C23.14 21.49 22.6501 21.64 22.2201 21.93C21.7901 22.22 20.8501 23.01 21.2701 24.15C21.4701 24.71 21.8901 25.03 22.7701 25.31C23.2501 25.46 23.7301 25.61 24.2201 25.76C25.9701 26.29 27.7702 26.84 29.5502 27.66C29.6102 27.69 29.6701 27.63 29.6501 27.57C28.8201 25.35 27.8601 23.6 26.1401 22.37L26.1301 22.36Z" fill="white"/>
<path d="M34.68 16.0601C33.56 16.0701 32.71 16.4101 32.17 17.0701C31.52 17.8601 31.3099 19.1501 31.5899 20.6101C32.1299 23.3601 33.1899 26.0201 34.2299 28.6001L34.28 28.7201L34.4799 29.2001L34.6899 28.6901L34.7099 28.6501C36.0999 25.8601 37.56 22.5901 37.78 19.5701C37.87 18.3101 37.67 17.4401 37.18 16.9001C36.7 16.3701 35.8499 16.0901 34.6899 16.0701L34.68 16.0601Z" fill="white"/>
<path d="M47.19 21.91C46.76 21.62 46.26 21.47 45.72 21.47C44.94 21.47 44.07 21.78 43.28 22.34C41.56 23.57 40.59 25.32 39.77 27.54C39.75 27.6 39.81 27.66 39.87 27.63C41.65 26.81 43.45 26.27 45.2 25.73C45.68 25.58 46.17 25.44 46.65 25.28C47.52 25 47.94 24.68 48.15 24.12C48.56 22.99 47.62 22.19 47.19 21.9V21.91Z" fill="white"/>
<path d="M68.6501 28.3901C68.3601 24.9301 66.91 21.9301 64.97 19.1401C63.44 16.9301 61.89 14.7301 60.32 12.5601C59.51 11.4301 58.6601 10.3301 57.7501 9.28009C57.1601 8.59009 56.4401 8.00009 55.7601 7.39009C53.8701 5.69009 51.9201 4.04009 49.5401 3.11009C47.8301 2.44009 45.99 2.07009 44.2 1.64009C43.22 1.40009 42.19 1.36009 41.21 1.11009C38.86 0.500092 36.5201 -0.129908 34.5601 0.0600916C29.6201 0.0800916 25.32 0.730091 21.35 2.87009C19.96 3.63009 18.53 4.35009 17.21 5.21009C15.73 6.17009 14.3 7.23009 12.94 8.35009C11.84 9.25009 10.87 10.3101 9.85003 11.3101C7.68003 13.4101 5.92 15.8001 4.82 18.6401C4.69 18.9601 4.51004 19.2701 4.36004 19.5801C2.00004 24.1801 0.31001 28.9801 0.33001 34.2101C0.33001 36.2901 0.640005 38.3801 0.950005 40.4501C1.31 42.8701 1.73008 45.2801 2.28008 47.6701C2.93008 50.5001 4.50009 52.8901 6.16009 55.2301C9.37009 59.7701 13.1401 63.6901 18.1601 66.2501C19.1901 66.7701 20.2101 67.3701 21.3001 67.6801C23.5201 68.3001 25.7801 68.8301 28.0501 69.2401C29.9201 69.5701 31.84 69.6601 33.73 69.8701C37.12 70.2501 40.4401 70.0201 43.6401 68.7401C47.2401 67.2901 50.4101 65.1001 53.6301 63.0201C56.9001 60.9101 59.7 58.2001 62.36 55.3801C64.83 52.7701 66.52 49.7201 67.36 46.2101C68.19 42.7201 68.76 39.2001 68.95 35.6201C69.04 33.9601 69.12 32.3001 69.1 30.6401C69.09 29.9001 68.7201 29.1801 68.6601 28.4301L68.6501 28.3901ZM52.37 37.7501C52.37 38.0201 52.0401 38.4301 51.7601 38.5401C49.6801 39.4101 47.5101 40.1101 45.5001 41.1001C43.2301 42.2201 41.0901 43.5901 38.8901 44.8601C38.2901 45.2101 37.9601 45.7001 37.8001 46.2601L37.82 46.4101C37.76 46.8901 37.7101 47.3701 37.6701 47.8501C37.7001 50.8401 37.7601 53.8301 37.8101 56.8201C37.8201 57.6801 37.6301 57.9801 36.7501 58.0201C36.0201 58.0501 35.2901 58.0501 34.5601 58.0401C33.8301 58.0401 33.1 58.0401 32.37 58.0201C31.49 57.9801 31.3001 57.6801 31.3101 56.8201C31.3601 53.8301 31.41 50.8401 31.45 47.8501C31.41 47.3701 31.3601 46.8901 31.3001 46.4101L31.32 46.2601C31.16 45.7001 30.84 45.2101 30.23 44.8601C28.03 43.6001 25.89 42.2201 23.62 41.1001C21.6 40.1101 19.44 39.4101 17.36 38.5401C17.09 38.4201 16.7601 38.0201 16.7501 37.7501C16.7201 36.2301 16.7 34.7001 16.84 33.1901C16.93 32.1501 17.56 31.9001 18.57 32.2601C23.47 34.0301 28.1001 36.3301 32.3901 39.3001C32.7801 39.5701 33.14 39.7801 33.48 39.9201C33.5 39.9201 33.5201 39.9401 33.5401 39.9501C33.5801 39.9701 33.6201 39.9801 33.6701 40.0001C33.7201 40.0201 33.77 40.0401 33.82 40.0501C33.84 40.0501 33.8601 40.0601 33.8901 40.0701C33.9501 40.0901 34.02 40.1001 34.08 40.1201C34.1 40.1201 34.1201 40.1201 34.1401 40.1301C34.2001 40.1401 34.26 40.1501 34.32 40.1601C34.35 40.1601 34.3801 40.1601 34.4201 40.1601C34.4701 40.1601 34.5201 40.1601 34.5601 40.1601C34.6101 40.1601 34.66 40.1601 34.71 40.1601C34.74 40.1601 34.7701 40.1601 34.8101 40.1601C34.8701 40.1601 34.93 40.1401 34.99 40.1301C35.01 40.1301 35.0301 40.1301 35.0501 40.1201C35.1101 40.1101 35.18 40.0901 35.24 40.0701C35.26 40.0701 35.2801 40.0601 35.3101 40.0501C35.3601 40.0301 35.41 40.0201 35.46 40.0001C35.5 39.9801 35.54 39.9701 35.59 39.9501C35.61 39.9501 35.6301 39.9301 35.6501 39.9201C35.9901 39.7801 36.34 39.5701 36.74 39.3001C41.03 36.3301 45.6601 34.0301 50.5601 32.2601C51.5701 31.8901 52.1901 32.1501 52.2901 33.1901C52.4301 34.7001 52.4101 36.2301 52.3801 37.7501H52.37ZM53.0101 25.2201C52.9701 25.6801 52.9601 25.6801 52.9301 26.0501C52.8901 26.6101 52.4201 27.2101 51.8901 27.3801C48.3601 28.5501 45.65 29.3401 42.86 30.5001C39.88 31.7401 38.23 33.0801 35.6 34.3101C34.82 34.6701 34.1101 34.6901 33.3801 34.2601C29.6901 32.5601 29.49 31.9001 25.12 30.2401C22.47 29.2501 19.86 28.7201 17.82 27.9301C17.16 27.6701 16.8301 27.4601 16.6301 27.1301C16.4901 26.9101 16.4301 26.6401 16.4301 26.3801C16.3901 25.0101 16.3 24.6501 16.84 23.0901C17.68 20.6501 19.5901 19.0801 22.0301 18.2701C23.3301 17.8401 24.6801 17.5301 26.0201 17.2201C26.7301 17.0601 27.19 16.7001 27.59 16.0801C29.24 13.5501 31.48 12.1601 34.62 11.9801C37.75 11.8001 40.01 12.9701 41.7 15.4901C41.91 15.8001 42.1801 16.0701 42.4301 16.3601C43.0801 17.1301 43.8201 17.5801 44.9301 17.6001C47.2001 17.6501 49.2101 18.5101 50.8001 20.1701C52.5301 21.9701 53.2201 22.7801 53.0201 25.2301L53.0101 25.2201Z" fill="white"/>
</svg>
