<svg width="80" height="61" viewBox="0 0 80 61" fill="none" xmlns="http://www.w3.org/2000/svg">
<path d="M23.62 48.9599C23.62 55.3999 18.3799 60.6399 11.9399 60.6399C5.49994 60.6399 0.27002 55.3999 0.27002 48.9599C0.27002 43.5499 1.50995 35.8299 12.2 31.3499C18.98 28.5099 22.16 25.6399 23.66 23.5499L23.62 48.9599ZM11.98 24.1099C5.53998 24.1099 0.299988 18.8699 0.299988 12.4299C0.299988 5.98989 5.53998 0.749893 11.98 0.749893C18.42 0.749893 23.66 5.98989 23.66 12.4299C23.66 18.8699 18.42 24.1099 11.98 24.1099ZM39.62 60.6399C33.18 60.6399 27.9399 55.3999 27.9399 48.9699V12.3699C27.9299 7.93989 26.02 3.68989 22.77 0.699893L39.59 0.639893C46.06 0.639893 51.3 5.87989 51.3 12.3099V48.8999C51.31 53.3399 53.22 57.5799 56.46 60.5699L39.61 60.6299L39.62 60.6399ZM67.35 60.5199C60.91 60.5199 55.67 55.2799 55.67 48.8399C55.67 42.3999 60.91 37.1599 67.35 37.1599C73.79 37.1599 79.03 42.3999 79.03 48.8399C79.03 55.2799 73.79 60.5199 67.35 60.5199ZM67.14 29.9299C60.36 32.7699 57.1701 35.6399 55.6801 37.7299L55.72 12.3199C55.72 5.87989 60.96 0.639893 67.39 0.639893C73.82 0.639893 79.0699 5.87989 79.0699 12.3199C79.0699 17.7299 77.83 25.4499 67.14 29.9299Z" fill="white"/>
</svg>
