<svg width="64" height="61" viewBox="0 0 64 61" fill="none" xmlns="http://www.w3.org/2000/svg">
<path d="M18.5101 37.4501C18.2901 35.2601 18.1602 32.9701 18.1602 30.6101C18.1602 28.1301 18.2802 25.6601 18.5502 23.2801C18.6002 22.8701 18.2801 22.5101 17.8701 22.5101H5.72009C5.27009 22.5101 4.8601 22.8001 4.7301 23.2301C3.9701 25.6201 3.57007 28.1001 3.57007 30.6101C3.57007 32.9801 3.90014 35.2701 4.52014 37.4601C4.65014 37.9001 5.06014 38.2101 5.52014 38.2101H17.8301C18.2401 38.2101 18.5601 37.8601 18.5201 37.4501H18.5101ZM19.2001 42.2901C19.1401 41.9601 18.8601 41.7201 18.5201 41.7201H7.26013C6.73013 41.7201 6.40015 42.2901 6.65015 42.7501C10.1501 49.2001 16.3302 54.1501 23.8102 56.2701C24.1202 56.3601 24.3701 56.0101 24.1901 55.7501C21.9701 52.4801 20.2201 47.8201 19.2001 42.2901ZM7.34009 19.0501H18.6401C18.9701 19.0501 19.2502 18.8201 19.3102 18.5001C20.5002 12.8101 22.6901 7.91009 26.1901 4.81009C26.4601 4.57009 26.2401 4.1301 25.8801 4.2101C17.4301 6.1801 10.6501 11.5401 6.87012 18.2801C6.68012 18.6201 6.93008 19.0501 7.33008 19.0501H7.34009ZM56.7401 41.7001H45.4701C45.1401 41.7001 44.8502 41.9401 44.7902 42.2701C43.7602 47.8101 42.0202 52.4801 39.7902 55.7601C39.6102 56.0201 39.8602 56.3701 40.1702 56.2801C47.6602 54.1601 53.8501 49.2001 57.3401 42.7301C57.5901 42.2601 57.2601 41.7001 56.7301 41.7001H56.7401ZM58.3401 22.5401H46.1201C45.7101 22.5401 45.3901 22.8901 45.4401 23.3001C45.7001 25.6301 45.8401 28.0801 45.8401 30.6101C45.8401 32.9801 45.7201 35.2701 45.4901 37.4701C45.4501 37.8801 45.7602 38.2301 46.1802 38.2301H58.4901C58.9501 38.2301 59.3701 37.9301 59.4901 37.4801C60.1101 35.2801 60.4401 32.9801 60.4401 30.6001C60.4401 28.0501 60.0601 25.5901 59.3501 23.2601C59.2201 22.8301 58.8101 22.5301 58.3501 22.5301L58.3401 22.5401ZM32.0001 60.8801C14.4101 60.8801 0.100098 47.3001 0.100098 30.6101C0.100098 13.9201 14.4101 0.340088 32.0001 0.340088C37.1601 0.340088 42.2301 1.53009 46.7601 3.78009V7.70009C26.7801 -3.36991 21.6301 14.6301 21.6301 30.6101C21.6301 46.5901 27.0901 57.4101 32.0001 57.4101C36.9101 57.4101 42.3701 46.4001 42.3701 30.6101C42.3701 28.0901 42.2201 25.7001 41.9701 23.4501C41.9101 22.9301 41.4601 22.5401 40.9401 22.5401H32.7101C32.8701 21.3201 33.0602 20.1501 33.2802 19.0201H61.4701C63.0401 22.5901 63.9001 26.5101 63.9001 30.6101C63.9001 47.3001 49.5901 60.8801 32.0001 60.8801Z" fill="white"/>
</svg>
