<svg width="88" height="75" viewBox="0 0 88 75" fill="none" xmlns="http://www.w3.org/2000/svg">
<path d="M43.9301 74.7C43.9301 74.7 64.72 70.01 87.05 58.17V17.05C64.71 5.21002 43.9301 0.52002 43.9301 0.52002C43.9301 0.52002 23.1401 5.21002 0.810059 17.05V58.17C23.1501 70.01 43.9301 74.7 43.9301 74.7ZM43.9301 69.45C43.9301 69.45 25.9201 65.31 5.89008 55.05V20.16C25.9201 9.90002 43.9301 5.76001 43.9301 5.76001C43.9301 5.76001 61.9401 9.90002 81.9701 20.16V55.05C61.9401 65.31 43.9301 69.45 43.9301 69.45Z" fill="white"/>
<path d="M56.9801 34.5799C56.9801 34.5799 56.9301 34.5799 56.9001 34.5799V25.2499C55.8701 21.7999 50.0101 19.1799 43.9301 19.1799C37.8501 19.1799 31.9901 21.7999 30.9601 25.2499V37.7899C30.9601 38.5599 30.9601 39.3399 30.9601 40.1199C30.8501 40.1199 30.7401 40.1199 30.6301 40.1199C25.3101 40.1199 20.7401 38.6999 16.4401 36.2199V41.5499C20.8601 43.6499 25.4001 44.8399 30.6301 44.8399C30.7301 44.8399 30.8301 44.8399 30.9301 44.8399C30.9001 49.5099 30.8501 53.2499 30.8501 53.2499H35.9301C35.9301 53.2499 35.8801 49.2899 35.8401 44.4299C40.2801 43.6699 43.1201 42.0199 46.9401 40.7999C46.9401 39.7799 46.9401 38.7699 46.9401 37.7899C46.9401 37.3299 46.9401 36.7399 46.9401 36.0799C43.1101 37.3099 40.2701 38.9599 35.8201 39.7199C35.8201 39.0799 35.8201 38.4299 35.8201 37.7999C35.8201 34.8299 35.84 30.0599 35.86 26.2999C36.66 25.4599 39.9801 24.0599 43.9201 24.0599C47.8601 24.0599 51.1801 25.4599 51.9801 26.2999C52.0001 30.0599 52.0201 34.8299 52.0201 37.7999C52.0201 45.0799 51.9101 53.2599 51.9101 53.2599H56.9901C56.9901 53.2599 56.9001 46.1599 56.8801 39.3099C56.9101 39.3099 56.9301 39.3099 56.9601 39.3099C58.6201 39.3099 60.2101 39.4499 61.7501 39.7199C61.7501 39.0499 61.7501 36.0199 61.7501 34.9399C60.2101 34.7099 58.6201 34.5899 56.9601 34.5899L56.9801 34.5799Z" fill="white"/>
<path d="M66.8801 36.0698C66.8801 36.7598 66.8801 39.8898 66.8801 41.0498C68.4301 41.6398 69.9401 42.3598 71.4101 43.1998V37.8698C69.9201 37.1598 68.4101 36.5598 66.8801 36.0698Z" fill="white"/>
</svg>
