<svg width="51" height="71" viewBox="0 0 51 71" fill="none" xmlns="http://www.w3.org/2000/svg">
<path d="M5.11011 0.47998H8.27011V3.60998H11.1601V0.47998H14.3201V9.93998H11.1601V6.76998H8.27011V9.93998H5.11011V0.47998Z" fill="white"/>
<path d="M18.4901 3.61998H15.7101V0.47998H24.4401V3.61998H21.6501V9.94998H18.4901V3.61998Z" fill="white"/>
<path d="M25.8301 0.47998H29.1301L31.1601 3.80998L33.1901 0.47998H36.4901V9.93998H33.3401V5.24998L31.1601 8.60998H31.1101L28.9301 5.24998V9.93998H25.8401V0.47998H25.8301Z" fill="white"/>
<path d="M38.05 0.47998H41.21V6.81998H45.66V9.94998H38.05V0.47998Z" fill="white"/>
<path d="M17.18 37.0701H25.4V30.7001H16.6101L17.18 37.0701ZM0.550049 14.0901L5.07005 64.8401L25.38 70.4801L45.71 64.8401L50.2401 14.0901H0.550049ZM41.84 61.6101L25.4 66.1701V59.7101L12.65 56.1701L11.76 46.1801H18.01L18.47 51.3601L25.4 53.2301V43.2801H11.49L9.81005 24.4601H25.4V18.2401H45.71L41.84 61.6101Z" fill="white"/>
<path opacity="0.8" d="M33.06 43.29H25.4V53.24L32.34 51.37L33.06 43.3V43.29ZM25.4 18.24V24.46H40.99L40.43 30.68H25.4V37.05H39.86L38.15 56.16L25.39 59.7V66.16L41.83 61.6L45.7 18.23H25.39L25.4 18.24Z" fill="white"/>
<g opacity="0.2">
<path d="M25.4001 24.47H9.81006L11.4901 43.29H25.4001V37.07H17.1801L16.6101 30.69H25.4001V24.47Z" fill="white"/>
<path d="M25.4 53.2399H25.39L18.46 51.3699L18 46.1799H11.75L12.64 56.1799L25.39 59.7099H25.4V53.2399Z" fill="white"/>
</g>
</svg>
