<svg width="55" height="51" viewBox="0 0 55 51" fill="none" xmlns="http://www.w3.org/2000/svg">
<path d="M37.12 25.6101L51.56 0.610107L54.8 6.22011L43.61 25.6101L51.56 39.3801H45.08L37.12 25.6101Z" fill="white"/>
<path d="M17.67 25.6101L3.24 50.6101L0 45.0001L11.19 25.6101L3.24 11.8401H9.72L17.67 25.6101Z" fill="white"/>
<path d="M41.83 45.0001L30.64 25.6101L45.07 0.610107H38.59L33.88 8.77011L29.17 0.610107H22.69L30.64 14.3801L27.4 20.0001L16.21 0.610107H3.24L0 6.22011H12.97L24.16 25.6101L9.73 50.6101H16.21L20.92 42.4501L25.63 50.6101H32.11L24.16 36.8401L27.4 31.2201L38.59 50.6101H51.56L54.8 45.0001H41.83Z" fill="white"/>
</svg>
