<svg width="83" height="70" viewBox="0 0 83 70" fill="none" xmlns="http://www.w3.org/2000/svg">
<path d="M82.16 16.29L66.14 0.26001C66.14 0.26001 57.54 8.86002 56.3 10.1H50.94C49.7 8.86002 41.11 0.26001 41.11 0.26001L25.09 16.29L37.62 28.77C35.51 30.88 32.15 34.24 31.32 35.07H25.96C24.72 33.82 16.12 25.23 16.12 25.23L0.0999756 41.25L28.66 69.69L82.17 16.28L82.16 16.29ZM41.11 7.41002C43.37 9.68002 48.85 15.15 48.85 15.15H58.39C58.39 15.15 63.87 9.67002 66.13 7.41002C68.32 9.59002 72.82 14.1 75 16.28C72.16 19.12 56.46 34.78 53.63 37.6C50.79 34.78 35.07 19.12 32.23 16.28C34.41 14.09 38.92 9.59002 41.11 7.41002ZM28.65 62.57C25.8 59.74 10.09 44.09 7.23999 41.25C9.41999 39.07 13.93 34.56 16.11 32.38C18.37 34.65 23.85 40.12 23.85 40.12H33.4C33.4 40.12 38.88 34.65 41.15 32.38C43.32 34.56 47.82 39.05 50 41.23C47.16 44.07 31.48 59.74 28.65 62.57Z" fill="white"/>
</svg>
