<svg width="66" height="66" viewBox="0 0 66 66" fill="none" xmlns="http://www.w3.org/2000/svg">
<path d="M45.0499 28.0501L47.6299 21.8201C46.7299 20.6601 45.6899 19.6101 44.5099 18.7001L38.2699 21.2801L35.6899 15.0401C34.9599 14.9501 34.2299 14.9001 33.4899 14.9001C32.7499 14.9001 32.0099 14.9501 31.2799 15.0401L28.6899 21.2901L22.4399 18.7001C21.2899 19.6001 20.2399 20.6501 19.3299 21.8201L21.9199 28.0701L15.6799 30.6501C15.4999 32.1301 15.4999 33.6101 15.6799 35.0601L21.9099 37.6401L19.3299 43.8701C20.2299 45.0301 21.2699 46.0801 22.4499 47.0001L28.6899 44.4201L31.2699 50.6601C31.9999 50.7501 32.7299 50.8001 33.4699 50.8001C34.2099 50.8001 34.9499 50.7501 35.6799 50.6601L38.2699 44.4101L44.5299 47.0001C45.6799 46.1001 46.7199 45.0501 47.6299 43.8801L45.0399 37.6301L51.2799 35.0501C51.4599 33.5701 51.4599 32.0901 51.2799 30.6401L45.0399 28.0601L45.0499 28.0501ZM39.7199 39.0801L35.3099 37.2501L33.4799 41.6601L31.6499 37.2501L27.2399 39.0801L29.0699 34.6701L24.6599 32.8501L29.0599 31.0301L27.2299 26.6201L31.6399 28.4401L33.4699 24.0301L35.2999 28.4401L39.7099 26.6101L37.8799 31.0201L42.2899 32.8501L37.8799 34.6801L39.6999 39.0901L39.7199 39.0801Z" fill="white"/>
<path d="M65.99 31.1101C65.96 30.5601 65.92 30.0201 65.86 29.4801L64.26 27.9701L65.32 26.0401C65.21 25.5101 65.08 24.9801 64.94 24.4601L63.11 23.2201L63.86 21.1401C63.67 20.6401 63.46 20.1401 63.24 19.6501L61.24 18.7101L61.66 16.5401C61.39 16.0701 61.11 15.6101 60.81 15.1601L58.69 14.5401L58.76 12.3401C58.42 11.9201 58.07 11.5101 57.7 11.1001L55.51 10.8201L55.24 8.63008C54.84 8.27008 54.42 7.91008 54 7.57008L51.8 7.64008L51.19 5.52008C50.73 5.22008 50.27 4.94008 49.81 4.67008L47.64 5.08008L46.7 3.08008C46.21 2.86008 45.71 2.65008 45.2 2.46008L43.12 3.21008L41.88 1.38008C41.36 1.24008 40.83 1.11008 40.3 1.00008L38.37 2.06008L36.86 0.460078C36.32 0.400078 35.77 0.360078 35.23 0.330078L33.49 1.68008L31.75 0.330078C31.21 0.360078 30.66 0.400078 30.12 0.460078L28.61 2.06008L26.68 1.00008C26.15 1.11008 25.62 1.24008 25.1 1.38008L23.86 3.21008L21.78 2.46008C21.28 2.65008 20.78 2.86008 20.28 3.08008L19.34 5.08008L17.17 4.66008C16.7 4.93008 16.24 5.21008 15.79 5.51008L15.17 7.63008L12.97 7.56008C12.55 7.90008 12.14 8.26008 11.73 8.62008L11.45 10.8101L9.26996 11.0901C8.89996 11.5001 8.54996 11.9101 8.20996 12.3301L8.27997 14.5301L6.15997 15.1501C5.85997 15.6001 5.57997 16.0601 5.30997 16.5301L5.71997 18.7001L3.71997 19.6401C3.49997 20.1301 3.29998 20.6301 3.09998 21.1301L3.84998 23.2101L2.01996 24.4501C1.87996 24.9801 1.75998 25.5001 1.63998 26.0301L2.69998 27.9601L1.09998 29.4701C1.03998 30.0101 0.999971 30.5601 0.969971 31.1001L2.31998 32.8401L0.969971 34.5801C0.999971 35.1201 1.03998 35.6701 1.09998 36.2101L2.69998 37.7101L1.63998 39.6401C1.74998 40.1701 1.87996 40.7001 2.01996 41.2201L3.84998 42.4601L3.09998 44.5401C3.28998 45.0401 3.49997 45.5401 3.71997 46.0301L5.71997 46.9701L5.30997 49.1401C5.57997 49.6001 5.85997 50.0601 6.15997 50.5201L8.27997 51.1301L8.20996 53.3301C8.54996 53.7501 8.90996 54.1601 9.26996 54.5701L11.45 54.8501L11.73 57.0301C12.13 57.4001 12.55 57.7501 12.97 58.0901L15.17 58.0201L15.79 60.1401C16.24 60.4401 16.71 60.7201 17.17 60.9901L19.34 60.5701L20.28 62.5701C20.77 62.7901 21.28 63.0001 21.78 63.1901L23.86 62.4401L25.1 64.2701C25.63 64.4101 26.15 64.5401 26.68 64.6501L28.61 63.5901L30.11 65.1901C30.65 65.2501 31.2 65.2901 31.74 65.3201L33.47 63.9701L35.21 65.3201C35.75 65.2901 36.3 65.2501 36.84 65.1901L38.35 63.5801L40.28 64.6401C40.81 64.5301 41.34 64.4001 41.86 64.2601L43.1 62.4301L45.18 63.1801C45.68 62.9901 46.18 62.7801 46.68 62.5601L47.62 60.5601L49.79 60.9801C50.25 60.7101 50.71 60.4301 51.17 60.1301L51.78 58.0101L53.98 58.0801C54.4 57.7401 54.81 57.3801 55.22 57.0201L55.49 54.8401L57.67 54.5601C58.04 54.1601 58.39 53.7401 58.73 53.3201L58.66 51.1201L60.78 50.5101C61.08 50.0501 61.36 49.5901 61.63 49.1301L61.21 46.9601L63.21 46.0201C63.43 45.5301 63.64 45.0301 63.83 44.5301L63.08 42.4501L64.91 41.2101C65.05 40.6901 65.17 40.1601 65.29 39.6301L64.23 37.7001L65.83 36.2001C65.89 35.6601 65.93 35.1101 65.96 34.5701L64.61 32.8301L65.96 31.0901L65.99 31.1101ZM52.74 40.8201C49.5 48.6401 41.94 53.6901 33.48 53.6901C30.74 53.6901 28.06 53.1501 25.51 52.1001C14.89 47.7001 9.82998 35.4901 14.23 24.8701C17.47 17.0501 25.03 12.0001 33.49 12.0001C36.23 12.0001 38.91 12.5301 41.46 13.5901C52.08 17.9901 57.14 30.2001 52.74 40.8201Z" fill="white"/>
</svg>
