<svg width="89" height="45" viewBox="0 0 89 45" fill="none" xmlns="http://www.w3.org/2000/svg">
<path d="M65.4299 27.0499H81.4899L88.6299 0.399902H70.8599L64.2899 24.9199C63.9299 26.2699 62.7498 27.0499 61.5898 27.0499H47.7899C46.5799 27.0499 45.7698 26.3799 45.4698 25.2599L41.1898 9.2899L24.7299 25.7499C24.2599 26.2199 23.1798 26.1199 22.9598 25.2899L18.6699 9.27991H0.899902L5.65991 27.0499H21.5798C22.7898 27.0499 23.5999 27.7199 23.8999 28.8399L28.1799 44.8099L44.7399 28.2499C45.2599 27.7299 46.1699 27.9099 46.3599 28.5999L50.7098 44.8199H68.4799L64.1998 28.8599C63.9398 27.8999 64.4299 27.0599 65.4199 27.0599L65.4299 27.0499Z" fill="white"/>
</svg>
