<svg width="110" height="64" viewBox="0 0 110 64" fill="none" xmlns="http://www.w3.org/2000/svg">
<path d="M55.17 0.179932L0.72998 31.6099L55.17 63.0399L109.61 31.6099L55.17 0.179932Z" fill="#F6F6E6"/>
<path d="M73.6399 19.96C68.3899 21.58 63.9399 24.72 60.5799 29.05C58.2399 24.8 56.8599 19.63 56.6399 13.77H53.6799C53.4599 19.63 52.0799 24.81 49.7399 29.05C46.3799 24.72 41.9299 21.57 36.6799 19.96C35.7499 19.67 34.7899 19.43 33.8099 19.25V43.97C34.7899 43.78 35.7499 43.54 36.6799 43.26C41.9299 41.64 46.3799 38.5 49.7399 34.17C52.0799 38.42 53.4599 43.59 53.6799 49.45H56.6399C56.8599 43.59 58.2399 38.41 60.5799 34.17C63.9399 38.5 68.3899 41.65 73.6399 43.26C74.5699 43.55 75.5299 43.79 76.5099 43.97V19.25C75.5299 19.44 74.5699 19.68 73.6399 19.96ZM36.6899 40.26V22.95C41.3699 24.55 45.2699 27.54 48.1599 31.61C45.2699 35.68 41.3799 38.66 36.6899 40.27V40.26ZM55.1699 40.08C54.3099 36.97 53.0599 34.14 51.4999 31.61C53.0599 29.08 54.3099 26.25 55.1699 23.14C56.0299 26.25 57.2799 29.08 58.8399 31.61C57.2799 34.14 56.0299 36.97 55.1699 40.08ZM73.6399 40.26C68.9599 38.66 65.0599 35.67 62.1699 31.6C65.0599 27.53 68.9499 24.55 73.6399 22.94V40.25V40.26Z" fill="#494949"/>
</svg>
