<svg width="55" height="55" viewBox="0 0 55 55" fill="none" xmlns="http://www.w3.org/2000/svg">
<path d="M39.1801 37.8099L40.73 37.8999C46.72 37.8999 51.6301 33.2999 51.6301 27.5899C51.6301 21.8799 46.73 17.2899 40.73 17.2899L39.2101 17.3899C41.4101 15.7699 44.1301 14.9299 46.8701 15.0099C49.5901 15.0799 52.22 16.1799 54.17 18.0399C53.03 15.0899 50.6701 12.6799 47.7001 11.5099L45.5701 10.8699L44.47 10.7399H44.2101L44.1201 10.5399L44.05 9.8999C43.86 8.4099 43.3601 6.97991 42.5901 5.63991C41.3001 3.40991 39.22 1.61991 36.79 0.659912C38.68 2.61991 39.72 5.25992 39.86 7.95992C39.93 10.6899 39.0601 13.4099 37.4301 15.6199L37.5201 14.0999C37.5201 8.07991 32.92 3.1799 27.22 3.1799C21.52 3.1799 16.9001 8.06991 16.9001 14.0999L17.0201 15.5999C15.3901 13.4099 14.5301 10.6899 14.6301 7.95992C14.7101 5.25992 15.79 2.61991 17.66 0.659912C14.72 1.77991 12.3001 4.16991 11.1401 7.12991L10.5001 9.2899L10.36 10.3599V10.5999L10.17 10.7399L9.52008 10.7699C8.04008 10.9899 6.58008 11.4599 5.27008 12.2199C3.01008 13.5199 1.24005 15.6099 0.300049 18.0399C2.26005 16.1799 4.89009 15.0899 7.59009 15.0099C10.3201 14.9299 13.04 15.7599 15.23 17.4099L13.72 17.2899C7.72003 17.2899 2.82007 21.9099 2.82007 27.5899C2.82007 33.2699 7.71003 37.8999 13.72 37.8999L15.23 37.8199C13.05 39.4299 10.3301 40.3199 7.59009 40.2199C4.89009 40.1399 2.26005 39.0399 0.300049 37.1499C1.44005 40.1399 3.80004 42.5299 6.73004 43.7099L8.91003 44.3299L9.97003 44.4599L10.2401 44.4999L10.36 44.6599L10.4001 45.2999C10.6001 46.8199 11.0901 48.2699 11.8301 49.5599C13.1601 51.8299 15.22 53.5799 17.66 54.5399C15.79 52.5899 14.7201 49.9299 14.6301 47.2599C14.5301 44.5199 15.4 41.7899 17.04 39.5899L16.91 41.0799C16.91 47.1099 21.5301 51.9999 27.2401 51.9999C32.9501 51.9999 37.54 47.1199 37.54 41.0799L37.4401 39.6099C39.0501 41.7799 39.93 44.5099 39.86 47.2599C39.73 49.9299 38.68 52.5899 36.79 54.5399C40.95 52.9299 43.8801 48.9599 44.1201 44.4999C48.5801 44.2399 52.56 41.3299 54.17 37.1499C52.22 39.0399 49.5901 40.1399 46.8701 40.2199C44.1301 40.3199 41.4001 39.4399 39.1801 37.8099ZM37.2401 34.0099C37.4901 32.6399 37.0901 31.1299 36.0001 30.0299C34.2501 28.3099 31.43 28.3099 29.67 30.0299C27.93 31.7999 27.93 34.6399 29.67 36.3999C30.74 37.4899 32.2401 37.8799 33.6301 37.6299L33.9401 39.7899C33.9401 43.8499 30.93 47.1599 27.23 47.1599C23.53 47.1599 20.4901 43.8499 20.4901 39.7899L20.8101 37.5999C22.2001 37.8299 23.7201 37.4299 24.7801 36.3499C26.5401 34.5999 26.5401 31.7799 24.7801 30.0299C23.0501 28.2799 20.22 28.2799 18.47 30.0299C17.39 31.1299 16.95 32.6199 17.23 34.0099L15.0101 34.3099C10.9501 34.3099 7.67004 31.3299 7.67004 27.5899L7.98004 25.6699L8.07007 25.3999L8.18005 25.1299L8.34009 24.7799L8.45007 24.6099L8.64008 24.2499L8.76007 24.0399L8.97003 23.7899C10.29 22.0199 12.4901 20.8899 14.9901 20.8899L17.17 21.1799C16.92 22.5799 17.3201 24.0899 18.4001 25.1599C20.1501 26.9099 22.99 26.9099 24.73 25.1599C26.47 23.4199 26.47 20.5699 24.73 18.8399C23.66 17.7499 22.1701 17.3599 20.7701 17.5999L20.47 15.3999C20.47 12.6599 21.8501 10.2699 23.8901 8.9799L24.0001 8.91991L24.5201 8.66991L24.8401 8.5399L25.0701 8.43991L25.36 8.31992L25.67 8.26991L25.8901 8.21991L27.17 8.09991C30.89 8.09991 33.9001 11.3699 33.9001 15.4099L33.5601 17.6399C32.1901 17.3699 30.6801 17.7899 29.5801 18.8499C27.8201 20.6299 27.8201 23.4499 29.5801 25.1999C31.3301 26.9599 34.16 26.9599 35.92 25.1999C37.02 24.0999 37.43 22.5899 37.16 21.1899L39.3701 20.8899C42.6401 20.8899 45.43 22.8499 46.36 25.5599L46.42 25.7399L46.55 26.1699L46.5701 26.3299L46.72 27.6099C46.72 31.3199 43.4301 34.3199 39.3701 34.3199L37.1901 34.0299L37.2401 34.0099Z" fill="white"/>
</svg>
