<svg width="66" height="71" viewBox="0 0 66 71" fill="none" xmlns="http://www.w3.org/2000/svg">
<path d="M64.4999 12.98C64.2099 12.69 57.2599 5.92997 45.9199 2.49997C39.2299 0.479968 32.4099 0.0399684 25.6399 1.18997C17.2299 2.62997 8.9099 6.53997 0.899902 12.83L0.149902 13.42V36.58C0.149902 47.04 5.90987 56.55 15.1799 61.4L32.7099 70.56L49.9099 61.7C59.2699 56.88 65.0799 47.34 65.0799 36.81V13.56L64.4899 12.98H64.4999ZM61.1599 15.25V22.87C57.8599 23.47 54.8099 24.21 52.0099 25.02C49.1199 18.06 42.5999 12.98 34.8199 12.16V4.52997C38.1099 4.67997 41.3799 5.23997 44.6299 6.19997C53.3099 8.78997 59.3299 13.63 61.1599 15.23V15.25ZM49.6599 33.04C49.6599 42.44 42.0099 50.09 32.6099 50.09C25.1699 50.09 18.8299 45.3 16.5099 38.64C19.8299 35.89 24.0299 33.11 29.7699 30.16C28.9299 32.23 27.9599 34.9 27.0299 38.11L25.1099 44.74L30.2399 40.12C30.2399 40.12 33.0699 37.59 38.5299 34.68C41.2099 33.25 44.8499 31.56 49.3799 30C49.5599 30.99 49.6599 32 49.6599 33.04ZM32.6999 33.49C34.2699 29.29 35.5799 26.97 35.5899 26.94L38.6499 21.59L33.0599 24.18C25.3899 27.73 19.8699 31.07 15.6199 34.34C15.5899 33.91 15.5699 33.48 15.5699 33.04C15.5699 23.64 23.2199 15.99 32.6199 15.99C39.5899 15.99 45.5999 20.2 48.2399 26.21C41.3199 28.57 36.1399 31.33 32.7099 33.49H32.6999ZM4.0899 15.34C11.2999 9.82997 18.7399 6.37997 26.1999 5.07997C27.7599 4.80997 29.3199 4.62997 30.8799 4.54997V12.12C20.1099 13 11.6199 22.04 11.6199 33.03C11.6199 34.49 11.7699 35.92 12.0599 37.3C9.41988 39.71 7.32988 42.1 5.43988 44.54C4.55988 42.02 4.0899 39.33 4.0899 36.57V15.33V15.34ZM7.29987 48.61C9.11987 46.15 11.0199 43.79 13.3899 41.46C16.4199 48.35 23.0499 53.31 30.8799 53.95V65.16L17.0099 57.91C12.8699 55.75 9.53988 52.5 7.30988 48.61H7.29987ZM48.1199 58.2L34.8199 65.05V53.91C45.3599 52.8 53.5999 43.87 53.5999 33.04C53.5999 31.59 53.4499 30.17 53.1699 28.8C55.6199 28.09 58.2899 27.43 61.1599 26.88V36.81C61.1599 45.86 56.1599 54.06 48.1199 58.2Z" fill="white"/>
</svg>
