<svg width="85" height="66" viewBox="0 0 85 66" fill="none" xmlns="http://www.w3.org/2000/svg">
<path d="M83.6499 43.31H80.3599C61.1999 43.31 78.1299 16.2 62.8899 16.2C54.5399 16.2 46.45 34.93 42.53 34.93C38.61 34.93 30.5199 16.2 22.1699 16.2C6.93991 16.2 23.8599 43.31 4.69994 43.31H1.40993C0.959929 43.31 0.839931 43.65 0.849931 43.99V49.2299C0.849931 49.5599 0.959929 49.91 1.40993 49.91H4.69994C15.5499 49.91 21.1699 44.05 21.1699 29.34C21.1699 27.16 20.9799 23.2199 22.6899 23.2199C26.5799 23.2199 34.5399 41.5499 42.5399 41.5499C50.5399 41.5499 58.4999 23.2199 62.3899 23.2199C64.0999 23.2199 63.9099 27.16 63.9099 29.34C63.9099 44.05 69.5299 49.91 80.3799 49.91H83.6699C84.1199 49.91 84.2399 49.5699 84.2299 49.2299V43.99C84.2299 43.66 84.1199 43.31 83.6699 43.31H83.6499Z" fill="white"/>
<path d="M7.43997 29.5999V26.7599C7.43997 15.0299 12.1 7.37992 21.3 7.37992C30.5 7.37992 34.76 20.5499 42.53 20.5499C50.3 20.5499 54.76 7.37992 63.76 7.37992C72.76 7.37992 77.62 15.0299 77.62 26.7599V29.5999C77.62 32.6399 78.77 35.0699 84.21 34.1499V26.7599C84.21 10.7999 76.83 0.419922 63.76 0.419922C52.09 0.419922 46.31 13.2499 42.53 13.2499C38.75 13.2499 32.97 0.419922 21.3 0.419922C8.22996 0.419922 0.849976 10.7999 0.849976 26.7599V34.1499C6.28998 35.0699 7.43997 32.6399 7.43997 29.5999Z" fill="white"/>
<path d="M83.6499 58.83H77.2999C63.9199 58.83 59.3499 52.39 59.3499 42.56V37.78C59.3499 37.13 58.7499 36.9 58.2999 37.41L43.1099 54.84C42.7499 55.25 42.3099 55.26 41.9399 54.84L26.7499 37.41C26.2999 36.9 25.6999 37.13 25.6999 37.78V42.56C25.6999 52.39 21.1299 58.83 7.74993 58.83H1.39992C0.949919 58.83 0.829921 59.17 0.839921 59.51V64.75C0.839921 65.08 0.949919 65.42 1.39992 65.43H8.29991C20.4799 65.43 27.4699 60.33 30.3099 52.43H30.3199C30.4699 52.01 30.7799 52.08 30.9699 52.29L41.9299 64.86C42.2999 65.28 42.7699 65.27 43.1299 64.86L54.09 52.29C54.28 52.07 54.5899 52.01 54.7399 52.43H54.7499C57.5899 60.32 64.5699 65.42 76.7599 65.42H83.6599C84.1099 65.42 84.2299 65.07 84.2199 64.74V59.5C84.2199 59.17 84.1099 58.83 83.6599 58.82L83.6499 58.83Z" fill="white"/>
</svg>
