<svg width="72" height="66" viewBox="0 0 72 66" fill="none" xmlns="http://www.w3.org/2000/svg">
<path d="M36.8101 9.70003L48.9901 30.8H71.0601C70.8101 29.68 70.4001 28.59 69.8101 27.57L57.6201 6.46003C55.5901 2.95003 51.8101 0.780029 47.7501 0.780029H23.3901C19.3401 0.780029 15.5601 2.96003 13.5101 6.48003L1.34009 27.56C0.750088 28.58 0.330088 29.67 0.0900879 30.8H22.16L34.3401 9.70003C34.8901 8.75003 36.25 8.75003 36.8 9.70003H36.8101Z" fill="white"/>
<path d="M27.0201 44.1599H4.33008L7.24005 49.1999H29.9301L27.0201 44.1599Z" fill="white"/>
<path d="M31.8301 52.5H9.15015L12.0501 57.54H34.7401L31.8301 52.5Z" fill="white"/>
<path d="M22.16 35.76H0.0900879C0.340088 36.88 0.750088 37.97 1.34009 38.99L2.42004 40.87H25.11L22.16 35.77V35.76Z" fill="white"/>
<path d="M46.04 40.86H68.72L69.8 38.98C70.39 37.96 70.8 36.87 71.05 35.75H48.98L46.03 40.85L46.04 40.86Z" fill="white"/>
<path d="M41.23 49.1999H63.92L66.82 44.1599H44.14L41.23 49.1999Z" fill="white"/>
<path d="M36.42 57.54H59.1L62.0101 52.5H39.3301L36.42 57.54Z" fill="white"/>
<path d="M23.4 65.7801H47.76C51.51 65.7801 55.02 63.9101 57.15 60.8401H14.01C16.12 63.9101 19.65 65.7801 23.4 65.7801Z" fill="white"/>
</svg>
