<svg width="111" height="49" viewBox="0 0 111 49" fill="none" xmlns="http://www.w3.org/2000/svg">
<path d="M75.5699 12.95C68.8399 12.95 64.0799 14.46 59.4199 17.1C65.8699 25.75 70.4699 38.63 72.1699 48.34C72.1999 48.49 72.2 48.45 72.2 48.38C72.28 48.33 72.37 48.28 72.45 48.22C72.96 47.89 73.4799 47.5699 74.0099 47.2599C74.0699 47.2199 74.14 47.1899 74.2 47.1499C79.29 44.2499 85.1599 42.59 91.4399 42.59C98.5499 42.59 104.9 44.68 110.68 48.38C108.37 34.65 96.2499 12.96 75.5599 12.96L75.5699 12.95ZM62.28 17.8999C66.01 15.9699 70.4899 14.8399 76.7899 15.2299C71.3399 15.4599 66.0299 17.07 62.9299 18.85C62.7099 18.53 62.5 18.2099 62.27 17.8999H62.28ZM63.7299 20.06C66.8499 18.6 70.6999 17.3999 76.3799 17.5399C71.8899 17.8799 67.2599 19.4199 64.3199 21.0099C64.1299 20.6899 63.9299 20.37 63.7299 20.06ZM65.0999 22.32C67.4699 21.06 71.2699 20.0199 76.2299 19.8999C71.8699 20.4299 67.7899 22.0399 65.6299 23.2599C65.4599 22.9499 65.2799 22.63 65.0999 22.32ZM66.3199 24.55C68.6599 23.44 72.05 22.5399 76.33 22.2899C72.56 22.8799 69.0499 24.27 66.7899 25.47C66.6299 25.16 66.4799 24.86 66.3199 24.55ZM67.4699 26.85C69.7399 25.83 72.86 24.9999 76.71 24.6799C73.3 25.2999 70.12 26.58 67.9 27.75C67.76 27.45 67.6199 27.15 67.4799 26.85H67.4699ZM68.5499 29.19C70.8399 28 74.0999 27.21 77.3599 27.05C75.2199 27.47 71.41 28.77 68.96 30.13C68.83 29.82 68.6899 29.5 68.5499 29.19ZM69.5499 31.56C71.8599 30.39 75.13 29.5399 78.28 29.3699C76.19 29.7799 72.4199 31.14 69.9199 32.5C69.7999 32.18 69.6699 31.87 69.5399 31.55L69.5499 31.56ZM70.4699 33.9299C72.8299 32.7199 76.2799 31.84 79.4899 31.66C77.2699 32.11 73.27 33.51 70.84 34.94C70.72 34.6 70.5999 34.2699 70.4699 33.9299ZM71.3499 36.41C73.6499 35.2 77.4799 34.0499 80.9899 33.8999C78.5599 34.3499 74.7799 35.69 71.7199 37.53C71.5999 37.16 71.4799 36.79 71.3499 36.41ZM72.14 38.88C74.47 37.6 79.1199 36.25 82.7999 36.09C80.2699 36.56 75.6399 38.0899 72.4899 40.0399C72.3799 39.6599 72.26 39.27 72.14 38.88ZM72.8699 41.39C75.5699 39.94 81.1799 38.23 84.9899 38.25C82.5999 38.6 75.95 40.86 73.15 42.41C73.06 42.07 72.9699 41.73 72.8799 41.39H72.8699ZM73.78 45C73.7 44.66 73.6199 44.31 73.5399 43.96C76.9899 42.04 83.87 40.2199 87.65 40.3999C85.14 40.6399 76.54 43.51 73.78 45Z" fill="white"/>
<path d="M21.93 0.790024C14.09 0.790024 6.79996 3.14003 0.709961 7.16003C8.76996 17.61 15.82 33.38 19.81 48.3C26.42 43.92 34.34 41.36 42.86 41.36C51.38 41.36 59.36 43.95 65.99 48.36C65.99 48.36 58.93 0.780029 21.93 0.780029V0.790024ZM3.95996 7.72003C11.58 3.51003 19.25 2.85003 23.16 3.17003C19.48 3.52003 11.46 4.92003 4.59998 8.61003C4.38998 8.31003 4.17997 8.01003 3.96997 7.72003H3.95996ZM5.46997 9.88004C12.51 6.12004 19.43 5.39003 23.1 5.59003C19.67 6.01003 12.51 7.44003 6.06998 10.8C5.86998 10.49 5.66996 10.19 5.45996 9.89003L5.46997 9.88004ZM6.91998 12.12C13.38 8.77003 19.63 7.95003 23.07 8.03003C19.88 8.52003 13.49 9.98003 7.49997 13.06C7.30997 12.74 7.10998 12.43 6.91998 12.12ZM8.34998 14.47C14.35 11.23 20.04 10.42 23.26 10.51C20.3 11.03 14.56 12.5 8.95996 15.52C8.75996 15.17 8.55998 14.82 8.34998 14.47ZM9.57996 16.62C15.24 13.69 20.54 12.91 23.61 12.96C20.8 13.48 15.47 14.89 10.16 17.67C9.96997 17.32 9.77996 16.97 9.57996 16.62ZM10.87 18.99C16.2 16.27 21.16 15.46 24.1 15.45C21.42 16 16.45 17.4 11.42 20.05C11.24 19.69 11.05 19.34 10.87 18.99ZM12.07 21.34C17.2 18.75 21.95 17.94 24.8 17.91C22.2 18.47 17.45 19.85 12.59 22.41C12.42 22.05 12.24 21.7 12.07 21.35V21.34ZM13.25 23.77C18.25 21.24 22.87 20.41 25.67 20.35C23.12 20.93 18.5 22.32 13.75 24.85C13.58 24.49 13.42 24.13 13.25 23.77ZM14.35 26.16C19.33 23.64 23.9399 22.82 26.7299 22.76C24.1799 23.34 19.57 24.73 14.83 27.25C14.67 26.89 14.51 26.52 14.35 26.16ZM15.4 28.59C20.45 26.02 25.13 25.2 27.95 25.14C25.37 25.71 20.67 27.12 15.86 29.68C15.71 29.31 15.56 28.95 15.4 28.58V28.59ZM16.43 31.08C21.66 28.37 26.53 27.52 29.43 27.48C26.77 28.06 21.85 29.51 16.87 32.2C16.72 31.83 16.58 31.46 16.43 31.09V31.08ZM17.4 33.56C22.92 30.65 28.09 29.81 31.11 29.81C28.32 30.37 23.06 31.85 17.82 34.7C17.68 34.32 17.54 33.94 17.39 33.56H17.4ZM18.34 36.1C24.2 32.92 29.7499 32.08 32.9099 32.13C29.9699 32.68 24.28 34.2 18.74 37.25C18.61 36.87 18.47 36.48 18.33 36.1H18.34ZM19.61 39.8C19.48 39.41 19.35 39.03 19.22 38.64C25.59 35.09 31.68 34.29 35.05 34.42C31.9 34.92 25.58 36.46 19.61 39.8ZM20.07 41.23C27.04 37.18 33.7999 36.44 37.4099 36.69C33.9999 37.14 26.89 38.67 20.44 42.39C20.32 42 20.2 41.61 20.08 41.23H20.07ZM21.19 44.94C21.08 44.55 20.97 44.17 20.85 43.78C28.62 39.25 36.31 38.59 40.12 39.01C36.47 39.33 28.16 40.87 21.19 44.94Z" fill="white"/>
</svg>
