<?xml version="1.0" encoding="utf-8"?>
<!-- Generator: Adobe Illustrator 23.0.1, SVG Export Plug-In . SVG Version: 6.00 Build 0)  -->
<svg version="1.1" id="Layer_1" xmlns="http://www.w3.org/2000/svg" xmlns:xlink="http://www.w3.org/1999/xlink" x="0px" y="0px"
	 viewBox="0 0 152 152" style="enable-background:new 0 0 152 152;" xml:space="preserve">
<style type="text/css">
	.st0{fill:#18374B;}
	.st1{fill:#FFFFFF;}
	.st2{clip-path:url(#SVGID_6_);fill:#0D2735;}
	.st3{clip-path:url(#SVGID_6_);}
	.st4{fill:#D3B162;}
	.st5{fill:#7DCFE7;}
	.st6{fill:#081B36;}
	.st7{clip-path:url(#SVGID_12_);}
	.st8{fill:#EF5A2B;}
	.st9{fill:#FFDE09;}
</style>
<g>
	<path class="st1" d="M76,1C34.64,1,1,34.65,1,76s33.64,75,75,75c41.36,0,75-33.64,75-75S117.35,1,76,1z M76,11.01
		c35.84,0,65,29.16,65,64.99c0,4.3-0.43,8.51-1.23,12.58l-59.9-59.9L52.39,56.16L28.22,31.99C40.11,19.1,57.12,11.01,76,11.01z
		 M11.13,72.13c0.92,0.3,1.81,0.6,2.68,0.93l3.52-9.37c-1.53-0.58-3.13-1.11-4.8-1.62c1.76-8.05,5.01-15.54,9.46-22.18l30.41,30.4
		l27.48-27.47l56.04,56.04H15.17C12.48,91.75,11,84.05,11,76C11,74.7,11.05,73.41,11.13,72.13z M76,140.99
		c-23.85,0-44.73-12.92-56.03-32.12h112.07C120.73,128.07,99.85,140.99,76,140.99z"/>
	<path class="st1" d="M72.19,86l-4.73-8.81c-2.74,1.45-5.33,2.82-8.12,3.62l2.76,9.62C65.89,89.33,69.06,87.65,72.19,86z"/>
	<path class="st1" d="M87.8,82.18l0.28,0.05l1.55-9.89c-4.13-0.76-7.99-0.61-11.92,0.43l2.57,9.67
		C82.78,81.77,85.19,81.69,87.8,82.18z"/>
	<path class="st1" d="M29.7,82.51l5.97-8.03c-0.52-0.39-1.04-0.77-1.56-1.17c-2.08-1.57-4.24-3.2-6.96-4.87l-5.21,8.54
		c2.3,1.4,4.25,2.88,6.14,4.3C28.62,81.7,29.16,82.11,29.7,82.51z"/>
	<path class="st1" d="M50.15,91.27l1.34-9.91c-0.71-0.1-1.44-0.23-2.19-0.4c-2.27-0.53-4.27-1.16-6.11-1.95l-3.93,9.2
		c2.38,1.02,4.93,1.84,7.79,2.5C48.1,90.94,49.14,91.13,50.15,91.27z"/>
	<polygon class="st1" points="102.86,91.27 105.94,77.29 88.89,88.19 	"/>
</g>
</svg>
