<?xml version="1.0" encoding="utf-8"?>
<!-- Generator: Adobe Illustrator 23.0.1, SVG Export Plug-In . SVG Version: 6.00 Build 0)  -->
<svg version="1.1" id="Layer_1" xmlns="http://www.w3.org/2000/svg" xmlns:xlink="http://www.w3.org/1999/xlink" x="0px" y="0px"
	 viewBox="0 0 323 534" style="enable-background:new 0 0 323 534;" xml:space="preserve">
<style type="text/css">
	.st0{fill:#7DCFE7;}
	.st1{fill:#FFFFFF;}
	.st2{fill:#081B36;}
</style>
<g>
	<path class="st0" d="M297.31,265.11c0,1.32-1.23,1.8-2.06,0.57L194.67,108.02v0.01c-0.91-1.43-2.15-1.51-3.07-0.3l-30.06,47.1
		c-0.96,1.5-2.31,1.52-3.28,0.02L92.65,52.02c-0.97-1.45-2.28-1.43-3.19-0.02l-61.71,96.73c-0.81,1.22-2.07,0.72-2.07-0.61V27.36
		c0-1.12,0.94-2.05,2.07-2.05h267.5c1.15,0,2.06,0.93,2.06,2.05V265.11z"/>
	<path class="st1" d="M297.31,506.64c0,1.12-0.91,2.04-2.06,2.04H27.75c-1.13,0-2.07-0.91-2.07-2.04V373.28
		c0-0.74,0.6-1.59,1.68-1.51c39.09,5.25,83.78,30.67,127.15,55.37c46.93,26.75,95.33,54.29,140.84,59.31l0,0
		c1.24,0.15,1.96,0.9,1.96,2.03V506.64z"/>
	<path class="st1" d="M297.31,459.54c0,1.1-0.75,2.15-1.97,2.06c-39.77-5.32-84.86-30.99-128.61-55.92
		c-46.41-26.43-94.27-53.64-138.98-58.74l0,0c-1.28-0.15-2.07-0.91-2.07-2.08v-69.25c0-1.12,0.94-2.03,2.07-2.03h99.42l0,0
		c1.69,0,2.9,0.36,4.01,1.35l164.2,143.01c1.04,0.92,1.93,1.99,1.93,4.14V459.54z"/>
	<path class="st1" d="M297.31,383.67c0,2.04-1.19,2.15-2.37,1.12L140.45,250.2c-1.15-0.96-2.37-1.35-4.06-1.35H27.75
		c-1.13,0-2.07-0.91-2.07-2.04v-45.63c0-2.59,0.28-3.87,1.56-5.78L89.4,97.99c0.96-1.48,2.32-1.53,3.28,0l65.56,102.77
		c0.97,1.53,2.34,1.51,3.29,0l0,0l30.05-47.06c0.94-1.25,2.16-1.19,3.09,0.23v-0.01l101.2,158.6c1.18,1.81,1.44,3.1,1.44,5.64
		V383.67z"/>
	<g>
		<path class="st1" d="M238.41,25.31h-4.44c0.12,0.1,0.18,0.18,0.29,0.26C235.58,26.39,237.26,26.26,238.41,25.31z"/>
		<path class="st1" d="M264.23,40.43c1.06-1.65,0.59-3.87-1.07-4.94c-1.68-1.04-3.9-0.57-4.94,1.11c-1.07,1.64-0.6,3.87,1.09,4.92
			C260.97,42.58,263.17,42.1,264.23,40.43z"/>
		<path class="st1" d="M235.38,134.22c1.68,1.05,3.88,0.57,4.94-1.08c1.04-1.68,0.56-3.88-1.07-4.93c-1.68-1.09-3.88-0.59-4.94,1.07
			C233.23,130.96,233.7,133.17,235.38,134.22z"/>
		<path class="st1" d="M213.57,30.37c1.69,1.05,3.9,0.55,4.96-1.1c0.79-1.26,0.72-2.8-0.06-3.96h-5.9c-0.01,0.05-0.04,0.07-0.06,0.1
			C211.45,27.1,211.94,29.29,213.57,30.37z"/>
		<path class="st1" d="M255.5,75.11c1.68,1.04,3.88,0.57,4.96-1.12c1.04-1.67,0.56-3.88-1.12-4.93c-1.66-1.07-3.87-0.58-4.93,1.09
			C253.35,71.82,253.84,74.02,255.5,75.11z"/>
		<path class="st1" d="M247.92,66c1.06-1.65,0.57-3.85-1.09-4.94c-1.66-1.04-3.87-0.57-4.96,1.11c-1.04,1.66-0.56,3.87,1.12,4.93
			C244.66,68.16,246.88,67.68,247.92,66z"/>
		<path class="st1" d="M251.72,32.46c1.07-1.68,0.57-3.89-1.09-4.96c-1.68-1.04-3.88-0.54-4.94,1.11c-1.06,1.68-0.57,3.87,1.09,4.92
			C248.45,34.61,250.66,34.11,251.72,32.46z"/>
		<path class="st1" d="M251.14,54.32c1.66,1.05,3.88,0.56,4.93-1.1c1.06-1.68,0.57-3.89-1.07-4.94c-1.68-1.06-3.88-0.57-4.94,1.09
			C248.98,51.05,249.47,53.24,251.14,54.32z"/>
		<path class="st1" d="M126.53,28.82c1.66,1.07,3.88,0.59,4.94-1.09c0.48-0.75,0.62-1.59,0.5-2.42h-7.06
			C124.74,26.66,125.31,28.05,126.53,28.82z"/>
		<path class="st1" d="M27,123.02c-1.06,1.68-0.59,3.88,1.09,4.94c1.66,1.07,3.88,0.57,4.94-1.09c1.06-1.68,0.57-3.88-1.09-4.96
			C30.27,120.87,28.07,121.36,27,123.02z"/>
		<path class="st1" d="M219.64,137.96c1.06-1.68,0.57-3.9-1.07-4.96c-1.68-1.07-3.88-0.55-4.96,1.09c-0.59,0.96-0.68,2.06-0.37,3.03
			l0.97,1.53c0.16,0.16,0.31,0.29,0.5,0.37C216.39,140.11,218.6,139.6,219.64,137.96z"/>
		<path class="st1" d="M232.17,145.91c1.04-1.64,0.57-3.87-1.07-4.92c-1.68-1.07-3.9-0.59-4.97,1.08c-1.06,1.67-0.57,3.88,1.1,4.94
			C228.91,148.06,231.11,147.59,232.17,145.91z"/>
		<path class="st1" d="M97.59,25.31h-4.63c0.12,0.13,0.25,0.22,0.4,0.34C94.72,26.52,96.43,26.32,97.59,25.31z"/>
		<path class="st1" d="M235.95,112.37c1.09-1.68,0.59-3.88-1.07-4.96c-1.68-1.05-3.88-0.58-4.94,1.1c-1.07,1.68-0.56,3.89,1.07,4.93
			C232.7,114.52,234.91,114.03,235.95,112.37z"/>
		<path class="st1" d="M35.74,88.37c-1.68-1.04-3.88-0.57-4.94,1.1c-1.06,1.65-0.57,3.86,1.09,4.94c1.66,1.05,3.88,0.57,4.94-1.1
			C37.9,91.65,37.4,89.42,35.74,88.37z"/>
		<path class="st1" d="M75.94,46.28c-1.06,1.68-0.59,3.9,1.09,4.94c1.68,1.07,3.88,0.57,4.94-1.09c1.09-1.68,0.56-3.87-1.09-4.96
			C79.21,44.13,77,44.62,75.94,46.28z"/>
		<path class="st1" d="M40.1,109.14c-1.66-1.04-3.88-0.57-4.94,1.11c-1.07,1.64-0.59,3.85,1.09,4.93c1.66,1.05,3.87,0.58,4.94-1.1
			C42.25,112.42,41.77,110.19,40.1,109.14z"/>
		<path class="st1" d="M180.39,27.19c1.68,1.05,3.88,0.57,4.94-1.1c0.16-0.25,0.28-0.5,0.37-0.78h-6.74
			C179.21,26.07,179.7,26.73,180.39,27.19z"/>
		<path class="st1" d="M221.2,66.97c-1.04,1.66-0.56,3.9,1.12,4.94c1.68,1.05,3.87,0.57,4.94-1.1c1.04-1.66,0.56-3.85-1.1-4.95
			C224.5,64.82,222.28,65.3,221.2,66.97z"/>
		<path class="st1" d="M215.29,117.15c1.07-1.64,0.57-3.85-1.07-4.93c-1.69-1.06-3.88-0.59-4.96,1.09
			c-1.07,1.68-0.57,3.87,1.09,4.94C212.02,119.31,214.25,118.83,215.29,117.15z"/>
		<path class="st1" d="M89.05,32.4c-1.68-1.07-3.88-0.57-4.94,1.1c-1.04,1.67-0.59,3.85,1.07,4.94c1.68,1.05,3.88,0.57,4.94-1.11
			C91.21,35.68,90.7,33.45,89.05,32.4z"/>
		<path class="st1" d="M219.1,83.61c1.06-1.68,0.57-3.88-1.1-4.93c-1.65-1.08-3.87-0.58-4.94,1.07c-1.04,1.68-0.56,3.89,1.12,4.94
			C215.8,85.76,218.02,85.26,219.1,83.61z"/>
		<path class="st1" d="M206.05,125.02c-0.24-0.15-0.5-0.28-0.75-0.35l2.37,3.72C207.79,127.09,207.2,125.75,206.05,125.02z"/>
		<path class="st1" d="M239.17,100.65c1.66,1.07,3.88,0.58,4.96-1.09c1.06-1.65,0.57-3.87-1.12-4.93c-1.65-1.07-3.87-0.58-4.93,1.09
			C237.04,97.39,237.51,99.59,239.17,100.65z"/>
		<path class="st1" d="M109.71,27.59c-1.66-1.04-3.88-0.56-4.93,1.11c-1.06,1.65-0.57,3.85,1.07,4.94c1.68,1.05,3.88,0.57,4.94-1.11
			C111.87,30.87,111.39,28.65,109.71,27.59z"/>
		<path class="st1" d="M93.42,53.16h-0.03L95,55.72C94.87,54.69,94.33,53.77,93.42,53.16z"/>
		<path class="st1" d="M114.08,48.36c-1.66-1.05-3.87-0.57-4.94,1.11c-1.07,1.66-0.57,3.85,1.09,4.93c1.68,1.05,3.87,0.57,4.94-1.1
			C116.23,51.65,115.73,49.45,114.08,48.36z"/>
		<path class="st1" d="M231.61,91.58c1.06-1.66,0.57-3.85-1.1-4.94c-1.68-1.04-3.88-0.57-4.94,1.11c-1.06,1.66-0.56,3.89,1.1,4.93
			C228.33,93.73,230.54,93.25,231.61,91.58z"/>
		<path class="st1" d="M235.41,58.03c1.06-1.68,0.56-3.88-1.09-4.94c-1.66-1.07-3.88-0.57-4.94,1.09c-1.07,1.68-0.59,3.87,1.09,4.94
			C232.14,60.18,234.35,59.68,235.41,58.03z"/>
		<path class="st1" d="M231.04,37.26c1.07-1.68,0.59-3.89-1.09-4.94c-1.66-1.07-3.88-0.57-4.93,1.08c-1.06,1.68-0.59,3.87,1.09,4.95
			C227.76,39.41,230,38.92,231.04,37.26z"/>
		<path class="st1" d="M243.55,45.24c1.07-1.66,0.59-3.85-1.07-4.95c-1.68-1.04-3.88-0.56-4.94,1.11c-1.07,1.66-0.59,3.88,1.07,4.94
			C240.29,47.39,242.51,46.91,243.55,45.24z"/>
		<path class="st1" d="M234.83,79.9c1.65,1.05,3.88,0.56,4.93-1.1c1.07-1.68,0.57-3.87-1.09-4.94c-1.66-1.06-3.88-0.57-4.94,1.09
			C232.67,76.63,233.17,78.82,234.83,79.9z"/>
		<path class="st1" d="M222.86,126.24c1.66,1.06,3.88,0.56,4.96-1.1c1.04-1.63,0.57-3.87-1.1-4.91c-1.68-1.07-3.88-0.6-4.94,1.08
			C220.7,122.97,221.2,125.18,222.86,126.24z"/>
		<path class="st1" d="M221.8,45.1c-1.68-1.05-3.88-0.57-4.94,1.1c-1.06,1.66-0.59,3.85,1.09,4.94c1.68,1.04,3.88,0.57,4.93-1.12
			C223.97,48.36,223.48,46.18,221.8,45.1z"/>
		<path class="st1" d="M218.51,105.47c1.66,1.05,3.87,0.56,4.93-1.1c1.09-1.68,0.59-3.87-1.07-4.93c-1.68-1.07-3.9-0.58-4.94,1.07
			C216.36,102.2,216.85,104.41,218.51,105.47z"/>
		<path class="st1" d="M25.68,107.73c1.19,0,2.32-0.57,3-1.62c1.06-1.68,0.59-3.9-1.09-4.96c-0.59-0.38-1.25-0.54-1.91-0.55V107.73z
			"/>
		<path class="st1" d="M39.55,54.8c-1.68-1.06-3.88-0.58-4.93,1.09c-1.09,1.66-0.59,3.9,1.07,4.95c1.66,1.04,3.88,0.57,4.94-1.12
			C41.69,58.09,41.21,55.88,39.55,54.8z"/>
		<path class="st1" d="M252.84,141.1c1.06-1.64,0.57-3.85-1.07-4.94c-1.68-1.05-3.88-0.57-4.97,1.11c-1.04,1.66-0.56,3.9,1.12,4.94
			C249.57,143.26,251.76,142.78,252.84,141.1z"/>
		<path class="st1" d="M256.61,183.74c1.66,1.1,3.88,0.58,4.94-1.07c1.07-1.68,0.59-3.89-1.09-4.97c-1.66-1.05-3.88-0.58-4.94,1.1
			C254.47,180.49,254.95,182.7,256.61,183.74z"/>
		<path class="st1" d="M249.03,174.68c1.09-1.66,0.59-3.88-1.07-4.93c-1.68-1.08-3.88-0.57-4.96,1.1c-1.06,1.64-0.56,3.86,1.09,4.92
			C245.76,176.84,247.98,176.37,249.03,174.68z"/>
		<path class="st1" d="M35.18,34.04c-1.68-1.09-3.88-0.6-4.94,1.08c-1.06,1.66-0.59,3.87,1.1,4.93c1.66,1.06,3.87,0.57,4.91-1.1
			C37.34,37.32,36.84,35.09,35.18,34.04z"/>
		<path class="st1" d="M26.43,68.67c-1.04,1.68-0.56,3.89,1.12,4.99c1.63,1.04,3.88,0.53,4.93-1.11c1.06-1.68,0.57-3.9-1.1-4.94
			C29.71,66.52,27.52,67.03,26.43,68.67z"/>
		<path class="st1" d="M265.36,149.09c1.04-1.68,0.57-3.87-1.1-4.94c-1.68-1.06-3.88-0.57-4.94,1.09c-1.06,1.68-0.57,3.9,1.09,4.96
			C262.1,151.26,264.29,150.77,265.36,149.09z"/>
		<path class="st1" d="M113.48,70.24c-1.06,1.68-0.56,3.87,1.12,4.93c1.66,1.07,3.85,0.58,4.93-1.08c1.07-1.68,0.57-3.87-1.09-4.96
			C116.77,68.08,114.56,68.58,113.48,70.24z"/>
		<path class="st1" d="M236.54,166.68c1.04-1.64,0.56-3.85-1.12-4.92c-1.66-1.04-3.88-0.59-4.93,1.09
			c-0.16,0.23-0.27,0.48-0.35,0.77l3,4.71C234.45,168.43,235.79,167.86,236.54,166.68z"/>
		<path class="st1" d="M252.28,162.98c1.65,1.05,3.85,0.57,4.93-1.07c1.06-1.67,0.57-3.88-1.1-4.97c-1.66-1.04-3.88-0.53-4.93,1.11
			C250.11,159.7,250.6,161.93,252.28,162.98z"/>
		<path class="st1" d="M284.88,111.83c1.66,1.05,3.88,0.57,4.96-1.1c1.06-1.65,0.56-3.87-1.1-4.94c-1.68-1.04-3.88-0.57-4.93,1.11
			C282.72,108.53,283.2,110.74,284.88,111.83z"/>
		<path class="st1" d="M289.25,132.59c1.66,1.06,3.88,0.58,4.93-1.08c1.07-1.68,0.57-3.89-1.09-4.96c-1.66-1.05-3.87-0.58-4.93,1.1
			C287.09,129.34,287.57,131.53,289.25,132.59z"/>
		<path class="st1" d="M269.14,115.53c1.07-1.65,0.59-3.89-1.09-4.93c-1.66-1.06-3.87-0.57-4.93,1.1c-1.07,1.66-0.6,3.85,1.09,4.94
			C265.88,117.69,268.1,117.21,269.14,115.53z"/>
		<path class="st1" d="M285.47,89.95c1.07-1.65,0.57-3.89-1.1-4.93c-1.66-1.06-3.87-0.57-4.94,1.1c-1.04,1.65-0.56,3.85,1.12,4.94
			C282.2,92.11,284.41,91.64,285.47,89.95z"/>
		<path class="st1" d="M297.31,98.69v-5.35c-0.12-0.12-0.23-0.25-0.41-0.33c-1.66-1.07-3.9-0.57-4.94,1.07
			c-1.06,1.68-0.57,3.88,1.07,4.98C294.41,99.89,296.15,99.72,297.31,98.69z"/>
		<path class="st1" d="M268.56,137.4c1.69,1.05,3.9,0.57,4.96-1.1c1.06-1.65,0.56-3.85-1.09-4.94c-1.66-1.04-3.87-0.54-4.96,1.11
			C266.41,134.14,266.91,136.36,268.56,137.4z"/>
		<path class="st1" d="M272.94,158.17c1.65,1.07,3.87,0.58,4.93-1.08c1.07-1.68,0.59-3.88-1.09-4.93c-1.66-1.08-3.87-0.61-4.94,1.07
			C270.79,154.89,271.28,157.12,272.94,158.17z"/>
		<path class="st1" d="M281.67,123.52c1.04-1.66,0.59-3.9-1.09-4.94c-1.68-1.06-3.9-0.57-4.94,1.09c-1.07,1.68-0.59,3.87,1.09,4.94
			C278.4,125.68,280.6,125.18,281.67,123.52z"/>
		<path class="st1" d="M256.06,129.42c1.68,1.07,3.88,0.57,4.94-1.1c1.06-1.67,0.57-3.86-1.09-4.93s-3.88-0.57-4.94,1.1
			C253.91,126.15,254.39,128.36,256.06,129.42z"/>
		<path class="st1" d="M264.81,94.76c1.04-1.66,0.56-3.89-1.1-4.94c-1.66-1.07-3.9-0.57-4.96,1.1c-1.04,1.67-0.56,3.86,1.12,4.94
			C261.53,96.91,263.72,96.44,264.81,94.76z"/>
		<path class="st1" d="M239.75,154.98c1.65,1.07,3.87,0.57,4.93-1.07c1.07-1.69,0.59-3.89-1.09-4.94c-1.66-1.09-3.87-0.57-4.93,1.07
			C237.58,151.73,238.08,153.93,239.75,154.98z"/>
		<path class="st1" d="M268.59,61.22c1.06-1.68,0.59-3.9-1.07-4.96c-1.66-1.04-3.9-0.55-4.94,1.1c-1.07,1.68-0.59,3.88,1.09,4.92
			C265.32,63.37,267.54,62.88,268.59,61.22z"/>
		<path class="st1" d="M268.01,83.05c1.66,1.08,3.87,0.59,4.96-1.07c1.04-1.68,0.57-3.89-1.12-4.96c-1.65-1.05-3.85-0.55-4.93,1.1
			C265.85,79.77,266.35,82,268.01,83.05z"/>
		<path class="st1" d="M38.96,76.66c-1.06,1.66-0.57,3.89,1.09,4.93c1.66,1.09,3.87,0.58,4.93-1.06c1.07-1.68,0.59-3.9-1.09-4.96
			C42.24,74.53,40,75.02,38.96,76.66z"/>
		<path class="st1" d="M248.48,120.33c1.06-1.64,0.57-3.87-1.09-4.94c-1.68-1.05-3.88-0.57-4.94,1.1s-0.57,3.88,1.09,4.94
			C245.2,122.49,247.42,122.01,248.48,120.33z"/>
		<path class="st1" d="M251.69,108.64c1.68,1.07,3.88,0.57,4.96-1.08c1.06-1.68,0.57-3.87-1.1-4.96c-1.65-1.05-3.88-0.55-4.94,1.1
			C249.54,105.39,250.04,107.6,251.69,108.64z"/>
		<path class="st1" d="M272.37,103.82c1.66,1.09,3.88,0.59,4.94-1.07c1.07-1.67,0.57-3.88-1.07-4.93c-1.68-1.07-3.88-0.57-4.96,1.09
			C270.2,100.58,270.72,102.77,272.37,103.82z"/>
		<path class="st1" d="M252.29,86.8c1.06-1.68,0.57-3.88-1.1-4.96c-1.68-1.05-3.88-0.55-4.94,1.1c-1.06,1.66-0.57,3.89,1.1,4.93
			C249,88.94,251.22,88.45,252.29,86.8z"/>
		<path class="st1" d="M297.31,43.75v-4.16c-0.23-0.35-0.59-0.67-0.97-0.92c-1.66-1.07-3.88-0.59-4.93,1.09
			c-1.09,1.66-0.6,3.88,1.07,4.94C294.12,45.74,296.22,45.27,297.31,43.75z"/>
		<path class="st1" d="M72.66,30.45c1.68,1.07,3.88,0.58,4.94-1.08c0.82-1.29,0.71-2.88-0.13-4.06h-5.75
			c-0.04,0.07-0.1,0.13-0.13,0.21C70.53,27.18,71.02,29.4,72.66,30.45z"/>
		<path class="st1" d="M296.85,65.46c0.15,0.12,0.31,0.17,0.46,0.23v-6.5c-0.62,0.26-1.16,0.73-1.56,1.34
			C294.69,62.19,295.19,64.41,296.85,65.46z"/>
		<path class="st1" d="M42.75,43.12c-1.07,1.66-0.59,3.87,1.09,4.91c1.68,1.07,3.88,0.58,4.94-1.07c1.06-1.68,0.59-3.88-1.07-4.93
			C46.03,40.95,43.81,41.44,42.75,43.12z"/>
		<path class="st1" d="M284.34,57.48c1.66,1.08,3.87,0.57,4.94-1.07c1.04-1.68,0.56-3.89-1.1-4.96s-3.88-0.55-4.93,1.09
			C282.17,54.22,282.66,56.43,284.34,57.48z"/>
		<path class="st1" d="M284.9,35.6c1.07-1.64,0.6-3.85-1.07-4.92s-3.88-0.55-4.94,1.08c-1.06,1.66-0.56,3.9,1.07,4.94
			C281.63,37.79,283.85,37.28,284.9,35.6z"/>
		<path class="st1" d="M297.31,119.74v-5.91c-0.4,0.27-0.72,0.62-1,1.04C295.28,116.5,295.72,118.64,297.31,119.74z"/>
		<path class="st1" d="M281.12,69.19c1.06-1.65,0.57-3.89-1.1-4.94c-1.66-1.05-3.87-0.57-4.94,1.11c-1.06,1.63-0.57,3.85,1.09,4.93
			C277.84,71.34,280.06,70.87,281.12,69.19z"/>
		<path class="st1" d="M288.69,78.24c1.65,1.09,3.88,0.57,4.94-1.07c1.06-1.67,0.57-3.88-1.1-4.93c-1.65-1.09-3.85-0.57-4.94,1.07
			C286.54,74.96,287.03,77.19,288.69,78.24z"/>
		<path class="st1" d="M55.86,29.21c-1.68-1.04-3.9-0.57-4.94,1.1c-1.07,1.67-0.56,3.88,1.09,4.95c1.66,1.04,3.87,0.57,4.93-1.1
			C58.02,32.49,57.5,30.3,55.86,29.21z"/>
		<path class="st1" d="M51.47,84.67c-1.07,1.64-0.59,3.86,1.1,4.92c1.65,1.07,3.85,0.6,4.93-1.09c1.04-1.66,0.59-3.87-1.09-4.93
			C54.74,82.52,52.53,82.99,51.47,84.67z"/>
		<path class="st1" d="M47.1,63.9c-1.06,1.65-0.57,3.86,1.1,4.92c1.66,1.05,3.88,0.6,4.94-1.08c1.04-1.66,0.56-3.89-1.1-4.94
			C50.4,61.75,48.18,62.23,47.1,63.9z"/>
		<path class="st1" d="M60.22,49.98c-1.68-1.05-3.88-0.57-4.94,1.11c-1.07,1.68-0.59,3.89,1.09,4.93c1.66,1.05,3.87,0.58,4.94-1.1
			C62.36,53.28,61.88,51.07,60.22,49.98z"/>
		<path class="st1" d="M68.37,37.21c-1.68-1.07-3.88-0.57-4.94,1.08c-1.07,1.68-0.59,3.9,1.09,4.96c1.66,1.06,3.88,0.56,4.93-1.1
			C70.53,40.46,70.03,38.27,68.37,37.21z"/>
		<path class="st1" d="M43.31,97.44c-1.06,1.68-0.57,3.88,1.09,4.93c1.68,1.09,3.88,0.59,4.94-1.07c1.06-1.68,0.59-3.88-1.07-4.96
			C46.58,95.3,44.37,95.79,43.31,97.44z"/>
		<path class="st1" d="M67.78,59.06c-1.06,1.68-0.57,3.9,1.1,4.96c1.66,1.05,3.88,0.57,4.93-1.11c1.04-1.63,0.57-3.86-1.1-4.93
			C71.06,56.93,68.86,57.4,67.78,59.06z"/>
		<path class="st1" d="M59.62,71.85c-1.04,1.68-0.56,3.9,1.09,4.96c1.69,1.07,3.88,0.56,4.96-1.09c1.06-1.68,0.57-3.88-1.1-4.93
			C62.9,69.71,60.69,70.22,59.62,71.85z"/>
		<path class="st1" d="M102.65,45.32c1.07-1.67,0.57-3.88-1.09-4.96c-1.66-1.04-3.88-0.54-4.96,1.11c-1.06,1.67-0.57,3.88,1.1,4.93
			C99.37,47.49,101.59,46.99,102.65,45.32z"/>
		<path class="st1" d="M122.24,35.58c-1.68-1.07-3.9-0.57-4.96,1.11c-1.06,1.66-0.56,3.85,1.1,4.93c1.66,1.05,3.87,0.56,4.93-1.1
			C124.39,38.84,123.9,36.63,122.24,35.58z"/>
		<path class="st1" d="M122.78,89.92c-1.68-1.07-3.88-0.58-4.93,1.08c-0.06,0.09-0.09,0.19-0.16,0.31l3.34,5.19
			c1.1-0.07,2.19-0.64,2.85-1.65C124.95,93.18,124.46,90.99,122.78,89.92z"/>
		<path class="st1" d="M140.76,123.6c1.07-1.65,0.56-3.86-1.09-4.94c-1.38-0.87-3.13-0.67-4.29,0.36l3.81,5.93
			C139.8,124.67,140.37,124.22,140.76,123.6z"/>
		<path class="st1" d="M176.66,88.28c-1.68-1.05-3.9-0.56-4.94,1.1c-1.07,1.64-0.57,3.87,1.1,4.91c1.65,1.09,3.85,0.6,4.94-1.08
			C178.82,91.55,178.32,89.34,176.66,88.28z"/>
		<path class="st1" d="M136.39,102.83c1.07-1.66,0.57-3.85-1.09-4.93c-1.66-1.06-3.88-0.57-4.94,1.1c-1.04,1.65-0.56,3.89,1.1,4.94
			C133.12,104.99,135.34,104.5,136.39,102.83z"/>
		<path class="st1" d="M267.44,28.74c1.68,1.07,3.88,0.56,4.97-1.09c0.43-0.72,0.6-1.52,0.5-2.34h-7.07
			C265.69,26.64,266.28,27.97,267.44,28.74z"/>
		<path class="st1" d="M107,66.1c1.06-1.68,0.56-3.87-1.1-4.94c-1.65-1.07-3.87-0.57-4.93,1.09c-0.38,0.63-0.57,1.3-0.56,1.95
			l2.03,3.18C104.06,68.16,106.02,67.66,107,66.1z"/>
		<path class="st1" d="M176.07,110.15c-1.07,1.68-0.57,3.87,1.09,4.93c1.66,1.08,3.88,0.58,4.94-1.07c1.07-1.68,0.57-3.89-1.07-4.96
			C179.33,108,177.14,108.49,176.07,110.15z"/>
		<path class="st1" d="M270.73,44.54c-1.09,1.68-0.59,3.9,1.07,4.96c1.68,1.07,3.88,0.6,4.94-1.09c1.07-1.67,0.59-3.88-1.07-4.93
			C273.98,42.43,271.79,42.91,270.73,44.54z"/>
		<path class="st1" d="M167.93,46.74c-1.66-1.07-3.88-0.6-4.94,1.08c-1.06,1.66-0.57,3.89,1.1,4.94c1.66,1.05,3.87,0.57,4.93-1.1
			C170.08,50.02,169.6,47.81,167.93,46.74z"/>
		<path class="st1" d="M167.36,68.59c-1.07,1.66-0.57,3.9,1.09,4.95c1.68,1.04,3.88,0.57,4.94-1.11c1.06-1.63,0.57-3.85-1.1-4.92
			C170.63,66.46,168.43,66.92,167.36,68.59z"/>
		<path class="st1" d="M163.58,25.97c-1.68-1.09-3.88-0.59-4.96,1.09c-1.04,1.65-0.56,3.87,1.1,4.94c1.68,1.04,3.88,0.54,4.93-1.11
			C165.73,29.25,165.24,27.03,163.58,25.97z"/>
		<path class="st1" d="M176.1,33.96c-1.68-1.09-3.87-0.59-4.94,1.07c-1.07,1.68-0.57,3.89,1.09,4.94c1.68,1.07,3.87,0.57,4.94-1.09
			C178.26,37.21,177.76,35.01,176.1,33.96z"/>
		<path class="st1" d="M188.02,63.8c-1.06,1.67-0.57,3.88,1.1,4.93c1.66,1.09,3.87,0.58,4.93-1.06c1.06-1.68,0.57-3.9-1.07-4.99
			C191.3,61.63,189.08,62.11,188.02,63.8z"/>
		<path class="st1" d="M154.83,60.6c-1.06,1.68-0.57,3.89,1.1,4.94c1.68,1.09,3.88,0.57,4.94-1.07c1.04-1.68,0.57-3.89-1.12-4.93
			C158.11,58.45,155.9,58.96,154.83,60.6z"/>
		<path class="st1" d="M179.86,76.56c-1.04,1.68-0.56,3.9,1.12,4.96c1.65,1.07,3.85,0.55,4.93-1.08c1.06-1.67,0.57-3.9-1.1-4.94
			C183.16,74.45,180.95,74.93,179.86,76.56z"/>
		<path class="st1" d="M188.61,41.91c-1.68-1.04-3.88-0.53-4.93,1.1c-1.09,1.67-0.59,3.9,1.07,4.95c1.66,1.04,3.88,0.57,4.96-1.1
			C190.77,45.21,190.29,43,188.61,41.91z"/>
		<path class="st1" d="M134.74,43.56c-1.66-1.05-3.87-0.58-4.93,1.1c-1.07,1.68-0.59,3.87,1.09,4.92c1.66,1.09,3.87,0.6,4.94-1.09
			C136.89,46.84,136.43,44.62,134.74,43.56z"/>
		<path class="st1" d="M155.42,38.75c-1.66-1.07-3.88-0.56-4.93,1.09c-1.07,1.65-0.59,3.89,1.09,4.94c1.65,1.07,3.87,0.57,4.93-1.11
			C157.58,42.03,157.1,39.82,155.42,38.75z"/>
		<path class="st1" d="M126.01,78.22c-1.06,1.66-0.57,3.85,1.1,4.94c1.66,1.04,3.87,0.57,4.93-1.1c1.07-1.66,0.57-3.9-1.09-4.94
			C129.27,76.07,127.08,76.55,126.01,78.22z"/>
		<path class="st1" d="M196.77,29.13c-1.69-1.06-3.88-0.57-4.94,1.09c-1.06,1.68-0.57,3.89,1.07,4.95c1.68,1.06,3.9,0.57,4.96-1.09
			C198.92,32.4,198.44,30.21,196.77,29.13z"/>
		<path class="st1" d="M126.59,56.35c-1.68-1.04-3.87-0.58-4.96,1.09c-1.04,1.68-0.56,3.87,1.1,4.96c1.69,1.05,3.88,0.56,4.94-1.11
			C128.74,59.62,128.26,57.4,126.59,56.35z"/>
		<path class="st1" d="M134.17,65.43c-1.06,1.64-0.59,3.88,1.1,4.93c1.66,1.07,3.87,0.59,4.93-1.07c1.06-1.68,0.57-3.88-1.1-4.93
			C137.45,63.27,135.23,63.77,134.17,65.43z"/>
		<path class="st1" d="M142.92,30.78c-1.69-1.09-3.9-0.57-4.96,1.1c-1.07,1.64-0.59,3.85,1.09,4.9c1.66,1.09,3.88,0.57,4.94-1.07
			C145.07,34.04,144.58,31.82,142.92,30.78z"/>
		<path class="st1" d="M146.67,73.42c-1.06,1.64-0.56,3.87,1.1,4.94c1.66,1.05,3.9,0.57,4.94-1.11c1.07-1.66,0.56-3.87-1.09-4.93
			C149.96,71.26,147.76,71.74,146.67,73.42z"/>
		<path class="st1" d="M147.27,51.55c-1.66-1.05-3.88-0.57-4.94,1.11c-1.07,1.63-0.59,3.85,1.07,4.92c1.68,1.06,3.88,0.6,4.94-1.09
			C149.42,54.82,148.92,52.62,147.27,51.55z"/>
		<path class="st1" d="M155.4,114.96c-1.07,1.68-0.59,3.87,1.09,4.93c1.68,1.07,3.88,0.58,4.94-1.08c1.07-1.68,0.57-3.9-1.09-4.96
			C158.67,112.81,156.46,113.28,155.4,114.96z"/>
		<path class="st1" d="M167.92,122.95c-1.07,1.66-0.59,3.85,1.09,4.94c1.66,1.04,3.88,0.57,4.94-1.1c1.04-1.66,0.59-3.89-1.1-4.94
			C171.18,120.79,168.98,121.27,167.92,122.95z"/>
		<path class="st1" d="M147.24,127.75c-1.06,1.66-0.57,3.85,1.09,4.94c1.68,1.04,3.87,0.57,4.94-1.11c1.06-1.66,0.56-3.89-1.09-4.93
			C150.52,125.58,148.32,126.08,147.24,127.75z"/>
		<path class="st1" d="M143.45,85.11c-1.66-1.07-3.85-0.57-4.93,1.09c-1.06,1.67-0.57,3.87,1.1,4.92c1.65,1.09,3.87,0.59,4.94-1.07
			C145.61,88.37,145.12,86.16,143.45,85.11z"/>
		<path class="st1" d="M147.83,105.88c-1.68-1.07-3.9-0.57-4.96,1.08c-1.07,1.68-0.57,3.88,1.09,4.96c1.68,1.05,3.88,0.57,4.94-1.1
			C149.98,109.14,149.49,106.92,147.83,105.88z"/>
		<path class="st1" d="M201.13,49.91c-1.66-1.05-3.88-0.58-4.93,1.07c-1.09,1.68-0.6,3.9,1.07,4.96c1.68,1.05,3.88,0.55,4.94-1.1
			C203.26,53.16,202.77,50.97,201.13,49.91z"/>
		<path class="st1" d="M168.49,101.08c-1.66-1.07-3.88-0.57-4.94,1.06c-1.04,1.68-0.57,3.9,1.1,4.99c1.66,1.04,3.87,0.57,4.93-1.1
			C170.64,104.35,170.17,102.12,168.49,101.08z"/>
		<path class="st1" d="M164.14,80.3c-1.65-1.08-3.87-0.57-4.96,1.07c-1.04,1.68-0.56,3.89,1.1,4.99c1.65,1.04,3.87,0.53,4.96-1.11
			C166.29,83.57,165.8,81.35,164.14,80.3z"/>
		<path class="st1" d="M165.79,139.58c1.06-1.68,0.57-3.89-1.09-4.93c-1.68-1.07-3.88-0.58-4.94,1.08
			c-1.06,1.68-0.57,3.88,1.09,4.94C162.52,141.73,164.73,141.23,165.79,139.58z"/>
		<path class="st1" d="M155.98,93.08c-1.68-1.05-3.88-0.57-4.94,1.11c-1.06,1.63-0.57,3.86,1.09,4.93c1.66,1.04,3.88,0.57,4.96-1.09
			C158.14,96.37,157.65,94.15,155.98,93.08z"/>
		<path class="st1" d="M214.73,62.84c1.06-1.68,0.57-3.88-1.09-4.92c-1.66-1.09-3.87-0.6-4.96,1.06c-1.06,1.66-0.56,3.9,1.12,4.95
			C211.47,64.99,213.69,64.49,214.73,62.84z"/>
		<path class="st1" d="M209.29,37.1c-1.68-1.04-3.88-0.54-4.94,1.12c-1.09,1.66-0.59,3.88,1.07,4.93c1.68,1.05,3.88,0.58,4.96-1.1
			C211.45,40.39,210.95,38.19,209.29,37.1z"/>
		<path class="st1" d="M204.91,92.55c-1.07,1.66-0.57,3.89,1.07,4.94c1.68,1.05,3.9,0.57,4.96-1.1c1.06-1.65,0.57-3.85-1.09-4.93
			C208.17,90.39,205.97,90.87,204.91,92.55z"/>
		<path class="st1" d="M200.54,71.78c-1.06,1.65-0.57,3.87,1.1,4.94c1.65,1.04,3.88,0.57,4.94-1.12c1.06-1.63,0.57-3.86-1.09-4.91
			C203.83,69.63,201.61,70.1,200.54,71.78z"/>
		<path class="st1" d="M190.24,101.21c1.09-1.66,0.6-3.89-1.07-4.94c-1.68-1.05-3.88-0.57-4.96,1.1c-1.04,1.64-0.56,3.86,1.1,4.93
			C186.98,103.36,189.2,102.89,190.24,101.21z"/>
		<path class="st1" d="M196.73,105.33c-1.04,1.68-0.57,3.89,1.09,4.94c1.69,1.08,3.9,0.57,4.96-1.07c1.06-1.67,0.57-3.9-1.09-4.96
			C200.02,103.17,197.8,103.69,196.73,105.33z"/>
		<path class="st1" d="M157.62,152.36c1.07-1.66,0.59-3.89-1.09-4.94c-1-0.63-2.19-0.71-3.22-0.29l3.76,5.88
			C157.29,152.84,157.46,152.6,157.62,152.36z"/>
		<path class="st1" d="M197.32,83.49c-1.66-1.09-3.88-0.58-4.93,1.06c-1.06,1.68-0.57,3.9,1.09,4.95c1.66,1.08,3.87,0.57,4.94-1.07
			C199.48,86.75,198.99,84.54,197.32,83.49z"/>
		<path class="st1" d="M180.46,54.73c-1.68-1.08-3.9-0.57-4.97,1.07c-1.04,1.68-0.56,3.89,1.1,4.96c1.68,1.04,3.9,0.58,4.94-1.09
			C182.58,57.97,182.11,55.77,180.46,54.73z"/>
		<path class="st1" d="M39.49,27.26c1.65,1.07,3.88,0.57,4.94-1.09c0.18-0.26,0.31-0.57,0.4-0.87H38
			C38.25,26.09,38.75,26.79,39.49,27.26z"/>
		<path class="st1" d="M293.65,257.1c-1.07,1.65-0.57,3.88,1.07,4.93c0.81,0.53,1.73,0.65,2.59,0.51v-7.01
			C295.91,255.25,294.44,255.81,293.65,257.1z"/>
		<path class="st1" d="M297.31,223.76c-0.59,1.1-0.54,2.34,0,3.41V223.76z"/>
		<path class="st1" d="M286.06,248.02c-0.74-0.46-1.56-0.61-2.38-0.52l3.49,5.48C288.2,251.3,287.72,249.08,286.06,248.02z"/>
		<path class="st1" d="M297.31,208.02v-6.69c-1.52-0.57-3.32-0.02-4.24,1.43c-1.07,1.65-0.57,3.88,1.09,4.93
			C295.15,208.33,296.31,208.41,297.31,208.02z"/>
		<path class="st1" d="M273.48,212.51c1.68,1.04,3.9,0.57,4.94-1.11c1.07-1.64,0.56-3.85-1.07-4.92c-1.68-1.07-3.88-0.59-4.94,1.09
			C271.34,209.22,271.84,211.46,273.48,212.51z"/>
		<path class="st1" d="M269.12,191.74c1.69,1.05,3.9,0.57,4.96-1.1c1.07-1.64,0.57-3.87-1.09-4.92c-1.68-1.07-3.88-0.6-4.94,1.09
			C266.97,188.46,267.47,190.67,269.12,191.74z"/>
		<path class="st1" d="M277.87,233.27c1.65,1.09,3.85,0.57,4.93-1.1c1.06-1.65,0.57-3.85-1.1-4.9c-1.68-1.09-3.85-0.57-4.93,1.07
			C275.7,229.99,276.19,232.22,277.87,233.27z"/>
		<path class="st1" d="M269.72,169.86c1.07-1.63,0.57-3.87-1.09-4.92c-1.68-1.07-3.9-0.6-4.94,1.09c-1.07,1.65-0.57,3.87,1.07,4.94
			C266.44,172.02,268.64,171.54,269.72,169.86z"/>
		<path class="st1" d="M28.12,51.77c1.04-1.68,0.57-3.89-1.09-4.96c-0.41-0.27-0.88-0.43-1.35-0.51v7.04
			C26.65,53.21,27.54,52.66,28.12,51.77z"/>
		<path class="st1" d="M264.82,198.51c-1.66-1.09-3.88-0.57-4.93,1.07c-1.07,1.68-0.59,3.89,1.07,4.94
			c1.68,1.09,3.88,0.57,4.94-1.07C266.97,201.77,266.48,199.56,264.82,198.51z"/>
		<path class="st1" d="M282.22,177.85c1.07-1.68,0.59-3.87-1.07-4.92c-1.68-1.09-3.9-0.6-4.94,1.07c-1.06,1.68-0.57,3.89,1.09,4.94
			C278.95,180.01,281.16,179.51,282.22,177.85z"/>
		<path class="st1" d="M253.39,195.46c1.07-1.66,0.59-3.89-1.09-4.94c-1.5-0.96-3.44-0.65-4.59,0.65l3.69,5.78
			C252.19,196.69,252.91,196.2,253.39,195.46z"/>
		<path class="st1" d="M289.81,186.93c1.66,1.06,3.87,0.57,4.94-1.11c1.06-1.66,0.57-3.85-1.1-4.93c-1.66-1.06-3.87-0.57-4.93,1.1
			C287.66,183.65,288.15,185.89,289.81,186.93z"/>
		<path class="st1" d="M286.59,198.62c1.04-1.63,0.59-3.86-1.09-4.92c-1.68-1.09-3.88-0.59-4.93,1.07
			c-1.07,1.67-0.59,3.88,1.07,4.94C283.32,200.77,285.54,200.27,286.59,198.62z"/>
		<path class="st1" d="M270.28,224.21c1.06-1.65,0.57-3.88-1.1-4.94c-1.12-0.72-2.5-0.72-3.59-0.13l3.81,5.99
			C269.73,224.88,270.03,224.58,270.28,224.21z"/>
		<path class="st1" d="M286,220.49c1.68,1.06,3.9,0.56,4.96-1.1c1.06-1.65,0.56-3.87-1.09-4.92c-1.66-1.09-3.88-0.6-4.97,1.09
			C283.85,217.21,284.34,219.43,286,220.49z"/>
		<path class="st1" d="M297.31,168.64c-0.16,0.18-0.31,0.35-0.44,0.56c-0.91,1.43-0.68,3.26,0.44,4.4V168.64z"/>
		<path class="st1" d="M297.31,153.45v-6.18c-1.63-0.95-3.75-0.48-4.79,1.16c-1.06,1.68-0.56,3.87,1.09,4.94
			C294.79,154.11,296.19,154.09,297.31,153.45z"/>
		<path class="st1" d="M285.45,166.16c1.66,1.05,3.87,0.58,4.94-1.1c1.06-1.66,0.56-3.85-1.1-4.94c-1.66-1.05-3.88-0.57-4.93,1.11
			C283.29,162.88,283.78,165.11,285.45,166.16z"/>
		<path class="st1" d="M286.03,144.28c1.06-1.66,0.57-3.88-1.1-4.93c-1.65-1.05-3.87-0.57-4.94,1.1c-1.04,1.67-0.56,3.85,1.12,4.94
			C282.76,146.45,284.98,145.97,286.03,144.28z"/>
		<path class="st1" d="M290.38,241.27c1.65,1.05,3.85,0.57,4.93-1.1c1.06-1.64,0.57-3.88-1.1-4.93c-1.66-1.07-3.88-0.59-4.93,1.09
			C288.22,237.99,288.7,240.19,290.38,241.27z"/>
	</g>
	<path class="st2" d="M82.46,484l-11.82-0.02c-11.32,0-20.24-8.79-20.24-20.15v-34.91h15.88v34.6c0,2.86,2.07,5.54,5.09,5.54h11.24
		c5.04,0,7.21-2.65,7.21-7.15c0-1.76-0.71-3.43-1.93-4.69l-5.4-5.57v13.29H70.55v-29.86c0-3.79,3.25-6.16,6.21-6.16h27.62v11.68
		h-12.4l6.65,6.79c4.01,4.06,6.44,9.67,6.44,15.29C105.06,472.23,97.2,484,82.46,484z"/>
	<path class="st2" d="M322,527.7V6.29c0-3.07-2.04-5.13-5.13-5.13H6.12C3.06,1.16,1,3.22,1,6.29V527.7c0,3.09,2.06,5.14,5.12,5.14
		h310.75C319.96,532.84,322,530.79,322,527.7z M297.31,506.64c0,1.12-0.91,2.04-2.06,2.04H27.75c-1.13,0-2.07-0.91-2.07-2.04V373.28
		c0-0.74,0.6-1.59,1.68-1.51c39.09,5.25,83.78,30.67,127.15,55.37c46.93,26.75,95.33,54.29,140.84,59.31l0,0
		c1.24,0.15,1.96,0.9,1.96,2.03V506.64z M297.31,459.54c0,1.1-0.75,2.15-1.97,2.06c-39.77-5.32-84.86-30.99-128.61-55.92
		c-46.41-26.43-94.27-53.64-138.98-58.74l0,0c-1.28-0.15-2.07-0.91-2.07-2.08v-69.25c0-1.12,0.94-2.03,2.07-2.03h99.42l0,0
		c1.69,0,2.9,0.36,4.01,1.35l164.2,143.01c1.04,0.92,1.93,1.99,1.93,4.14V459.54z M297.31,383.67c0,2.04-1.19,2.15-2.37,1.12
		L140.45,250.2c-1.15-0.96-2.37-1.35-4.06-1.35H27.75c-1.13,0-2.07-0.91-2.07-2.04v-45.63c0-2.59,0.28-3.87,1.56-5.78L89.4,97.99
		c0.96-1.48,2.32-1.53,3.28,0l65.56,102.77c0.97,1.53,2.34,1.51,3.29,0l30.05-47.06c0.94-1.25,2.16-1.19,3.09,0.23v-0.01
		l101.2,158.6c1.18,1.81,1.44,3.1,1.44,5.64V383.67z M297.31,265.11c0,1.32-1.23,1.8-2.06,0.57L194.67,108.02v0.01
		c-0.91-1.43-2.15-1.51-3.07-0.3l-30.06,47.1c-0.96,1.5-2.31,1.52-3.28,0.02L92.65,52.02c-0.97-1.45-2.28-1.43-3.19-0.02
		l-61.71,96.73c-0.81,1.22-2.07,0.72-2.07-0.61V27.36c0-1.12,0.94-2.05,2.07-2.05h267.5c1.15,0,2.06,0.93,2.06,2.05V265.11z"/>
</g>
</svg>
