<?xml version="1.0" encoding="utf-8"?>
<!-- Generator: Adobe Illustrator 23.0.1, SVG Export Plug-In . SVG Version: 6.00 Build 0)  -->
<svg version="1.1" id="Layer_1" xmlns="http://www.w3.org/2000/svg" xmlns:xlink="http://www.w3.org/1999/xlink" x="0px" y="0px"
	 viewBox="0 0 100 100" style="enable-background:new 0 0 100 100;" xml:space="preserve">
<style type="text/css">
	.st0{fill:#494949;}
	.st1{fill:none;stroke:#494949;stroke-width:0.9393;stroke-miterlimit:10;}
	.st2{fill:#FFFFFF;}
	.st3{fill:none;stroke:#494949;stroke-width:4;stroke-miterlimit:10;}
	.st4{clip-path:url(#SVGID_2_);fill:#494949;}
	.st5{fill:none;stroke:#494949;stroke-width:3.7875;stroke-miterlimit:10;}
	.st6{clip-path:url(#SVGID_4_);fill:#494949;}
	.st7{fill:none;stroke:#494949;stroke-width:7.575;stroke-miterlimit:10;}
	.st8{fill:none;stroke:#494949;stroke-width:1.8935;stroke-miterlimit:10;}
	.st9{fill:none;stroke:#494949;stroke-width:2;stroke-miterlimit:10;}
	.st10{fill:none;}
	.st11{clip-path:url(#SVGID_6_);fill:none;stroke:#494949;stroke-width:2;stroke-miterlimit:10;}
	.st12{clip-path:url(#SVGID_8_);fill:none;stroke:#494949;stroke-width:2;stroke-miterlimit:10;}
	.st13{clip-path:url(#SVGID_10_);fill:none;stroke:#494949;stroke-width:2;stroke-miterlimit:10;}
	.st14{clip-path:url(#SVGID_12_);fill:none;stroke:#494949;stroke-width:2;stroke-miterlimit:10;}
	.st15{clip-path:url(#SVGID_14_);fill:none;stroke:#494949;stroke-width:2;stroke-miterlimit:10;}
	.st16{clip-path:url(#SVGID_16_);fill:none;stroke:#494949;stroke-width:2;stroke-miterlimit:10;}
	.st17{fill:none;stroke:#494949;stroke-width:2.3448;stroke-miterlimit:10;}
	.st18{clip-path:url(#SVGID_18_);fill:none;stroke:#494949;stroke-width:2.3448;stroke-miterlimit:10;}
	.st19{clip-path:url(#SVGID_20_);fill:none;stroke:#494949;stroke-width:2.3448;stroke-miterlimit:10;}
	.st20{clip-path:url(#SVGID_22_);fill:none;stroke:#494949;stroke-width:2.3448;stroke-miterlimit:10;}
	.st21{clip-path:url(#SVGID_24_);fill:none;stroke:#494949;stroke-width:2.3448;stroke-miterlimit:10;}
	.st22{clip-path:url(#SVGID_26_);fill:none;stroke:#494949;stroke-width:2.3448;stroke-miterlimit:10;}
	.st23{clip-path:url(#SVGID_28_);fill:none;stroke:#494949;stroke-width:2.3448;stroke-miterlimit:10;}
	.st24{fill:#FFFFFF;stroke:#494949;stroke-width:2.3448;stroke-miterlimit:10;}
	.st25{clip-path:url(#SVGID_30_);fill:none;stroke:#494949;stroke-width:2.3448;stroke-miterlimit:10;}
	.st26{clip-path:url(#SVGID_32_);fill:none;stroke:#494949;stroke-width:2.3448;stroke-miterlimit:10;}
	.st27{clip-path:url(#SVGID_34_);fill:none;stroke:#494949;stroke-width:2.3448;stroke-miterlimit:10;}
	.st28{clip-path:url(#SVGID_36_);fill:none;stroke:#494949;stroke-width:2.3448;stroke-miterlimit:10;}
	.st29{clip-path:url(#SVGID_38_);fill:none;stroke:#494949;stroke-width:2.3448;stroke-miterlimit:10;}
	.st30{clip-path:url(#SVGID_40_);fill:none;stroke:#494949;stroke-width:2.3448;stroke-miterlimit:10;}
	.st31{clip-path:url(#SVGID_42_);fill:none;stroke:#494949;stroke-width:2.3448;stroke-miterlimit:10;}
	.st32{clip-path:url(#SVGID_44_);fill:none;stroke:#494949;stroke-width:2.3448;stroke-miterlimit:10;}
	.st33{clip-path:url(#SVGID_46_);fill:none;stroke:#494949;stroke-width:2.3448;stroke-miterlimit:10;}
	.st34{clip-path:url(#SVGID_48_);fill:none;stroke:#494949;stroke-width:2.3448;stroke-miterlimit:10;}
	.st35{clip-path:url(#SVGID_50_);fill:none;stroke:#494949;stroke-width:2.3448;stroke-miterlimit:10;}
	.st36{clip-path:url(#SVGID_52_);fill:none;stroke:#494949;stroke-width:2.3448;stroke-miterlimit:10;}
	.st37{clip-path:url(#SVGID_54_);fill:none;stroke:#494949;stroke-width:2;stroke-miterlimit:10;}
	.st38{clip-path:url(#SVGID_56_);fill:none;stroke:#494949;stroke-width:2;stroke-miterlimit:10;}
	.st39{clip-path:url(#SVGID_58_);fill:none;stroke:#494949;stroke-width:2;stroke-miterlimit:10;}
	.st40{clip-path:url(#SVGID_60_);fill:none;stroke:#494949;stroke-width:2;stroke-miterlimit:10;}
	.st41{clip-path:url(#SVGID_62_);fill:none;stroke:#494949;stroke-width:2;stroke-miterlimit:10;}
	.st42{clip-path:url(#SVGID_64_);fill:none;stroke:#494949;stroke-width:2;stroke-miterlimit:10;}
	.st43{fill:#FFFFFF;stroke:#494949;stroke-width:2;stroke-miterlimit:10;}
	.st44{fill:none;stroke:#494949;stroke-miterlimit:10;}
	.st45{clip-path:url(#SVGID_66_);fill:none;stroke:#494949;stroke-miterlimit:10;}
	.st46{clip-path:url(#SVGID_68_);fill:none;stroke:#494949;stroke-miterlimit:10;}
	.st47{clip-path:url(#SVGID_70_);fill:none;stroke:#494949;stroke-miterlimit:10;}
	.st48{clip-path:url(#SVGID_72_);fill:none;stroke:#494949;stroke-miterlimit:10;}
	.st49{fill:#FFFFFF;stroke:#494949;stroke-miterlimit:10;}
	.st50{clip-path:url(#SVGID_74_);fill:none;stroke:#494949;stroke-miterlimit:10;}
	.st51{clip-path:url(#SVGID_76_);fill:none;stroke:#494949;stroke-miterlimit:10;}
	.st52{clip-path:url(#SVGID_78_);fill:none;stroke:#494949;stroke-miterlimit:10;}
	.st53{clip-path:url(#SVGID_80_);fill:none;stroke:#494949;stroke-miterlimit:10;}
	.st54{clip-path:url(#SVGID_82_);fill:none;stroke:#494949;stroke-miterlimit:10;}
	.st55{clip-path:url(#SVGID_84_);fill:none;stroke:#494949;stroke-miterlimit:10;}
	.st56{clip-path:url(#SVGID_86_);fill:none;stroke:#494949;stroke-miterlimit:10;}
	.st57{clip-path:url(#SVGID_88_);fill:none;stroke:#494949;stroke-miterlimit:10;}
	.st58{clip-path:url(#SVGID_90_);fill:none;stroke:#494949;stroke-width:2.3448;stroke-miterlimit:10;}
	.st59{clip-path:url(#SVGID_92_);fill:none;stroke:#494949;stroke-width:2.3448;stroke-miterlimit:10;}
	.st60{clip-path:url(#SVGID_94_);fill:none;stroke:#494949;stroke-width:2.3448;stroke-miterlimit:10;}
	.st61{clip-path:url(#SVGID_96_);fill:none;stroke:#494949;stroke-width:2.3448;stroke-miterlimit:10;}
	.st62{clip-path:url(#SVGID_98_);fill:none;stroke:#494949;stroke-width:2.3448;stroke-miterlimit:10;}
	.st63{clip-path:url(#SVGID_100_);fill:none;stroke:#494949;stroke-width:2.3448;stroke-miterlimit:10;}
	.st64{clip-path:url(#SVGID_102_);fill:none;stroke:#494949;stroke-width:2.3448;stroke-miterlimit:10;}
	.st65{clip-path:url(#SVGID_104_);fill:none;stroke:#494949;stroke-width:2.3448;stroke-miterlimit:10;}
	.st66{clip-path:url(#SVGID_106_);fill:none;stroke:#494949;stroke-width:2.3448;stroke-miterlimit:10;}
	.st67{clip-path:url(#SVGID_108_);fill:none;stroke:#494949;stroke-width:2.3448;stroke-miterlimit:10;}
	.st68{clip-path:url(#SVGID_110_);fill:none;stroke:#494949;stroke-width:2.3448;stroke-miterlimit:10;}
	.st69{clip-path:url(#SVGID_112_);fill:none;stroke:#494949;stroke-width:2.3448;stroke-miterlimit:10;}
	.st70{clip-path:url(#SVGID_114_);fill:none;stroke:#494949;stroke-width:2.3448;stroke-miterlimit:10;}
	.st71{clip-path:url(#SVGID_116_);fill:none;stroke:#494949;stroke-width:2.3448;stroke-miterlimit:10;}
	.st72{clip-path:url(#SVGID_118_);fill:none;stroke:#494949;stroke-width:2.3448;stroke-miterlimit:10;}
	.st73{clip-path:url(#SVGID_120_);fill:none;stroke:#494949;stroke-width:2.3448;stroke-miterlimit:10;}
	.st74{clip-path:url(#SVGID_122_);fill:none;stroke:#494949;stroke-width:2.3448;stroke-miterlimit:10;}
	.st75{clip-path:url(#SVGID_124_);fill:none;stroke:#494949;stroke-width:2.3448;stroke-miterlimit:10;}
	.st76{clip-path:url(#SVGID_126_);fill:none;stroke:#494949;stroke-width:2;stroke-miterlimit:10;}
	.st77{clip-path:url(#SVGID_128_);fill:none;stroke:#494949;stroke-width:2;stroke-miterlimit:10;}
	.st78{clip-path:url(#SVGID_130_);fill:none;stroke:#494949;stroke-width:2;stroke-miterlimit:10;}
	.st79{clip-path:url(#SVGID_132_);fill:none;stroke:#494949;stroke-width:2;stroke-miterlimit:10;}
	.st80{clip-path:url(#SVGID_134_);fill:none;stroke:#494949;stroke-width:2;stroke-miterlimit:10;}
	.st81{clip-path:url(#SVGID_136_);fill:none;stroke:#494949;stroke-width:2;stroke-miterlimit:10;}
	.st82{clip-path:url(#SVGID_138_);fill:#494949;}
	.st83{clip-path:url(#SVGID_140_);fill:#494949;}
	.st84{clip-path:url(#SVGID_142_);fill:#494949;}
	.st85{clip-path:url(#SVGID_144_);fill:#494949;}
	.st86{clip-path:url(#SVGID_146_);fill:#494949;}
	.st87{clip-path:url(#SVGID_148_);fill:#494949;}
	.st88{clip-path:url(#SVGID_150_);fill:none;stroke:#494949;stroke-miterlimit:10;}
	.st89{clip-path:url(#SVGID_152_);fill:none;stroke:#494949;stroke-miterlimit:10;}
	.st90{clip-path:url(#SVGID_154_);fill:none;stroke:#494949;stroke-miterlimit:10;}
	.st91{clip-path:url(#SVGID_156_);fill:none;stroke:#494949;stroke-miterlimit:10;}
	.st92{clip-path:url(#SVGID_158_);fill:none;stroke:#494949;stroke-miterlimit:10;}
	.st93{clip-path:url(#SVGID_160_);fill:none;stroke:#494949;stroke-miterlimit:10;}
	.st94{fill:#FFFFFF;stroke:#FFFFFF;stroke-miterlimit:10;}
	.st95{fill:#606060;}
	.st96{fill:#BEAD95;}
	.st97{fill:#494949;stroke:#FFFFFF;stroke-miterlimit:10;}
</style>
<path class="st2" d="M77.43,50c0-1.15,0.77-2.57,1.51-3.96c1.05-1.96,2.14-3.99,1.51-5.92c-0.66-2.01-2.79-3.01-4.85-3.97
	c-1.38-0.65-2.8-1.32-3.44-2.18c-0.64-0.88-0.86-2.45-1.07-3.97c-0.31-2.24-0.63-4.55-2.32-5.78c-1.67-1.21-3.95-0.78-6.16-0.37
	c-1.52,0.29-3.1,0.58-4.16,0.24c-0.99-0.32-2.06-1.45-3.09-2.54c-1.58-1.66-3.21-3.38-5.36-3.38c-2.15,0-3.78,1.72-5.36,3.38
	c-1.03,1.09-2.1,2.21-3.09,2.54c-1.07,0.34-2.64,0.05-4.16-0.24c-2.21-0.41-4.49-0.84-6.16,0.37c-1.69,1.22-2.01,3.54-2.32,5.78
	c-0.21,1.52-0.43,3.09-1.07,3.97c-0.64,0.86-2.06,1.53-3.44,2.18c-2.06,0.97-4.19,1.97-4.85,3.97c-0.63,1.93,0.46,3.96,1.51,5.92
	c0.74,1.38,1.51,2.81,1.51,3.96s-0.77,2.57-1.51,3.96c-1.05,1.96-2.14,3.99-1.51,5.92c0.66,2.01,2.79,3.01,4.85,3.98
	c1.38,0.65,2.8,1.32,3.44,2.18c0.64,0.88,0.86,2.45,1.07,3.97c0.31,2.24,0.63,4.55,2.32,5.78c1.67,1.21,3.95,0.78,6.16,0.37
	c1.52-0.29,3.09-0.58,4.16-0.24c0.99,0.32,2.06,1.45,3.09,2.54c1.58,1.66,3.21,3.38,5.36,3.38c2.15,0,3.79-1.72,5.36-3.38
	c1.03-1.09,2.1-2.21,3.09-2.54c1.06-0.34,2.64-0.05,4.16,0.24c2.2,0.41,4.49,0.84,6.16-0.37c1.69-1.22,2.01-3.54,2.32-5.77
	c0.21-1.52,0.43-3.1,1.07-3.97c0.63-0.86,2.06-1.53,3.44-2.18c2.06-0.97,4.19-1.97,4.85-3.98c0.64-1.93-0.45-3.96-1.51-5.92
	C78.2,52.57,77.43,51.15,77.43,50z M78.55,59.25c-0.39,1.19-2.12,2-3.8,2.79c-1.6,0.75-3.26,1.53-4.2,2.8
	c-0.95,1.29-1.2,3.12-1.44,4.89c-0.25,1.82-0.51,3.71-1.51,4.43c-0.98,0.7-2.83,0.36-4.62,0.02c-1.77-0.33-3.6-0.67-5.14-0.17
	c-1.48,0.47-2.72,1.79-3.93,3.06c-1.29,1.36-2.62,2.76-3.91,2.76c-1.29,0-2.62-1.4-3.91-2.76c-1.21-1.27-2.45-2.59-3.93-3.06
	c-0.56-0.18-1.16-0.25-1.78-0.25c-1.08,0-2.23,0.21-3.36,0.42c-1.79,0.34-3.64,0.68-4.62-0.03c-1-0.72-1.26-2.6-1.51-4.43
	c-0.24-1.77-0.49-3.6-1.44-4.88c-0.94-1.27-2.59-2.05-4.2-2.81c-1.68-0.79-3.41-1.6-3.8-2.79c-0.37-1.12,0.52-2.76,1.37-4.35
	c0.86-1.6,1.75-3.25,1.75-4.9s-0.89-3.3-1.75-4.9c-0.85-1.59-1.74-3.23-1.37-4.35c0.39-1.19,2.13-2,3.8-2.79
	c1.6-0.75,3.26-1.53,4.2-2.8c0.95-1.29,1.2-3.12,1.44-4.88c0.25-1.82,0.51-3.71,1.51-4.43c0.98-0.7,2.83-0.36,4.62-0.03
	c1.77,0.33,3.6,0.67,5.14,0.17c1.48-0.47,2.72-1.79,3.93-3.06c1.29-1.36,2.62-2.76,3.91-2.76c1.29,0,2.63,1.4,3.91,2.76
	c1.21,1.27,2.45,2.58,3.93,3.06c1.54,0.5,3.38,0.16,5.14-0.17c1.79-0.33,3.64-0.68,4.62,0.03c1,0.72,1.26,2.6,1.51,4.43
	c0.24,1.77,0.49,3.6,1.44,4.88c0.94,1.27,2.59,2.05,4.2,2.81c1.68,0.79,3.41,1.6,3.8,2.79c0.37,1.12-0.52,2.76-1.37,4.35
	c-0.86,1.6-1.75,3.25-1.75,4.9s0.89,3.3,1.75,4.9C78.03,56.49,78.92,58.13,78.55,59.25z M50,33.03c-9.48,0-17.17,7.6-17.17,16.97
	c0,9.37,7.69,16.97,17.17,16.97c9.48,0,17.17-7.6,17.17-16.97C67.17,40.63,59.48,33.03,50,33.03z"/>
</svg>
