<?xml version="1.0" encoding="utf-8"?>
<!-- Generator: Adobe Illustrator 23.0.1, SVG Export Plug-In . SVG Version: 6.00 Build 0)  -->
<svg version="1.1" id="Layer_1" xmlns="http://www.w3.org/2000/svg" xmlns:xlink="http://www.w3.org/1999/xlink" x="0px" y="0px"
	 viewBox="0 0 100 100" style="enable-background:new 0 0 100 100;" xml:space="preserve">
<style type="text/css">
	.st0{fill:#494949;}
	.st1{fill:none;stroke:#494949;stroke-width:0.9393;stroke-miterlimit:10;}
	.st2{fill:#FFFFFF;}
	.st3{fill:none;stroke:#494949;stroke-width:4;stroke-miterlimit:10;}
	.st4{clip-path:url(#SVGID_2_);fill:#494949;}
	.st5{fill:none;stroke:#494949;stroke-width:3.7875;stroke-miterlimit:10;}
	.st6{clip-path:url(#SVGID_4_);fill:#494949;}
	.st7{fill:none;stroke:#494949;stroke-width:7.575;stroke-miterlimit:10;}
	.st8{fill:none;stroke:#494949;stroke-width:1.8935;stroke-miterlimit:10;}
	.st9{fill:none;stroke:#494949;stroke-width:2;stroke-miterlimit:10;}
	.st10{fill:none;}
	.st11{clip-path:url(#SVGID_6_);fill:none;stroke:#494949;stroke-width:2;stroke-miterlimit:10;}
	.st12{clip-path:url(#SVGID_8_);fill:none;stroke:#494949;stroke-width:2;stroke-miterlimit:10;}
	.st13{clip-path:url(#SVGID_10_);fill:none;stroke:#494949;stroke-width:2;stroke-miterlimit:10;}
	.st14{clip-path:url(#SVGID_12_);fill:none;stroke:#494949;stroke-width:2;stroke-miterlimit:10;}
	.st15{clip-path:url(#SVGID_14_);fill:none;stroke:#494949;stroke-width:2;stroke-miterlimit:10;}
	.st16{clip-path:url(#SVGID_16_);fill:none;stroke:#494949;stroke-width:2;stroke-miterlimit:10;}
	.st17{fill:none;stroke:#494949;stroke-width:2.3448;stroke-miterlimit:10;}
	.st18{clip-path:url(#SVGID_18_);fill:none;stroke:#494949;stroke-width:2.3448;stroke-miterlimit:10;}
	.st19{clip-path:url(#SVGID_20_);fill:none;stroke:#494949;stroke-width:2.3448;stroke-miterlimit:10;}
	.st20{clip-path:url(#SVGID_22_);fill:none;stroke:#494949;stroke-width:2.3448;stroke-miterlimit:10;}
	.st21{clip-path:url(#SVGID_24_);fill:none;stroke:#494949;stroke-width:2.3448;stroke-miterlimit:10;}
	.st22{clip-path:url(#SVGID_26_);fill:none;stroke:#494949;stroke-width:2.3448;stroke-miterlimit:10;}
	.st23{clip-path:url(#SVGID_28_);fill:none;stroke:#494949;stroke-width:2.3448;stroke-miterlimit:10;}
	.st24{fill:#FFFFFF;stroke:#494949;stroke-width:2.3448;stroke-miterlimit:10;}
	.st25{clip-path:url(#SVGID_30_);fill:none;stroke:#494949;stroke-width:2.3448;stroke-miterlimit:10;}
	.st26{clip-path:url(#SVGID_32_);fill:none;stroke:#494949;stroke-width:2.3448;stroke-miterlimit:10;}
	.st27{clip-path:url(#SVGID_34_);fill:none;stroke:#494949;stroke-width:2.3448;stroke-miterlimit:10;}
	.st28{clip-path:url(#SVGID_36_);fill:none;stroke:#494949;stroke-width:2.3448;stroke-miterlimit:10;}
	.st29{clip-path:url(#SVGID_38_);fill:none;stroke:#494949;stroke-width:2.3448;stroke-miterlimit:10;}
	.st30{clip-path:url(#SVGID_40_);fill:none;stroke:#494949;stroke-width:2.3448;stroke-miterlimit:10;}
	.st31{clip-path:url(#SVGID_42_);fill:none;stroke:#494949;stroke-width:2.3448;stroke-miterlimit:10;}
	.st32{clip-path:url(#SVGID_44_);fill:none;stroke:#494949;stroke-width:2.3448;stroke-miterlimit:10;}
	.st33{clip-path:url(#SVGID_46_);fill:none;stroke:#494949;stroke-width:2.3448;stroke-miterlimit:10;}
	.st34{clip-path:url(#SVGID_48_);fill:none;stroke:#494949;stroke-width:2.3448;stroke-miterlimit:10;}
	.st35{clip-path:url(#SVGID_50_);fill:none;stroke:#494949;stroke-width:2.3448;stroke-miterlimit:10;}
	.st36{clip-path:url(#SVGID_52_);fill:none;stroke:#494949;stroke-width:2.3448;stroke-miterlimit:10;}
	.st37{clip-path:url(#SVGID_54_);fill:none;stroke:#494949;stroke-width:2;stroke-miterlimit:10;}
	.st38{clip-path:url(#SVGID_56_);fill:none;stroke:#494949;stroke-width:2;stroke-miterlimit:10;}
	.st39{clip-path:url(#SVGID_58_);fill:none;stroke:#494949;stroke-width:2;stroke-miterlimit:10;}
	.st40{clip-path:url(#SVGID_60_);fill:none;stroke:#494949;stroke-width:2;stroke-miterlimit:10;}
	.st41{clip-path:url(#SVGID_62_);fill:none;stroke:#494949;stroke-width:2;stroke-miterlimit:10;}
	.st42{clip-path:url(#SVGID_64_);fill:none;stroke:#494949;stroke-width:2;stroke-miterlimit:10;}
	.st43{fill:#FFFFFF;stroke:#494949;stroke-width:2;stroke-miterlimit:10;}
	.st44{fill:none;stroke:#494949;stroke-miterlimit:10;}
	.st45{clip-path:url(#SVGID_66_);fill:none;stroke:#494949;stroke-miterlimit:10;}
	.st46{clip-path:url(#SVGID_68_);fill:none;stroke:#494949;stroke-miterlimit:10;}
	.st47{clip-path:url(#SVGID_70_);fill:none;stroke:#494949;stroke-miterlimit:10;}
	.st48{clip-path:url(#SVGID_72_);fill:none;stroke:#494949;stroke-miterlimit:10;}
	.st49{fill:#FFFFFF;stroke:#494949;stroke-miterlimit:10;}
	.st50{clip-path:url(#SVGID_74_);fill:none;stroke:#494949;stroke-miterlimit:10;}
	.st51{clip-path:url(#SVGID_76_);fill:none;stroke:#494949;stroke-miterlimit:10;}
	.st52{clip-path:url(#SVGID_78_);fill:none;stroke:#494949;stroke-miterlimit:10;}
	.st53{clip-path:url(#SVGID_80_);fill:none;stroke:#494949;stroke-miterlimit:10;}
	.st54{clip-path:url(#SVGID_82_);fill:none;stroke:#494949;stroke-miterlimit:10;}
	.st55{clip-path:url(#SVGID_84_);fill:none;stroke:#494949;stroke-miterlimit:10;}
	.st56{clip-path:url(#SVGID_86_);fill:none;stroke:#494949;stroke-miterlimit:10;}
	.st57{clip-path:url(#SVGID_88_);fill:none;stroke:#494949;stroke-miterlimit:10;}
	.st58{clip-path:url(#SVGID_90_);fill:none;stroke:#494949;stroke-width:2.3448;stroke-miterlimit:10;}
	.st59{clip-path:url(#SVGID_92_);fill:none;stroke:#494949;stroke-width:2.3448;stroke-miterlimit:10;}
	.st60{clip-path:url(#SVGID_94_);fill:none;stroke:#494949;stroke-width:2.3448;stroke-miterlimit:10;}
	.st61{clip-path:url(#SVGID_96_);fill:none;stroke:#494949;stroke-width:2.3448;stroke-miterlimit:10;}
	.st62{clip-path:url(#SVGID_98_);fill:none;stroke:#494949;stroke-width:2.3448;stroke-miterlimit:10;}
	.st63{clip-path:url(#SVGID_100_);fill:none;stroke:#494949;stroke-width:2.3448;stroke-miterlimit:10;}
	.st64{clip-path:url(#SVGID_102_);fill:none;stroke:#494949;stroke-width:2.3448;stroke-miterlimit:10;}
	.st65{clip-path:url(#SVGID_104_);fill:none;stroke:#494949;stroke-width:2.3448;stroke-miterlimit:10;}
	.st66{clip-path:url(#SVGID_106_);fill:none;stroke:#494949;stroke-width:2.3448;stroke-miterlimit:10;}
	.st67{clip-path:url(#SVGID_108_);fill:none;stroke:#494949;stroke-width:2.3448;stroke-miterlimit:10;}
	.st68{clip-path:url(#SVGID_110_);fill:none;stroke:#494949;stroke-width:2.3448;stroke-miterlimit:10;}
	.st69{clip-path:url(#SVGID_112_);fill:none;stroke:#494949;stroke-width:2.3448;stroke-miterlimit:10;}
	.st70{clip-path:url(#SVGID_114_);fill:none;stroke:#494949;stroke-width:2.3448;stroke-miterlimit:10;}
	.st71{clip-path:url(#SVGID_116_);fill:none;stroke:#494949;stroke-width:2.3448;stroke-miterlimit:10;}
	.st72{clip-path:url(#SVGID_118_);fill:none;stroke:#494949;stroke-width:2.3448;stroke-miterlimit:10;}
	.st73{clip-path:url(#SVGID_120_);fill:none;stroke:#494949;stroke-width:2.3448;stroke-miterlimit:10;}
	.st74{clip-path:url(#SVGID_122_);fill:none;stroke:#494949;stroke-width:2.3448;stroke-miterlimit:10;}
	.st75{clip-path:url(#SVGID_124_);fill:none;stroke:#494949;stroke-width:2.3448;stroke-miterlimit:10;}
	.st76{clip-path:url(#SVGID_126_);fill:none;stroke:#494949;stroke-width:2;stroke-miterlimit:10;}
	.st77{clip-path:url(#SVGID_128_);fill:none;stroke:#494949;stroke-width:2;stroke-miterlimit:10;}
	.st78{clip-path:url(#SVGID_130_);fill:none;stroke:#494949;stroke-width:2;stroke-miterlimit:10;}
	.st79{clip-path:url(#SVGID_132_);fill:none;stroke:#494949;stroke-width:2;stroke-miterlimit:10;}
	.st80{clip-path:url(#SVGID_134_);fill:none;stroke:#494949;stroke-width:2;stroke-miterlimit:10;}
	.st81{clip-path:url(#SVGID_136_);fill:none;stroke:#494949;stroke-width:2;stroke-miterlimit:10;}
	.st82{clip-path:url(#SVGID_138_);fill:#494949;}
	.st83{clip-path:url(#SVGID_140_);fill:#494949;}
	.st84{clip-path:url(#SVGID_142_);fill:#494949;}
	.st85{clip-path:url(#SVGID_144_);fill:#494949;}
	.st86{clip-path:url(#SVGID_146_);fill:#494949;}
	.st87{clip-path:url(#SVGID_148_);fill:#494949;}
	.st88{clip-path:url(#SVGID_150_);fill:none;stroke:#494949;stroke-miterlimit:10;}
	.st89{clip-path:url(#SVGID_152_);fill:none;stroke:#494949;stroke-miterlimit:10;}
	.st90{clip-path:url(#SVGID_154_);fill:none;stroke:#494949;stroke-miterlimit:10;}
	.st91{clip-path:url(#SVGID_156_);fill:none;stroke:#494949;stroke-miterlimit:10;}
	.st92{clip-path:url(#SVGID_158_);fill:none;stroke:#494949;stroke-miterlimit:10;}
	.st93{clip-path:url(#SVGID_160_);fill:none;stroke:#494949;stroke-miterlimit:10;}
	.st94{fill:#FFFFFF;stroke:#FFFFFF;stroke-miterlimit:10;}
	.st95{fill:#606060;}
	.st96{fill:#BEAD95;}
	.st97{fill:#494949;stroke:#FFFFFF;stroke-miterlimit:10;}
</style>
<g>
	<path class="st2" d="M82.6,57.81c-0.31-1.22-0.95-2.45-1.6-3.66c-0.79-1.48-1.62-3.01-1.62-4.24s0.82-2.76,1.62-4.24
		c1.13-2.1,2.3-4.27,1.61-6.34c-0.71-2.15-2.99-3.22-5.19-4.26c-1.48-0.69-3-1.41-3.68-2.33c-0.69-0.94-0.92-2.63-1.15-4.25
		c-0.33-2.4-0.67-4.88-2.49-6.19c-1.79-1.29-4.23-0.84-6.6-0.4c-1.63,0.3-3.31,0.62-4.46,0.25c-1.06-0.34-2.2-1.55-3.31-2.72
		c-1.69-1.78-3.44-3.63-5.74-3.63c-2.31,0-4.05,1.84-5.74,3.63c-1.1,1.17-2.25,2.37-3.31,2.72c-1.14,0.36-2.83,0.05-4.46-0.25
		c-2.36-0.44-4.81-0.9-6.6,0.4c-1.81,1.31-2.15,3.79-2.48,6.18c-0.22,1.63-0.46,3.31-1.15,4.25c-0.68,0.92-2.21,1.64-3.68,2.33
		c-2.21,1.04-4.49,2.11-5.2,4.26c-0.68,2.07,0.49,4.24,1.62,6.34c0.79,1.48,1.62,3.01,1.62,4.24S19.8,52.68,19,54.16
		c-0.65,1.21-1.29,2.44-1.6,3.66c-3.53,2.69-5.81,6.9-5.81,11.64c0,8.12,6.68,14.72,14.89,14.72h47.03c8.21,0,14.89-6.6,14.89-14.72
		C88.4,64.72,86.12,60.51,82.6,57.81z M20.89,55.17c0.92-1.71,1.87-3.48,1.87-5.25c0-1.77-0.95-3.54-1.87-5.25
		c-0.91-1.7-1.86-3.46-1.47-4.66c0.42-1.27,2.28-2.15,4.07-2.99c1.72-0.81,3.49-1.64,4.5-3c1.01-1.38,1.28-3.34,1.54-5.23
		c0.27-1.95,0.54-3.97,1.61-4.74c1.05-0.75,3.03-0.39,4.95-0.03c1.89,0.35,3.86,0.72,5.51,0.18c1.58-0.51,2.92-1.92,4.21-3.28
		c1.38-1.45,2.81-2.96,4.19-2.96c1.38,0,2.81,1.5,4.19,2.96c1.29,1.36,2.63,2.77,4.21,3.28c1.65,0.53,3.61,0.17,5.51-0.18
		c1.92-0.36,3.9-0.72,4.95,0.03c1.07,0.77,1.35,2.79,1.62,4.74c0.26,1.89,0.53,3.85,1.54,5.23c1,1.36,2.78,2.2,4.5,3.01
		c1.79,0.84,3.65,1.72,4.07,2.99c0.39,1.19-0.55,2.96-1.47,4.66c-0.92,1.71-1.87,3.48-1.87,5.25c0,1.77,0.95,3.54,1.87,5.25
		c0.15,0.28,0.29,0.56,0.44,0.84c-1.85-0.81-3.88-1.27-6.03-1.27c-1.69,0-3.34,0.28-4.93,0.83c0,0,0-0.01,0-0.01
		c0.56-1.78,0.88-3.67,0.88-5.63c0-10.61-8.73-19.24-19.46-19.24c-10.73,0-19.47,8.63-19.47,19.24c0,1.96,0.32,3.85,0.88,5.63
		c0,0.01,0,0.01-0.01,0.01c-1.59-0.55-3.24-0.83-4.93-0.83c-2.15,0-4.19,0.46-6.03,1.27C20.59,55.73,20.74,55.45,20.89,55.17z
		 M73.52,82.17H26.48c-7.11,0-12.89-5.71-12.89-12.72c0-7.01,5.78-12.72,12.89-12.72c1.79,0,3.54,0.37,5.19,1.08l1.08,0.47
		l0.29-1.14C35,49.45,41.97,44.07,50,44.07c8.03,0,15,5.38,16.96,13.08l0.29,1.14l1.08-0.47c1.65-0.72,3.4-1.08,5.19-1.08
		c7.11,0,12.89,5.71,12.89,12.72C86.4,76.47,80.62,82.17,73.52,82.17z"/>
</g>
</svg>
