<svg width="321" height="392" viewBox="0 0 321 392" fill="none" xmlns="http://www.w3.org/2000/svg">
<g clip-path="url(#clip0_204_562)">
<path d="M164.63 124.638C164.63 125.623 164.91 126.608 163.93 127.312C165.26 128.438 163.44 129.001 163.44 129.916C163.44 130.76 162.6 131.605 162.46 132.52C162.11 134.631 160.22 136.109 160.01 138.361C159.94 139.346 158.54 140.191 157.84 141.247C156.09 144.062 154.27 146.877 152.241 149.551C149.791 152.718 147.411 155.885 145.101 159.052C143.491 161.163 142.021 163.345 140.411 165.456C139.921 166.09 139.361 166.582 138.731 167.145C138.591 167.286 138.171 167.427 138.171 167.497C138.171 169.82 136.492 171.157 135.232 172.705C133.902 174.324 132.432 175.802 131.242 177.491C129.772 179.532 128.512 181.713 126.832 183.614C126.552 183.966 126.482 184.599 126.132 184.81C122.772 187.062 121.303 190.933 118.573 193.818C118.013 194.452 116.193 194.452 117.033 196.141C116.263 196.985 115.143 197.689 114.863 198.674C114.513 199.941 113.463 200.363 112.903 201.278C112.413 202.193 112.203 203.46 111.503 204.093C109.403 205.994 108.423 208.668 106.883 210.92C105.414 213.102 104.294 215.565 102.614 217.535C99.1839 221.547 96.804 226.332 93.7242 230.555C92.3943 232.315 91.1344 234.215 90.5044 236.467C90.2944 237.311 89.6645 238.226 89.0345 238.86C86.4447 241.182 86.0947 244.982 83.2949 247.094C83.6449 248.994 81.615 249.135 80.985 250.261C80.2851 251.457 80.0051 252.935 79.2351 254.061C77.4852 256.524 75.5954 258.847 73.7055 261.239C73.3555 261.732 72.5855 262.084 72.5156 262.647C71.6756 266.095 69.0858 268.348 67.0559 271.022C66.8459 271.303 66.4259 271.585 66.4259 271.866C66.4259 273.555 65.236 274.4 64.2561 275.526C63.4161 276.511 62.9961 277.989 62.0162 279.115C61.3162 279.889 60.4763 280.875 60.4763 281.86C60.4063 283.127 58.2364 282.282 58.8664 283.831C57.6765 285.52 56.8365 287.49 55.2966 288.757C53.1268 290.516 52.9168 293.613 50.5369 295.161C48.997 299.102 45.7772 301.988 43.8873 305.647C43.3274 306.773 42.9074 308.462 41.9975 308.955C39.6876 310.011 39.5476 312.333 38.7777 314.093C37.9377 315.993 35.6978 316.626 35.4179 318.738C33.458 319.16 33.458 321.201 32.618 322.467C31.7781 323.734 31.2881 325.283 30.1682 326.338C29.7482 326.69 29.6082 327.324 29.3282 327.887C27.7183 331.687 25.1985 334.783 22.8886 338.091C20.7888 341.047 18.6189 343.862 16.589 346.818C15.1191 348.929 13.9292 351.252 12.3193 353.996C14.9091 353.152 16.939 352.448 18.9689 351.885C19.5989 351.744 20.4388 351.744 20.9988 352.026C21.6287 352.307 21.7687 352.448 21.8387 351.674C22.0487 350.478 23.4486 350.196 23.9386 350.266C25.9685 350.548 27.7883 349.211 29.6782 349.422C31.9881 349.703 34.0879 349 36.1178 348.437C37.6577 348.014 39.1976 347.733 40.7375 347.874C43.4674 348.014 45.9872 346.255 48.787 346.888C49.417 345.973 50.3969 346.466 51.1669 346.325C52.3568 346.114 53.4767 346.607 54.7367 345.692C55.4366 345.199 57.0465 345.129 58.2364 346.044C58.6564 346.396 59.7764 346.325 60.1963 345.973C61.3163 344.988 62.1562 345.833 63.0661 346.185C63.4861 345.762 63.9761 345.27 64.3961 344.847C65.236 345.973 66.4259 345.622 67.4759 345.551C68.1058 345.551 68.8058 344.918 69.4357 344.918C70.0657 344.918 71.1856 345.622 71.2556 345.481C72.0256 344.355 72.4456 345.692 73.0055 345.622C73.4955 345.622 74.0555 345.622 74.4054 345.41C75.8054 344.425 77.4153 344.636 78.6752 344.988C79.6551 345.27 80.2851 345.833 81.055 344.918C81.895 346.255 82.5949 345.129 83.5049 344.918C84.5548 344.707 85.7447 344.918 86.8647 344.847C87.9146 344.707 89.0345 344.566 89.9445 344.073C91.3444 343.369 92.5343 345.481 93.8642 344.073C94.7742 345.059 95.6841 345.199 96.734 344.214C96.874 344.073 97.294 344.003 97.364 344.073C98.9039 345.903 100.164 343.44 101.494 344.073C102.194 342.384 100.724 340.906 101.494 339.428C102.264 337.88 100.934 335.91 102.474 334.572C100.864 333.376 102.824 331.898 102.404 331.053C101.634 329.576 102.824 329.013 103.034 328.027C103.174 327.464 103.244 326.831 103.314 326.268C103.314 324.72 103.314 323.242 103.314 321.693C99.9538 320.919 96.6641 320.427 93.1643 320.567C92.4643 320.567 91.7644 320.286 91.1344 320.075C90.9244 320.075 90.7144 319.934 90.5044 319.793C89.3845 319.089 88.7545 321.271 87.4946 320.286C86.7947 319.723 85.8147 319.371 84.9048 319.23C83.8549 319.019 82.6649 319.23 81.545 319.019C79.7951 318.808 77.6952 318.878 76.3653 317.963C74.8954 316.978 73.2855 316.767 71.8856 315.922C70.3457 315.008 69.7857 311.629 70.8357 310.222C71.6756 309.166 71.8856 307.407 73.7055 307.407C73.4255 306.844 73.1455 306.351 72.5855 305.366C73.2855 305.577 73.5655 305.647 73.7755 305.718C74.1255 305.858 74.4054 305.929 74.7554 306.07C75.0354 304.31 77.2753 304.944 77.8352 303.747C78.4652 302.551 79.7251 303.958 79.6551 303.395C79.5151 301.917 80.775 302.34 81.335 301.847C82.105 301.214 82.2449 301.354 83.9248 302.199C84.1348 301.706 84.4148 301.214 84.6948 300.58C85.4648 300.932 86.1647 301.284 87.0746 301.706C87.2146 300.791 87.3546 300.088 87.4946 299.102C88.1246 299.313 88.6146 299.525 89.1745 299.736C89.5945 299.173 90.0845 298.399 90.7144 297.484C90.9244 298.117 91.0644 298.539 91.3444 299.313C91.9044 298.75 92.3243 298.258 92.8143 297.836C93.2343 297.484 93.6542 297.202 94.0742 296.921C94.5642 296.85 95.1242 296.921 95.4741 296.639C96.2441 295.865 98.3439 294.669 99.1139 294.739C99.1839 294.739 99.2539 294.95 99.3939 295.02C99.5339 295.02 100.374 294.317 100.444 294.035C101.494 294.317 102.614 294.528 103.944 294.88C103.594 293.965 103.384 293.402 103.104 292.557H105.134C105.414 291.431 105.763 290.376 105.833 289.32C105.903 288.335 105.623 287.349 106.113 286.294C106.533 285.379 106.603 284.253 106.883 283.267C107.233 282.141 106.883 280.945 107.583 279.749C107.933 279.186 109.473 277.989 107.513 276.863C108.213 276.371 108.843 276.019 109.193 275.737C108.843 274.893 108.353 274.189 108.563 273.837C109.613 271.726 110.033 269.544 109.963 267.222C109.963 266.236 109.963 265.321 110.663 264.477C111.153 263.843 111.433 263.069 110.803 262.084C110.453 261.521 111.223 260.325 111.433 259.41C111.713 258.354 111.923 257.369 112.203 256.313C110.733 255.539 112.763 254.694 112.203 253.92C112.063 253.709 112.133 253.428 112.203 253.146C112.553 252.302 113.113 251.457 113.323 250.613C113.463 249.979 113.043 249.205 113.183 248.572C113.673 246.531 114.723 244.771 117.033 244.067C117.243 244.138 117.173 243.997 117.033 243.856C116.893 243.997 116.823 244.067 116.683 244.208C116.823 244.349 116.963 244.49 117.103 244.56C117.103 244.56 117.243 244.419 116.963 244.138C116.753 243.364 116.263 242.449 117.243 242.449C118.083 242.449 118.643 240.83 119.833 242.027C120.113 242.308 121.023 242.027 121.932 241.886C123.542 243.012 124.452 245.053 125.082 247.305C125.642 249.205 126.552 250.964 126.902 252.935C126.902 253.287 127.322 253.78 127.252 253.92C126.622 254.765 126.132 255.398 127.252 256.383C127.812 256.946 126.832 258.354 127.812 259.128C127.672 262.084 129.142 264.688 129.702 267.433C130.332 270.459 130.542 273.837 132.852 276.3C133.972 277.497 132.852 278.975 133.692 280.312C134.182 280.312 134.952 280.382 135.302 280.101C136.002 279.608 136.352 279.326 137.192 279.96C137.682 280.312 138.591 280.382 139.291 280.241C140.271 280.101 141.111 278.693 142.091 280.241C144.261 279.045 146.641 279.678 148.881 279.397C149.581 279.326 150.281 278.974 150.981 278.834C151.821 278.623 152.731 278.552 153.291 279.467C154.2 278.271 155.53 278.904 157.63 279.186C158.05 279.045 157.84 278.763 157.77 278.763C157.42 278.763 157.07 278.974 156.72 279.115C157.21 279.256 157.63 279.397 157.63 279.186C156.72 277.708 157.63 277.778 158.05 278.06C160.01 279.186 162.04 278.623 164.21 278.341C163.51 278.2 162.81 277.989 162.11 277.848C162.25 277.637 162.32 277.356 162.46 277.356C164.14 277.004 165.96 277.919 167.5 276.793C167.71 277.074 167.85 277.426 168.06 277.637C168.69 278.271 169.25 278.482 169.53 277.356C170.019 277.074 170.509 276.863 171.069 276.582C171.279 276.863 171.419 277.074 171.629 277.356C171.909 277.074 172.259 276.863 172.539 276.582C174.219 276.371 175.619 277.074 176.739 278.2C177.229 278.693 177.859 279.537 177.719 279.96C177.229 281.367 179.259 282.282 177.929 283.971C176.249 286.153 175.409 287.983 173.239 289.883C170.719 292.065 168.27 294.387 165.82 296.569C165.26 297.061 164.56 297.273 164.07 297.765C163.02 298.821 161.55 299.313 160.78 300.791C160.36 301.706 159.45 302.34 158.05 302.41C156.23 302.551 154.97 303.958 153.501 305.084C154.83 307.477 156.79 309.448 156.72 312.263C156.72 312.755 157.49 313.178 157.77 313.67C158.4 314.656 159.24 315.571 159.59 316.697C160.08 318.104 158.68 320.215 161.13 320.99C161.27 320.99 161.27 321.975 161.13 322.467C160.71 324.016 162.32 324.579 162.6 325.634C163.09 327.394 163.16 329.224 163.44 330.983C163.58 331.687 164.07 332.32 164.07 332.954C164.07 334.502 166.17 334.995 165.75 336.895C165.54 338.091 166.24 339.428 166.52 340.765C168.48 341.117 170.439 341.54 172.469 341.68C174.569 341.821 176.809 341.962 178.839 341.68C179.959 341.54 180.869 342.947 181.989 341.892C182.759 343.088 184.299 340.625 184.859 342.525C186.118 342.525 187.378 342.314 188.638 342.525C191.718 343.158 194.798 344.003 197.878 344.777C198.228 344.847 198.578 344.988 198.858 345.129C202.287 347.24 205.927 348.718 209.637 350.126C211.947 350.97 214.257 351.674 216.427 353.011C218.946 354.559 222.096 355.122 224.896 356.178C225.736 356.46 226.716 356.741 227.486 357.304C229.236 358.571 230.846 360.049 232.876 361.738V358.571C232.876 357.445 233.296 355.897 232.736 355.263C231.966 354.419 233.016 353.715 232.386 352.941C231.966 352.378 232.176 351.252 232.106 350.407C232.036 349.14 232.456 347.733 231.476 346.607C233.366 345.34 230.776 344.355 231.266 342.947C231.686 341.751 231.546 340.202 231.266 338.795C231.126 338.021 230.356 337.387 229.726 336.473C230.216 336.191 230.846 335.839 231.826 335.206C230.916 334.995 230.566 334.924 229.936 334.783C230.006 333.517 229.236 332.039 230.636 330.702C230.146 330.35 229.726 329.927 229.306 329.576C229.516 328.661 230.006 327.816 229.796 327.183C229.516 326.409 229.516 325.846 229.796 325.071C229.936 324.579 229.236 323.805 229.166 323.101C229.166 322.397 229.516 321.764 229.586 321.06C229.586 320.427 229.516 319.864 229.446 318.949C229.656 318.738 230.076 318.315 230.776 317.611C230.286 317.33 229.726 317.048 229.446 316.908C229.656 315.43 230.146 314.163 229.866 313.178C228.606 309.87 229.446 306.492 229.166 303.184C229.026 301.636 229.726 299.947 228.396 298.539C229.516 296.991 228.046 295.443 228.396 293.824C228.676 292.628 228.886 291.079 228.396 290.094C227.766 288.898 228.956 287.912 228.396 287.349C227.346 286.223 227.906 284.957 227.696 283.831C227.486 282.775 228.256 281.508 227.066 280.664C228.116 278.623 226.576 276.652 226.856 274.541C227.206 271.866 227.136 269.192 226.296 266.518C226.016 265.603 225.176 264.406 226.226 263.351C225.316 262.436 225.176 261.521 226.226 260.536C224.266 257.158 226.716 253.146 224.686 249.768C224.126 248.783 225.876 248.36 224.966 247.234C224.476 246.601 224.756 245.334 224.686 244.349C224.686 243.364 224.686 242.308 224.686 241.323C224.686 240.408 224.476 239.493 224.686 238.648C224.966 237.874 223.146 237.311 224.546 236.537C224.056 235.974 223.636 235.411 223.146 234.848C223.146 233.933 223.146 232.878 223.146 231.892C222.936 226.332 222.656 220.702 222.376 215.143C222.376 214.509 222.026 213.946 222.026 213.313C222.026 212.468 222.376 211.624 222.376 210.85C222.376 210.216 221.536 209.231 221.746 208.949C222.516 207.753 221.606 206.768 221.676 205.712C221.676 204.304 221.676 202.897 221.676 201.56C221.676 200.293 221.816 199.026 221.676 197.759C221.396 195.718 222.516 193.537 220.976 191.566C220.836 191.425 221.116 190.862 221.256 190.581C222.376 188.892 220.836 187.062 221.466 185.373C220.486 184.599 220.906 183.543 220.906 182.558C220.906 174.746 220.906 166.864 220.906 159.052C220.906 157.504 221.396 155.955 221.606 154.407C221.886 152.859 221.046 151.24 222.306 149.692C222.796 149.059 222.376 147.721 222.376 147.158C223.426 145.962 224.266 145.047 225.246 143.991C225.386 144.836 225.456 145.54 225.596 146.455C225.946 146.173 226.226 145.962 226.506 145.751C226.646 145.892 226.856 145.962 226.926 146.103C227.486 148.425 227.696 150.888 228.746 152.929C229.376 154.126 227.766 154.266 228.466 155.111C228.956 155.744 229.516 156.448 229.726 157.222C229.866 157.645 229.376 158.208 229.236 158.7C229.096 159.193 230.356 159.334 229.586 160.108C229.376 160.319 229.726 160.952 229.726 161.445C229.726 161.656 229.446 161.797 229.306 162.008C230.636 163.064 229.446 164.823 230.146 165.808C231.196 167.145 230.776 168.483 230.636 169.749C230.496 171.016 231.826 172.142 230.776 173.339C231.616 174.887 231.406 176.646 231.546 178.335C231.616 179.391 232.526 180.799 232.176 181.362C231.266 182.558 232.316 183.332 232.316 184.247C232.316 185.443 233.366 186.992 232.876 187.625C231.896 188.962 233.436 189.736 233.086 190.933C232.596 192.552 234.695 194.241 233.086 196C232.876 196.211 233.786 197.689 233.576 197.759C232.456 198.604 233.856 198.956 233.786 199.519C233.576 200.786 235.115 202.123 233.786 203.46C234.066 205.642 233.086 207.964 234.485 210.005C234.695 210.287 234.695 210.85 234.485 211.131C233.576 212.257 233.576 213.383 234.345 214.65C233.016 215.846 234.135 216.832 234.555 217.887C234.555 218.028 234.555 218.169 234.555 218.239C233.296 220.421 234.905 222.18 235.255 224.151C235.395 224.995 236.095 225.769 235.465 226.966C234.835 228.233 236.375 229.851 236.165 231.54C235.955 232.948 236.305 234.496 236.375 235.974C236.375 237.03 236.235 238.085 236.515 239.071C236.865 240.197 236.515 241.112 236.515 242.167C236.375 244.631 236.515 247.164 237.215 249.557C237.495 250.542 235.815 251.105 237.145 252.02C237.565 252.302 237.215 253.428 237.565 254.202C237.915 255.046 237.285 256.243 238.405 256.876C236.515 258.213 238.615 259.48 238.405 260.817C238.195 261.943 238.195 263.14 238.055 264.195C237.705 266.799 238.265 269.122 239.175 271.515C237.915 272.992 240.295 274.893 238.755 276.441C238.615 276.582 239.105 277.356 239.175 277.848C239.315 279.045 238.895 280.312 239.875 281.297C238.475 282.423 239.875 283.479 239.875 284.464C239.875 285.449 239.315 286.434 239.735 287.56C239.805 287.772 239.665 288.124 239.595 288.335C241.555 287.983 239.385 290.164 240.715 290.235C239.595 290.798 240.995 291.924 240.155 292.768C239.665 293.261 241.345 294.669 240.155 295.795C241.275 296.709 240.225 298.117 240.785 298.891C241.695 300.228 240.925 301.284 240.785 302.48C240.575 303.818 240.925 305.366 240.365 306.492C239.455 308.322 241.555 306.844 241.345 307.618C240.645 309.025 240.715 309.307 240.715 311.559C240.715 313.248 241.345 315.078 240.225 316.626C241.695 319.301 239.805 322.397 241.345 325.071C241.555 325.353 240.925 326.057 240.925 326.62C240.925 327.042 241.625 327.675 241.485 327.746C240.435 328.872 241.555 329.927 241.555 330.983C241.555 332.18 242.115 333.306 242.255 334.502C242.395 335.769 241.835 337.247 242.395 338.232C244.005 341.329 242.045 344.847 243.655 347.944C243.865 348.366 243.095 349.211 243.095 349.844C243.095 351.815 243.095 353.715 243.725 355.615C244.145 356.741 244.285 358.289 243.095 359.415C244.285 360.401 243.795 361.738 243.725 362.934C243.725 364.271 244.425 365.749 243.165 366.875C244.775 368.213 242.185 369.62 243.095 370.746C244.285 372.224 242.115 373.42 243.095 374.687C243.935 375.743 241.835 376.376 242.885 377.643C243.235 377.995 242.465 379.332 242.255 380.106C240.925 380.74 239.455 379.754 238.265 380.88C238.055 381.092 237.005 380.669 236.445 380.317C235.465 379.684 234.555 378.91 233.576 378.206C232.736 379.051 231.686 378.98 230.496 379.121C227.906 379.473 225.386 380.317 222.726 380.388C221.046 380.388 219.436 381.021 217.757 381.021C216.077 381.021 214.677 381.443 213.417 382.429C213.277 382.569 212.927 382.569 212.717 382.569C209.637 382.006 206.627 383.273 203.617 383.344C202.077 383.344 200.538 383.766 198.998 384.047C197.458 384.329 195.778 383.344 194.378 384.751C194.028 385.033 193.118 384.892 192.558 384.751C190.318 384.258 188.218 385.244 186.118 385.736C183.529 386.299 181.079 387.144 178.419 387.074C177.579 387.074 174.359 387.918 173.799 388.129C173.239 388.34 172.679 388.552 172.119 388.622C171.279 388.692 170.369 388.622 169.46 388.622C165.61 388.833 161.69 388.763 157.98 389.466C155.39 389.959 152.801 390.452 150.281 390.804C147.691 391.155 145.031 390.874 142.371 390.874C136.562 390.874 130.822 390.874 125.012 390.874C123.472 390.874 121.792 390.17 120.393 391.578C120.183 391.789 119.553 391.789 119.273 391.578C117.243 390.17 114.933 390.874 112.763 390.944C111.153 390.944 109.683 390.452 108.143 390.1C106.743 389.818 105.204 390.663 103.874 389.466C103.384 389.044 102.194 389.466 101.284 389.326C98.7639 389.044 96.1041 390.029 93.6542 388.622C93.4443 388.481 93.0943 388.692 92.8843 388.622C91.7644 388.059 90.9944 390.241 89.5945 388.903C88.9645 388.34 87.4246 388.551 86.3747 388.692C84.4848 388.833 82.6649 388.692 81.055 387.848C80.1451 387.355 79.2351 387.988 78.4652 387.425C77.6952 386.792 76.3653 387.707 75.8754 386.44C75.3854 386.651 74.8254 387.074 74.3354 387.074C73.7755 387.074 73.2855 386.511 72.7255 386.511C70.2757 386.511 68.0358 385.877 65.796 384.962C64.676 384.54 63.4161 384.047 62.3662 384.258C61.1763 384.54 60.2663 382.781 59.2164 384.118C57.1865 383.132 54.5267 383.555 53.4067 381.021C53.0568 381.373 52.7068 381.866 52.4968 381.795C49.207 381.021 45.8472 380.177 42.5574 379.332C42.0675 378.136 41.5775 379.754 40.9475 379.332C39.4776 378.276 37.4477 379.191 35.8378 377.995C34.5079 377.01 32.618 377.08 31.2181 376.447C29.0483 375.391 26.8084 374.969 24.5685 374.195C22.2587 373.35 20.0188 372.506 17.569 372.857C15.7491 373.139 14.2792 372.154 12.5993 372.013C10.9894 371.872 9.2395 371.591 7.76959 370.957C6.22968 370.324 4.89977 369.339 3.49985 368.494C2.23993 367.72 1.12 366.946 0.0700684 365.96V362.16C1.25999 361.386 0.910016 359.908 1.60997 358.923C1.81996 358.712 2.09994 358.501 2.7299 358.571C2.93989 358.641 2.86989 358.501 2.7299 358.36C2.58991 358.501 2.51992 358.571 2.37992 358.712C2.51992 358.852 2.65991 358.993 2.7999 359.064C2.7999 359.064 2.93989 358.923 2.65991 358.641C3.07988 355.404 4.54979 352.8 6.29968 350.266C7.48961 348.507 9.44948 347.17 9.1695 344.636C9.1695 344.495 10.0794 344.284 10.1494 344.003C10.3594 343.44 10.2894 342.806 10.2894 341.962C13.0193 340.062 15.6791 337.669 16.0991 333.446C16.449 333.657 16.799 333.798 17.429 334.15V330.139C17.989 330.631 18.2689 330.842 18.4789 331.053C18.7589 329.364 21.1388 329.576 21.3487 327.464C21.4887 325.986 22.0487 324.086 24.0086 323.382C24.1486 323.382 24.2186 322.96 24.2886 322.749C25.3152 319.84 26.5751 317.823 28.0683 316.697C29.6782 316.485 28.0683 314.445 29.4682 314.163C31.0781 313.811 29.4682 311.7 31.1481 311.348C32.688 310.996 32.618 309.377 33.388 308.392C34.1579 307.477 34.9279 306.562 35.6279 305.577C35.7678 305.366 35.6279 304.873 35.6279 304.451C36.4678 303.888 37.8677 303.606 36.6778 302.058C36.6078 301.917 36.6778 301.706 36.6778 301.565C37.7977 301.636 37.8677 300.651 38.2177 300.017C38.9876 298.68 40.8775 298.469 41.2275 296.358C41.4375 294.88 42.9774 293.613 43.9573 292.205C44.0973 291.994 44.0973 291.713 44.3073 291.572C46.4772 290.305 46.8972 287.842 48.2271 285.942C49.067 284.816 49.417 283.267 50.8169 282.564C50.5369 280.664 52.2168 280.101 53.0568 278.904C53.0568 278.904 52.6368 278.411 52.4268 278.2C53.1268 277.708 53.8967 277.426 54.4567 276.793C55.4366 275.737 56.0666 274.33 57.1865 273.415C58.1665 272.641 58.0965 270.811 59.7763 270.74C58.7264 269.333 61.7362 269.122 60.6863 267.644C61.7362 266.025 62.7162 264.477 63.8361 262.858C64.536 261.873 65.866 260.888 65.796 259.973C65.796 258.495 67.6159 259.199 67.4759 258.002C67.6859 257.932 67.8958 257.861 68.1058 257.721C67.8958 257.58 67.6859 257.369 67.4759 257.228C67.9658 256.735 68.9458 256.172 68.8758 255.68C68.8758 254.413 69.6457 253.92 70.2757 253.216C70.8357 252.583 71.4656 251.95 71.9556 251.246C73.0755 249.698 74.1255 248.149 75.3154 246.601C76.4353 245.194 77.7652 242.519 78.1852 240.619C78.7452 240.619 79.3751 240.478 79.8651 240.408C80.2151 239.423 80.5651 238.437 80.985 237.452C82.5949 237.241 81.055 235.341 82.3849 234.778C83.2249 234.426 83.8549 233.441 84.6948 232.596C84.5548 232.385 84.3448 232.174 84.0648 231.681C85.9547 230.274 86.8647 228.092 87.8446 225.981C88.4046 224.784 89.1045 223.517 90.0845 222.814C91.2044 221.969 90.4344 220.702 91.3444 219.858C92.0443 219.224 92.3243 219.436 92.6743 219.999C93.5842 216.972 94.9842 215.213 97.084 213.102C97.854 212.257 98.2739 210.92 99.1139 209.935C99.1139 209.935 98.7639 209.372 98.5539 209.09C99.2539 208.597 99.9538 208.105 100.724 207.612C100.374 207.19 100.094 206.768 99.6039 206.134C100.794 205.571 101.774 205.079 102.894 204.516C103.454 203.812 102.124 202.334 104.084 201.982C104.294 202.052 104.224 201.912 104.084 201.771C103.944 201.912 103.874 201.982 103.734 202.123C103.874 202.264 104.014 202.404 104.154 202.475C104.154 202.475 104.294 202.334 104.014 202.052C105.833 199.589 107.513 196.985 109.193 194.381C110.033 193.044 111.013 191.848 111.923 190.581C112.763 189.385 113.113 187.766 114.723 187.273C115.983 184.106 119.413 182.699 120.953 179.673C121.373 178.828 122.912 178.476 122.562 176.998C122.562 176.717 122.702 176.224 122.912 176.083C123.752 175.38 125.082 174.957 125.432 174.113C125.852 173.057 126.342 172.564 127.322 172.213C128.092 171.931 128.512 171.227 128.652 170.172C128.792 169.046 130.262 168.623 130.332 167.145C130.332 165.738 132.012 165.386 132.852 164.541C134.392 162.993 135.862 161.445 136.142 159.122C138.311 157.856 139.081 155.111 141.461 154.055C141.671 153.985 142.021 153.915 142.091 153.774C142.441 152.648 141.601 150.888 143.211 150.536C144.821 150.114 144.751 148.566 145.731 147.792C146.641 147.088 146.991 145.61 147.971 145.047C149.511 144.062 150.421 142.513 151.541 141.247C152.661 139.91 153.361 138.22 154.27 136.743C155.25 135.265 156.72 133.927 157.14 132.309C157.56 130.76 159.31 131.042 159.66 129.564C159.87 128.508 160.85 127.242 161.76 126.96C162.81 126.608 162.46 125.834 162.88 125.341C163.44 124.708 164.07 124.427 164.84 124.567L164.63 124.638ZM155.53 291.361C155.53 291.361 155.32 291.079 155.18 290.939C155.04 291.079 154.97 291.15 154.83 291.29C154.97 291.431 155.11 291.572 155.25 291.642C155.25 291.642 155.39 291.502 154.83 290.939C155.32 289.531 157.14 290.587 157.77 289.461C157.98 289.109 158.54 288.827 158.54 288.546C158.54 287.56 157.63 287.912 157.14 287.912C156.86 287.912 156.51 288.264 156.23 288.405C154.97 288.757 153.781 289.32 152.521 289.39C150.911 289.39 149.441 289.742 148.041 290.587C147.341 291.009 144.121 291.22 143.141 291.009C141.741 290.657 140.551 291.642 139.291 291.713C137.891 291.713 136.492 291.29 135.092 291.009C133.762 292.557 132.152 291.361 131.242 290.868C128.372 289.461 124.732 288.475 124.592 284.182C124.592 283.901 124.312 283.479 124.102 283.267C122.282 281.79 123.892 278.904 121.792 277.567C121.862 277.497 122.002 277.426 122.072 277.285C123.402 275.596 121.233 276.089 120.883 275.456C121.023 275.245 121.233 275.104 121.373 274.893C121.513 274.682 121.653 274.4 121.583 274.259C120.883 272.711 120.183 271.163 119.133 268.84C118.783 270.811 116.823 271.515 118.503 273.133C118.643 273.274 118.223 273.978 118.013 274.4C117.803 274.893 116.473 275.174 117.593 276.019C116.403 278.411 116.053 281.015 116.193 283.69C116.193 284.182 115.703 284.745 115.493 285.238C115.073 286.223 114.513 287.138 114.233 288.123C114.093 288.687 114.793 289.601 114.583 289.883C112.973 291.713 113.253 293.965 113.253 295.443C110.803 299.525 107.163 300.791 103.594 302.129C103.524 302.129 103.244 301.777 103.174 301.706C101.354 303.184 99.6739 304.803 97.784 306.07C96.0341 307.196 94.0742 307.899 91.9743 308.955C93.7242 309.448 95.2641 308.814 96.5941 309.87C97.014 310.222 98.274 310.081 98.6939 309.729C99.6739 308.885 100.164 309.237 100.864 309.94C101.214 310.292 101.704 310.715 102.054 310.644C104.434 310.433 106.463 311.559 108.563 312.263C109.753 312.615 110.873 313.459 111.853 314.233C112.273 314.585 112.693 315.782 112.483 316.134C111.923 317.048 111.993 317.541 112.763 318.104C113.603 318.738 113.463 319.582 113.043 320.427C112.903 320.708 112.483 321.13 112.623 321.341C113.813 323.734 112.343 326.057 112.623 328.45C112.763 329.716 113.113 331.335 112.553 332.109C111.853 332.954 112.693 333.657 112.203 334.432C111.713 335.276 111.993 336.613 111.923 337.739C111.923 338.725 112.063 339.78 111.923 340.765C111.783 341.751 111.363 342.736 110.943 343.932H114.163C113.743 341.892 115.773 341.751 116.613 340.414C116.053 339.991 115.493 339.569 115.143 339.358C115.353 338.513 115.493 337.95 115.703 337.458C115.843 337.036 116.123 336.613 116.333 336.191C116.613 335.698 116.893 335.135 117.173 334.643C117.383 334.22 117.943 333.798 117.873 333.446C117.733 332.039 118.503 330.913 118.923 329.716C119.273 328.661 119.203 327.605 119.763 326.549C120.603 324.86 121.373 323.171 122.352 321.553C124.522 317.611 124.312 317.471 126.202 316.063C126.622 315.571 126.972 315.078 127.392 314.515C131.032 314.374 134.112 315.148 135.302 319.23C135.442 319.652 135.862 320.004 136.212 320.356C138.801 323.382 141.181 326.62 143.841 329.646C146.921 333.165 149.651 336.965 153.081 340.343C154.13 340.343 155.25 340.202 156.16 340.202C155.88 339.147 155.81 338.302 155.53 337.599C155.11 336.754 154.62 335.769 153.92 335.276C152.731 334.361 154.06 333.657 153.92 332.883C153.571 332.813 153.221 332.743 152.801 332.602C152.801 331.757 153.011 330.702 152.591 330.068C151.821 328.942 151.121 327.887 151.191 326.479C149.511 325.775 151.471 323.523 149.581 322.89C147.971 322.327 149.861 320.145 148.181 319.441C148.531 318.104 147.271 317.541 146.921 316.556C146.431 315.359 144.541 315.008 145.101 313.178C145.311 312.615 144.261 311.7 143.981 310.926C143.701 310.152 143.281 309.518 142.371 309.096V301.565C142.791 301.988 143.071 302.199 143.281 302.41C144.611 301.777 142.511 299.947 144.541 299.384C145.661 299.102 145.661 297.202 147.271 296.921C147.971 296.78 148.321 295.372 149.021 294.739C149.721 294.106 150.561 293.683 150.981 292.768C153.011 293.965 153.571 291.431 155.74 291.572L155.53 291.361ZM102.404 353.926C101.914 353.926 101.424 353.926 100.934 353.926C93.5842 354.278 86.3047 353.785 78.9552 354.489C71.4656 355.263 63.9061 354.63 56.3466 354.7C55.0166 354.7 53.4767 354.489 52.3568 355.052C50.9569 355.756 49.697 355.334 48.3671 355.404C46.9671 355.545 45.5672 355.404 44.2373 355.404C43.8173 355.404 43.1874 355.615 42.9774 355.967C42.2774 356.952 41.3675 356.882 40.3176 356.952C37.5177 357.163 34.7179 357.445 31.9181 357.726C31.7081 357.726 31.4281 357.726 31.2181 357.867C30.5882 358.219 30.0282 358.641 29.3982 358.923C28.6283 359.275 27.7883 359.415 27.0884 359.767C26.5284 360.119 25.9685 358.712 25.4785 359.767C22.6787 360.33 19.9488 361.104 17.079 361.386C15.6091 361.527 14.2092 361.738 13.0193 362.512C11.9693 363.216 10.9894 363.075 9.93945 362.723C9.44948 362.582 8.95952 362.442 8.32955 362.23C8.95952 363.92 10.0794 363.779 11.1994 363.779C12.5293 363.779 12.8093 365.749 14.3492 365.327C14.9791 365.186 15.5391 366.242 16.449 365.327C16.939 364.905 18.1989 365.116 19.0389 365.327C20.0188 365.538 20.9988 366.242 21.9787 366.383C22.8886 366.523 24.0086 365.96 24.7785 366.312C27.9283 367.72 31.3581 367.931 34.5779 369.057C37.4477 370.042 40.5975 370.042 43.2574 371.872C44.1673 372.506 45.4972 372.998 46.5472 372.857C50.3969 372.365 53.8267 374.687 57.6065 374.476C58.3764 375.743 59.7764 374.476 60.1963 374.828C62.0162 376.376 64.1861 376.376 66.216 376.658C67.4059 376.869 68.6658 378.136 69.9957 376.939C71.2556 378.839 73.4955 378.699 75.1754 378.91C79.9351 379.473 84.7648 379.543 89.5945 379.825C90.4344 379.825 91.2744 380.177 92.0443 380.177C92.8843 380.177 94.0042 379.543 94.5642 379.895C96.4541 381.232 98.4839 380.669 100.304 380.458C102.194 380.247 103.944 380.951 105.833 380.951C108.073 380.951 110.383 382.147 112.763 381.303C113.813 382.569 115.283 381.866 116.613 382.077C117.453 382.218 118.433 382.71 119.203 382.429C120.183 382.077 120.883 381.866 121.862 382.64C122.702 383.344 123.682 382.077 124.382 382.288C126.902 382.992 129.352 383.344 131.802 382.077C132.502 383.695 134.042 380.88 134.672 382.71C135.652 381.655 136.422 383.062 137.402 382.921C138.591 382.71 139.921 382.71 141.181 382.921C141.881 383.062 141.951 382.147 143.001 382.499C144.751 383.062 146.991 383.062 148.741 382.499C150.561 381.866 149.091 383.766 150.071 383.484C151.331 382.71 152.731 381.514 154.34 382.992C155.18 382.64 154.62 380.458 156.3 381.725C156.44 381.866 156.79 382.077 156.79 382.077C158.75 380.247 161.48 382.569 163.44 380.74C164.49 382.71 166.38 379.191 167.43 381.373C167.43 381.373 168.13 381.303 168.41 381.092C169.18 380.458 169.949 380.458 170.719 381.021C170.929 381.162 171.419 381.162 171.489 381.021C172.679 379.332 174.429 380.106 175.969 379.895C176.739 379.825 177.439 379.895 177.929 380.669C178.349 380.247 178.769 379.684 179.259 379.332C179.609 379.121 180.309 378.98 180.659 379.191C182.479 380.388 184.299 378.98 186.118 379.191C186.538 379.191 186.958 378.839 187.448 378.769C187.868 378.769 188.568 379.051 188.778 378.91C190.178 377.573 191.858 377.713 193.608 377.643C194.238 377.643 194.868 377.291 195.568 377.15C195.918 377.502 196.408 377.995 196.898 378.488C197.038 377.995 197.108 377.291 197.388 377.221C198.998 376.799 200.608 376.376 202.217 376.236C202.847 376.236 203.547 376.939 204.177 376.869C204.947 376.869 205.857 376.024 206.487 376.236C207.467 376.587 207.957 374.687 209.007 376.095C209.427 376.728 210.337 375.25 211.387 376.095C212.017 376.587 213.627 374.898 214.677 375.532C216.007 376.376 217.057 375.391 218.246 375.391C221.256 375.391 224.336 375.109 227.346 374.687C228.956 374.406 230.496 373.491 232.456 372.717C230.706 370.887 229.236 369.409 227.766 367.861C227.346 367.438 226.926 366.875 226.436 366.594C226.226 366.453 225.596 367.087 225.386 366.946C222.516 365.327 219.506 364.131 216.357 363.145C216.077 363.075 216.007 362.301 215.867 361.738C214.257 361.879 212.717 361.949 211.247 361.034C209.637 362.23 209.007 358.782 207.327 360.19C207.047 359.134 206.487 358.852 205.367 358.641C204.527 358.501 203.547 358.219 202.637 358.008C200.958 357.515 199.208 356.952 197.878 355.897C196.898 355.052 195.708 356.037 195.078 355.052C193.468 355.685 193.188 353.645 191.928 353.504C191.788 353.504 191.648 353.504 191.578 353.504C188.218 353.785 185.069 352.167 181.709 352.73C180.519 352.941 179.329 351.815 178.209 352.73C175.409 351.181 172.399 352.378 169.6 351.955C169.18 354.067 168.76 355.967 168.41 357.938C168.13 357.938 167.64 357.938 167.5 358.078C165.33 360.471 163.02 360.33 160.01 359.767C156.51 359.134 154.97 356.108 152.241 354.771C152.101 354.771 152.311 353.926 152.381 353.504C150.981 353.926 150.701 352.8 150.001 352.026C149.441 351.322 148.461 350.618 147.621 350.548C144.961 350.337 142.231 350.055 139.711 350.618C138.241 350.97 136.912 351.041 135.442 351.252C133.902 351.463 132.362 351.955 130.822 351.955C128.862 351.955 127.112 353.222 125.082 352.8C124.312 354.137 121.582 352.941 121.722 355.404C119.833 355.474 120.603 357.586 119.623 358.219C118.223 359.064 118.993 360.541 118.573 361.597C117.593 362.582 116.683 363.638 115.633 364.553C114.863 365.257 113.883 366.242 113.043 366.242C111.993 366.242 111.013 365.186 109.893 364.764C107.373 363.849 106.743 361.316 105.134 359.556C105.414 358.289 103.244 359.204 103.524 357.586C103.734 356.671 102.964 355.615 102.544 354.208L102.404 353.926ZM130.612 329.294C130.612 329.294 130.122 329.576 129.912 329.716C129.912 330.279 130.192 331.124 129.912 331.476C129.072 332.391 128.442 333.306 128.302 334.643C128.162 335.558 125.922 336.05 127.602 337.528C126.972 338.513 126.202 339.428 125.642 340.414C125.362 340.977 125.502 341.751 125.362 342.595C130.122 342.103 134.322 340.484 139.081 341.047C138.661 340.343 138.241 339.921 138.241 339.569C138.241 337.88 137.052 337.106 136.072 335.98C134.602 334.361 132.432 333.446 131.732 331.124C131.522 330.49 130.962 329.927 130.612 329.294ZM118.573 268.348V268.699H120.113V268.348H118.573ZM155.88 280.171C155.88 280.171 156.23 279.96 156.37 279.889C156.3 279.819 156.16 279.608 156.09 279.678C155.88 279.678 155.74 279.819 155.6 279.889C155.67 279.96 155.74 280.03 155.88 280.171ZM160.5 287.912C160.5 287.912 160.22 288.124 160.29 288.194C160.29 288.405 160.43 288.546 160.5 288.687C160.57 288.616 160.78 288.475 160.71 288.405C160.71 288.194 160.57 288.053 160.5 287.912ZM129.912 315.571C129.912 315.571 129.702 315.289 129.632 315.359C129.422 315.359 129.282 315.5 129.142 315.571C129.212 315.641 129.352 315.852 129.422 315.782C129.632 315.782 129.772 315.641 129.912 315.571Z" fill="black"/>
<path d="M196.618 60.8057C197.248 57.1461 196.828 56.935 196.338 56.7942C196.548 56.5831 196.758 56.372 196.898 56.372C197.807 56.372 198.717 56.5127 199.557 56.3016C200.047 56.1609 200.607 55.5978 200.887 55.1052C201.027 54.8237 200.677 54.2607 200.467 53.6977C201.167 53.1346 202.007 52.3605 202.917 51.7271C203.477 51.3752 204.247 51.0233 204.877 51.0937C205.787 51.0937 206.697 51.5863 207.607 51.7975C208.517 52.0086 209.427 52.0086 210.407 52.3605C212.017 52.9939 213.767 53.6273 215.656 53.3458C216.286 53.2754 217.056 53.5569 217.686 53.8384C218.736 54.4014 219.436 53.6977 220.346 53.3458C221.256 52.9939 222.166 53.4865 222.236 51.7975C222.236 50.8122 223.636 49.8973 224.406 48.8416C224.196 48.4194 223.706 47.5045 223.846 47.4341C225.596 46.0969 225.736 43.8449 226.506 42.0854C227.346 40.1853 228.116 38.3555 229.656 36.9479C230.845 35.8923 231.475 34.5551 232.175 32.7253C226.926 32.7253 222.096 32.7253 217.196 32.7253C216.566 32.7253 215.866 33.4291 215.236 33.4291C214.606 33.4291 213.976 32.9364 213.277 32.7253C211.247 32.0919 209.217 33.7106 207.187 32.9364C205.227 34.0625 203.057 33.2179 201.027 33.4995C199.627 33.7106 198.017 32.7957 196.828 34.2736C194.238 32.7957 191.228 35.6811 188.638 33.6402C188.078 34.4144 187.308 33.4995 186.818 33.8513C186.258 34.2032 185.908 34.4847 185.208 34.0625C184.648 33.7106 183.808 33.5698 183.178 33.5698C181.639 33.7106 180.169 34.0625 178.489 33.5698C176.739 33.1476 174.709 33.4995 172.819 33.4995H162.11C161.34 32.6549 160.5 31.6697 159.52 30.5436C159.52 29.8398 159.24 28.8546 160.08 27.7989C160.78 26.884 159.1 25.4765 160.22 24.3504C158.89 22.3799 160.71 20.5501 160.36 18.5795C161.55 17.5942 161.06 16.1867 160.92 15.0607C160.71 13.5124 161.9 12.2456 161.69 10.8381C161.48 9.36014 162.53 8.37486 163.02 7.03769C163.09 7.67109 163.23 8.30448 163.37 9.07863C163.93 8.8675 164.49 8.58599 165.47 8.2341C165.12 10.0639 166.309 11.3307 165.61 13.0901C165.33 13.7235 166.519 15.3422 166.169 15.6941C165.12 16.7497 166.029 17.3127 166.169 18.2276C166.519 19.7759 166.519 21.5354 166.169 23.154C165.819 24.7023 166.029 25.9691 166.449 27.447C167.779 27.447 169.389 27.9397 170.369 27.3063C171.489 26.6025 172.749 28.6434 173.309 26.8136C175.339 26.8136 177.369 26.6025 179.329 26.8136C179.889 26.884 180.379 27.5174 180.939 26.8136C181.359 27.3767 181.639 27.3063 182.338 26.9544C182.968 26.6729 184.228 27.5174 184.788 27.2359C185.768 26.6729 186.538 26.5321 187.448 27.2359C190.038 26.1802 192.698 27.0248 195.288 26.6729C195.918 25.5469 196.408 26.6729 196.968 26.6729C198.017 26.6729 199.137 26.4618 200.187 26.2506C201.097 26.1099 202.007 27.447 202.917 25.9691C203.267 25.4061 204.247 26.9544 205.297 25.9691C205.857 25.4765 207.257 25.8987 208.237 25.8987C209.217 25.8987 210.687 25.5469 211.107 26.1099C212.157 27.2359 212.577 25.2653 213.277 25.8987C213.906 26.4618 214.186 26.4618 214.956 25.9691C215.516 25.6172 216.566 26.1099 217.406 26.1802L220.836 25.9691C221.606 25.9691 222.376 25.8284 223.076 25.9691C226.366 26.3914 229.796 25.0542 232.945 26.6729C234.695 24.8431 237.215 26.8136 239.175 25.2653C239.945 24.6319 241.625 25.1246 242.885 25.195C243.865 25.195 244.705 23.4355 245.685 25.0542C246.524 24.1393 247.644 24.4208 248.764 24.4208C249.884 24.4208 251.004 24.4208 251.984 24.4208C252.194 23.7874 252.334 23.2948 252.544 22.8021C253.034 23.2948 253.524 23.7874 254.084 24.4208C255.204 23.0133 256.464 22.3095 258.354 23.2244C258.984 23.5763 260.174 22.6614 260.874 22.9429C261.714 23.2948 262.203 24.0689 262.973 23.0133C265.983 23.0133 268.993 22.8725 271.933 22.8725C272.563 22.8725 273.193 23.2244 273.893 23.3652C274.243 23.0133 274.733 22.5206 275.153 22.0984C278.163 22.0984 281.172 22.0984 284.182 22.0984C284.252 22.0984 284.392 21.9576 284.812 21.6057C284.462 18.7203 284.182 15.5533 283.832 12.4567C282.432 12.316 281.312 10.4862 279.842 12.1048C279.702 12.2456 279.002 11.8937 278.582 11.8937C277.113 11.8233 275.713 11.753 274.243 11.753C273.543 13.3716 272.283 11.0492 271.233 12.2456C270.743 12.8086 268.853 12.7382 268.013 12.2456C266.963 11.6826 266.333 12.2456 265.563 12.2456C264.513 12.2456 263.743 12.6679 262.833 12.9494C262.203 13.1605 261.294 12.3863 260.524 12.316C259.684 12.316 258.844 12.1048 258.074 12.7382C257.654 13.0197 256.744 12.5975 256.044 12.6679C255.484 12.6679 254.854 12.879 254.364 13.0901C253.174 13.5828 252.194 12.1752 250.794 12.9494C249.744 13.5124 248.064 13.0901 246.734 13.0901H242.955C241.555 13.0901 240.155 13.0901 238.825 13.0901C237.705 13.0901 236.655 13.1605 235.745 12.316C234.485 13.6531 232.665 12.5975 231.265 13.3716C230.705 13.7235 230.285 14.005 229.656 13.5124C229.306 13.2309 228.746 13.3012 228.326 13.0197C227.346 12.316 226.716 14.005 225.456 13.2309C224.546 12.6679 223.006 13.0901 221.746 13.0901C220.626 13.0901 219.436 13.0197 218.386 13.0901C217.616 13.1605 216.846 13.7235 216.076 13.7939C215.446 13.7939 214.746 13.0901 214.116 13.2309C213.627 13.3012 213.417 13.9346 212.717 13.3012C212.227 12.9494 211.037 12.8086 210.617 13.1605C209.637 14.005 208.097 14.2865 207.607 13.7235C206.767 12.8086 205.927 14.2162 205.297 13.3012C205.157 13.0901 204.457 13.3012 204.037 13.3012C203.057 13.442 202.147 13.7235 201.237 13.7235C200.117 13.7235 199.207 12.1752 197.948 13.3716C197.038 14.2865 195.428 13.0197 194.588 14.4273C194.308 14.2162 194.028 13.9346 193.748 13.7235C193.328 14.1458 192.908 14.6384 192.208 15.3422C191.858 14.7088 191.578 14.0754 191.438 13.8643C188.708 13.5124 186.818 13.6531 185.068 15.1311C183.458 16.4682 181.499 16.3275 179.819 15.1311C178.909 15.6941 178.139 16.1867 177.299 16.6793C176.529 17.1016 175.689 15.2718 174.919 16.6793C174.219 15.6237 173.099 15.7644 172.189 15.9756C170.439 16.3978 170.299 13.9346 168.829 14.4273C168.409 13.0197 168.059 11.753 167.779 10.4862C167.569 9.43051 168.759 8.37486 167.429 7.17845C168.899 6.05242 170.229 4.92638 171.629 4.08186C172.889 3.37809 174.219 2.1113 175.829 3.72997C176.109 4.01148 176.879 3.94111 177.299 3.72997C180.169 2.46319 183.108 3.16696 186.048 3.0262C187.028 3.0262 188.008 3.0262 188.708 2.1113C188.988 1.68904 189.758 1.54829 190.318 1.47791C191.298 1.47791 192.348 1.12602 193.048 2.18168C193.678 1.47791 194.168 1.1964 195.218 1.90017C195.848 2.32243 197.178 1.75942 198.157 1.40753C198.997 1.05565 199.697 0.0703691 200.607 1.40753C200.747 1.61866 201.307 1.40753 201.657 1.47791C203.477 1.61866 205.227 -0.351893 207.187 1.26678C208.867 0.422254 210.897 1.26678 212.367 0.633385C213.697 0.0703692 214.606 1.26678 215.586 0.703762C217.056 -0.0703849 218.456 0.703762 219.856 0.703762C220.836 0.703762 221.956 0.844516 222.726 0.422254C223.566 -7.90507e-06 223.986 -0.140762 224.616 0.563008C224.756 0.703762 225.106 0.844516 225.246 0.774139C227.696 -0.351893 230.075 0.98527 232.595 0.914893C234.695 0.844516 237.075 -7.93114e-06 239.105 1.54829C241.275 -7.93114e-06 243.655 1.05565 245.965 0.844516C248.204 0.633385 250.514 0.703762 252.754 0.844516C253.944 0.844516 255.134 0.492631 256.394 1.26678C256.884 1.54829 258.074 0.2815 258.984 0.140746C259.754 0.0703691 260.594 0.98527 261.364 0.0703691C263.323 1.68904 265.143 -0.42227 267.173 -7.87899e-06C269.273 0.351877 271.443 0.0703691 273.543 0.0703691C275.643 0.0703691 277.813 0.140746 279.982 0.0703691C281.242 -7.87899e-06 282.362 0.2815 283.412 0.844516C284.182 1.26678 284.952 2.25206 285.862 0.98527C285.932 0.844516 286.702 1.26678 287.122 1.33716C288.452 1.54829 288.662 3.23734 289.992 3.44847C290.902 5.84128 292.232 8.09335 293.072 10.4862C294.261 14.005 293.842 17.6646 293.842 21.3242C292.512 23.3652 292.442 26.1099 290.062 27.447C289.852 27.5878 289.502 27.5878 289.432 27.7285C288.872 30.1214 287.402 29.6991 285.512 29.4176C283.342 29.1361 281.032 29.4176 278.932 30.051C278.092 30.2621 277.953 29.6991 277.533 29.7695C275.573 29.9806 273.613 29.2065 271.723 30.2621C271.163 30.614 270.253 30.4029 269.553 30.4732C266.753 30.7547 263.883 29.8398 261.154 31.177C260.804 31.3178 260.104 30.614 259.544 30.614C259.054 30.614 258.354 31.3178 258.074 31.177C255.974 29.9102 253.944 31.5289 251.844 31.3178C250.374 31.177 248.764 31.74 247.224 32.0215C245.685 32.2327 244.215 32.0215 242.605 32.6549C240.855 33.2883 238.685 32.7957 236.655 32.7957C235.115 35.3996 233.575 37.9332 232.175 40.5372C231.825 41.1002 232.105 42.0151 231.895 42.7188C231.615 43.7041 230.006 43.8449 230.355 45.4635C230.565 46.5192 229.446 47.6452 229.586 48.912C229.586 49.3343 228.816 49.8269 228.466 50.3196C227.766 51.3752 227.066 52.5012 226.226 53.768C228.886 54.0495 230.985 54.8941 233.365 54.8941C235.045 54.8941 236.655 56.0201 238.405 56.4424C241.135 57.0758 244.005 57.2165 246.524 58.6241C247.994 59.4686 249.394 60.3131 251.214 60.102C252.754 59.8908 253.244 62.4948 255.064 61.7206C256.464 63.2689 259.194 62.7763 260.034 65.1691C260.034 65.3099 260.454 65.4506 260.664 65.3802C261.714 65.1691 262.483 65.7321 262.833 66.5063C263.323 67.7027 263.393 69.0398 263.673 70.3066C262.343 71.0808 264.653 72.6291 262.833 73.6144C261.993 74.0366 261.574 75.5849 261.224 76.6406C260.454 78.6111 259.264 80.3706 258.494 82.3411C258.004 83.7486 257.444 85.0154 256.394 86.0007C256.044 86.3526 255.344 86.8452 255.414 87.0564C256.044 89.3788 253.664 90.0826 253.034 91.7716C252.404 93.3903 251.844 95.1497 250.514 96.4165C249.604 97.261 250.164 98.8093 248.904 99.5835C247.924 100.217 247.294 101.343 246.664 102.399C245.895 103.595 245.195 104.791 244.565 106.129C244.005 107.184 243.165 108.099 242.465 109.084C241.695 110.14 240.715 111.125 240.295 112.322C240.015 113.025 238.615 113.729 239.875 114.855C240.435 115.348 239.175 116.122 239.875 117.248C241.135 119.148 239.105 121.048 239.105 123.089C239.105 123.441 238.755 123.723 238.755 124.075C238.615 126.467 237.215 127.664 234.975 128.086C234.135 128.227 233.295 128.368 232.455 128.438C231.545 128.579 232.175 129.775 230.915 130.057C226.576 130.972 222.376 132.379 217.826 132.238C215.026 132.168 212.297 132.238 209.497 132.238C208.237 132.238 206.697 132.661 205.787 132.027C204.527 131.253 203.197 131.957 202.287 131.394C201.307 130.76 200.257 131.464 199.347 130.831C198.857 130.479 197.947 130.69 197.458 129.986C197.248 129.705 196.898 129.283 196.618 129.283C195.848 129.353 195.078 129.916 194.378 129.775C193.608 129.634 192.978 128.508 192.278 128.508C190.808 128.508 189.828 127.664 188.638 127.171C185.418 125.764 181.988 124.99 178.979 123.16C177.649 122.386 176.179 121.823 175.059 120.837C174.359 120.204 173.869 119.078 173.729 118.093C173.589 116.826 173.729 115.629 172.539 114.785C172.329 114.644 172.189 114.152 172.189 113.8C172.049 112.181 172.469 110.422 171.629 108.873C172.679 107.536 171.839 105.425 173.239 104.228C174.219 103.384 172.189 102.891 173.029 102.117C173.519 101.624 174.359 100.991 174.359 100.428C174.289 98.739 176.669 98.3871 176.249 96.6276C176.249 96.6276 176.879 96.4869 177.369 96.3461C176.949 95.572 176.109 94.6571 177.369 94.0237C178.489 93.4607 178.699 92.3346 179.259 91.4901C180.519 89.6603 180.799 87.0564 183.108 85.86C183.738 85.5081 184.158 84.5932 184.438 83.819C185.558 80.9336 187.168 78.4704 189.688 76.3591V73.8255C190.388 73.7551 191.018 73.6847 191.928 73.544C191.298 72.8402 190.878 72.2772 190.458 71.7846C190.458 71.0808 192.908 71.8549 191.228 70.2363C191.158 70.1659 192.208 69.0398 192.558 68.3361C193.538 66.5767 194.448 64.6765 194.868 62.7059C195.008 61.9318 195.638 61.0872 195.568 60.3835C195.498 59.1167 196.828 59.539 196.898 59.1167C197.038 58.4129 195.638 57.0758 196.688 60.8057C195.498 64.1838 195.358 64.0431 195.288 63.9023C195.148 64.0431 195.078 64.1135 194.938 64.2542C195.078 64.395 195.218 64.5357 195.358 64.6061C195.358 64.6061 195.498 64.4653 196.688 60.8057H196.618ZM247.714 84.382L248.344 84.1005L247.714 83.6079C247.784 83.1153 247.714 82.5522 247.994 82.2004C249.394 80.089 250.794 78.0481 252.264 76.0072C253.384 76.0072 252.894 75.0923 253.034 74.4589C253.314 74.2477 253.524 74.107 253.804 73.8959C253.524 73.6144 253.314 73.2625 253.034 72.981C253.524 72.3476 254.014 71.6438 254.644 70.7993C252.894 70.0251 251.214 69.1806 249.534 68.4768C247.154 67.4916 244.845 66.4359 242.395 65.7321C239.875 65.0284 237.635 63.2689 234.835 63.9023C234.625 63.9023 234.275 63.4097 233.995 63.2689C233.225 62.9874 232.455 62.5652 231.685 62.4948C230.845 62.354 229.656 62.2133 229.236 62.6355C228.186 63.6912 227.766 61.5799 227.066 62.4244C225.736 64.0431 226.086 62.1429 225.666 61.7206C225.316 61.9318 224.966 62.354 224.616 62.354C223.846 62.354 222.866 61.6503 222.446 61.9318C221.326 62.6355 220.696 61.6503 220.066 61.2984C219.436 60.9465 219.086 61.5095 219.016 61.4391C217.406 60.5242 215.096 61.228 213.837 59.6093C212.857 58.3425 211.667 58.5537 210.477 58.6241C209.357 58.6241 208.447 57.0054 206.977 58.3425C207.257 58.7648 207.957 59.539 207.817 59.6797C206.067 62.354 206.627 66.084 203.897 68.3361C203.547 68.6176 203.547 69.1806 203.337 69.6029C202.357 71.7142 202.007 74.1774 200.327 75.9368C200.467 78.7519 197.947 79.9483 196.898 81.4966C197.038 82.4115 197.108 82.9745 197.178 83.4671C196.198 83.5375 195.848 84.1709 195.638 85.0154C195.498 85.7192 195.358 86.423 195.078 87.0564C194.728 87.6898 193.258 87.2675 193.538 88.6047C191.788 89.3084 192.488 91.4901 191.158 92.5458C190.318 93.1792 189.758 94.2348 189.058 95.0794C190.038 96.8388 187.238 96.0646 187.588 97.4018C187.588 97.6129 187.798 97.8241 187.938 98.0352C188.988 96.4869 190.808 97.8241 192.068 97.0499C191.858 96.698 191.648 96.3461 191.578 96.2054C192.348 94.7978 193.258 97.4722 193.958 95.8535C194.798 96.9795 195.498 95.5016 196.338 95.8535C197.108 96.135 198.297 96.698 198.577 96.4869C199.627 95.3609 200.257 96.7684 201.097 96.7684C202.567 96.7684 204.107 97.1907 205.577 97.6833C206.067 97.8241 206.137 97.9648 206.697 97.6833C207.677 97.261 206.977 98.5278 207.467 98.739C207.537 98.739 207.677 98.8797 207.747 98.8797C209.287 97.1203 208.517 99.6539 209.007 99.6539C210.057 99.0908 211.107 98.5982 212.227 98.0352C212.787 98.739 213.207 99.302 213.627 99.865C214.536 99.5835 215.376 99.0908 216.146 99.0908C217.196 99.0908 218.456 99.2316 219.156 99.865C220.066 100.639 220.906 99.9354 221.816 100.217C223.776 100.85 225.386 101.906 227.206 102.68C230.915 104.158 230.985 103.947 232.175 105.917C232.315 106.199 232.525 106.48 232.665 106.762C233.575 106.34 234.275 106.058 235.115 105.636C235.115 104.862 235.185 104.017 235.255 103.173C237.285 102.75 237.775 101.132 238.265 99.5131C238.405 98.9501 238.685 98.3871 239.035 97.9648C239.105 97.8944 239.945 98.3871 240.015 98.2463C240.365 97.8241 241.555 97.7537 240.785 96.7684C239.455 95.0793 241.555 95.572 241.905 94.9386C241.695 94.6571 241.415 94.3756 240.785 93.7422C241.765 92.7569 242.745 91.7716 243.655 90.8567C243.515 90.8567 243.095 90.6456 242.185 90.3641C243.375 90.153 244.145 89.9418 244.985 89.8011C244.611 89.0504 244.938 88.722 245.965 88.8158C246.244 88.2528 246.524 88.0416 246.454 87.9009C246.244 87.549 245.965 87.2675 245.755 86.986C245.825 87.4786 245.895 87.9713 245.755 86.986C246.244 86.2118 246.734 85.4377 247.294 84.7339C247.364 84.9451 247.434 85.1562 247.574 85.3673C247.714 85.1562 247.924 84.9451 248.064 84.7339L247.714 84.382ZM225.806 115.911C225.806 115.911 225.316 115.559 225.316 115.418C225.316 115.066 225.596 114.715 225.736 114.363C225.316 114.152 224.756 114.152 224.476 113.8C223.636 112.674 222.516 112.392 221.186 112.533C220.696 112.533 219.926 112.322 219.576 111.97C218.806 110.985 217.896 111.125 216.916 111.055C216.076 111.055 215.236 110.703 214.466 110.703C213.627 110.703 212.367 111.407 211.947 110.985C210.827 109.929 209.427 110.773 208.447 110.21C207.187 109.436 205.857 109.647 204.597 109.507C204.037 109.507 203.477 109.084 202.917 108.944C199.277 107.818 195.708 106.34 191.858 106.551C189.408 106.621 186.958 106.762 184.648 107.395C182.828 107.888 180.729 108.732 181.289 111.548C183.528 112.251 185.208 114.503 187.868 114.433C189.198 115.77 190.948 115.489 192.628 115.77C193.888 115.981 195.218 115.981 196.478 116.826C197.528 117.53 198.507 118.796 200.117 118.374C200.047 119.641 200.467 119.641 201.167 118.796C201.937 119.922 202.777 118.374 203.477 118.796C204.387 119.359 205.227 120.063 206.137 120.626C206.487 120.908 206.977 120.978 207.397 121.189C207.677 121.33 208.167 121.611 208.167 121.541C209.147 120.063 209.847 121.823 210.687 121.752C211.807 121.752 213.277 121.33 213.976 121.823C216.566 123.723 217.756 120.908 219.646 120.485C219.296 119.008 220.766 119.571 221.256 119.008C221.886 118.304 222.796 117.882 223.566 117.389C224.266 116.896 224.966 116.474 225.666 116.052L225.806 115.911ZM276.553 23.9282C276.553 23.9282 276.763 24.2801 276.833 24.4208C276.903 24.3504 277.113 24.2097 277.043 24.1393C277.043 23.9282 276.903 23.7874 276.833 23.6467C276.763 23.717 276.693 23.7874 276.553 23.9282ZM175.899 100.85C175.899 100.85 175.689 100.498 175.619 100.358C175.549 100.428 175.339 100.569 175.409 100.639C175.409 100.85 175.549 100.991 175.619 101.132C175.689 101.061 175.759 100.991 175.899 100.85ZM194.588 117.67C194.588 117.67 194.798 117.459 194.868 117.389C194.728 117.318 194.518 117.178 194.378 117.178C194.378 117.178 194.238 117.318 194.098 117.389C194.238 117.459 194.448 117.6 194.588 117.67Z" fill="black"/>
<path d="M110.663 139.065C90.9244 151.099 89.5944 152.366 87.0746 152.014C86.1647 151.874 85.2547 151.803 84.2748 152.507C83.7848 152.859 82.4549 152.014 81.335 151.662C82.3149 149.27 85.4647 149.34 85.6047 146.595C86.0247 147.018 86.2347 147.229 86.5146 147.51C86.9346 146.173 87.7046 145.399 89.0345 144.836C90.0144 144.484 91.4143 144.273 91.5543 142.584C91.5543 142.162 93.4442 142.091 93.9342 141.458C96.244 138.572 99.4638 137.376 102.614 135.828C104.923 134.702 107.163 133.435 109.263 131.746C111.223 130.127 114.093 129.564 116.543 128.579C116.893 128.438 117.383 128.579 117.593 128.368C118.713 127.453 119.693 125.975 120.952 125.623C122.212 125.271 123.402 124.919 124.592 124.356C125.432 123.934 126.272 123.371 127.112 123.23C129.912 122.808 132.432 120.556 135.792 122.034C135.792 122.104 135.792 122.597 135.932 123.019C136.422 125.412 135.582 126.89 133.412 127.734C131.102 128.72 128.722 129.775 126.972 131.746C126.272 132.52 125.362 133.224 124.382 133.646C121.862 134.702 119.623 136.18 117.383 137.657C116.613 138.15 115.703 138.432 114.793 138.783C113.603 139.276 111.853 139.346 111.293 140.191C110.523 141.458 109.473 141.739 108.353 142.232C106.323 143.076 104.294 144.132 102.544 145.61C101.844 146.243 100.654 146.525 99.6038 146.666C98.7639 146.736 98.0639 146.877 97.7139 147.581C96.524 149.692 94.0742 148.636 92.5343 149.762C92.4643 149.762 91.9743 149.34 110.593 139.206C129.632 129.353 129.702 129.353 129.842 129.353C129.842 129.142 129.702 128.931 129.632 128.79C129.632 128.79 129.352 128.86 129.142 128.931C129.282 129.071 129.352 129.212 110.593 139.276L110.663 139.065Z" fill="black"/>
<path d="M83.3647 61.0873C84.6247 60.9465 85.5346 61.0873 85.7446 60.7354C86.8645 59.0463 88.5444 59.4686 90.0843 59.3278C91.7642 59.1871 93.3741 58.7648 95.054 58.6241C96.8039 58.4833 98.9038 59.1871 100.234 58.4129C101.914 57.4277 104.013 58.6241 105.413 57.0758C105.623 56.7943 106.463 56.8646 106.883 57.0758C108.493 57.8499 109.963 56.7943 111.573 57.0054C112.413 57.0758 113.743 56.0905 114.163 56.4424C115.073 57.1461 115.633 56.5831 116.263 56.3016C117.383 55.809 118.223 58.061 119.552 56.5127C120.462 55.4571 121.652 57.0758 122.982 56.6535C123.682 56.372 124.942 57.6388 126.132 57.9203C127.182 58.1314 128.162 59.1167 129.142 59.7501C128.722 60.2427 128.232 60.7354 127.672 61.3688C128.162 61.5799 128.652 61.7207 129.422 62.0022C128.722 62.2837 128.302 62.4948 127.742 62.7059C127.952 62.9874 128.162 63.2689 128.372 63.4801C127.602 64.0431 126.902 64.6765 126.062 65.3099C125.082 64.8876 123.892 64.2542 122.282 65.0987C121.442 65.5914 120.112 65.3803 119.063 65.4506C118.153 65.4506 117.313 64.6765 116.263 65.4506C115.423 66.0136 114.023 65.0284 113.113 66.1544C112.973 66.2952 112.413 66.2952 112.133 66.1544C110.663 65.2395 109.263 65.1691 107.723 66.1544C107.233 66.5063 106.253 66.3655 105.553 66.2248C102.194 65.521 102.194 65.521 98.6238 66.2248C98.2738 66.2952 97.7839 66.3655 97.5039 66.2248C96.174 65.2395 94.564 65.8729 93.3041 65.3803C91.8342 64.8172 90.5043 64.8172 89.0344 64.6765C88.6144 64.6765 88.0545 64.5357 87.7045 64.2542C86.4446 63.3393 85.1846 62.354 83.5047 61.0873H83.3647Z" fill="black"/>
<path d="M99.1838 101.413C80.635 105.917 80.285 105.495 80.075 105.143C79.935 104.862 79.865 104.51 79.655 103.806C79.4451 104.51 79.4451 104.862 79.3051 105.214C79.2351 105.425 79.0251 105.495 78.8851 105.636C78.1851 104.228 77.4152 106.199 76.8552 105.636C75.8053 104.651 74.5454 105.143 73.3554 104.862C72.6555 104.721 72.1655 103.947 70.9756 103.032C72.6555 102.75 73.7054 102.61 74.8253 102.399C74.5454 102.047 74.3354 101.765 73.9154 101.343C75.9453 101.061 77.8352 100.85 79.655 99.865C81.1949 99.0205 83.2248 99.0908 84.9747 98.2463C86.3746 97.5425 88.2645 97.6833 89.8744 97.4018C90.3644 97.3314 90.8543 97.261 91.2743 97.0499C91.7643 96.7684 92.4642 95.9239 92.6042 96.0646C93.7942 96.8388 94.7041 95.5016 95.824 95.8535C97.4339 96.3461 98.8338 95.3609 100.304 94.8682C105.413 93.1088 109.333 91.7716 112.343 92.1235C113.183 92.1939 114.093 92.2643 115.003 92.1235C115.773 91.9828 116.473 91.4901 117.173 91.2086C118.573 92.8977 118.853 94.5867 118.503 96.4869C114.933 99.0908 111.223 100.006 107.583 100.569C107.093 100.639 106.393 100.428 106.113 100.639C105.133 101.695 103.874 101.554 102.684 101.765C101.284 102.047 99.6738 102.117 98.6939 102.891C97.084 104.228 95.2641 103.313 93.5142 104.158C91.5543 105.073 89.0345 104.721 86.7246 105.073C84.9047 105.354 83.0848 105.847 99.2538 101.554C117.663 96.698 117.733 96.698 117.873 96.698C117.873 96.4869 117.733 96.2758 117.663 96.135C117.663 96.135 117.383 96.2054 117.173 96.2758C117.313 96.4165 117.383 96.5573 99.2538 101.554L99.1838 101.413Z" fill="black"/>
<path d="M296.782 150.114C297.272 150.255 297.692 150.396 298.112 150.607L297.692 153.774C297.832 155.322 297.692 156.237 297.272 157.363C296.852 157.222 296.502 157.011 296.082 156.87C292.372 155.604 292.512 155.463 290.062 152.507C287.192 148.988 284.882 145.047 281.453 142.021C280.263 140.965 279.213 139.558 278.233 138.22C277.113 136.743 275.503 135.617 274.313 134.139C272.913 132.379 271.863 130.409 270.323 128.086C270.323 127.875 271.793 127.242 270.463 126.538C271.093 125.904 271.723 125.271 272.283 124.708C273.263 125.06 273.543 127.242 275.223 125.623C275.363 125.482 276.273 125.904 276.693 126.186C279.423 128.438 282.502 130.409 284.602 133.364C285.092 134.068 285.722 134.35 286.282 134.842C287.122 135.617 287.822 136.461 288.732 137.235C289.502 137.869 289.362 139.417 290.832 139.346C291.112 141.106 292.652 141.95 293.772 143.006C294.752 143.921 294.612 146.032 296.642 145.962C296.782 145.962 297.342 149.481 297.272 149.833C297.272 149.903 297.132 150.044 296.922 150.185L296.782 150.114Z" fill="black"/>
<path d="M282.642 102.399C283.482 99.5835 285.442 99.0204 287.962 98.7389C290.272 98.4574 292.722 98.4574 294.892 97.4018C295.521 97.1203 296.361 97.4018 297.131 97.261C298.181 97.1203 299.301 97.6833 300.281 96.6276C300.491 96.3461 301.541 96.9795 302.241 96.9795C302.871 96.9795 303.501 96.4869 304.061 96.5573C305.741 96.7684 307.281 95.7127 309.101 96.4165C310.641 96.9795 312.6 96.4165 314.35 96.5573C316.66 96.7684 318.2 98.387 319.46 100.217C319.95 100.921 320.37 101.624 321 102.539C320.93 102.75 320.51 103.102 320.44 103.525C320.37 105.566 319.32 106.41 317.29 106.762C316.59 106.903 316.17 107.184 315.4 106.762C314.63 106.269 313.58 106.199 312.67 106.199C310.99 106.199 309.871 104.721 308.261 104.721C308.051 104.721 307.911 104.299 307.701 104.228C306.651 103.947 305.811 105.777 304.481 104.299C303.991 103.736 302.311 104.228 301.191 104.228C300.001 104.228 298.811 104.51 297.761 103.595C294.402 105.073 290.902 103.876 287.472 104.228C286.142 104.369 283.972 103.454 282.572 102.539L282.642 102.399Z" fill="black"/>
<path d="M265.144 152.225C267.453 152.507 268.083 154.055 268.923 155.533C270.253 157.926 269.623 161.023 271.863 163.064C271.933 163.134 271.443 163.838 271.373 164.33C271.233 165.175 270.533 166.16 272.283 166.512C273.263 166.723 272.633 167.708 272.073 168.201C272.213 169.186 274.593 169.468 273.053 171.157C272.843 171.368 273.683 172.705 274.173 173.479C275.783 176.294 275.083 179.039 273.753 181.713C273.613 181.995 273.193 182.206 272.773 182.628C272.143 182.065 271.513 181.502 270.883 180.939C270.533 181.221 270.183 181.502 269.693 181.854C268.573 180.799 267.453 180.095 267.383 178.265C267.383 176.857 266.264 175.52 265.634 174.113C265.494 173.761 265.214 173.409 265.284 173.127C265.774 171.087 264.724 169.257 264.444 167.357C264.164 165.667 264.024 163.838 263.114 162.219C262.694 161.445 262.624 159.756 263.114 159.334C264.304 158.278 262.624 157.645 262.974 156.8C263.324 155.955 263.394 154.9 263.814 154.126C264.164 153.351 264.934 152.788 265.354 152.296L265.144 152.225Z" fill="black"/>
<path d="M171.419 276.511C171.419 276.511 172.049 276.019 172.329 275.737C172.539 276.019 172.679 276.23 172.889 276.511H171.349H171.419Z" fill="black"/>
<path d="M198.018 55.0348C198.018 55.0348 198.228 54.8237 198.298 54.7533C198.368 54.894 198.508 55.1052 198.508 55.2459C198.508 55.2459 198.368 55.3867 198.298 55.5274C198.228 55.3867 198.088 55.1756 198.018 55.0348Z" fill="black"/>
<path d="M165.12 123.934C165.12 123.934 165.4 124.145 165.33 124.145C165.26 124.286 165.12 124.427 164.98 124.567C164.84 124.427 164.77 124.356 164.63 124.215C164.77 124.075 164.91 124.004 165.05 123.864L165.12 123.934Z" fill="black"/>
<path d="M80.495 237.804C80.495 237.804 80.285 237.522 80.145 237.382C80.285 237.382 80.565 237.241 80.635 237.241C80.775 237.382 80.775 237.593 80.845 237.804C80.705 237.804 80.635 237.804 80.495 237.804Z" fill="black"/>
<path d="M67.1959 258.284C67.1959 258.284 66.7759 257.932 66.5659 257.791C66.7759 257.721 66.9859 257.65 67.1959 257.51C67.1959 257.791 67.1959 258.002 67.1959 258.284Z" fill="black"/>
<path d="M169.599 277.285C169.599 277.285 169.39 277.004 169.25 276.863C169.39 276.863 169.669 276.722 169.739 276.722C169.879 276.863 169.879 277.074 169.949 277.285C169.809 277.285 169.739 277.285 169.599 277.285Z" fill="black"/>
<path d="M94.0741 296.991C94.0741 296.991 93.8641 296.709 93.7241 296.569C93.8641 296.569 94.1441 296.428 94.2141 296.428C94.3541 296.569 94.3541 296.78 94.4241 296.991C94.2841 296.991 94.2141 296.991 94.0741 296.991Z" fill="black"/>
<path d="M35.1378 304.592C35.1378 304.592 34.9278 304.31 34.7878 304.169C34.9278 304.169 35.2078 304.029 35.2778 304.029C35.4178 304.169 35.4178 304.381 35.4878 304.592C35.3478 304.592 35.2778 304.592 35.1378 304.592Z" fill="black"/>
<path d="M27.5782 316.767C27.5782 316.767 27.3683 316.485 27.2283 316.345C27.3683 316.345 27.6482 316.204 27.7182 316.204C27.8582 316.345 27.8582 316.556 27.9282 316.767C27.7882 316.767 27.7182 316.767 27.5782 316.767Z" fill="black"/>
<path d="M125.782 315.993C125.782 315.993 125.572 315.711 125.432 315.571C125.572 315.571 125.852 315.43 125.922 315.43C126.062 315.571 126.062 315.782 126.132 315.993C125.992 315.993 125.922 315.993 125.782 315.993Z" fill="black"/>
<path d="M253.034 73.0513V74.5996C253.034 74.5996 252.544 73.9662 252.264 73.6847C252.544 73.4736 252.754 73.3328 253.034 73.1217V73.0513Z" fill="black"/>
<path d="M251.914 76.0775C251.914 76.0775 251.704 75.796 251.564 75.6553C251.704 75.6553 251.984 75.5145 252.054 75.5145C252.194 75.6553 252.194 75.8664 252.264 76.0775C252.124 76.0775 252.054 76.0775 251.914 76.0775Z" fill="black"/>
<path d="M247.714 84.3821H246.944C246.944 84.3821 247.434 83.8894 247.714 83.6079V84.3821Z" fill="black"/>
</g>
<defs>
<clipPath id="clip0_204_562">
<rect width="321" height="392" fill="white"/>
</clipPath>
</defs>
</svg>
