<svg width="1039" height="429" viewBox="0 0 1039 429" fill="none" xmlns="http://www.w3.org/2000/svg">
<path d="M47.5872 1.66923C47.5872 1.66923 46.8887 23.0911 46.8887 28.8346C46.8887 34.5782 47.5872 56 47.5872 56H37.6525C37.6525 56 38.351 36.4409 38.351 28.8346V25.3419C37.7301 27.2047 37.1092 28.9122 36.7211 30.2317C35.4016 34.3453 33.1508 41.6412 31.288 48.0832L28.9595 56H23.0608C22.4398 53.9044 21.6637 51.1102 20.7323 48.1608C18.7919 41.5635 16.5411 33.9572 15.144 29.6884C14.7559 28.4465 14.2902 26.9718 13.6693 25.2643V28.8346C13.6693 36.4409 14.3678 56 14.3678 56H4.43308C4.43308 56 5.20923 34.5782 5.20923 28.8346C5.20923 23.0911 4.43308 1.66923 4.43308 1.66923H16.3082C18.4815 9.04269 22.5175 22.5478 23.9922 27.1271C24.3802 28.4465 25.1564 30.6198 26.0102 33.1811C26.7863 30.8526 27.4848 28.9122 27.8729 27.6704C29.4252 23.0135 33.5388 8.88746 35.7121 1.66923H47.5872ZM59.4272 1.66923H70.0605C70.0605 1.66923 69.2844 23.0911 69.2844 28.8346C69.2844 34.5782 70.0605 56 70.0605 56H59.4272C59.4272 56 60.2034 34.5782 60.2034 28.8346C60.2034 23.0911 59.4272 1.66923 59.4272 1.66923ZM92.743 46.6085L109.896 46.0652V56H82.7306C82.7306 56 83.5068 34.5782 83.5068 28.8346C83.5068 23.0911 82.7306 1.66923 82.7306 1.66923H93.0535C93.0535 1.66923 92.3549 23.0911 92.3549 28.8346C92.3549 32.0168 92.5878 40.0888 92.743 46.6085ZM132.377 1.66923H143.088C141.613 7.49038 137.733 22.9358 136.258 29.766C135.016 35.3543 132.843 46.7638 131.523 53.982C131.368 54.7582 131.291 55.3791 131.135 56H122.054C121.822 54.9134 121.589 53.7492 121.356 52.4297C119.881 45.2891 117.708 35.0438 116.466 29.8436C114.836 22.9358 110.645 7.25754 109.093 1.66923H119.803C121.045 8.88746 123.607 23.3239 124.771 28.0585C125.004 29.2227 125.469 31.0855 126.013 33.2587C126.556 31.0855 126.944 29.3003 127.255 28.0585C128.264 23.3239 130.98 8.96508 132.377 1.66923ZM159.662 46.6085L180.152 46.0652V56H150.038C150.038 56 150.736 34.5782 150.736 28.8346C150.736 23.0911 150.038 1.66923 150.038 1.66923H178.678V11.604C178.678 11.604 168.355 11.2935 159.662 11.1383C159.507 15.0967 159.352 19.7536 159.274 23.4015H171.615V32.4049H159.274C159.352 36.2857 159.507 41.874 159.662 46.6085ZM222.233 18.8222C222.233 25.3419 218.74 29.5332 214.083 32.0945C216.024 38.3037 220.836 52.973 221.767 56H211.444C210.125 50.6445 207.408 40.0112 205.934 34.7334C204.536 34.9662 203.139 35.0438 201.82 35.0438H196.775C197.008 43.5039 197.473 56 197.473 56H187.539C187.539 56 188.237 34.5782 188.237 28.8346C188.237 23.0911 187.539 1.66923 187.539 1.66923H201.82C215.713 1.97969 222.233 9.04269 222.233 18.8222ZM196.697 26.5838H204.071C208.417 26.5838 212.298 23.1687 212.298 18.8998C212.298 14.7086 209.504 11.4488 203.683 11.4488H197.163C196.93 16.649 196.775 22.7806 196.697 26.5838ZM233.228 1.66923H243.861C243.861 1.66923 243.085 23.0911 243.085 28.8346C243.085 34.5782 243.861 56 243.861 56H233.228C233.228 56 234.004 34.5782 234.004 28.8346C234.004 23.0911 233.228 1.66923 233.228 1.66923ZM277.798 1.66923H287.733C287.733 1.66923 286.957 23.0911 286.957 28.8346C286.957 34.5782 287.733 56 287.733 56H277.798V55.9224C275.935 51.3431 270.114 36.5185 267.398 30.2317L264.992 24.8762C264.992 26.3509 264.914 27.748 264.914 28.8346C264.914 36.4409 265.69 56 265.69 56H255.755C255.755 56 256.454 34.5782 256.454 28.8346C256.454 24.5658 256.066 11.6816 255.833 5.31715V3.53199C255.755 2.36776 255.755 1.66923 255.755 1.66923H265.069L265.612 3.22154C268.174 9.50838 273.374 22.6254 275.159 26.8166C275.858 28.3689 277.022 31.0078 278.419 34.0348C278.497 32.0168 278.497 30.2317 278.497 28.8346C278.497 21.2283 277.798 1.66923 277.798 1.66923ZM307.465 46.6085L327.955 46.0652V56H297.84C297.84 56 298.539 34.5782 298.539 28.8346C298.539 23.0911 297.84 1.66923 297.84 1.66923H326.481V11.604C326.481 11.604 316.158 11.2935 307.465 11.1383C307.31 15.0967 307.154 19.7536 307.077 23.4015H319.418V32.4049H307.077C307.154 36.2857 307.31 41.874 307.465 46.6085ZM384.615 29.6108C384.615 43.1935 381.51 51.0326 375.922 54.5253C377.086 58.9494 378.095 62.7525 378.328 63.9168L368.316 65.4691C367.928 63.3735 367.384 60.2688 366.686 56.7762C355.897 56.5433 349.843 48.7042 349.843 29.6108C349.843 10.9055 354.423 0.893072 367.229 0.893072C379.958 0.893072 384.615 10.9055 384.615 29.6108ZM359.157 28.8346C359.157 37.6052 361.719 45.0562 367.229 45.0562C372.662 45.0562 375.224 37.6052 375.224 28.8346C375.224 19.8312 374.292 10.6726 367.229 10.6726C360.089 10.6726 359.157 19.8312 359.157 28.8346ZM424.026 28.8346C424.026 30.9302 424.181 35.2767 424.258 39.7784C424.569 50.4893 418.049 56.8538 408.58 56.8538C399.111 56.8538 392.591 50.4893 392.902 39.7784C393.057 35.2767 393.135 30.9302 393.135 28.8346C393.135 23.0911 392.358 1.66923 392.358 1.66923H402.371C402.371 1.66923 401.595 21.2283 401.595 28.8346V28.9122C401.595 29.3003 401.595 29.6884 401.595 30.1541C401.672 41.9516 403.302 45.91 408.58 45.91C413.858 45.91 415.488 41.9516 415.565 30.1541V28.9122C415.565 28.8346 415.565 28.8346 415.565 28.8346C415.565 21.2283 414.867 1.66923 414.867 1.66923H424.802C424.802 1.66923 424.026 23.0911 424.026 28.8346ZM436.286 1.66923H446.92C446.92 1.66923 446.143 23.0911 446.143 28.8346C446.143 34.5782 446.92 56 446.92 56H436.286C436.286 56 437.062 34.5782 437.062 28.8346C437.062 23.0911 436.286 1.66923 436.286 1.66923ZM476.51 46.6085C479.847 46.6085 483.961 43.892 486.367 40.0888L492.964 47.5399C489.782 52.4297 483.418 56.7762 476.122 56.7762C465.023 56.7762 456.796 49.0146 456.796 29.6108C456.796 10.9831 464.868 0.970687 475.734 0.970687C483.495 0.970687 488.851 5.31715 491.567 12.8458L483.262 17.8908C482.098 14.8638 480.158 10.7502 476.044 10.7502C470.068 10.7502 466.187 18.4342 466.187 28.8346C466.187 40.4769 469.99 46.6085 476.51 46.6085ZM526.467 29.2227C528.252 34.5005 534.927 52.3521 536.324 56H525.225C523.285 49.7908 519.637 37.6052 517.696 31.9392C517.308 30.6974 516.687 29.1451 516.066 27.4375C514.204 30.2317 511.798 33.8796 509.702 37.1395L510.245 56H500.311C500.311 56 501.087 34.5782 501.087 28.8346C501.087 23.0911 500.311 1.66923 500.311 1.66923H510.245C510.245 1.66923 509.857 13.2339 509.702 21.6164L511.953 18.4342C512.108 18.2013 512.341 17.8908 512.496 17.658C514.126 15.3295 516.843 11.1383 519.559 7.1023C520.801 5.16192 521.965 3.29915 523.052 1.66923H534.927C533.918 3.0663 527.476 11.604 522.819 17.8132C524.294 22.6254 525.691 27.0495 526.467 29.2227ZM555.252 46.6085L572.405 46.0652V56H545.24C545.24 56 546.016 34.5782 546.016 28.8346C546.016 23.0911 545.24 1.66923 545.24 1.66923H555.562C555.562 1.66923 554.864 23.0911 554.864 28.8346C554.864 32.0168 555.097 40.0888 555.252 46.6085ZM593.952 1.66923H604.275C601.403 8.1113 596.047 20.3745 593.719 26.1957C593.098 27.748 592.399 29.6884 591.546 31.9392C591.778 40.0112 592.322 56 592.322 56H581.921C581.921 56 582.465 41.4083 582.62 33.1035C582.077 31.4735 581.533 30.1541 581.3 29.4555C578.429 22.1597 570.124 5.00669 568.494 1.66923H579.903C581.766 6.559 584.793 14.4758 587.122 20.3745C588.984 15.4072 591.856 7.49038 593.952 1.66923ZM645.812 1.66923H656.523C656.523 1.66923 655.747 23.0911 655.747 28.8346C655.747 30.9302 655.824 35.1991 655.98 39.7784C655.98 51.1102 648.994 56.8538 639.525 56.8538C628.737 56.8538 623.614 48.0832 623.226 38.847L632.695 34.0348C632.773 41.7964 635.101 46.6862 639.525 46.6862C643.716 46.6862 645.89 43.7368 646.433 35.0438C646.433 32.4049 646.511 30.1541 646.511 28.8346C646.511 23.0911 645.812 1.66923 645.812 1.66923ZM701.049 56H690.26C689.639 52.8954 688.708 48.4713 687.777 44.0472H675.591C674.815 48.4713 674.116 52.8954 673.651 56H663.017C664.57 49.946 668.838 33.1035 670.08 27.9032C671.089 23.1687 673.883 8.96508 675.28 1.66923H688.165C689.562 8.577 692.278 21.694 693.675 27.8256C695.305 34.7334 699.574 50.4117 701.049 56ZM677.221 35.0438H685.914C685.448 32.793 685.06 30.9302 684.75 29.6884L681.412 16.7266C680.17 21.6164 679.006 26.5062 678.307 29.6108C677.997 31.0855 677.609 32.9482 677.221 35.0438ZM737.974 28.8346C737.974 30.9302 738.129 35.2767 738.207 39.7784C738.517 50.4893 731.997 56.8538 722.528 56.8538C713.059 56.8538 706.539 50.4893 706.85 39.7784C707.005 35.2767 707.083 30.9302 707.083 28.8346C707.083 23.0911 706.307 1.66923 706.307 1.66923H716.319C716.319 1.66923 715.543 21.2283 715.543 28.8346V28.9122C715.543 29.3003 715.543 29.6884 715.543 30.1541C715.62 41.9516 717.25 45.91 722.528 45.91C727.806 45.91 729.436 41.9516 729.514 30.1541V28.9122C729.514 28.8346 729.514 28.8346 729.514 28.8346C729.514 21.2283 728.815 1.66923 728.815 1.66923H738.75C738.75 1.66923 737.974 23.0911 737.974 28.8346ZM770.853 1.66923H780.788C780.788 1.66923 780.012 23.0911 780.012 28.8346C780.012 34.5782 780.788 56 780.788 56H770.853V55.9224C768.99 51.3431 763.169 36.5185 760.452 30.2317L758.046 24.8762C758.046 26.3509 757.969 27.748 757.969 28.8346C757.969 36.4409 758.745 56 758.745 56H748.81C748.81 56 749.509 34.5782 749.509 28.8346C749.509 24.5658 749.121 11.6816 748.888 5.31715V3.53199C748.81 2.36776 748.81 1.66923 748.81 1.66923H758.124L758.667 3.22154C761.229 9.50838 766.429 22.6254 768.214 26.8166C768.913 28.3689 770.077 31.0078 771.474 34.0348C771.551 32.0168 771.551 30.2317 771.551 28.8346C771.551 21.2283 770.853 1.66923 770.853 1.66923ZM819.846 1.66923V11.604L808.514 11.2935C808.281 17.8132 808.048 25.6524 808.048 28.8346C808.048 34.5782 808.824 56 808.824 56H798.424C798.424 56 799.122 34.5782 799.122 28.8346C799.122 25.6524 798.89 17.8132 798.734 11.2935L787.403 11.604V1.66923H819.846ZM844.551 1.28115C851.614 1.28115 856.737 5.55 860.074 9.58599L853.166 16.649C846.491 6.79184 835.936 10.7502 835.936 17.0371C835.936 28.1361 859.997 22.703 859.997 41.1755C859.997 48.0056 855.107 56.4657 842.611 56.4657C835.082 56.4657 829.261 52.973 825.07 48.5489L831.822 40.5545C834.927 44.0472 839.739 46.6862 843.154 46.6862C847.578 46.6862 849.907 44.1248 849.907 41.1755C849.907 32.1721 826.544 35.82 826.544 18.0461C826.544 5.23953 837.022 1.28115 844.551 1.28115ZM33.3836 94.6692V104.604L22.0518 104.294C21.8189 110.813 21.5861 118.652 21.5861 121.835C21.5861 127.578 22.3622 149 22.3622 149H11.9618C11.9618 149 12.6603 127.578 12.6603 121.835C12.6603 118.652 12.4275 110.813 12.2722 104.294L0.940385 104.604V94.6692H33.3836ZM64.8003 94.6692H74.735C74.735 94.6692 73.9589 116.091 73.9589 121.835C73.9589 127.578 74.735 149 74.735 149H64.8003C64.8003 149 65.266 134.952 65.4212 126.026H49.1996C49.3548 134.952 49.8981 149 49.8981 149H39.9633C39.9633 149 40.6619 127.578 40.6619 121.835C40.6619 116.091 39.9633 94.6692 39.9633 94.6692H50.2862C50.131 96.532 49.4324 108.562 49.1996 117.022H65.4212C65.266 108.097 64.8003 94.6692 64.8003 94.6692ZM118.771 111.822C118.771 118.342 115.278 122.533 110.621 125.094C112.562 131.304 117.374 145.973 118.305 149H107.982C106.663 143.645 103.946 133.011 102.472 127.733C101.075 127.966 99.6775 128.044 98.358 128.044H93.313C93.5458 136.504 94.0115 149 94.0115 149H84.0768C84.0768 149 84.7753 127.578 84.7753 121.835C84.7753 116.091 84.0768 94.6692 84.0768 94.6692H98.358C112.251 94.9797 118.771 102.043 118.771 111.822ZM93.2354 119.584H100.609C104.955 119.584 108.836 116.169 108.836 111.9C108.836 107.709 106.042 104.449 100.221 104.449H93.7011C93.4682 109.649 93.313 115.781 93.2354 119.584ZM144.175 93.8155C156.982 93.8155 161.872 105.691 161.872 122.456C161.872 141.859 155.274 149.621 144.175 149.621C133.076 149.621 126.479 141.859 126.479 122.456C126.479 105.691 131.369 93.8155 144.175 93.8155ZM144.175 138.988C149.608 138.988 152.17 132.468 152.17 121.912C152.17 112.831 151.238 103.595 144.175 103.595C137.112 103.595 136.181 112.831 136.181 121.912C136.181 132.468 138.742 138.988 144.175 138.988ZM203.307 121.835C203.307 123.93 203.462 128.277 203.54 132.778C203.85 143.489 197.33 149.854 187.861 149.854C178.392 149.854 171.873 143.489 172.183 132.778C172.338 128.277 172.416 123.93 172.416 121.835C172.416 116.091 171.64 94.6692 171.64 94.6692H181.652C181.652 94.6692 180.876 114.228 180.876 121.835V121.912C180.876 122.3 180.876 122.688 180.876 123.154C180.954 134.952 182.583 138.91 187.861 138.91C193.139 138.91 194.769 134.952 194.847 123.154V121.912C194.847 121.835 194.847 121.835 194.847 121.835C194.847 114.228 194.148 94.6692 194.148 94.6692H204.083C204.083 94.6692 203.307 116.091 203.307 121.835ZM247.828 118.963L247.518 130.683C247.518 133.322 247.44 136.116 247.44 138.6C244.957 143.024 241.929 146.206 238.514 148.069C236.341 149.233 234.09 149.854 231.607 149.854C220.43 149.854 212.28 142.092 212.28 122.688C212.28 104.061 218.334 94.0483 231.141 94.0483C238.902 94.0483 244.336 98.3948 246.974 105.923L238.67 110.968C237.583 107.941 235.643 103.828 231.451 103.828C225.475 103.828 222.37 111.512 222.37 121.912C222.37 133.555 225.397 138.91 231.917 138.91C234.323 138.91 236.652 137.513 238.514 134.874L238.282 128.044H230.442L231.219 118.963H247.828ZM280.592 94.6692H290.527C290.527 94.6692 289.751 116.091 289.751 121.835C289.751 127.578 290.527 149 290.527 149H280.592C280.592 149 281.058 134.952 281.213 126.026H264.992C265.147 134.952 265.69 149 265.69 149H255.755C255.755 149 256.454 127.578 256.454 121.835C256.454 116.091 255.755 94.6692 255.755 94.6692H266.078C265.923 96.532 265.224 108.562 264.992 117.022H281.213C281.058 108.097 280.592 94.6692 280.592 94.6692ZM350.256 132.235C350.256 143.8 341.486 148.767 332.094 149H316.183C316.183 149 316.959 127.578 316.959 121.835C316.959 116.091 316.183 94.6692 316.183 94.6692H328.214C342.728 94.6692 348.704 100.335 348.704 110.348C348.704 114.694 346.686 117.876 343.737 120.049C347.928 122.688 350.256 126.88 350.256 132.235ZM330.93 104.449H325.885C325.73 108.407 325.575 112.986 325.497 116.557H331.318C335.587 116.557 338.536 114.616 338.536 110.348C338.536 106.079 336.751 104.449 330.93 104.449ZM325.885 139.22H332.482C336.751 139.22 340.089 136.504 340.089 132.235C340.089 128.044 337.527 124.318 331.163 124.085C330.464 124.163 329.766 124.163 329.067 124.163H325.419C325.497 127.966 325.73 134.02 325.885 139.22ZM392.71 149H381.921C381.3 145.895 380.369 141.471 379.437 137.047H367.252C366.476 141.471 365.777 145.895 365.311 149H354.678C356.23 142.946 360.499 126.103 361.741 120.903C362.75 116.169 365.544 101.965 366.941 94.6692H379.825C381.222 101.577 383.939 114.694 385.336 120.826C386.966 127.733 391.235 143.412 392.71 149ZM368.882 128.044H377.575C377.109 125.793 376.721 123.93 376.41 122.688L373.073 109.727C371.831 114.616 370.667 119.506 369.968 122.611C369.658 124.085 369.27 125.948 368.882 128.044ZM416.892 94.6692H427.214C424.343 101.111 418.987 113.375 416.659 119.196C416.038 120.748 415.339 122.688 414.485 124.939C414.718 133.011 415.262 149 415.262 149H404.861C404.861 149 405.404 134.408 405.56 126.103C405.016 124.474 404.473 123.154 404.24 122.456C401.368 115.16 393.064 98.0067 391.434 94.6692H402.843C404.706 99.559 407.733 107.476 410.061 113.375C411.924 108.407 414.796 100.49 416.892 94.6692ZM469.14 94.6692H479.851C478.376 100.49 474.496 115.936 473.021 122.766C471.779 128.354 469.606 139.764 468.286 146.982C468.131 147.758 468.053 148.379 467.898 149H458.817C458.584 147.913 458.352 146.749 458.119 145.43C456.644 138.289 454.471 128.044 453.229 122.844C451.599 115.936 447.408 100.258 445.855 94.6692H456.566C457.808 101.887 460.37 116.324 461.534 121.058C461.767 122.223 462.232 124.085 462.776 126.259C463.319 124.085 463.707 122.3 464.017 121.058C465.026 116.324 467.743 101.965 469.14 94.6692ZM488.586 94.6692H499.219C499.219 94.6692 498.443 116.091 498.443 121.835C498.443 127.578 499.219 149 499.219 149H488.586C488.586 149 489.362 127.578 489.362 121.835C489.362 116.091 488.586 94.6692 488.586 94.6692ZM521.513 139.609L542.004 139.065V149H511.889C511.889 149 512.588 127.578 512.588 121.835C512.588 116.091 511.889 94.6692 511.889 94.6692H540.529V104.604C540.529 104.604 530.206 104.294 521.513 104.138C521.358 108.097 521.203 112.754 521.125 116.402H533.466V125.405H521.125C521.203 129.286 521.358 134.874 521.513 139.609ZM588.559 94.6692H599.192C597.872 100.801 594.69 115.858 593.448 122.611C592.284 128.82 590.266 142.015 589.257 149H578.546C577.537 142.015 575.519 128.82 574.355 122.611L573.501 118.031C573.113 119.894 572.803 121.524 572.57 122.611C571.716 127.345 569.465 141.627 568.379 149H557.668C556.659 142.015 554.641 128.82 553.476 122.611C552.235 115.858 549.052 100.801 547.733 94.6692H558.366C559.453 101.965 561.704 116.479 562.557 121.214C562.713 122.3 563.023 123.775 563.411 125.638L564.265 121.214C565.352 115.004 566.982 101.577 567.835 94.6692H579.09C580.021 101.965 581.806 116.479 582.66 121.214C582.815 122.3 583.126 123.775 583.514 125.638C583.902 123.775 584.212 122.3 584.367 121.214C585.221 116.479 587.472 101.965 588.559 94.6692ZM607.261 134.641L616.652 136.271C616.652 142.48 613.315 151.406 610.133 154.511L602.526 152.958C605.088 149.233 607.339 141.083 607.261 134.641ZM667.791 94.6692L673.612 101.034C669.266 107.476 662.746 117.255 660.495 120.826C658.71 123.697 653.743 131.769 649.396 139.298C658.555 139.065 671.594 138.677 671.594 138.677V149H644.584L636.823 140.618C638.685 137.591 648.698 122.378 652.889 115.703C654.597 112.986 657.313 108.562 659.952 104.061L639.229 104.604V94.6692H667.791ZM683.913 94.6692H694.546C694.546 94.6692 693.77 116.091 693.77 121.835C693.77 127.578 694.546 149 694.546 149H683.913C683.913 149 684.689 127.578 684.689 121.835C684.689 116.091 683.913 94.6692 683.913 94.6692ZM737.775 118.963L737.465 130.683C737.465 133.322 737.387 136.116 737.387 138.6C734.904 143.024 731.877 146.206 728.462 148.069C726.288 149.233 724.037 149.854 721.554 149.854C710.377 149.854 702.228 142.092 702.228 122.688C702.228 104.061 708.282 94.0483 721.088 94.0483C728.85 94.0483 734.283 98.3948 736.922 105.923L728.617 110.968C727.53 107.941 725.59 103.828 721.399 103.828C715.422 103.828 712.318 111.512 712.318 121.912C712.318 133.555 715.345 138.91 721.864 138.91C724.27 138.91 726.599 137.513 728.462 134.874L728.229 128.044H720.39L721.166 118.963H737.775ZM756.646 117.255C758.975 117.255 764.563 117.1 769.53 116.945V126.103C764.563 125.948 758.975 125.793 756.646 125.793C754.318 125.793 748.729 125.948 743.762 126.103V116.945C748.729 117.1 754.318 117.255 756.646 117.255ZM806.347 94.6692L812.168 101.034C807.821 107.476 801.302 117.255 799.051 120.826C797.266 123.697 792.298 131.769 787.952 139.298C797.111 139.065 810.15 138.677 810.15 138.677V149H783.14L775.378 140.618C777.241 137.591 787.253 122.378 791.445 115.703C793.152 112.986 795.869 108.562 798.508 104.061L777.784 104.604V94.6692H806.347ZM855.067 149H844.278C843.657 145.895 842.726 141.471 841.795 137.047H829.609C828.833 141.471 828.134 145.895 827.669 149H817.035C818.588 142.946 822.856 126.103 824.098 120.903C825.107 116.169 827.901 101.965 829.299 94.6692H842.183C843.58 101.577 846.296 114.694 847.693 120.826C849.323 127.733 853.592 143.412 855.067 149ZM831.239 128.044H839.932C839.466 125.793 839.078 123.93 838.768 122.688L835.43 109.727C834.188 114.616 833.024 119.506 832.326 122.611C832.015 124.085 831.627 125.948 831.239 128.044ZM892.476 118.963L892.165 130.683C892.165 133.322 892.088 136.116 892.088 138.6C889.604 143.024 886.577 146.206 883.162 148.069C880.989 149.233 878.738 149.854 876.254 149.854C865.077 149.854 856.928 142.092 856.928 122.688C856.928 104.061 862.982 94.0483 875.788 94.0483C883.55 94.0483 888.983 98.3948 891.622 105.923L883.317 110.968C882.23 107.941 880.29 103.828 876.099 103.828C870.122 103.828 867.018 111.512 867.018 121.912C867.018 133.555 870.045 138.91 876.564 138.91C878.971 138.91 881.299 137.513 883.162 134.874L882.929 128.044H875.09L875.866 118.963H892.476ZM934.088 118.963L933.777 130.683C933.777 133.322 933.7 136.116 933.7 138.6C931.216 143.024 928.189 146.206 924.774 148.069C922.601 149.233 920.35 149.854 917.866 149.854C906.689 149.854 898.54 142.092 898.54 122.688C898.54 104.061 904.594 94.0483 917.4 94.0483C925.162 94.0483 930.595 98.3948 933.234 105.923L924.929 110.968C923.842 107.941 921.902 103.828 917.711 103.828C911.734 103.828 908.63 111.512 908.63 121.912C908.63 133.555 911.657 138.91 918.177 138.91C920.583 138.91 922.911 137.513 924.774 134.874L924.541 128.044H916.702L917.478 118.963H934.088ZM943.439 94.6692H954.072C954.072 94.6692 953.296 116.091 953.296 121.835C953.296 127.578 954.072 149 954.072 149H943.439C943.439 149 944.215 127.578 944.215 121.835C944.215 116.091 943.439 94.6692 943.439 94.6692ZM988.009 94.6692H997.944C997.944 94.6692 997.168 116.091 997.168 121.835C997.168 127.578 997.944 149 997.944 149H988.009V148.922C986.146 144.343 980.325 129.519 977.609 123.232L975.203 117.876C975.203 119.351 975.125 120.748 975.125 121.835C975.125 129.441 975.901 149 975.901 149H965.966C965.966 149 966.665 127.578 966.665 121.835C966.665 117.566 966.277 104.682 966.044 98.3171V96.532C965.966 95.3678 965.966 94.6692 965.966 94.6692H975.28L975.824 96.2215C978.385 102.508 983.585 115.625 985.37 119.817C986.069 121.369 987.233 124.008 988.63 127.035C988.708 125.017 988.708 123.232 988.708 121.835C988.708 114.228 988.009 94.6692 988.009 94.6692ZM1038.61 118.963L1038.3 130.683C1038.3 133.322 1038.22 136.116 1038.22 138.6C1035.74 143.024 1032.71 146.206 1029.3 148.069C1027.12 149.233 1024.87 149.854 1022.39 149.854C1011.21 149.854 1003.06 142.092 1003.06 122.688C1003.06 104.061 1009.12 94.0483 1021.92 94.0483C1029.69 94.0483 1035.12 98.3948 1037.76 105.923L1029.45 110.968C1028.37 107.941 1026.43 103.828 1022.23 103.828C1016.26 103.828 1013.15 111.512 1013.15 121.912C1013.15 133.555 1016.18 138.91 1022.7 138.91C1025.11 138.91 1027.43 137.513 1029.3 134.874L1029.06 128.044H1021.22L1022 118.963H1038.61ZM16.4635 187.669C25.3892 187.669 37.342 193.723 37.342 214.835C37.342 243.397 18.7143 242 18.7143 242H3.65692C3.65692 242 4.35546 220.578 4.35546 214.835C4.35546 209.091 3.65692 187.669 3.65692 187.669H16.4635ZM13.2812 232.686H18.7143C24.225 232.686 27.9505 225.157 27.9505 213.903C27.9505 202.571 23.1384 196.673 16.0754 196.673H13.2812C13.0484 203.27 12.8155 211.575 12.8155 214.835C12.8155 218.017 13.0484 226.166 13.2812 232.686ZM62.1638 186.815C74.9703 186.815 79.8601 198.691 79.8601 215.456C79.8601 234.859 73.2628 242.621 62.1638 242.621C51.0648 242.621 44.4675 234.859 44.4675 215.456C44.4675 198.691 49.3572 186.815 62.1638 186.815ZM62.1638 231.988C67.5968 231.988 70.1581 225.468 70.1581 214.912C70.1581 205.831 69.2268 196.595 62.1638 196.595C55.1008 196.595 54.1694 205.831 54.1694 214.912C54.1694 225.468 56.7307 231.988 62.1638 231.988ZM123.018 187.669H133.651C132.332 193.801 129.149 208.858 127.908 215.611C126.743 221.82 124.725 235.015 123.716 242H113.005C111.996 235.015 109.978 221.82 108.814 215.611L107.96 211.031C107.572 212.894 107.262 214.524 107.029 215.611C106.175 220.345 103.924 234.627 102.838 242H92.1269C91.1179 235.015 89.0999 221.82 87.9357 215.611C86.6939 208.858 83.5116 193.801 82.1922 187.669H92.8255C93.9121 194.965 96.1629 209.479 97.0167 214.214C97.1719 215.3 97.4824 216.775 97.8705 218.638L98.7243 214.214C99.8109 208.004 101.441 194.577 102.295 187.669H113.549C114.48 194.965 116.265 209.479 117.119 214.214C117.274 215.3 117.585 216.775 117.973 218.638C118.361 216.775 118.671 215.3 118.827 214.214C119.68 209.479 121.931 194.965 123.018 187.669ZM162.133 187.669H172.068C172.068 187.669 171.292 209.091 171.292 214.835C171.292 220.578 172.068 242 172.068 242H162.133V241.922C160.27 237.343 154.449 222.519 151.733 216.232L149.326 210.876C149.326 212.351 149.249 213.748 149.249 214.835C149.249 222.441 150.025 242 150.025 242H140.09C140.09 242 140.789 220.578 140.789 214.835C140.789 210.566 140.401 197.682 140.168 191.317V189.532C140.09 188.368 140.09 187.669 140.09 187.669H149.404L149.947 189.222C152.509 195.508 157.709 208.625 159.494 212.817C160.193 214.369 161.357 217.008 162.754 220.035C162.832 218.017 162.832 216.232 162.832 214.835C162.832 207.228 162.133 187.669 162.133 187.669ZM224.646 215.223C226.431 220.501 233.106 238.352 234.503 242H223.404C221.464 235.791 217.816 223.605 215.876 217.939C215.488 216.697 214.867 215.145 214.246 213.438C212.383 216.232 209.977 219.88 207.881 223.139L208.425 242H198.49C198.49 242 199.266 220.578 199.266 214.835C199.266 209.091 198.49 187.669 198.49 187.669H208.425C208.425 187.669 208.036 199.234 207.881 207.616L210.132 204.434C210.287 204.201 210.52 203.891 210.675 203.658C212.305 201.33 215.022 197.138 217.738 193.102C218.98 191.162 220.144 189.299 221.231 187.669H233.106C232.097 189.066 225.655 197.604 220.998 203.813C222.473 208.625 223.87 213.049 224.646 215.223ZM241.717 187.669H252.351C252.351 187.669 251.574 209.091 251.574 214.835C251.574 220.578 252.351 242 252.351 242H241.717C241.717 242 242.493 220.578 242.493 214.835C242.493 209.091 241.717 187.669 241.717 187.669ZM286.287 187.669H296.222C296.222 187.669 295.446 209.091 295.446 214.835C295.446 220.578 296.222 242 296.222 242H286.287V241.922C284.425 237.343 278.603 222.519 275.887 216.232L273.481 210.876C273.481 212.351 273.403 213.748 273.403 214.835C273.403 222.441 274.179 242 274.179 242H264.245C264.245 242 264.943 220.578 264.943 214.835C264.943 210.566 264.555 197.682 264.322 191.317V189.532C264.245 188.368 264.245 187.669 264.245 187.669H273.558L274.102 189.222C276.663 195.508 281.863 208.625 283.648 212.817C284.347 214.369 285.511 217.008 286.908 220.035C286.986 218.017 286.986 216.232 286.986 214.835C286.986 207.228 286.287 187.669 286.287 187.669ZM327.596 187.669H337.531C337.531 187.669 336.755 209.091 336.755 214.835C336.755 220.578 337.531 242 337.531 242H327.596V241.922C325.734 237.343 319.912 222.519 317.196 216.232L314.79 210.876C314.79 212.351 314.712 213.748 314.712 214.835C314.712 222.441 315.488 242 315.488 242H305.553C305.553 242 306.252 220.578 306.252 214.835C306.252 210.566 305.864 197.682 305.631 191.317V189.532C305.553 188.368 305.553 187.669 305.553 187.669H314.867L315.411 189.222C317.972 195.508 323.172 208.625 324.957 212.817C325.656 214.369 326.82 217.008 328.217 220.035C328.295 218.017 328.295 216.232 328.295 214.835C328.295 207.228 327.596 187.669 327.596 187.669ZM349.424 187.669H360.057C360.057 187.669 359.281 209.091 359.281 214.835C359.281 220.578 360.057 242 360.057 242H349.424C349.424 242 350.2 220.578 350.2 214.835C350.2 209.091 349.424 187.669 349.424 187.669ZM389.647 232.609C392.985 232.609 397.098 229.892 399.504 226.089L406.102 233.54C402.92 238.43 396.555 242.776 389.259 242.776C378.16 242.776 369.933 235.015 369.933 215.611C369.933 196.983 378.005 186.971 388.871 186.971C396.633 186.971 401.988 191.317 404.705 198.846L396.4 203.891C395.236 200.864 393.295 196.75 389.182 196.75C383.205 196.75 379.324 204.434 379.324 214.835C379.324 226.477 383.128 232.609 389.647 232.609ZM439.604 215.223C441.39 220.501 448.064 238.352 449.462 242H438.363C436.422 235.791 432.774 223.605 430.834 217.939C430.446 216.697 429.825 215.145 429.204 213.438C427.341 216.232 424.935 219.88 422.839 223.139L423.383 242H413.448C413.448 242 414.224 220.578 414.224 214.835C414.224 209.091 413.448 187.669 413.448 187.669H423.383C423.383 187.669 422.995 199.234 422.839 207.616L425.09 204.434C425.246 204.201 425.478 203.891 425.634 203.658C427.264 201.33 429.98 197.138 432.697 193.102C433.938 191.162 435.103 189.299 436.189 187.669H448.064C447.055 189.066 440.613 197.604 435.956 203.813C437.431 208.625 438.828 213.049 439.604 215.223ZM456.676 187.669H467.309C467.309 187.669 466.533 209.091 466.533 214.835C466.533 220.578 467.309 242 467.309 242H456.676C456.676 242 457.452 220.578 457.452 214.835C457.452 209.091 456.676 187.669 456.676 187.669ZM501.246 187.669H511.18C511.18 187.669 510.404 209.091 510.404 214.835C510.404 220.578 511.18 242 511.18 242H501.246V241.922C499.383 237.343 493.562 222.519 490.845 216.232L488.439 210.876C488.439 212.351 488.361 213.748 488.361 214.835C488.361 222.441 489.138 242 489.138 242H479.203C479.203 242 479.901 220.578 479.901 214.835C479.901 210.566 479.513 197.682 479.28 191.317V189.532C479.203 188.368 479.203 187.669 479.203 187.669H488.517L489.06 189.222C491.621 195.508 496.821 208.625 498.607 212.817C499.305 214.369 500.469 217.008 501.866 220.035C501.944 218.017 501.944 216.232 501.944 214.835C501.944 207.228 501.246 187.669 501.246 187.669ZM523.073 187.669H533.706C533.706 187.669 532.93 209.091 532.93 214.835C532.93 220.578 533.706 242 533.706 242H523.073C523.073 242 523.849 220.578 523.849 214.835C523.849 209.091 523.073 187.669 523.073 187.669ZM563.297 232.609C566.634 232.609 570.748 229.892 573.154 226.089L579.751 233.54C576.569 238.43 570.204 242.776 562.909 242.776C551.81 242.776 543.582 235.015 543.582 215.611C543.582 196.983 551.654 186.971 562.52 186.971C570.282 186.971 575.637 191.317 578.354 198.846L570.049 203.891C568.885 200.864 566.945 196.75 562.831 196.75C556.855 196.75 552.974 204.434 552.974 214.835C552.974 226.477 556.777 232.609 563.297 232.609ZM611.484 232.609L631.974 232.065V242H601.859C601.859 242 602.558 220.578 602.558 214.835C602.558 209.091 601.859 187.669 601.859 187.669H630.499V197.604C630.499 197.604 620.177 197.294 611.484 197.138C611.328 201.097 611.173 205.754 611.096 209.402H623.436V218.405H611.096C611.173 222.286 611.328 227.874 611.484 232.609ZM662.54 187.669H672.475C672.475 187.669 671.699 209.091 671.699 214.835C671.699 220.578 672.475 242 672.475 242H662.54V241.922C660.677 237.343 654.856 222.519 652.14 216.232L649.733 210.876C649.733 212.351 649.656 213.748 649.656 214.835C649.656 222.441 650.432 242 650.432 242H640.497C640.497 242 641.196 220.578 641.196 214.835C641.196 210.566 640.808 197.682 640.575 191.317V189.532C640.497 188.368 640.497 187.669 640.497 187.669H649.811L650.354 189.222C652.916 195.508 658.116 208.625 659.901 212.817C660.6 214.369 661.764 217.008 663.161 220.035C663.239 218.017 663.239 216.232 663.239 214.835C663.239 207.228 662.54 187.669 662.54 187.669ZM732.039 204.822C732.039 211.342 728.546 215.533 723.889 218.094C725.829 224.304 730.641 238.973 731.573 242H721.25C719.931 236.645 717.214 226.011 715.739 220.733C714.342 220.966 712.945 221.044 711.626 221.044H706.581C706.814 229.504 707.279 242 707.279 242H697.344C697.344 242 698.043 220.578 698.043 214.835C698.043 209.091 697.344 187.669 697.344 187.669H711.626C725.519 187.98 732.039 195.043 732.039 204.822ZM706.503 212.584H713.877C718.223 212.584 722.104 209.169 722.104 204.9C722.104 200.709 719.31 197.449 713.488 197.449H706.969C706.736 202.649 706.581 208.781 706.503 212.584ZM757.443 186.815C770.25 186.815 775.139 198.691 775.139 215.456C775.139 234.859 768.542 242.621 757.443 242.621C746.344 242.621 739.747 234.859 739.747 215.456C739.747 198.691 744.636 186.815 757.443 186.815ZM757.443 231.988C762.876 231.988 765.437 225.468 765.437 214.912C765.437 205.831 764.506 196.595 757.443 196.595C750.38 196.595 749.449 205.831 749.449 214.912C749.449 225.468 752.01 231.988 757.443 231.988ZM816.574 214.835C816.574 216.93 816.73 221.277 816.807 225.778C817.118 236.489 810.598 242.854 801.129 242.854C791.66 242.854 785.14 236.489 785.451 225.778C785.606 221.277 785.683 216.93 785.683 214.835C785.683 209.091 784.907 187.669 784.907 187.669H794.92C794.92 187.669 794.144 207.228 794.144 214.835V214.912C794.144 215.3 794.144 215.688 794.144 216.154C794.221 227.952 795.851 231.91 801.129 231.91C806.407 231.91 808.037 227.952 808.114 216.154V214.912C808.114 214.835 808.114 214.835 808.114 214.835C808.114 207.228 807.416 187.669 807.416 187.669H817.351C817.351 187.669 816.574 209.091 816.574 214.835ZM857.138 187.669V197.604L845.806 197.294C845.573 203.813 845.34 211.652 845.34 214.835C845.34 220.578 846.116 242 846.116 242H835.716C835.716 242 836.414 220.578 836.414 214.835C836.414 211.652 836.181 203.813 836.026 197.294L824.694 197.604V187.669H857.138ZM874.118 232.609L894.608 232.065V242H864.493C864.493 242 865.192 220.578 865.192 214.835C865.192 209.091 864.493 187.669 864.493 187.669H893.134V197.604C893.134 197.604 882.811 197.294 874.118 197.138C873.963 201.097 873.807 205.754 873.73 209.402H886.071V218.405H873.73C873.807 222.286 873.963 227.874 874.118 232.609ZM948.396 187.669V197.604L937.064 197.294C936.832 203.813 936.599 211.652 936.599 214.835C936.599 220.578 937.375 242 937.375 242H926.974C926.974 242 927.673 220.578 927.673 214.835C927.673 211.652 927.44 203.813 927.285 197.294L915.953 197.604V187.669H948.396ZM970.81 186.815C983.616 186.815 988.506 198.691 988.506 215.456C988.506 234.859 981.909 242.621 970.81 242.621C959.711 242.621 953.113 234.859 953.113 215.456C953.113 198.691 958.003 186.815 970.81 186.815ZM970.81 231.988C976.243 231.988 978.804 225.468 978.804 214.912C978.804 205.831 977.873 196.595 970.81 196.595C963.747 196.595 962.815 205.831 962.815 214.912C962.815 225.468 965.376 231.988 970.81 231.988ZM28.4938 280.669H38.4286C38.4286 280.669 37.6525 302.091 37.6525 307.835C37.6525 313.578 38.4286 335 38.4286 335H28.4938C28.4938 335 28.9595 320.952 29.1148 312.026H12.8932C13.0484 320.952 13.5917 335 13.5917 335H3.65692C3.65692 335 4.35546 313.578 4.35546 307.835C4.35546 302.091 3.65692 280.669 3.65692 280.669H13.9798C13.8245 282.532 13.126 294.562 12.8932 303.022H29.1148C28.9595 294.097 28.4938 280.669 28.4938 280.669ZM80.2136 307.835C80.2136 309.93 80.3688 314.277 80.4464 318.778C80.7569 329.489 74.2372 335.854 64.7681 335.854C55.299 335.854 48.7794 329.489 49.0898 318.778C49.245 314.277 49.3227 309.93 49.3227 307.835C49.3227 302.091 48.5465 280.669 48.5465 280.669H58.5589C58.5589 280.669 57.7827 300.228 57.7827 307.835V307.912C57.7827 308.3 57.7827 308.688 57.7827 309.154C57.8604 320.952 59.4903 324.91 64.7681 324.91C70.046 324.91 71.6759 320.952 71.7535 309.154V307.912C71.7535 307.835 71.7535 307.835 71.7535 307.835C71.7535 300.228 71.055 280.669 71.055 280.669H80.9897C80.9897 280.669 80.2136 302.091 80.2136 307.835ZM134.98 280.669C134.98 280.669 134.282 302.091 134.282 307.835C134.282 313.578 134.98 335 134.98 335H125.046C125.046 335 125.744 315.441 125.744 307.835V304.342C125.123 306.205 124.502 307.912 124.114 309.232C122.795 313.345 120.544 320.641 118.681 327.083L116.353 335H110.454C109.833 332.904 109.057 330.11 108.125 327.161C106.185 320.564 103.934 312.957 102.537 308.688C102.149 307.447 101.683 305.972 101.062 304.264V307.835C101.062 315.441 101.761 335 101.761 335H91.8262C91.8262 335 92.6023 313.578 92.6023 307.835C92.6023 302.091 91.8262 280.669 91.8262 280.669H103.701C105.875 288.043 109.911 301.548 111.385 306.127C111.773 307.447 112.549 309.62 113.403 312.181C114.179 309.853 114.878 307.912 115.266 306.67C116.818 302.013 120.932 287.887 123.105 280.669H134.98ZM177.971 318.235C177.971 329.8 169.201 334.767 159.809 335H143.898C143.898 335 144.674 313.578 144.674 307.835C144.674 302.091 143.898 280.669 143.898 280.669H155.929C170.443 280.669 176.419 286.335 176.419 296.348C176.419 300.694 174.401 303.876 171.452 306.049C175.643 308.688 177.971 312.88 177.971 318.235ZM158.645 290.449H153.6C153.445 294.407 153.29 298.986 153.212 302.557H159.033C163.302 302.557 166.251 300.616 166.251 296.348C166.251 292.079 164.466 290.449 158.645 290.449ZM153.6 325.22H160.197C164.466 325.22 167.804 322.504 167.804 318.235C167.804 314.044 165.242 310.318 158.878 310.085C158.179 310.163 157.481 310.163 156.782 310.163H153.134C153.212 313.966 153.445 320.02 153.6 325.22ZM202.235 279.815C215.042 279.815 219.932 291.691 219.932 308.456C219.932 327.859 213.334 335.621 202.235 335.621C191.136 335.621 184.539 327.859 184.539 308.456C184.539 291.691 189.429 279.815 202.235 279.815ZM202.235 324.988C207.668 324.988 210.23 318.468 210.23 307.912C210.23 298.831 209.298 289.595 202.235 289.595C195.172 289.595 194.241 298.831 194.241 307.912C194.241 318.468 196.802 324.988 202.235 324.988ZM239.333 325.609L256.486 325.065V335H229.321C229.321 335 230.097 313.578 230.097 307.835C230.097 302.091 229.321 280.669 229.321 280.669H239.643C239.643 280.669 238.945 302.091 238.945 307.835C238.945 311.017 239.178 319.089 239.333 325.609ZM277.809 280.669C286.735 280.669 298.688 286.723 298.688 307.835C298.688 336.397 280.06 335 280.06 335H265.002C265.002 335 265.701 313.578 265.701 307.835C265.701 302.091 265.002 280.669 265.002 280.669H277.809ZM274.627 325.686H280.06C285.571 325.686 289.296 318.157 289.296 306.903C289.296 295.571 284.484 289.673 277.421 289.673H274.627C274.394 296.27 274.161 304.575 274.161 307.835C274.161 311.017 274.394 319.166 274.627 325.686ZM334.295 280.669V290.604L322.963 290.294C322.73 296.813 322.497 304.652 322.497 307.835C322.497 313.578 323.273 335 323.273 335H312.873C312.873 335 313.572 313.578 313.572 307.835C313.572 304.652 313.339 296.813 313.183 290.294L301.852 290.604V280.669H334.295ZM369.53 280.669C383.501 281.057 389.865 289.595 389.865 299.375C389.865 311.25 377.99 317.692 369.53 317.692H366.037L366.58 335H356.413C356.413 335 357.189 313.578 357.189 307.835C357.189 302.091 356.413 280.669 356.413 280.669H369.53ZM365.882 308.611H369.685C376.593 308.611 379.697 303.643 379.697 299.375C379.697 295.106 377.214 290.449 371.393 290.449H366.27C366.115 296.891 365.882 304.73 365.882 307.835V308.611ZM426.969 335H416.181C415.56 331.895 414.629 327.471 413.697 323.047H401.512C400.735 327.471 400.037 331.895 399.571 335H388.938C390.49 328.946 394.759 312.103 396.001 306.903C397.01 302.169 399.804 287.965 401.201 280.669H414.085C415.482 287.577 418.199 300.694 419.596 306.826C421.226 313.733 425.495 329.412 426.969 335ZM403.142 314.044H411.834C411.369 311.793 410.981 309.93 410.67 308.688L407.333 295.727C406.091 300.616 404.927 305.506 404.228 308.611C403.918 310.085 403.53 311.948 403.142 314.044ZM468.116 297.822C468.116 304.342 464.623 308.533 459.966 311.094C461.907 317.304 466.719 331.973 467.65 335H457.327C456.008 329.645 453.291 319.011 451.817 313.733C450.42 313.966 449.023 314.044 447.703 314.044H442.658C442.891 322.504 443.357 335 443.357 335H433.422C433.422 335 434.12 313.578 434.12 307.835C434.12 302.091 433.422 280.669 433.422 280.669H447.703C461.596 280.98 468.116 288.043 468.116 297.822ZM442.58 305.584H449.954C454.3 305.584 458.181 302.169 458.181 297.9C458.181 293.709 455.387 290.449 449.566 290.449H443.046C442.813 295.649 442.658 301.781 442.58 305.584ZM504.259 308.223C506.044 313.501 512.719 331.352 514.116 335H503.017C501.076 328.791 497.428 316.605 495.488 310.939C495.1 309.697 494.479 308.145 493.858 306.438C491.995 309.232 489.589 312.88 487.494 316.139L488.037 335H478.102C478.102 335 478.878 313.578 478.878 307.835C478.878 302.091 478.102 280.669 478.102 280.669H488.037C488.037 280.669 487.649 292.234 487.494 300.616L489.745 297.434C489.9 297.201 490.133 296.891 490.288 296.658C491.918 294.33 494.634 290.138 497.351 286.102C498.593 284.162 499.757 282.299 500.844 280.669H512.719C511.71 282.066 505.268 290.604 500.611 296.813C502.085 301.625 503.482 306.049 504.259 308.223ZM566.511 280.669V290.604C566.511 290.604 556.654 290.294 548.194 290.138C548.116 294.407 547.961 299.297 547.883 303.1H559.448V312.181H547.883C548.039 320.486 548.504 335 548.504 335H538.569C538.569 335 539.346 313.578 539.346 307.835C539.346 302.091 538.569 280.669 538.569 280.669H566.511ZM589.327 279.815C602.133 279.815 607.023 291.691 607.023 308.456C607.023 327.859 600.426 335.621 589.327 335.621C578.228 335.621 571.631 327.859 571.631 308.456C571.631 291.691 576.52 279.815 589.327 279.815ZM589.327 324.988C594.76 324.988 597.321 318.468 597.321 307.912C597.321 298.831 596.39 289.595 589.327 289.595C582.264 289.595 581.333 298.831 581.333 307.912C581.333 318.468 583.894 324.988 589.327 324.988ZM649.193 297.822C649.193 304.342 645.7 308.533 641.044 311.094C642.984 317.304 647.796 331.973 648.727 335H638.405C637.085 329.645 634.369 319.011 632.894 313.733C631.497 313.966 630.1 314.044 628.78 314.044H623.735C623.968 322.504 624.434 335 624.434 335H614.499C614.499 335 615.198 313.578 615.198 307.835C615.198 302.091 614.499 280.669 614.499 280.669H628.78C642.673 280.98 649.193 288.043 649.193 297.822ZM623.658 305.584H631.031C635.378 305.584 639.258 302.169 639.258 297.9C639.258 293.709 636.464 290.449 630.643 290.449H624.123C623.891 295.649 623.735 301.781 623.658 305.584ZM708.325 335H697.537C696.916 331.895 695.984 327.471 695.053 323.047H682.867C682.091 327.471 681.393 331.895 680.927 335H670.294C671.846 328.946 676.115 312.103 677.357 306.903C678.366 302.169 681.16 287.965 682.557 280.669H695.441C696.838 287.577 699.555 300.694 700.952 306.826C702.582 313.733 706.85 329.412 708.325 335ZM684.497 314.044H693.19C692.724 311.793 692.336 309.93 692.026 308.688L688.688 295.727C687.447 300.616 686.282 305.506 685.584 308.611C685.273 310.085 684.885 311.948 684.497 314.044ZM774.246 280.669C774.246 280.669 773.548 302.091 773.548 307.835C773.548 313.578 774.246 335 774.246 335H764.311C764.311 335 765.01 315.441 765.01 307.835V304.342C764.389 306.205 763.768 307.912 763.38 309.232C762.061 313.345 759.81 320.641 757.947 327.083L755.618 335H749.72C749.099 332.904 748.323 330.11 747.391 327.161C745.451 320.564 743.2 312.957 741.803 308.688C741.415 307.447 740.949 305.972 740.328 304.264V307.835C740.328 315.441 741.027 335 741.027 335H731.092C731.092 335 731.868 313.578 731.868 307.835C731.868 302.091 731.092 280.669 731.092 280.669H742.967C745.14 288.043 749.176 301.548 750.651 306.127C751.039 307.447 751.815 309.62 752.669 312.181C753.445 309.853 754.144 307.912 754.532 306.67C756.084 302.013 760.198 287.887 762.371 280.669H774.246ZM786.086 280.669H796.719C796.719 280.669 795.943 302.091 795.943 307.835C795.943 313.578 796.719 335 796.719 335H786.086C786.086 335 786.862 313.578 786.862 307.835C786.862 302.091 786.086 280.669 786.086 280.669ZM845.558 335H834.304C832.131 329.179 828.716 320.408 826.387 314.51L817.694 335H807.837L820.566 305.196C817.306 297.667 811.796 285.171 809.778 280.669H821.109C822.662 284.783 824.835 290.604 826.931 295.959L833.45 280.669H843.23L832.674 305.506C835.546 312.492 842.842 328.868 845.558 335ZM885.463 279.815C898.269 279.815 903.159 291.691 903.159 308.456C903.159 327.859 896.562 335.621 885.463 335.621C874.364 335.621 867.767 327.859 867.767 308.456C867.767 291.691 872.656 279.815 885.463 279.815ZM885.463 324.988C890.896 324.988 893.457 318.468 893.457 307.912C893.457 298.831 892.526 289.595 885.463 289.595C878.4 289.595 877.469 298.831 877.469 307.912C877.469 318.468 880.03 324.988 885.463 324.988ZM939.353 280.669V290.604C939.353 290.604 929.496 290.294 921.036 290.138C920.958 294.407 920.803 299.297 920.725 303.1H932.29V312.181H920.725C920.88 320.486 921.346 335 921.346 335H911.411C911.411 335 912.188 313.578 912.188 307.835C912.188 302.091 911.411 280.669 911.411 280.669H939.353ZM47.5872 373.669C47.5872 373.669 46.8887 395.091 46.8887 400.835C46.8887 406.578 47.5872 428 47.5872 428H37.6525C37.6525 428 38.351 408.441 38.351 400.835V397.342C37.7301 399.205 37.1092 400.912 36.7211 402.232C35.4016 406.345 33.1508 413.641 31.288 420.083L28.9595 428H23.0608C22.4398 425.904 21.6637 423.11 20.7323 420.161C18.7919 413.564 16.5411 405.957 15.144 401.688C14.7559 400.447 14.2902 398.972 13.6693 397.264V400.835C13.6693 408.441 14.3678 428 14.3678 428H4.43308C4.43308 428 5.20923 406.578 5.20923 400.835C5.20923 395.091 4.43308 373.669 4.43308 373.669H16.3082C18.4815 381.043 22.5175 394.548 23.9922 399.127C24.3802 400.447 25.1564 402.62 26.0102 405.181C26.7863 402.853 27.4848 400.912 27.8729 399.67C29.4252 395.013 33.5388 380.887 35.7121 373.669H47.5872ZM90.0671 400.835C90.0671 402.93 90.2223 407.277 90.3 411.778C90.6104 422.489 84.0907 428.854 74.6216 428.854C65.1526 428.854 58.6329 422.489 58.9433 411.778C59.0986 407.277 59.1762 402.93 59.1762 400.835C59.1762 395.091 58.4 373.669 58.4 373.669H68.4124C68.4124 373.669 67.6363 393.228 67.6363 400.835V400.912C67.6363 401.3 67.6363 401.688 67.6363 402.154C67.7139 413.952 69.3438 417.91 74.6216 417.91C79.8995 417.91 81.5294 413.952 81.607 402.154V400.912C81.607 400.835 81.607 400.835 81.607 400.835C81.607 393.228 80.9085 373.669 80.9085 373.669H90.8433C90.8433 373.669 90.0671 395.091 90.0671 400.835ZM117.513 373.281C124.576 373.281 129.699 377.55 133.036 381.586L126.129 388.649C119.454 378.792 108.898 382.75 108.898 389.037C108.898 400.136 132.959 394.703 132.959 413.175C132.959 420.006 128.069 428.466 115.573 428.466C108.044 428.466 102.223 424.973 98.0318 420.549L104.784 412.555C107.889 416.047 112.701 418.686 116.116 418.686C120.54 418.686 122.869 416.125 122.869 413.175C122.869 404.172 99.5065 407.82 99.5065 390.046C99.5065 377.24 109.985 373.281 117.513 373.281ZM140.908 373.669H151.542C151.542 373.669 150.765 395.091 150.765 400.835C150.765 406.578 151.542 428 151.542 428H140.908C140.908 428 141.684 406.578 141.684 400.835C141.684 395.091 140.908 373.669 140.908 373.669ZM181.132 418.609C184.469 418.609 188.583 415.892 190.989 412.089L197.586 419.54C194.404 424.43 188.04 428.776 180.744 428.776C169.645 428.776 161.417 421.015 161.417 401.611C161.417 382.983 169.489 372.971 180.356 372.971C188.117 372.971 193.473 377.317 196.189 384.846L187.884 389.891C186.72 386.864 184.78 382.75 180.666 382.75C174.69 382.75 170.809 390.434 170.809 400.835C170.809 412.477 174.612 418.609 181.132 418.609ZM254.078 428H243.29C242.669 424.895 241.737 420.471 240.806 416.047H228.62C227.844 420.471 227.146 424.895 226.68 428H216.047C217.599 421.946 221.868 405.103 223.11 399.903C224.119 395.169 226.913 380.965 228.31 373.669H241.194C242.591 380.577 245.308 393.694 246.705 399.826C248.335 406.733 252.603 422.412 254.078 428ZM230.25 407.044H238.943C238.477 404.793 238.089 402.93 237.779 401.688L234.441 388.727C233.2 393.616 232.035 398.506 231.337 401.611C231.026 403.085 230.638 404.948 230.25 407.044ZM286.771 373.669V383.604L275.439 383.294C275.206 389.813 274.973 397.652 274.973 400.835C274.973 406.578 275.749 428 275.749 428H265.349C265.349 428 266.047 406.578 266.047 400.835C266.047 397.652 265.814 389.813 265.659 383.294L254.327 383.604V373.669H286.771ZM326.585 418.609C329.922 418.609 334.036 415.892 336.442 412.089L343.039 419.54C339.857 424.43 333.493 428.776 326.197 428.776C315.098 428.776 306.871 421.015 306.871 401.611C306.871 382.983 314.943 372.971 325.809 372.971C333.57 372.971 338.926 377.317 341.642 384.846L333.337 389.891C332.173 386.864 330.233 382.75 326.119 382.75C320.143 382.75 316.262 390.434 316.262 400.835C316.262 412.477 320.065 418.609 326.585 418.609ZM373.67 373.669H383.605C383.605 373.669 382.829 395.091 382.829 400.835C382.829 406.578 383.605 428 383.605 428H373.67C373.67 428 374.136 413.952 374.291 405.026H358.069C358.225 413.952 358.768 428 358.768 428H348.833C348.833 428 349.532 406.578 349.532 400.835C349.532 395.091 348.833 373.669 348.833 373.669H359.156C359.001 375.532 358.302 387.562 358.069 396.022H374.291C374.136 387.097 373.67 373.669 373.67 373.669ZM395.508 373.669H406.141C406.141 373.669 405.365 395.091 405.365 400.835C405.365 406.578 406.141 428 406.141 428H395.508C395.508 428 396.284 406.578 396.284 400.835C396.284 395.091 395.508 373.669 395.508 373.669ZM428.824 418.609L445.977 418.065V428H418.811C418.811 428 419.587 406.578 419.587 400.835C419.587 395.091 418.811 373.669 418.811 373.669H429.134C429.134 373.669 428.436 395.091 428.436 400.835C428.436 404.017 428.668 412.089 428.824 418.609ZM461.416 418.609L478.569 418.065V428H451.404C451.404 428 452.18 406.578 452.18 400.835C452.18 395.091 451.404 373.669 451.404 373.669H461.727C461.727 373.669 461.028 395.091 461.028 400.835C461.028 404.017 461.261 412.089 461.416 418.609ZM518.457 372.815C531.264 372.815 536.154 384.691 536.154 401.456C536.154 420.859 529.556 428.621 518.457 428.621C507.358 428.621 500.761 420.859 500.761 401.456C500.761 384.691 505.651 372.815 518.457 372.815ZM518.457 417.988C523.89 417.988 526.452 411.468 526.452 400.912C526.452 391.831 525.52 382.595 518.457 382.595C511.394 382.595 510.463 391.831 510.463 400.912C510.463 411.468 513.024 417.988 518.457 417.988ZM565.672 373.669H575.607C575.607 373.669 574.831 395.091 574.831 400.835C574.831 406.578 575.607 428 575.607 428H565.672V427.922C563.81 423.343 557.988 408.519 555.272 402.232L552.866 396.876C552.866 398.351 552.788 399.748 552.788 400.835C552.788 408.441 553.564 428 553.564 428H543.63C543.63 428 544.328 406.578 544.328 400.835C544.328 396.566 543.94 383.682 543.707 377.317V375.532C543.63 374.368 543.63 373.669 543.63 373.669H552.943L553.487 375.222C556.048 381.508 561.248 394.625 563.033 398.817C563.732 400.369 564.896 403.008 566.293 406.035C566.371 404.017 566.371 402.232 566.371 400.835C566.371 393.228 565.672 373.669 565.672 373.669ZM630.204 373.669V383.604L618.872 383.294C618.639 389.813 618.406 397.652 618.406 400.835C618.406 406.578 619.182 428 619.182 428H608.782C608.782 428 609.48 406.578 609.48 400.835C609.48 397.652 609.247 389.813 609.092 383.294L597.76 383.604V373.669H630.204ZM661.62 373.669H671.555C671.555 373.669 670.779 395.091 670.779 400.835C670.779 406.578 671.555 428 671.555 428H661.62C661.62 428 662.086 413.952 662.241 405.026H646.019C646.175 413.952 646.718 428 646.718 428H636.783C636.783 428 637.482 406.578 637.482 400.835C637.482 395.091 636.783 373.669 636.783 373.669H647.106C646.951 375.532 646.252 387.562 646.019 396.022H662.241C662.086 387.097 661.62 373.669 661.62 373.669ZM691.297 418.609L711.788 418.065V428H681.673C681.673 428 682.371 406.578 682.371 400.835C682.371 395.091 681.673 373.669 681.673 373.669H710.313V383.604C710.313 383.604 699.99 383.294 691.297 383.138C691.142 387.097 690.987 391.754 690.909 395.402H703.25V404.405H690.909C690.987 408.286 691.142 413.874 691.297 418.609ZM760.686 373.669H770.621C770.621 373.669 769.844 395.091 769.844 400.835C769.844 406.578 770.621 428 770.621 428H760.686C760.686 428 761.152 413.952 761.307 405.026H745.085C745.24 413.952 745.784 428 745.784 428H735.849C735.849 428 736.547 406.578 736.547 400.835C736.547 395.091 735.849 373.669 735.849 373.669H746.172C746.017 375.532 745.318 387.562 745.085 396.022H761.307C761.152 387.097 760.686 373.669 760.686 373.669ZM782.524 373.669H793.157C793.157 373.669 792.381 395.091 792.381 400.835C792.381 406.578 793.157 428 793.157 428H782.524C782.524 428 783.3 406.578 783.3 400.835C783.3 395.091 782.524 373.669 782.524 373.669ZM815.84 418.609L832.993 418.065V428H805.827C805.827 428 806.603 406.578 806.603 400.835C806.603 395.091 805.827 373.669 805.827 373.669H816.15C816.15 373.669 815.451 395.091 815.451 400.835C815.451 404.017 815.684 412.089 815.84 418.609ZM848.432 418.609L865.585 418.065V428H838.42C838.42 428 839.196 406.578 839.196 400.835C839.196 395.091 838.42 373.669 838.42 373.669H848.742C848.742 373.669 848.044 395.091 848.044 400.835C848.044 404.017 848.277 412.089 848.432 418.609ZM883.26 422.645C883.26 425.982 880.543 428.776 877.128 428.776C873.713 428.776 870.997 425.982 870.997 422.645C870.997 419.229 873.713 416.513 877.128 416.513C880.543 416.513 883.26 419.229 883.26 422.645Z" fill="#F7F2DE"/>
</svg>
