<svg width="827" height="366" viewBox="0 0 827 366" fill="none" xmlns="http://www.w3.org/2000/svg">
<path d="M96.5331 302.301C96.5331 315.318 98.0994 363.918 98.0994 363.918H75.5325C75.5325 363.918 77.0988 319.542 77.0988 302.301V294.374C75.7065 298.598 74.2562 302.474 73.386 305.483C70.3694 314.798 65.2643 331.344 61.0293 345.982L55.7502 363.918H42.3492C40.9569 359.173 39.1586 352.809 37.0701 346.156C32.6611 331.171 27.556 313.93 24.3653 304.268C23.4951 301.433 22.4509 298.135 21.0006 294.259V302.358C21.0006 319.6 22.5669 363.975 22.5669 363.975H0C0 363.975 1.74038 315.376 1.74038 302.358C1.74038 289.341 0 240.741 0 240.741H26.9759C31.907 257.462 41.073 288.068 44.4377 298.482C45.3079 301.491 47.1063 306.408 49.0207 312.194C50.7611 306.929 52.3854 302.532 53.2556 299.697C56.7944 289.109 66.1344 257.115 71.0655 240.741H98.0414C98.0414 240.741 96.4751 289.341 96.4751 302.358L96.5331 302.301Z" fill="#F7F2DE"/>
<path d="M152.863 240.684C152.863 240.684 151.123 289.283 151.123 302.301C151.123 315.318 152.863 363.918 152.863 363.918H128.672C128.672 363.918 130.412 315.318 130.412 302.301C130.412 289.283 128.672 240.684 128.672 240.684H152.863Z" fill="#F7F2DE"/>
<path d="M244.639 341.354V363.86H182.856C182.856 363.86 184.596 315.26 184.596 302.243C184.596 289.225 182.856 240.626 182.856 240.626H206.351C206.351 240.626 204.784 289.225 204.784 302.243C204.784 309.475 205.307 327.757 205.655 342.569L244.639 341.354Z" fill="#F7F2DE"/>
<path d="M365.48 240.684C362.463 254.569 355.27 288.762 352.427 304.036C349.758 318.095 345.175 348.065 342.913 363.86H318.548C316.227 348.007 311.644 318.095 309.033 304.036L307.119 293.68C306.249 297.904 305.553 301.606 305.031 304.036C303.116 314.798 297.953 347.139 295.516 363.86H271.151C268.831 348.007 264.248 318.095 261.637 304.036C258.794 288.704 251.601 254.569 248.584 240.684H272.776C275.27 257.231 280.375 290.151 282.29 300.854C282.638 303.342 283.334 306.64 284.204 310.863L286.118 300.854C288.613 286.795 292.268 256.305 294.24 240.684H319.824C321.912 257.231 325.973 290.151 327.946 300.854C328.294 303.342 328.99 306.64 329.86 310.863C330.73 306.64 331.426 303.284 331.774 300.854C333.689 290.093 338.852 257.231 341.288 240.684H365.48Z" fill="#F7F2DE"/>
<path d="M432.137 363.918C430.745 356.859 428.598 346.85 426.51 336.841H398.78C397.04 346.85 395.415 356.917 394.371 363.918H370.18C373.718 350.206 383.407 312.02 386.249 300.218C388.57 289.456 394.893 257.288 398.084 240.741H427.38C430.571 256.421 436.72 286.159 439.911 300.044C443.624 315.723 453.312 351.247 456.677 363.918H432.137ZM422.275 316.36C421.231 311.268 420.361 307.045 419.606 304.21L412.007 274.819C409.164 285.927 406.554 296.978 404.929 304.036C404.233 307.392 403.363 311.615 402.435 316.36H422.217H422.275Z" fill="#F7F2DE"/>
<path d="M545.319 327.121C546.015 349.801 531.222 365.827 509.641 365.827C488.06 365.827 473.267 349.801 473.963 327.121C474.311 316.938 474.486 307.045 474.486 302.301C474.486 289.283 472.745 240.684 472.745 240.684H495.486C495.486 240.684 493.746 285.059 493.746 302.301V305.309C493.92 332.039 497.633 341.064 509.641 341.064C521.65 341.064 525.363 332.097 525.537 305.309V302.301C525.537 285.059 523.97 240.684 523.97 240.684H546.537C546.537 240.684 544.797 289.283 544.797 302.301C544.797 307.045 545.145 316.938 545.319 327.121Z" fill="#F7F2DE"/>
<path d="M653.745 363.918H628.509C624.1 349.858 615.804 322.203 611.395 309.359C610.525 306.524 609.075 302.995 607.682 299.176C603.448 305.541 597.994 313.814 593.237 321.162L594.456 363.918H571.889C571.889 363.918 573.629 315.318 573.629 302.301C573.629 289.283 571.889 240.684 571.889 240.684H594.456C594.456 240.684 593.585 266.893 593.237 285.927L598.342 278.695C598.691 278.175 599.213 277.48 599.561 276.96C603.274 271.695 609.423 262.148 615.63 253.007C618.473 248.61 621.083 244.386 623.578 240.684H650.554C648.233 243.866 633.614 263.19 622.998 277.307C626.363 288.242 629.553 298.251 631.294 303.168C635.355 315.145 650.554 355.644 653.687 363.918H653.745Z" fill="#F7F2DE"/>
<path d="M738.966 341.354V363.86H670.511C670.511 363.86 672.077 315.26 672.077 302.243C672.077 289.225 670.511 240.626 670.511 240.626H735.659V263.132C735.659 263.132 712.164 262.438 692.44 262.09C692.091 271.058 691.743 281.646 691.569 289.919H719.647V310.343H691.569C691.743 319.137 692.091 331.807 692.44 342.569L739.024 341.354H738.966Z" fill="#F7F2DE"/>
<path d="M826.855 341.354V363.86H758.4C758.4 363.86 759.966 315.26 759.966 302.243C759.966 289.225 758.4 240.626 758.4 240.626H823.548V263.132C823.548 263.132 800.053 262.438 780.329 262.09C779.981 271.058 779.633 281.646 779.459 289.919H807.537V310.343H779.459C779.633 319.137 779.981 331.807 780.329 342.569L826.913 341.354H826.855Z" fill="#F7F2DE"/>
<path d="M58.9409 167.148C63.2338 180.918 73.9662 213.375 75.9966 220.086H53.0816C50.1229 208.226 44.0896 184.678 40.8409 172.991C37.7082 173.512 34.6336 173.686 31.7329 173.686H20.5365C21.0586 192.431 22.1028 220.086 22.1028 220.086H0C0 220.086 1.56634 172.644 1.56634 159.916C1.56634 147.187 0 99.7452 0 99.7452H31.7329C62.5957 100.44 77.0988 116.061 77.0988 137.757C77.0988 152.221 69.3251 161.478 58.9989 167.148H58.9409ZM36.722 154.94C46.3521 154.94 54.996 147.361 54.996 137.93C54.996 128.5 48.7887 121.441 35.8518 121.441H21.3487C20.8265 132.955 20.4785 146.551 20.3044 154.94H36.664H36.722Z" fill="#F7F2DE"/>
<path d="M151.007 220.086C149.614 213.201 147.584 203.424 145.496 193.588H118.404C116.663 203.366 115.155 213.201 114.111 220.086H90.4995C93.9223 206.664 103.436 169.346 106.163 157.833C108.425 147.361 114.633 115.887 117.707 99.7452H146.308C149.382 115.019 155.416 144.121 158.548 157.659C162.145 172.933 171.659 207.705 174.908 220.086H150.949H151.007ZM141.377 173.686C140.332 168.71 139.462 164.602 138.766 161.825L131.34 133.128C128.556 143.947 126.003 154.767 124.437 161.651C123.741 164.891 122.871 169.057 122 173.686H141.319H141.377Z" fill="#F7F2DE"/>
<path d="M267.554 159.916C267.554 223.211 226.191 220.086 226.191 220.086H192.776C192.776 220.086 194.342 172.644 194.342 159.916C194.342 147.187 192.776 99.7452 192.776 99.7452H221.202C241.043 99.7452 267.554 113.168 267.554 159.916ZM226.191 199.49C238.432 199.49 246.728 182.827 246.728 157.891C246.728 132.955 236.054 119.706 220.332 119.706H214.125C213.603 134.343 213.081 152.742 213.081 159.916C213.081 167.09 213.603 185.025 214.125 199.432H226.191V199.49Z" fill="#F7F2DE"/>
<path d="M314.139 99.7452C314.139 99.7452 312.398 147.187 312.398 159.916C312.398 172.644 314.139 220.086 314.139 220.086H290.528C290.528 220.086 292.268 172.644 292.268 159.916C292.268 147.187 290.528 99.7452 290.528 99.7452H314.139Z" fill="#F7F2DE"/>
<path d="M416.009 161.305C416.009 204.292 401.332 221.475 376.676 221.475C352.021 221.475 337.344 204.292 337.344 161.305C337.344 124.161 348.192 97.8362 376.676 97.8362C405.161 97.8362 416.009 124.161 416.009 161.305ZM394.428 160.09C394.428 139.956 392.34 119.532 376.676 119.532C361.013 119.532 358.924 140.013 358.924 160.09C358.924 180.166 364.61 197.407 376.676 197.407C388.743 197.407 394.428 179.529 394.428 160.09Z" fill="#F7F2DE"/>
<path d="M792.517 6.9989L732.164 90.8673C726.402 98.888 718.312 95.1683 719.592 87.2057L726.344 45.4749C729.952 23.2727 709.349 15.3683 697.36 32.6302L642.71 118.126C637.821 124.577 632.583 120.451 633.398 115.511L640.847 70.6413C644.339 49.6596 622.223 42.9757 610.816 60.877L557.272 144.629C552.267 152.417 546.621 147.884 547.436 143.002L554.653 99.353C558.378 76.6858 537.367 68.8976 524.447 86.857L432.956 213.967L441.919 221L505.881 146.547C512.981 138.236 522.643 141.084 522.119 153.405L520.955 179.792C520.024 201.297 539.055 203.854 549.007 188.394L590.562 123.996C596.557 114.697 607.324 116.324 606.509 129.343L605.112 151.546C603.657 175.085 624.959 176.305 634.678 160.961L675.127 97.6094C680.773 88.7169 691.714 91.8554 690.783 104.235L689.095 125.798C687.349 147.884 705.799 150.383 719.069 134.749L822.956 12.1717C815.739 -4.6834 798.861 -1.66111 792.634 6.9989H792.517Z" fill="#F8971D"/>
</svg>
