<svg xmlns="http://www.w3.org/2000/svg" viewBox="0 0 147.31 93.15"><g data-name="Layer 2"><path d="M70.55 1.4c-2 .75-6.46 2.56-9.8 4-4.92 2.11-29.63 11.93-56.29 22.36C.74 29.22 0 29.8 0 31.25c0 1.62.52 1.84 7.05 3a102.79 102.79 0 0 1 11.52 2.65c2.45.79 5.59 1.7 7 2l2.52.56-.52 9.76c-.28 5.35-.59 10.9-.67 12.26-.14 2.46-.07 2.52 6.91 5.65 20.79 9.34 34.66 11.26 53.91 7.45 5.13-1 9.65-1.85 10-1.85s.73 4.57.86 10.21c.21 9.65.3 10.21 1.7 10.21s1.5-.59 1.71-11l.22-11 2-.74a116.32 116.32 0 0 0 13.22-6.68c1.46-1.2 2.71-11 2.31-18.13-.21-3.71-.15-7.29.14-8 .35-.93 4.79-3.18 13.48-6.84 7.13-3 13.27-6 13.66-6.57 1.14-1.8-.78-3.07-6.65-4.44-2.87-.66-8.68-2.2-13-3.43-10.92-3.12-28.62-7.43-30.52-7.43-.87 0-5.76 1.78-11 4s-14.22 5.73-20.16 7.9C53 25.38 50.87 26.4 50.87 27.8s2.3 2.6 4.68 2.6a59.33 59.33 0 0 1 9.13 2.23c4 1.21 8.54 2.21 9.95 2.19 3.27 0 15.23-5.84 15.23-7.39 0-2-3.12-1.61-9 1.08-3.11 1.49-6.25 2.62-6.86 2.6A61.65 61.65 0 0 1 66.54 29l-6.24-2 8.84-3.19c4.87-1.76 13.07-5 18.27-7.2l9.43-4 15.81 4.06c19.31 5 25.38 6.57 25.77 6.85.74.52.67.55-41.51 18.2-19.53 8.17-23 9.5-24.73 9.5A18.75 18.75 0 0 1 67 49.24c-6.71-3.4-26.51-10.63-35.42-12.94s-20.93-5.78-21.31-6.14c-.12-.11 9.43-4 21.16-8.6C57.78 11.22 75.59 3.73 76.25 2.7c.49-.76-.65-2.7-1.54-2.7-.25 0-2.08.63-4.16 1.4zm45.3 43.33a40.36 40.36 0 0 1-.48 11.27l-1 5.09-5.57 2.82c-3 1.54-5.73 2.59-5.94 2.3s-.2-5.49 0-11.58l.37-11.07 5.57-2.45c3-1.34 5.79-2.46 6.06-2.48s.71 2.71 1 6.12zm-79.76-3.12c9.21 3 24.15 8.72 29.19 11.16 3.26 1.58 6.52 2.88 7.24 2.88s6.57-2.2 13-4.9l12.62-5.28c.69-.28.79 2.27.45 11-.21 6.27-.5 11.53-.59 11.69s-4 1.1-8.58 2.13C77.83 72.86 63.65 73 55 70.61a121.09 121.09 0 0 1-19.23-7l-5-2.27.45-2.63a94.83 94.83 0 0 0 .44-10.29c0-8.24 0-8.24 4.53-6.76z" fill="#fff" data-name="Layer 1"/></g></svg>