<svg xmlns="http://www.w3.org/2000/svg" viewBox="0 0 85.23 92.5"><g data-name="Layer 2"><path d="M46.66.82c-2.46 1.61-5.3 8-5.15 11.52.1 2.44 1.05 4.59 3.62 8.21 5.93 8.35 5.95 11 .08 17.61-3.49 4-4 4.21-7.91 4.38a42.68 42.68 0 0 1-6.84-.26l-2.62-.43L29.39 39c2.59-4.82 1.91-7.47-3-11.53-2.4-2-4.3-4-4.33-4.55-.06-1.48 3.29-4.56 6.22-5.71s3.5-3.63 1.14-4.42c-1.85-.62-8.07 2.8-10 5.53A8.72 8.72 0 0 0 18 23.53c.11 2.68.72 3.58 4.57 6.67L27 33.78l-2 4.06-2 4-10.71 1c-5.93.54-11 1.21-11.47 1.51S0 47.8 0 51.35C0 70.71 1.24 75 9.33 82.4c7.59 7 13.45 9.29 25.22 9.93 13.76.75 25.55-1.14 32-5.13 4.25-2.65 11.66-11.12 13.78-15.75C82.69 66.22 86.16 45.92 85 44c-.76-1.3-2.31-1.57-10-1.78-5-.13-9.11-.39-9.12-.57a19.54 19.54 0 0 1 1.95-3.14c2.73-3.9 2.34-7-1.37-11-2.52-2.71-2.9-3.56-2.24-5a7.13 7.13 0 0 1 2.42-2.66c1.77-1 2.08-3.77.48-4.31-3.12-1.05-6.89 3-7.48 8.11-.29 2.47.13 3.38 2.77 6.09a18.24 18.24 0 0 1 3.13 3.75 25.62 25.62 0 0 1-2.9 4.84c-2.22 3.23-3.32 4.16-4.59 3.87a35.64 35.64 0 0 0-6.22-.24c-4.47.04-4.52.04-2.83-1.51a14.81 14.81 0 0 0 4.75-11.08c-.12-2.94-1-5-4.22-9.92s-4-6.68-3.59-8.7c.72-3.91 3.2-6.75 6-6.86 2.07-.09 2.43-.41 2.16-1.95S53.24.07 50.92 0a9.25 9.25 0 0 0-4.26.82zm12.72 45.79c11.58 0 21.16.08 21.35.26.74.68-3.16 19.89-4.75 23.35-2.44 5.31-10.07 12.93-14.69 14.68-11.48 4.35-30.21 4.55-39.68.43a41.73 41.73 0 0 1-9.43-6C6.45 74.15 5 70.17 4.52 57.87l-.41-9.75 2.71-.5c3-.56 21.8-.92 52.56-1z" fill="#fff" data-name="Layer 1"/></g></svg>