<svg xmlns="http://www.w3.org/2000/svg" viewBox="0 0 114.92 102.95"><g data-name="Layer 2"><path d="M29.92 103c-2.93 0-6.37 0-9.67-.14-15.87-.42-18.67-1-19.94-4-.56-1.32-.3-21.67.29-35 .15-3.31.15-12.7 0-20.92C.33 28.05.34 27.75 1.2 27a2.15 2.15 0 0 0 .64-.81c0-.57 1.19-1.23 1.43-1.36 1.14-.61 2.58-.73 10.32-.79L25.71 24h2.89v-3.93c0-11 1.44-13.11 11-16.31C43.84 2.35 53.41.66 60.1.13 61.21.05 62.91 0 65 0c5.42 0 12.63.31 13.81.7 2.14.72 5.38 4 6.68 6.76a69.75 69.75 0 0 1 4 13.67l.2 1.88 4.68.44c2.72.26 8 .57 11.69.69 5.7.2 7.24.48 7.81.83l1 .63-.21 11.33c-.12 6.12-.47 16.86-.78 24-.71 16.27-.7 23.15 0 27.27.84 4.8.77 7.68-.22 8.58a16.65 16.65 0 0 1-4.7 1.5c-2.1.43-4.43 1-5.2 1.15a144.83 144.83 0 0 1-14.76 2.3c-2.42.24-14.23.5-26.32.57s-23.73.3-26 .49c-1.19.1-3.59.16-6.77.16zM4.66 43.42c-.13 1.68-.3 6.64-.41 13.44-.13 8-.34 20.35-.47 27.49-.15 8.79-.17 12.78.17 13.17 1.13.9 5 1.31 16 1.66 4.12.14 7.22.2 9.76.2 3.09 0 5.6-.09 8.12-.3 3.22-.26 10.86-.43 19-.43h5.23c15.28 0 26.7-.45 32.15-1.26 2.12-.32 6.77-1.22 10.36-2l6.24-1.39v-1.12a39.64 39.64 0 0 0-.57-4.62c-.73-4.15-.73-11.06 0-26.44.3-6.5.56-13.37.57-15.3v-2.69l-2.81 3.1a129.14 129.14 0 0 1-14.83 14 128.3 128.3 0 0 1-14.67 9.71 58.81 58.81 0 0 1-12.37 4l-2.39.36-.21 1.56c-.43 3.22-.63 4-1.23 4.47-.11.1-.35.29-2.73.29-2.58 0-9-.32-9.59-.94S48.79 77 48.77 75c0-1.56-.15-1.56-.36-1.56C47 73.38 35.93 69.46 32 67.57a72.57 72.57 0 0 1-7-4C21.48 61.25 12 52.1 7.44 46.72zM52.9 77.29c.14 0 1.55.14 3.64.27l3.08.2.16-1.34c.1-.88.28-4.17.38-7.32l.19-5.39H57.1c-3.05 0-4.44.1-4.88.57-.22.28-.22.72-.22 1.46.15 3.56.46 11 .89 11.55zM56.83 60c4.37 0 6.36.56 6.89 1.94a23.78 23.78 0 0 1 .13 5.36l-.21 4L65 71a59.35 59.35 0 0 0 11.51-3.64c1.23-.62 3.93-2.23 6-3.59 9.67-6.28 15.36-11.25 24.38-21.24l4.33-4.8v-9.64l-5.8-.22a96 96 0 0 1-9.86-.87 52.46 52.46 0 0 0-6.34-.87 1.38 1.38 0 0 0-.43 0c-.29.28-10.93.33-19.8.33-10.66 0-23 .18-27.46.39s-14.44.54-22.11.72c-8.28.19-14.34.47-14.81.61l-.7.21.53 8.92 3.81 4.59c6 7.17 15.06 16 18.93 18.61a65.41 65.41 0 0 0 15.91 7.38c2.5.84 4.47 1.48 5.19 1.7 0-.5.09-1.65.09-3.23 0-3.2.08-3.83 1-4.67 1.31-1.2 3.54-1.69 7.46-1.69zM33.52 23.52a4.91 4.91 0 0 0 1.29-.13c0-.54.25-2.32.4-3.51.87-7 2.18-9.35 6.41-11.25 3.92-1.76 12.7-3.25 19.17-3.25q1.35 0 2.46.09C74.24 6.34 78.49 8 80.11 12a36.17 36.17 0 0 1 1.46 9.34v1.4H86l-.22-1.68a60.08 60.08 0 0 0-1.9-7.06c-1.82-5.62-3.5-8.37-5.78-9.5-1.18-.59-2.45-.69-9.06-.74h-2.8c-3.2 0-5.72 0-6.27.11C46.26 5.38 39.32 7 35.2 9.59c-2.2 1.41-2.61 2.78-2.79 8.9l-.15 5zm5.1-.55h1.51c3.26 0 10.38-.05 18.15-.13l19.56-.21v-1.86c0-2.62-.91-7-1.68-8.17s-3.93-2.42-8.43-3a54.26 54.26 0 0 0-7.11-.45 49.63 49.63 0 0 0-16.54 2.59c-3.73 1.39-4.4 2.51-5.17 8.51-.17 1.31-.27 2.29-.29 2.75z" fill="#fff" data-name="Layer 1"/></g></svg>