<svg xmlns="http://www.w3.org/2000/svg" viewBox="0 0 153.42 81.01"><defs><style>.cls-1{fill:#fff}</style></defs><g id="Layer_2" data-name="Layer 2"><g id="Layer_1-2" data-name="Layer 1"><path class="cls-1" d="M52.07 81c-9 0-15.16-.33-16.55-.89-1-.41-1.62-2-1.58-4.28l.07-4-15.29-.94L18.24 59l-6.92-.12c-5.07-.08-6.75-.54-7.51-2C1.52 52.3-.68 27 .19 15.19.7 8.29 1.41 2.92 1.72 2.42c.26-.26 3.21-.77 12.49-.77h9.33C34.61 1.73 54.16 1.34 70 .8 84.1.32 98.92 0 106.92 0c2.44 0 4.14 0 5.06.09l7.14.45.9 13.62 8.5.14c9.49.16 10 .6 10.14 9.44l.12 6 6.19.11c3.82.06 6.37.8 6.92 1.49s1.19 5.68 1.31 12c.43 23.19.26 31.1-.71 32.58-.82 1.24-6.2 1.67-25.05 2-13.32.25-32.55 1.09-42.86 1.89-9.47.75-21.93 1.19-32.51 1.19zm46.6-47.49c-24.88 0-46.84.47-52.2 1.11l-10.23 1.23.49 6c.26 3.21.69 12.28 1 20.23l.51 14.68 13.39.24h1.77c8.16 0 24.05-.7 37-1.63 13.08-.94 28.14-1.68 34.27-1.68h3.67c5.12 0 10.91-.19 14.07-.48l7.21-.64-.09-8.84c0-4.79-.18-13.44-.3-19.26l-.22-10.9-46.35-.09zm29.92-14.61c-3.44 0-13.87.62-23.76 1.41-10.31.83-32.93 1.59-50.42 1.69l-31.94.21-.47 5.32c-.26 2.81-.26 12.86 0 22.41l.51 17.52 11.75.2-.61-4c-.3-2-.68-10.21-.83-17.93l-.26-14 11.91-1.08c6.31-.57 13.58-1 16.54-1h.68a16.67 16.67 0 0 0 9.23-2.85 12.23 12.23 0 0 1 6.56-2.12 13.25 13.25 0 0 1 7.43 2.64c1.88 1.26 7.53 1.69 25.2 1.9 5.29.06 9.35.11 12.47.11 10.09 0 10.62-.47 11.2-2.45a23.73 23.73 0 0 0 .78-5c0-1 0-1.92-1-2.38-.77-.38-2.1-.46-4.62-.51zm-124-3.1a97.82 97.82 0 0 0-.47 14.49c.28 2.39 2.8 24.45 2.8 24.45l10.78.18-.33-34.55L20 19c1.08-.54 4.33-1.18 13.66-1.18h4.09l15.12.26 4.23-4.55c3.37-3.62 4.64-4.31 8-4.31h.46c3.56.06 5.18.85 8.25 4l.27.28c2.63 2.72 3.62 3.75 9.28 3.75 3.12 0 7.76-.31 14.77-.78l17.2-1.14.25-11.33-7.79-.07c-4.67 0-20.78.45-36.67 1-14 .51-32.1.87-43.14.87h-4.55l-17.9-.3zM65 13.41a6.06 6.06 0 0 0-4.14 1.25c-1.14 1.11-1.53 1.84-1.3 2.43.33.84 1.85 1.18 5.61 1.24h.61c2.11 0 5.71-.21 6.07-1.6.17-.66-.42-1.36-1.74-2.09A10.93 10.93 0 0 0 65 13.41z"/><path class="cls-1" d="M90.54 71.43a11.9 11.9 0 0 1-8-2.7c-2.81-2.49-3-3.3-2.9-10.9.15-6.83.62-8.83 2.79-11.83 1.45-2 3.9-3.86 5.48-4.22a5.36 5.36 0 0 1 1.27-.17c1.51 0 2.68.87 5.22 3.88a87.8 87.8 0 0 1 5.89 7.88c2.31 3.72 2.65 9.51.77 12.91-1.73 3.12-5.86 5.14-10.52 5.14zm-4.33-23.68C83 51.19 82.1 62 84.76 65.05a7.3 7.3 0 0 0 5.54 2.31 9.39 9.39 0 0 0 5.22-1.61 5.91 5.91 0 0 0 2.63-4.61c.32-3.87-2.2-8.74-6.72-13l-3-2.8z"/></g></g></svg>