<svg xmlns="http://www.w3.org/2000/svg" viewBox="0 0 89.22 103.77"><g data-name="Layer 2"><path d="M40.67 2.74C34.78 6.26 31.21 9.49 21 20.57A166.12 166.12 0 0 1 6.14 34.8C1.48 38.51-.16 40.3 0 41.49a2.32 2.32 0 0 0 1.58 1.87c1.68.31 5.74-3.34 22-19.71 12.84-13 21.94-20.28 24.16-19.43 3.64 1.41 31.6 22.47 33.15 25 .21.35-5.39.84-12.43 1.11S51 31.5 45.34 32.39 33.71 34 32.05 34H29l5.38-4.11c2.93-2.24 7.09-5.47 9.14-7.08l3.75-3 2.36 2.38C52.1 24.68 56 25.36 56 23.33c0-1.73-6.48-7.48-8.46-7.5-1 0-4.51 2.14-7.91 4.78s-8.87 6.72-12.18 9.09a68.2 68.2 0 0 0-7 5.5c-1.6 1.91.43 3.56 4.39 3.56s21.51-2 28.4-3.26c2.6-.47 11.47-1.09 19.61-1.38 15-.54 16.3-.82 16.36-3.67 0-.48-2.2-2.51-5-4.57-7.51-5.59-13.94-10.68-18.9-14.94C59.26 5.71 49.85 0 47.31 0c-1.13 0-4.11 1.23-6.64 2.74zM72.48 43c-.17.17-6.32.69-13.76 1.17-36.62 2.35-40.8 2.71-41.32 3.57-.78 1.25-.15 52.72.65 54.22 1.11 2.06 2.39 2.2 9.5 1.06 9.52-1.52 29.43.65 42.16 0 6.57-.31 11.28-.88 11.83-1.43s.88-8.26.79-27.8c-.13-31.64 0-28.41-1.46-29.9-1.11-1.11-7.47-1.82-8.39-.94zm5.66 5.84c0 1.18.07 12.82.12 25.87l.08 23.73-10.21.56c-15.82.78-31.79-1.67-43.26.3l-2.93.51V84.44c0-8.46-.23-16.27-.52-22.43l-.51-11.15 5.46-.51c3-.29 13.13-.91 22.46-1.39s19-1.15 21.36-1.48c7.67-1.09 7.91-1 8 1.4z" fill="#fff" data-name="Layer 1"/></g></svg>