<svg xmlns="http://www.w3.org/2000/svg" viewBox="0 0 96.77 94.5"><defs><style>.cls-1{fill:#fff}</style></defs><g id="Layer_2" data-name="Layer 2"><g id="Layer_1-2" data-name="Layer 1"><path class="cls-1" d="M37.35 94.5c-2.22 0-3.39-.26-4-.91-1-1-1-3.4-1-7.68v-1.33c0-3.46-.12-8.93-.45-9.82-.52-1.38-2.27-1.51-10.22-1.51A134.34 134.34 0 0 0 7 74a35.83 35.83 0 0 1-4.14.47c-1 0-1.25-.23-1.95-1.07a3.27 3.27 0 0 1-.74-3.17c.29-1.36.8-17.09 1.12-31.51C1.55 25.15 2 9.38 2.7 7.9c.63-1.32.7-1.46 5.85-1.61A440.84 440.84 0 0 0 61.82 1c2.53-.4 5.29-.85 5.91-1a6.72 6.72 0 0 1 1.54 1c1.23 1 1.25 1 .53 6.87a93.25 93.25 0 0 0-.59 11.67l.2 6.06 3.78-.42c1.7-.19 7.42-.86 12.68-1.49 4-.48 6.7-.76 8.2-.76 1.3 0 1.61.21 1.82.41.67.85.8 10.31.85 32.62v33.26A3.36 3.36 0 0 1 95.23 91c-1.27.81-5.11 1.13-19.54 1.6-10 .32-23.36.94-29.76 1.39l-1.73.12c-2.87.23-5.15.39-6.85.39zm52-66.78c-1.54 0-4.52.33-6.63.63s-10.43 1.08-18.61 1.72c-14.3 1.12-23.42 2.12-25.7 2.82-1.22.38-1.51 1.93-1.81 9.73 0 .46-.58 46.34.31 47.24.21.2.42.24 1.41.24 1.73 0 5.39-.16 9.33-.41 5.48-.34 16.77-.8 25.16-1s16.19-.59 17.36-.76l2.64-.39-.07-59.9zM64.17 4.94c-.6.1-17.55 2.38-27.06 3.64-4.37.58-12.91 1.25-19 1.5l-11.73.47L5.9 23c-.23 6.59-.6 19.56-.83 28.92l-.43 17.69 13-.4c5-.15 12.66-.45 13.34-.64 1-.28 1.32-1.26 1.32-18.77 0-15.55.13-17.86 1.06-19 1.54-1.87 7.53-3.12 19.44-4.07 1.76-.13 10.61-.87 11.42-1.6s1-8.12 1-10.37c.1-9.08-.31-9.5-.47-9.65l-.18-.19h-.39z"/><path class="cls-1" d="M46.51 57a2.26 2.26 0 0 1-.43 0c-.38-.15-.67-.84-.67-1.67s.36-1.72.85-1.9 6.52-1 14.14-1.79c7.25-.77 14.41-1.66 16-2a23.48 23.48 0 0 1 4.75-.65c2 0 2.36.65 2.47.86a1.51 1.51 0 0 1 .12 1.4c-.38.85-1.65 1.58-3.47 2C76.22 54.15 51 57 46.51 57zm5.11 9.53c-2.55 0-2.75-.73-2.75-1.7 0-1.33 1.4-2 11.24-3.83 4.65-.88 9.54-1.65 10.68-1.69H71a2.87 2.87 0 0 1 2.47.91 1.54 1.54 0 0 1-.12 1.48c-.76 1.4-.76 1.4-12.35 3.57a58.33 58.33 0 0 1-9.36 1.26z"/></g></g></svg>