<svg xmlns="http://www.w3.org/2000/svg" viewBox="0 0 1370.5 539.01"><defs><style>.cls-1{fill:#231f20;}</style></defs><title>HTML5-work-01</title><g id="Layer_2" data-name="Layer 2"><g id="Layer_1-2" data-name="Layer 1"><path d="M98.4.07,5.5,47V77.89L98.4,30.94l92.85,47V47ZM5.5,100.91v30.87L98.4,84.83l92.85,47V100.91L98.4,54Zm0,53.9v30.88l92.9-46.95,92.85,46.95V154.81L98.4,107.86Z"/><path d="M572.65,77.69l-26.78-11.1L556.9,40a90.15,90.15,0,0,0-9.22-11l-.61-.65c-.34-.34-.71-.67-1.09-1a90.72,90.72,0,0,0-10.68-8.87l-26.62,11L497.58,2.62a90.63,90.63,0,0,0-28.79-.23l-.46,0c-.41.06-.8.15-1.17.24l-11.1,26.71L429.28,18.3a91.19,91.19,0,0,0-20.62,20.31c-.05.08-.12.16-.18.25-.23.32-.46.65-.67,1l11.05,26.7L392.09,77.66a91.92,91.92,0,0,0-.23,28.76,4.18,4.18,0,0,0,.07.51,10.79,10.79,0,0,0,.2,1.16l26.73,11.07-11.05,26.69A92.83,92.83,0,0,0,416.07,156c.53.55,1,1.14,1.59,1.68.38.4.81.76,1.22,1.14a90.56,90.56,0,0,0,10.48,8.63L456,156.35l11.07,26.74c.39.08.81.15,1.21.24a1.72,1.72,0,0,1,.32,0,91.15,91.15,0,0,0,28.92-.21l11.09-26.77,26.71,11.06a9.91,9.91,0,0,0,1-.68c.1-.06.2-.15.32-.24A91.53,91.53,0,0,0,556.92,146l-11.1-26.79,26.74-11.07c.07-.38.15-.79.23-1.2,0-.12,0-.25,0-.37A90.47,90.47,0,0,0,572.65,77.69ZM551,97.88l-28.18,11.67,0,.11-.09,0,11.68,28.17a68,68,0,0,1-7.1,7.1l-28.18-11.67,0,.1-.09,0-11.67,28.17a73,73,0,0,1-10,0l-11.68-28.18-.08,0,0-.11L437.29,145c-.29-.24-.62-.47-.91-.74-.94-.83-1.82-1.77-2.71-2.67s-1.81-1.74-2.66-2.68c-.25-.27-.47-.62-.73-.92L442,109.71l-.1,0,.05-.09L413.74,97.9a69.8,69.8,0,0,1,0-10l28.16-11.66,0-.09.08,0L430.28,47.89a69.69,69.69,0,0,1,7.08-7.09l28.18,11.66,0-.08.08,0,11.68-28.18a68.52,68.52,0,0,1,10,0L499,52.43l.12,0L527.33,40.8c1.22,1.08,2.39,2.23,3.57,3.38s2.38,2.42,3.49,3.71L522.73,76.06l.09,0,0,.11L551,87.86A62.07,62.07,0,0,1,551,97.88ZM506,83.11l0-.08,6.83-16.43a41.56,41.56,0,0,0-4.13-4.16l-16.46,6.81,0,0h-.06l-6.8-16.44a35.83,35.83,0,0,0-5.86,0l-6.81,16.43h-.05l0,0-16.46-6.78a43.44,43.44,0,0,0-4.16,4.1L458.82,83l-.05,0,0,.06L442.28,90c0,.2,0,.45-.06.66,0,.73,0,1.48,0,2.21s0,1.48,0,2.22a4.15,4.15,0,0,0,.05.69l16.51,6.83v.07l0,0L452,119.11a37.3,37.3,0,0,0,4.14,4.1l16.44-6.81v.07l.07,0,6.81,16.45a38.21,38.21,0,0,0,5.86,0l6.81-16.45.05,0,0-.06,16.44,6.79a38.25,38.25,0,0,0,4.13-4.12L506,102.65l0,0,0-.06,16.44-6.8c.07-1,.08-2,.1-3s0-1.93-.08-2.88ZM482.38,104a11.1,11.1,0,1,1,11.09-11.1A11.09,11.09,0,0,1,482.38,104Z"/><path class="cls-1" d="M972.93,57.25H938.29a92.88,92.88,0,1,0,0,71.25h34.57V57.25Zm-27.54,43.63H852.63a8,8,0,1,1,0-16.08h92.69v16.08Zm-92.76,57.33A65.3,65.3,0,1,1,907.34,57.33H852.63a35.59,35.59,0,1,0,0,71.17h54.71A65.56,65.56,0,0,1,852.63,158.21Z"/><path d="M1370.4.81h-53l-37.5,37.4h53Zm-119.8,37.4L1288,.81h-53l-37.5,37.4ZM1333,147.45H1167.61V38.6L1205.5.81h-53.09L1130.21,23V185H1370.5V38.21H1333Z"/><path class="cls-1" d="M142.8,393.22l39.93-39.92h-42.8L98.5,394.74,57,353.3H14.18l39.93,39.92H0V539H71.16L98.33,511.8,125.51,539h71.24V393.22ZM98.41,468.93,58.73,508.69H30.28V423.5H166.63v85.19H138.18Z"/><path d="M410.3,353.26l-6.89,34.45H543.63L539.26,410H398.94l-6.79,34.45H532.37l-7.82,39.29L468,502.42l-49-18.72,3.35-17H388L379.76,508l81,31,93.39-31,12.38-62.2,2.51-12.48L585,353.26Z"/><path class="cls-1" d="M926.83,491.73h29.82v-71.6l-33.6-33.6L902,407.62l24.86,24.86Zm29.9,14.95h-104l-24.87-24.86,10.55-10.54,20.54,20.53h42.25l-41.62-41.7,10.62-10.62,41.62,41.62V438.86L891.35,418.4l10.46-10.47L850.12,356H746.25L776,385.74v.08h61.69l21.8,21.8-31.87,31.87-21.8-21.8V400.77H776v29.28l51.62,51.61-21,21,33.6,33.6H986.47Z"/><path class="cls-1" d="M1259,353.3l-52.75,17,114.29,37v72.91l-76.16,24.62-64.28-20.77V412.63l62.14,20.08,52.74-17-114.46-37.1-32.82,10.69V507.68L1244.37,539,1353,503.84V383.65Z"/></g></g></svg>