<svg xmlns="http://www.w3.org/2000/svg" viewBox="0 0 1370.5 539.01"><defs><style>.cls-1{fill:#231f20}</style></defs><g id="Layer_2" data-name="Layer 2"><g id="Layer_1-2" data-name="Layer 1"><path d="M98.4.07L5.5 47v30.89l92.9-46.95 92.85 47V47zM5.5 100.91v30.87l92.9-46.95 92.85 47v-30.92L98.4 54zm0 53.9v30.88l92.9-46.95 92.85 46.95v-30.88L98.4 107.86zm567.15-77.12l-26.78-11.1L556.9 40a90.15 90.15 0 0 0-9.22-11l-.61-.65a21.2 21.2 0 0 0-1.09-1 90.72 90.72 0 0 0-10.68-8.87l-26.62 11-11.1-26.86a90.63 90.63 0 0 0-28.79-.23h-.46c-.41.06-.8.15-1.17.24l-11.1 26.71-26.78-11.04a91.19 91.19 0 0 0-20.62 20.31c-.05.08-.12.16-.18.25-.23.32-.46.65-.67 1l11.05 26.7-26.77 11.1a91.92 91.92 0 0 0-.23 28.76 4.18 4.18 0 0 0 .07.51 10.79 10.79 0 0 0 .2 1.16l26.73 11.07-11.05 26.69a92.83 92.83 0 0 0 8.26 10.15c.53.55 1 1.14 1.59 1.68.38.4.81.76 1.22 1.14a90.56 90.56 0 0 0 10.48 8.63l26.64-11.1 11.07 26.74c.39.08.81.15 1.21.24a1.72 1.72 0 0 1 .32 0 91.15 91.15 0 0 0 28.92-.21l11.09-26.77 26.71 11.06a9.91 9.91 0 0 0 1-.68c.1-.06.2-.15.32-.24A91.53 91.53 0 0 0 556.92 146l-11.1-26.79 26.74-11.07c.07-.38.15-.79.23-1.2v-.37a90.47 90.47 0 0 0-.14-28.88zM551 97.88l-28.18 11.67v.11h-.09l11.68 28.17a68 68 0 0 1-7.1 7.1l-28.18-11.67v.1h-.09l-11.67 28.17a73 73 0 0 1-10 0l-11.68-28.18h-.08v-.11L437.29 145c-.29-.24-.62-.47-.91-.74-.94-.83-1.82-1.77-2.71-2.67s-1.81-1.74-2.66-2.68c-.25-.27-.47-.62-.73-.92L442 109.71h-.1l.05-.09-28.21-11.72a69.8 69.8 0 0 1 0-10l28.16-11.66v-.09h.08l-11.7-28.26a69.69 69.69 0 0 1 7.08-7.09l28.18 11.66v-.08h.08L477.3 24.2a68.52 68.52 0 0 1 10 0L499 52.43h.12l28.21-11.63c1.22 1.08 2.39 2.23 3.57 3.38s2.38 2.42 3.49 3.71l-11.66 28.17h.09v.11L551 87.86a62.07 62.07 0 0 1 0 10.02zm-45-14.77v-.08l6.83-16.43a41.56 41.56 0 0 0-4.13-4.16l-16.46 6.81h-.06l-6.8-16.44a35.83 35.83 0 0 0-5.86 0l-6.81 16.43h-.05l-16.46-6.78a43.44 43.44 0 0 0-4.16 4.1L458.82 83h-.05v.06L442.28 90c0 .2 0 .45-.06.66v4.43a4.15 4.15 0 0 0 .05.69l16.51 6.83v.07L452 119.11a37.3 37.3 0 0 0 4.14 4.1l16.44-6.81v.07h.07l6.81 16.45a38.21 38.21 0 0 0 5.86 0l6.81-16.45h.05v-.06l16.44 6.79a38.25 38.25 0 0 0 4.13-4.12L506 102.65v-.06l16.44-6.8c.07-1 .08-2 .1-3s0-1.93-.08-2.88zM482.38 104a11.1 11.1 0 1 1 11.09-11.1 11.09 11.09 0 0 1-11.09 11.1z"/><path class="cls-1" d="M972.93 57.25h-34.64a92.88 92.88 0 1 0 0 71.25h34.57V57.25zm-27.54 43.63h-92.76a8 8 0 1 1 0-16.08h92.69v16.08zm-92.76 57.33a65.3 65.3 0 1 1 54.71-100.88h-54.71a35.59 35.59 0 1 0 0 71.17h54.71a65.56 65.56 0 0 1-54.71 29.71z"/><path d="M1370.4.81h-53l-37.5 37.4h53zm-119.8 37.4L1288 .81h-53l-37.5 37.4zm82.4 109.24h-165.39V38.6L1205.5.81h-53.09L1130.21 23v162h240.29V38.21H1333z"/><path class="cls-1" d="M142.8 393.22l39.93-39.92h-42.8L98.5 394.74 57 353.3H14.18l39.93 39.92H0V539h71.16l27.17-27.2 27.18 27.2h71.24V393.22zm-44.39 75.71l-39.68 39.76H30.28V423.5h136.35v85.19h-28.45z"/><path d="M410.3 353.26l-6.89 34.45h140.22L539.26 410H398.94l-6.79 34.45h140.22l-7.82 39.29L468 502.42l-49-18.72 3.35-17H388l-8.24 41.3 81 31 93.39-31 12.38-62.2 2.51-12.48L585 353.26z"/><path class="cls-1" d="M926.83 491.73h29.82v-71.6l-33.6-33.6L902 407.62l24.86 24.86zm29.9 14.95h-104l-24.87-24.86 10.55-10.54 20.54 20.53h42.25l-41.62-41.7 10.62-10.62 41.62 41.62v-42.25l-20.47-20.46 10.46-10.47L850.12 356H746.25L776 385.74v.08h61.69l21.8 21.8-31.87 31.87-21.8-21.8v-16.92H776v29.28l51.62 51.61-21 21 33.6 33.6h146.25zM1259 353.3l-52.75 17 114.29 37v72.91l-76.16 24.62-64.28-20.77v-71.43l62.14 20.08 52.74-17-114.46-37.1-32.82 10.69v118.38l96.67 31.32L1353 503.84V383.65z"/></g></g></svg>