<svg xmlns="http://www.w3.org/2000/svg" xmlns:xlink="http://www.w3.org/1999/xlink" viewBox="0 0 1920 1000"><defs><style>.cls-2{fill:#34a853}.cls-3{fill:#2c66bf}.cls-4{fill:#eff0f2}.cls-5{fill:#9fc1f9}.cls-8{fill:#eda606}.cls-9{fill:#ffbc00}.cls-11{fill:#e4594e}.cls-12{fill:#fbc730}.cls-13{fill:#df382b}.cls-14{fill:#b7251d}.cls-15{fill:#73cb8a}.cls-16{fill:#4285f4}.cls-17{fill:#174689}.cls-18{fill:#fcd35c}.cls-19{fill:#80adf7}.cls-21{fill:#dfe1e5}.cls-22{fill:#f2b408}.cls-23{fill:#ea7a72}.cls-28{fill:#fabb05}.cls-29{fill:#6199f6}.cls-31{fill:#90130e}.cls-43{letter-spacing:.04em}</style><linearGradient id="linear-gradient" x1="150.91" y1="585.84" x2="310.17" y2="745.11" gradientUnits="userSpaceOnUse"><stop offset="0" stop-color="#ccc"/><stop offset="1" stop-color="#fff" stop-opacity="0"/></linearGradient><linearGradient id="linear-gradient-2" x1="123.42" y1="749.79" x2="316.89" y2="943.26" xlink:href="#linear-gradient"/><linearGradient id="linear-gradient-3" x1="730.47" y1="534.5" x2="878.51" y2="682.54" xlink:href="#linear-gradient"/><linearGradient id="linear-gradient-4" x1="419.99" y1="812.82" x2="611.12" y2="1003.95" xlink:href="#linear-gradient"/><linearGradient id="linear-gradient-5" x1="594.33" y1="596.88" x2="758.07" y2="760.62" xlink:href="#linear-gradient"/><linearGradient id="linear-gradient-6" x1="1650.92" y1="812.82" x2="1842.05" y2="1003.95" xlink:href="#linear-gradient"/><linearGradient id="linear-gradient-7" x1="300.13" y1="661.64" x2="454.69" y2="816.2" xlink:href="#linear-gradient"/><linearGradient id="linear-gradient-8" x1="892.56" y1="550.94" x2="1007.89" y2="666.26" xlink:href="#linear-gradient"/><linearGradient id="linear-gradient-9" x1="892.56" y1="432.83" x2="1007.89" y2="548.15" xlink:href="#linear-gradient"/><linearGradient id="linear-gradient-10" x1="1041.97" y1="677.75" x2="1193.51" y2="829.29" xlink:href="#linear-gradient"/></defs><g style="isolation:isolate"><g id="Layer_1" data-name="Layer 1"><path class="cls-2" d="M122.96 822.33h148.32v178.09H122.96z"/><path class="cls-3" d="M122.96 645.52h148.32v178.09H122.96z"/><path class="cls-4" d="M145.94 855.86h41.7v41.7h-41.7z"/><path class="cls-5" d="M207.46 855.86h41.7v41.7h-41.7zm-60.71 67.06h41.7v41.7h-41.7z"/><path class="cls-4" d="M207.08 920.79h42.45v79.7h-42.45z"/><path style="mix-blend-mode:multiply" fill="url(#linear-gradient)" d="M151.03 645.52h119.12v101.74L151.03 645.52z"/><path style="mix-blend-mode:multiply" fill="url(#linear-gradient-2)" d="M122.44 823.41h149.22l.14 118.94-149.36-118.94z"/><path class="cls-8" d="M122.76 825.16a74.23 74.23 0 1 1 148.45 0z"/><path class="cls-9" d="M154.14 825.16a42.85 42.85 0 1 1 85.69 0z"/><path fill="#ffa900" d="M145.51 678.76h41.7v41.7h-41.7z"/><path class="cls-9" d="M207.03 678.76h41.7v41.7h-41.7z"/><path class="cls-11" d="M417.87 823.31h148.1v177.11h-148.1z"/><path class="cls-12" d="M565.14 658.66h148.35v165.05H565.14z"/><path class="cls-13" transform="rotate(180 492.29 686.975)" d="M419.51 636.49h145.57v100.98H419.51z"/><path class="cls-14" d="M-24.92 733.87h147.47v63.14H-24.92z"/><path class="cls-2" d="M-23.73 796.74A23.83 23.83 0 0 1 .1 772.91a23.83 23.83 0 0 1 23.84 23.83z"/><path class="cls-15" d="M24.68 796.74a23.84 23.84 0 0 1 47.67 0z"/><path class="cls-2" d="M73.43 796.74a23.83 23.83 0 0 1 47.66 0z"/><path class="cls-5" d="M419.81 636.38h145.27l-69.72-81.31-75.55 81.31z"/><path class="cls-13" d="M417.87 823.15h147.01v61.35H417.87z"/><path class="cls-16" d="M442.49 636.38h99.91l-47.95-55.92-51.96 55.92z"/><path class="cls-13" d="M-24.99 734.33h148.01l-71.03-82.85-76.98 82.85z"/><rect class="cls-16" x="447.47" y="708.47" width="88.51" height="146.7" rx="7.62" transform="rotate(90 491.725 781.825)"/><path class="cls-5" transform="rotate(-90 483.24 781.82)" d="M450.12 731.15h66.23v101.36h-66.23z"/><circle class="cls-17" cx="550.36" cy="781.82" r="4.68"/><path class="cls-18" d="M729.26 590.78h114.75v56.8H729.26z"/><path class="cls-8" d="M729.26 590.78h114.75l-55.07-64.23-59.68 64.23z"/><path class="cls-13" d="M565.07 658.92h148.02l-71.04-82.85-76.98 82.85z"/><path class="cls-2" d="M565.07 824.08h148.02l-71.04-82.85-76.98 82.85z"/><path class="cls-18" d="M433.73 651.73h30.38v30.38h-30.38z"/><path class="cls-12" d="M433.73 692.86h30.38v30.38h-30.38zm42.01-41.13h30.38v30.38h-30.38z"/><path class="cls-8" d="M475.74 692.86h30.38v30.38h-30.38zm42.99-41.13h30.38v30.38h-30.38z"/><path class="cls-12" d="M518.73 692.86h30.38v30.38h-30.38z"/><path class="cls-2" transform="rotate(180 333.8 950.54)" d="M250.02 900.05h167.55v100.98H250.02z"/><path class="cls-2" d="M123.06 645.72h148.26l-71.15-82.99-77.11 82.99z"/><path class="cls-5" d="M286.23 915.29h30.38v30.38h-30.38z"/><path class="cls-19" d="M286.23 956.42h30.38v30.38h-30.38zm42.01-41.13h30.38v30.38h-30.38z"/><path class="cls-5" d="M328.24 956.42h30.38v30.38h-30.38zm42.98-41.13h30.38v30.38h-30.38z"/><path class="cls-19" d="M371.22 956.42h30.38v30.38h-30.38z"/><path class="cls-13" d="M729.71 617.65h16.64v29.72h-16.64zm33.08 0h16.64v29.72h-16.64zm32.29 0h16.64v29.72h-16.64zm32.29-.01h16.64v29.72h-16.64z"/><path class="cls-18" d="M430.22 826.08h18.19v59.37h-18.19zm35.29 0h18.19v59.37h-18.19zm35.29 0h18.19v59.37H500.8zm35.3 0h18.19v59.37H536.1z"/><path class="cls-16" d="M714.08 848.19h148.1v152.23h-148.1z"/><path class="cls-13" d="M737.02 923.91h41.64v75h-41.64z"/><path class="cls-19" d="M798.45 940.82h41.64v41.64h-41.64z"/><path fill="#53ba6f" d="M565.98 822.59h148.1v177.83h-148.1z"/><path class="cls-21" d="M588.92 856.1h41.64v41.64h-41.64z"/><path class="cls-4" d="M650.35 856.1h41.64v41.64h-41.64z"/><path class="cls-21" d="M650.35 923.06h41.64v41.64h-41.64z"/><path class="cls-16" d="M588.92 679.25h41.64v41.64h-41.64z"/><path class="cls-3" d="M650.35 679.25h41.64v41.64h-41.64z"/><path class="cls-16" d="M588.74 920.83h42.39v79.59h-42.39z"/><path class="cls-22" d="M449.07 919.01h43.7v82.04h-43.7z"/><path class="cls-18" d="M492.4 919.01h43.7v82.04h-43.7z"/><path class="cls-15" d="M153.11 645.72a45.57 45.57 0 1 1 91.14 0z"/><path class="cls-23" d="M594.43 658.92a44.65 44.65 0 0 1 89.3 0z"/><path style="mix-blend-mode:multiply" fill="url(#linear-gradient-3)" d="M729.71 590.84H843.9l.11 91.01-114.3-91.01z"/><path style="mix-blend-mode:multiply" fill="url(#linear-gradient-4)" d="M419.33 885.24h146.16l.15 118.76-146.31-118.76z"/><path style="mix-blend-mode:multiply" fill="url(#linear-gradient-5)" d="M593.74 658.95h125.34v101.74L593.74 658.95z"/><path class="cls-2" d="M1648.8 823.31h148.1v177.11h-148.1z"/><path transform="rotate(180 1723.215 686.975)" fill="#e09108" d="M1650.43 636.49H1796v100.98h-145.57z"/><path class="cls-17" d="M1650.74 637.17H1796l-69.71-81.31-75.55 81.31z"/><path class="cls-13" d="M1648.8 823.15h147.01v61.35H1648.8z"/><path class="cls-16" d="M1673.42 637.17h99.9l-47.94-55.92-51.96 55.92z"/><path class="cls-13" d="M1011.51 735.71h148.01l-71.03-82.85-76.98 82.85z"/><path class="cls-2" d="M1796.9 823.29h148.01l-71.03-82.86-76.98 82.86z"/><path class="cls-18" d="M1664.66 651.73h30.38v30.38h-30.38z"/><path class="cls-12" d="M1664.66 692.86h30.38v30.38h-30.38zm42.01-41.13h30.38v30.38h-30.38z"/><path class="cls-4" d="M1706.67 692.86h30.38v30.38h-30.38zm42.98-41.13h30.38v30.38h-30.38z"/><path class="cls-12" d="M1749.65 692.86h30.38v30.38h-30.38z"/><path class="cls-16" d="M1010.72 735.61h148.1v174.91h-148.1z"/><path class="cls-28" d="M861.73 821.87h149.36v178.55H861.73z"/><path class="cls-4" d="M1033.66 830.18h41.64v41.64h-41.64z"/><path class="cls-19" d="M1095.09 830.18h41.64v41.64h-41.64zm-61.43-61.06h41.64v41.64h-41.64z"/><path class="cls-29" d="M1095.09 769.12h41.64v41.64h-41.64z"/><path class="cls-18" d="M1661.14 824.45h18.19v59.37h-18.19zm35.29 0h18.19v59.37h-18.19zm35.3 0h18.19v59.37h-18.19zm35.29 0h18.19v59.37h-18.19z"/><path class="cls-16" d="M1796.9 822.59H1945v177.83h-148.1z"/><path class="cls-21" d="M1819.85 856.1h41.64v41.64h-41.64z"/><path class="cls-4" d="M1881.27 856.1h41.64v41.64h-41.64z"/><path class="cls-21" d="M1881.27 923.06h41.64v41.64h-41.64z"/><path class="cls-3" d="M1819.66 920.83h42.39v79.59h-42.39z"/><path class="cls-22" d="M1680 919.01h43.7v82.04H1680z"/><path class="cls-18" d="M1723.32 919.01h43.7v82.04h-43.7z"/><path style="mix-blend-mode:multiply" fill="url(#linear-gradient-6)" d="M1650.26 885.24h146.16l.14 118.76-146.3-118.76z"/><rect class="cls-16" x="448.57" y="708.88" width="88.4" height="146.52" rx="7.61" transform="rotate(90 492.765 782.135)"/><path class="cls-15" transform="rotate(-90 484.295 782.135)" d="M451.22 731.52h66.15v101.23h-66.15z"/><rect class="cls-13" x="713.55" y="647.28" width="148.03" height="202.08" rx="11.56" transform="rotate(180 787.56 748.325)"/><path class="cls-19" d="M726.34 661.03h122.43V818.2H726.34z"/><path class="cls-31" d="M776.89 828.61h21.35v8.34h-21.35z"/><path class="cls-28" transform="rotate(-90 550.335 782.135)" d="M539.66 777.97h21.35v8.34h-21.35z"/><rect class="cls-14" x="1679.24" y="706.94" width="88.4" height="146.52" rx="7.61" transform="rotate(90 1723.44 780.2)"/><path class="cls-15" transform="rotate(-90 1714.96 780.2)" d="M1681.89 729.59h66.15v101.23h-66.15z"/><path class="cls-28" transform="rotate(-90 1781.005 780.195)" d="M1770.33 776.03h21.35v8.34h-21.35z"/><path class="cls-28" d="M1426.44 760.56h148.1v228.25h-148.1z"/><path class="cls-16" d="M1574.54 761.48h74.05v239.15h-74.05z"/><path class="cls-3" d="M1352.91 761.48h74.05v239.15h-74.05z"/><rect class="cls-13" x="1427.18" y="762.79" width="147.68" height="201.61" rx="11.53" transform="rotate(180 1501.02 863.595)"/><path class="cls-2" d="M1439.95 776.51h122.15v156.8h-122.15z"/><path d="M1550.5 835.12a49.47 49.47 0 0 0-98.93-.88v98.9h98.78v-98.02z" fill="#126b26"/><path class="cls-28" d="M1464.73 933.2v-98.91a36.35 36.35 0 0 1 72.58-2.08V933.2z"/><path class="cls-23" d="M1490.7 944.23h20.64v8.06h-20.64z"/><path class="cls-3" d="M1500.33 414.96l-38.82 204.11h77.64l-38.82-204.11z"/><path class="cls-17" d="M1447.91 618.41h103.4v38.26h-103.4z"/><path class="cls-13" d="M1457.06 656.4h87.93v79.01h-87.93z"/><path class="cls-28" d="M1447.91 591.72h12.19v26.69h-12.19zm91.24 0h12.19v26.69h-12.19zm-22.81 0h12.19v26.69h-12.19zm-22.81 0h12.19v26.69h-12.19zm-22.81 0h12.19v26.69h-12.19z"/><path class="cls-13" d="M935.81 387.15l-39.15 51.86h78.3l-39.15-51.86z"/><path class="cls-3" d="M882.95 438.34h104.28v38.58H882.95z"/><path class="cls-16" d="M882.95 556.07h104.28v38.58H882.95z"/><path class="cls-11" d="M891.64 476.66h88.67v79.68h-88.67z"/><path class="cls-2" d="M892.07 593.98h88.67v228.74h-88.67z"/><path class="cls-28" d="M882.95 424.88h12.3v13.46h-12.3zm92.01 0h12.3v13.46h-12.3zm452.22 336.39h147.36l-72.3-82.48-75.06 82.48z"/><path class="cls-2" d="M1352.49 762.9h73.68l-35.36-41.25-38.32 41.25z"/><path class="cls-15" d="M1575.58 761.27h73.68l-35.36-41.24-38.32 41.24z"/><circle class="cls-28" cx="935.97" cy="516.5" r="27.66"/><path class="cls-28" d="M916.52 620.27h39.77v202.74h-39.77z"/><path class="cls-4" d="M1374.27 812.04h31.33v54.72h-31.33z"/><circle class="cls-4" cx="1389.93" cy="812.31" r="15.67"/><path class="cls-4" d="M1374.27 918.32h31.33v54.72h-31.33z"/><circle class="cls-4" cx="1389.93" cy="918.59" r="15.67"/><path class="cls-4" d="M1595.9 812.04h31.33v54.72h-31.33z"/><circle class="cls-4" cx="1611.57" cy="812.31" r="15.67"/><path class="cls-4" d="M1595.9 918.32h31.33v54.72h-31.33z"/><circle class="cls-4" cx="1611.57" cy="918.59" r="15.67"/><path class="cls-14" d="M884.01 846.04h104v154.38h-104z"/><path class="cls-15" d="M969.31 895.11a33.33 33.33 0 0 0-66.6 0h-.08v105.32h66.76V895.11z"/><path class="cls-14" d="M1418.46 982.3h166.17v18.33h-166.17z"/><path class="cls-23" d="M1426.24 964.4h148.88v18.33h-148.88z"/><path class="cls-11" d="M343.92 457.63L305.1 603.02h77.63l-38.81-145.39z"/><path class="cls-16" d="M292.21 602.36h103.4v38.26h-103.4z"/><path class="cls-14" d="M299.95 640.35h87.93v79.01h-87.93z"/><path class="cls-28" d="M286.23 719.37H401.6v180.69H286.23z"/><path class="cls-23" d="M378.24 771.76a33.59 33.59 0 0 0-67.11 0h-.07v66.13h67.26v-66.13z"/><path class="cls-2" d="M291.97 877.55h109.5v37.74h-109.5z"/><path class="cls-3" d="M417.87 900.22h-20.65a13.9 13.9 0 0 0-13.88-13.88h-16.5a32.62 32.62 0 0 1-22.24-8.7 32.63 32.63 0 0 1-22.25 8.7h-16.49A13.9 13.9 0 0 0 292 900.22h-20.68a34.58 34.58 0 0 1 34.54-34.54h16.49a12 12 0 0 0 12-10.79h20.55a12 12 0 0 0 12 10.79h16.5a34.58 34.58 0 0 1 34.47 34.54z"/><path style="mix-blend-mode:multiply" fill="url(#linear-gradient-7)" d="M299.57 720.23h118.3v96.03l-118.3-96.03z"/><path class="cls-18" d="M713.5 927.8a74.12 74.12 0 1 1 148.23 0z"/><path class="cls-4" d="M370 680.7a26.14 26.14 0 0 0-52.23 0h-.05v38.74h52.33V680.7z"/><path class="cls-28" d="M882.92 799.9h111.9v23.16h-111.9z"/><path class="cls-11" d="M1011.58 823.06h-21.11a14.21 14.21 0 0 0-14.19-14.19h-16.85a33.34 33.34 0 0 1-22.74-8.87 33.29 33.29 0 0 1-22.69 8.87h-16.89a14.21 14.21 0 0 0-14.19 14.19h-21.11a35.34 35.34 0 0 1 35.3-35.3H914a12.27 12.27 0 0 0 12.24-11h21a12.27 12.27 0 0 0 12.24 11h16.85a35.35 35.35 0 0 1 35.25 35.3z"/><path style="mix-blend-mode:multiply" fill="url(#linear-gradient-8)" d="M892.04 594.77h88.7l-.43 71.65-88.27-71.65z"/><path style="mix-blend-mode:multiply" fill="url(#linear-gradient-9)" d="M892.04 476.66h88.7l-.43 71.65-88.27-71.65z"/><circle class="cls-8" cx="1255.98" cy="644.64" r="59.9"/><rect x="1040.16" y="880.98" width="89.83" height="148.89" rx="7.73" transform="rotate(-90 1085.075 955.425)" fill="#23893c"/><path class="cls-19" transform="rotate(90 1093.69 955.43)" d="M1060.08 904h67.22v102.87h-67.22z"/><path class="cls-28" transform="rotate(90 1026.58 955.43)" d="M1015.73 951.19h21.7v8.48h-21.7z"/><rect class="cls-22" x="-25" y="796.53" width="148.03" height="202.08" rx="11.56" transform="rotate(180 49.015 897.565)"/><path class="cls-16" d="M-12.2 810.28h122.43v157.17H-12.2z"/><path class="cls-31" d="M38.34 977.86h21.35v8.34H38.34z"/><path class="cls-13" d="M1158.82 878.39v92.54h20.7a76.19 76.19 0 0 1 152.37 0h21.26v-92.54z"/><path class="cls-28" d="M1158.82 851.42h194.33v28.08h-194.33z"/><path class="cls-29" d="M1158.82 968.87h194.33v31.55h-194.33z"/><path class="cls-16" d="M1353.15 968.87a31.87 31.87 0 0 1-63.73 0zm-64.72 0a31.87 31.87 0 0 1-63.74 0zm-65.18 0a31.87 31.87 0 0 1-63.73 0z"/><path class="cls-28" d="M1041.32 736a44.65 44.65 0 1 1 89.3 0z"/><path style="mix-blend-mode:multiply" fill="url(#linear-gradient-10)" d="M1040.63 735.99l118.89-.28-.7 92.24-118.19-91.96z"/><path d="M921.73 243.74V226h5.43a8.83 8.83 0 0 1 6.53 2.46 9.59 9.59 0 0 1 0 12.85 8.86 8.86 0 0 1-6.53 2.45zm2.27-15.58v13.4h3.15a6.71 6.71 0 1 0 0-13.4zm19.55 15.97a5.81 5.81 0 0 1-4.41-1.83 6.47 6.47 0 0 1-1.74-4.64 6.56 6.56 0 0 1 1.69-4.62 6 6 0 0 1 8.61-.1 7 7 0 0 1 1.6 4.9v.24h-9.55a4 4 0 0 0 1.19 2.88 3.85 3.85 0 0 0 6.15-1.09l2 1a6.13 6.13 0 0 1-2.27 2.41 6.29 6.29 0 0 1-3.27.85zm-3.65-7.93h7a3 3 0 0 0-1-2.1 3.62 3.62 0 0 0-2.49-.83 3.31 3.31 0 0 0-2.22.8 3.77 3.77 0 0 0-1.29 2.13zm17.1 7.54h-2.28l-4.91-12.15h2.48l3.61 9.41h.1l3.62-9.42H962zm11.58.39a5.83 5.83 0 0 1-4.42-1.83 6.47 6.47 0 0 1-1.74-4.64 6.61 6.61 0 0 1 1.69-4.62 6.06 6.06 0 0 1 8.62-.1 7 7 0 0 1 1.6 4.9v.24h-9.54A4 4 0 0 0 966 241a3.85 3.85 0 0 0 6.15-1.09l2 1a6 6 0 0 1-2.27 2.41 6.25 6.25 0 0 1-3.3.81zm-3.65-7.93h7a3.07 3.07 0 0 0-1-2.1 3.62 3.62 0 0 0-2.49-.83 3.31 3.31 0 0 0-2.22.8 3.77 3.77 0 0 0-1.29 2.13zm13.76-10.2v17.76h-2.28V226zm1.96 11.66a6.46 6.46 0 0 1 1.76-4.64 6 6 0 0 1 4.49-1.83 5.94 5.94 0 0 1 4.47 1.83 6.39 6.39 0 0 1 1.78 4.64 6.33 6.33 0 0 1-1.78 4.64 5.94 5.94 0 0 1-4.47 1.83 6 6 0 0 1-4.49-1.83 6.44 6.44 0 0 1-1.76-4.64zm2.29 0a4.46 4.46 0 0 0 1.14 3.18 3.9 3.9 0 0 0 5.65 0 5 5 0 0 0 0-6.33 3.84 3.84 0 0 0-5.65 0 4.42 4.42 0 0 0-1.14 3.15zm18.5 6.47a5.29 5.29 0 0 1-2.45-.57 4.22 4.22 0 0 1-1.69-1.51h-.1l.1 1.69v5.36H995v-17.51h2.19v1.68h.1a4.22 4.22 0 0 1 1.69-1.51 5.41 5.41 0 0 1 6.52 1.31 6.67 6.67 0 0 1 1.71 4.59 6.6 6.6 0 0 1-1.71 4.59 5.22 5.22 0 0 1-4.06 1.88zm-.37-2.08a3.55 3.55 0 0 0 2.75-1.24 4.49 4.49 0 0 0 1.11-3.15 4.56 4.56 0 0 0-1.11-3.15 3.7 3.7 0 0 0-5.53 0 5.14 5.14 0 0 0 0 6.33 3.61 3.61 0 0 0 2.78 1.21zm13.69 2.08a5.83 5.83 0 0 1-4.42-1.83 6.46 6.46 0 0 1-1.73-4.64 6.6 6.6 0 0 1 1.68-4.62 6.06 6.06 0 0 1 8.62-.1 7 7 0 0 1 1.6 4.9v.24h-9.55a4 4 0 0 0 1.19 2.88 3.85 3.85 0 0 0 6.15-1.09l2 1a6 6 0 0 1-2.27 2.41 6.23 6.23 0 0 1-3.27.85zm-3.65-7.93h7a3.07 3.07 0 0 0-1-2.1 3.62 3.62 0 0 0-2.49-.83 3.31 3.31 0 0 0-2.22.8 3.77 3.77 0 0 0-1.29 2.13zm13.77 7.54h-2.29v-12.15h2.19v2h.1a3.23 3.23 0 0 1 1.42-1.65 4 4 0 0 1 2.12-.68 4.26 4.26 0 0 1 1.69.3l-.7 2.2a3.9 3.9 0 0 0-1.34-.17 3 3 0 0 0-2.24 1 3.48 3.48 0 0 0-.95 2.43zm10.9 0V226h5.43a8.83 8.83 0 0 1 6.53 2.46 9.59 9.59 0 0 1 0 12.85 8.86 8.86 0 0 1-6.53 2.45zm2.28-15.58v13.4h3.15a6.71 6.71 0 1 0 0-13.4zm19.07 3.03a5.64 5.64 0 0 1 4 1.35 4.79 4.79 0 0 1 1.47 3.71v7.49h-2.19v-1.69h-.1a4.33 4.33 0 0 1-3.77 2.08 4.88 4.88 0 0 1-3.36-1.19 3.79 3.79 0 0 1-1.35-3 3.61 3.61 0 0 1 1.43-3 6 6 0 0 1 3.81-1.12 6.66 6.66 0 0 1 3.34.75v-.53a2.6 2.6 0 0 0-.94-2 3.25 3.25 0 0 0-2.21-.83 3.49 3.49 0 0 0-3 1.61l-2-1.26a5.59 5.59 0 0 1 4.87-2.37zm-3 8.83a1.84 1.84 0 0 0 .75 1.49 2.85 2.85 0 0 0 1.78.59 3.62 3.62 0 0 0 2.57-1.07 3.33 3.33 0 0 0 1.12-2.5 4.69 4.69 0 0 0-3-.84 3.84 3.84 0 0 0-2.32.67 2 2 0 0 0-.85 1.64zm21.65-8.43l-7.61 17.51h-2.36l2.83-6.13-5-11.38h2.48l3.62 8.73 3.52-8.73zm10.54 8.78a3.27 3.27 0 0 1-1.39 2.67 5.45 5.45 0 0 1-3.49 1.09 5.54 5.54 0 0 1-3.23-.95 5.22 5.22 0 0 1-2-2.52l2-.87a3.75 3.75 0 0 0 1.3 1.7 3.15 3.15 0 0 0 1.88.61 3.35 3.35 0 0 0 1.82-.47 1.33 1.33 0 0 0 .73-1.12c0-.77-.6-1.34-1.79-1.71l-2.08-.52c-2.36-.59-3.55-1.73-3.55-3.42a3.15 3.15 0 0 1 1.36-2.67 6.2 6.2 0 0 1 6.37-.23 4.12 4.12 0 0 1 1.82 2.06l-2 .84a2.57 2.57 0 0 0-1.13-1.2 3.53 3.53 0 0 0-1.75-.44 2.93 2.93 0 0 0-1.6.45 1.28 1.28 0 0 0-.7 1.09c0 .69.65 1.19 1.95 1.49l1.84.47q3.63.89 3.64 3.65zm-242.19 3.84a9.43 9.43 0 0 0 7.18-2.89 9.29 9.29 0 0 0 2.44-6.58 9.17 9.17 0 0 0-.15-1.76h-9.47v2.81h6.73a5.94 5.94 0 0 1-1.53 3.55 6.93 6.93 0 0 1-5.2 2.06 7.49 7.49 0 0 1 0-15 7.17 7.17 0 0 1 5.07 2l2-2a9.82 9.82 0 0 0-7.06-2.84 10.3 10.3 0 1 0 0 20.6zm17.27-13.27a6.64 6.64 0 1 0 6.66 6.63 6.54 6.54 0 0 0-6.66-6.63zm0 10.66a4 4 0 1 1 3.74-4 3.84 3.84 0 0 1-3.74 4zm14.52-10.66a6.64 6.64 0 1 0 6.66 6.63 6.54 6.54 0 0 0-6.66-6.63zm0 10.66a4 4 0 1 1 3.75-4 3.84 3.84 0 0 1-3.75 4zm17.83-10.25v1.08h-.1a4.61 4.61 0 0 0-3.49-1.49 6.64 6.64 0 0 0 0 13.27 4.55 4.55 0 0 0 3.49-1.51h.1v1c0 2.54-1.36 3.9-3.54 3.9a3.66 3.66 0 0 1-3.34-2.36l-2.54 1.05a6.32 6.32 0 0 0 5.88 3.92c3.41 0 6.3-2 6.3-6.91v-11.9zm-3.34 10.25a4 4 0 0 1 0-8c2 0 3.54 1.71 3.54 4a3.71 3.71 0 0 1-3.54 4zm11-17.29h-2.91v19.5h2.91zm8 17.29a3.36 3.36 0 0 1-3.21-2l8.87-3.67-.31-.75a6.14 6.14 0 0 0-5.66-4.18 6.3 6.3 0 0 0-6.26 6.63 6.5 6.5 0 0 0 6.58 6.63 6.61 6.61 0 0 0 5.53-2.94l-2.26-1.51a3.8 3.8 0 0 1-3.27 1.79zm-.23-8.09a2.57 2.57 0 0 1 2.47 1.4l-5.93 2.46a3.62 3.62 0 0 1 3.47-3.86z" fill="#636363"/><text transform="translate(919.05 272.42)" font-size="14.16" font-family="ProductSans-Regular,Product Sans" letter-spacing=".03em" fill="#636363">E<tspan x="8.1" y="0" letter-spacing=".04em">u</tspan><tspan x="16.34" y="0" letter-spacing=".01em">r</tspan><tspan x="21.62" y="0" letter-spacing=".04em">o</tspan><tspan class="cls-43" x="30.04" y="0">pe 2</tspan><tspan x="58.47" y="0">0</tspan><tspan class="cls-43" x="67.93" y="0">17</tspan></text><path class="cls-13" d="M941.75 184.48L955.79 160h-15.91l-6.08 10.6 7.95 13.88z"/><path class="cls-16" d="M927.16 182.19a4.62 4.62 0 0 0 0 4.58L939.88 209h15.91l-22-38.36z"/><path fill="#ffa700" d="M978.25 184.48l-14.04 24.48h15.91l6.08-10.6-7.95-13.88z"/><path class="cls-2" d="M992.84 186.77a4.62 4.62 0 0 0 0-4.58L980.12 160h-15.91l22 38.36z"/></g></g></svg>