<svg xmlns="http://www.w3.org/2000/svg" xmlns:xlink="http://www.w3.org/1999/xlink" viewBox="0 0 1920 1000"><defs><style>.cls-2{fill:#2c66bf}.cls-3{fill:#34a853}.cls-4{fill:#eda606}.cls-5{fill:#e4594e}.cls-6{fill:#fbc730}.cls-7{fill:#4285f4}.cls-8{fill:#b7251d}.cls-9{fill:#73cb8a}.cls-10{fill:#df382b}.cls-11{fill:#fcd35c}.cls-12{fill:#6e9af5}.cls-14{fill:#ffa700}.cls-15{fill:#6199f6}.cls-16{fill:#23893c}.cls-17{fill:#fabb05}.cls-18{fill:#e69e0d}.cls-19{fill:#eff0f2}.cls-23{fill:#9fc1f9}.cls-24{fill:#ea7a72}.cls-25{fill:#d77f0c}.cls-26{fill:#92dda6}.cls-27{fill:#fddf87}.cls-28{fill:#46b05c}</style><linearGradient id="linear-gradient" x1="438.86" y1="585.75" x2="692.91" y2="839.8" gradientUnits="userSpaceOnUse"><stop offset="0" stop-color="#ccc"/><stop offset="1" stop-color="#fff" stop-opacity="0"/></linearGradient><linearGradient id="linear-gradient-2" x1="359.44" y1="642.4" x2="464.05" y2="747.01" xlink:href="#linear-gradient"/><linearGradient id="linear-gradient-3" x1="639.65" y1="642.4" x2="744.26" y2="747.01" xlink:href="#linear-gradient"/></defs><g style="isolation:isolate"><g id="Layer_1" data-name="Layer 1"><path class="cls-2" d="M1859.27 594.5h60.52v337.6h-60.52z"/><path class="cls-3" d="M847.96 801.16h65.03v18.97h-65.03z"/><path class="cls-4" d="M847.96 686h65.03v18.97h-65.03zm0-113.87h65.03v18.97h-65.03z"/><path class="cls-5" d="M856.08 573.16a24.4 24.4 0 1 1 48.79 0z"/><rect class="cls-6" x="851.27" y="819.9" width="58.4" height="96.8" rx="5.03" transform="rotate(180 880.47 868.3)"/><path class="cls-7" d="M858.62 829.26h43.7v66.88h-43.7z"/><rect class="cls-8" x="851.27" y="704.63" width="58.4" height="96.8" rx="5.03" transform="rotate(180 880.47 753.035)"/><path class="cls-4" d="M858.62 713.99h43.7v66.88h-43.7z"/><rect class="cls-2" x="851.27" y="589.92" width="58.4" height="96.8" rx="5.03" transform="rotate(180 880.47 638.315)"/><path class="cls-9" d="M858.62 599.28h43.7v66.88h-43.7z"/><path class="cls-5" d="M161.74 801.16h65.03v18.97h-65.03z"/><path class="cls-4" d="M161.74 686h65.03v18.97h-65.03z"/><path class="cls-7" d="M161.74 572.13h65.03v18.97h-65.03z"/><path class="cls-9" d="M169.86 573.16a24.4 24.4 0 1 1 48.79 0z"/><rect class="cls-3" x="165.05" y="819.9" width="58.4" height="96.8" rx="5.03" transform="rotate(180 194.255 868.3)"/><path class="cls-10" d="M172.4 829.26h43.7v66.88h-43.7z"/><rect class="cls-7" x="165.05" y="704.63" width="58.4" height="96.8" rx="5.03" transform="rotate(180 194.255 753.035)"/><path class="cls-11" d="M172.4 713.99h43.7v66.88h-43.7z"/><rect class="cls-10" x="165.05" y="589.92" width="58.4" height="96.8" rx="5.03" transform="rotate(180 194.255 638.315)"/><path class="cls-12" d="M172.4 599.28h43.7v66.88h-43.7z"/><path fill="none" stroke="#666868" stroke-miterlimit="10" stroke-width="2.7" d="M476.28 605.34h86.02"/><path class="cls-8" d="M529.46 508.04h14.45v41.91h-14.45z"/><path class="cls-5" d="M387.84 568.74h14.45v41.91h-14.45z"/><path class="cls-14" d="M672.52 568.74h14.45v41.91h-14.45z"/><path class="cls-4" d="M439.1 641.25a97.08 97.08 0 0 1 194.16 0z"/><path class="cls-5" d="M438.42 640.99h194.06v41.91H438.42z"/><path class="cls-8" d="M448.06 653.19h16.48v29.42h-16.48zm31.54 0h16.48v29.42H479.6zm31.54 0h16.48v29.42h-16.48zm31.54 0h16.48v29.42h-16.48zm31.54 0h16.48v29.42h-16.48zm31.54 0h16.48v29.42h-16.48z"/><path class="cls-15" d="M357.09 642.1a37.23 37.23 0 1 1 74.46 0z"/><path class="cls-2" d="M357.49 640.99h73.7v41.91h-73.7z"/><path class="cls-3" d="M641.77 642.1a37.23 37.23 0 1 1 74.46 0z"/><path class="cls-16" d="M642.17 640.99h73.7v41.91h-73.7z"/><path class="cls-2" d="M291.02 642.44h14.45v41.91h-14.45z"/><path class="cls-17" d="M291.02 642.44h14.45v41.91h-14.45z"/><path class="cls-15" d="M767.35 642.44h14.45v41.91h-14.45z"/><path class="cls-18" d="M439.14 681.82h193.83v234.9H439.14z"/><path class="cls-7" transform="rotate(180 678.545 799.275)" d="M632.97 681.82h91.15v234.9h-91.15z"/><path class="cls-16" transform="rotate(180 393.865 799.275)" d="M348.29 681.82h91.15v234.9h-91.15z"/><path class="cls-15" d="M290.33 681.82h57.95v234.9h-57.95z"/><path class="cls-8" d="M723.86 681.82h57.95v234.9h-57.95z"/><path class="cls-9" d="M367.33 835.64h54.51v50.12h-54.51z"/><path class="cls-3" d="M394.62 808.25a27.3 27.3 0 0 0-27.3 27.3h54.61a27.31 27.31 0 0 0-27.31-27.3z"/><path class="cls-4" d="M367.33 733.1h54.51v50.12h-54.51z"/><path class="cls-14" d="M394.62 705.71a27.31 27.31 0 0 0-27.3 27.29h54.61a27.31 27.31 0 0 0-27.31-27.29z"/><path class="cls-19" d="M652.01 835.64h54.51v50.12h-54.51z"/><path class="cls-5" d="M679.3 808.25a27.31 27.31 0 0 0-27.3 27.3h54.61a27.31 27.31 0 0 0-27.31-27.3z"/><path class="cls-18" d="M652.01 733.1h54.51v50.12h-54.51z"/><path class="cls-8" d="M679.3 705.71A27.31 27.31 0 0 0 652 733h54.61a27.31 27.31 0 0 0-27.31-27.29z"/><path class="cls-10" d="M754.52 733.1h27.29v50.12h-27.29z"/><path class="cls-5" d="M781.81 705.71a27.31 27.31 0 0 0-27.3 27.29h27.3"/><path class="cls-12" d="M754.52 835.44h27.29v50.12h-27.29z"/><path class="cls-2" d="M781.81 808.05a27.31 27.31 0 0 0-27.3 27.31h27.3"/><path class="cls-19" d="M290.11 733.1h27.29v50.12h-27.29z"/><path class="cls-5" d="M290.11 705.71a27.31 27.31 0 0 1 27.3 27.29h-27.3"/><path class="cls-18" d="M290.11 835.44h27.29v50.12h-27.29z"/><path class="cls-2" d="M290.11 808.05a27.31 27.31 0 0 1 27.3 27.31h-27.3"/><path style="mix-blend-mode:multiply" fill="url(#linear-gradient)" d="M437.94 682.06H632.4v157.85L437.94 682.06z"/><path style="mix-blend-mode:multiply" fill="url(#linear-gradient-2)" d="M359.06 682.06h80.08v65l-80.08-65z"/><path style="mix-blend-mode:multiply" fill="url(#linear-gradient-3)" d="M639.27 682.06h80.07v65l-80.07-65z"/><rect class="cls-2" x="457.23" y="703.17" width="156.43" height="213.55" rx="12.22" transform="rotate(180 535.445 809.945)"/><path class="cls-23" d="M470.75 717.7h129.38v166.09H470.75z"/><path class="cls-3" d="M587.85 779.78a52.4 52.4 0 0 0-104.79-.93v104.82H587.7V779.78z"/><path class="cls-18" d="M497 883.67V778.9a38.51 38.51 0 0 1 76.89-2.2v106.97z"/><path class="cls-24" d="M524.51 895.36h21.87v8.54h-21.87z"/><path class="cls-17" d="M186.66 903.04h15.18v5.93h-15.18z"/><path class="cls-9" d="M186.66 788.05h15.18v5.93h-15.18z"/><path class="cls-18" d="M186.66 673.11h15.18v5.93h-15.18z"/><path class="cls-3" d="M872.88 903.02h15.18v5.93h-15.18z"/><path class="cls-6" d="M872.88 788.03h15.18v5.93h-15.18z"/><path class="cls-18" d="M872.88 673.09h15.18v5.93h-15.18z"/><path class="cls-3" d="M-19 779.65h125.25v36.53H-19z"/><path class="cls-4" d="M-5.46 605.91h98.17v28.63H-5.46z"/><path class="cls-10" d="M3.23 464.64h80.78v23.56H3.23z"/><rect class="cls-6" x="-12.62" y="815.73" width="112.48" height="186.44" rx="9.68" transform="rotate(180 43.625 908.95)"/><path class="cls-7" d="M1.54 833.76h84.17v128.81H1.54z"/><rect class="cls-8" x="-.46" y="634.04" width="88.16" height="146.13" rx="7.59" transform="rotate(180 43.625 707.105)"/><path class="cls-4" d="M10.64 648.17h65.97v100.96H10.64z"/><rect class="cls-2" x="7.35" y="486.74" width="72.55" height="120.25" rx="6.24" transform="rotate(180 43.625 546.865)"/><path class="cls-9" d="M16.48 498.37h54.29v83.08H16.48z"/><path class="cls-3" d="M29 975.82h29.25v11.43H29z"/><path class="cls-6" d="M32.16 759.93h22.92v8.96H32.16z"/><path class="cls-18" d="M34.19 590.06h18.86v7.37H34.19z"/><rect class="cls-16" x="20.36" y="389" width="46.52" height="77.11" rx="4" transform="rotate(180 43.625 427.555)"/><path class="cls-4" d="M26.22 396.46h34.81v53.27H26.22z"/><path class="cls-18" d="M37.58 455.25h12.1v4.73h-12.1z"/><path class="cls-16" d="M985.62 823.92h80.3v103.21h-80.3z"/><path class="cls-24" d="M985.62 938.78h80.3v62.21h-80.3z"/><path class="cls-6" d="M985.62 746.89h80.3v77.03h-80.3z"/><path class="cls-10" d="M1132.35 775.13a66.42 66.42 0 0 1 66 59v-87.24h-132.43v90.63h.21a66.37 66.37 0 0 1 66.22-62.39z"/><circle class="cls-5" cx="1025.77" cy="782.2" r="22.54"/><path class="cls-4" d="M1001.26 830.33h49.02v67.34h-49.02z"/><path class="cls-8" d="M1001.26 932.81h49.02v67.34h-49.02z"/><path class="cls-3" d="M985.62 714.45h293.01v32.44H985.62z"/><path class="cls-10" d="M985.62 682.04h293.01v32.44H985.62z"/><path class="cls-17" d="M994 649.63h276.26v32.44H994z"/><path class="cls-2" d="M1022.68 617.19h218.9v32.44h-218.9z"/><path class="cls-16" d="M987.75 714.45v32.44l-23.91-32.44h23.91z"/><rect class="cls-2" x="996.57" y="830.33" width="58.4" height="96.8" rx="5.03" transform="rotate(-180 1025.77 878.73)"/><path class="cls-6" d="M1003.92 839.69h43.7v66.88h-43.7z"/><path class="cls-7" d="M1018.18 913.45h15.18v5.93h-15.18z"/><path class="cls-25" d="M996.57 817.51h58.4v12.81h-58.4z"/><path class="cls-3" d="M1065.92 649.63h130.38v32.44h-130.38z"/><path class="cls-10" d="M1278.72 932.54h640.89v69.58h-640.89zm-1146-18.22h820.59v86.04H132.72z"/><path class="cls-17" d="M100.15 957.34h885.73v43.02H100.15z"/><path class="cls-6" d="M985.62 927.13h80.3v13.01h-80.3z"/><path class="cls-2" d="M1197.92 823.92h80.3v103.21h-80.3z"/><path class="cls-26" d="M1197.92 938.78h80.3v62.21h-80.3z"/><path class="cls-23" d="M1197.92 746.89h80.3v77.03h-80.3z"/><circle class="cls-16" cx="1238.07" cy="782.2" r="22.54"/><path class="cls-4" d="M1213.56 830.33h49.02v67.34h-49.02z"/><path class="cls-8" d="M1213.56 932.81h49.02v67.34h-49.02z"/><rect class="cls-10" x="1208.87" y="830.33" width="58.4" height="96.8" rx="5.03" transform="rotate(180 1238.075 878.73)"/><path class="cls-26" d="M1216.22 839.69h43.7v66.88h-43.7z"/><path class="cls-12" d="M1230.48 913.45h15.18v5.93h-15.18z"/><path class="cls-3" d="M1208.87 817.51h58.4v12.81h-58.4z"/><path class="cls-6" d="M1197.92 927.13h80.3v13.01h-80.3z"/><path class="cls-8" d="M1067.95 617.58h128.36l-64.07-43.37-64.29 43.37z"/><path class="cls-24" d="M1674.58 670.17h167.91v64.19h-167.91z"/><path class="cls-16" d="M1758.53 613.29l-92.48 36.33h184.96l-92.48-36.33z"/><path class="cls-17" d="M1619.27 765.89h278.53v64.19h-278.53z"/><path class="cls-16" d="M1619.27 830.07h278.53v102.02h-278.53z"/><path class="cls-15" d="M1619.27 765.89l55.31-31.54v31.54h-55.31z"/><path class="cls-12" d="M1842.48 734.35l55.31 31.54h-55.31v-31.54z"/><path class="cls-2" d="M1674.58 734.35h167.91v31.53h-167.91z"/><path class="cls-9" d="M1743.11 695.83h30.83v28.35h-30.83z"/><path class="cls-10" d="M1758.53 680.34a15.44 15.44 0 0 0-15.44 15.44H1774a15.44 15.44 0 0 0-15.47-15.44z"/><path class="cls-6" d="M1691.75 695.83h30.83v28.35h-30.83z"/><path class="cls-27" d="M1707.17 680.34a15.44 15.44 0 0 0-15.44 15.44h30.88a15.44 15.44 0 0 0-15.44-15.44z"/><path class="cls-2" d="M1797.75 695.83h30.83v28.35h-30.83z"/><path class="cls-15" d="M1813.17 680.34a15.45 15.45 0 0 0-15.45 15.44h30.89a15.45 15.45 0 0 0-15.44-15.44z"/><path class="cls-10" d="M1705.47 844.93a20 20 0 0 0-20 20h39.94a20 20 0 0 0-19.94-20z"/><path class="cls-4" d="M1688.7 864.9h33.53v46.05h-33.53z"/><rect class="cls-11" x="1685.5" y="864.9" width="39.94" height="66.2" rx="3.44" transform="rotate(180 1705.465 898.005)"/><path class="cls-7" d="M1690.52 871.3h29.89v45.74h-29.89z"/><path class="cls-10" d="M1700.27 921.75h10.39v4.06h-10.39z"/><path class="cls-12" d="M1652.4 844.93a20 20 0 0 0-20 20h39.94a20 20 0 0 0-19.94-20z"/><path class="cls-4" d="M1635.64 864.9h33.53v46.05h-33.53z"/><rect class="cls-10" x="1632.43" y="864.9" width="39.94" height="66.2" rx="3.44" transform="rotate(180 1652.405 898.005)"/><path class="cls-9" d="M1637.46 871.3h29.89v45.74h-29.89z"/><path class="cls-12" d="M1647.21 921.75h10.39v4.06h-10.39z"/><path class="cls-11" d="M1758.53 844.93a20 20 0 0 0-20 20h39.94a20 20 0 0 0-19.94-20z"/><path class="cls-4" d="M1741.77 864.9h33.53v46.05h-33.53z"/><rect class="cls-12" x="1738.56" y="864.9" width="39.94" height="66.2" rx="3.44" transform="rotate(180 1758.53 898.005)"/><path class="cls-25" d="M1743.59 871.3h29.89v45.74h-29.89z"/><path class="cls-11" d="M1753.34 921.75h10.39v4.06h-10.39z"/><path class="cls-3" d="M1811.59 844.93a20 20 0 0 0-20 20h39.94a20 20 0 0 0-19.94-20z"/><path class="cls-4" d="M1794.83 864.9h33.53v46.05h-33.53z"/><rect class="cls-10" x="1791.62" y="864.9" width="39.94" height="66.2" rx="3.44" transform="rotate(180 1811.595 898.005)"/><path class="cls-4" d="M1796.65 871.3h29.89v45.74h-29.89z"/><path class="cls-3" d="M1806.4 921.75h10.39v4.06h-10.39z"/><path class="cls-12" d="M1864.66 844.93a20 20 0 0 0-20 20h39.94a20 20 0 0 0-19.94-20z"/><path class="cls-4" d="M1847.89 864.9h33.53v46.05h-33.53z"/><rect class="cls-6" x="1844.69" y="864.9" width="39.94" height="66.2" rx="3.44" transform="rotate(180 1864.655 898.005)"/><path class="cls-3" d="M1849.71 871.3h29.89v45.74h-29.89z"/><path class="cls-2" d="M1859.46 921.75h10.39v4.06h-10.39z"/><path class="cls-5" d="M1619.27 765.89h12.67v64.19h-12.67z"/><path class="cls-25" d="M1663.51 765.89h12.67v64.19h-12.67z"/><path class="cls-2" d="M1707.75 765.89h12.67v64.19h-12.67z"/><path class="cls-5" d="M1751.99 765.89h12.67v64.19h-12.67z"/><path class="cls-25" d="M1796.23 765.89h12.67v64.19h-12.67z"/><path class="cls-16" d="M1840.47 765.89h12.67v64.19h-12.67z"/><path class="cls-28" d="M1884.72 765.89h12.67v64.19h-12.67z"/><path class="cls-5" d="M1848.1 594.5l11.18 29.95V594.5h-11.18z"/><path class="cls-28" d="M1930.97 594.5l-11.18 29.95V594.5h11.18z"/><path class="cls-3" d="M1647.72 774.21a16 16 0 0 1 15.79 13.49v-21.81h-31.57v21.81a16 16 0 0 1 15.78-13.49z"/><path class="cls-10" d="M1691.76 774.21a16 16 0 0 1 15.78 13.49v-21.81H1676v21.81a16 16 0 0 1 15.76-13.49z"/><path class="cls-3" d="M1736.21 774.21A16 16 0 0 1 1752 787.7v-21.81h-31.57v21.81a16 16 0 0 1 15.78-13.49z"/><path class="cls-24" d="M1780.45 774.21a16 16 0 0 1 15.78 13.49v-21.81h-31.57v21.81a16 16 0 0 1 15.79-13.49z"/><path class="cls-10" d="M1824.69 774.21a16 16 0 0 1 15.78 13.49v-21.81h-31.57v21.81a16 16 0 0 1 15.79-13.49z"/><path class="cls-2" d="M1868.93 774.21a16 16 0 0 1 15.79 13.49v-21.81h-31.58v21.81a16 16 0 0 1 15.79-13.49z"/><path class="cls-12" d="M1666.72 649.62h183.63v21.52h-183.63z"/><path class="cls-17" d="M1918.3 539.51v20.91h-20.91v-20.91h-16.3v20.91h-20.91v-20.91h-12.08v54.99h82.87v-54.99h-12.67zm-359.54 115.76h60.52V932.1h-60.52z"/><path class="cls-5" d="M1547.58 655.27l11.18 29.95v-29.95h-11.18z"/><path class="cls-25" d="M1630.45 655.27l-11.17 29.95v-29.95h11.17z"/><path class="cls-3" d="M1617.78 600.28v20.91h-20.91v-20.91h-16.3v20.91h-20.91v-20.91h-12.08v54.99h82.87v-54.99h-12.67z"/><path class="cls-25" d="M1331.59 655.27h60.52V932.1h-60.52z"/><path class="cls-12" d="M1558.76 655.27h60.52v111.37h-60.52z"/><path class="cls-10" d="M1331.59 655.27h60.52v111.37h-60.52z"/><path class="cls-17" d="M1320.41 655.27l11.18 29.95v-29.95h-11.18z"/><path class="cls-25" d="M1403.29 655.27l-11.18 29.95v-29.95h11.18z"/><path class="cls-3" d="M1390.62 600.28v20.91h-20.92v-20.91h-16.3v20.91h-20.91v-20.91h-12.08v54.99h82.88v-54.99h-12.67z"/><path class="cls-16" d="M1392.11 685.22h166.65v25.31h-166.65z"/><path class="cls-8" d="M1392.11 766.57h166.65v44.08h-166.65z"/><rect class="cls-2" x="1414.39" y="788.36" width="122.08" height="166.65" rx="9.53" transform="rotate(-90 1475.43 871.69)"/><path class="cls-23" transform="rotate(90 1482.61 871.69)" d="M1432.13 806.88h100.97V936.5h-100.97z"/><path class="cls-24" transform="rotate(90 1405.445 871.685)" d="M1396.91 868.35h17.06v6.67h-17.06z"/><path class="cls-3" d="M1417.8 922.17v-26.66a44.71 44.71 0 0 1 28.54-41.68l36.27-14.06 35.79 13.41a44.69 44.69 0 0 1 29 41.86v27.13z"/><path class="cls-17" d="M1432.31 922.17v-20.69a34.7 34.7 0 0 1 22.15-32.35l28.15-10.92 27.78 10.41a34.7 34.7 0 0 1 22.52 32.49v21.06zm-34.65-211.65h161.1v56.29h-161.1z"/><path class="cls-2" d="M1392.11 710.52h11.11v56.29h-11.11z"/><path class="cls-5" d="M1430.9 710.52h11.11v56.29h-11.11z"/><path class="cls-25" d="M1469.7 710.52h11.11v56.29h-11.11z"/><path class="cls-16" d="M1508.49 710.52h11.11v56.29h-11.11z"/><path class="cls-28" d="M1547.29 710.52h11.11v56.29h-11.11z"/><path class="cls-3" d="M1417.06 717.83a14 14 0 0 1 13.84 11.82v-19.13h-27.68v19.13a14 14 0 0 1 13.84-11.82z"/><path class="cls-24" d="M1455.86 717.83a14 14 0 0 1 13.84 11.82v-19.13H1442v19.13a14 14 0 0 1 13.86-11.82z"/><path class="cls-10" d="M1494.65 717.83a14 14 0 0 1 13.84 11.82v-19.13h-27.68v19.13a14 14 0 0 1 13.84-11.82z"/><path class="cls-2" d="M1533.45 717.83a14 14 0 0 1 13.84 11.82v-19.13h-27.68v19.13a14 14 0 0 1 13.84-11.82z"/><path class="cls-6" d="M1346.43 720.32h30.83v28.35h-30.83z"/><path class="cls-27" d="M1361.85 704.83a15.44 15.44 0 0 0-15.44 15.44h30.88a15.44 15.44 0 0 0-15.44-15.44z"/><path class="cls-6" d="M1874.12 694.58h30.83v28.35h-30.83z"/><path class="cls-27" d="M1889.53 679.1a15.44 15.44 0 0 0-15.44 15.44H1905a15.44 15.44 0 0 0-15.47-15.44z"/><path class="cls-16" d="M1573.6 720.32h30.83v28.35h-30.83z"/><path class="cls-2" d="M1589 704.83a15.44 15.44 0 0 0-15.44 15.44h30.88a15.44 15.44 0 0 0-15.44-15.44zm-242.57 99.39h30.83v28.35h-30.83z"/><path class="cls-7" d="M1361.85 788.73a15.44 15.44 0 0 0-15.44 15.44h30.88a15.44 15.44 0 0 0-15.44-15.44z"/><path class="cls-3" d="M1573.6 804.22h30.83v28.35h-30.83z"/><path class="cls-11" d="M1589 788.73a15.44 15.44 0 0 0-15.44 15.44h30.88a15.44 15.44 0 0 0-15.44-15.44z"/><path class="cls-10" d="M1346.43 873.79h30.83v28.35h-30.83z"/><path class="cls-9" d="M1361.85 858.3a15.44 15.44 0 0 0-15.44 15.44h30.88a15.44 15.44 0 0 0-15.44-15.44z"/><path class="cls-10" d="M1573.6 873.79h30.83v28.35h-30.83z"/><path class="cls-2" d="M1589 858.3a15.44 15.44 0 0 0-15.44 15.44h30.88A15.44 15.44 0 0 0 1589 858.3z"/><path d="M921.73 243.74V226h5.43a8.83 8.83 0 0 1 6.53 2.46 9.59 9.59 0 0 1 0 12.85 8.86 8.86 0 0 1-6.53 2.45zm2.27-15.58v13.4h3.15a6.71 6.71 0 1 0 0-13.4zm19.55 15.97a5.81 5.81 0 0 1-4.41-1.83 6.47 6.47 0 0 1-1.74-4.64 6.56 6.56 0 0 1 1.69-4.62 6 6 0 0 1 8.61-.1 7 7 0 0 1 1.6 4.9v.24h-9.55a4 4 0 0 0 1.19 2.88 3.85 3.85 0 0 0 6.15-1.09l2 1a6.13 6.13 0 0 1-2.27 2.41 6.29 6.29 0 0 1-3.27.85zm-3.65-7.93h7a3 3 0 0 0-1-2.1 3.62 3.62 0 0 0-2.49-.83 3.31 3.31 0 0 0-2.22.8 3.77 3.77 0 0 0-1.29 2.13zm17.1 7.54h-2.28l-4.91-12.15h2.48l3.61 9.41h.1l3.62-9.42H962zm11.58.39a5.83 5.83 0 0 1-4.42-1.83 6.47 6.47 0 0 1-1.74-4.64 6.61 6.61 0 0 1 1.69-4.62 6.06 6.06 0 0 1 8.62-.1 7 7 0 0 1 1.6 4.9v.24h-9.54A4 4 0 0 0 966 241a3.85 3.85 0 0 0 6.15-1.09l2 1a6 6 0 0 1-2.27 2.41 6.25 6.25 0 0 1-3.3.81zm-3.65-7.93h7a3.07 3.07 0 0 0-1-2.1 3.62 3.62 0 0 0-2.49-.83 3.31 3.31 0 0 0-2.22.8 3.77 3.77 0 0 0-1.29 2.13zm13.76-10.2v17.76h-2.28V226zm1.96 11.66a6.46 6.46 0 0 1 1.76-4.64 6 6 0 0 1 4.49-1.83 5.94 5.94 0 0 1 4.47 1.83 6.39 6.39 0 0 1 1.78 4.64 6.33 6.33 0 0 1-1.78 4.64 5.94 5.94 0 0 1-4.47 1.83 6 6 0 0 1-4.49-1.83 6.44 6.44 0 0 1-1.76-4.64zm2.29 0a4.46 4.46 0 0 0 1.14 3.18 3.9 3.9 0 0 0 5.65 0 5 5 0 0 0 0-6.33 3.84 3.84 0 0 0-5.65 0 4.42 4.42 0 0 0-1.14 3.15zm18.5 6.47a5.29 5.29 0 0 1-2.45-.57 4.22 4.22 0 0 1-1.69-1.51h-.1l.1 1.69v5.36H995v-17.51h2.19v1.68h.1a4.22 4.22 0 0 1 1.69-1.51 5.41 5.41 0 0 1 6.52 1.31 6.67 6.67 0 0 1 1.71 4.59 6.6 6.6 0 0 1-1.71 4.59 5.22 5.22 0 0 1-4.06 1.88zm-.37-2.08a3.55 3.55 0 0 0 2.75-1.24 4.49 4.49 0 0 0 1.11-3.15 4.56 4.56 0 0 0-1.11-3.15 3.7 3.7 0 0 0-5.53 0 5.14 5.14 0 0 0 0 6.33 3.61 3.61 0 0 0 2.78 1.21zm13.69 2.08a5.83 5.83 0 0 1-4.42-1.83 6.46 6.46 0 0 1-1.73-4.64 6.6 6.6 0 0 1 1.68-4.62 6.06 6.06 0 0 1 8.62-.1 7 7 0 0 1 1.6 4.9v.24h-9.55a4 4 0 0 0 1.19 2.88 3.85 3.85 0 0 0 6.15-1.09l2 1a6 6 0 0 1-2.27 2.41 6.23 6.23 0 0 1-3.27.85zm-3.65-7.93h7a3.07 3.07 0 0 0-1-2.1 3.62 3.62 0 0 0-2.49-.83 3.31 3.31 0 0 0-2.22.8 3.77 3.77 0 0 0-1.29 2.13zm13.77 7.54h-2.29v-12.15h2.19v2h.1a3.23 3.23 0 0 1 1.42-1.65 4 4 0 0 1 2.12-.68 4.26 4.26 0 0 1 1.69.3l-.7 2.2a3.9 3.9 0 0 0-1.34-.17 3 3 0 0 0-2.24 1 3.48 3.48 0 0 0-.95 2.43zm10.9 0V226h5.43a8.83 8.83 0 0 1 6.53 2.46 9.59 9.59 0 0 1 0 12.85 8.86 8.86 0 0 1-6.53 2.45zm2.28-15.58v13.4h3.15a6.71 6.71 0 1 0 0-13.4zm19.07 3.03a5.64 5.64 0 0 1 4 1.35 4.79 4.79 0 0 1 1.47 3.71v7.49h-2.19v-1.69h-.1a4.33 4.33 0 0 1-3.77 2.08 4.88 4.88 0 0 1-3.36-1.19 3.79 3.79 0 0 1-1.35-3 3.61 3.61 0 0 1 1.43-3 6 6 0 0 1 3.81-1.12 6.66 6.66 0 0 1 3.34.75v-.53a2.6 2.6 0 0 0-.94-2 3.25 3.25 0 0 0-2.21-.83 3.49 3.49 0 0 0-3 1.61l-2-1.26a5.59 5.59 0 0 1 4.87-2.37zm-3 8.83a1.84 1.84 0 0 0 .75 1.49 2.85 2.85 0 0 0 1.78.59 3.62 3.62 0 0 0 2.57-1.07 3.33 3.33 0 0 0 1.12-2.5 4.69 4.69 0 0 0-3-.84 3.84 3.84 0 0 0-2.32.67 2 2 0 0 0-.85 1.64zm21.65-8.43l-7.61 17.51h-2.36l2.83-6.13-5-11.38h2.48l3.62 8.73 3.52-8.73zm10.54 8.78a3.27 3.27 0 0 1-1.39 2.67 5.45 5.45 0 0 1-3.49 1.09 5.54 5.54 0 0 1-3.23-.95 5.22 5.22 0 0 1-2-2.52l2-.87a3.75 3.75 0 0 0 1.3 1.7 3.15 3.15 0 0 0 1.88.61 3.35 3.35 0 0 0 1.82-.47 1.33 1.33 0 0 0 .73-1.12c0-.77-.6-1.34-1.79-1.71l-2.08-.52c-2.36-.59-3.55-1.73-3.55-3.42a3.15 3.15 0 0 1 1.36-2.67 6.2 6.2 0 0 1 6.37-.23 4.12 4.12 0 0 1 1.82 2.06l-2 .84a2.57 2.57 0 0 0-1.13-1.2 3.53 3.53 0 0 0-1.75-.44 2.93 2.93 0 0 0-1.6.45 1.28 1.28 0 0 0-.7 1.09c0 .69.65 1.19 1.95 1.49l1.84.47q3.63.89 3.64 3.65zm-242.19 3.84a9.43 9.43 0 0 0 7.18-2.89 9.29 9.29 0 0 0 2.44-6.58 9.17 9.17 0 0 0-.15-1.76h-9.47v2.81h6.73a5.94 5.94 0 0 1-1.53 3.55 6.93 6.93 0 0 1-5.2 2.06 7.49 7.49 0 0 1 0-15 7.17 7.17 0 0 1 5.07 2l2-2a9.82 9.82 0 0 0-7.06-2.84 10.3 10.3 0 1 0 0 20.6zm17.27-13.27a6.64 6.64 0 1 0 6.66 6.63 6.54 6.54 0 0 0-6.66-6.63zm0 10.66a4 4 0 1 1 3.74-4 3.84 3.84 0 0 1-3.74 4zm14.52-10.66a6.64 6.64 0 1 0 6.66 6.63 6.54 6.54 0 0 0-6.66-6.63zm0 10.66a4 4 0 1 1 3.75-4 3.84 3.84 0 0 1-3.75 4zm17.83-10.25v1.08h-.1a4.61 4.61 0 0 0-3.49-1.49 6.64 6.64 0 0 0 0 13.27 4.55 4.55 0 0 0 3.49-1.51h.1v1c0 2.54-1.36 3.9-3.54 3.9a3.66 3.66 0 0 1-3.34-2.36l-2.54 1.05a6.32 6.32 0 0 0 5.88 3.92c3.41 0 6.3-2 6.3-6.91v-11.9zm-3.34 10.25a4 4 0 0 1 0-8c2 0 3.54 1.71 3.54 4a3.71 3.71 0 0 1-3.54 4zm11-17.29h-2.91v19.5h2.91zm8 17.29a3.36 3.36 0 0 1-3.21-2l8.87-3.67-.31-.75a6.14 6.14 0 0 0-5.66-4.18 6.3 6.3 0 0 0-6.26 6.63 6.5 6.5 0 0 0 6.58 6.63 6.61 6.61 0 0 0 5.53-2.94l-2.26-1.51a3.8 3.8 0 0 1-3.27 1.79zm-.23-8.09a2.57 2.57 0 0 1 2.47 1.4l-5.93 2.46a3.62 3.62 0 0 1 3.47-3.86z" fill="#636363"/><text transform="translate(925.85 272.42)" font-size="14.16" font-family="ProductSans-Regular,Product Sans" letter-spacing=".04em" fill="#636363">Ind<tspan x="20.87" y="0">i</tspan><tspan x="24.48" y="0">a 2</tspan><tspan x="43.87" y="0" letter-spacing=".03em">0</tspan><tspan x="53.33" y="0">17</tspan></text><path class="cls-10" d="M941.75 184.48L955.79 160h-15.91l-6.08 10.6 7.95 13.88z"/><path class="cls-7" d="M927.16 182.19a4.62 4.62 0 0 0 0 4.58L939.88 209h15.91l-22-38.36z"/><path class="cls-14" d="M978.25 184.48l-14.04 24.48h15.91l6.08-10.6-7.95-13.88z"/><path class="cls-3" d="M992.84 186.77a4.62 4.62 0 0 0 0-4.58L980.12 160h-15.91l22 38.36z"/></g></g></svg>