<svg xmlns="http://www.w3.org/2000/svg" xmlns:xlink="http://www.w3.org/1999/xlink" viewBox="0 0 1920 1000"><defs><style>.cls-3{fill:#e09108}.cls-4{fill:#fbc730}.cls-5{fill:#ea7a72}.cls-6{fill:#b7251d}.cls-7{fill:#34a853}.cls-8{fill:#73cb8a}.cls-9{fill:#df382b}.cls-10{fill:#fdaf00}.cls-11{fill:#ef9b95}.cls-12{fill:#6199f6}.cls-13{fill:#4285f4}.cls-14{fill:#23893c}.cls-15{fill:#eda606}.cls-16{fill:#2c66bf}.cls-17{fill:#9fc1f9}.cls-23{fill:#e6a609}.cls-24{fill:#e4594e}.cls-30{fill:#126b26}.cls-34{fill:#fabb05}</style><linearGradient id="linear-gradient" x1="264.83" y1="658.88" x2="395.85" y2="789.89" gradientUnits="userSpaceOnUse"><stop offset="0" stop-color="#ccc"/><stop offset="1" stop-color="#fff" stop-opacity="0"/></linearGradient><linearGradient id="linear-gradient-2" x1="393.08" y1="726.25" x2="481.1" y2="814.27" xlink:href="#linear-gradient"/><linearGradient id="linear-gradient-3" x1="182.58" y1="726.25" x2="270.6" y2="814.27" xlink:href="#linear-gradient"/><linearGradient id="linear-gradient-4" x1="482.7" y1="768.2" x2="570.72" y2="856.22" xlink:href="#linear-gradient"/><linearGradient id="linear-gradient-5" x1="91.56" y1="768.2" x2="179.58" y2="856.22" xlink:href="#linear-gradient"/><linearGradient id="linear-gradient-6" x1="879.54" y1="649.43" x2="1043.19" y2="813.08" xlink:href="#linear-gradient"/><linearGradient id="linear-gradient-7" x1="841.96" y1="700.68" x2="1101.16" y2="959.87" xlink:href="#linear-gradient"/><linearGradient id="linear-gradient-8" x1="897.18" y1="592.32" x2="1021.36" y2="716.49" xlink:href="#linear-gradient"/><linearGradient id="linear-gradient-9" x1="1198.43" y1="782.09" x2="1355.05" y2="938.7" xlink:href="#linear-gradient"/></defs><g style="isolation:isolate"><g id="Layer_1" data-name="Layer 1"><path fill="#fddf87" d="M270.19 765.48h104.94v73.08H270.19z"/><path class="cls-3" d="M164.28 985.66h317.89v13.7H164.28zm0-27.15h317.89v13.7H164.28z"/><path class="cls-4" d="M164.28 971.6h317.89v13.7H164.28z"/><path class="cls-5" transform="rotate(-180 518.78 835.27)" d="M466.12 806.66h105.33v57.22H466.12z"/><path class="cls-6" transform="rotate(-180 428.44 822.045)" d="M390.77 780.21h75.35v83.67h-75.35z"/><path class="cls-7" transform="rotate(-180 563.66 833.505)" d="M555.87 803.13h15.57v60.75h-15.57z"/><path class="cls-6" transform="rotate(-180 518.1 812.795)" d="M480.42 803.13h75.35v19.33h-75.35z"/><path class="cls-8" transform="rotate(-180 567.665 754.785)" d="M563.37 746.39h8.58v16.78h-8.58z"/><path class="cls-9" transform="rotate(-180 526.875 782.83)" d="M481.79 762.89h90.17v39.88h-90.17z"/><path class="cls-10" transform="rotate(-180 526.875 793.095)" d="M481.79 782.59h90.17v21.02h-90.17z"/><path class="cls-11" d="M571.43 823.58l68.74-47.4c-20.86 10.45-50.84 18.08-68.74-3z"/><path class="cls-7" d="M555.87 822.84v14.22l-14.49-14.22h14.49z"/><path class="cls-12" transform="rotate(-180 474 812.69)" d="M466.22 761.5h15.57v102.38h-15.57z"/><path class="cls-8" transform="rotate(-180 428.44 771.165)" d="M390.77 761.5h75.35v19.33h-75.35z"/><path class="cls-13" transform="rotate(-180 478.01 707.2)" d="M473.72 698.81h8.58v16.78h-8.58z"/><path class="cls-12" transform="rotate(-180 436.535 735.245)" d="M390.77 715.31h91.54v39.88h-91.54z"/><path class="cls-9" transform="rotate(-180 436.535 751.045)" d="M390.77 740.59h91.54v20.91h-91.54z"/><path class="cls-14" d="M481.77 776l68.74-47.41c-20.86 10.46-50.84 18.08-68.74-3z"/><path class="cls-4" d="M466.22 780.43v14.22l-14.49-14.22h14.49zm15.55 42.64v14.22l14.49-14.22h-14.49z"/><path class="cls-5" d="M74.97 806.66H180.3v57.22H74.97z"/><path class="cls-6" d="M180.3 780.21h75.35v83.67H180.3z"/><path class="cls-9" d="M74.97 803.13h15.57v60.75H74.97z"/><path class="cls-6" d="M90.64 803.13h75.35v19.33H90.64z"/><path class="cls-13" d="M74.46 762.89h90.17v39.88H74.46z"/><path class="cls-11" d="M74.46 782.59h90.17v21.02H74.46z"/><path class="cls-7" d="M90.54 822.84v14.22l14.49-14.22H90.54z"/><path class="cls-12" d="M164.63 761.5h15.57v102.38h-15.57z"/><path class="cls-15" d="M180.3 761.5h75.35v19.33H180.3z"/><path class="cls-9" d="M255.65 754.78h15.67v83.29h-15.67zm119.48 0h15.67v83.29h-15.67z"/><path class="cls-13" d="M164.11 698.81h8.58v16.78h-8.58z"/><path class="cls-15" d="M291.43 685.3h8.58v16.78h-8.58z"/><path class="cls-9" d="M164.11 715.31h91.54v39.88h-91.54z"/><path class="cls-14" d="M164.11 740.59h91.54v20.91h-91.54z"/><path class="cls-15" d="M164.64 776l-68.73-47.41c20.86 10.46 50.83 18.08 68.73-3z"/><path class="cls-7" d="M255.65 641.19h8.58v16.78h-8.58z"/><path class="cls-4" d="M382.96 641.19h8.58v16.78h-8.58z"/><path class="cls-15" d="M255.65 657.69h136.18v39.88H255.65z"/><path class="cls-16" d="M255.65 697.19h136.18v21.02H255.65z"/><path class="cls-13" d="M255.65 724.51l-68.74-47.41c20.86 10.45 50.84 18.08 68.74-3z"/><path class="cls-9" d="M391.16 724.51l68.74-47.41c-20.86 10.45-50.83 18.08-68.74-3z"/><path class="cls-7" d="M255.65 727.34h15.67v83.29h-15.67z"/><path class="cls-12" d="M375.13 727.34h15.67v83.29h-15.67z"/><path class="cls-13" d="M271.32 727.34h103.81V766H271.32z"/><path class="cls-9" d="M375.13 754.78h15.67v83.29h-15.67z"/><path class="cls-7" d="M255.65 718.21h15.67v92.43h-15.67z"/><path class="cls-12" d="M375.13 718.21h15.67v92.43h-15.67z"/><path class="cls-13" d="M271.32 718.21h103.81v42.9H271.32z"/><path class="cls-10" d="M283.98 726.94h78.49v25.42h-78.49z"/><path class="cls-13" d="M255.65 837.82H390.8v26.06H255.65z"/><path class="cls-9" d="M271.32 766v14.22L285.81 766h-14.49z"/><path class="cls-4" d="M180.2 780.43v14.22l14.49-14.22H180.2z"/><path class="cls-11" d="M390.77 780.43v14.22l14.49-14.22h-14.49z"/><path class="cls-16" d="M255.65 781.11v13.54l-14.49-13.54h14.49z"/><path class="cls-4" d="M164.64 823.07v14.22l-14.49-14.22h14.49z"/><path class="cls-9" d="M375.41 766v14.22L360.92 766h14.49z"/><rect class="cls-16" x="293.98" y="766.74" width="58.48" height="79.83" rx="4.57" transform="rotate(-90 323.62 806.83)"/><path class="cls-6" d="M278.53 830.62v2.66a4.56 4.56 0 0 0 4.57 4.56l80.21-.05a4.56 4.56 0 0 0 4.56-4.57v-2.66z"/><path class="cls-7" transform="rotate(89.96 323.227 804.419)" d="M301.39 769.21h43.67v70.42h-43.67z"/><path class="cls-16" d="M44.26 863.88H165.8v39.15H44.26zm437.74 0h121.54v39.15H482z"/><path class="cls-10" d="M164.28 863.88h317.89v13.7H164.28z"/><path class="cls-6" d="M164.28 877.51h317.89v13.7H164.28z"/><path class="cls-11" d="M164.28 890.61h317.89v13.7H164.28z"/><path class="cls-10" d="M164.28 863.88h317.89v13.7H164.28z"/><path class="cls-4" d="M164.28 877.51h317.89v13.7H164.28z"/><path class="cls-3" d="M164.28 890.61h317.89v13.7H164.28z"/><path class="cls-10" d="M164.28 904.8h317.89v13.7H164.28z"/><path class="cls-4" d="M164.28 918.43h317.89v13.7H164.28z"/><path class="cls-3" d="M164.28 931.52h317.89v13.7H164.28z"/><path class="cls-10" d="M164.28 944.87h317.89v13.7H164.28z"/><path class="cls-14" d="M270.19 861.68h12.66v138.17h-12.66zm92.54 0h12.66v138.17h-12.66z"/><path class="cls-17" d="M466.22 861.68h16.21v138.24h-16.21zm-301.91 0h16.21v138.24h-16.21z"/><rect class="cls-8" x="194.84" y="794.12" width="42.03" height="69.67" rx="3.62" transform="rotate(180 215.855 828.955)"/><path class="cls-16" d="M200.13 800.86h31.45v48.13h-31.45z"/><path class="cls-7" d="M210.86 853.96h9.99v3.9h-9.99z"/><rect class="cls-4" x="407.48" y="794.12" width="42.03" height="69.67" rx="3.62" transform="rotate(180 428.49 828.955)"/><path class="cls-7" d="M412.77 800.86h31.45v48.13h-31.45z"/><path class="cls-16" d="M423.5 853.96h9.99v3.9h-9.99z"/><path class="cls-17" d="M282.85 861.68h79.88v46.21h-79.88z"/><path class="cls-12" d="M282.85 908.03h79.88v46.21h-79.88z"/><path class="cls-14" d="M164.31 999.36H-41l50-71a47.25 47.25 0 0 1 42.05-25.71h113.26zm318.46-96.68H663.3v97.24H482.77z"/><path style="mix-blend-mode:multiply" fill="url(#linear-gradient)" d="M255.65 717.25h135.12v46.58l-76.77.1-58.35-46.68z"/><path style="mix-blend-mode:multiply" fill="url(#linear-gradient-2)" d="M390.73 761.65h75.49v46.58l-17.14.1-58.35-46.68z"/><path style="mix-blend-mode:multiply" fill="url(#linear-gradient-3)" d="M180.23 761.65h75.48v46.58l-17.13.1-58.35-46.68z"/><path style="mix-blend-mode:multiply" fill="url(#linear-gradient-4)" d="M480.36 803.6h75.48v46.58l-17.13.1-58.35-46.68z"/><path style="mix-blend-mode:multiply" fill="url(#linear-gradient-5)" d="M89.21 803.6h75.48v46.58l-17.13.1-58.35-46.68z"/><path class="cls-16" d="M77 823.58l-68.71-47.4c20.86 10.45 50.83 18.08 68.74-3z"/><path class="cls-13" d="M282.85 953.72h79.88v46.21h-79.88zm426.49-544.86h16.57v64.15h-16.57z"/><path class="cls-23" d="M713.48 325.19h8.28v64.15h-8.28z"/><path class="cls-7" d="M699.51 526.79h36.22v243.19h-36.22z"/><path class="cls-16" d="M718.45 822.15v154.07H605.8l112.65-154.07z"/><path class="cls-10" d="M716.79 822.15v154.07h112.66L716.79 822.15z"/><path class="cls-9" d="M753.81 504.93a36.19 36.19 0 1 0-72.37 0z"/><path class="cls-23" d="M681.44 504.93a36.19 36.19 0 0 0 72.37 0z"/><path class="cls-4" d="M709.34 725.36h16.57v28.66h-16.57zm0-43.97h16.57v28.66h-16.57zm0-39.33h16.57v28.66h-16.57zm0-40.17h16.57v28.66h-16.57zm0-44.72h16.57v28.66h-16.57z"/><circle class="cls-9" cx="717.62" cy="399.52" r="16.98"/><circle class="cls-9" cx="717.62" cy="325.19" r="6.42"/><path class="cls-7" d="M717.62 872.75l-59.63 103.29h119.27l-59.64-103.29z"/><path class="cls-13" d="M773.12 820.4a55.5 55.5 0 0 0-111 0z"/><path class="cls-8" d="M662.12 820.4a55.5 55.5 0 0 0 111 0z"/><path class="cls-16" d="M953.59 708.55V812H796.81s127.74-54.73 156.78-103.45z"/><path class="cls-13" d="M953.59 708.55V812h156.78s-127.74-54.73-156.78-103.45z"/><path class="cls-15" d="M953.27 641.66v81.39H830S930.42 680 953.27 641.66z"/><path class="cls-4" d="M953.27 641.66v81.39h123.31S976.11 680 953.27 641.66z"/><path class="cls-15" d="M946.49 572.34h14.75v38.09h-14.75z"/><path class="cls-17" d="M889.05 669.04h129.63v12.37H889.05zm-22.86 83.63h174.03v12.37H866.19z"/><path class="cls-15" d="M866.19 765.04h174.03v12.37H866.19z"/><path class="cls-9" d="M889.05 681.37h129.63v12.37H889.05zm0-34.37h129.63v22.02H889.05z"/><path class="cls-16" d="M862 647l27.05 22.04V647H862zm183.5 0l-27.05 22.04V647h27.05zm-179.19 76.05h174.22v29.6H866.31z"/><path class="cls-24" d="M829.95 723.05l36.35 29.62v-29.62h-36.35z"/><path class="cls-7" d="M1076.58 723.05l-36.35 29.62v-29.62h36.35zm-249.54 88.84h252.6v25.02h-252.6z"/><path class="cls-11" d="M1110.37 811.89l-30.73 25.04v-25.04h30.73z"/><path class="cls-15" d="M935.9 647h34.04v39.92H935.9z"/><path class="cls-16" d="M941.38 652.51h23.06v28.9h-23.06z"/><path class="cls-9" d="M796.81 811.89l30.73 25.04v-25.04h-30.73z"/><circle class="cls-24" cx="953.86" cy="569.32" r="11.53"/><path class="cls-7" d="M953.86 586.36V647H862s74.85-32.09 91.86-60.64z"/><path class="cls-8" d="M953.86 586.36V647h91.87s-74.85-32.09-91.87-60.64z"/><path class="cls-12" d="M866.19 752.58h12.39v12.39h-12.39zm53.94.08h12.39v12.39h-12.39zm53.94-.08h12.39v12.39h-12.39zm53.94.08h12.39v12.39h-12.39zm-138.96-83.59h12.39v12.39h-12.39zm117.24 0h12.39v12.39h-12.39z"/><path class="cls-17" d="M955.38 899.59h11.07v19.77h-11.07z"/><rect class="cls-9" x="827.73" y="835.81" width="50.69" height="84.01" rx="4.36" transform="rotate(180 853.075 877.82)"/><path class="cls-15" d="M834.11 843.94h37.93v58.04h-37.93z"/><rect class="cls-4" x="878.58" y="835.81" width="50.69" height="84.01" rx="4.36" transform="rotate(180 903.92 877.82)"/><path class="cls-13" d="M884.96 843.94h37.93v58.04h-37.93z"/><rect class="cls-16" x="929.25" y="835.81" width="50.69" height="84.01" rx="4.36" transform="rotate(180 954.595 877.82)"/><path class="cls-8" d="M935.63 843.94h37.93v58.04h-37.93z"/><path class="cls-7" d="M847.05 907.97h12.04v4.71h-12.04z"/><path class="cls-9" d="M897.9 907.97h12.04v4.71H897.9z"/><path fill="#fcd35c" d="M948.57 907.97h12.04v4.71h-12.04z"/><rect class="cls-9" x="978.57" y="835.81" width="50.69" height="84.01" rx="4.36" transform="rotate(180 1003.915 877.82)"/><path class="cls-15" d="M984.95 843.94h37.93v58.04h-37.93z"/><path class="cls-7" d="M997.89 907.97h12.04v4.71h-12.04z"/><rect class="cls-4" x="1028.95" y="835.81" width="50.69" height="84.01" rx="4.36" transform="rotate(180 1054.295 877.82)"/><path class="cls-7" d="M1035.33 843.94h37.93v58.04h-37.93z"/><path class="cls-16" d="M1048.27 907.97h12.04v4.71h-12.04z"/><path class="cls-9" d="M731.98 919.83h442.71v26.82H731.98z"/><path class="cls-5" d="M668.56 946.41h569.56v26.82H668.56z"/><path class="cls-6" d="M605.94 973.18h695.88V1000H605.94z"/><path class="cls-8" d="M731.98 899.59h10.35v20.24h-10.35z"/><path class="cls-13" d="M762.41 899.59h10.35v20.24h-10.35z"/><path class="cls-4" d="M668.77 926.41h10.35v20.24h-10.35z"/><path class="cls-15" d="M699.2 926.41h10.35v20.24H699.2z"/><path class="cls-9" d="M605.94 952.99h10.35v20.24h-10.35z"/><path class="cls-6" d="M636.37 952.99h10.35v20.24h-10.35z"/><path class="cls-9" d="M1261.03 952.99h10.35v20.24h-10.35z"/><path class="cls-8" d="M1291.46 952.99h10.35v20.24h-10.35z"/><path class="cls-4" d="M1196.9 926.41h10.35v20.24h-10.35z"/><path class="cls-15" d="M1227.34 926.41h10.35v20.24h-10.35z"/><path class="cls-7" d="M792.85 899.59h10.35v20.24h-10.35zm310.63 0h10.35v20.24h-10.35z"/><path class="cls-3" d="M1133.91 899.59h10.35v20.24h-10.35z"/><path class="cls-17" d="M1164.34 899.59h10.35v20.24h-10.35z"/><path style="mix-blend-mode:multiply" fill="url(#linear-gradient-6)" d="M867.17 723.25h172.38v54.57l-104.02.12-68.36-54.69z"/><path style="mix-blend-mode:multiply" fill="url(#linear-gradient-7)" d="M827.65 812.31h251.9v107.55l-124.25-.09-127.65-107.46z"/><path style="mix-blend-mode:multiply" fill="url(#linear-gradient-8)" d="M887.79 648.33h130.8v41.41l-78.93.09-51.87-41.5z"/><path style="mix-blend-mode:multiply" fill="url(#linear-gradient-9)" d="M1195.85 843.47h127.94v89.25l-30.52-1.22-97.42-88.03z"/><path class="cls-5" d="M1420.46 828.67l-19.06 6.04v-19.38l19.06-6.04v19.38z"/><path class="cls-9" d="M1444.13 821.17l-19.06 6.04v-19.38l19.06-6.04v19.38z"/><path class="cls-5" d="M1467.81 813.67l-19.06 6.04v-19.38l19.06-6.04v19.38z"/><path class="cls-9" d="M1491.62 806.13l-19.06 6.04v-19.38l19.06-6.04v19.38z"/><path class="cls-6" d="M1515.29 798.63l-19.06 6.04v-19.39l19.06-6.03v19.38z"/><path class="cls-24" d="M1538.97 791.13l-19.06 6.04v-19.39l19.06-6.03v19.38z"/><path class="cls-9" d="M1562.65 783.63l-19.06 6.04v-19.39l19.06-6.03v19.38z"/><path class="cls-6" d="M1585.92 776.26l-19.06 6.03v-19.38l19.06-6.03v19.38z"/><path class="cls-5" d="M1609.6 768.76l-19.06 6.03v-19.38l19.06-6.03v19.38z"/><path class="cls-9" d="M1633.27 761.26l-19.06 6.03v-19.38l19.06-6.03v19.38z"/><path class="cls-5" d="M1656.95 753.76l-19.06 6.03v-19.38l19.06-6.03v19.38z"/><path class="cls-6" d="M1400.98 826.49l279.46-88.66v64.43l-279.46 88.66v-64.43z"/><path class="cls-13" d="M1782.64 766.83h24.92v25.34h-24.92z"/><path class="cls-16" d="M1813.6 766.83h24.92v25.34h-24.92z"/><path class="cls-12" d="M1844.55 766.83h24.92v25.34h-24.92z"/><path class="cls-16" d="M1875.51 766.83h24.92v25.34h-24.92z"/><path class="cls-3" d="M1387.28 746.8h19.06v19.38h-19.06z"/><path class="cls-4" d="M1410.96 746.8h19.06v19.38h-19.06z"/><path class="cls-15" d="M1434.63 746.8h19.06v19.38h-19.06z"/><path class="cls-3" d="M1458.31 746.8h19.06v19.38h-19.06z"/><path class="cls-14" d="M1662.73 689.57h16.45v16.72h-16.45z"/><path class="cls-7" d="M1683.16 689.57h16.45v16.72h-16.45z"/><path class="cls-8" d="M1703.59 689.57h16.45v16.72h-16.45z"/><path class="cls-7" d="M1724.02 689.57h16.45v16.72h-16.45z"/><path class="cls-30" d="M1397.64 875.44l342.82-100.69 160.72 41.88V984.8h-552.65l2.18-49.46a65.43 65.43 0 0 1 46.93-59.9z"/><rect class="cls-16" x="1662.32" y="698.2" width="78.14" height="106.67" rx="6.1" transform="rotate(180 1701.395 751.53)"/><path class="cls-5" d="M1669.08 705.45h64.63v82.96h-64.63z"/><path class="cls-9" d="M1669.08 705.45h64.63v19.03h-64.63z"/><path class="cls-4" d="M1695.93 794.19h10.92v4.27h-10.92z"/><path class="cls-16" d="M1819.28 863.92l19.06 2.68v-19.38l-19.06-2.69v19.39z"/><path class="cls-12" d="M1795.6 860.58l19.06 2.68v-19.38l-19.06-2.68v19.38z"/><path class="cls-13" d="M1771.92 857.24l19.06 2.69v-19.38l-19.06-2.69v19.38z"/><path class="cls-16" d="M1748.12 853.89l19.06 2.68v-19.38l-19.06-2.68v19.38z"/><path class="cls-17" d="M1724.44 850.55l19.06 2.69v-19.38l-19.06-2.69v19.38z"/><path class="cls-12" d="M1700.76 847.21l19.06 2.69v-19.38l-19.06-2.69v19.38z"/><path class="cls-16" d="M1677.09 843.88l19.06 2.68v-19.38l-19.06-2.68v19.38z"/><path class="cls-13" d="M1653.81 840.6l19.06 2.68V823.9l-19.06-2.68v19.38z"/><path class="cls-12" d="M1630.14 837.26l19.05 2.69v-19.38l-19.05-2.69v19.38z"/><path class="cls-17" d="M1606.46 833.92l19.06 2.69v-19.38l-19.06-2.69v19.38z"/><path class="cls-16" d="M1582.78 830.59l19.06 2.68v-19.38l-19.06-2.68v19.38z"/><path class="cls-12" d="M1559.14 827.25l19.06 2.69v-19.38l-19.06-2.68v19.37z"/><path class="cls-13" d="M1535.46 823.92l19.06 2.68v-19.38l-19.06-2.68v19.38z"/><path class="cls-16" d="M1511.79 820.58l19.06 2.69v-19.38l-19.06-2.69v19.38z"/><path class="cls-17" d="M1488.11 817.24l19.06 2.69v-19.38l-19.06-2.69v19.38z"/><path class="cls-12" d="M1464.95 813.98l19.06 2.69v-19.38l-19.06-2.69v19.38z"/><path class="cls-16" d="M1441.28 810.64l19.06 2.69v-19.38l-19.06-2.69v19.38z"/><path class="cls-13" d="M1417.6 807.31l19.06 2.68v-19.38l-19.06-2.68v19.38z"/><path class="cls-16" d="M1838.75 858.31l-421.15-59.36v64.44l421.15 59.35v-64.43z"/><path class="cls-30" d="M1896.89 942.52l-554.19 28.63-.08 28.77H1961l-18.26-34.15a56.9 56.9 0 0 0-45.85-23.25z"/><path class="cls-9" d="M1683.23 736a5.23 5.23 0 0 0-5.23 5.23v8.53h10.47v-8.53a5.23 5.23 0 0 0-5.24-5.23zm18.16 0a5.23 5.23 0 0 0-5.23 5.23v8.53h10.47v-8.53a5.24 5.24 0 0 0-5.24-5.23zm18.16 0a5.23 5.23 0 0 0-5.23 5.23v8.53h10.47v-8.53a5.24 5.24 0 0 0-5.24-5.23z"/><rect class="cls-9" x="1386.92" y="757.42" width="90.24" height="123.19" rx="7.05" transform="rotate(180 1432.035 819.01)"/><path class="cls-7" d="M1394.72 765.8h74.63v95.81h-74.63z"/><path class="cls-14" d="M1394.72 765.8h74.63v21.97h-74.63z"/><path class="cls-9" d="M1425.73 868.28h12.61v4.93h-12.61z"/><path d="M1411.59 801.3a5.9 5.9 0 0 0-5.9 5.89v9.6h11.79v-9.6a5.89 5.89 0 0 0-5.89-5.89zm20.41 0a5.89 5.89 0 0 0-5.89 5.89v9.6h11.79v-9.6a5.9 5.9 0 0 0-5.9-5.89zm20.48 0a5.9 5.9 0 0 0-5.9 5.89v9.6h11.79v-9.6a5.89 5.89 0 0 0-5.89-5.89z" fill="#92dda6"/><path class="cls-15" d="M1344.25 921.16l458.68-39.91v60.48l-458.68 39.91v-60.48z"/><path class="cls-14" d="M1781.6 784.51h119.58v21.08H1781.6z"/><rect class="cls-14" x="1781.62" y="779.39" width="119.94" height="163.73" rx="9.37" transform="rotate(180 1841.595 861.26)"/><path class="cls-4" d="M1791.99 790.53h99.2v127.35h-99.2z"/><path class="cls-3" d="M1791.99 790.53h99.2v29.21h-99.2z"/><path class="cls-9" d="M1833.21 926.74h16.77v6.55h-16.77z"/><path d="M1814.22 834.93a7.84 7.84 0 0 0-7.84 7.84v12.75h15.67v-12.75a7.84 7.84 0 0 0-7.83-7.84zm27.17 0a7.84 7.84 0 0 0-7.83 7.84v12.75h15.67v-12.75a7.84 7.84 0 0 0-7.84-7.84zm27.18 0a7.84 7.84 0 0 0-7.84 7.84v12.75h15.67v-12.75a7.83 7.83 0 0 0-7.83-7.84z" fill="#f6f6f7" opacity=".5"/><path class="cls-14" d="M1357.17 936.73l544.73 63.19h-578.3l14.87-53.13a18.74 18.74 0 0 1 18.7-10.06z"/><path class="cls-4" d="M1363.81 919.9l-19.66 1.72V910.3l19.66-1.72v11.32z"/><path class="cls-15" d="M1388.24 917.76l-19.66 1.72v-11.31l19.66-1.72v11.31zm24.42-2.13l-19.66 1.72v-11.32l19.66-1.72v11.32z"/><path class="cls-3" d="M1437.21 913.48l-19.65 1.72v-11.32l19.65-1.72v11.32z"/><path class="cls-4" d="M1461.64 911.34l-19.66 1.72v-11.31l19.66-1.73v11.32z"/><path class="cls-15" d="M1486.06 909.21l-19.66 1.71v-11.31l19.66-1.72v11.32z"/><path class="cls-3" d="M1510.48 907.07l-19.66 1.72v-11.32l19.66-1.72v11.32zm24.01-2.1l-19.66 1.72v-11.32l19.66-1.72v11.32z"/><path class="cls-4" d="M1558.91 902.83l-19.66 1.72v-11.32l19.66-1.72v11.32z"/><path class="cls-15" d="M1583.34 900.7l-19.66 1.71V891.1l19.66-1.72v11.32zm24.42-2.14l-19.66 1.72v-11.32l19.66-1.72v11.32z"/><path class="cls-3" d="M1632.14 896.42l-19.66 1.72v-11.31l19.66-1.72v11.31z"/><path class="cls-4" d="M1656.57 894.29l-19.66 1.72v-11.32l19.66-1.72v11.32z"/><path class="cls-15" d="M1680.99 892.15l-19.66 1.72v-11.32l19.66-1.72v11.32zm24.42-2.14l-19.66 1.73v-11.32l19.66-1.72v11.31z"/><path class="cls-3" d="M1729.3 887.92l-19.66 1.72v-11.31l19.66-1.72v11.31z"/><path class="cls-4" d="M1753.72 885.79l-19.66 1.72v-11.32l19.66-1.72v11.32z"/><path class="cls-15" d="M1778.14 883.65l-19.66 1.72v-11.32l19.66-1.72v11.32z"/><path class="cls-34" d="M1262.28 481.34h-2.32l-1.51 38.57h5.34l-1.51-38.57z"/><path class="cls-12" d="M1240.88 559.29h40.15v20.22h-40.15z"/><path class="cls-13" d="M1219.83 559.29h21.38v20.22h-21.38z"/><path class="cls-16" d="M1281.04 559.29h21.38v20.22h-21.38z"/><rect class="cls-16" x="1209.1" y="825.34" width="102.43" height="139.83" rx="8" transform="rotate(90 1260.32 895.26)"/><path class="cls-8" transform="rotate(-90 1254.295 895.255)" d="M1211.94 840.88h84.72v108.76h-84.72z"/><path class="cls-5" transform="rotate(-90 1319.04 895.26)" d="M1311.88 892.46h14.32v5.59h-14.32z"/><path class="cls-15" d="M1179.21 945.86h162.87v26.4h-162.87z"/><path class="cls-13" d="M1378.64 971.15H1139L983.06 1000h555.16l-159.58-28.85z"/><path class="cls-9" d="M1219.83 540.71h82.58v18.57h-82.58z"/><path class="cls-7" d="M1261.31 513.7v27.16h-41.16s33.53-14.37 41.16-27.16z"/><path class="cls-8" d="M1261.31 513.7v27.16h41.16s-33.54-14.37-41.16-27.16z"/><path class="cls-4" d="M1326.74 544.38l-24.33 15v-18.67s7.92 9.74 24.33 3.67z"/><path class="cls-5" d="M1195.5 544.38l24.33 15v-18.67s-7.91 9.74-24.33 3.67z"/><path class="cls-24" d="M1220.24 559.29h41.29v-18.58S1247 558 1220.24 559.29z"/><path class="cls-3" d="M1302.67 559.29h-41.29v-18.58s14.62 17.29 41.29 18.58z"/><path class="cls-9" d="M1240.16 597.76h42.85v21.58h-42.85z"/><path class="cls-5" d="M1217.7 597.76h22.81v21.58h-22.81z"/><path class="cls-15" d="M1283.01 597.76h22.81v21.58h-22.81z"/><path class="cls-34" d="M1217.7 577.94h88.12v19.82h-88.12z"/><path class="cls-15" d="M1331.78 581.86l-26 16v-19.92s8.49 10.4 26 3.92z"/><path class="cls-5" d="M1191.74 581.86l26 16v-19.92s-8.49 10.4-26 3.92z"/><path class="cls-7" d="M1186.47 623.16l27.77 17.12V619s-9.03 11.09-27.77 4.16z"/><path class="cls-34" d="M1238.28 639.94h45.84v23.09h-45.84z"/><path class="cls-15" d="M1214.24 639.94h24.4v23.09h-24.4z"/><path class="cls-5" d="M1284.12 639.94h24.4v23.09h-24.4z"/><path class="cls-14" d="M1214.24 618.73h94.28v21.21h-94.28z"/><path class="cls-8" d="M1336.3 622.92L1308.52 640v-21.27s9.04 11.13 27.78 4.19zm-100.25 62.72h49.2v24.78h-49.2z"/><path class="cls-14" d="M1210.25 685.64h26.19v24.78h-26.19z"/><path class="cls-7" d="M1285.24 685.64h26.19v24.78h-26.19z"/><path class="cls-12" d="M1210.25 662.88h101.18v22.76h-101.18z"/><path class="cls-16" d="M1341.25 667.37l-29.82 18.38v-22.87s9.7 11.94 29.82 4.49z"/><path class="cls-13" d="M1180.44 667.37l29.81 18.38v-22.87s-9.7 11.94-29.81 4.49z"/><path class="cls-14" d="M1196.06 815.22h127.78v28.74h-127.78z"/><path class="cls-13" d="M1361.49 820.89l-37.65 23.21v-28.88s12.25 15.07 37.65 5.67z"/><path class="cls-16" d="M1158.41 820.89l37.65 23.21v-28.88s-12.25 15.07-37.65 5.67z"/><path class="cls-14" d="M1218.13 598.31h44.06v-19.82s-15.54 18.45-44.06 19.82z"/><path class="cls-7" d="M1306.09 598.31H1262v-19.82s15.58 18.44 44.09 19.82z"/><path class="cls-12" d="M1214.71 640.23h47.14V619s-16.64 19.76-47.14 21.23z"/><path class="cls-13" d="M1308.81 640.23h-47.14V619s16.64 19.75 47.14 21.23z"/><path class="cls-34" d="M1231.49 786.53h57.62v29.02h-57.62z"/><path class="cls-5" d="M1201.28 786.53h30.68v29.02h-30.68z"/><path class="cls-15" d="M1289.12 786.53h30.68v29.02h-30.68z"/><path class="cls-9" d="M1201.28 759.87h118.51v26.66h-118.51z"/><path class="cls-5" d="M1354.71 765.14l-34.92 21.52v-26.79s11.36 13.98 34.92 5.27z"/><path class="cls-6" d="M1166.36 765.14l34.92 21.52v-26.79s-11.36 13.98-34.92 5.27z"/><path class="cls-12" d="M1201.86 786.9h59.26v-26.67s-20.91 24.77-59.26 26.67z"/><path class="cls-13" d="M1320.16 786.89h-59.26v-26.66s20.91 24.77 59.26 26.66z"/><path class="cls-24" d="M1210.75 685.64h50.59v-22.76s-17.85 21.18-50.59 22.76z"/><path class="cls-3" d="M1311.75 685.64h-50.59v-22.76s17.84 21.18 50.59 22.76z"/><path class="cls-24" d="M1196.69 844.44h63.89v-28.75s-22.58 26.75-63.89 28.75z"/><path class="cls-3" d="M1324.23 844.43h-63.89v-28.74s22.55 26.75 63.89 28.74z"/><path class="cls-12" d="M1234.33 733.65h51.99v26.18h-51.99z"/><path class="cls-13" d="M1207.07 733.65h27.68v26.18h-27.68z"/><path class="cls-16" d="M1286.32 733.65H1314v26.18h-27.68z"/><path class="cls-34" d="M1207.07 709.6H1314v24.05h-106.93z"/><path class="cls-4" d="M1345.51 714.35L1314 733.77V709.6s10.25 12.61 31.51 4.75z"/><path class="cls-14" d="M1175.57 714.35l31.5 19.42V709.6s-10.25 12.61-31.5 4.75z"/><path class="cls-7" d="M1207.6 733.65h53.46v-24s-18.86 22.35-53.46 24z"/><path class="cls-14" d="M1314.33 733.65h-53.46v-24.06s18.86 22.41 53.46 24.06z"/><circle class="cls-9" cx="1261.12" cy="507.64" r="3.95"/><path d="M921.73 243.74V226h5.43a8.83 8.83 0 0 1 6.53 2.46 9.59 9.59 0 0 1 0 12.85 8.86 8.86 0 0 1-6.53 2.45zm2.27-15.58v13.4h3.15a6.71 6.71 0 1 0 0-13.4zm19.55 15.97a5.81 5.81 0 0 1-4.41-1.83 6.47 6.47 0 0 1-1.74-4.64 6.56 6.56 0 0 1 1.69-4.62 6 6 0 0 1 8.61-.1 7 7 0 0 1 1.6 4.9v.24h-9.55a4 4 0 0 0 1.19 2.88 3.85 3.85 0 0 0 6.15-1.09l2 1a6.13 6.13 0 0 1-2.27 2.41 6.29 6.29 0 0 1-3.27.85zm-3.65-7.93h7a3 3 0 0 0-1-2.1 3.62 3.62 0 0 0-2.49-.83 3.31 3.31 0 0 0-2.22.8 3.77 3.77 0 0 0-1.29 2.13zm17.1 7.54h-2.28l-4.91-12.15h2.48l3.61 9.41h.1l3.62-9.42H962zm11.58.39a5.83 5.83 0 0 1-4.42-1.83 6.47 6.47 0 0 1-1.74-4.64 6.61 6.61 0 0 1 1.69-4.62 6.06 6.06 0 0 1 8.62-.1 7 7 0 0 1 1.6 4.9v.24h-9.54A4 4 0 0 0 966 241a3.85 3.85 0 0 0 6.15-1.09l2 1a6 6 0 0 1-2.27 2.41 6.25 6.25 0 0 1-3.3.81zm-3.65-7.93h7a3.07 3.07 0 0 0-1-2.1 3.62 3.62 0 0 0-2.49-.83 3.31 3.31 0 0 0-2.22.8 3.77 3.77 0 0 0-1.29 2.13zm13.76-10.2v17.76h-2.28V226zm1.96 11.66a6.46 6.46 0 0 1 1.76-4.64 6 6 0 0 1 4.49-1.83 5.94 5.94 0 0 1 4.47 1.83 6.39 6.39 0 0 1 1.78 4.64 6.33 6.33 0 0 1-1.78 4.64 5.94 5.94 0 0 1-4.47 1.83 6 6 0 0 1-4.49-1.83 6.44 6.44 0 0 1-1.76-4.64zm2.29 0a4.46 4.46 0 0 0 1.14 3.18 3.9 3.9 0 0 0 5.65 0 5 5 0 0 0 0-6.33 3.84 3.84 0 0 0-5.65 0 4.42 4.42 0 0 0-1.14 3.15zm18.5 6.47a5.29 5.29 0 0 1-2.45-.57 4.22 4.22 0 0 1-1.69-1.51h-.1l.1 1.69v5.36H995v-17.51h2.19v1.68h.1a4.22 4.22 0 0 1 1.69-1.51 5.41 5.41 0 0 1 6.52 1.31 6.67 6.67 0 0 1 1.71 4.59 6.6 6.6 0 0 1-1.71 4.59 5.22 5.22 0 0 1-4.06 1.88zm-.37-2.08a3.55 3.55 0 0 0 2.75-1.24 4.49 4.49 0 0 0 1.11-3.15 4.56 4.56 0 0 0-1.11-3.15 3.7 3.7 0 0 0-5.53 0 5.14 5.14 0 0 0 0 6.33 3.61 3.61 0 0 0 2.78 1.21zm13.69 2.08a5.83 5.83 0 0 1-4.42-1.83 6.46 6.46 0 0 1-1.73-4.64 6.6 6.6 0 0 1 1.68-4.62 6.06 6.06 0 0 1 8.62-.1 7 7 0 0 1 1.6 4.9v.24h-9.55a4 4 0 0 0 1.19 2.88 3.85 3.85 0 0 0 6.15-1.09l2 1a6 6 0 0 1-2.27 2.41 6.23 6.23 0 0 1-3.27.85zm-3.65-7.93h7a3.07 3.07 0 0 0-1-2.1 3.62 3.62 0 0 0-2.49-.83 3.31 3.31 0 0 0-2.22.8 3.77 3.77 0 0 0-1.29 2.13zm13.77 7.54h-2.29v-12.15h2.19v2h.1a3.23 3.23 0 0 1 1.42-1.65 4 4 0 0 1 2.12-.68 4.26 4.26 0 0 1 1.69.3l-.7 2.2a3.9 3.9 0 0 0-1.34-.17 3 3 0 0 0-2.24 1 3.48 3.48 0 0 0-.95 2.43zm10.9 0V226h5.43a8.83 8.83 0 0 1 6.53 2.46 9.59 9.59 0 0 1 0 12.85 8.86 8.86 0 0 1-6.53 2.45zm2.28-15.58v13.4h3.15a6.71 6.71 0 1 0 0-13.4zm19.07 3.03a5.64 5.64 0 0 1 4 1.35 4.79 4.79 0 0 1 1.47 3.71v7.49h-2.19v-1.69h-.1a4.33 4.33 0 0 1-3.77 2.08 4.88 4.88 0 0 1-3.36-1.19 3.79 3.79 0 0 1-1.35-3 3.61 3.61 0 0 1 1.43-3 6 6 0 0 1 3.81-1.12 6.66 6.66 0 0 1 3.34.75v-.53a2.6 2.6 0 0 0-.94-2 3.25 3.25 0 0 0-2.21-.83 3.49 3.49 0 0 0-3 1.61l-2-1.26a5.59 5.59 0 0 1 4.87-2.37zm-3 8.83a1.84 1.84 0 0 0 .75 1.49 2.85 2.85 0 0 0 1.78.59 3.62 3.62 0 0 0 2.57-1.07 3.33 3.33 0 0 0 1.12-2.5 4.69 4.69 0 0 0-3-.84 3.84 3.84 0 0 0-2.32.67 2 2 0 0 0-.85 1.64zm21.65-8.43l-7.61 17.51h-2.36l2.83-6.13-5-11.38h2.48l3.62 8.73 3.52-8.73zm10.54 8.78a3.27 3.27 0 0 1-1.39 2.67 5.45 5.45 0 0 1-3.49 1.09 5.54 5.54 0 0 1-3.23-.95 5.22 5.22 0 0 1-2-2.52l2-.87a3.75 3.75 0 0 0 1.3 1.7 3.15 3.15 0 0 0 1.88.61 3.35 3.35 0 0 0 1.82-.47 1.33 1.33 0 0 0 .73-1.12c0-.77-.6-1.34-1.79-1.71l-2.08-.52c-2.36-.59-3.55-1.73-3.55-3.42a3.15 3.15 0 0 1 1.36-2.67 6.2 6.2 0 0 1 6.37-.23 4.12 4.12 0 0 1 1.82 2.06l-2 .84a2.57 2.57 0 0 0-1.13-1.2 3.53 3.53 0 0 0-1.75-.44 2.93 2.93 0 0 0-1.6.45 1.28 1.28 0 0 0-.7 1.09c0 .69.65 1.19 1.95 1.49l1.84.47q3.63.89 3.64 3.65zm-242.19 3.84a9.43 9.43 0 0 0 7.18-2.89 9.29 9.29 0 0 0 2.44-6.58 9.17 9.17 0 0 0-.15-1.76h-9.47v2.81h6.73a5.94 5.94 0 0 1-1.53 3.55 6.93 6.93 0 0 1-5.2 2.06 7.49 7.49 0 0 1 0-15 7.17 7.17 0 0 1 5.07 2l2-2a9.82 9.82 0 0 0-7.06-2.84 10.3 10.3 0 1 0 0 20.6zm17.27-13.27a6.64 6.64 0 1 0 6.66 6.63 6.54 6.54 0 0 0-6.66-6.63zm0 10.66a4 4 0 1 1 3.74-4 3.84 3.84 0 0 1-3.74 4zm14.52-10.66a6.64 6.64 0 1 0 6.66 6.63 6.54 6.54 0 0 0-6.66-6.63zm0 10.66a4 4 0 1 1 3.75-4 3.84 3.84 0 0 1-3.75 4zm17.83-10.25v1.08h-.1a4.61 4.61 0 0 0-3.49-1.49 6.64 6.64 0 0 0 0 13.27 4.55 4.55 0 0 0 3.49-1.51h.1v1c0 2.54-1.36 3.9-3.54 3.9a3.66 3.66 0 0 1-3.34-2.36l-2.54 1.05a6.32 6.32 0 0 0 5.88 3.92c3.41 0 6.3-2 6.3-6.91v-11.9zm-3.34 10.25a4 4 0 0 1 0-8c2 0 3.54 1.71 3.54 4a3.71 3.71 0 0 1-3.54 4zm11-17.29h-2.91v19.5h2.91zm8 17.29a3.36 3.36 0 0 1-3.21-2l8.87-3.67-.31-.75a6.14 6.14 0 0 0-5.66-4.18 6.3 6.3 0 0 0-6.26 6.63 6.5 6.5 0 0 0 6.58 6.63 6.61 6.61 0 0 0 5.53-2.94l-2.26-1.51a3.8 3.8 0 0 1-3.27 1.79zm-.23-8.09a2.57 2.57 0 0 1 2.47 1.4l-5.93 2.46a3.62 3.62 0 0 1 3.47-3.86z" fill="#636363"/><text transform="translate(923.17 272.42)" font-size="14.16" font-family="ProductSans-Regular,Product Sans" letter-spacing=".03em" fill="#636363">C<tspan x="10.75" y="0" letter-spacing=".04em">hi</tspan><tspan x="22.67" y="0">n</tspan><tspan x="30.83" y="0" letter-spacing=".04em">a 2</tspan><tspan x="50.23" y="0">0</tspan><tspan x="59.69" y="0" letter-spacing=".04em">17</tspan></text><path class="cls-9" d="M941.75 184.48L955.79 160h-15.91l-6.08 10.6 7.95 13.88z"/><path class="cls-13" d="M927.16 182.19a4.62 4.62 0 0 0 0 4.58L939.88 209h15.91l-22-38.36z"/><path fill="#ffa700" d="M978.25 184.48l-14.04 24.48h15.91l6.08-10.6-7.95-13.88z"/><path class="cls-7" d="M992.84 186.77a4.62 4.62 0 0 0 0-4.58L980.12 160h-15.91l22 38.36z"/></g></g></svg>