<svg xmlns="http://www.w3.org/2000/svg" xmlns:xlink="http://www.w3.org/1999/xlink" viewBox="0 0 1920 1365.01"><defs><style>.cls-1{fill:none;}.cls-2{clip-path:url(#clip-path);}.cls-3{fill:#f2f2f2;}.cls-4{fill:#fff;}</style><clipPath id="clip-path"><rect class="cls-1" y="282.5" width="1920" height="800"/></clipPath></defs><title>HTML5-ID-bg</title><g id="Layer_2" data-name="Layer 2"><g id="Layer_1-2" data-name="Layer 1"><g class="cls-2"><rect class="cls-3" width="1920" height="1365.01"/><polygon class="cls-4" points="1920 569.78 1170.9 631.95 1920 384.81 1920 368.9 1158.67 590.66 1920 156.66 1920 142.81 1138.79 552.61 1760.58 11.63 1738.12 11.63 1112.05 519.25 1504.92 11.63 1478.3 11.63 1079.46 491.88 1319.93 11.63 1292.54 11.63 1042.29 471.54 1170.16 11.63 1142.83 11.63 1001.95 459.02 1037.39 11.63 1010.21 11.63 960 454.79 909.79 11.63 882.61 11.63 918.05 459.02 777.17 11.63 749.85 11.63 877.71 471.54 627.46 11.63 600.07 11.63 840.54 491.88 441.7 11.63 415.08 11.63 807.95 519.25 181.88 11.63 159.42 11.63 781.21 552.61 0 142.81 0 156.66 761.34 590.66 0 368.9 0 384.81 749.1 631.95 0 569.78 0 586.45 744.97 674.88 0 763.31 0 779.98 749.1 717.81 0 964.95 0 980.86 761.34 759.11 0 1193.1 0 1206.95 781.21 797.16 159.42 1338.13 181.88 1338.13 807.95 830.51 415.08 1338.13 441.7 1338.13 840.54 857.88 600.07 1338.13 627.46 1338.13 877.71 878.22 749.85 1338.13 777.16 1338.13 918.05 890.74 882.61 1338.13 909.79 1338.13 960 894.97 1010.21 1338.13 1037.39 1338.13 1001.95 890.74 1142.83 1338.13 1170.16 1338.13 1042.29 878.22 1292.54 1338.13 1319.93 1338.13 1079.46 857.88 1478.3 1338.13 1504.92 1338.13 1112.05 830.51 1738.12 1338.13 1760.58 1338.13 1138.79 797.16 1920 1206.95 1920 1193.1 1158.67 759.11 1920 980.86 1920 964.94 1170.9 717.81 1920 779.98 1920 763.31 1175.03 674.88 1920 586.45 1920 569.78"/></g></g></g></svg>