<svg xmlns="http://www.w3.org/2000/svg" viewBox="0 0 290.39 409.6"><defs><style>.cls-1{fill:#e34f26;}.cls-2{fill:#ee652a;}.cls-3{fill:#fff;}.cls-4{fill:#ebebeb;}.cls-5{fill:none;}</style></defs><title>HTML5-ID</title><g id="Layer_2" data-name="Layer 2"><g id="Layer_1-2" data-name="Layer 1"><path d="M26.64.55H45.12V18.81H62V.55H80.52v55.3H62V37.33H45.12V55.85H26.64Z"/><path d="M104.83,18.89H88.55V.55h51V18.89H123.31v37H104.83Z"/><path d="M147.69.55H167L178.82,20,190.66.55H210v55.3H191.54V28.44L178.82,48.11h-.32L165.78,28.44V55.85H147.69Z"/><path d="M219.14.55h18.5v37h26V55.85H219.14Z"/><polygon class="cls-1" points="26.44 376.66 0 80.1 290.38 80.1 263.92 376.68 145.12 409.6 26.44 376.66"/><polygon class="cls-1" points="26.44 376.66 0 80.1 290.38 80.1 263.92 376.68 145.12 409.6 26.44 376.66"/><polygon class="cls-2" points="145.19 104.35 145.19 384.43 241.25 357.79 263.88 104.35 145.19 104.35"/><polygon class="cls-3" points="54.09 140.73 63.91 250.72 189.96 250.72 185.74 297.89 145.14 308.85 104.64 297.91 101.93 267.61 65.42 267.61 70.63 326.01 145.13 346.7 219.74 326.01 229.72 214.34 97.17 214.34 93.85 177.1 232.92 177.1 233.03 177.1 236.29 140.73 54.09 140.73"/><polygon class="cls-4" points="145.19 140.73 54.09 140.73 63.91 250.72 145.19 250.72 145.19 214.34 97.17 214.34 93.85 177.1 145.19 177.1 145.19 140.73"/><polygon class="cls-4" points="145.19 308.84 145.14 308.85 104.64 297.91 101.93 267.61 65.42 267.61 70.63 326.01 145.13 346.7 145.19 346.68 145.19 308.84"/><rect class="cls-5" width="290.39" height="80.1"/></g></g></svg>