<svg width="1124" height="173" viewBox="0 0 1124 173" fill="none" xmlns="http://www.w3.org/2000/svg">
<path d="M85.3301 0C28.6611 0 -0.00012207 39.4172 -0.00012207 86.0309C-0.00012207 132.645 28.6611 172.062 85.3301 172.062C141.999 172.062 170.66 132.645 170.66 86.0309C170.66 39.4172 141.999 0 85.3301 0ZM85.3301 138.663C52.7471 138.663 36.2431 112.821 36.2431 86.0309C36.2431 59.2403 52.7144 33.3654 85.3301 33.3654C117.946 33.3654 134.417 59.2076 134.417 86.0309C134.417 112.854 117.946 138.663 85.3301 138.663Z" fill="#353535"/>
<path d="M857.159 0C800.49 0 771.829 39.4172 771.829 86.0309C771.829 132.645 800.49 172.062 857.159 172.062C913.828 172.062 942.489 132.645 942.489 86.0309C942.489 39.4172 913.828 0 857.159 0ZM857.159 138.663C824.576 138.663 808.072 112.821 808.072 86.0309C808.072 59.2403 824.543 33.3654 857.159 33.3654C889.775 33.3654 906.246 59.2076 906.246 86.0309C906.246 112.854 889.775 138.663 857.159 138.663Z" fill="#353535"/>
<path d="M296.875 138.663C264.292 138.663 242.297 112.821 242.297 86.0309C242.297 59.2403 258.768 33.3654 291.384 33.3654C312.431 33.3654 328.706 43.8332 337.105 57.2449L340.569 54.6606V13.4443C328.314 6.64036 309.228 0 291.384 0C234.715 0 206.054 39.4172 206.054 86.0309C206.054 132.645 240.173 172.062 296.842 172.062C314.653 172.062 334.915 166.206 346.615 159.108V116.583L343.249 114.065C335.144 126.887 316.581 138.696 296.842 138.696L296.875 138.663Z" fill="#353535"/>
<path d="M665.616 0C639.569 0 619.993 1.63557 600.94 1.63557H595.482C595.482 1.63557 596.005 22.4399 596.005 85.9981C596.005 149.556 595.482 170.361 595.482 170.361H631.725C631.725 170.361 631.464 160.318 631.3 133.004C637.706 133.757 646.432 134.378 657.576 134.378C706.5 134.378 736.828 111.349 736.828 66.2078C736.828 29.2112 711.859 0 665.648 0H665.616ZM658.785 102.092C648.425 102.092 638.589 101.34 631.17 100.555C631.17 95.9752 631.17 91.1666 631.17 86.0309C631.17 63.9507 631.235 47.0388 631.333 34.3795C636.824 33.071 644.667 31.8281 654.798 31.8281C691.793 31.8281 701.663 45.2397 701.663 66.9601C701.663 85.1476 689.963 102.125 658.818 102.125L658.785 102.092Z" fill="#353535"/>
<path d="M1052.79 0C1026.74 0 1007.17 1.63557 988.112 1.63557H982.654C982.654 1.63557 983.177 22.4399 983.177 85.9981C983.177 149.556 982.654 170.361 982.654 170.361H1018.9C1018.9 170.361 1018.64 160.318 1018.47 133.004C1024.88 133.757 1033.6 134.378 1044.75 134.378C1093.67 134.378 1124 111.349 1124 66.2078C1124 29.2112 1099.03 0 1052.82 0H1052.79ZM1045.96 102.092C1035.6 102.092 1025.76 101.34 1018.34 100.555C1018.34 95.9752 1018.34 91.1666 1018.34 86.0309C1018.34 63.9507 1018.41 47.0388 1018.51 34.3795C1024 33.071 1031.84 31.8281 1041.97 31.8281C1078.97 31.8281 1088.84 45.2397 1088.84 66.9601C1088.84 85.1476 1077.14 102.125 1045.99 102.125L1045.96 102.092Z" fill="#353535"/>
<path d="M544.237 1.63477H507.994C507.994 1.63477 508.517 22.4391 508.517 85.9973C508.517 119.886 495.935 138.663 467.927 138.663C439.919 138.663 427.337 119.886 427.337 85.9973C427.337 22.4391 427.86 1.63477 427.86 1.63477H391.617C391.617 1.63477 391.878 22.4391 391.878 85.9973C391.878 132.611 411.225 172.028 467.894 172.028C524.563 172.028 543.91 132.611 543.91 85.9973C543.91 22.4391 544.172 1.63477 544.172 1.63477H544.237Z" fill="#353535"/>
</svg>
