<svg width="1700" height="317" viewBox="0 0 1700 317" fill="none" xmlns="http://www.w3.org/2000/svg">
<g clip-path="url(#clip0_1018_2)">
<g opacity="0.6">
<path d="M260.82 61.8701C233.9 32.2701 195.39 16.6201 149.47 16.6201C106.02 16.6201 69.22 30.6301 42.58 57.2101C41.06 58.7201 39.57 60.2701 38.12 61.8701C13.86 88.5401 0.5 125.7 0.5 166.49C0.5 207.28 13.86 244.43 38.12 271.1C65.04 300.7 103.55 316.35 149.47 316.35C189.92 316.35 224.61 304.21 250.7 281.09C254.23 277.96 257.61 274.63 260.82 271.1C285.07 244.43 298.43 207.28 298.43 166.49C298.43 125.7 285.07 88.5501 260.82 61.8801V61.8701ZM112.76 132.72C121.98 120.1 136.39 115.05 149.46 115.05C183.65 115.05 195.78 142.76 195.78 166.49C195.78 180.5 191.54 195.9 181.03 206.16C173.75 213.27 163.45 217.92 149.46 217.92C115.27 217.92 103.14 190.22 103.14 166.5C103.14 151.77 106.91 140.73 112.75 132.73L112.76 132.72Z" fill="#7A7A7A" stroke="#7A7A7A" stroke-miterlimit="10"/>
<path d="M525.6 170.93L511.15 193.81C503.67 205.65 484.31 217.91 464.87 217.91C438.77 217.91 410.6 198.25 410.6 166.49C410.6 149.1 415.84 136.86 423.57 128.69C432.71 119.02 445.34 115.05 456.92 115.05C476.26 115.05 493.17 123.62 502.14 137.97L516.56 161.03L553.37 133.45V46.4001L540.49 39.2601C520.73 28.3101 488.4 16.6101 456.92 16.6101C413.76 16.6101 376.85 30.1901 350.31 57.1401C349.08 58.2501 346.68 60.6201 345.56 61.8601C321.31 88.5301 307.95 125.68 307.95 166.47C307.95 207.26 323 244.5 350.33 271.92C379.3 300.99 418.91 316.35 464.87 316.35C493.76 316.35 528.03 307.33 550.14 293.9L562.17 286.6V198.29L525.6 170.93Z" fill="#7A7A7A" stroke="#7A7A7A" stroke-miterlimit="10"/>
<path d="M745.97 19L746.64 44.65C746.64 44.95 747.42 75.59 747.42 166.47C747.42 189.41 743.19 202.11 737.37 209.15C730.15 217.89 720.48 217.9 713.44 217.9C700.73 217.9 679.46 217.9 679.46 166.47C679.46 75.82 680.23 44.95 680.24 44.65L680.91 19H577.28L577.61 44.32C577.61 44.62 578 75.55 578 166.47C578 209.09 587.91 243.73 607.46 269.42C623.75 290.83 655.37 316.35 713.47 316.35C761.25 316.35 791.11 299.08 809.28 281.04C813.2 277.15 816.58 273.22 819.48 269.42C839.03 243.73 848.94 209.09 848.94 166.46C848.91 75.55 849.29 44.62 849.3 44.32L849.63 19H746H745.97Z" fill="#7A7A7A" stroke="#7A7A7A" stroke-linejoin="round"/>
<path d="M1091.13 51.8001C1067.93 28.8001 1035.26 16.6401 996.64 16.6401C975.76 16.6401 957.45 17.3501 941.31 17.9801C927.75 18.5101 914.94 19.0001 902.66 19.0001H869.06L869.73 44.6501C869.73 44.9501 870.51 75.5901 870.51 166.47C870.51 257.35 869.74 288.01 869.73 288.31L869.06 313.96H973.02L972.36 288.32C972.36 288.22 972.16 280.47 971.97 261.51C976.2 261.64 980.52 261.71 984.92 261.71C1026.94 261.71 1060.66 251.39 1085.14 231.03C1111.26 209.31 1125.06 177.05 1125.06 137.73C1125.06 104.01 1113.01 73.4901 1091.13 51.8001ZM971.58 164.45C971.58 146.42 971.62 129.21 971.68 113.05C974.53 112.87 977.6 112.76 980.88 112.76C1006.09 112.76 1015.47 117.57 1018.82 120.43C1020.22 121.63 1023.95 124.82 1023.95 138.78C1023.95 142.28 1023.94 149.66 1017.97 155.67C1012.95 160.73 1003.73 164.82 986.72 164.82C981.51 164.82 976.39 164.67 971.57 164.44L971.58 164.45Z" fill="#7A7A7A" stroke="#7A7A7A" stroke-linejoin="round"/>
<path d="M1396.49 61.8701C1369.57 32.2701 1331.06 16.6201 1285.14 16.6201C1241.69 16.6201 1204.89 30.6301 1178.25 57.2101C1176.73 58.7201 1175.24 60.2701 1173.79 61.8701C1149.54 88.5401 1136.18 125.69 1136.18 166.48C1136.18 207.27 1149.54 244.42 1173.8 271.09C1200.72 300.69 1239.23 316.34 1285.15 316.34C1325.6 316.34 1360.29 304.2 1386.38 281.08C1389.91 277.95 1393.29 274.62 1396.5 271.09C1420.75 244.42 1434.11 207.27 1434.11 166.48C1434.11 125.69 1420.75 88.5401 1396.5 61.8701H1396.49ZM1248.43 132.72C1257.65 120.1 1272.06 115.05 1285.13 115.05C1319.32 115.05 1331.45 142.76 1331.45 166.49C1331.45 180.5 1327.21 195.9 1316.7 206.16C1309.42 213.27 1299.12 217.92 1285.13 217.92C1250.94 217.92 1238.81 190.22 1238.81 166.5C1238.81 151.77 1242.58 140.73 1248.42 132.73L1248.43 132.72Z" fill="#7A7A7A" stroke="#7A7A7A" stroke-miterlimit="10"/>
<path d="M1665.52 51.8001C1642.32 28.8001 1609.65 16.6401 1571.03 16.6401C1550.15 16.6401 1531.84 17.3501 1515.7 17.9801C1502.14 18.5101 1489.33 19.0001 1477.05 19.0001H1443.45L1444.12 44.6501C1444.12 44.9501 1444.9 75.5901 1444.9 166.47C1444.9 257.35 1444.13 288.01 1444.12 288.31L1443.45 313.96H1547.41L1546.75 288.32C1546.75 288.22 1546.55 280.47 1546.36 261.51C1550.59 261.64 1554.91 261.71 1559.31 261.71C1601.33 261.71 1635.05 251.39 1659.53 231.03C1685.65 209.31 1699.45 177.05 1699.45 137.73C1699.45 104.01 1687.4 73.4901 1665.52 51.8001ZM1545.97 164.45C1545.97 146.42 1546.01 129.21 1546.07 113.05C1548.92 112.87 1551.99 112.76 1555.27 112.76C1580.48 112.76 1589.86 117.57 1593.21 120.43C1594.61 121.63 1598.34 124.82 1598.34 138.78C1598.34 142.28 1598.33 149.66 1592.36 155.67C1587.34 160.73 1578.12 164.82 1561.11 164.82C1555.9 164.82 1550.78 164.67 1545.96 164.44L1545.97 164.45Z" fill="#7A7A7A" stroke="#7A7A7A" stroke-linejoin="round"/>
</g>
<path d="M149.46 25.52C67.12 25.52 25.5 82.75 25.5 150.38C25.5 218.01 67.14 275.24 149.46 275.24C231.78 275.24 273.42 218.01 273.42 150.38C273.42 82.75 231.8 25.52 149.46 25.52ZM149.46 226.81C102.1 226.81 78.14 189.29 78.14 150.38C78.14 111.47 102.1 73.94 149.46 73.94C196.82 73.94 220.78 111.46 220.78 150.38C220.78 189.3 196.84 226.81 149.46 226.81Z" fill="#1F2528" stroke="#1F2528" stroke-linejoin="round"/>
<path d="M260.82 45.77C233.9 16.16 195.39 0.52002 149.46 0.52002C106.01 0.52002 69.2099 14.53 42.5699 41.11L59.6099 59.43C80.2599 38.51 110.24 25.51 149.47 25.51C231.81 25.51 273.43 82.74 273.43 150.37C273.43 188.61 260.12 223.52 233.66 246.65L250.69 264.97C254.22 261.84 257.6 258.51 260.81 254.98C285.06 228.31 298.42 191.16 298.42 150.37C298.42 109.58 285.06 72.43 260.81 45.76L260.82 45.77Z" fill="white" stroke="#1F2528" stroke-linejoin="round"/>
<path d="M149.46 275.24C67.14 275.24 25.5 218.01 25.5 150.38C25.5 114.97 36.92 82.4201 59.61 59.4301L42.57 41.1101C41.05 42.6201 39.56 44.1701 38.11 45.7701C13.86 72.4401 0.5 109.59 0.5 150.38C0.5 191.17 13.86 228.32 38.12 254.99C65.04 284.59 103.55 300.24 149.47 300.24C189.92 300.24 224.61 288.1 250.7 264.98L233.67 246.66C213.34 264.43 185.25 275.24 149.47 275.24H149.46Z" fill="#D6D6D6" stroke="#1F2528" stroke-linejoin="round"/>
<path d="M181.03 190.05C173.75 197.16 163.45 201.81 149.46 201.81C115.27 201.81 103.14 174.11 103.14 150.39C103.14 135.66 106.91 124.62 112.75 116.62L95.58 98.1499C83.98 112.33 78.14 131.19 78.14 150.39C78.14 189.3 102.1 226.82 149.46 226.82C170.14 226.82 186.35 219.67 198.06 208.38L181.03 190.06V190.05Z" fill="white" stroke="#1F2528" stroke-linejoin="round"/>
<path d="M149.46 98.9399C183.65 98.9399 195.78 126.65 195.78 150.38C195.78 164.39 191.54 179.79 181.03 190.05L198.06 208.37C213.17 193.8 220.78 172.32 220.78 150.38C220.78 111.46 196.82 73.9399 149.46 73.9399C125.47 73.9399 107.5 83.5799 95.59 98.1399L112.76 116.61C121.98 103.99 136.39 98.9399 149.46 98.9399Z" fill="#D6D6D6" stroke="#1F2528" stroke-miterlimit="10"/>
<path d="M464.87 226.81C417.51 226.81 385.6 189.29 385.6 150.38C385.6 111.47 409.56 73.94 456.92 73.94C487.49 73.94 511.16 89.12 523.34 108.61L528.37 104.84V45.02C510.55 35.15 482.81 25.5 456.92 25.5C374.58 25.5 332.96 82.73 332.96 150.36C332.96 217.99 382.56 275.24 464.88 275.24C490.79 275.24 520.21 266.72 537.18 256.42V194.7L532.3 191.05C520.54 209.67 493.56 226.8 464.88 226.8L464.87 226.81Z" fill="#1F2528" stroke="#1F2528" stroke-miterlimit="10"/>
<path d="M350.3 41.03L367.86 58.59C388.48 38.15 418.19 25.49 456.91 25.49C482.8 25.49 510.54 35.14 528.36 45.01L553.36 30.28L540.48 23.14C520.72 12.19 488.39 0.48999 456.91 0.48999C413.75 0.48999 376.84 14.07 350.3 41.02V41.03Z" fill="white" stroke="#1F2528" stroke-linejoin="round"/>
<path d="M350.3 41.03C349.07 42.14 346.67 44.51 345.55 45.75C321.3 72.42 307.94 109.57 307.94 150.36C307.94 191.15 322.99 228.39 350.32 255.81C379.29 284.88 418.9 300.24 464.86 300.24C493.75 300.24 528.02 291.22 550.13 277.79L562.16 270.49L537.16 256.42C520.19 266.72 490.77 275.24 464.86 275.24C382.54 275.24 332.94 217.99 332.94 150.36C332.94 114.53 344.63 81.62 367.86 58.59L350.3 41.03Z" fill="#D6D6D6" stroke="#1F2528" stroke-linejoin="round"/>
<path d="M553.36 117.35V30.29L528.36 45.02V104.84L553.36 117.35Z" fill="white" stroke="#353535" stroke-linejoin="round"/>
<path d="M516.55 144.92L553.36 117.35L528.36 104.84L523.33 108.61L516.55 144.92Z" fill="white" stroke="#353535" stroke-linejoin="round"/>
<path d="M532.29 191.06L537.17 194.71L562.17 182.19L525.6 154.83L532.29 191.06L525.6 154.83Z" fill="white"/>
<path d="M532.29 191.06L537.17 194.71L562.17 182.19L525.6 154.83L532.29 191.06ZM532.29 191.06L525.6 154.83" stroke="#353535" stroke-linejoin="round"/>
<path d="M537.17 194.71V256.43L562.17 270.5V182.19L537.17 194.71Z" fill="white" stroke="#353535" stroke-linejoin="round"/>
<path d="M525.6 154.83L511.15 177.71C503.67 189.55 484.31 201.81 464.87 201.81C438.77 201.81 410.6 182.15 410.6 150.39C410.6 133 415.84 120.76 423.57 112.59L406.17 94.5901C392.49 109.09 385.6 129.54 385.6 150.39C385.6 189.3 417.52 226.82 464.87 226.82C493.54 226.82 520.53 209.69 532.29 191.07L525.6 154.84V154.83Z" fill="white" stroke="#1F2528" stroke-linejoin="round"/>
<path d="M456.91 98.9399C476.25 98.9399 493.16 107.51 502.13 121.86L516.55 144.92L523.33 108.6C511.15 89.1099 487.48 73.9299 456.91 73.9299C434.93 73.9299 418.01 82.0199 406.16 94.5699L423.56 112.57C432.7 102.9 445.33 98.9299 456.91 98.9299V98.9399Z" fill="#D6D6D6" stroke="#1F2528" stroke-miterlimit="10"/>
<path d="M824.28 27.8899H771.63C771.63 27.8899 772.42 58.0999 772.42 150.36C772.42 199.55 754.16 226.79 713.43 226.79C672.7 226.79 654.44 199.56 654.44 150.36C654.44 58.0799 655.23 27.8899 655.23 27.8899H602.58C602.58 27.8899 602.97 58.0999 602.97 150.36C602.97 218.01 631.1 275.24 713.44 275.24C795.78 275.24 823.91 218.01 823.91 150.36C823.88 58.0999 824.27 27.8899 824.27 27.8899H824.28Z" fill="#1F2528" stroke="#353535" stroke-linejoin="round"/>
<path d="M654.45 150.36C654.45 199.55 672.71 226.79 713.43 226.79C731.73 226.79 745.47 221.28 755.08 210.76L737.36 193.04C730.14 201.78 720.47 201.79 713.43 201.79C700.72 201.79 679.45 201.79 679.45 150.36C679.45 59.7099 680.22 28.8399 680.23 28.5399L680.9 2.88989L655.24 27.8899C655.24 27.8899 654.45 58.0899 654.45 150.36Z" fill="white" stroke="#353535" stroke-linejoin="round"/>
<path d="M791.6 247.27C774.17 264.68 748.81 275.24 713.45 275.24C631.11 275.24 602.98 218.01 602.98 150.36C602.98 58.0999 602.59 27.8899 602.59 27.8899L577.26 2.88989L577.59 28.2099C577.59 28.5099 577.98 59.4399 577.98 150.36C577.98 192.98 587.89 227.62 607.44 253.31C623.73 274.72 655.35 300.24 713.45 300.24C761.23 300.24 791.09 282.97 809.26 264.93L791.6 247.27Z" fill="#D6D6D6" stroke="#1F2528" stroke-linejoin="round"/>
<path d="M602.59 27.8899H655.23L680.89 2.88989H577.26L602.59 27.8899Z" fill="white" stroke="#353535" stroke-linejoin="round"/>
<path d="M745.97 2.88989L746.64 28.5399C746.64 28.8399 747.42 59.4799 747.42 150.36C747.42 173.3 743.19 186 737.37 193.04L755.09 210.76C766.87 197.87 772.42 177.46 772.42 150.36C772.42 58.0999 771.63 27.8899 771.63 27.8899L745.97 2.88989Z" fill="#D6D6D6" stroke="#1F2528" stroke-linejoin="round"/>
<path d="M824.28 27.8899C824.28 27.8899 823.89 58.0999 823.92 150.36C823.92 188.95 814.76 224.15 791.6 247.27L809.26 264.93C813.18 261.04 816.56 257.11 819.46 253.31C839.01 227.62 848.92 192.98 848.92 150.35C848.89 59.4399 849.27 28.5099 849.28 28.2099L849.61 2.88989L824.28 27.8899Z" fill="white" stroke="#353535" stroke-linejoin="round"/>
<path d="M745.97 2.88989L771.63 27.8899H824.28L849.6 2.88989H745.97Z" fill="white" stroke="#353535" stroke-linejoin="round"/>
<path d="M996.65 25.53C958.81 25.53 930.35 27.89 902.67 27.89H894.73C894.73 27.89 895.52 58.1 895.52 150.36C895.52 242.62 894.73 272.85 894.73 272.85H947.38C947.38 272.85 947 258.29 946.77 218.6C956.09 219.66 968.76 220.6 984.93 220.6C1056.03 220.6 1100.07 187.19 1100.07 121.63C1100.07 67.95 1063.8 25.54 996.66 25.54L996.65 25.53ZM986.74 173.72C971.67 173.72 957.38 172.62 946.6 171.48C946.58 164.83 946.58 157.84 946.58 150.39C946.58 118.34 946.68 93.8 946.79 75.39C954.75 73.47 966.15 71.66 980.88 71.66C1034.64 71.66 1048.95 91.13 1048.95 122.69C1048.95 149.12 1031.97 173.73 986.72 173.73L986.74 173.72Z" fill="#1F2528" stroke="#1F2528" stroke-miterlimit="10"/>
<path d="M895.51 150.36C895.51 58.1101 894.72 27.8901 894.72 27.8901L869.06 2.89014L869.73 28.5401C869.73 28.8401 870.51 59.4801 870.51 150.36C870.51 241.24 869.74 271.9 869.73 272.2L869.06 297.85L894.72 272.85C894.72 272.85 895.51 242.61 895.51 150.36Z" fill="#D6D6D6" stroke="#1F2528" stroke-linejoin="round"/>
<path d="M1125.06 121.62C1125.06 87.9 1113.01 57.38 1091.13 35.69C1067.93 12.69 1035.26 0.530029 996.64 0.530029C975.76 0.530029 957.45 1.24003 941.31 1.87003C927.75 2.40003 914.94 2.89003 902.66 2.89003H869.06L894.72 27.89H902.66C930.33 27.89 958.8 25.53 996.64 25.53C1063.78 25.53 1100.05 67.94 1100.05 121.62C1100.05 155.37 1088.38 180.6 1067.36 197.14L1085.14 214.92C1111.26 193.2 1125.06 160.94 1125.06 121.62Z" fill="white" stroke="#353535" stroke-linejoin="round"/>
<path d="M984.92 220.6C968.76 220.6 956.08 219.67 946.76 218.6L971.97 245.4C976.2 245.53 980.52 245.6 984.92 245.6C1026.94 245.6 1060.66 235.28 1085.14 214.92L1067.36 197.14C1047.54 212.73 1019.42 220.59 984.92 220.59V220.6Z" fill="white" stroke="#353535" stroke-linejoin="round"/>
<path d="M894.72 272.85L869.06 297.85H947.37H973.02L947.37 272.85H894.72Z" fill="#D6D6D6" stroke="#1F2528" stroke-linejoin="round"/>
<path d="M947.37 272.85L973.02 297.85L972.36 272.21C972.36 272.11 972.16 264.36 971.97 245.4L946.76 218.6C946.99 258.29 947.37 272.85 947.37 272.85Z" fill="white" stroke="#353535" stroke-linejoin="round"/>
<path d="M971.69 96.9401L946.8 75.3801C946.69 93.7901 946.59 118.33 946.59 150.38C946.59 157.83 946.59 164.82 946.61 171.47L971.59 148.34C971.59 130.31 971.63 113.1 971.69 96.9401Z" fill="white" stroke="#353535" stroke-linejoin="round"/>
<path d="M971.69 96.9401C974.54 96.7601 977.61 96.6501 980.89 96.6501C1006.1 96.6501 1015.48 101.46 1018.83 104.32C1020.23 105.52 1023.96 108.71 1023.96 122.67C1023.96 126.17 1023.95 133.55 1017.98 139.56L1035.66 157.24C1044.94 147.88 1048.96 135.49 1048.96 122.67C1048.96 91.1101 1034.65 71.6401 980.89 71.6401C966.15 71.6401 954.75 73.4601 946.8 75.3701L971.69 96.9301V96.9401Z" fill="#D6D6D6" stroke="#1F2528" stroke-miterlimit="10"/>
<path d="M1035.67 157.25L1017.99 139.57C1012.97 144.63 1003.75 148.72 986.74 148.72C981.53 148.72 976.41 148.57 971.59 148.34L946.61 171.47C957.39 172.62 971.68 173.71 986.75 173.71C1010.04 173.71 1025.83 167.18 1035.68 157.24L1035.67 157.25Z" fill="white" stroke="#353535" stroke-linejoin="round"/>
<path d="M1285.13 25.52C1202.79 25.52 1161.17 82.75 1161.17 150.38C1161.17 218.01 1202.81 275.24 1285.13 275.24C1367.45 275.24 1409.09 218.01 1409.09 150.38C1409.09 82.75 1367.46 25.52 1285.13 25.52ZM1285.13 226.81C1237.77 226.81 1213.81 189.29 1213.81 150.38C1213.81 111.47 1237.77 73.94 1285.13 73.94C1332.49 73.94 1356.45 111.46 1356.45 150.38C1356.45 189.3 1332.51 226.81 1285.13 226.81Z" fill="#1F2528" stroke="#1F2528" stroke-miterlimit="10"/>
<path d="M1396.49 45.77C1369.57 16.17 1331.06 0.52002 1285.14 0.52002C1241.69 0.52002 1204.89 14.53 1178.25 41.11L1195.29 59.43C1215.94 38.51 1245.92 25.51 1285.15 25.51C1367.49 25.51 1409.11 82.74 1409.11 150.37C1409.11 188.61 1395.8 223.52 1369.34 246.65L1386.37 264.97C1389.9 261.84 1393.28 258.51 1396.49 254.98C1420.74 228.31 1434.1 191.16 1434.1 150.37C1434.1 109.58 1420.74 72.43 1396.49 45.76V45.77Z" fill="white" stroke="#1F2528" stroke-miterlimit="10"/>
<path d="M1285.13 275.24C1202.81 275.24 1161.17 218.01 1161.17 150.38C1161.17 114.97 1172.59 82.4201 1195.28 59.4301L1178.24 41.1101C1176.72 42.6201 1175.23 44.1701 1173.78 45.7701C1149.53 72.4401 1136.17 109.59 1136.17 150.38C1136.17 191.17 1149.53 228.32 1173.79 254.99C1200.71 284.59 1239.22 300.24 1285.14 300.24C1325.59 300.24 1360.28 288.1 1386.37 264.98L1369.34 246.66C1349.01 264.43 1320.92 275.24 1285.14 275.24H1285.13Z" fill="#D6D6D6" stroke="#1F2528" stroke-miterlimit="10"/>
<path d="M1316.7 190.05C1309.42 197.16 1299.12 201.81 1285.13 201.81C1250.94 201.81 1238.81 174.11 1238.81 150.39C1238.81 135.66 1242.58 124.62 1248.42 116.62L1231.25 98.1499C1219.65 112.33 1213.81 131.19 1213.81 150.39C1213.81 189.3 1237.77 226.82 1285.13 226.82C1305.81 226.82 1322.02 219.67 1333.73 208.38L1316.7 190.06V190.05Z" fill="white" stroke="#1F2528" stroke-miterlimit="10"/>
<path d="M1285.13 98.9399C1319.32 98.9399 1331.45 126.65 1331.45 150.38C1331.45 164.39 1327.21 179.79 1316.7 190.05L1333.73 208.37C1348.84 193.8 1356.45 172.32 1356.45 150.38C1356.45 111.46 1332.49 73.9399 1285.13 73.9399C1261.14 73.9399 1243.17 83.5799 1231.26 98.1399L1248.43 116.61C1257.65 103.99 1272.06 98.9399 1285.13 98.9399Z" fill="#D6D6D6" stroke="#1F2528" stroke-miterlimit="10"/>
<path d="M1571.03 25.53C1533.19 25.53 1504.73 27.89 1477.05 27.89H1469.11C1469.11 27.89 1469.9 58.1 1469.9 150.36C1469.9 242.62 1469.11 272.85 1469.11 272.85H1521.76C1521.76 272.85 1521.38 258.29 1521.15 218.6C1530.47 219.66 1543.14 220.6 1559.31 220.6C1630.41 220.6 1674.45 187.19 1674.45 121.63C1674.45 67.95 1638.18 25.54 1571.04 25.54L1571.03 25.53ZM1561.13 173.72C1546.06 173.72 1531.77 172.62 1520.99 171.48C1520.97 164.83 1520.97 157.84 1520.97 150.39C1520.97 118.34 1521.07 93.8 1521.18 75.39C1529.14 73.47 1540.54 71.66 1555.27 71.66C1609.03 71.66 1623.34 91.13 1623.34 122.69C1623.34 149.12 1606.36 173.73 1561.11 173.73L1561.13 173.72Z" fill="#1F2528" stroke="#1F2528" stroke-miterlimit="10"/>
<path d="M1469.9 150.36C1469.9 58.1101 1469.11 27.8901 1469.11 27.8901L1443.45 2.89014L1444.12 28.5401C1444.12 28.8401 1444.9 59.4801 1444.9 150.36C1444.9 241.24 1444.13 271.9 1444.12 272.2L1443.45 297.85L1469.11 272.85C1469.11 272.85 1469.9 242.61 1469.9 150.36Z" fill="#D6D6D6" stroke="#1F2528" stroke-linejoin="round"/>
<path d="M1699.45 121.62C1699.45 87.9 1687.4 57.38 1665.52 35.69C1642.32 12.69 1609.65 0.530029 1571.03 0.530029C1550.15 0.530029 1531.84 1.24003 1515.7 1.87003C1502.14 2.40003 1489.33 2.89003 1477.05 2.89003H1443.45L1469.11 27.89H1477.05C1504.72 27.89 1533.19 25.53 1571.03 25.53C1638.17 25.53 1674.44 67.94 1674.44 121.62C1674.44 155.37 1662.77 180.6 1641.75 197.14L1659.53 214.92C1685.65 193.2 1699.45 160.94 1699.45 121.62Z" fill="white" stroke="#353535" stroke-linejoin="round"/>
<path d="M1559.31 220.6C1543.15 220.6 1530.47 219.67 1521.15 218.6L1546.36 245.4C1550.59 245.53 1554.91 245.6 1559.31 245.6C1601.33 245.6 1635.05 235.28 1659.53 214.92L1641.75 197.14C1621.93 212.73 1593.81 220.59 1559.31 220.59V220.6Z" fill="white" stroke="#353535" stroke-linejoin="round"/>
<path d="M1469.11 272.85L1443.45 297.85H1521.76H1547.41L1521.76 272.85H1469.11Z" fill="#D6D6D6" stroke="#1F2528" stroke-linejoin="round"/>
<path d="M1521.76 272.85L1547.41 297.85L1546.75 272.21C1546.75 272.11 1546.55 264.36 1546.36 245.4L1521.15 218.6C1521.38 258.29 1521.76 272.85 1521.76 272.85Z" fill="white" stroke="#353535" stroke-linejoin="round"/>
<path d="M1546.08 96.9401L1521.19 75.3801C1521.08 93.7901 1520.98 118.33 1520.98 150.38C1520.98 157.83 1520.98 164.82 1521 171.47L1545.98 148.34C1545.98 130.31 1546.02 113.1 1546.08 96.9401Z" fill="white" stroke="#353535" stroke-linejoin="round"/>
<path d="M1546.08 96.9401C1548.93 96.7601 1552 96.6501 1555.28 96.6501C1580.49 96.6501 1589.87 101.46 1593.22 104.32C1594.62 105.52 1598.35 108.71 1598.35 122.67C1598.35 126.17 1598.34 133.55 1592.37 139.56L1610.05 157.24C1619.33 147.88 1623.35 135.49 1623.35 122.67C1623.35 91.1101 1609.04 71.6401 1555.28 71.6401C1540.54 71.6401 1529.14 73.4601 1521.19 75.3701L1546.08 96.9301V96.9401Z" fill="#D6D6D6" stroke="#1F2528" stroke-miterlimit="10"/>
<path d="M1610.06 157.25L1592.38 139.57C1587.36 144.63 1578.14 148.72 1561.13 148.72C1555.92 148.72 1550.8 148.57 1545.98 148.34L1521 171.47C1531.78 172.62 1546.07 173.71 1561.14 173.71C1584.43 173.71 1600.22 167.18 1610.07 157.24L1610.06 157.25Z" fill="white" stroke="#353535" stroke-linejoin="round"/>
</g>
<defs>
<clipPath id="clip0_1018_2">
<rect width="1699.95" height="316.85" fill="white"/>
</clipPath>
</defs>
</svg>
