<svg id="Layer_1" xmlns="http://www.w3.org/2000/svg" viewBox="0 0 323 534"><style>.st1{fill:#fff}.st2{fill:#081b36}</style><path d="M297.31 265.11c0 1.32-1.23 1.8-2.06.57L194.67 108.02v.01c-.91-1.43-2.15-1.51-3.07-.3l-30.06 47.1c-.96 1.5-2.31 1.52-3.28.02L92.65 52.02c-.97-1.45-2.28-1.43-3.19-.02l-61.71 96.73c-.81 1.22-2.07.72-2.07-.61V27.36c0-1.12.94-2.05 2.07-2.05h267.5c1.15 0 2.06.93 2.06 2.05v237.75z" fill="#7dcfe7"/><path class="st1" d="M297.31 506.64c0 1.12-.91 2.04-2.06 2.04H27.75c-1.13 0-2.07-.91-2.07-2.04V373.28c0-.74.6-1.59 1.68-1.51 39.09 5.25 83.78 30.67 127.15 55.37 46.93 26.75 95.33 54.29 140.84 59.31 1.24.15 1.96.9 1.96 2.03v18.16zm0-47.1c0 1.1-.75 2.15-1.97 2.06-39.77-5.32-84.86-30.99-128.61-55.92-46.41-26.43-94.27-53.64-138.98-58.74-1.28-.15-2.07-.91-2.07-2.08v-69.25c0-1.12.94-2.03 2.07-2.03h99.42c1.69 0 2.9.36 4.01 1.35l164.2 143.01c1.04.92 1.93 1.99 1.93 4.14v37.46z"/><path class="st1" d="M297.31 383.67c0 2.04-1.19 2.15-2.37 1.12L140.45 250.2c-1.15-.96-2.37-1.35-4.06-1.35H27.75c-1.13 0-2.07-.91-2.07-2.04v-45.63c0-2.59.28-3.87 1.56-5.78L89.4 97.99c.96-1.48 2.32-1.53 3.28 0l65.56 102.77c.97 1.53 2.34 1.51 3.29 0l30.05-47.06c.94-1.25 2.16-1.19 3.09.23v-.01l101.2 158.6c1.18 1.81 1.44 3.1 1.44 5.64v65.51zm-58.9-358.36h-4.44c.12.1.18.18.29.26 1.32.82 3 .69 4.15-.26zm25.82 15.12c1.06-1.65.59-3.87-1.07-4.94-1.68-1.04-3.9-.57-4.94 1.11a3.528 3.528 0 0 0 1.09 4.92c1.66 1.06 3.86.58 4.92-1.09zm-28.85 93.79c1.68 1.05 3.88.57 4.94-1.08 1.04-1.68.56-3.88-1.07-4.93a3.55 3.55 0 0 0-4.94 1.07c-1.08 1.68-.61 3.89 1.07 4.94zM213.57 30.37c1.69 1.05 3.9.55 4.96-1.1.79-1.26.72-2.8-.06-3.96h-5.9c-.01.05-.04.07-.06.1a3.626 3.626 0 0 0 1.06 4.96zm41.93 44.74c1.68 1.04 3.88.57 4.96-1.12 1.04-1.67.56-3.88-1.12-4.93a3.555 3.555 0 0 0-4.93 1.09c-1.06 1.67-.57 3.87 1.09 4.96zM247.92 66c1.06-1.65.57-3.85-1.09-4.94a3.62 3.62 0 0 0-4.96 1.11 3.581 3.581 0 0 0 1.12 4.93c1.67 1.06 3.89.58 4.93-1.1zm3.8-33.54c1.07-1.68.57-3.89-1.09-4.96a3.613 3.613 0 0 0-4.94 1.11 3.555 3.555 0 0 0 1.09 4.92c1.67 1.08 3.88.58 4.94-1.07zm-.58 21.86c1.66 1.05 3.88.56 4.93-1.1 1.06-1.68.57-3.89-1.07-4.94a3.58 3.58 0 0 0-4.94 1.09 3.568 3.568 0 0 0 1.08 4.95zm-124.61-25.5c1.66 1.07 3.88.59 4.94-1.09.48-.75.62-1.59.5-2.42h-7.06c-.17 1.35.4 2.74 1.62 3.51zM27 123.02c-1.06 1.68-.59 3.88 1.09 4.94 1.66 1.07 3.88.57 4.94-1.09 1.06-1.68.57-3.88-1.09-4.96a3.608 3.608 0 0 0-4.94 1.11zm192.64 14.94c1.06-1.68.57-3.9-1.07-4.96-1.68-1.07-3.88-.55-4.96 1.09-.59.96-.68 2.06-.37 3.03l.97 1.53c.16.16.31.29.5.37 1.68 1.09 3.89.58 4.93-1.06zm12.53 7.95c1.04-1.64.57-3.87-1.07-4.92a3.598 3.598 0 0 0-4.97 1.08 3.577 3.577 0 0 0 1.1 4.94c1.68 1.05 3.88.58 4.94-1.1zM97.59 25.31h-4.63c.12.13.25.22.4.34 1.36.87 3.07.67 4.23-.34zm138.36 87.06c1.09-1.68.59-3.88-1.07-4.96-1.68-1.05-3.88-.58-4.94 1.1-1.07 1.68-.56 3.89 1.07 4.93 1.69 1.08 3.9.59 4.94-1.07zm-200.21-24c-1.68-1.04-3.88-.57-4.94 1.1-1.06 1.65-.57 3.86 1.09 4.94 1.66 1.05 3.88.57 4.94-1.1 1.07-1.66.57-3.89-1.09-4.94zm40.2-42.09c-1.06 1.68-.59 3.9 1.09 4.94 1.68 1.07 3.88.57 4.94-1.09 1.09-1.68.56-3.87-1.09-4.96-1.67-1.04-3.88-.55-4.94 1.11zM40.1 109.14c-1.66-1.04-3.88-.57-4.94 1.11-1.07 1.64-.59 3.85 1.09 4.93a3.58 3.58 0 0 0 4.94-1.1c1.06-1.66.58-3.89-1.09-4.94zm140.29-81.95c1.68 1.05 3.88.57 4.94-1.1.16-.25.28-.5.37-.78h-6.74c.25.76.74 1.42 1.43 1.88zm40.81 39.78c-1.04 1.66-.56 3.9 1.12 4.94 1.68 1.05 3.87.57 4.94-1.1 1.04-1.66.56-3.85-1.1-4.95a3.627 3.627 0 0 0-4.96 1.11zm-5.91 50.18c1.07-1.64.57-3.85-1.07-4.93-1.69-1.06-3.88-.59-4.96 1.09a3.574 3.574 0 0 0 1.09 4.94c1.67 1.06 3.9.58 4.94-1.1zM89.05 32.4a3.566 3.566 0 0 0-4.94 1.1c-1.04 1.67-.59 3.85 1.07 4.94 1.68 1.05 3.88.57 4.94-1.11 1.09-1.65.58-3.88-1.07-4.93zM219.1 83.61c1.06-1.68.57-3.88-1.1-4.93-1.65-1.08-3.87-.58-4.94 1.07-1.04 1.68-.56 3.89 1.12 4.94 1.62 1.07 3.84.57 4.92-1.08zm-13.05 41.41c-.24-.15-.5-.28-.75-.35l2.37 3.72c.12-1.3-.47-2.64-1.62-3.37zm33.12-24.37c1.66 1.07 3.88.58 4.96-1.09 1.06-1.65.57-3.87-1.12-4.93-1.65-1.07-3.87-.58-4.93 1.09-1.04 1.67-.57 3.87 1.09 4.93zM109.71 27.59c-1.66-1.04-3.88-.56-4.93 1.11-1.06 1.65-.57 3.85 1.07 4.94 1.68 1.05 3.88.57 4.94-1.11 1.08-1.66.6-3.88-1.08-4.94zM93.42 53.16h-.03L95 55.72a3.576 3.576 0 0 0-1.58-2.56zm20.66-4.8a3.583 3.583 0 0 0-4.94 1.11c-1.07 1.66-.57 3.85 1.09 4.93 1.68 1.05 3.87.57 4.94-1.1 1.06-1.65.56-3.85-1.09-4.94zm117.53 43.22c1.06-1.66.57-3.85-1.1-4.94-1.68-1.04-3.88-.57-4.94 1.11-1.06 1.66-.56 3.89 1.1 4.93a3.59 3.59 0 0 0 4.94-1.1zm3.8-33.55a3.59 3.59 0 0 0-1.09-4.94c-1.66-1.07-3.88-.57-4.94 1.09a3.557 3.557 0 0 0 1.09 4.94c1.67 1.06 3.88.56 4.94-1.09zm-4.37-20.77c1.07-1.68.59-3.89-1.09-4.94a3.569 3.569 0 0 0-4.93 1.08 3.579 3.579 0 0 0 1.09 4.95c1.65 1.06 3.89.57 4.93-1.09zm12.51 7.98c1.07-1.66.59-3.85-1.07-4.95-1.68-1.04-3.88-.56-4.94 1.11a3.57 3.57 0 0 0 1.07 4.94c1.68 1.05 3.9.57 4.94-1.1zm-8.72 34.66c1.65 1.05 3.88.56 4.93-1.1 1.07-1.68.57-3.87-1.09-4.94a3.585 3.585 0 0 0-4.94 1.09 3.6 3.6 0 0 0 1.1 4.95zm-11.97 46.34c1.66 1.06 3.88.56 4.96-1.1 1.04-1.63.57-3.87-1.1-4.91-1.68-1.07-3.88-.6-4.94 1.08-1.08 1.66-.58 3.87 1.08 4.93zM221.8 45.1c-1.68-1.05-3.88-.57-4.94 1.1a3.573 3.573 0 0 0 1.09 4.94c1.68 1.04 3.88.57 4.93-1.12 1.09-1.66.6-3.84-1.08-4.92zm-3.29 60.37c1.66 1.05 3.87.56 4.93-1.1 1.09-1.68.59-3.87-1.07-4.93-1.68-1.07-3.9-.58-4.94 1.07-1.07 1.69-.58 3.9 1.08 4.96zm-192.83 2.26c1.19 0 2.32-.57 3-1.62 1.06-1.68.59-3.9-1.09-4.96-.59-.38-1.25-.54-1.91-.55v7.13zM39.55 54.8c-1.68-1.06-3.88-.58-4.93 1.09a3.563 3.563 0 0 0 1.07 4.95c1.66 1.04 3.88.57 4.94-1.12 1.06-1.63.58-3.84-1.08-4.92zm213.29 86.3c1.06-1.64.57-3.85-1.07-4.94a3.619 3.619 0 0 0-4.97 1.11c-1.04 1.66-.56 3.9 1.12 4.94 1.65 1.05 3.84.57 4.92-1.11zm3.77 42.64c1.66 1.1 3.88.58 4.94-1.07 1.07-1.68.59-3.89-1.09-4.97-1.66-1.05-3.88-.58-4.94 1.1-1.05 1.69-.57 3.9 1.09 4.94zm-7.58-9.06a3.54 3.54 0 0 0-1.07-4.93c-1.68-1.08-3.88-.57-4.96 1.1-1.06 1.64-.56 3.86 1.09 4.92 1.67 1.07 3.89.6 4.94-1.09zM35.18 34.04a3.535 3.535 0 0 0-4.94 1.08 3.55 3.55 0 0 0 1.1 4.93c1.66 1.06 3.87.57 4.91-1.1 1.09-1.63.59-3.86-1.07-4.91zm-8.75 34.63a3.656 3.656 0 0 0 1.12 4.99c1.63 1.04 3.88.53 4.93-1.11 1.06-1.68.57-3.9-1.1-4.94-1.67-1.09-3.86-.58-4.95 1.06zm238.93 80.42c1.04-1.68.57-3.87-1.1-4.94a3.58 3.58 0 0 0-4.94 1.09c-1.06 1.68-.57 3.9 1.09 4.96a3.58 3.58 0 0 0 4.95-1.11zM113.48 70.24a3.56 3.56 0 0 0 1.12 4.93c1.66 1.07 3.85.58 4.93-1.08 1.07-1.68.57-3.87-1.09-4.96-1.67-1.05-3.88-.55-4.96 1.11zm123.06 96.44c1.04-1.64.56-3.85-1.12-4.92-1.66-1.04-3.88-.59-4.93 1.09-.16.23-.27.48-.35.77l3 4.71c1.31.1 2.65-.47 3.4-1.65zm15.74-3.7c1.65 1.05 3.85.57 4.93-1.07 1.06-1.67.57-3.88-1.1-4.97-1.66-1.04-3.88-.53-4.93 1.11a3.55 3.55 0 0 0 1.1 4.93zm32.6-51.15c1.66 1.05 3.88.57 4.96-1.1 1.06-1.65.56-3.87-1.1-4.94-1.68-1.04-3.88-.57-4.93 1.11-1.09 1.63-.61 3.84 1.07 4.93zm4.37 20.76c1.66 1.06 3.88.58 4.93-1.08 1.07-1.68.57-3.89-1.09-4.96-1.66-1.05-3.87-.58-4.93 1.1-1.07 1.69-.59 3.88 1.09 4.94zm-20.11-17.06c1.07-1.65.59-3.89-1.09-4.93a3.567 3.567 0 0 0-4.93 1.1c-1.07 1.66-.6 3.85 1.09 4.94 1.67 1.05 3.89.57 4.93-1.11zm16.33-25.58c1.07-1.65.57-3.89-1.1-4.93a3.58 3.58 0 0 0-4.94 1.1c-1.04 1.65-.56 3.85 1.12 4.94 1.65 1.05 3.86.58 4.92-1.11zm11.84 8.74v-5.35c-.12-.12-.23-.25-.41-.33-1.66-1.07-3.9-.57-4.94 1.07-1.06 1.68-.57 3.88 1.07 4.98 1.38.83 3.12.66 4.28-.37zm-28.75 38.71c1.69 1.05 3.9.57 4.96-1.1 1.06-1.65.56-3.85-1.09-4.94-1.66-1.04-3.87-.54-4.96 1.11-1.06 1.67-.56 3.89 1.09 4.93zm4.38 20.77c1.65 1.07 3.87.58 4.93-1.08 1.07-1.68.59-3.88-1.09-4.93a3.547 3.547 0 0 0-4.94 1.07c-1.05 1.66-.56 3.89 1.1 4.94zm8.73-34.65c1.04-1.66.59-3.9-1.09-4.94-1.68-1.06-3.9-.57-4.94 1.09a3.557 3.557 0 0 0 1.09 4.94c1.67 1.07 3.87.57 4.94-1.09zm-25.61 5.9c1.68 1.07 3.88.57 4.94-1.1 1.06-1.67.57-3.86-1.09-4.93s-3.88-.57-4.94 1.1a3.564 3.564 0 0 0 1.09 4.93zm8.75-34.66c1.04-1.66.56-3.89-1.1-4.94-1.66-1.07-3.9-.57-4.96 1.1a3.595 3.595 0 0 0 1.12 4.94c1.66 1.05 3.85.58 4.94-1.1zm-25.06 60.22c1.65 1.07 3.87.57 4.93-1.07 1.07-1.69.59-3.89-1.09-4.94-1.66-1.09-3.87-.57-4.93 1.07a3.55 3.55 0 0 0 1.09 4.94zm28.84-93.76c1.06-1.68.59-3.9-1.07-4.96-1.66-1.04-3.9-.55-4.94 1.1-1.07 1.68-.59 3.88 1.09 4.92 1.65 1.09 3.87.6 4.92-1.06zm-.58 21.83c1.66 1.08 3.87.59 4.96-1.07 1.04-1.68.57-3.89-1.12-4.96-1.65-1.05-3.85-.55-4.93 1.1-1.07 1.65-.57 3.88 1.09 4.93zM38.96 76.66c-1.06 1.66-.57 3.89 1.09 4.93 1.66 1.09 3.87.58 4.93-1.06 1.07-1.68.59-3.9-1.09-4.96-1.65-1.04-3.89-.55-4.93 1.09zm209.52 43.67c1.06-1.64.57-3.87-1.09-4.94-1.68-1.05-3.88-.57-4.94 1.1s-.57 3.88 1.09 4.94a3.57 3.57 0 0 0 4.94-1.1zm3.21-11.69c1.68 1.07 3.88.57 4.96-1.08 1.06-1.68.57-3.87-1.1-4.96-1.65-1.05-3.88-.55-4.94 1.1-1.07 1.69-.57 3.9 1.08 4.94zm20.68-4.82c1.66 1.09 3.88.59 4.94-1.07 1.07-1.67.57-3.88-1.07-4.93a3.6 3.6 0 0 0-4.96 1.09c-1.08 1.67-.56 3.86 1.09 4.91zM252.29 86.8c1.06-1.68.57-3.88-1.1-4.96a3.601 3.601 0 0 0-4.94 1.1c-1.06 1.66-.57 3.89 1.1 4.93 1.65 1.07 3.87.58 4.94-1.07zm45.02-43.05v-4.16c-.23-.35-.59-.67-.97-.92a3.545 3.545 0 0 0-4.93 1.09 3.545 3.545 0 0 0 1.07 4.94c1.64 1.04 3.74.57 4.83-.95zM72.66 30.45a3.57 3.57 0 0 0 4.94-1.08c.82-1.29.71-2.88-.13-4.06h-5.75c-.04.07-.1.13-.13.21-1.06 1.66-.57 3.88 1.07 4.93zm224.19 35.01c.15.12.31.17.46.23v-6.5c-.62.26-1.16.73-1.56 1.34a3.574 3.574 0 0 0 1.1 4.93zM42.75 43.12c-1.07 1.66-.59 3.87 1.09 4.91 1.68 1.07 3.88.58 4.94-1.07 1.06-1.68.59-3.88-1.07-4.93a3.57 3.57 0 0 0-4.96 1.09zm241.59 14.36c1.66 1.08 3.87.57 4.94-1.07 1.04-1.68.56-3.89-1.1-4.96s-3.88-.55-4.93 1.09a3.544 3.544 0 0 0 1.09 4.94zm.56-21.88c1.07-1.64.6-3.85-1.07-4.92s-3.88-.55-4.94 1.08c-1.06 1.66-.56 3.9 1.07 4.94a3.54 3.54 0 0 0 4.94-1.1zm12.41 84.14v-5.91c-.4.27-.72.62-1 1.04a3.583 3.583 0 0 0 1 4.87zm-16.19-50.55c1.06-1.65.57-3.89-1.1-4.94a3.583 3.583 0 0 0-4.94 1.11c-1.06 1.63-.57 3.85 1.09 4.93 1.67 1.05 3.89.58 4.95-1.1zm7.57 9.05c1.65 1.09 3.88.57 4.94-1.07 1.06-1.67.57-3.88-1.1-4.93-1.65-1.09-3.85-.57-4.94 1.07-1.05 1.65-.56 3.88 1.1 4.93zM55.86 29.21c-1.68-1.04-3.9-.57-4.94 1.1-1.07 1.67-.56 3.88 1.09 4.95 1.66 1.04 3.87.57 4.93-1.1 1.08-1.67.56-3.86-1.08-4.95zm-4.39 55.46c-1.07 1.64-.59 3.86 1.1 4.92 1.65 1.07 3.85.6 4.93-1.09 1.04-1.66.59-3.87-1.09-4.93-1.67-1.05-3.88-.58-4.94 1.1zM47.1 63.9c-1.06 1.65-.57 3.86 1.1 4.92 1.66 1.05 3.88.6 4.94-1.08 1.04-1.66.56-3.89-1.1-4.94-1.64-1.05-3.86-.57-4.94 1.1zm13.12-13.92c-1.68-1.05-3.88-.57-4.94 1.11-1.07 1.68-.59 3.89 1.09 4.93a3.58 3.58 0 0 0 4.94-1.1c1.05-1.64.57-3.85-1.09-4.94zm8.15-12.77a3.578 3.578 0 0 0-4.94 1.08c-1.07 1.68-.59 3.9 1.09 4.96 1.66 1.06 3.88.56 4.93-1.1 1.08-1.69.58-3.88-1.08-4.94zM43.31 97.44c-1.06 1.68-.57 3.88 1.09 4.93a3.55 3.55 0 0 0 4.94-1.07c1.06-1.68.59-3.88-1.07-4.96-1.69-1.04-3.9-.55-4.96 1.1zm24.47-38.38c-1.06 1.68-.57 3.9 1.1 4.96 1.66 1.05 3.88.57 4.93-1.11 1.04-1.63.57-3.86-1.1-4.93a3.585 3.585 0 0 0-4.93 1.08zm-8.16 12.79c-1.04 1.68-.56 3.9 1.09 4.96 1.69 1.07 3.88.56 4.96-1.09 1.06-1.68.57-3.88-1.1-4.93-1.67-1.08-3.88-.57-4.95 1.06zm43.03-26.53c1.07-1.67.57-3.88-1.09-4.96-1.66-1.04-3.88-.54-4.96 1.11a3.563 3.563 0 0 0 1.1 4.93c1.67 1.09 3.89.59 4.95-1.08zm19.59-9.74a3.583 3.583 0 0 0-4.96 1.11c-1.06 1.66-.56 3.85 1.1 4.93 1.66 1.05 3.87.56 4.93-1.1 1.08-1.68.59-3.89-1.07-4.94zm.54 54.34c-1.68-1.07-3.88-.58-4.93 1.08-.06.09-.09.19-.16.31l3.34 5.19c1.1-.07 2.19-.64 2.85-1.65a3.55 3.55 0 0 0-1.1-4.93z"/><path class="st1" d="M140.76 123.6c1.07-1.65.56-3.86-1.09-4.94a3.59 3.59 0 0 0-4.29.36l3.81 5.93c.61-.28 1.18-.73 1.57-1.35zm35.9-35.32c-1.68-1.05-3.9-.56-4.94 1.1-1.07 1.64-.57 3.87 1.1 4.91 1.65 1.09 3.85.6 4.94-1.08 1.06-1.66.56-3.87-1.1-4.93zm-40.27 14.55c1.07-1.66.57-3.85-1.09-4.93a3.579 3.579 0 0 0-4.94 1.1c-1.04 1.65-.56 3.89 1.1 4.94 1.66 1.05 3.88.56 4.93-1.11zm131.05-74.09c1.68 1.07 3.88.56 4.97-1.09.43-.72.6-1.52.5-2.34h-7.07a3.62 3.62 0 0 0 1.6 3.43zM107 66.1c1.06-1.68.56-3.87-1.1-4.94-1.65-1.07-3.87-.57-4.93 1.09-.38.63-.57 1.3-.56 1.95l2.03 3.18c1.62.78 3.58.28 4.56-1.28zm69.07 44.05a3.56 3.56 0 0 0 1.09 4.93c1.66 1.08 3.88.58 4.94-1.07a3.61 3.61 0 0 0-1.07-4.96c-1.7-1.05-3.89-.56-4.96 1.1zm94.66-65.61a3.573 3.573 0 0 0 1.07 4.96c1.68 1.07 3.88.6 4.94-1.09 1.07-1.67.59-3.88-1.07-4.93-1.69-1.05-3.88-.57-4.94 1.06zm-102.8 2.2c-1.66-1.07-3.88-.6-4.94 1.08a3.576 3.576 0 0 0 6.03 3.84c1.06-1.64.58-3.85-1.09-4.92zm-.57 21.85a3.586 3.586 0 0 0 1.09 4.95c1.68 1.04 3.88.57 4.94-1.11 1.06-1.63.57-3.85-1.1-4.92-1.66-1.05-3.86-.59-4.93 1.08zm-3.78-42.62c-1.68-1.09-3.88-.59-4.96 1.09a3.61 3.61 0 0 0 1.1 4.94c1.68 1.04 3.88.54 4.93-1.11 1.08-1.64.59-3.86-1.07-4.92zm12.52 7.99a3.551 3.551 0 0 0-4.94 1.07 3.57 3.57 0 0 0 1.09 4.94c1.68 1.07 3.87.57 4.94-1.09 1.07-1.67.57-3.87-1.09-4.92zm11.92 29.84a3.563 3.563 0 0 0 1.1 4.93c1.66 1.09 3.87.58 4.93-1.06a3.66 3.66 0 0 0-1.07-4.99c-1.68-1.05-3.9-.57-4.96 1.12zm-33.19-3.2c-1.06 1.68-.57 3.89 1.1 4.94 1.68 1.09 3.88.57 4.94-1.07 1.04-1.68.57-3.89-1.12-4.93-1.64-1.09-3.85-.58-4.92 1.06zm25.03 15.96c-1.04 1.68-.56 3.9 1.12 4.96 1.65 1.07 3.85.55 4.93-1.08 1.06-1.67.57-3.9-1.1-4.94-1.65-1.05-3.86-.57-4.95 1.06zm8.75-34.65c-1.68-1.04-3.88-.53-4.93 1.1a3.561 3.561 0 0 0 1.07 4.95c1.66 1.04 3.88.57 4.96-1.1 1.06-1.65.58-3.86-1.1-4.95zm-53.87 1.65c-1.66-1.05-3.87-.58-4.93 1.1-1.07 1.68-.59 3.87 1.09 4.92 1.66 1.09 3.87.6 4.94-1.09 1.05-1.65.59-3.87-1.1-4.93zm20.68-4.81c-1.66-1.07-3.88-.56-4.93 1.09-1.07 1.65-.59 3.89 1.09 4.94 1.65 1.07 3.87.57 4.93-1.11 1.07-1.64.59-3.85-1.09-4.92zm-29.41 39.47c-1.06 1.66-.57 3.85 1.1 4.94 1.66 1.04 3.87.57 4.93-1.1 1.07-1.66.57-3.9-1.09-4.94a3.586 3.586 0 0 0-4.94 1.1zm70.76-49.09a3.579 3.579 0 0 0-4.94 1.09c-1.06 1.68-.57 3.89 1.07 4.95 1.68 1.06 3.9.57 4.96-1.09 1.06-1.68.58-3.87-1.09-4.95zm-70.18 27.22a3.62 3.62 0 0 0-4.96 1.09 3.631 3.631 0 0 0 1.1 4.96c1.69 1.05 3.88.56 4.94-1.11 1.07-1.67.59-3.89-1.08-4.94zm7.58 9.08c-1.06 1.64-.59 3.88 1.1 4.93a3.56 3.56 0 0 0 4.93-1.07c1.06-1.68.57-3.88-1.1-4.93-1.65-1.09-3.87-.59-4.93 1.07zm8.75-34.65a3.57 3.57 0 0 0-4.96 1.1 3.514 3.514 0 0 0 1.09 4.9c1.66 1.09 3.88.57 4.94-1.07 1.08-1.67.59-3.89-1.07-4.93zm3.75 42.64c-1.06 1.64-.56 3.87 1.1 4.94 1.66 1.05 3.9.57 4.94-1.11 1.07-1.66.56-3.87-1.09-4.93-1.66-1.06-3.86-.58-4.95 1.1zm.6-21.87a3.581 3.581 0 0 0-4.94 1.11c-1.07 1.63-.59 3.85 1.07 4.92 1.68 1.06 3.88.6 4.94-1.09 1.08-1.67.58-3.87-1.07-4.94zm8.13 63.41a3.543 3.543 0 0 0 1.09 4.93 3.57 3.57 0 0 0 4.94-1.08c1.07-1.68.57-3.9-1.09-4.96-1.67-1.04-3.88-.57-4.94 1.11zm12.52 7.99c-1.07 1.66-.59 3.85 1.09 4.94 1.66 1.04 3.88.57 4.94-1.1 1.04-1.66.59-3.89-1.1-4.94a3.556 3.556 0 0 0-4.93 1.1zm-20.68 4.8c-1.06 1.66-.57 3.85 1.09 4.94 1.68 1.04 3.87.57 4.94-1.11 1.06-1.66.56-3.89-1.09-4.93-1.66-1.07-3.86-.57-4.94 1.1zm-3.79-42.64c-1.66-1.07-3.85-.57-4.93 1.09a3.551 3.551 0 0 0 1.1 4.92c1.65 1.09 3.87.59 4.94-1.07 1.05-1.68.56-3.89-1.11-4.94zm4.38 20.77a3.602 3.602 0 0 0-4.96 1.08 3.6 3.6 0 0 0 1.09 4.96c1.68 1.05 3.88.57 4.94-1.1 1.08-1.68.59-3.9-1.07-4.94zm53.3-55.97c-1.66-1.05-3.88-.58-4.93 1.07-1.09 1.68-.6 3.9 1.07 4.96 1.68 1.05 3.88.55 4.94-1.1 1.05-1.68.56-3.87-1.08-4.93zm-32.64 51.17c-1.66-1.07-3.88-.57-4.94 1.06-1.04 1.68-.57 3.9 1.1 4.99 1.66 1.04 3.87.57 4.93-1.1 1.06-1.68.59-3.91-1.09-4.95zm-4.35-20.78c-1.65-1.08-3.87-.57-4.96 1.07a3.67 3.67 0 0 0 1.1 4.99c1.65 1.04 3.87.53 4.96-1.11 1.05-1.68.56-3.9-1.1-4.95zm1.65 59.28c1.06-1.68.57-3.89-1.09-4.93a3.57 3.57 0 0 0-4.94 1.08 3.58 3.58 0 0 0 1.09 4.94c1.67 1.06 3.88.56 4.94-1.09zm-9.81-46.5c-1.68-1.05-3.88-.57-4.94 1.11-1.06 1.63-.57 3.86 1.09 4.93a3.63 3.63 0 0 0 4.96-1.09c1.05-1.66.56-3.88-1.11-4.95zm58.75-30.24c1.06-1.68.57-3.88-1.09-4.92-1.66-1.09-3.87-.6-4.96 1.06a3.585 3.585 0 0 0 1.12 4.95c1.67 1.06 3.89.56 4.93-1.09zm-5.44-25.74a3.607 3.607 0 0 0-4.94 1.12 3.54 3.54 0 0 0 1.07 4.93c1.68 1.05 3.88.58 4.96-1.1 1.07-1.66.57-3.86-1.09-4.95zm-4.38 55.45c-1.07 1.66-.57 3.89 1.07 4.94 1.68 1.05 3.9.57 4.96-1.1 1.06-1.65.57-3.85-1.09-4.93a3.555 3.555 0 0 0-4.94 1.09zm-4.37-20.77c-1.06 1.65-.57 3.87 1.1 4.94 1.65 1.04 3.88.57 4.94-1.12 1.06-1.63.57-3.86-1.09-4.91a3.58 3.58 0 0 0-4.95 1.09zm-10.3 29.43c1.09-1.66.6-3.89-1.07-4.94a3.611 3.611 0 0 0-4.96 1.1c-1.04 1.64-.56 3.86 1.1 4.93 1.67 1.06 3.89.59 4.93-1.09zm6.49 4.12c-1.04 1.68-.57 3.89 1.09 4.94 1.69 1.08 3.9.57 4.96-1.07 1.06-1.67.57-3.9-1.09-4.96-1.67-1.07-3.89-.55-4.96 1.09zm-39.11 47.03c1.07-1.66.59-3.89-1.09-4.94-1-.63-2.19-.71-3.22-.29l3.76 5.88c.22-.17.39-.41.55-.65zm39.7-68.87c-1.66-1.09-3.88-.58-4.93 1.06-1.06 1.68-.57 3.9 1.09 4.95 1.66 1.08 3.87.57 4.94-1.07 1.06-1.68.57-3.89-1.1-4.94zm-16.86-28.76c-1.68-1.08-3.9-.57-4.97 1.07-1.04 1.68-.56 3.89 1.1 4.96 1.68 1.04 3.9.58 4.94-1.09 1.05-1.7.58-3.9-1.07-4.94zM39.49 27.26c1.65 1.07 3.88.57 4.94-1.09.18-.26.31-.57.4-.87H38c.25.79.75 1.49 1.49 1.96zM293.65 257.1c-1.07 1.65-.57 3.88 1.07 4.93.81.53 1.73.65 2.59.51v-7.01c-1.4-.28-2.87.28-3.66 1.57zm3.66-33.34c-.59 1.1-.54 2.34 0 3.41v-3.41zm-11.25 24.26c-.74-.46-1.56-.61-2.38-.52l3.49 5.48c1.03-1.68.55-3.9-1.11-4.96zm11.25-40v-6.69a3.564 3.564 0 0 0-4.24 1.43c-1.07 1.65-.57 3.88 1.09 4.93.99.64 2.15.72 3.15.33zm-23.83 4.49c1.68 1.04 3.9.57 4.94-1.11 1.07-1.64.56-3.85-1.07-4.92a3.555 3.555 0 0 0-4.94 1.09c-1.07 1.65-.57 3.89 1.07 4.94zm-4.36-20.77c1.69 1.05 3.9.57 4.96-1.1 1.07-1.64.57-3.87-1.09-4.92-1.68-1.07-3.88-.6-4.94 1.09-1.08 1.65-.58 3.86 1.07 4.93zm8.75 41.53c1.65 1.09 3.85.57 4.93-1.1 1.06-1.65.57-3.85-1.1-4.9-1.68-1.09-3.85-.57-4.93 1.07a3.55 3.55 0 0 0 1.1 4.93zm-8.15-63.41c1.07-1.63.57-3.87-1.09-4.92-1.68-1.07-3.9-.6-4.94 1.09-1.07 1.65-.57 3.87 1.07 4.94 1.68 1.05 3.88.57 4.96-1.11zM28.12 51.77c1.04-1.68.57-3.89-1.09-4.96-.41-.27-.88-.43-1.35-.51v7.04c.97-.13 1.86-.68 2.44-1.57zm236.7 146.74c-1.66-1.09-3.88-.57-4.93 1.07-1.07 1.68-.59 3.89 1.07 4.94 1.68 1.09 3.88.57 4.94-1.07 1.07-1.68.58-3.89-1.08-4.94zm17.4-20.66c1.07-1.68.59-3.87-1.07-4.92-1.68-1.09-3.9-.6-4.94 1.07-1.06 1.68-.57 3.89 1.09 4.94 1.65 1.07 3.86.57 4.92-1.09zm-28.83 17.61c1.07-1.66.59-3.89-1.09-4.94-1.5-.96-3.44-.65-4.59.65l3.69 5.78c.79-.26 1.51-.75 1.99-1.49zm36.42-8.53c1.66 1.06 3.87.57 4.94-1.11 1.06-1.66.57-3.85-1.1-4.93a3.567 3.567 0 0 0-4.93 1.1c-1.06 1.66-.57 3.9 1.09 4.94zm-3.22 11.69c1.04-1.63.59-3.86-1.09-4.92a3.536 3.536 0 0 0-4.93 1.07 3.569 3.569 0 0 0 1.07 4.94c1.68 1.06 3.9.56 4.95-1.09zm-16.31 25.59c1.06-1.65.57-3.88-1.1-4.94-1.12-.72-2.5-.72-3.59-.13l3.81 5.99c.33-.25.63-.55.88-.92zm15.72-3.72c1.68 1.06 3.9.56 4.96-1.1 1.06-1.65.56-3.87-1.09-4.92-1.66-1.09-3.88-.6-4.97 1.09-1.05 1.65-.56 3.87 1.1 4.93zm11.31-51.85c-.16.18-.31.35-.44.56-.91 1.43-.68 3.26.44 4.4v-4.96zm0-15.19v-6.18a3.546 3.546 0 0 0-4.79 1.16 3.592 3.592 0 0 0 1.09 4.94c1.18.74 2.58.72 3.7.08zm-11.86 12.71a3.58 3.58 0 0 0 4.94-1.1c1.06-1.66.56-3.85-1.1-4.94-1.66-1.05-3.88-.57-4.93 1.11a3.555 3.555 0 0 0 1.09 4.93zm.58-21.88c1.06-1.66.57-3.88-1.1-4.93a3.591 3.591 0 0 0-4.94 1.1c-1.04 1.67-.56 3.85 1.12 4.94a3.54 3.54 0 0 0 4.92-1.11zm4.35 96.99c1.65 1.05 3.85.57 4.93-1.1 1.06-1.64.57-3.88-1.1-4.93a3.545 3.545 0 0 0-4.93 1.09 3.574 3.574 0 0 0 1.1 4.94z"/><path class="st2" d="M82.46 484l-11.82-.02c-11.32 0-20.24-8.79-20.24-20.15v-34.91h15.88v34.6c0 2.86 2.07 5.54 5.09 5.54h11.24c5.04 0 7.21-2.65 7.21-7.15 0-1.76-.71-3.43-1.93-4.69l-5.4-5.57v13.29H70.55v-29.86c0-3.79 3.25-6.16 6.21-6.16h27.62v11.68h-12.4l6.65 6.79c4.01 4.06 6.44 9.67 6.44 15.29-.01 9.55-7.87 21.32-22.61 21.32z"/><path class="st2" d="M322 527.7V6.29c0-3.07-2.04-5.13-5.13-5.13H6.12C3.06 1.16 1 3.22 1 6.29V527.7c0 3.09 2.06 5.14 5.12 5.14h310.75c3.09 0 5.13-2.05 5.13-5.14zm-24.69-21.06c0 1.12-.91 2.04-2.06 2.04H27.75c-1.13 0-2.07-.91-2.07-2.04V373.28c0-.74.6-1.59 1.68-1.51 39.09 5.25 83.78 30.67 127.15 55.37 46.93 26.75 95.33 54.29 140.84 59.31 1.24.15 1.96.9 1.96 2.03v18.16zm0-47.1c0 1.1-.75 2.15-1.97 2.06-39.77-5.32-84.86-30.99-128.61-55.92-46.41-26.43-94.27-53.64-138.98-58.74-1.28-.15-2.07-.91-2.07-2.08v-69.25c0-1.12.94-2.03 2.07-2.03h99.42c1.69 0 2.9.36 4.01 1.35l164.2 143.01c1.04.92 1.93 1.99 1.93 4.14v37.46zm0-75.87c0 2.04-1.19 2.15-2.37 1.12L140.45 250.2c-1.15-.96-2.37-1.35-4.06-1.35H27.75c-1.13 0-2.07-.91-2.07-2.04v-45.63c0-2.59.28-3.87 1.56-5.78L89.4 97.99c.96-1.48 2.32-1.53 3.28 0l65.56 102.77c.97 1.53 2.34 1.51 3.29 0l30.05-47.06c.94-1.25 2.16-1.19 3.09.23v-.01l101.2 158.6c1.18 1.81 1.44 3.1 1.44 5.64v65.51zm0-118.56c0 1.32-1.23 1.8-2.06.57L194.67 108.02v.01c-.91-1.43-2.15-1.51-3.07-.3l-30.06 47.1c-.96 1.5-2.31 1.52-3.28.02L92.65 52.02c-.97-1.45-2.28-1.43-3.19-.02l-61.71 96.73c-.81 1.22-2.07.72-2.07-.61V27.36c0-1.12.94-2.05 2.07-2.05h267.5c1.15 0 2.06.93 2.06 2.05v237.75z"/></svg>