<svg id="Layer_1" xmlns="http://www.w3.org/2000/svg" viewBox="0 0 152 152"><style>.st1{fill:#fff}</style><path class="st1" d="M76 1C34.64 1 1 34.65 1 76s33.64 75 75 75 75-33.64 75-75S117.35 1 76 1zm0 10.01c35.84 0 65 29.16 65 64.99 0 4.3-.43 8.51-1.23 12.58l-59.9-59.9-27.48 27.48-24.17-24.17C40.11 19.1 57.12 11.01 76 11.01zM11.13 72.13c.92.3 1.81.6 2.68.93l3.52-9.37c-1.53-.58-3.13-1.11-4.8-1.62a64.582 64.582 0 0 1 9.46-22.18l30.41 30.4 27.48-27.47 56.04 56.04H15.17A64.454 64.454 0 0 1 11 76c0-1.3.05-2.59.13-3.87zM76 140.99c-23.85 0-44.73-12.92-56.03-32.12h112.07c-11.31 19.2-32.19 32.12-56.04 32.12z"/><path class="st1" d="M72.19 86l-4.73-8.81c-2.74 1.45-5.33 2.82-8.12 3.62l2.76 9.62c3.79-1.1 6.96-2.78 10.09-4.43zm15.61-3.82l.28.05 1.55-9.89c-4.13-.76-7.99-.61-11.92.43l2.57 9.67c2.5-.67 4.91-.75 7.52-.26zm-58.1.33l5.97-8.03c-.52-.39-1.04-.77-1.56-1.17-2.08-1.57-4.24-3.2-6.96-4.87l-5.21 8.54c2.3 1.4 4.25 2.88 6.14 4.3.54.42 1.08.83 1.62 1.23zm20.45 8.76l1.34-9.91c-.71-.1-1.44-.23-2.19-.4-2.27-.53-4.27-1.16-6.11-1.95l-3.93 9.2c2.38 1.02 4.93 1.84 7.79 2.5 1.05.23 2.09.42 3.1.56zm52.71 0l3.08-13.98-17.05 10.9z"/></svg>