<svg xmlns="http://www.w3.org/2000/svg" viewBox="0 0 960 840"><defs><style>.cls-3{fill:#fff}.cls-4{fill:#081b36}</style></defs><g id="Layer_2" data-name="Layer 2"><g id="Layer_1-2" data-name="Layer 1"><path fill="#ffe72d" d="M0 0h960v840H0z"/><path d="M625.09 418c0 1.41-1.32 1.92-2.2.61L515.44 250.16c-1-1.53-2.3-1.61-3.28-.32L480 300.17c-1 1.6-2.47 1.62-3.5 0l-70.05-109.84c-1-1.54-2.44-1.52-3.41 0l-65.93 103.32c-.86 1.3-2.21.77-2.21-.65V164a2.22 2.22 0 0 1 2.21-2.19h285.78a2.19 2.19 0 0 1 2.2 2.19z" fill="#7dcfe7"/><path class="cls-3" d="M625.09 676a2.18 2.18 0 0 1-2.2 2.18H337.11a2.2 2.2 0 0 1-2.21-2.18V533.54a1.62 1.62 0 0 1 1.8-1.61c41.76 5.61 89.5 32.76 135.83 59.15 50.14 28.58 101.84 58 150.46 63.36a2.12 2.12 0 0 1 2.1 2.17zm0-50.31a2 2 0 0 1-2.11 2.2c-42.48-5.68-90.65-33.1-137.39-59.74-49.59-28.23-100.71-57.3-148.48-62.75a2.21 2.21 0 0 1-2.21-2.22v-74a2.2 2.2 0 0 1 2.21-2.17h106.21a5.89 5.89 0 0 1 4.29 1.44L623 581.25a5.32 5.32 0 0 1 2.06 4.42z"/><path class="cls-3" d="M625.09 544.64c0 2.18-1.27 2.3-2.53 1.2l-165-143.79a6.26 6.26 0 0 0-4.34-1.44H337.11a2.2 2.2 0 0 1-2.21-2.18v-48.75c0-2.76.3-4.13 1.67-6.17L403 239.44c1-1.58 2.48-1.63 3.51 0l70 109.8c1 1.63 2.5 1.61 3.51 0L512.13 299c1-1.34 2.31-1.27 3.31.25l108.11 169.38c1.26 1.93 1.54 3.31 1.54 6zM562.16 161.8h-4.74c.13.11.19.19.31.28a3.83 3.83 0 0 0 4.43-.28zm27.59 16.2a3.81 3.81 0 1 0-6.42-4.09 3.81 3.81 0 1 0 6.42 4.09zm-30.82 100.15a3.82 3.82 0 0 0 4.13-6.42 3.82 3.82 0 1 0-4.13 6.42zm-23.3-110.94a3.84 3.84 0 0 0 5.23-5.41h-6.3s0 .07-.07.11a3.88 3.88 0 0 0 1.14 5.3zM580.42 215a3.83 3.83 0 1 0 4.1-6.46 3.8 3.8 0 0 0-5.26 1.16 3.85 3.85 0 0 0 1.16 5.3zm-8.1-9.73a3.82 3.82 0 1 0-5.26 1.17 3.78 3.78 0 0 0 5.26-1.17zm4.06-35.83a3.82 3.82 0 1 0-6.44-4.11 3.82 3.82 0 0 0 6.44 4.11zm-.62 23.35a3.83 3.83 0 1 0-1.15-5.29 3.83 3.83 0 0 0 1.15 5.29zm-133.12-27.24a3.81 3.81 0 0 0 5.28-1.16 3.74 3.74 0 0 0 .53-2.59h-7.54a3.85 3.85 0 0 0 1.73 3.75zM336.31 266.18a3.82 3.82 0 0 0 6.44 4.12 3.82 3.82 0 1 0-6.44-4.12zm205.8 15.97a3.83 3.83 0 1 0-6.84-.9l1 1.63a1.81 1.81 0 0 0 .53.4 3.8 3.8 0 0 0 5.31-1.13zm13.39 8.49a3.83 3.83 0 1 0-5.28 1.17 3.84 3.84 0 0 0 5.28-1.17zM411.72 161.8h-4.94a3.15 3.15 0 0 0 .43.36 3.76 3.76 0 0 0 4.51-.36zm147.82 93.01a3.82 3.82 0 1 0-5.28 1.14 3.82 3.82 0 0 0 5.28-1.14zm-213.89-25.64a3.82 3.82 0 1 0 1.16 5.27 3.84 3.84 0 0 0-1.16-5.27zm42.95-44.97a3.82 3.82 0 1 0 6.44 4.12 3.82 3.82 0 1 0-6.44-4.12zm-38.29 67.16a3.83 3.83 0 1 0 1.16 5.27 3.84 3.84 0 0 0-1.16-5.27zm149.87-87.55a3.83 3.83 0 0 0 5.28-1.18 3.15 3.15 0 0 0 .39-.83h-7.2a3.85 3.85 0 0 0 1.53 2.01zm43.6 42.5a3.83 3.83 0 0 0 6.47 4.1 3.83 3.83 0 1 0-6.47-4.1zm-6.32 53.6a3.82 3.82 0 1 0-5.27 1.18 3.82 3.82 0 0 0 5.27-1.18zM402.6 169.37a3.83 3.83 0 1 0 1.14 5.27 3.82 3.82 0 0 0-1.14-5.27zm138.93 54.71a3.83 3.83 0 0 0-6.45-4.12 3.83 3.83 0 0 0 6.45 4.12zm-13.94 44.24a2.89 2.89 0 0 0-.8-.37l2.53 4a3.85 3.85 0 0 0-1.73-3.63zM563 242.29a3.83 3.83 0 0 0 5.29-1.17 3.83 3.83 0 0 0-6.46-4.1 3.84 3.84 0 0 0 1.17 5.27zm-138.33-78.05a3.83 3.83 0 1 0 1.16 5.27 3.82 3.82 0 0 0-1.16-5.27zm-17.4 27.31l1.72 2.74a3.84 3.84 0 0 0-1.72-2.74zm22.07-5.13a3.83 3.83 0 1 0 1.17 5.28 3.84 3.84 0 0 0-1.17-5.28zM554.9 232.6a3.82 3.82 0 1 0-5.28 1.17 3.83 3.83 0 0 0 5.28-1.17zm4.1-35.85a3.82 3.82 0 1 0-5.28 1.17 3.82 3.82 0 0 0 5.28-1.17zm-4.71-22.18a3.82 3.82 0 1 0-5.27 1.16 3.8 3.8 0 0 0 5.27-1.16zm13.36 8.52a3.81 3.81 0 1 0-5.27 1.18 3.83 3.83 0 0 0 5.27-1.18zm-9.31 37.03a3.82 3.82 0 1 0-1.18-5.29 3.83 3.83 0 0 0 1.18 5.29zm-12.79 49.5a3.86 3.86 0 0 0 5.3-1.17 3.82 3.82 0 1 0-5.3 1.17zm-1.13-86.68a3.82 3.82 0 1 0 1.15 5.26 3.76 3.76 0 0 0-1.15-5.26zm-3.52 64.5a3.84 3.84 0 0 0 5.27-1.18 3.81 3.81 0 1 0-6.42-4.12 3.85 3.85 0 0 0 1.15 5.3zm-206 2.41a3.81 3.81 0 1 0 0-7.62zm14.82-56.55a3.83 3.83 0 1 0 1.15 5.26 3.8 3.8 0 0 0-1.15-5.26zm227.86 92.2a3.82 3.82 0 1 0-5.26 1.19 3.82 3.82 0 0 0 5.26-1.19zm4.03 45.55a3.78 3.78 0 0 0 5.27-1.14 3.83 3.83 0 1 0-5.27 1.14zm-8.1-9.68a3.78 3.78 0 0 0-1.14-5.26 3.82 3.82 0 1 0 1.14 5.26zM345.05 171.13a3.81 3.81 0 1 0 1.14 5.24 3.78 3.78 0 0 0-1.14-5.24zm-9.35 36.99a3.84 3.84 0 0 0 6.47 4.15 3.84 3.84 0 0 0-6.47-4.15zM591 294a3.83 3.83 0 1 0-5.28 1.18A3.84 3.84 0 0 0 591 294zm-162.3-84.2a3.83 3.83 0 0 0 6.46 4.11 3.83 3.83 0 1 0-6.46-4.11zm131.47 103.03a3.83 3.83 0 0 0-6.47-4.09 2.45 2.45 0 0 0-.37.82l3.2 5a3.94 3.94 0 0 0 3.64-1.73zm16.83-3.96a3.82 3.82 0 1 0-1.17-5.26 3.78 3.78 0 0 0 1.17 5.26zm34.81-54.64a3.83 3.83 0 1 0 4.12-6.45 3.81 3.81 0 0 0-5.26 1.18 3.77 3.77 0 0 0 1.14 5.27zm4.67 22.18a3.82 3.82 0 1 0-1.17-5.28 3.8 3.8 0 0 0 1.17 5.28zM595 258.18a3.81 3.81 0 1 0-5.26 1.19 3.78 3.78 0 0 0 5.26-1.19zm17.44-27.32a3.82 3.82 0 0 0-6.45-4.1 3.84 3.84 0 0 0 1.19 5.28 3.8 3.8 0 0 0 5.26-1.18zm12.65 9.33v-5.71a1.57 1.57 0 0 0-.44-.36 3.84 3.84 0 0 0-5.28 1.15 3.8 3.8 0 0 0 5.72 4.92zm-30.72 41.36a3.84 3.84 0 0 0 4.14-6.46 3.9 3.9 0 0 0-5.3 1.19 3.83 3.83 0 0 0 1.16 5.27zm4.68 22.19a3.81 3.81 0 1 0-1.17-5.28 3.85 3.85 0 0 0 1.17 5.28zm9.33-37.02a3.82 3.82 0 1 0-6.44-4.11 3.82 3.82 0 0 0 6.44 4.11zM581 273a3.82 3.82 0 1 0-1.16-5.27A3.82 3.82 0 0 0 581 273zm9.37-37a3.83 3.83 0 1 0-5.28 1.18 3.84 3.84 0 0 0 5.28-1.18zm-26.77 64.33a3.81 3.81 0 1 0-1.17-5.28 3.81 3.81 0 0 0 1.17 5.28zm30.81-100.17A3.82 3.82 0 1 0 588 196a3.82 3.82 0 0 0 6.43 4.12zm-.62 23.32a3.82 3.82 0 1 0-1.17-5.26 3.82 3.82 0 0 0 1.17 5.26zm-244.7-6.82a3.82 3.82 0 1 0 5.27-1.17 3.86 3.86 0 0 0-5.27 1.17zm223.83 46.65a3.82 3.82 0 1 0-5.28 1.18 3.84 3.84 0 0 0 5.28-1.18zm3.43-12.49a3.83 3.83 0 1 0-1.15-5.28 3.85 3.85 0 0 0 1.15 5.28zm22.09-5.15a3.82 3.82 0 1 0 4.14-6.41 3.84 3.84 0 0 0-5.3 1.17 3.78 3.78 0 0 0 1.16 5.24zM577 227.49a3.83 3.83 0 1 0-6.45-4.12 3.83 3.83 0 0 0 6.45 4.12zm48.09-45.99v-4.44a3.65 3.65 0 0 0-1-1 3.82 3.82 0 1 0 1 5.43zm-240-14.21a3.82 3.82 0 0 0 5.28-1.15 3.88 3.88 0 0 0-.14-4.34h-6.14a1 1 0 0 0-.14.22 3.83 3.83 0 0 0 1.14 5.27zm239.51 37.4a1.89 1.89 0 0 0 .49.25V198a3.81 3.81 0 0 0-.49 6.7zm-271.46-23.86a3.75 3.75 0 0 0 1.16 5.24 3.82 3.82 0 1 0-1.16-5.24zm258.09 15.34a3.82 3.82 0 1 0-1.16-5.28 3.79 3.79 0 0 0 1.16 5.28zm.6-23.38a3.78 3.78 0 0 0-1.14-5.25 3.82 3.82 0 0 0-4.14 6.43 3.78 3.78 0 0 0 5.28-1.18zm13.26 89.89v-6.31a3.91 3.91 0 0 0-1.07 1.11 3.82 3.82 0 0 0 1.07 5.2zm-17.3-54a3.82 3.82 0 1 0-5.29 1.17 3.83 3.83 0 0 0 5.29-1.17zm8.09 9.67a3.8 3.8 0 1 0-1.18-5.27 3.83 3.83 0 0 0 1.18 5.27zM367.14 166a3.83 3.83 0 1 0 1.16 5.28 3.83 3.83 0 0 0-1.16-5.28zm-4.69 59.21a3.82 3.82 0 0 0 6.45 4.1 3.82 3.82 0 0 0-6.45-4.1zM357.79 203a3.82 3.82 0 0 0 6.45 4.1 3.82 3.82 0 1 0-6.45-4.1zm14.01-14.85a3.83 3.83 0 0 0-5.28 1.19 3.78 3.78 0 0 0 1.17 5.27 3.83 3.83 0 0 0 4.11-6.46zm8.71-13.64a3.83 3.83 0 1 0 1.15 5.28 3.82 3.82 0 0 0-1.15-5.28zm-26.77 64.35a3.82 3.82 0 0 0 6.44 4.12 3.82 3.82 0 1 0-6.44-4.12zm26.14-41a3.82 3.82 0 1 0 5.26-1.16 3.84 3.84 0 0 0-5.26 1.16zm-8.72 13.66a3.83 3.83 0 1 0 6.46 4.13 3.79 3.79 0 0 0-1.17-5.26 3.84 3.84 0 0 0-5.29 1.13zm45.97-28.34a3.85 3.85 0 0 0-1.16-5.3 3.9 3.9 0 0 0-5.3 1.18 3.83 3.83 0 0 0 6.46 4.12zm20.93-10.41a3.83 3.83 0 1 0 1.14 5.28 3.83 3.83 0 0 0-1.14-5.28zm.57 58.05a3.79 3.79 0 0 0-5.26 1.16 2.5 2.5 0 0 0-.17.33l3.57 5.54a3.91 3.91 0 0 0 3-1.76 3.8 3.8 0 0 0-1.14-5.27z"/><path class="cls-3" d="M457.84 266.8a3.8 3.8 0 0 0-5.74-4.89l4.07 6.34a3.81 3.81 0 0 0 1.67-1.45zm38.36-37.73a3.83 3.83 0 0 0-5.28 1.18 3.82 3.82 0 0 0 6.45 4.09 3.83 3.83 0 0 0-1.17-5.27zm-43.03 15.55a3.82 3.82 0 1 0-6.44-4.1 3.82 3.82 0 1 0 6.44 4.1zm140.01-79.16a3.78 3.78 0 0 0 5.82-3.66h-7.55a3.86 3.86 0 0 0 1.73 3.66zm-171.4 39.92a3.82 3.82 0 0 0-6.44-4.12 3.92 3.92 0 0 0-.6 2.09l2.17 3.39a3.78 3.78 0 0 0 4.87-1.36zm73.79 47.06a3.82 3.82 0 0 0 6.44 4.12 3.82 3.82 0 1 0-6.44-4.12zm101.12-70.1a3.82 3.82 0 1 0 5.28-1.13 3.82 3.82 0 0 0-5.28 1.13zm-109.82 2.35A3.81 3.81 0 1 0 488 190a3.8 3.8 0 0 0-1.13-5.31zm-.61 23.31a3.82 3.82 0 1 0 5.27-1.16 3.83 3.83 0 0 0-5.27 1.16zm-4.04-45.5a3.81 3.81 0 0 0-5.3 1.17 3.82 3.82 0 1 0 6.45 4.09 3.79 3.79 0 0 0-1.15-5.26zm13.38 8.5a3.81 3.81 0 1 0 1.16 5.26 3.8 3.8 0 0 0-1.16-5.26zm12.73 31.92a3.83 3.83 0 0 0 6.44 4.13 3.9 3.9 0 0 0-1.14-5.33 3.84 3.84 0 0 0-5.3 1.2zm-35.46-3.42a3.83 3.83 0 1 0 5.26-1.13 3.83 3.83 0 0 0-5.26 1.13zm26.74 17.05a3.84 3.84 0 0 0 6.47 4.15 3.82 3.82 0 0 0-1.18-5.28 3.89 3.89 0 0 0-5.29 1.13zm9.39-37.02a3.86 3.86 0 0 0-5.26 1.18 3.8 3.8 0 0 0 1.14 5.29 3.84 3.84 0 1 0 4.12-6.47zm-57.59 1.77a3.81 3.81 0 1 0 1.18 5.26 3.8 3.8 0 0 0-1.18-5.26zm22.09-5.14a3.82 3.82 0 1 0 1.17 5.25 3.8 3.8 0 0 0-1.17-5.25zm-31.41 42.16a3.82 3.82 0 1 0 5.27-1.17 3.83 3.83 0 0 0-5.27 1.17zm75.59-52.44a3.83 3.83 0 1 0 1.16 5.29 3.82 3.82 0 0 0-1.16-5.29zM442.71 195a3.83 3.83 0 1 0-4.13 6.46 3.83 3.83 0 0 0 4.13-6.46zm8.09 9.66a3.82 3.82 0 1 0 5.27-1.14 3.8 3.8 0 0 0-5.27 1.14zm9.35-37.02a3.82 3.82 0 0 0-5.3 1.18 3.75 3.75 0 0 0 1.17 5.23 3.81 3.81 0 0 0 4.13-6.41zm4.01 45.56a3.82 3.82 0 1 0 5.29-1.18 3.82 3.82 0 0 0-5.29 1.18zm.64-23.37a3.83 3.83 0 1 0 1.14 5.28 3.83 3.83 0 0 0-1.14-5.28zm8.68 67.74a3.83 3.83 0 0 0 6.45 4.12 3.83 3.83 0 1 0-6.45-4.12zm13.38 8.54a3.82 3.82 0 1 0 5.27-1.18 3.82 3.82 0 0 0-5.27 1.18zm-22.09 5.13a3.81 3.81 0 1 0 5.27-1.18 3.84 3.84 0 0 0-5.27 1.18zm-4.05-45.56a3.81 3.81 0 1 0 1.18 5.32 3.82 3.82 0 0 0-1.18-5.32zm4.68 22.19a3.84 3.84 0 1 0 1.14 5.28 3.81 3.81 0 0 0-1.14-5.28zm56.94-59.79a3.83 3.83 0 1 0 1.15 5.27 3.83 3.83 0 0 0-1.15-5.27zm-34.87 54.67a3.84 3.84 0 0 0-5.28 1.13 3.91 3.91 0 0 0 1.18 5.33 3.83 3.83 0 0 0 4.1-6.46zm-4.65-22.2a3.86 3.86 0 0 0-5.3 1.14 3.84 3.84 0 1 0 6.48 4.14 3.85 3.85 0 0 0-1.18-5.28zm1.76 63.33a3.82 3.82 0 1 0-5.27 1.16 3.81 3.81 0 0 0 5.27-1.16zM474.1 234.2a3.82 3.82 0 0 0-4.11 6.45 3.82 3.82 0 1 0 4.11-6.45zm62.77-32.31a3.84 3.84 0 0 0-6.47-4.12 3.84 3.84 0 0 0 6.47 4.12zm-5.82-27.49a3.84 3.84 0 0 0-5.27 1.19 3.78 3.78 0 0 0 1.14 5.27 3.83 3.83 0 0 0 4.13-6.46zm-4.67 59.23a3.82 3.82 0 1 0 5.27-1.16 3.83 3.83 0 0 0-5.27 1.16zm-4.67-22.19a3.82 3.82 0 1 0 5.29-1.16 3.82 3.82 0 0 0-5.29 1.16zm-11.01 31.44a3.77 3.77 0 0 0-1.14-5.27 3.82 3.82 0 1 0-4.12 6.44 3.78 3.78 0 0 0 5.26-1.17zm6.94 4.41a3.83 3.83 0 1 0 5.3-1.17 3.84 3.84 0 0 0-5.3 1.17zm-41.79 50.24a3.8 3.8 0 0 0-4.6-5.59l4 6.28a2.8 2.8 0 0 0 .6-.69zM518.27 224a3.81 3.81 0 1 0 1.17 5.28 3.8 3.8 0 0 0-1.17-5.28zm-18.01-30.77a3.83 3.83 0 1 0 1.14 5.28 3.86 3.86 0 0 0-1.14-5.28zm-150.6-29.35a3.81 3.81 0 0 0 5.27-1.16 3.27 3.27 0 0 0 .43-.93h-7.3a3.8 3.8 0 0 0 1.6 2.09zm271.52 245.54a3.82 3.82 0 0 0 1.14 5.27 3.9 3.9 0 0 0 2.77.55v-7.49a3.69 3.69 0 0 0-3.91 1.67zm3.91-35.61a3.88 3.88 0 0 0 0 3.64zm-12.02 25.91a3.9 3.9 0 0 0-2.54-.55l3.72 5.85a3.88 3.88 0 0 0-1.18-5.3zM625.09 357v-7.15a3.82 3.82 0 0 0-3.37 6.8 3.7 3.7 0 0 0 3.37.35zm-25.46 4.79a3.83 3.83 0 0 0 4.13-6.44 3.79 3.79 0 0 0-5.27 1.16 3.83 3.83 0 0 0 1.14 5.28zM595 339.6a3.85 3.85 0 0 0 5.3-1.18 3.81 3.81 0 1 0-5.3 1.18zm9.32 44.4a3.8 3.8 0 1 0-1.18-5.27 3.8 3.8 0 0 0 1.18 5.27zm-8.71-67.78a3.81 3.81 0 0 0-6.44-4.09 3.81 3.81 0 1 0 6.44 4.09zm-258.1-126.15a3.87 3.87 0 0 0-1.17-5.3 3.78 3.78 0 0 0-1.44-.55v7.52a3.66 3.66 0 0 0 2.61-1.67zm252.87 156.76a3.82 3.82 0 1 0 1.15 5.28 3.81 3.81 0 0 0-1.15-5.28zM609 324.76a3.81 3.81 0 1 0-5.26 1.16 3.79 3.79 0 0 0 5.26-1.16zm-30.83 18.81a3.81 3.81 0 0 0-6.07-4.57l3.94 6.17a4 4 0 0 0 2.13-1.6zm38.91-9.11a3.82 3.82 0 1 0-1.17-5.28 3.81 3.81 0 0 0 1.17 5.28zM613.64 347a3.82 3.82 0 1 0-5.29 1.16 3.81 3.81 0 0 0 5.29-1.16zm-17.43 27.29A3.83 3.83 0 0 0 595 369a3.78 3.78 0 0 0-3.84-.14l4.07 6.4a4.39 4.39 0 0 0 .98-.97zm16.79-3.98a3.82 3.82 0 1 0-1.17-5.26 3.85 3.85 0 0 0 1.17 5.26zm12.09-55.39a4 4 0 0 0-.47.6 3.81 3.81 0 0 0 .47 4.7zm0-16.23v-6.6a3.8 3.8 0 0 0-5.12 1.24 3.81 3.81 0 0 0 5.12 5.36zm-12.67 13.58a3.82 3.82 0 1 0-1.17-5.27 3.82 3.82 0 0 0 1.17 5.27zm.58-23.37a3.82 3.82 0 1 0-5.26 1.18 3.81 3.81 0 0 0 5.26-1.18zm4.68 103.61a3.82 3.82 0 1 0-1.17-5.28 3.83 3.83 0 0 0 1.17 5.28z"/><path class="cls-4" d="M395.56 651.82h-12.63a21.32 21.32 0 0 1-21.62-21.52V593h17v37a5.68 5.68 0 0 0 5.43 5.92h12c5.39 0 7.7-2.83 7.7-7.64a7.23 7.23 0 0 0-2.06-5l-5.77-6v14.2h-12.77v-31.9a6.65 6.65 0 0 1 6.63-6.58H419v12.48h-13.27l7.11 7.25a23.67 23.67 0 0 1 6.88 16.34c-.02 10.18-8.41 22.75-24.16 22.75z"/><path class="cls-4" d="M651.46 698.51v-557A5.18 5.18 0 0 0 646 136H314a5.18 5.18 0 0 0-5.47 5.48v557A5.18 5.18 0 0 0 314 704h332a5.17 5.17 0 0 0 5.46-5.49zM625.09 676a2.18 2.18 0 0 1-2.2 2.18H337.11a2.2 2.2 0 0 1-2.21-2.18V533.54a1.62 1.62 0 0 1 1.8-1.61c41.76 5.61 89.5 32.76 135.83 59.15 50.14 28.58 101.84 58 150.46 63.36a2.12 2.12 0 0 1 2.1 2.17zm0-50.32a2 2 0 0 1-2.11 2.2c-42.48-5.68-90.65-33.1-137.39-59.74-49.59-28.22-100.71-57.29-148.48-62.74a2.21 2.21 0 0 1-2.21-2.22v-74a2.2 2.2 0 0 1 2.21-2.17h106.21a5.89 5.89 0 0 1 4.29 1.44L623 581.25a5.32 5.32 0 0 1 2.06 4.42zm0-81.05c0 2.18-1.27 2.3-2.53 1.2l-165-143.79a6.26 6.26 0 0 0-4.34-1.44H337.11a2.2 2.2 0 0 1-2.21-2.18v-48.74c0-2.76.3-4.13 1.67-6.17L403 239.44c1-1.58 2.48-1.63 3.51 0l70 109.8c1 1.63 2.5 1.61 3.51 0L512.13 299c1-1.34 2.31-1.27 3.31.25l108.11 169.38c1.26 1.93 1.54 3.31 1.54 6zm0-126.66c0 1.41-1.32 1.92-2.2.61L515.44 250.16c-1-1.53-2.3-1.61-3.28-.32L480 300.17c-1 1.6-2.47 1.62-3.5 0l-70.05-109.84c-1-1.54-2.44-1.52-3.41 0l-65.93 103.32c-.86 1.3-2.21.77-2.21-.65V164a2.22 2.22 0 0 1 2.21-2.19h285.78a2.19 2.19 0 0 1 2.2 2.19z"/></g></g></svg>