<svg id="Layer_1" xmlns="http://www.w3.org/2000/svg" viewBox="0 0 152 152"><style>.st1{fill:#fff}</style><path class="st1" d="M76 1C34.64 1 1 34.65 1 76s33.64 75 75 75 75-33.64 75-75c0-41.35-33.64-75-75-75zm0 10.01c35.84 0 65 29.16 65 64.99 0 6.72-1.02 13.2-2.92 19.29-4.81-2.27-11.96-6.75-16.48-11.83-5.61-6.32-10.44-10.79-21.42-10.79H85.71c-2.78 0-3.62-.54-4.62-1.93l-6.71-8.82H59.1l-1.46 2.42C46.06 83.57 25.87 90.31 12.91 91.62c-.83-3.34-1.39-6.77-1.67-10.29 1.93-.38 3.81-.8 5.6-1.3l-2.69-9.64c-.94.26-1.95.48-2.94.71C13.72 37.55 41.81 11.01 76 11.01zm48.38 87.86H27.19c12.86-3.85 27.47-11.88 37.49-26.94h4.74l3.63 4.77c3.82 5.29 8.77 5.97 12.66 5.97h14.46c6.73 0 9.05 1.93 13.94 7.43 2.68 3.02 6.36 6.09 10.27 8.77zM76 140.99c-23.85 0-44.73-12.92-56.03-32.12h112.07c-11.31 19.2-32.19 32.12-56.04 32.12z"/><path class="st1" d="M79 41.4l-.34-10c-3.73.13-7.25.58-10.45 1.35l2.34 9.73c2.54-.62 5.39-.98 8.45-1.08zm37.22 6.48c-2.68-2.45-5.24-4.55-7.83-6.43l-5.88 8.09c2.25 1.63 4.59 3.56 6.96 5.73l6.75-7.39zM99.53 36.02c-3.35-1.67-6.74-2.9-10.08-3.67l-2.24 9.75c2.57.59 5.21 1.56 7.86 2.88l4.46-8.96zm-63.94 35l-5.94-8.05a43.597 43.597 0 0 1-7.36 4.41l4.3 9.03c3.19-1.51 6.14-3.28 9-5.39zm27.36-25.61l-4.88-8.73c-2.96 1.65-5.78 3.74-8.62 6.38l6.81 7.33c2.25-2.09 4.43-3.72 6.69-4.98zM49.3 57.76l.7-.79-7.48-6.64-.71.8c-1.79 2.01-3.63 4.09-5.58 6.06l7.12 7.03c2.14-2.17 4.08-4.35 5.95-6.46zm77.58 8.21l.28-14.3-14.59 14.02z"/></svg>