<svg id="Layer_1" xmlns="http://www.w3.org/2000/svg" viewBox="0 0 152 152"><style>.st1{fill:#fff}</style><path class="st1" d="M119.84 47.56l-12.79-6.41 6.37 19.2z"/><path class="st1" d="M76 1C34.64 1 1 34.65 1 76s33.64 75 75 75 75-33.64 75-75S117.35 1 76 1zM13.7 57.5c.29 0 .57.01.87.01 3.32 0 6.3-.21 9.1-.64l-1.51-9.89c-1.42.22-2.93.36-4.52.44C28.23 25.88 50.41 11.01 76 11.01c35.84 0 65 29.16 65 64.99 0 8.05-1.48 15.75-4.17 22.87h-24.08V79.11c3.02-.81 5.52-1.78 7.88-2.69.71-.28 1.41-.55 2.13-.82V65.02c-2.11.66-3.97 1.38-5.76 2.08-5.05 1.97-9.83 3.83-19.59 3.83s-14.54-1.86-19.59-3.83c-5.43-2.11-11.58-4.51-23.22-4.51-11.64 0-17.79 2.4-23.22 4.51-.71.28-1.41.55-2.13.81V78.5c2.11-.66 3.97-1.38 5.76-2.08 1.4-.54 2.78-1.08 4.25-1.57v24.02H15.17A64.55 64.55 0 0 1 11 76c0-6.43.96-12.63 2.7-18.5zm40.89 15.09c7.72 0 12.32 1.16 16.41 2.62v23.66H49.25V72.8c1.61-.13 3.37-.21 5.34-.21zM81 78.81c4.12 1.2 9.22 2.11 16.4 2.11 1.93 0 3.69-.07 5.34-.19v18.14H81V78.81zm-5 62.18c-23.85 0-44.73-12.92-56.03-32.12h112.07c-11.31 19.2-32.19 32.12-56.04 32.12z"/><path class="st1" d="M36.67 52.96c2.14-.89 4.17-1.72 6.54-2.38l-2.69-9.64c-2.94.82-5.35 1.81-7.67 2.77-.72.3-1.44.6-2.18.89l3.68 9.3c.79-.3 1.55-.62 2.32-.94zm64.19 4.33l-.83-9.97c-2.86.24-6.32.24-9.18.02l-.78 9.97c1.64.13 3.41.19 5.24.2 1.94 0 3.81-.07 5.55-.22zm-45.92-8.12c2.25 0 4.26.11 6.16.33l1.16-9.94c-2.29-.27-4.68-.4-7.32-.4-1.23 0-2.39.03-3.48.08l.49 9.99c.95-.03 1.94-.06 2.99-.06zm24.21 6.04l3.06-9.52c-1.8-.58-3.44-1.26-5.17-1.97-1.29-.53-2.58-1.06-3.95-1.57l-3.45 9.39c1.24.45 2.4.94 3.57 1.42 1.85.76 3.75 1.55 5.94 2.25z"/></svg>