<svg width="1728" height="943" viewBox="0 0 1728 943" fill="none" xmlns="http://www.w3.org/2000/svg">
<rect width="1728" height="943" transform="matrix(1 0 0 -1 0 943)" fill="#FFBD00"/>
<g clip-path="url(#clip0_969_33)">
<path d="M879.728 306.337C891.977 306.337 901.907 296.391 901.907 284.121C901.907 271.852 891.977 261.905 879.728 261.905C867.479 261.905 857.55 271.852 857.55 284.121C857.55 296.391 867.479 306.337 879.728 306.337Z" fill="#1C1EFF"/>
<path d="M1149.46 583.422C1157.1 583.422 1163.29 577.22 1163.29 569.569C1163.29 561.918 1157.1 555.716 1149.46 555.716C1141.82 555.716 1135.63 561.918 1135.63 569.569C1135.63 577.22 1141.82 583.422 1149.46 583.422Z" fill="#1C1EFF"/>
<path d="M1220.27 576.757C1224.89 576.757 1228.64 573.005 1228.64 568.376C1228.64 563.747 1224.89 559.995 1220.27 559.995C1215.65 559.995 1211.9 563.747 1211.9 568.376C1211.9 573.005 1215.65 576.757 1220.27 576.757Z" fill="#1C1EFF"/>
<path d="M529.004 639.79V576.258L596.074 639.79H529.004Z" fill="#1C1EFF"/>
<path d="M1385.78 320.695L1324.62 275.947L1263.46 320.695H1281.65V387.842H1367.6V320.695H1385.78Z" fill="white"/>
<path d="M835.682 573.927L789.636 503.426L872.747 516.342L835.682 573.927Z" fill="white"/>
<path d="M570.001 338.018H582.859V350.897C582.859 364.841 571.557 376.162 557.636 376.162H544.778V363.283C544.778 349.339 556.08 338.018 570.001 338.018Z" fill="white"/>
<path d="M531.083 345.042C516.67 345.042 504.942 333.295 504.942 318.857V305.059H518.717C533.13 305.059 544.858 316.806 544.858 331.243V345.042H531.083Z" fill="white"/>
<path d="M464.346 640.502V697.685H401.912V640.502H464.346Z" fill="#EA4335"/>
<path d="M724.272 607.001C739.238 607.001 751.39 619.174 751.39 634.166V683.4H697.153V634.166C697.153 619.174 709.306 607.001 724.272 607.001Z" fill="#EA4335"/>
<path d="M879.729 148.476H623.612V169.262H879.729V148.476Z" fill="#EA4335"/>
<path d="M1358.9 319.247V275.308H1339.91V308.078H1341.83V277.225H1356.99V319.247H1358.9Z" fill="black"/>
<path d="M860.673 742.634L801.994 640.824H914.284C916.934 649.565 920.051 658.141 923.642 666.516H925.726C922.105 658.147 918.957 649.565 916.284 640.824H949.193C950.56 644.659 952.031 648.469 953.622 652.237C955.67 657.094 957.894 661.853 960.276 666.516H962.385C958.083 658.202 954.339 649.626 951.174 640.824H1033.8V570.525H1067.15C1067.69 609.819 1083.22 646.686 1111.02 674.532C1139.33 702.889 1176.96 718.501 1216.99 718.501C1257.02 718.501 1294.67 702.883 1322.97 674.532C1340.82 656.656 1353.6 635.067 1360.62 611.512C1352.35 652.097 1332.43 689.395 1302.52 719.359C1262.26 759.689 1208.73 781.899 1151.8 781.899C1105.88 781.899 1062.19 767.449 1025.88 740.711H1022.69C1036.66 751.241 1051.84 760.012 1068.08 766.889C1094.59 778.125 1122.76 783.822 1151.8 783.822C1180.83 783.822 1209 778.125 1235.51 766.889C1261.13 756.037 1284.12 740.504 1303.88 720.717C1323.63 700.929 1339.14 677.892 1349.97 652.237C1360.7 626.825 1366.36 599.898 1366.83 572.144C1366.86 570.89 1366.88 569.636 1366.88 568.376C1366.88 523.451 1353.21 480.401 1327.35 443.881C1321.03 434.946 1313.95 426.419 1306.33 418.537L1304.96 419.87C1312.51 427.679 1319.52 436.133 1325.79 444.995C1342.97 469.256 1354.71 496.433 1360.59 525.125C1353.56 501.612 1340.79 480.066 1322.98 462.226C1294.67 433.869 1257.03 418.257 1217 418.257C1176.97 418.257 1139.33 433.875 1111.02 462.226C1082.71 490.584 1067.13 528.284 1067.13 568.382C1067.13 568.461 1067.13 568.534 1067.13 568.613H1033.81V435.963H984.557C989.667 429.511 995.172 423.309 1001.07 417.399C1041.33 377.069 1094.87 354.859 1151.8 354.859C1179.79 354.859 1207 360.209 1232.67 370.757C1239.47 373.551 1246.2 376.741 1252.69 380.234L1253.59 378.542C1247.05 375.018 1240.25 371.798 1233.39 368.98C1207.49 358.335 1180.04 352.936 1151.8 352.936C1123.56 352.936 1094.6 358.633 1068.08 369.869C1042.47 380.721 1019.47 396.254 999.717 416.041C993.41 422.359 987.547 429.006 982.12 435.963H681.775L704.561 396.424H880.689V350.148C880.841 350.094 880.992 350.039 881.144 349.984C917.469 349.229 946.787 319.393 946.787 282.831C946.787 246.269 917.219 216.189 880.689 215.672V147.521H622.658V256.379H464.614L384.449 395.463L463.52 532.648C427.475 533.019 393.642 547.237 368.116 572.813C342.243 598.718 328 633.167 328 669.815C328 706.462 342.243 740.906 368.116 766.822C393.983 792.733 428.374 807.006 464.96 807.006H465.92V699.322H530.001V640.83H646.562L587.884 742.64H860.679L860.673 742.634ZM1069.04 568.376C1069.04 528.789 1084.43 491.57 1112.38 463.578C1140.32 435.585 1177.48 420.168 1217 420.168C1256.52 420.168 1293.68 435.585 1321.62 463.578C1349.57 491.57 1364.96 528.789 1364.96 568.376C1364.96 569.612 1364.93 570.847 1364.92 572.083C1363.99 610.282 1348.7 646.059 1321.62 673.181C1293.68 701.173 1256.52 716.59 1217 716.59C1177.48 716.59 1140.32 701.173 1112.38 673.181C1084.94 645.694 1069.61 609.314 1069.07 570.531H1147.37L1136.65 589.18L1138.31 590.135L1149.58 570.525H1175.42V568.607H1150.68L1215.99 454.971L1214.33 454.016L1148.47 568.607H1069.04C1069.04 568.528 1069.04 568.455 1069.04 568.376ZM1031.89 570.525V638.901H950.499C942.703 616.533 938.632 592.765 938.632 568.37C938.632 529.105 949.144 491.46 968.825 458.654H1031.89V568.601H1002.5V570.518H1031.89V570.525ZM980.65 437.88C976.032 443.942 971.73 450.23 967.786 456.742H669.786L680.657 437.88H980.644H980.65ZM589.956 393.485V435.957H528.081V483.986H499.607V393.485H589.956ZM529.995 458.66H589.95V483.986H529.995V458.66ZM591.87 485.903V458.66H666.475L623.843 532.63H530.001V485.903H591.876H591.87ZM591.87 456.742V437.88H678.451L667.58 456.742H591.87ZM624.566 259.562L702.343 394.501H624.566V259.562ZM944.86 282.454H915.044C914.989 270.804 913.033 259.367 909.436 249.3H935.594C941.421 259.008 944.8 270.347 944.867 282.454H944.86ZM880.682 348.067V318.401H906.719C900.983 332.966 891.796 343.91 880.798 348.067C880.762 348.067 880.719 348.067 880.682 348.067ZM880.682 316.477V284.371H913.118C912.966 295.941 910.93 306.922 907.443 316.477H880.682ZM878.768 247.383H852.932C858.686 232.921 867.837 222.026 878.768 217.899V247.383ZM878.768 249.3V282.454H846.412C846.473 270.512 848.563 259.148 852.197 249.3H878.762H878.768ZM878.768 284.377V316.484H852.1C848.606 306.934 846.576 295.947 846.424 284.377H878.768ZM915.032 284.377H944.848C944.575 296.1 941.203 307.062 935.515 316.484H909.454C912.893 306.873 914.886 295.905 915.032 284.377ZM913.13 282.454H880.682V249.3H907.339C910.973 259.148 913.069 270.518 913.124 282.454H913.13ZM880.682 247.383V217.863C891.65 221.965 900.844 232.878 906.61 247.383H880.682ZM854.275 239.671C853.011 242.118 851.863 244.699 850.83 247.383H825.06C835.766 230.876 853.71 219.494 874.357 217.796C866.531 221.947 859.519 229.537 854.275 239.671ZM823.863 249.3H850.113C846.515 259.373 844.559 270.804 844.504 282.454H814.597C814.663 270.341 818.042 259.002 823.869 249.3H823.863ZM844.51 284.377C844.662 295.905 846.655 306.867 850.088 316.484H823.936C818.255 307.068 814.876 296.1 814.603 284.377H844.51ZM850.805 318.395C855.964 331.803 863.973 342.37 873.646 347.787C853.351 345.9 835.73 334.646 825.139 318.395H850.805ZM852.823 318.395H878.768V348.061C878.768 348.061 878.756 348.061 878.75 348.061C867.752 343.904 858.565 332.96 852.823 318.395ZM885.914 347.781C895.582 342.358 903.584 331.797 908.743 318.395H934.318C923.745 334.615 906.167 345.857 885.92 347.781H885.914ZM934.391 247.383H908.713C907.68 244.699 906.531 242.118 905.267 239.671C900.029 229.543 893.023 221.959 885.203 217.808C905.802 219.537 923.703 230.9 934.391 247.383ZM624.566 149.438H878.768V168.3H624.566V149.438ZM624.566 170.217H878.768V215.666C842.232 216.183 812.67 246.105 812.67 282.825C812.67 319.545 842.037 349.272 878.41 349.978C878.531 350.021 878.653 350.063 878.775 350.106V394.501H704.561L624.949 256.379H624.572V170.217H624.566ZM465.719 258.296H622.652V396.418H702.343L679.557 435.957H591.87V391.561H545.738V377.118H557.636C572.073 377.118 583.812 365.353 583.812 350.897V337.062H570.001C559.033 337.062 549.627 343.855 545.738 353.453V345.961H545.775V331.243C545.775 316.301 533.634 304.14 518.717 304.14H504.024V318.857C504.024 333.8 516.165 345.961 531.082 345.961H543.818V391.567H497.687V485.903H528.081V532.63H465.719L386.661 395.463L465.719 258.296ZM543.94 336.186H543.818V344.123H531.082C517.155 344.123 505.86 332.814 505.86 318.857V305.978H518.717C532.644 305.978 543.94 317.287 543.94 331.243V336.186ZM545.738 363.283C545.738 349.881 556.621 338.979 570.001 338.979H581.898V350.897C581.898 364.3 571.016 375.201 557.636 375.201H545.738V363.283ZM529.995 638.871V578.461L593.765 638.871H529.995ZM528.081 638.907H465.914V534.547H528.081V638.907ZM463.994 805.076C428.283 804.827 394.742 790.785 369.465 765.459C343.962 739.914 329.914 705.945 329.914 669.815C329.914 633.685 343.962 599.716 369.465 574.164C394.742 548.844 428.283 534.796 463.994 534.547V638.901H400.144V699.31H463.994V805.07V805.076ZM463.994 640.824V697.393H402.064V640.824H463.994ZM528.081 697.393H465.914V640.824H528.081V697.393ZM596.475 638.907L595.029 637.538L531.18 577.055L529.995 575.929V534.547H624.943L668.68 458.66H966.656C961.759 466.943 957.396 475.568 953.622 484.515C942.406 511.077 936.718 539.294 936.718 568.376C936.718 592.643 940.692 616.302 948.518 638.907H915.706C909.928 619.418 906.531 599.107 905.705 578.346L903.791 578.419C904.611 599.15 907.983 619.43 913.713 638.901H800.882L724.272 505.983L647.662 638.901H596.475V638.907ZM723.318 625.912H720.505V638.907H649.874L723.312 511.491V625.912H723.318ZM725.232 625.912V511.491L798.671 638.907H727.863V625.912H725.232ZM799.776 640.824L857.349 740.717H591.189L648.762 640.824H799.77H799.776Z" fill="black"/>
<path d="M1297.57 544.389C1303.46 565.96 1300.61 588.541 1289.55 607.963L1291.22 608.913C1302.53 589.04 1305.45 565.948 1299.42 543.884C1293.4 521.82 1279.16 503.42 1259.32 492.087L1258.37 493.755C1277.76 504.838 1291.69 522.818 1297.58 544.389H1297.57Z" fill="black"/>
<path d="M1271.38 597.579L1273.04 598.529C1290.69 567.548 1279.88 527.961 1248.95 510.286L1248 511.954C1278.01 529.106 1288.5 567.518 1271.38 597.579Z" fill="black"/>
<path d="M1250.76 585.802L1252.43 586.751C1263.59 567.153 1256.75 542.119 1237.19 530.938L1236.24 532.605C1254.89 543.263 1261.4 567.122 1250.76 585.802Z" fill="black"/>
<path d="M1380.5 471.6C1368 441.995 1350.1 415.402 1327.3 392.572C1304.51 369.741 1277.96 351.81 1248.41 339.29C1217.81 326.326 1185.31 319.752 1151.8 319.752C1118.28 319.752 1084.63 326.557 1053.56 339.984C1023.55 352.954 996.734 371.482 973.845 395.049L975.218 396.388C997.931 372.997 1024.54 354.616 1054.32 341.743C1085.14 328.419 1117.94 321.669 1151.8 321.669C1185.65 321.669 1217.3 328.194 1247.66 341.055C1276.99 353.484 1303.33 371.269 1325.95 393.929C1348.57 416.589 1366.33 442.968 1378.73 472.348C1391.58 502.763 1398.09 535.07 1398.09 568.376C1398.09 601.682 1391.57 633.989 1378.73 664.404C1366.33 693.784 1348.57 720.163 1325.95 742.823C1303.33 765.477 1276.99 783.268 1247.66 795.697C1217.3 808.564 1185.04 815.083 1151.8 815.083C1087.74 815.083 1027.07 790.578 980.948 746.073C979.119 744.308 977.326 742.519 975.564 740.711H972.891C975.084 742.993 977.326 745.245 979.617 747.455C1026.09 792.301 1087.24 817 1151.79 817C1185.29 817 1217.8 810.427 1248.4 797.462C1277.96 784.942 1304.51 767.011 1327.3 744.18C1350.09 721.35 1367.99 694.757 1380.49 665.152C1393.43 634.5 1399.99 601.943 1399.99 568.376C1399.99 534.809 1393.43 502.252 1380.49 471.6H1380.5Z" fill="black"/>
<path d="M547.847 783.706C550.326 782.946 551.644 781.448 551.644 779.367C551.644 776.037 548.321 774.12 542.524 774.12C536.727 774.12 533.373 776.037 533.373 779.367C533.373 781.454 534.697 782.946 537.171 783.706C534.187 784.412 532.613 786.019 532.613 788.387C532.613 791.911 536.217 793.968 542.524 793.968C548.831 793.968 552.404 791.911 552.404 788.387C552.404 786.019 550.83 784.412 547.847 783.706ZM536.782 779.811C536.782 778.064 538.811 777.102 542.524 777.102C546.236 777.102 548.235 778.064 548.235 779.811C548.235 781.448 546.461 782.434 543.563 782.434H541.454C538.556 782.434 536.782 781.448 536.782 779.811ZM542.524 790.98C538.27 790.98 536.022 789.994 536.022 788.101C536.022 786.208 537.936 785.338 541.454 785.338H543.563C547.081 785.338 548.995 786.299 548.995 788.101C548.995 789.903 546.741 790.98 542.524 790.98Z" fill="black"/>
<path d="M582.02 784.352H574.559V787.34H582.02V784.352Z" fill="black"/>
<path d="M613.707 774.455H610.359L604.587 777.163V780.347L610.359 777.644V790.755H604.587V793.628H619.48V790.755H613.707V774.455Z" fill="black"/>
<path d="M637.466 785.958C642.673 784.832 645.857 784.096 645.857 780.036C645.857 775.976 642.734 774.114 637.387 774.114C633.869 774.114 631.025 774.93 628.716 776.482L630.01 779.19C632.179 777.754 634.738 777.102 637.496 777.102C640.79 777.102 642.448 778.064 642.448 779.896C642.448 781.728 640.814 782.154 636.737 783.055C630.205 784.492 627.701 786.098 627.701 792.161V793.628H645.772V790.749H631.08C631.274 787.48 633.188 786.884 637.472 785.952L637.466 785.958Z" fill="black"/>
<path d="M681.179 789.087L674.568 774.455H669.726V793.628H672.989V778.429L679.855 793.628H682.364L689.231 778.429V793.628H692.639V774.455H687.797L681.179 789.087Z" fill="black"/>
<path d="M710.564 774.455L701.784 793.628H705.357L707.411 789.032H717.036L719.089 793.628H722.802L714.022 774.455H710.558H710.564ZM708.681 786.159L712.229 777.985L715.778 786.159H708.687H708.681Z" fill="black"/>
<path d="M749.921 780.292C749.921 776.512 747.612 774.455 743.389 774.455H731.959V793.628H735.368V786.129H741.56L746.797 793.628H750.85L745.448 785.928C748.347 785.338 749.927 783.39 749.927 780.286L749.921 780.292ZM735.368 783.195V777.389H742.915C745.309 777.389 746.463 778.35 746.463 780.292C746.463 782.233 745.309 783.195 742.915 783.195H735.368Z" fill="black"/>
<path d="M770.209 790.919C765.537 790.919 762.638 788.271 762.638 784.041C762.638 779.811 765.452 777.163 769.984 777.163C771.984 777.163 773.867 777.699 775.781 778.91L776.881 776.116C774.852 774.765 772.518 774.114 769.845 774.114C763.313 774.114 759.15 778.003 759.15 784.096C759.15 790.189 763.288 793.962 770.015 793.962C772.998 793.962 775.727 793.201 777.562 791.85L776.322 789.032C774.463 790.298 772.464 790.919 770.215 790.919H770.209Z" fill="black"/>
<path d="M801.599 782.489H790.194V774.455H786.791V793.628H790.194V785.423H801.599V793.628H805.002V774.455H801.599V782.489Z" fill="black"/>
<path d="M838.416 785.958C843.624 784.832 846.802 784.096 846.802 780.036C846.802 775.976 843.678 774.114 838.331 774.114C834.813 774.114 831.969 774.93 829.66 776.482L830.954 779.19C833.124 777.754 835.682 777.102 838.441 777.102C841.734 777.102 843.393 778.064 843.393 779.896C843.393 781.728 841.758 782.154 837.681 783.055C831.149 784.492 828.646 786.098 828.646 792.161V793.628H846.716V790.749H832.024C832.218 787.48 834.132 786.884 838.416 785.952V785.958Z" fill="black"/>
<path d="M865.716 774.114C859.719 774.114 855.581 778.174 855.581 784.041C855.581 789.909 859.719 793.968 865.716 793.968C871.714 793.968 875.852 789.909 875.852 784.041C875.852 778.174 871.714 774.114 865.716 774.114ZM865.716 790.949C861.694 790.949 858.99 788.156 858.99 784.041C858.99 779.927 861.694 777.133 865.716 777.133C869.739 777.133 872.443 779.927 872.443 784.041C872.443 788.156 869.739 790.949 865.716 790.949Z" fill="black"/>
<path d="M893.583 785.958C898.79 784.832 901.974 784.096 901.974 780.036C901.974 775.976 898.851 774.114 893.504 774.114C889.986 774.114 887.142 774.93 884.833 776.482L886.127 779.19C888.297 777.754 890.855 777.102 893.613 777.102C896.907 777.102 898.566 778.064 898.566 779.896C898.566 781.728 896.931 782.154 892.854 783.055C886.322 784.492 883.818 786.098 883.818 792.161V793.628H901.889V790.749H887.197C887.391 787.48 889.305 786.884 893.589 785.952L893.583 785.958Z" fill="black"/>
<path d="M920.494 774.455H917.139L911.373 777.163V780.347L917.139 777.644V790.755H911.373V793.628H926.26V790.755H920.494V774.455Z" fill="black"/>
<path d="M829.604 528.078L828.566 529.689L878.804 562.132L879.841 560.521L829.604 528.078Z" fill="black"/>
<path d="M668.619 225.465V236.628C668.619 242.124 671.421 245.271 676.3 245.271H679.417V243.42H676.537C672.514 243.42 670.643 241.187 670.643 236.39V225.404C670.643 222.623 669.871 221.125 668.067 220.474C669.871 219.823 670.643 218.325 670.643 215.544V204.558C670.643 199.761 672.514 197.528 676.537 197.528H679.417V195.677H676.3C671.415 195.677 668.619 198.83 668.619 204.32V215.483C668.619 218.788 667.562 219.549 662.962 219.549H662.811V221.399H662.962C667.562 221.399 668.619 222.16 668.619 225.459V225.465Z" fill="black"/>
<path d="M799.127 236.634V225.471C799.127 222.166 800.184 221.411 804.784 221.411H804.936V219.561H804.784C800.184 219.561 799.127 218.8 799.127 215.495V204.332C799.127 198.836 796.326 195.69 791.446 195.69H788.329V197.54H791.209C795.232 197.54 797.103 199.774 797.103 204.57V215.556C797.103 218.338 797.875 219.835 799.68 220.486C797.875 221.138 797.103 222.635 797.103 225.416V236.403C797.103 241.199 795.232 243.433 791.209 243.433H788.329V245.283H791.446C796.332 245.283 799.127 242.13 799.127 236.64V236.634Z" fill="black"/>
<path d="M712.563 236.676L696.321 220.407L712.563 204.132L711.208 202.78L693.611 220.407L711.208 238.034L712.563 236.676Z" fill="black"/>
<path d="M759.175 238.034L776.772 220.407L759.175 202.78L757.826 204.132L774.068 220.407L757.826 236.676L759.175 238.034Z" fill="black"/>
<path d="M745.513 198.691L724.287 244.369L726.022 245.178L747.248 199.5L745.513 198.691Z" fill="black"/>
<path d="M699.257 266.507H662.72V268.424H699.257V266.507Z" fill="black"/>
<path d="M791.294 283.166H677.533V285.083H791.294V283.166Z" fill="black"/>
<path d="M791.294 316.477H703.644V318.395H791.294V316.477Z" fill="black"/>
<path d="M751.67 299.818H692.359V301.736H751.67V299.818Z" fill="black"/>
<path d="M791.294 299.818H770.13V301.736H791.294V299.818Z" fill="black"/>
<path d="M953.593 676.814L941.482 688.951L953.593 701.081L965.703 688.951L953.593 676.814Z" fill="black"/>
<path d="M979.167 702.439L973.115 696.37L967.057 690.308L954.947 702.439L967.057 714.569L973.115 708.507L979.167 702.439Z" fill="black"/>
<path d="M940.126 690.311L928.014 702.443L940.126 714.576L952.238 702.443L940.126 690.311Z" fill="black"/>
<path d="M1049.55 690.341L1037.44 702.473L1049.55 714.606L1061.67 702.473L1049.55 690.341Z" fill="black"/>
<path d="M912.124 690.343L900.012 702.476L912.124 714.608L924.236 702.476L912.124 690.343Z" fill="black"/>
<path d="M953.593 703.796L941.482 715.926L953.593 728.063L965.703 715.926L953.593 703.796Z" fill="black"/>
<path d="M980.52 676.815L968.408 688.948L980.52 701.081L992.632 688.948L980.52 676.815Z" fill="black"/>
<path d="M993.989 690.308L981.877 702.44L993.989 714.573L1006.1 702.44L993.989 690.308Z" fill="black"/>
<path d="M980.524 703.795L968.412 715.927L980.524 728.06L992.636 715.927L980.524 703.795Z" fill="black"/>
<path d="M1007.46 676.816L995.344 688.949L1007.46 701.081L1019.57 688.949L1007.46 676.816Z" fill="black"/>
<path d="M1020.92 690.308L1008.81 702.441L1020.92 714.573L1033.04 702.441L1020.92 690.308Z" fill="black"/>
<path d="M1007.45 703.795L995.342 715.928L1007.45 728.061L1019.57 715.928L1007.45 703.795Z" fill="black"/>
<path d="M1066.11 249.245V244.37H1061.97V274.9H1066.11V253.865C1070.92 250.627 1076.08 247.675 1081.25 247.675C1084.01 247.675 1086.48 248.217 1088.39 249.239C1090.89 250.566 1092.44 252.879 1092.44 255.277V274.839H1096.58V255.277C1096.58 251.491 1094.26 247.998 1090.36 245.928C1087.81 244.613 1084.74 243.95 1081.25 243.95C1075.56 243.95 1070.24 246.683 1066.1 249.245H1066.11Z" fill="black"/>
<path d="M1111.95 274.9L1112.01 227.723H1107.86V274.9H1111.95Z" fill="black"/>
<path d="M1129.46 243.828H1125.33V274.9H1129.46V243.828Z" fill="black"/>
<path d="M1127.39 231.57C1125.95 231.57 1124.72 232.769 1124.72 234.187C1124.72 235.605 1125.95 236.743 1127.39 236.743C1128.84 236.743 1130 235.599 1130 234.187C1130 232.775 1128.8 231.57 1127.39 231.57Z" fill="black"/>
<path d="M1143.39 244.37H1139.25V274.9H1143.39V253.865C1148.2 250.627 1153.36 247.675 1158.53 247.675C1161.29 247.675 1163.76 248.217 1165.67 249.239C1168.17 250.566 1169.72 252.879 1169.72 255.277V274.839H1173.86V255.277C1173.86 251.491 1171.54 247.998 1167.64 245.928C1165.08 244.613 1162.02 243.95 1158.53 243.95C1152.84 243.95 1147.52 246.683 1143.38 249.245V244.37H1143.39Z" fill="black"/>
<path d="M1199.81 243.95C1187.99 243.95 1180.94 249.915 1180.94 259.909C1180.94 264.589 1182.95 268.57 1186.75 271.425C1190.14 273.975 1194.66 275.381 1199.46 275.381C1203.16 275.381 1210.05 274.127 1214 272.332L1214.53 272.088L1212.49 268.807L1212.08 268.996C1208.85 270.493 1202.64 271.656 1199.45 271.656C1193.08 271.656 1185.99 268.4 1185.14 261.26H1217.97V260.749C1217.9 250.073 1211.28 243.956 1199.82 243.956L1199.81 243.95ZM1185.27 257.529C1186.2 251.169 1191.34 247.675 1199.81 247.675C1207.8 247.675 1212.83 251.26 1213.69 257.529H1185.26H1185.27Z" fill="black"/>
<path d="M1029.75 277.219C1042.7 277.219 1053.24 266.659 1053.24 253.682C1053.24 240.706 1042.7 230.146 1029.75 230.146C1016.79 230.146 1006.25 240.706 1006.25 253.682C1006.25 266.659 1016.79 277.219 1029.75 277.219ZM1029.75 234.236C1040.45 234.236 1049.17 242.964 1049.17 253.688C1049.17 264.413 1040.45 273.141 1029.75 273.141C1019.04 273.141 1010.33 264.413 1010.33 253.688C1010.33 242.964 1019.04 234.236 1029.75 234.236Z" fill="black"/>
<path d="M1016.86 144.179H1011.46V202.087H1016.86V144.179Z" fill="black"/>
<path d="M1084.34 197.175H1040.84L1040.91 176.687H1074.7V171.769H1040.91V149.018H1083.28V144.179H1035.52L1035.44 202.087H1084.34V197.175Z" fill="black"/>
<path d="M1122.45 202.087H1127.93V149.097H1155.06V144.179H1094.83V149.097H1122.53L1122.45 202.087Z" fill="black"/>
<path d="M1171.19 176.687H1205.54V171.769H1171.19V149.018H1214.21V144.179H1165.72V202.087H1171.11L1171.19 176.687Z" fill="black"/>
<path d="M1261.64 153.394V202.087H1267.03V144.179H1262.14L1245.43 165.531L1250.04 168.245L1261.64 153.394Z" fill="black"/>
<path d="M1303.2 153.394V202.087H1308.59V144.179H1303.7L1286.99 165.531L1291.6 168.245L1303.2 153.394Z" fill="black"/>
<path d="M1357.94 200.833C1374.14 200.833 1387.31 187.637 1387.31 171.416C1387.31 155.196 1374.14 142 1357.94 142C1341.75 142 1328.58 155.196 1328.58 171.416C1328.58 187.637 1341.75 200.833 1357.94 200.833ZM1357.94 147.107C1371.32 147.107 1382.21 158.014 1382.21 171.416C1382.21 184.819 1371.32 195.726 1357.94 195.726C1344.56 195.726 1333.68 184.819 1333.68 171.416C1333.68 158.014 1344.56 147.107 1357.94 147.107Z" fill="black"/>
</g>
<defs>
<clipPath id="clip0_969_33">
<rect width="1072" height="675" fill="white" transform="translate(328 142)"/>
</clipPath>
</defs>
</svg>
