<svg xmlns="http://www.w3.org/2000/svg" xmlns:xlink="http://www.w3.org/1999/xlink" viewBox="0 0 1920 1000"><defs><style>.cls-1{isolation:isolate;}.cls-2{fill:#2c66bf;}.cls-3{fill:#34a853;}.cls-4{fill:#eda606;}.cls-5{fill:#e4594e;}.cls-6{fill:#fbc730;}.cls-7{fill:#4285f4;}.cls-8{fill:#b7251d;}.cls-9{fill:#73cb8a;}.cls-10{fill:#df382b;}.cls-11{fill:#fcd35c;}.cls-12{fill:#6e9af5;}.cls-13{fill:none;stroke:#666868;stroke-miterlimit:10;stroke-width:2.7px;}.cls-14{fill:#ffa700;}.cls-15{fill:#6199f6;}.cls-16{fill:#23893c;}.cls-17{fill:#fabb05;}.cls-18{fill:#e69e0d;}.cls-19{fill:#eff0f2;}.cls-20,.cls-21,.cls-22{mix-blend-mode:multiply;}.cls-20{fill:url(#linear-gradient);}.cls-21{fill:url(#linear-gradient-2);}.cls-22{fill:url(#linear-gradient-3);}.cls-23{fill:#9fc1f9;}.cls-24{fill:#ea7a72;}.cls-25{fill:#d77f0c;}.cls-26{fill:#92dda6;}.cls-27{fill:#fddf87;}.cls-28{fill:#46b05c;}.cls-29,.cls-30{fill:#636363;}.cls-30{font-size:14.16px;font-family:ProductSans-Regular, Product Sans;letter-spacing:0.04em;}.cls-31{letter-spacing:0.04em;}.cls-32{letter-spacing:0.03em;}</style><linearGradient id="linear-gradient" x1="438.86" y1="585.75" x2="692.91" y2="839.8" gradientUnits="userSpaceOnUse"><stop offset="0" stop-color="#ccc"/><stop offset="1" stop-color="#fff" stop-opacity="0"/></linearGradient><linearGradient id="linear-gradient-2" x1="359.44" y1="642.4" x2="464.05" y2="747.01" xlink:href="#linear-gradient"/><linearGradient id="linear-gradient-3" x1="639.65" y1="642.4" x2="744.26" y2="747.01" xlink:href="#linear-gradient"/></defs><title>GDD-india</title><g class="cls-1"><g id="Layer_1" data-name="Layer 1"><rect class="cls-2" x="1859.27" y="594.5" width="60.52" height="337.6"/><rect class="cls-3" x="847.96" y="801.16" width="65.03" height="18.97"/><rect class="cls-4" x="847.96" y="686" width="65.03" height="18.97"/><rect class="cls-4" x="847.96" y="572.13" width="65.03" height="18.97"/><path class="cls-5" d="M856.08,573.16a24.4,24.4,0,1,1,48.79,0Z"/><rect class="cls-6" x="851.27" y="819.9" width="58.4" height="96.8" rx="5.03" transform="translate(1760.94 1736.6) rotate(180)"/><rect class="cls-7" x="858.62" y="829.26" width="43.7" height="66.88"/><rect class="cls-8" x="851.27" y="704.63" width="58.4" height="96.8" rx="5.03" transform="translate(1760.94 1506.07) rotate(180)"/><rect class="cls-4" x="858.62" y="713.99" width="43.7" height="66.88"/><rect class="cls-2" x="851.27" y="589.92" width="58.4" height="96.8" rx="5.03" transform="translate(1760.94 1276.63) rotate(180)"/><rect class="cls-9" x="858.62" y="599.28" width="43.7" height="66.88"/><rect class="cls-5" x="161.74" y="801.16" width="65.03" height="18.97"/><rect class="cls-4" x="161.74" y="686" width="65.03" height="18.97"/><rect class="cls-7" x="161.74" y="572.13" width="65.03" height="18.97"/><path class="cls-9" d="M169.86,573.16a24.4,24.4,0,1,1,48.79,0Z"/><rect class="cls-3" x="165.05" y="819.9" width="58.4" height="96.8" rx="5.03" transform="translate(388.51 1736.6) rotate(180)"/><rect class="cls-10" x="172.4" y="829.26" width="43.7" height="66.88"/><rect class="cls-7" x="165.05" y="704.63" width="58.4" height="96.8" rx="5.03" transform="translate(388.51 1506.07) rotate(180)"/><rect class="cls-11" x="172.4" y="713.99" width="43.7" height="66.88"/><rect class="cls-10" x="165.05" y="589.92" width="58.4" height="96.8" rx="5.03" transform="translate(388.51 1276.63) rotate(180)"/><rect class="cls-12" x="172.4" y="599.28" width="43.7" height="66.88"/><line class="cls-13" x1="476.28" y1="605.34" x2="562.3" y2="605.34"/><rect class="cls-8" x="529.46" y="508.04" width="14.45" height="41.91"/><rect class="cls-5" x="387.84" y="568.74" width="14.45" height="41.91"/><rect class="cls-14" x="672.52" y="568.74" width="14.45" height="41.91"/><path class="cls-4" d="M439.1,641.25a97.08,97.08,0,0,1,194.16,0Z"/><rect class="cls-5" x="438.42" y="640.99" width="194.06" height="41.91"/><rect class="cls-8" x="448.06" y="653.19" width="16.48" height="29.42"/><rect class="cls-8" x="479.6" y="653.19" width="16.48" height="29.42"/><rect class="cls-8" x="511.14" y="653.19" width="16.48" height="29.42"/><rect class="cls-8" x="542.68" y="653.19" width="16.48" height="29.42"/><rect class="cls-8" x="574.22" y="653.19" width="16.48" height="29.42"/><rect class="cls-8" x="605.76" y="653.19" width="16.48" height="29.42"/><path class="cls-15" d="M357.09,642.1a37.23,37.23,0,1,1,74.46,0Z"/><rect class="cls-2" x="357.49" y="640.99" width="73.7" height="41.91"/><path class="cls-3" d="M641.77,642.1a37.23,37.23,0,1,1,74.46,0Z"/><rect class="cls-16" x="642.17" y="640.99" width="73.7" height="41.91"/><rect class="cls-2" x="291.02" y="642.44" width="14.45" height="41.91"/><rect class="cls-17" x="291.02" y="642.44" width="14.45" height="41.91"/><rect class="cls-15" x="767.35" y="642.44" width="14.45" height="41.91"/><rect class="cls-18" x="439.14" y="681.82" width="193.83" height="234.9"/><rect class="cls-7" x="632.97" y="681.82" width="91.15" height="234.9" transform="translate(1357.09 1598.55) rotate(180)"/><rect class="cls-16" x="348.29" y="681.82" width="91.15" height="234.9" transform="translate(787.73 1598.55) rotate(180)"/><rect class="cls-15" x="290.33" y="681.82" width="57.95" height="234.9"/><rect class="cls-8" x="723.86" y="681.82" width="57.95" height="234.9"/><rect class="cls-9" x="367.33" y="835.64" width="54.51" height="50.12"/><path class="cls-3" d="M394.62,808.25a27.3,27.3,0,0,0-27.3,27.3h54.61A27.31,27.31,0,0,0,394.62,808.25Z"/><rect class="cls-4" x="367.33" y="733.1" width="54.51" height="50.12"/><path class="cls-14" d="M394.62,705.71A27.31,27.31,0,0,0,367.32,733h54.61A27.31,27.31,0,0,0,394.62,705.71Z"/><rect class="cls-19" x="652.01" y="835.64" width="54.51" height="50.12"/><path class="cls-5" d="M679.3,808.25a27.31,27.31,0,0,0-27.3,27.3h54.61A27.31,27.31,0,0,0,679.3,808.25Z"/><rect class="cls-18" x="652.01" y="733.1" width="54.51" height="50.12"/><path class="cls-8" d="M679.3,705.71A27.31,27.31,0,0,0,652,733h54.61A27.31,27.31,0,0,0,679.3,705.71Z"/><rect class="cls-10" x="754.52" y="733.1" width="27.29" height="50.12"/><path class="cls-5" d="M781.81,705.71A27.31,27.31,0,0,0,754.51,733h27.3"/><rect class="cls-12" x="754.52" y="835.44" width="27.29" height="50.12"/><path class="cls-2" d="M781.81,808.05a27.31,27.31,0,0,0-27.3,27.31h27.3"/><rect class="cls-19" x="290.11" y="733.1" width="27.29" height="50.12"/><path class="cls-5" d="M290.11,705.71A27.31,27.31,0,0,1,317.41,733h-27.3"/><rect class="cls-18" x="290.11" y="835.44" width="27.29" height="50.12"/><path class="cls-2" d="M290.11,808.05a27.31,27.31,0,0,1,27.3,27.31h-27.3"/><polygon class="cls-20" points="437.94 682.06 632.4 682.06 632.4 839.91 437.94 682.06"/><polygon class="cls-21" points="359.06 682.06 439.14 682.06 439.14 747.06 359.06 682.06"/><polygon class="cls-22" points="639.27 682.06 719.34 682.06 719.34 747.06 639.27 682.06"/><rect class="cls-2" x="457.23" y="703.17" width="156.43" height="213.55" rx="12.22" transform="translate(1070.89 1619.89) rotate(180)"/><rect class="cls-23" x="470.75" y="717.7" width="129.38" height="166.09"/><path class="cls-3" d="M587.85,779.78a52.4,52.4,0,0,0-104.79-.93h0v0c0,.29,0,.58,0,.88h0V883.67H587.7V779.78Z"/><path class="cls-18" d="M497,883.67V778.9a38.51,38.51,0,0,1,76.89-2.2l0,3.08V883.67Z"/><rect class="cls-24" x="524.51" y="895.36" width="21.87" height="8.54"/><rect class="cls-17" x="186.66" y="903.04" width="15.18" height="5.93"/><rect class="cls-9" x="186.66" y="788.05" width="15.18" height="5.93"/><rect class="cls-18" x="186.66" y="673.11" width="15.18" height="5.93"/><rect class="cls-3" x="872.88" y="903.02" width="15.18" height="5.93"/><rect class="cls-6" x="872.88" y="788.03" width="15.18" height="5.93"/><rect class="cls-18" x="872.88" y="673.09" width="15.18" height="5.93"/><rect class="cls-3" x="-19" y="779.65" width="125.25" height="36.53"/><rect class="cls-4" x="-5.46" y="605.91" width="98.17" height="28.63"/><rect class="cls-10" x="3.23" y="464.64" width="80.78" height="23.56"/><rect class="cls-6" x="-12.62" y="815.73" width="112.48" height="186.44" rx="9.68" transform="translate(87.25 1817.9) rotate(180)"/><rect class="cls-7" x="1.54" y="833.76" width="84.17" height="128.81"/><rect class="cls-8" x="-0.46" y="634.04" width="88.16" height="146.13" rx="7.59" transform="translate(87.25 1414.21) rotate(180)"/><rect class="cls-4" x="10.64" y="648.17" width="65.97" height="100.96"/><rect class="cls-2" x="7.35" y="486.74" width="72.55" height="120.25" rx="6.24" transform="translate(87.25 1093.73) rotate(180)"/><rect class="cls-9" x="16.48" y="498.37" width="54.29" height="83.08"/><rect class="cls-3" x="29" y="975.82" width="29.25" height="11.43"/><rect class="cls-6" x="32.16" y="759.93" width="22.92" height="8.96"/><rect class="cls-18" x="34.19" y="590.06" width="18.86" height="7.37"/><rect class="cls-16" x="20.36" y="389" width="46.52" height="77.11" rx="4" transform="translate(87.25 855.11) rotate(180)"/><rect class="cls-4" x="26.22" y="396.46" width="34.81" height="53.27"/><rect class="cls-18" x="37.58" y="455.25" width="12.1" height="4.73"/><rect class="cls-16" x="985.62" y="823.92" width="80.3" height="103.21"/><rect class="cls-24" x="985.62" y="938.78" width="80.3" height="62.21"/><rect class="cls-6" x="985.62" y="746.89" width="80.3" height="77.03"/><path class="cls-10" d="M1132.35,775.13a66.42,66.42,0,0,1,66,59V746.89H1065.92v90.63h.21A66.37,66.37,0,0,1,1132.35,775.13Z"/><circle class="cls-5" cx="1025.77" cy="782.2" r="22.54"/><rect class="cls-4" x="1001.26" y="830.33" width="49.02" height="67.34"/><rect class="cls-8" x="1001.26" y="932.81" width="49.02" height="67.34"/><rect class="cls-3" x="985.62" y="714.45" width="293.01" height="32.44"/><rect class="cls-10" x="985.62" y="682.04" width="293.01" height="32.44"/><rect class="cls-17" x="994" y="649.63" width="276.26" height="32.44"/><rect class="cls-2" x="1022.68" y="617.19" width="218.9" height="32.44"/><polygon class="cls-16" points="987.75 714.45 987.75 746.89 963.84 714.45 987.75 714.45"/><rect class="cls-2" x="996.57" y="830.33" width="58.4" height="96.8" rx="5.03" transform="translate(2051.54 1757.46) rotate(-180)"/><rect class="cls-6" x="1003.92" y="839.69" width="43.7" height="66.88"/><rect class="cls-7" x="1018.18" y="913.45" width="15.18" height="5.93"/><rect class="cls-25" x="996.57" y="817.51" width="58.4" height="12.81"/><rect class="cls-3" x="1065.92" y="649.63" width="130.38" height="32.44"/><rect class="cls-10" x="1278.72" y="932.54" width="640.89" height="69.58"/><rect class="cls-10" x="132.72" y="914.32" width="820.59" height="86.04"/><rect class="cls-17" x="100.15" y="957.34" width="885.73" height="43.02"/><rect class="cls-6" x="985.62" y="927.13" width="80.3" height="13.01"/><rect class="cls-2" x="1197.92" y="823.92" width="80.3" height="103.21"/><rect class="cls-26" x="1197.92" y="938.78" width="80.3" height="62.21"/><rect class="cls-23" x="1197.92" y="746.89" width="80.3" height="77.03"/><circle class="cls-16" cx="1238.07" cy="782.2" r="22.54"/><rect class="cls-4" x="1213.56" y="830.33" width="49.02" height="67.34"/><rect class="cls-8" x="1213.56" y="932.81" width="49.02" height="67.34"/><rect class="cls-10" x="1208.87" y="830.33" width="58.4" height="96.8" rx="5.03" transform="translate(2476.15 1757.46) rotate(180)"/><rect class="cls-26" x="1216.22" y="839.69" width="43.7" height="66.88"/><rect class="cls-12" x="1230.48" y="913.45" width="15.18" height="5.93"/><rect class="cls-3" x="1208.87" y="817.51" width="58.4" height="12.81"/><rect class="cls-6" x="1197.92" y="927.13" width="80.3" height="13.01"/><polygon class="cls-8" points="1067.95 617.58 1196.31 617.58 1132.24 574.21 1067.95 617.58"/><rect class="cls-24" x="1674.58" y="670.17" width="167.91" height="64.19"/><polygon class="cls-16" points="1758.53 613.29 1666.05 649.62 1851.01 649.62 1758.53 613.29"/><rect class="cls-17" x="1619.27" y="765.89" width="278.53" height="64.19"/><rect class="cls-16" x="1619.27" y="830.07" width="278.53" height="102.02"/><polygon class="cls-15" points="1619.27 765.89 1674.58 734.35 1674.58 765.89 1619.27 765.89"/><polygon class="cls-12" points="1842.48 734.35 1897.79 765.89 1842.48 765.89 1842.48 734.35"/><rect class="cls-2" x="1674.58" y="734.35" width="167.91" height="31.53"/><rect class="cls-9" x="1743.11" y="695.83" width="30.83" height="28.35"/><path class="cls-10" d="M1758.53,680.34a15.44,15.44,0,0,0-15.44,15.44H1774A15.44,15.44,0,0,0,1758.53,680.34Z"/><rect class="cls-6" x="1691.75" y="695.83" width="30.83" height="28.35"/><path class="cls-27" d="M1707.17,680.34a15.44,15.44,0,0,0-15.44,15.44h30.88A15.44,15.44,0,0,0,1707.17,680.34Z"/><rect class="cls-2" x="1797.75" y="695.83" width="30.83" height="28.35"/><path class="cls-15" d="M1813.17,680.34a15.45,15.45,0,0,0-15.45,15.44h30.89A15.45,15.45,0,0,0,1813.17,680.34Z"/><path class="cls-10" d="M1705.47,844.93a20,20,0,0,0-20,20h39.94A20,20,0,0,0,1705.47,844.93Z"/><rect class="cls-4" x="1688.7" y="864.9" width="33.53" height="46.05"/><rect class="cls-11" x="1685.5" y="864.9" width="39.94" height="66.2" rx="3.44" transform="translate(3410.93 1796.01) rotate(180)"/><rect class="cls-7" x="1690.52" y="871.3" width="29.89" height="45.74"/><rect class="cls-10" x="1700.27" y="921.75" width="10.39" height="4.06"/><path class="cls-12" d="M1652.4,844.93a20,20,0,0,0-20,20h39.94A20,20,0,0,0,1652.4,844.93Z"/><rect class="cls-4" x="1635.64" y="864.9" width="33.53" height="46.05"/><rect class="cls-10" x="1632.43" y="864.9" width="39.94" height="66.2" rx="3.44" transform="translate(3304.81 1796.01) rotate(180)"/><rect class="cls-9" x="1637.46" y="871.3" width="29.89" height="45.74"/><rect class="cls-12" x="1647.21" y="921.75" width="10.39" height="4.06"/><path class="cls-11" d="M1758.53,844.93a20,20,0,0,0-20,20h39.94A20,20,0,0,0,1758.53,844.93Z"/><rect class="cls-4" x="1741.77" y="864.9" width="33.53" height="46.05"/><rect class="cls-12" x="1738.56" y="864.9" width="39.94" height="66.2" rx="3.44" transform="translate(3517.06 1796.01) rotate(180)"/><rect class="cls-25" x="1743.59" y="871.3" width="29.89" height="45.74"/><rect class="cls-11" x="1753.34" y="921.75" width="10.39" height="4.06"/><path class="cls-3" d="M1811.59,844.93a20,20,0,0,0-20,20h39.94A20,20,0,0,0,1811.59,844.93Z"/><rect class="cls-4" x="1794.83" y="864.9" width="33.53" height="46.05"/><rect class="cls-10" x="1791.62" y="864.9" width="39.94" height="66.2" rx="3.44" transform="translate(3623.19 1796.01) rotate(180)"/><rect class="cls-4" x="1796.65" y="871.3" width="29.89" height="45.74"/><rect class="cls-3" x="1806.4" y="921.75" width="10.39" height="4.06"/><path class="cls-12" d="M1864.66,844.93a20,20,0,0,0-20,20h39.94A20,20,0,0,0,1864.66,844.93Z"/><rect class="cls-4" x="1847.89" y="864.9" width="33.53" height="46.05"/><rect class="cls-6" x="1844.69" y="864.9" width="39.94" height="66.2" rx="3.44" transform="translate(3729.31 1796.01) rotate(180)"/><rect class="cls-3" x="1849.71" y="871.3" width="29.89" height="45.74"/><rect class="cls-2" x="1859.46" y="921.75" width="10.39" height="4.06"/><rect class="cls-5" x="1619.27" y="765.89" width="12.67" height="64.19"/><rect class="cls-25" x="1663.51" y="765.89" width="12.67" height="64.19"/><rect class="cls-2" x="1707.75" y="765.89" width="12.67" height="64.19"/><rect class="cls-5" x="1751.99" y="765.89" width="12.67" height="64.19"/><rect class="cls-25" x="1796.23" y="765.89" width="12.67" height="64.19"/><rect class="cls-16" x="1840.47" y="765.89" width="12.67" height="64.19"/><rect class="cls-28" x="1884.72" y="765.89" width="12.67" height="64.19"/><polygon class="cls-5" points="1848.1 594.5 1859.28 624.45 1859.28 594.5 1848.1 594.5"/><polygon class="cls-28" points="1930.97 594.5 1919.79 624.45 1919.79 594.5 1930.97 594.5"/><path class="cls-3" d="M1647.72,774.21a16,16,0,0,1,15.79,13.49V765.89h-31.57V787.7A16,16,0,0,1,1647.72,774.21Z"/><path class="cls-10" d="M1691.76,774.21a16,16,0,0,1,15.78,13.49V765.89H1676V787.7A16,16,0,0,1,1691.76,774.21Z"/><path class="cls-3" d="M1736.21,774.21A16,16,0,0,1,1752,787.7V765.89h-31.57V787.7A16,16,0,0,1,1736.21,774.21Z"/><path class="cls-24" d="M1780.45,774.21a16,16,0,0,1,15.78,13.49V765.89h-31.57V787.7A16,16,0,0,1,1780.45,774.21Z"/><path class="cls-10" d="M1824.69,774.21a16,16,0,0,1,15.78,13.49V765.89H1808.9V787.7A16,16,0,0,1,1824.69,774.21Z"/><path class="cls-2" d="M1868.93,774.21a16,16,0,0,1,15.79,13.49V765.89h-31.58V787.7A16,16,0,0,1,1868.93,774.21Z"/><rect class="cls-12" x="1666.72" y="649.62" width="183.63" height="21.52"/><polygon class="cls-17" points="1918.3 539.51 1918.3 560.42 1897.39 560.42 1897.39 539.51 1881.09 539.51 1881.09 560.42 1860.18 560.42 1860.18 539.51 1848.1 539.51 1848.1 594.5 1930.97 594.5 1930.97 539.51 1918.3 539.51"/><rect class="cls-17" x="1558.76" y="655.27" width="60.52" height="276.83"/><polygon class="cls-5" points="1547.58 655.27 1558.76 685.22 1558.76 655.27 1547.58 655.27"/><polygon class="cls-25" points="1630.45 655.27 1619.28 685.22 1619.28 655.27 1630.45 655.27"/><polygon class="cls-3" points="1617.78 600.28 1617.78 621.19 1596.87 621.19 1596.87 600.28 1580.57 600.28 1580.57 621.19 1559.66 621.19 1559.66 600.28 1547.58 600.28 1547.58 655.27 1630.45 655.27 1630.45 600.28 1617.78 600.28"/><rect class="cls-25" x="1331.59" y="655.27" width="60.52" height="276.83"/><rect class="cls-12" x="1558.76" y="655.27" width="60.52" height="111.37"/><rect class="cls-10" x="1331.59" y="655.27" width="60.52" height="111.37"/><polygon class="cls-17" points="1320.41 655.27 1331.59 685.22 1331.59 655.27 1320.41 655.27"/><polygon class="cls-25" points="1403.29 655.27 1392.11 685.22 1392.11 655.27 1403.29 655.27"/><polygon class="cls-3" points="1390.62 600.28 1390.62 621.19 1369.7 621.19 1369.7 600.28 1353.4 600.28 1353.4 621.19 1332.49 621.19 1332.49 600.28 1320.41 600.28 1320.41 655.27 1403.29 655.27 1403.29 600.28 1390.62 600.28"/><rect class="cls-16" x="1392.11" y="685.22" width="166.65" height="25.31"/><rect class="cls-8" x="1392.11" y="766.57" width="166.65" height="44.08"/><rect class="cls-2" x="1414.39" y="788.36" width="122.08" height="166.65" rx="9.53" transform="translate(603.74 2347.12) rotate(-90)"/><rect class="cls-23" x="1432.13" y="806.88" width="100.97" height="129.62" transform="translate(2354.3 -610.92) rotate(90)"/><rect class="cls-24" x="1396.91" y="868.35" width="17.06" height="6.67" transform="translate(2277.13 -533.76) rotate(90)"/><path class="cls-3" d="M1417.8,922.17V895.51a44.71,44.71,0,0,1,28.54-41.68l36.27-14.06,35.79,13.41a44.69,44.69,0,0,1,29,41.86v27.13Z"/><path class="cls-17" d="M1432.31,922.17V901.48a34.7,34.7,0,0,1,22.15-32.35l28.15-10.92,27.78,10.41a34.7,34.7,0,0,1,22.52,32.49v21.06Z"/><rect class="cls-17" x="1397.66" y="710.52" width="161.1" height="56.29"/><rect class="cls-2" x="1392.11" y="710.52" width="11.11" height="56.29"/><rect class="cls-5" x="1430.9" y="710.52" width="11.11" height="56.29"/><rect class="cls-25" x="1469.7" y="710.52" width="11.11" height="56.29"/><rect class="cls-16" x="1508.49" y="710.52" width="11.11" height="56.29"/><rect class="cls-28" x="1547.29" y="710.52" width="11.11" height="56.29"/><path class="cls-3" d="M1417.06,717.83a14,14,0,0,1,13.84,11.82V710.52h-27.68v19.13A14,14,0,0,1,1417.06,717.83Z"/><path class="cls-24" d="M1455.86,717.83a14,14,0,0,1,13.84,11.82V710.52H1442v19.13A14,14,0,0,1,1455.86,717.83Z"/><path class="cls-10" d="M1494.65,717.83a14,14,0,0,1,13.84,11.82V710.52h-27.68v19.13A14,14,0,0,1,1494.65,717.83Z"/><path class="cls-2" d="M1533.45,717.83a14,14,0,0,1,13.84,11.82V710.52h-27.68v19.13A14,14,0,0,1,1533.45,717.83Z"/><rect class="cls-6" x="1346.43" y="720.32" width="30.83" height="28.35"/><path class="cls-27" d="M1361.85,704.83a15.44,15.44,0,0,0-15.44,15.44h30.88A15.44,15.44,0,0,0,1361.85,704.83Z"/><rect class="cls-6" x="1874.12" y="694.58" width="30.83" height="28.35"/><path class="cls-27" d="M1889.53,679.1a15.44,15.44,0,0,0-15.44,15.44H1905A15.44,15.44,0,0,0,1889.53,679.1Z"/><rect class="cls-16" x="1573.6" y="720.32" width="30.83" height="28.35"/><path class="cls-2" d="M1589,704.83a15.44,15.44,0,0,0-15.44,15.44h30.88A15.44,15.44,0,0,0,1589,704.83Z"/><rect class="cls-2" x="1346.43" y="804.22" width="30.83" height="28.35"/><path class="cls-7" d="M1361.85,788.73a15.44,15.44,0,0,0-15.44,15.44h30.88A15.44,15.44,0,0,0,1361.85,788.73Z"/><rect class="cls-3" x="1573.6" y="804.22" width="30.83" height="28.35"/><path class="cls-11" d="M1589,788.73a15.44,15.44,0,0,0-15.44,15.44h30.88A15.44,15.44,0,0,0,1589,788.73Z"/><rect class="cls-10" x="1346.43" y="873.79" width="30.83" height="28.35"/><path class="cls-9" d="M1361.85,858.3a15.44,15.44,0,0,0-15.44,15.44h30.88A15.44,15.44,0,0,0,1361.85,858.3Z"/><rect class="cls-10" x="1573.6" y="873.79" width="30.83" height="28.35"/><path class="cls-2" d="M1589,858.3a15.44,15.44,0,0,0-15.44,15.44h30.88A15.44,15.44,0,0,0,1589,858.3Z"/><path class="cls-29" d="M921.73,243.74V226h5.43a8.83,8.83,0,0,1,6.53,2.46,9.59,9.59,0,0,1,0,12.85,8.86,8.86,0,0,1-6.53,2.45ZM924,228.16v13.4h3.15a6.71,6.71,0,1,0,0-13.4Z"/><path class="cls-29" d="M943.55,244.13a5.81,5.81,0,0,1-4.41-1.83,6.47,6.47,0,0,1-1.74-4.64,6.56,6.56,0,0,1,1.69-4.62,6,6,0,0,1,8.61-.1,7,7,0,0,1,1.6,4.9l0,.24h-9.55a4,4,0,0,0,1.19,2.88,3.85,3.85,0,0,0,6.15-1.09l2,1a6.13,6.13,0,0,1-2.27,2.41A6.29,6.29,0,0,1,943.55,244.13Zm-3.65-7.93h7a3,3,0,0,0-1-2.1,3.62,3.62,0,0,0-2.49-.83,3.31,3.31,0,0,0-2.22.8A3.77,3.77,0,0,0,939.9,236.2Z"/><path class="cls-29" d="M957,243.74h-2.28l-4.91-12.15h2.48L955.9,241H956l3.62-9.42H962Z"/><path class="cls-29" d="M968.58,244.13a5.83,5.83,0,0,1-4.42-1.83,6.47,6.47,0,0,1-1.74-4.64,6.61,6.61,0,0,1,1.69-4.62,6.06,6.06,0,0,1,8.62-.1,7,7,0,0,1,1.6,4.9l0,.24h-9.54A4,4,0,0,0,966,241a3.85,3.85,0,0,0,6.15-1.09l2,1a6,6,0,0,1-2.27,2.41A6.25,6.25,0,0,1,968.58,244.13Zm-3.65-7.93h7a3.07,3.07,0,0,0-1-2.1,3.62,3.62,0,0,0-2.49-.83,3.31,3.31,0,0,0-2.22.8A3.77,3.77,0,0,0,964.93,236.2Z"/><path class="cls-29" d="M978.69,226v17.76h-2.28V226Z"/><path class="cls-29" d="M980.65,237.66a6.46,6.46,0,0,1,1.76-4.64,6,6,0,0,1,4.49-1.83,5.94,5.94,0,0,1,4.47,1.83,6.39,6.39,0,0,1,1.78,4.64,6.33,6.33,0,0,1-1.78,4.64,5.94,5.94,0,0,1-4.47,1.83,6,6,0,0,1-4.49-1.83A6.44,6.44,0,0,1,980.65,237.66Zm2.29,0a4.46,4.46,0,0,0,1.14,3.18,3.9,3.9,0,0,0,5.65,0,5,5,0,0,0,0-6.33,3.84,3.84,0,0,0-5.65,0A4.42,4.42,0,0,0,982.94,237.66Z"/><path class="cls-29" d="M1001.44,244.13a5.29,5.29,0,0,1-2.45-.57,4.22,4.22,0,0,1-1.69-1.51h-.1l.1,1.69v5.36H995V231.59h2.19v1.68h.1a4.22,4.22,0,0,1,1.69-1.51,5.41,5.41,0,0,1,6.52,1.31,6.67,6.67,0,0,1,1.71,4.59,6.6,6.6,0,0,1-1.71,4.59A5.22,5.22,0,0,1,1001.44,244.13Zm-.37-2.08a3.55,3.55,0,0,0,2.75-1.24,4.49,4.49,0,0,0,1.11-3.15,4.56,4.56,0,0,0-1.11-3.15,3.7,3.7,0,0,0-5.53,0,5.14,5.14,0,0,0,0,6.33A3.61,3.61,0,0,0,1001.07,242.05Z"/><path class="cls-29" d="M1014.76,244.13a5.83,5.83,0,0,1-4.42-1.83,6.46,6.46,0,0,1-1.73-4.64,6.6,6.6,0,0,1,1.68-4.62,6.06,6.06,0,0,1,8.62-.1,7,7,0,0,1,1.6,4.9l0,.24h-9.55a4,4,0,0,0,1.19,2.88,3.85,3.85,0,0,0,6.15-1.09l2,1a6,6,0,0,1-2.27,2.41A6.23,6.23,0,0,1,1014.76,244.13Zm-3.65-7.93h7a3.07,3.07,0,0,0-1-2.1,3.62,3.62,0,0,0-2.49-.83,3.31,3.31,0,0,0-2.22.8A3.77,3.77,0,0,0,1011.11,236.2Z"/><path class="cls-29" d="M1024.88,243.74h-2.29V231.59h2.19v2h.1a3.23,3.23,0,0,1,1.42-1.65,4,4,0,0,1,2.12-.68,4.26,4.26,0,0,1,1.69.3l-.7,2.2a3.9,3.9,0,0,0-1.34-.17,3,3,0,0,0-2.24,1,3.48,3.48,0,0,0-.95,2.43Z"/><path class="cls-29" d="M1035.78,243.74V226h5.43a8.83,8.83,0,0,1,6.53,2.46,9.59,9.59,0,0,1,0,12.85,8.86,8.86,0,0,1-6.53,2.45Zm2.28-15.58v13.4h3.15a6.71,6.71,0,1,0,0-13.4Z"/><path class="cls-29" d="M1057.13,231.19a5.64,5.64,0,0,1,4,1.35,4.79,4.79,0,0,1,1.47,3.71v7.49h-2.19v-1.69h-.1a4.33,4.33,0,0,1-3.77,2.08,4.88,4.88,0,0,1-3.36-1.19,3.79,3.79,0,0,1-1.35-3,3.61,3.61,0,0,1,1.43-3,6,6,0,0,1,3.81-1.12,6.66,6.66,0,0,1,3.34.75v-.53a2.6,2.6,0,0,0-.94-2,3.25,3.25,0,0,0-2.21-.83,3.49,3.49,0,0,0-3,1.61l-2-1.26A5.59,5.59,0,0,1,1057.13,231.19Zm-3,8.83a1.84,1.84,0,0,0,.75,1.49,2.85,2.85,0,0,0,1.78.59,3.62,3.62,0,0,0,2.57-1.07,3.33,3.33,0,0,0,1.12-2.5,4.69,4.69,0,0,0-3-.84,3.84,3.84,0,0,0-2.32.67A2,2,0,0,0,1054.18,240Z"/><path class="cls-29" d="M1075.78,231.59l-7.61,17.51h-2.36l2.83-6.13-5-11.38h2.48l3.62,8.73h0l3.52-8.73Z"/><path class="cls-29" d="M1086.32,240.37a3.27,3.27,0,0,1-1.39,2.67,5.45,5.45,0,0,1-3.49,1.09,5.54,5.54,0,0,1-3.23-.95,5.22,5.22,0,0,1-2-2.52l2-.87a3.75,3.75,0,0,0,1.3,1.7,3.15,3.15,0,0,0,1.88.61,3.35,3.35,0,0,0,1.82-.47,1.33,1.33,0,0,0,.73-1.12c0-.77-.6-1.34-1.79-1.71l-2.08-.52c-2.36-.59-3.55-1.73-3.55-3.42a3.15,3.15,0,0,1,1.36-2.67,6.2,6.2,0,0,1,6.37-.23,4.12,4.12,0,0,1,1.82,2.06l-2,.84a2.57,2.57,0,0,0-1.13-1.2,3.53,3.53,0,0,0-1.75-.44,2.93,2.93,0,0,0-1.6.45,1.28,1.28,0,0,0-.7,1.09c0,.69.65,1.19,1.95,1.49l1.84.47Q1086.31,237.61,1086.32,240.37Z"/><path class="cls-29" d="M844.13,244.21a9.43,9.43,0,0,0,7.18-2.89,9.29,9.29,0,0,0,2.44-6.58,9.17,9.17,0,0,0-.15-1.76h-9.47v2.81h6.73a5.94,5.94,0,0,1-1.53,3.55,6.93,6.93,0,0,1-5.2,2.06,7.49,7.49,0,0,1,0-15,7.17,7.17,0,0,1,5.07,2l2-2a9.82,9.82,0,0,0-7.06-2.84,10.3,10.3,0,1,0,0,20.6Zm17.27-13.27a6.64,6.64,0,1,0,6.66,6.63A6.54,6.54,0,0,0,861.4,230.94Zm0,10.66a4,4,0,1,1,3.74-4A3.84,3.84,0,0,1,861.4,241.6Zm14.52-10.66a6.64,6.64,0,1,0,6.66,6.63A6.54,6.54,0,0,0,875.92,230.94Zm0,10.66a4,4,0,1,1,3.75-4A3.84,3.84,0,0,1,875.92,241.6Zm17.83-10.25v1.08h-.1a4.61,4.61,0,0,0-3.49-1.49,6.64,6.64,0,0,0,0,13.27,4.55,4.55,0,0,0,3.49-1.51h.1v1c0,2.54-1.36,3.9-3.54,3.9a3.66,3.66,0,0,1-3.34-2.36l-2.54,1.05a6.32,6.32,0,0,0,5.88,3.92c3.41,0,6.3-2,6.3-6.91v-11.9Zm-3.34,10.25a4,4,0,0,1,0-8c2,0,3.54,1.71,3.54,4A3.71,3.71,0,0,1,890.41,241.6Zm11-17.29h-2.91v19.5h2.91Zm8,17.29a3.36,3.36,0,0,1-3.21-2l8.87-3.67-.31-.75A6.14,6.14,0,0,0,909.1,231a6.3,6.3,0,0,0-6.26,6.63,6.5,6.5,0,0,0,6.58,6.63,6.61,6.61,0,0,0,5.53-2.94l-2.26-1.51A3.8,3.8,0,0,1,909.42,241.6Zm-.23-8.09a2.57,2.57,0,0,1,2.47,1.4l-5.93,2.46A3.62,3.62,0,0,1,909.19,233.51Z"/><text class="cls-30" transform="translate(925.85 272.42)">Ind<tspan class="cls-31" x="20.87" y="0">i</tspan><tspan x="24.48" y="0">a 2</tspan><tspan class="cls-32" x="43.87" y="0">0</tspan><tspan x="53.33" y="0">17</tspan></text><polygon class="cls-10" points="941.75 184.48 955.79 160 939.88 160 933.8 170.6 941.75 184.48"/><path class="cls-7" d="M927.16,182.19a4.62,4.62,0,0,0,0,4.58L939.88,209h15.91l-22-38.36Z"/><polygon class="cls-14" points="978.25 184.48 964.21 208.96 980.12 208.96 986.2 198.36 978.25 184.48"/><path class="cls-3" d="M992.84,186.77a4.62,4.62,0,0,0,0-4.58L980.12,160H964.21l22,38.36Z"/></g></g></svg>