<svg xmlns="http://www.w3.org/2000/svg" xmlns:xlink="http://www.w3.org/1999/xlink" viewBox="0 0 1920 1000"><defs><style>.cls-1{isolation:isolate;}.cls-2{fill:#34a853;}.cls-3{fill:#2c66bf;}.cls-4{fill:#eff0f2;}.cls-5{fill:#9fc1f9;}.cls-24,.cls-25,.cls-26,.cls-30,.cls-33,.cls-34,.cls-35,.cls-37,.cls-6,.cls-7{mix-blend-mode:multiply;}.cls-6{fill:url(#linear-gradient);}.cls-7{fill:url(#linear-gradient-2);}.cls-8{fill:#eda606;}.cls-9{fill:#ffbc00;}.cls-10{fill:#ffa900;}.cls-11{fill:#e4594e;}.cls-12{fill:#fbc730;}.cls-13{fill:#df382b;}.cls-14{fill:#b7251d;}.cls-15{fill:#73cb8a;}.cls-16{fill:#4285f4;}.cls-17{fill:#174689;}.cls-18{fill:#fcd35c;}.cls-19{fill:#80adf7;}.cls-20{fill:#53ba6f;}.cls-21{fill:#dfe1e5;}.cls-22{fill:#f2b408;}.cls-23{fill:#ea7a72;}.cls-24{fill:url(#linear-gradient-3);}.cls-25{fill:url(#linear-gradient-4);}.cls-26{fill:url(#linear-gradient-5);}.cls-27{fill:#e09108;}.cls-28{fill:#fabb05;}.cls-29{fill:#6199f6;}.cls-30{fill:url(#linear-gradient-6);}.cls-31{fill:#90130e;}.cls-32{fill:#126b26;}.cls-33{fill:url(#linear-gradient-7);}.cls-34{fill:url(#linear-gradient-8);}.cls-35{fill:url(#linear-gradient-9);}.cls-36{fill:#23893c;}.cls-37{fill:url(#linear-gradient-10);}.cls-38,.cls-39{fill:#636363;}.cls-39{font-size:14.16px;font-family:ProductSans-Regular, Product Sans;letter-spacing:0.03em;}.cls-40{letter-spacing:0.04em;}.cls-41{letter-spacing:0.01em;}.cls-42{letter-spacing:0.04em;}.cls-43{letter-spacing:0.04em;}.cls-44{fill:#ffa700;}</style><linearGradient id="linear-gradient" x1="150.91" y1="585.84" x2="310.17" y2="745.11" gradientUnits="userSpaceOnUse"><stop offset="0" stop-color="#ccc"/><stop offset="1" stop-color="#fff" stop-opacity="0"/></linearGradient><linearGradient id="linear-gradient-2" x1="123.42" y1="749.79" x2="316.89" y2="943.26" xlink:href="#linear-gradient"/><linearGradient id="linear-gradient-3" x1="730.47" y1="534.5" x2="878.51" y2="682.54" xlink:href="#linear-gradient"/><linearGradient id="linear-gradient-4" x1="419.99" y1="812.82" x2="611.12" y2="1003.95" xlink:href="#linear-gradient"/><linearGradient id="linear-gradient-5" x1="594.33" y1="596.88" x2="758.07" y2="760.62" xlink:href="#linear-gradient"/><linearGradient id="linear-gradient-6" x1="1650.92" y1="812.82" x2="1842.05" y2="1003.95" xlink:href="#linear-gradient"/><linearGradient id="linear-gradient-7" x1="300.13" y1="661.64" x2="454.69" y2="816.2" xlink:href="#linear-gradient"/><linearGradient id="linear-gradient-8" x1="892.56" y1="550.94" x2="1007.89" y2="666.26" xlink:href="#linear-gradient"/><linearGradient id="linear-gradient-9" x1="892.56" y1="432.83" x2="1007.89" y2="548.15" xlink:href="#linear-gradient"/><linearGradient id="linear-gradient-10" x1="1041.97" y1="677.75" x2="1193.51" y2="829.29" xlink:href="#linear-gradient"/></defs><title>GDD-europe</title><g class="cls-1"><g id="Layer_1" data-name="Layer 1"><rect class="cls-2" x="122.96" y="822.33" width="148.32" height="178.09"/><rect class="cls-3" x="122.96" y="645.52" width="148.32" height="178.09"/><rect class="cls-4" x="145.94" y="855.86" width="41.7" height="41.7"/><rect class="cls-5" x="207.46" y="855.86" width="41.7" height="41.7"/><rect class="cls-5" x="146.75" y="922.92" width="41.7" height="41.7"/><rect class="cls-4" x="207.08" y="920.79" width="42.45" height="79.7"/><polygon class="cls-6" points="151.03 645.52 270.15 645.52 270.15 747.26 151.03 645.52"/><polygon class="cls-7" points="122.44 823.41 271.66 823.41 271.8 942.35 122.44 823.41"/><path class="cls-8" d="M122.76,825.16a74.23,74.23,0,1,1,148.45,0Z"/><path class="cls-9" d="M154.14,825.16a42.85,42.85,0,1,1,85.69,0Z"/><rect class="cls-10" x="145.51" y="678.76" width="41.7" height="41.7"/><rect class="cls-9" x="207.03" y="678.76" width="41.7" height="41.7"/><rect class="cls-11" x="417.87" y="823.31" width="148.1" height="177.11"/><rect class="cls-12" x="565.14" y="658.66" width="148.35" height="165.05"/><rect class="cls-13" x="419.51" y="636.49" width="145.57" height="100.98" transform="translate(984.58 1373.95) rotate(180)"/><rect class="cls-14" x="-24.92" y="733.87" width="147.47" height="63.14"/><path class="cls-2" d="M-23.73,796.74A23.83,23.83,0,0,1,.1,772.91a23.83,23.83,0,0,1,23.84,23.83Z"/><path class="cls-15" d="M24.68,796.74a23.84,23.84,0,0,1,47.67,0Z"/><path class="cls-2" d="M73.43,796.74a23.83,23.83,0,0,1,47.66,0Z"/><polygon class="cls-5" points="419.81 636.38 565.08 636.38 495.36 555.07 419.81 636.38"/><rect class="cls-13" x="417.87" y="823.15" width="147.01" height="61.35"/><polygon class="cls-16" points="442.49 636.38 542.4 636.38 494.45 580.46 442.49 636.38"/><polygon class="cls-13" points="-24.99 734.33 123.02 734.33 51.99 651.48 -24.99 734.33"/><rect class="cls-16" x="447.47" y="708.47" width="88.51" height="146.7" rx="7.62" transform="translate(1273.55 290.1) rotate(90)"/><rect class="cls-5" x="450.12" y="731.15" width="66.23" height="101.36" transform="translate(-298.58 1265.06) rotate(-90)"/><circle class="cls-17" cx="550.36" cy="781.82" r="4.68"/><rect class="cls-18" x="729.26" y="590.78" width="114.75" height="56.8"/><polygon class="cls-8" points="729.26 590.78 844.01 590.78 788.94 526.55 729.26 590.78"/><polygon class="cls-13" points="565.07 658.92 713.09 658.92 642.05 576.07 565.07 658.92"/><polygon class="cls-2" points="565.07 824.08 713.09 824.08 642.05 741.23 565.07 824.08"/><rect class="cls-18" x="433.73" y="651.73" width="30.38" height="30.38"/><rect class="cls-12" x="433.73" y="692.86" width="30.38" height="30.38"/><rect class="cls-12" x="475.74" y="651.73" width="30.38" height="30.38"/><rect class="cls-8" x="475.74" y="692.86" width="30.38" height="30.38"/><rect class="cls-8" x="518.73" y="651.73" width="30.38" height="30.38"/><rect class="cls-12" x="518.73" y="692.86" width="30.38" height="30.38"/><rect class="cls-2" x="250.02" y="900.05" width="167.55" height="100.98" transform="translate(667.6 1901.08) rotate(180)"/><polygon class="cls-2" points="123.06 645.72 271.32 645.72 200.17 562.73 123.06 645.72"/><rect class="cls-5" x="286.23" y="915.29" width="30.38" height="30.38"/><rect class="cls-19" x="286.23" y="956.42" width="30.38" height="30.38"/><rect class="cls-19" x="328.24" y="915.29" width="30.38" height="30.38"/><rect class="cls-5" x="328.24" y="956.42" width="30.38" height="30.38"/><rect class="cls-5" x="371.22" y="915.29" width="30.38" height="30.38"/><rect class="cls-19" x="371.22" y="956.42" width="30.38" height="30.38"/><rect class="cls-13" x="729.71" y="617.65" width="16.64" height="29.72"/><rect class="cls-13" x="762.79" y="617.65" width="16.64" height="29.72"/><rect class="cls-13" x="795.08" y="617.65" width="16.64" height="29.72"/><rect class="cls-13" x="827.37" y="617.64" width="16.64" height="29.72"/><rect class="cls-18" x="430.22" y="826.08" width="18.19" height="59.37"/><rect class="cls-18" x="465.51" y="826.08" width="18.19" height="59.37"/><rect class="cls-18" x="500.8" y="826.08" width="18.19" height="59.37"/><rect class="cls-18" x="536.1" y="826.08" width="18.19" height="59.37"/><rect class="cls-16" x="714.08" y="848.19" width="148.1" height="152.23"/><rect class="cls-13" x="737.02" y="923.91" width="41.64" height="75"/><rect class="cls-19" x="798.45" y="940.82" width="41.64" height="41.64"/><rect class="cls-20" x="565.98" y="822.59" width="148.1" height="177.83"/><rect class="cls-21" x="588.92" y="856.1" width="41.64" height="41.64"/><rect class="cls-4" x="650.35" y="856.1" width="41.64" height="41.64"/><rect class="cls-21" x="650.35" y="923.06" width="41.64" height="41.64"/><rect class="cls-16" x="588.92" y="679.25" width="41.64" height="41.64"/><rect class="cls-3" x="650.35" y="679.25" width="41.64" height="41.64"/><rect class="cls-16" x="588.74" y="920.83" width="42.39" height="79.59"/><rect class="cls-22" x="449.07" y="919.01" width="43.7" height="82.04"/><rect class="cls-18" x="492.4" y="919.01" width="43.7" height="82.04"/><path class="cls-15" d="M153.11,645.72a45.57,45.57,0,1,1,91.14,0Z"/><path class="cls-23" d="M594.43,658.92a44.65,44.65,0,0,1,89.3,0Z"/><polygon class="cls-24" points="729.71 590.84 843.9 590.84 844.01 681.85 729.71 590.84"/><polygon class="cls-25" points="419.33 885.24 565.49 885.24 565.64 1004 419.33 885.24"/><polygon class="cls-26" points="593.74 658.95 719.08 658.95 719.08 760.69 593.74 658.95"/><rect class="cls-2" x="1648.8" y="823.31" width="148.1" height="177.11"/><rect class="cls-27" x="1650.43" y="636.49" width="145.57" height="100.98" transform="translate(3446.43 1373.95) rotate(180)"/><polygon class="cls-17" points="1650.74 637.17 1796 637.17 1726.29 555.86 1650.74 637.17"/><rect class="cls-13" x="1648.8" y="823.15" width="147.01" height="61.35"/><polygon class="cls-16" points="1673.42 637.17 1773.32 637.17 1725.38 581.25 1673.42 637.17"/><polygon class="cls-13" points="1011.51 735.71 1159.52 735.71 1088.49 652.86 1011.51 735.71"/><polygon class="cls-2" points="1796.9 823.29 1944.91 823.29 1873.88 740.43 1796.9 823.29"/><rect class="cls-18" x="1664.66" y="651.73" width="30.38" height="30.38"/><rect class="cls-12" x="1664.66" y="692.86" width="30.38" height="30.38"/><rect class="cls-12" x="1706.67" y="651.73" width="30.38" height="30.38"/><rect class="cls-4" x="1706.67" y="692.86" width="30.38" height="30.38"/><rect class="cls-4" x="1749.65" y="651.73" width="30.38" height="30.38"/><rect class="cls-12" x="1749.65" y="692.86" width="30.38" height="30.38"/><rect class="cls-16" x="1010.72" y="735.61" width="148.1" height="174.91"/><rect class="cls-28" x="861.73" y="821.87" width="149.36" height="178.55"/><rect class="cls-4" x="1033.66" y="830.18" width="41.64" height="41.64"/><rect class="cls-19" x="1095.09" y="830.18" width="41.64" height="41.64"/><rect class="cls-19" x="1033.66" y="769.12" width="41.64" height="41.64"/><rect class="cls-29" x="1095.09" y="769.12" width="41.64" height="41.64"/><rect class="cls-18" x="1661.14" y="824.45" width="18.19" height="59.37"/><rect class="cls-18" x="1696.43" y="824.45" width="18.19" height="59.37"/><rect class="cls-18" x="1731.73" y="824.45" width="18.19" height="59.37"/><rect class="cls-18" x="1767.02" y="824.45" width="18.19" height="59.37"/><rect class="cls-16" x="1796.9" y="822.59" width="148.1" height="177.83"/><rect class="cls-21" x="1819.85" y="856.1" width="41.64" height="41.64"/><rect class="cls-4" x="1881.27" y="856.1" width="41.64" height="41.64"/><rect class="cls-21" x="1881.27" y="923.06" width="41.64" height="41.64"/><rect class="cls-3" x="1819.66" y="920.83" width="42.39" height="79.59"/><rect class="cls-22" x="1680" y="919.01" width="43.7" height="82.04"/><rect class="cls-18" x="1723.32" y="919.01" width="43.7" height="82.04"/><polygon class="cls-30" points="1650.26 885.24 1796.42 885.24 1796.56 1004 1650.26 885.24"/><rect class="cls-16" x="448.57" y="708.88" width="88.4" height="146.52" rx="7.61" transform="translate(1274.9 289.37) rotate(90)"/><rect class="cls-15" x="451.22" y="731.52" width="66.15" height="101.23" transform="translate(-297.84 1266.43) rotate(-90)"/><rect class="cls-13" x="713.55" y="647.28" width="148.03" height="202.08" rx="11.56" transform="translate(1575.12 1496.65) rotate(180)"/><rect class="cls-19" x="726.34" y="661.03" width="122.43" height="157.17"/><rect class="cls-31" x="776.89" y="828.61" width="21.35" height="8.34"/><rect class="cls-28" x="539.66" y="777.97" width="21.35" height="8.34" transform="translate(-231.8 1332.47) rotate(-90)"/><rect class="cls-14" x="1679.24" y="706.94" width="88.4" height="146.52" rx="7.61" transform="translate(2503.64 -943.24) rotate(90)"/><rect class="cls-15" x="1681.89" y="729.59" width="66.15" height="101.23" transform="translate(934.76 2495.16) rotate(-90)"/><rect class="cls-28" x="1770.33" y="776.03" width="21.35" height="8.34" transform="translate(1000.81 2561.2) rotate(-90)"/><rect class="cls-28" x="1426.44" y="760.56" width="148.1" height="228.25"/><rect class="cls-16" x="1574.54" y="761.48" width="74.05" height="239.15"/><rect class="cls-3" x="1352.91" y="761.48" width="74.05" height="239.15"/><rect class="cls-13" x="1427.18" y="762.79" width="147.68" height="201.61" rx="11.53" transform="translate(3002.04 1727.19) rotate(180)"/><rect class="cls-2" x="1439.95" y="776.51" width="122.15" height="156.8"/><path class="cls-32" d="M1550.5,835.12a49.47,49.47,0,0,0-98.93-.88h0v0c0,.27,0,.55,0,.83h0v98.07h98.78V835.12Z"/><path class="cls-28" d="M1464.73,933.2V834.29a36.35,36.35,0,0,1,72.58-2.08l0,2.91V933.2Z"/><rect class="cls-23" x="1490.7" y="944.23" width="20.64" height="8.06"/><polygon class="cls-3" points="1500.33 414.96 1461.51 619.07 1539.15 619.07 1500.33 414.96"/><rect class="cls-17" x="1447.91" y="618.41" width="103.4" height="38.26"/><rect class="cls-13" x="1457.06" y="656.4" width="87.93" height="79.01"/><rect class="cls-28" x="1447.91" y="591.72" width="12.19" height="26.69"/><rect class="cls-28" x="1539.15" y="591.72" width="12.19" height="26.69"/><rect class="cls-28" x="1516.34" y="591.72" width="12.19" height="26.69"/><rect class="cls-28" x="1493.53" y="591.72" width="12.19" height="26.69"/><rect class="cls-28" x="1470.72" y="591.72" width="12.19" height="26.69"/><polygon class="cls-13" points="935.81 387.15 896.66 439.01 974.96 439.01 935.81 387.15"/><rect class="cls-3" x="882.95" y="438.34" width="104.28" height="38.58"/><rect class="cls-16" x="882.95" y="556.07" width="104.28" height="38.58"/><rect class="cls-11" x="891.64" y="476.66" width="88.67" height="79.68"/><rect class="cls-2" x="892.07" y="593.98" width="88.67" height="228.74"/><rect class="cls-28" x="882.95" y="424.88" width="12.3" height="13.46"/><rect class="cls-28" x="974.96" y="424.88" width="12.3" height="13.46"/><polygon class="cls-28" points="1427.18 761.27 1574.54 761.27 1502.24 678.79 1427.18 761.27"/><polygon class="cls-2" points="1352.49 762.9 1426.17 762.9 1390.81 721.65 1352.49 762.9"/><polygon class="cls-15" points="1575.58 761.27 1649.26 761.27 1613.9 720.03 1575.58 761.27"/><circle class="cls-28" cx="935.97" cy="516.5" r="27.66"/><rect class="cls-28" x="916.52" y="620.27" width="39.77" height="202.74"/><rect class="cls-4" x="1374.27" y="812.04" width="31.33" height="54.72"/><circle class="cls-4" cx="1389.93" cy="812.31" r="15.67"/><rect class="cls-4" x="1374.27" y="918.32" width="31.33" height="54.72"/><circle class="cls-4" cx="1389.93" cy="918.59" r="15.67"/><rect class="cls-4" x="1595.9" y="812.04" width="31.33" height="54.72"/><circle class="cls-4" cx="1611.57" cy="812.31" r="15.67"/><rect class="cls-4" x="1595.9" y="918.32" width="31.33" height="54.72"/><circle class="cls-4" cx="1611.57" cy="918.59" r="15.67"/><rect class="cls-14" x="884.01" y="846.04" width="104" height="154.38"/><path class="cls-15" d="M969.31,895.11a33.33,33.33,0,0,0-66.6,0h-.08v105.32h66.76V895.11Z"/><rect class="cls-14" x="1418.46" y="982.3" width="166.17" height="18.33"/><rect class="cls-23" x="1426.24" y="964.4" width="148.88" height="18.33"/><polygon class="cls-11" points="343.92 457.63 305.1 603.02 382.73 603.02 343.92 457.63"/><rect class="cls-16" x="292.21" y="602.36" width="103.4" height="38.26"/><rect class="cls-14" x="299.95" y="640.35" width="87.93" height="79.01"/><rect class="cls-28" x="286.23" y="719.37" width="115.37" height="180.69"/><path class="cls-23" d="M378.24,771.76a33.59,33.59,0,0,0-67.11,0h-.07v66.13h67.26V771.76Z"/><rect class="cls-2" x="291.97" y="877.55" width="109.5" height="37.74"/><path class="cls-3" d="M417.87,900.22H397.22a13.9,13.9,0,0,0-13.88-13.88h-16.5a32.62,32.62,0,0,1-22.24-8.7,32.63,32.63,0,0,1-22.25,8.7H305.86A13.9,13.9,0,0,0,292,900.22H271.32a34.58,34.58,0,0,1,34.54-34.54h16.49a12,12,0,0,0,12-10.79h20.55a12,12,0,0,0,12,10.79h16.5A34.58,34.58,0,0,1,417.87,900.22Z"/><polygon class="cls-33" points="299.57 720.23 417.87 720.23 417.87 816.26 299.57 720.23"/><path class="cls-18" d="M713.5,927.8a74.12,74.12,0,1,1,148.23,0Z"/><path class="cls-4" d="M370,680.7a26.14,26.14,0,0,0-52.23,0h-.05v38.74h52.33V680.7Z"/><rect class="cls-28" x="882.92" y="799.9" width="111.9" height="23.16"/><path class="cls-11" d="M1011.58,823.06H990.47a14.21,14.21,0,0,0-14.19-14.19H959.43A33.34,33.34,0,0,1,936.69,800,33.29,33.29,0,0,1,914,808.87H897.11a14.21,14.21,0,0,0-14.19,14.19H861.81a35.34,35.34,0,0,1,35.3-35.3H914a12.27,12.27,0,0,0,12.24-11h21a12.27,12.27,0,0,0,12.24,11h16.85A35.35,35.35,0,0,1,1011.58,823.06Z"/><polygon class="cls-34" points="892.04 594.77 980.74 594.77 980.31 666.42 892.04 594.77"/><polygon class="cls-35" points="892.04 476.66 980.74 476.66 980.31 548.31 892.04 476.66"/><circle class="cls-8" cx="1255.98" cy="644.64" r="59.9"/><rect class="cls-36" x="1040.16" y="880.98" width="89.83" height="148.89" rx="7.73" transform="translate(129.65 2040.5) rotate(-90)"/><rect class="cls-19" x="1060.08" y="904" width="67.22" height="102.87" transform="translate(2049.12 -138.26) rotate(90)"/><rect class="cls-28" x="1015.73" y="951.19" width="21.7" height="8.48" transform="translate(1982.01 -71.15) rotate(90)"/><rect class="cls-22" x="-25" y="796.53" width="148.03" height="202.08" rx="11.56" transform="translate(98.03 1795.13) rotate(180)"/><rect class="cls-16" x="-12.2" y="810.28" width="122.43" height="157.17"/><rect class="cls-31" x="38.34" y="977.86" width="21.35" height="8.34"/><path class="cls-13" d="M1158.82,878.39v92.54h20.7a76.19,76.19,0,0,1,152.37,0h21.26V878.39Z"/><rect class="cls-28" x="1158.82" y="851.42" width="194.33" height="28.08"/><rect class="cls-29" x="1158.82" y="968.87" width="194.33" height="31.55"/><path class="cls-16" d="M1353.15,968.87a31.87,31.87,0,0,1-63.73,0Z"/><path class="cls-16" d="M1288.43,968.87a31.87,31.87,0,0,1-63.74,0Z"/><path class="cls-16" d="M1223.25,968.87a31.87,31.87,0,0,1-63.73,0Z"/><path class="cls-28" d="M1041.32,736a44.65,44.65,0,1,1,89.3,0Z"/><polygon class="cls-37" points="1040.63 735.99 1159.52 735.71 1158.82 827.95 1040.63 735.99"/><path class="cls-38" d="M921.73,243.74V226h5.43a8.83,8.83,0,0,1,6.53,2.46,9.59,9.59,0,0,1,0,12.85,8.86,8.86,0,0,1-6.53,2.45ZM924,228.16v13.4h3.15a6.71,6.71,0,1,0,0-13.4Z"/><path class="cls-38" d="M943.55,244.13a5.81,5.81,0,0,1-4.41-1.83,6.47,6.47,0,0,1-1.74-4.64,6.56,6.56,0,0,1,1.69-4.62,6,6,0,0,1,8.61-.1,7,7,0,0,1,1.6,4.9l0,.24h-9.55a4,4,0,0,0,1.19,2.88,3.85,3.85,0,0,0,6.15-1.09l2,1a6.13,6.13,0,0,1-2.27,2.41A6.29,6.29,0,0,1,943.55,244.13Zm-3.65-7.93h7a3,3,0,0,0-1-2.1,3.62,3.62,0,0,0-2.49-.83,3.31,3.31,0,0,0-2.22.8A3.77,3.77,0,0,0,939.9,236.2Z"/><path class="cls-38" d="M957,243.74h-2.28l-4.91-12.15h2.48L955.9,241H956l3.62-9.42H962Z"/><path class="cls-38" d="M968.58,244.13a5.83,5.83,0,0,1-4.42-1.83,6.47,6.47,0,0,1-1.74-4.64,6.61,6.61,0,0,1,1.69-4.62,6.06,6.06,0,0,1,8.62-.1,7,7,0,0,1,1.6,4.9l0,.24h-9.54A4,4,0,0,0,966,241a3.85,3.85,0,0,0,6.15-1.09l2,1a6,6,0,0,1-2.27,2.41A6.25,6.25,0,0,1,968.58,244.13Zm-3.65-7.93h7a3.07,3.07,0,0,0-1-2.1,3.62,3.62,0,0,0-2.49-.83,3.31,3.31,0,0,0-2.22.8A3.77,3.77,0,0,0,964.93,236.2Z"/><path class="cls-38" d="M978.69,226v17.76h-2.28V226Z"/><path class="cls-38" d="M980.65,237.66a6.46,6.46,0,0,1,1.76-4.64,6,6,0,0,1,4.49-1.83,5.94,5.94,0,0,1,4.47,1.83,6.39,6.39,0,0,1,1.78,4.64,6.33,6.33,0,0,1-1.78,4.64,5.94,5.94,0,0,1-4.47,1.83,6,6,0,0,1-4.49-1.83A6.44,6.44,0,0,1,980.65,237.66Zm2.29,0a4.46,4.46,0,0,0,1.14,3.18,3.9,3.9,0,0,0,5.65,0,5,5,0,0,0,0-6.33,3.84,3.84,0,0,0-5.65,0A4.42,4.42,0,0,0,982.94,237.66Z"/><path class="cls-38" d="M1001.44,244.13a5.29,5.29,0,0,1-2.45-.57,4.22,4.22,0,0,1-1.69-1.51h-.1l.1,1.69v5.36H995V231.59h2.19v1.68h.1a4.22,4.22,0,0,1,1.69-1.51,5.41,5.41,0,0,1,6.52,1.31,6.67,6.67,0,0,1,1.71,4.59,6.6,6.6,0,0,1-1.71,4.59A5.22,5.22,0,0,1,1001.44,244.13Zm-.37-2.08a3.55,3.55,0,0,0,2.75-1.24,4.49,4.49,0,0,0,1.11-3.15,4.56,4.56,0,0,0-1.11-3.15,3.7,3.7,0,0,0-5.53,0,5.14,5.14,0,0,0,0,6.33A3.61,3.61,0,0,0,1001.07,242.05Z"/><path class="cls-38" d="M1014.76,244.13a5.83,5.83,0,0,1-4.42-1.83,6.46,6.46,0,0,1-1.73-4.64,6.6,6.6,0,0,1,1.68-4.62,6.06,6.06,0,0,1,8.62-.1,7,7,0,0,1,1.6,4.9l0,.24h-9.55a4,4,0,0,0,1.19,2.88,3.85,3.85,0,0,0,6.15-1.09l2,1a6,6,0,0,1-2.27,2.41A6.23,6.23,0,0,1,1014.76,244.13Zm-3.65-7.93h7a3.07,3.07,0,0,0-1-2.1,3.62,3.62,0,0,0-2.49-.83,3.31,3.31,0,0,0-2.22.8A3.77,3.77,0,0,0,1011.11,236.2Z"/><path class="cls-38" d="M1024.88,243.74h-2.29V231.59h2.19v2h.1a3.23,3.23,0,0,1,1.42-1.65,4,4,0,0,1,2.12-.68,4.26,4.26,0,0,1,1.69.3l-.7,2.2a3.9,3.9,0,0,0-1.34-.17,3,3,0,0,0-2.24,1,3.48,3.48,0,0,0-.95,2.43Z"/><path class="cls-38" d="M1035.78,243.74V226h5.43a8.83,8.83,0,0,1,6.53,2.46,9.59,9.59,0,0,1,0,12.85,8.86,8.86,0,0,1-6.53,2.45Zm2.28-15.58v13.4h3.15a6.71,6.71,0,1,0,0-13.4Z"/><path class="cls-38" d="M1057.13,231.19a5.64,5.64,0,0,1,4,1.35,4.79,4.79,0,0,1,1.47,3.71v7.49h-2.19v-1.69h-.1a4.33,4.33,0,0,1-3.77,2.08,4.88,4.88,0,0,1-3.36-1.19,3.79,3.79,0,0,1-1.35-3,3.61,3.61,0,0,1,1.43-3,6,6,0,0,1,3.81-1.12,6.66,6.66,0,0,1,3.34.75v-.53a2.6,2.6,0,0,0-.94-2,3.25,3.25,0,0,0-2.21-.83,3.49,3.49,0,0,0-3,1.61l-2-1.26A5.59,5.59,0,0,1,1057.13,231.19Zm-3,8.83a1.84,1.84,0,0,0,.75,1.49,2.85,2.85,0,0,0,1.78.59,3.62,3.62,0,0,0,2.57-1.07,3.33,3.33,0,0,0,1.12-2.5,4.69,4.69,0,0,0-3-.84,3.84,3.84,0,0,0-2.32.67A2,2,0,0,0,1054.18,240Z"/><path class="cls-38" d="M1075.78,231.59l-7.61,17.51h-2.36l2.83-6.13-5-11.38h2.48l3.62,8.73h0l3.52-8.73Z"/><path class="cls-38" d="M1086.32,240.37a3.27,3.27,0,0,1-1.39,2.67,5.45,5.45,0,0,1-3.49,1.09,5.54,5.54,0,0,1-3.23-.95,5.22,5.22,0,0,1-2-2.52l2-.87a3.75,3.75,0,0,0,1.3,1.7,3.15,3.15,0,0,0,1.88.61,3.35,3.35,0,0,0,1.82-.47,1.33,1.33,0,0,0,.73-1.12c0-.77-.6-1.34-1.79-1.71l-2.08-.52c-2.36-.59-3.55-1.73-3.55-3.42a3.15,3.15,0,0,1,1.36-2.67,6.2,6.2,0,0,1,6.37-.23,4.12,4.12,0,0,1,1.82,2.06l-2,.84a2.57,2.57,0,0,0-1.13-1.2,3.53,3.53,0,0,0-1.75-.44,2.93,2.93,0,0,0-1.6.45,1.28,1.28,0,0,0-.7,1.09c0,.69.65,1.19,1.95,1.49l1.84.47Q1086.31,237.61,1086.32,240.37Z"/><path class="cls-38" d="M844.13,244.21a9.43,9.43,0,0,0,7.18-2.89,9.29,9.29,0,0,0,2.44-6.58,9.17,9.17,0,0,0-.15-1.76h-9.47v2.81h6.73a5.94,5.94,0,0,1-1.53,3.55,6.93,6.93,0,0,1-5.2,2.06,7.49,7.49,0,0,1,0-15,7.17,7.17,0,0,1,5.07,2l2-2a9.82,9.82,0,0,0-7.06-2.84,10.3,10.3,0,1,0,0,20.6Zm17.27-13.27a6.64,6.64,0,1,0,6.66,6.63A6.54,6.54,0,0,0,861.4,230.94Zm0,10.66a4,4,0,1,1,3.74-4A3.84,3.84,0,0,1,861.4,241.6Zm14.52-10.66a6.64,6.64,0,1,0,6.66,6.63A6.54,6.54,0,0,0,875.92,230.94Zm0,10.66a4,4,0,1,1,3.75-4A3.84,3.84,0,0,1,875.92,241.6Zm17.83-10.25v1.08h-.1a4.61,4.61,0,0,0-3.49-1.49,6.64,6.64,0,0,0,0,13.27,4.55,4.55,0,0,0,3.49-1.51h.1v1c0,2.54-1.36,3.9-3.54,3.9a3.66,3.66,0,0,1-3.34-2.36l-2.54,1.05a6.32,6.32,0,0,0,5.88,3.92c3.41,0,6.3-2,6.3-6.91v-11.9Zm-3.34,10.25a4,4,0,0,1,0-8c2,0,3.54,1.71,3.54,4A3.71,3.71,0,0,1,890.41,241.6Zm11-17.29h-2.91v19.5h2.91Zm8,17.29a3.36,3.36,0,0,1-3.21-2l8.87-3.67-.31-.75A6.14,6.14,0,0,0,909.1,231a6.3,6.3,0,0,0-6.26,6.63,6.5,6.5,0,0,0,6.58,6.63,6.61,6.61,0,0,0,5.53-2.94l-2.26-1.51A3.8,3.8,0,0,1,909.42,241.6Zm-.23-8.09a2.57,2.57,0,0,1,2.47,1.4l-5.93,2.46A3.62,3.62,0,0,1,909.19,233.51Z"/><text class="cls-39" transform="translate(919.05 272.42)">E<tspan class="cls-40" x="8.1" y="0">u</tspan><tspan class="cls-41" x="16.34" y="0">r</tspan><tspan class="cls-42" x="21.62" y="0">o</tspan><tspan class="cls-43" x="30.04" y="0">pe 2</tspan><tspan x="58.47" y="0">0</tspan><tspan class="cls-43" x="67.93" y="0">17</tspan></text><polygon class="cls-13" points="941.75 184.48 955.79 160 939.88 160 933.8 170.6 941.75 184.48"/><path class="cls-16" d="M927.16,182.19a4.62,4.62,0,0,0,0,4.58L939.88,209h15.91l-22-38.36Z"/><polygon class="cls-44" points="978.25 184.48 964.21 208.96 980.12 208.96 986.2 198.36 978.25 184.48"/><path class="cls-2" d="M992.84,186.77a4.62,4.62,0,0,0,0-4.58L980.12,160H964.21l22,38.36Z"/></g></g></svg>