<?xml version="1.0" standalone="no"?>
<!DOCTYPE svg PUBLIC "-//W3C//DTD SVG 20010904//EN"
 "http://www.w3.org/TR/2001/REC-SVG-20010904/DTD/svg10.dtd">
<svg version="1.0" xmlns="http://www.w3.org/2000/svg"
 width="512.000000pt" height="512.000000pt" viewBox="0 0 512.000000 512.000000"
 preserveAspectRatio="xMidYMid meet">
<metadata>
Created by potrace 1.11, written by Peter Selinger 2001-2013
</metadata>
<g transform="translate(0.000000,512.000000) scale(0.100000,-0.100000)"
fill="#000000" stroke="none">
<path d="M2450 4664 c-19 -2 -78 -9 -130 -15 -270 -30 -579 -139 -814 -286
-252 -158 -622 -437 -801 -605 -125 -117 -218 -288 -256 -473 -17 -82 -19
-145 -19 -730 0 -585 2 -648 19 -730 38 -185 131 -356 256 -473 176 -165 536
-438 783 -593 327 -206 688 -312 1067 -313 182 0 297 13 470 54 332 79 556
195 981 512 410 304 544 442 625 643 67 169 69 188 69 900 0 712 -2 731 -69
900 -81 201 -215 339 -625 643 -480 358 -750 485 -1156 547 -98 15 -338 26
-400 19z m390 -358 c200 -36 415 -115 582 -216 140 -84 384 -258 564 -401 242
-193 302 -262 349 -402 23 -70 25 -89 25 -264 0 -211 -10 -267 -62 -365 -17
-32 -49 -79 -70 -103 -72 -82 -865 -692 -1119 -861 -197 -132 -329 -175 -539
-175 -214 0 -362 48 -560 181 -192 129 -510 376 -510 395 0 11 301 245 315
245 2 0 96 -69 207 -153 274 -207 351 -241 543 -241 113 0 195 18 289 64 64
32 928 678 1007 754 26 25 60 71 75 103 25 51 29 69 29 148 0 82 -3 97 -33
157 -36 74 -60 98 -250 246 -303 235 -509 370 -646 423 -154 59 -257 81 -422
86 -314 11 -503 -46 -789 -237 -158 -106 -525 -381 -836 -626 -115 -90 -211
-164 -214 -164 -3 0 -5 66 -5 146 0 327 59 410 545 776 154 116 364 256 465
312 151 82 413 164 595 185 107 13 360 6 465 -13z m-93 -732 c181 -37 308
-107 608 -332 147 -111 285 -221 285 -227 0 -5 -276 -216 -305 -234 -18 -11
-41 3 -225 141 -277 208 -355 242 -545 242 -113 0 -191 -17 -288 -64 -86 -43
-991 -725 -1039 -784 -99 -124 -104 -295 -12 -428 45 -65 446 -374 666 -514
219 -139 458 -202 727 -192 208 8 393 60 556 155 146 85 471 323 928 680 136
106 251 193 255 193 4 0 4 -78 1 -172 -6 -190 -18 -239 -84 -343 -74 -117
-479 -442 -810 -649 -544 -342 -1215 -352 -1757 -26 -236 142 -674 474 -793
601 -65 70 -106 145 -130 235 -18 71 -21 375 -4 456 16 74 59 164 107 224 76
96 1016 818 1222 938 76 44 171 81 255 99 95 21 286 21 382 1z m-47 -774 c62
-31 330 -233 326 -245 -1 -5 -69 -60 -150 -122 -157 -120 -223 -153 -305 -153
-93 0 -142 24 -311 150 -88 66 -160 123 -160 127 1 8 195 155 283 216 90 61
227 73 317 27z"/>
</g>
</svg>
