<?xml version="1.0" standalone="no"?>
<!DOCTYPE svg PUBLIC "-//W3C//DTD SVG 20010904//EN"
 "http://www.w3.org/TR/2001/REC-SVG-20010904/DTD/svg10.dtd">
<svg version="1.0" xmlns="http://www.w3.org/2000/svg"
 width="700.000000pt" height="700.000000pt" viewBox="0 0 700.000000 700.000000"
 preserveAspectRatio="xMidYMid meet">
<metadata>
Created by potrace 1.11, written by Peter Selinger 2001-2013
</metadata>
<g transform="translate(0.000000,700.000000) scale(0.100000,-0.100000)"
fill="#000000" stroke="none">
<path d="M3458 6725 c-2 -1 -59 -5 -128 -9 -69 -3 -136 -8 -150 -10 -14 -3
-65 -10 -115 -16 -215 -29 -572 -125 -709 -191 -22 -10 -44 -19 -49 -19 -15 0
-297 -143 -382 -195 -145 -87 -560 -371 -660 -452 -5 -5 -30 -24 -55 -43 -58
-44 -322 -252 -336 -265 -7 -5 -36 -30 -65 -55 -193 -162 -282 -261 -378 -419
-60 -100 -113 -223 -146 -344 -27 -99 -30 -120 -41 -242 -9 -102 -10 -1808 -1
-1935 22 -306 167 -618 393 -844 44 -45 94 -92 111 -106 17 -14 100 -82 185
-151 336 -276 812 -615 1063 -756 89 -51 294 -149 372 -179 209 -80 493 -158
653 -179 36 -4 126 -18 140 -20 89 -17 432 -23 570 -11 428 38 835 155 1190
343 331 175 891 575 1305 932 144 125 186 168 268 276 144 191 242 446 264
688 9 95 9 1861 0 1954 -26 277 -152 575 -326 767 -212 235 -903 765 -1356
1041 -100 61 -350 186 -430 215 -189 69 -252 90 -360 118 -103 27 -146 37
-200 48 -50 10 -211 34 -255 39 -103 10 -367 24 -372 20z m307 -529 c22 -3 74
-11 115 -17 223 -32 498 -116 719 -220 283 -133 851 -531 1301 -913 135 -114
238 -249 288 -376 52 -133 56 -159 58 -450 2 -262 1 -279 -22 -369 -25 -96
-71 -198 -126 -280 -51 -75 -142 -159 -343 -316 -104 -82 -251 -197 -325 -255
-74 -58 -250 -193 -390 -299 -140 -107 -271 -205 -290 -220 -19 -14 -44 -33
-56 -41 -13 -8 -85 -60 -161 -115 -196 -142 -348 -242 -418 -274 -163 -76
-198 -87 -375 -121 -72 -14 -134 -17 -255 -16 -88 2 -167 6 -175 9 -8 3 -35 8
-59 11 -114 15 -331 92 -440 158 -34 21 -65 38 -67 38 -11 0 -392 274 -571
412 -221 169 -303 239 -302 257 0 9 57 59 127 111 70 52 175 132 235 177 59
46 112 83 117 83 6 0 146 -103 313 -228 311 -235 385 -281 521 -326 160 -53
333 -66 495 -36 174 31 361 123 519 255 9 8 87 67 172 131 85 64 263 198 395
298 132 99 242 183 245 186 3 3 103 79 222 168 119 90 236 183 259 205 210
209 211 544 1 755 -147 147 -790 624 -1048 778 -149 88 -376 172 -569 210 -22
4 -42 8 -45 9 -3 1 -39 5 -80 9 -41 5 -84 10 -95 12 -26 5 -276 4 -335 -1 -69
-6 -131 -15 -175 -25 -22 -5 -53 -11 -68 -14 -54 -9 -209 -57 -285 -87 -198
-79 -449 -240 -922 -593 -74 -55 -137 -103 -140 -106 -3 -3 -59 -46 -125 -95
-66 -50 -122 -93 -125 -96 -3 -3 -43 -34 -90 -69 -76 -58 -260 -201 -301 -234
-8 -7 -80 -64 -160 -126 -79 -62 -152 -120 -162 -128 -17 -15 -18 -6 -16 199
2 303 30 426 136 593 63 98 140 172 398 385 45 37 286 222 377 289 352 259
676 456 873 531 262 100 484 154 715 176 41 4 77 9 79 10 5 6 392 -3 436 -9z
m-98 -1120 c21 -4 54 -9 73 -12 161 -26 333 -87 469 -167 234 -138 937 -670
925 -700 -2 -6 -62 -55 -131 -107 -70 -52 -134 -100 -143 -107 -8 -7 -59 -46
-113 -87 l-99 -76 -61 47 c-34 26 -66 51 -72 56 -5 5 -91 69 -190 143 -99 75
-189 143 -200 152 -56 48 -191 122 -290 160 -201 76 -473 75 -681 -4 -142 -53
-186 -83 -729 -495 -104 -80 -329 -250 -500 -379 -434 -327 -419 -314 -485
-414 -61 -90 -82 -156 -86 -266 -8 -204 55 -322 261 -496 69 -57 406 -316 509
-390 269 -193 414 -287 531 -344 531 -258 1182 -257 1687 1 227 117 768 506
1483 1067 94 73 184 143 200 156 17 13 71 56 120 95 50 39 94 71 99 71 9 0 2
-436 -8 -485 -30 -142 -96 -285 -180 -386 -139 -169 -757 -647 -1186 -917
-315 -198 -669 -327 -1055 -383 -140 -20 -629 -16 -664 6 -4 2 -33 6 -65 9
-32 4 -62 9 -66 11 -4 2 -22 7 -41 10 -19 3 -61 13 -94 22 -33 8 -64 16 -70
17 -124 27 -389 135 -547 223 -73 40 -419 268 -520 341 -341 249 -589 446
-731 582 -129 122 -211 269 -248 445 -15 73 -18 132 -18 315 1 291 18 389 94
540 70 140 139 210 440 445 127 99 275 215 330 258 118 93 105 83 230 177 55
41 102 77 105 80 13 14 339 255 530 392 329 235 435 296 605 346 79 23 227 51
295 54 69 4 243 0 287 -6z m-53 -1170 c28 -7 75 -25 105 -40 48 -24 468 -332
490 -360 8 -10 -248 -213 -416 -330 -130 -91 -274 -119 -418 -81 -86 23 -124
47 -373 233 l-222 167 32 28 c18 15 119 92 223 172 193 146 263 189 345 210
58 16 168 16 234 1z"/>
</g>
</svg>
