<?xml version="1.0" encoding="utf-8"?>
<!-- Generator: Adobe Illustrator 20.1.0, SVG Export Plug-In . SVG Version: 6.00 Build 0)  -->
<svg version="1.1" id="Layer_1" xmlns="http://www.w3.org/2000/svg" xmlns:xlink="http://www.w3.org/1999/xlink" x="0px" y="0px"
	 viewBox="0 0 528.8 137.9" style="enable-background:new 0 0 528.8 137.9;" xml:space="preserve">
<style type="text/css">
	.st0{fill:#353535;}
	.st1{clip-path:url(#SVGID_2_);}
	.st2{clip-path:url(#SVGID_4_);}
	.st3{clip-path:url(#SVGID_6_);}
	.st4{clip-path:url(#SVGID_8_);}
	.st5{clip-path:url(#SVGID_10_);}
	.st6{clip-path:url(#SVGID_12_);}
	.st7{clip-path:url(#SVGID_14_);}
</style>
<title>logo-horizontal</title>
<g id="Layer_2">
	<g id="Layer_1-2">
		<path class="st0" d="M131.6,30.6c-4.7-4.8-23-19-32.5-23.6C90,2.4,80,0.1,69.8,0C59.7,0.1,49.6,2.4,40.5,6.9
			c-9.4,4.6-27.8,18.9-32.5,23.6C2.9,36,0,43.3,0,50.9v36.2c0,7.5,2.8,14.8,8.1,20.3c4.7,4.8,23,19,32.5,23.6
			c9.1,4.5,19.1,6.9,29.3,6.9c10.2-0.1,20.2-2.4,29.3-6.9c9.4-4.6,27.8-18.9,32.5-23.6c5.2-5.5,8.1-12.7,8.1-20.3V50.9
			C139.7,43.3,136.8,36,131.6,30.6z M15.9,38.3c4.2-4.3,21.4-17.5,29.4-21.5C53,13,61.3,11,69.8,11c8.5,0.1,16.9,2,24.5,5.8
			c8,4,25.3,17.2,29.4,21.5c3.2,3.4,5,7.9,4.9,12.6v6.3c0,5.5-2.5,10.7-6.8,14.1c-19.6,15.5-33.7,26-38.5,28.5
			c-4.2,2.1-8.8,3.2-13.5,3.2l0,0c-4.7,0-9.4-1.1-13.6-3.2C51.7,97.5,36.8,86.1,35,84.4c-0.1-0.1-0.2-0.2-0.2-0.3
			c0-0.1,0.1-0.3,0.2-0.4l10.2-7.7l11.6,8.8c7.7,5.8,18.2,5.8,25.9,0L103.5,69l0,0l7.5-5.7c1.9-1.3,3.3-3.2,4.1-5.3
			c1.6-4.3,0.5-9.1-2.8-12.2c-2-1.9-18-14.4-24-17.4C82.6,25.5,76.3,24,69.8,24c-6.5-0.1-12.9,1.5-18.6,4.4
			C44.3,32,25.6,46.5,11,58.1v-7.2C11,46.2,12.7,41.7,15.9,38.3z M54.4,69l9.1-6.9c3.7-2.8,8.9-2.8,12.6,0l9.1,6.9l-9.1,6.9
			c-3.7,2.8-8.9,2.8-12.7,0L54.4,69z M123.7,99.7c-4.2,4.3-21.4,17.5-29.4,21.5c-7.6,3.8-16,5.8-24.5,5.8c-8.5-0.1-16.8-2-24.5-5.8
			c-8-4-25.3-17.2-29.4-21.5c-3.2-3.4-5-7.9-4.9-12.6v-6.3c0-5.5,2.5-10.7,6.8-14.1c19.6-15.5,33.7-26,38.5-28.6
			c7.5-4,18.3-4.3,27.1,0.1c4.5,2.2,19.3,13.7,21.2,15.4c0.1,0.1,0.1,0.2,0.1,0.4c0,0.1-0.1,0.3-0.2,0.4l-10.2,7.7l-11.6-8.8
			c-7.7-5.8-18.2-5.8-25.9,0L36.1,69l0,0l-7.5,5.7c-1.9,1.3-3.3,3.2-4.1,5.3c-1.6,4.3-0.5,9.1,2.7,12.2c2,1.9,18,14.4,24,17.4
			c5.8,2.8,12.1,4.3,18.5,4.4l0,0c6.5,0.1,12.9-1.5,18.6-4.4c6.9-3.6,25.5-18.1,40.2-29.7v7.2C128.7,91.8,126.9,96.3,123.7,99.7z"/>
		<path class="st0" d="M211,42.7c-17.3,0-26.1,12-26.1,26.3s8.8,26.3,26.1,26.3s26.1-12,26.1-26.3S228.3,42.7,211,42.7z M211,85.1
			c-10,0-15-7.9-15-16.1s5-16.1,15-16.1s15,7.9,15,16.1S220.9,85.1,211,85.1z"/>
		<path class="st0" d="M447.1,42.7c-17.3,0-26.1,12-26.1,26.3s8.8,26.3,26.1,26.3s26.1-12,26.1-26.3S464.5,42.7,447.1,42.7z
			 M447.1,85.1c-10,0-15-7.9-15-16.1s5-16.1,15-16.1s15,7.9,15,16.1S457.1,85.1,447.1,85.1z"/>
		<path class="st0" d="M275.7,85.1c-9,0.2-16.5-7-16.7-16c0,0,0,0,0,0c0-8.2,5-16.1,15-16.1c5.6-0.2,10.9,2.6,14,7.3l1.1-0.8V46.8
			c-4.6-2.5-9.7-3.9-15-4.1c-17.3,0-26.1,12-26.1,26.3s10.4,26.3,27.8,26.3c5.3-0.1,10.6-1.4,15.2-4v-13l-1-0.8
			C286.7,82.2,281.4,85,275.7,85.1z"/>
		<path class="st0" d="M388.5,42.7c-8,0-14,0.5-19.8,0.5H367c0,0,0.2,6.4,0.2,25.8S367,94.8,367,94.8h11.1c0,0-0.1-3.1-0.1-11.4
			c2.7,0.3,5.3,0.4,8,0.4c15,0,24.2-7,24.2-20.8C410.3,51.6,402.7,42.7,388.5,42.7z M386.4,73.9c-2.8,0-5.6-0.2-8.5-0.5V69
			c0-6.8,0-11.9,0-15.8c2.4-0.5,4.8-0.8,7.2-0.8c11.3,0,14.3,4.1,14.3,10.8C399.6,68.7,396,73.9,386.4,73.9z"/>
		<path class="st0" d="M507,42.7c-8,0-14,0.5-19.8,0.5h-1.7c0,0,0.2,6.4,0.2,25.8s-0.2,25.8-0.2,25.8h11.1c0,0-0.1-3.1-0.1-11.4
			c2.7,0.3,5.3,0.4,8,0.4c15,0,24.2-7,24.2-20.8C528.8,51.6,521.1,42.7,507,42.7z M504.9,73.9c-2.8,0-5.6-0.2-8.5-0.5V69
			c0-6.8,0-11.9,0-15.8c2.4-0.5,4.8-0.8,7.2-0.8c11.4,0,14.4,4.1,14.4,10.7C518,68.7,514.4,73.9,504.9,73.9L504.9,73.9z"/>
		<path class="st0" d="M351.4,43.2h-11.1c0,0,0.2,6.4,0.2,25.8c0,10.4-3.9,16.1-12.4,16.1s-12.4-5.7-12.4-16.1
			c0-19.4,0.2-25.8,0.2-25.8h-11.1c0,0,0.1,6.4,0.1,25.8l0,0c0,14.2,5.9,26.3,23.3,26.3s23.3-12,23.3-26.3l0,0
			C351.3,49.5,351.4,43.2,351.4,43.2z"/>
	</g>
</g>
<g id="Layer_2_1_">
	<g id="Layer_1-2_1_">
		<g>
			<defs>
				<path id="SVGID_1_" d="M132.9,31.4c-4.6-4.7-22.9-18.9-32.2-23.5c-18.3-9.2-39.8-9.2-58.1,0c-9.3,4.6-27.6,18.7-32.2,23.5
					c-5.2,5.4-8.1,12.6-8,20.1v36c0,7.5,2.8,14.7,8,20.1c4.6,4.7,22.9,18.9,32.2,23.5c18.3,9.2,39.8,9.2,58.1,0
					c9.3-4.6,27.6-18.7,32.2-23.5c5.2-5.4,8.1-12.6,8-20.1v-36C140.9,44,138.1,36.8,132.9,31.4z M18.1,39
					c4.1-4.2,21.2-17.4,29.2-21.3c15.3-7.7,33.3-7.7,48.5,0c8,3.9,25.1,17.1,29.2,21.3c3.2,3.4,4.9,7.9,4.9,12.5v6.3
					c0,5.5-2.5,10.6-6.8,14C103.7,87.2,89.7,97.6,85,100.1c-4.1,2.1-8.7,3.2-13.4,3.1l0,0c-4.7,0-9.3-1.1-13.5-3.2
					C53.5,97.8,38.8,86.5,37,84.8c-0.1-0.1-0.2-0.2-0.1-0.4c0-0.1,0.1-0.3,0.2-0.4l10.2-7.7l11.5,8.7c7.6,5.7,18.1,5.7,25.7,0
					L105,69.5l0,0l7.4-5.6c1.8-1.3,3.3-3.2,4.1-5.3c1.6-4.2,0.5-9-2.7-12.2c-1.9-1.9-17.8-14.3-23.9-17.3c-5.7-2.8-12-4.3-18.4-4.3
					c-6.4-0.1-12.8,1.4-18.5,4.4c-6.8,3.6-25.4,17.9-39.9,29.5v-7.1C13.1,46.9,14.9,42.4,18.1,39L18.1,39z M56.2,69.5l9.1-6.9
					c3.7-2.8,8.8-2.8,12.6,0l9.1,6.9l-9.1,6.9c-3.7,2.8-8.8,2.8-12.6,0L56.2,69.5z M125.1,100c-4.1,4.2-21.2,17.4-29.2,21.3
					c-15.3,7.7-33.3,7.7-48.5,0c-8-3.9-25.1-17.1-29.2-21.3c-3.2-3.4-4.9-7.9-4.9-12.5v-6.3c0-5.5,2.5-10.6,6.8-14
					c19.5-15.4,33.5-25.9,38.2-28.4c7.5-4,18.1-4.2,27,0.1c4.5,2.2,19.2,13.5,21.1,15.3c0.1,0.1,0.2,0.2,0.1,0.4
					c0,0.1-0.1,0.3-0.2,0.4L96,62.7l-11.5-8.7c-7.6-5.8-18.1-5.8-25.7,0L38.1,69.5l0,0l-7.4,5.6c-1.8,1.3-3.3,3.2-4.1,5.3
					c-1.6,4.2-0.5,9,2.8,12.1c1.9,1.9,17.8,14.3,23.9,17.3c5.7,2.8,12,4.3,18.3,4.3l0,0c6.4,0.1,12.8-1.4,18.5-4.4
					c6.8-3.6,25.4-17.9,39.9-29.5v7.2C130,92.1,128.3,96.6,125.1,100L125.1,100z"/>
			</defs>
			<clipPath id="SVGID_2_">
				<use xlink:href="#SVGID_1_"  style="overflow:visible;"/>
			</clipPath>
			<g class="st1">
				<g transform="translate(0 0.01) scale(0.24)">
					
						<image style="overflow:visible;enable-background:new    ;" width="4735" height="1794" id="image" xlink:href="19596F155E8BF21E.jpg"  transform="matrix(0.1749 0 0 0.1748 -135.3354 -85.5039)">
					</image>
				</g>
			</g>
		</g>
		<g>
			<defs>
				<path id="SVGID_3_" d="M213,43.4c-17.2,0-25.9,12-25.9,26.1s8.7,26.1,25.9,26.1s25.9-12,25.9-26.1S230.2,43.4,213,43.4z
					 M213,85.5c-9.9,0-14.9-7.8-14.9-16s5-16,14.9-16c9.9,0,14.9,7.8,14.9,16S222.9,85.5,213,85.5L213,85.5z"/>
			</defs>
			<clipPath id="SVGID_4_">
				<use xlink:href="#SVGID_3_"  style="overflow:visible;"/>
			</clipPath>
			<g class="st2">
				<g transform="scale(0.24)">
					
						<image style="overflow:visible;enable-background:new    ;" width="4735" height="1794" id="image_2_" xlink:href="19596F155E8BF222.jpg"  transform="matrix(0.1749 0 0 0.1748 -135.3354 -85.5112)">
					</image>
				</g>
			</g>
		</g>
		<g>
			<defs>
				<path id="SVGID_5_" d="M447.4,43.4c-17.2,0-25.9,12-25.9,26.1s8.7,26.1,25.9,26.1c17.2,0,25.9-12,25.9-26.1
					S464.6,43.4,447.4,43.4z M447.4,85.5c-9.9,0-14.9-7.8-14.9-16s5-16,14.9-16s14.9,7.8,14.9,16S457.3,85.5,447.4,85.5L447.4,85.5z
					"/>
			</defs>
			<clipPath id="SVGID_6_">
				<use xlink:href="#SVGID_5_"  style="overflow:visible;"/>
			</clipPath>
			<g class="st3">
				<g transform="scale(0.24)">
					
						<image style="overflow:visible;enable-background:new    ;" width="4735" height="1794" id="image_3_" xlink:href="19596F155E8BF225.jpg"  transform="matrix(0.1749 0 0 0.1748 -135.3354 -85.5112)">
					</image>
				</g>
			</g>
		</g>
		<g>
			<defs>
				<path id="SVGID_7_" d="M277.2,85.5c-9,0.2-16.4-6.9-16.6-15.9c0,0,0-0.1,0-0.1c0-8.1,5-16,14.9-16c6.4,0,11.3,3.2,13.8,7.3
					l1.1-0.8V47.5c-3.7-2.1-9.5-4.1-14.9-4.1c-17.2,0-25.9,12-25.9,26.1s10.4,26.1,27.6,26.1c5.4,0,11.6-1.8,15.1-3.9V78.8l-1-0.7
					C288.8,81.9,283.2,85.5,277.2,85.5z"/>
			</defs>
			<clipPath id="SVGID_8_">
				<use xlink:href="#SVGID_7_"  style="overflow:visible;"/>
			</clipPath>
			<g class="st4">
				<g transform="scale(0.24)">
					
						<image style="overflow:visible;enable-background:new    ;" width="4735" height="1794" id="image_4_" xlink:href="19596F155E8BF226.jpg"  transform="matrix(0.1749 0 0 0.1748 -135.3354 -85.5112)">
					</image>
				</g>
			</g>
		</g>
		<g>
			<defs>
				<path id="SVGID_9_" d="M389.2,43.4c-7.9,0-13.8,0.5-19.7,0.5h-1.7c0,0,0.2,6.3,0.2,25.6s-0.2,25.6-0.2,25.6h11
					c0,0-0.1-3-0.1-11.3c2.7,0.3,5.3,0.4,8,0.4c14.9,0,24.1-7,24.1-20.7C410.8,52.2,403.3,43.4,389.2,43.4z M387.2,74.4
					c-2.8,0-5.6-0.2-8.4-0.5c0-1.4,0-2.9,0-4.4c0-6.7,0-11.8,0.1-15.7c2.3-0.5,4.7-0.8,7.1-0.8c11.2,0,14.2,4.1,14.2,10.7
					C400.2,69.2,396.6,74.4,387.2,74.4L387.2,74.4z"/>
			</defs>
			<clipPath id="SVGID_10_">
				<use xlink:href="#SVGID_9_"  style="overflow:visible;"/>
			</clipPath>
			<g class="st5">
				<g transform="scale(0.24)">
					
						<image style="overflow:visible;enable-background:new    ;" width="4735" height="1794" id="image_5_" xlink:href="19596F155E8BF224.jpg"  transform="matrix(0.1749 0 0 0.1748 -135.3354 -85.5112)">
					</image>
				</g>
			</g>
		</g>
		<g>
			<defs>
				<path id="SVGID_11_" d="M506.8,43.4c-7.9,0-13.8,0.5-19.7,0.5h-1.7c0,0,0.2,6.3,0.2,25.6s-0.2,25.6-0.2,25.6h11.1
					c0,0-0.1-3-0.1-11.3c2.7,0.3,5.3,0.4,8,0.4c14.9,0,24.1-7,24.1-20.7C528.4,52.2,520.9,43.4,506.8,43.4z M504.8,74.4
					c-2.8,0-5.6-0.2-8.4-0.5c0-1.4,0-2.9,0-4.4c0-6.7,0-11.8,0.1-15.7c2.3-0.5,4.7-0.8,7.1-0.8c11.2,0,14.2,4.1,14.2,10.7
					C517.8,69.2,514.2,74.4,504.8,74.4z"/>
			</defs>
			<clipPath id="SVGID_12_">
				<use xlink:href="#SVGID_11_"  style="overflow:visible;"/>
			</clipPath>
			<g class="st6">
				<g transform="scale(0.24)">
					
						<image style="overflow:visible;enable-background:new    ;" width="4735" height="1794" id="image_6_" xlink:href="19596F155E8BF223.jpg"  transform="matrix(0.1749 0 0 0.1748 -135.3354 -85.5112)">
					</image>
				</g>
			</g>
		</g>
		<g>
			<defs>
				<path id="SVGID_13_" d="M352.4,43.9h-11c0,0,0.2,6.3,0.2,25.6c0,10.3-3.8,16-12.3,16c-8.5,0-12.3-5.7-12.3-16
					c0-19.3,0.2-25.6,0.2-25.6h-11c0,0,0.1,6.3,0.1,25.6l0,0c0,14.1,5.9,26.1,23.1,26.1s23.1-12,23.1-26.1l0,0
					C352.3,50.2,352.4,43.9,352.4,43.9z"/>
			</defs>
			<clipPath id="SVGID_14_">
				<use xlink:href="#SVGID_13_"  style="overflow:visible;"/>
			</clipPath>
			<g class="st7">
				<g transform="scale(0.24)">
					
						<image style="overflow:visible;enable-background:new    ;" width="4735" height="1794" id="image_7_" xlink:href="19596F155E8BF22D.jpg"  transform="matrix(0.1749 0 0 0.1748 -135.3354 -85.5112)">
					</image>
				</g>
			</g>
		</g>
	</g>
</g>
</svg>
