<?xml version="1.0" encoding="utf-8"?>
<!-- Generator: Adobe Illustrator 20.1.0, SVG Export Plug-In . SVG Version: 6.00 Build 0)  -->
<svg version="1.1" id="Layer_1" xmlns="http://www.w3.org/2000/svg" xmlns:xlink="http://www.w3.org/1999/xlink" x="0px" y="0px"
	 viewBox="0 0 140 140" style="enable-background:new 0 0 140 140;" xml:space="preserve">
<style type="text/css">
	.st0{fill:#FFFFFF;}
</style>
<title>logo-horizontal</title>
<g id="Layer_2">
	<g id="Layer_1-2">
		<path class="st0" d="M131.7,31.6c-4.7-4.8-23-19-32.5-23.6C90.2,3.4,80.2,1.1,70,1C59.8,1.1,49.8,3.5,40.7,8
			c-9.4,4.6-27.8,18.9-32.5,23.6C3,37.1,0.2,44.3,0.2,51.9v36.2c0,7.5,2.8,14.8,8.1,20.3c4.7,4.8,23,19,32.5,23.6
			c9.1,4.5,19.1,6.9,29.3,6.9c10.2-0.1,20.2-2.4,29.3-6.9c9.4-4.6,27.8-18.9,32.5-23.6c5.2-5.5,8.1-12.7,8.1-20.3V51.9
			C139.8,44.3,137,37.1,131.7,31.6z M16.1,39.3c4.2-4.3,21.4-17.5,29.4-21.5c7.6-3.8,16-5.7,24.5-5.8c8.5,0.1,16.9,2,24.5,5.8
			c8,4,25.3,17.2,29.4,21.5c3.2,3.4,5,7.9,4.9,12.6v6.3c0,5.5-2.5,10.7-6.8,14.1c-19.6,15.5-33.7,26-38.5,28.5
			c-4.2,2.1-8.8,3.2-13.5,3.2l0,0c-4.7,0-9.4-1.1-13.6-3.2C51.8,98.6,37,87.2,35.1,85.4C35,85.3,35,85.2,35,85
			c0-0.1,0.1-0.3,0.2-0.4l10.2-7.7L57,85.7c7.7,5.8,18.2,5.8,25.9,0L103.7,70l0,0l7.5-5.7c1.9-1.3,3.3-3.2,4.1-5.3
			c1.6-4.3,0.5-9.1-2.8-12.2c-2-1.9-18-14.4-24-17.4C82.8,26.5,76.4,25,70,25c-6.5-0.1-12.9,1.5-18.6,4.4
			c-6.9,3.6-25.5,18-40.2,29.6v-7.2C11.1,47.2,12.9,42.7,16.1,39.3z M54.5,70l9.1-6.9c3.7-2.8,8.9-2.8,12.6,0l9.1,6.9l-9.1,6.9
			c-3.7,2.8-8.9,2.8-12.6,0L54.5,70z M123.9,100.7c-4.2,4.3-21.4,17.5-29.4,21.5c-7.6,3.8-16,5.8-24.5,5.8c-8.5-0.1-16.8-2-24.4-5.8
			c-8-4-25.3-17.2-29.4-21.5c-3.2-3.4-5-7.9-4.9-12.6v-6.3c0-5.5,2.5-10.7,6.8-14.1c19.6-15.5,33.7-26,38.5-28.6
			c7.5-4,18.3-4.3,27.1,0.1c4.5,2.2,19.3,13.7,21.2,15.4c0.1,0.1,0.1,0.2,0.1,0.4c0,0.1-0.1,0.3-0.2,0.4l-10.2,7.7l-11.6-8.8
			c-7.7-5.8-18.2-5.8-25.9,0L36.3,70l0,0l-7.5,5.7C27,77,25.6,78.9,24.7,81c-1.6,4.3-0.5,9.1,2.7,12.2c2,1.9,18,14.4,24,17.4
			c5.8,2.8,12.1,4.3,18.5,4.4l0,0c6.5,0.1,12.9-1.5,18.6-4.4c6.9-3.6,25.5-18.1,40.2-29.7v7.2C128.8,92.8,127.1,97.3,123.9,100.7z"
			/>
	</g>
</g>
</svg>
