<?xml version="1.0" encoding="utf-8"?>
<!-- Generator: Adobe Illustrator 20.1.0, SVG Export Plug-In . SVG Version: 6.00 Build 0)  -->
<svg version="1.1" id="Layer_1" xmlns="http://www.w3.org/2000/svg" xmlns:xlink="http://www.w3.org/1999/xlink" x="0px" y="0px"
	 viewBox="0 0 528.8 137.9" style="enable-background:new 0 0 528.8 137.9;" xml:space="preserve">
<style type="text/css">
	.st0{fill:#353535;}
	.st1{clip-path:url(#SVGID_2_);}
	.st2{clip-path:url(#SVGID_4_);}
	.st3{clip-path:url(#SVGID_6_);}
	.st4{clip-path:url(#SVGID_8_);}
	.st5{clip-path:url(#SVGID_10_);}
	.st6{clip-path:url(#SVGID_12_);}
	.st7{clip-path:url(#SVGID_14_);}
</style>
<title>logo-horizontal</title>
<g id="Layer_2">
	<g id="Layer_1-2">
		<path class="st0" d="M125.6,199.6c-4.7-4.8-23-19-32.5-23.6c-9.1-4.5-19.1-6.9-29.3-6.9c-10.2,0.1-20.2,2.4-29.3,6.9
			c-9.4,4.6-27.8,18.9-32.5,23.6c-5.2,5.5-8.1,12.7-8.1,20.3v36.2c0,7.5,2.8,14.8,8.1,20.3c4.7,4.8,23,19,32.5,23.6
			c9.1,4.5,19.1,6.9,29.3,6.9c10.2-0.1,20.2-2.4,29.3-6.9c9.4-4.6,27.8-18.9,32.5-23.6c5.2-5.5,8.1-12.7,8.1-20.3v-36.2
			C133.7,212.3,130.9,205,125.6,199.6z M10,207.3c4.2-4.3,21.4-17.5,29.4-21.5c7.6-3.8,16-5.7,24.5-5.8c8.5,0.1,16.9,2,24.5,5.8
			c8,3.9,25.3,17.2,29.4,21.5c3.2,3.4,5,7.9,4.9,12.6v6.3c0,5.5-2.5,10.7-6.8,14.1c-19.6,15.5-33.7,26-38.5,28.5
			c-4.2,2.1-8.8,3.2-13.5,3.2l0,0c-4.7,0-9.4-1.1-13.6-3.2c-4.5-2.2-19.4-13.7-21.2-15.4c-0.1-0.1-0.2-0.2-0.2-0.4
			c0-0.1,0.1-0.3,0.2-0.4l10.2-7.7l11.6,8.8c7.7,5.8,18.2,5.8,25.9,0L97.6,238l0,0l7.5-5.7c1.9-1.3,3.3-3.2,4.1-5.3
			c1.6-4.3,0.5-9.1-2.8-12.2c-2-1.9-18-14.4-24-17.4c-5.8-2.8-12.1-4.3-18.5-4.3c-6.5-0.1-12.9,1.5-18.6,4.4
			c-6.9,3.6-25.5,18-40.2,29.6v-7.2C5,215.2,6.8,210.7,10,207.3z M48.4,238l9.1-6.9c3.7-2.8,8.9-2.8,12.6,0l9.1,6.9l-9.1,6.9
			c-3.7,2.8-8.9,2.8-12.7,0L48.4,238z M117.8,268.7c-4.2,4.3-21.4,17.5-29.4,21.5c-7.6,3.8-16,5.8-24.5,5.8
			c-8.5-0.1-16.8-2-24.5-5.8c-8-4-25.3-17.2-29.4-21.5c-3.2-3.4-5-7.9-4.9-12.6v-6.3c0-5.5,2.5-10.7,6.8-14.1
			c19.6-15.6,33.7-26,38.5-28.6c7.5-4,18.3-4.3,27.1,0.1c4.5,2.2,19.3,13.7,21.2,15.4c0.1,0.1,0.1,0.2,0.1,0.4
			c0,0.1-0.1,0.3-0.2,0.4l-10.2,7.7l-11.6-8.8c-7.7-5.8-18.2-5.8-25.9,0L30.2,238l0,0l-7.5,5.7c-1.9,1.3-3.3,3.2-4.1,5.3
			c-1.6,4.3-0.5,9.1,2.7,12.2c2,1.9,18,14.4,24,17.4c5.8,2.8,12.1,4.3,18.5,4.4l0,0c6.5,0.1,12.9-1.5,18.6-4.4
			c6.9-3.6,25.5-18.1,40.2-29.7v7.2C122.7,260.8,121,265.3,117.8,268.7z"/>
		<path class="st0" d="M205.1,211.7c-17.3,0-26.1,12-26.1,26.3c0,14.3,8.8,26.3,26.1,26.3s26.1-12,26.1-26.3
			C231.2,223.7,222.4,211.7,205.1,211.7z M205.1,254.1c-10,0-15-7.9-15-16.1c0-8.2,5-16.1,15-16.1s15,7.9,15,16.1
			C220.1,246.2,215,254.1,205.1,254.1z"/>
		<path class="st0" d="M441.2,211.7c-17.3,0-26.1,12-26.1,26.3c0,14.3,8.8,26.3,26.1,26.3s26.1-12,26.1-26.3
			C467.3,223.7,458.5,211.7,441.2,211.7z M441.2,254.1c-10,0-15-7.9-15-16.1c0-8.2,5-16.1,15-16.1s15,7.9,15,16.1
			C456.2,246.2,451.2,254.1,441.2,254.1z"/>
		<path class="st0" d="M269.8,254.1c-9,0.2-16.5-7-16.7-16c0,0,0,0,0,0c0-8.2,5-16.1,15-16.1c5.6-0.2,10.9,2.6,14,7.3l1.1-0.8v-12.6
			c-4.6-2.5-9.7-3.9-15-4.1c-17.3,0-26.1,12-26.1,26.3c0,14.3,10.4,26.3,27.8,26.3c5.3-0.1,10.6-1.4,15.2-4v-13l-1-0.8
			C280.8,251.2,275.5,254,269.8,254.1z"/>
		<path class="st0" d="M382.6,211.7c-8,0-14,0.5-19.8,0.5h-1.7c0,0,0.2,6.4,0.2,25.8c0,19.4-0.2,25.8-0.2,25.8h11.1
			c0,0-0.1-3.1-0.1-11.4c2.7,0.3,5.3,0.4,8,0.4c15,0,24.2-7,24.2-20.8C404.4,220.6,396.7,211.7,382.6,211.7z M380.5,242.9
			c-2.8,0-5.6-0.2-8.5-0.5V238c0-6.8,0-11.9,0-15.8c2.4-0.5,4.8-0.8,7.2-0.8c11.3,0,14.3,4.1,14.3,10.8
			C393.6,237.7,390.1,242.9,380.5,242.9z"/>
		<path class="st0" d="M501.1,211.7c-8,0-14,0.5-19.8,0.5h-1.7c0,0,0.2,6.4,0.2,25.8c0,19.4-0.2,25.8-0.2,25.8h11.1
			c0,0-0.1-3.1-0.1-11.4c2.7,0.3,5.3,0.4,8,0.4c15,0,24.2-7,24.2-20.8C522.9,220.6,515.2,211.7,501.1,211.7z M499,242.9
			c-2.8,0-5.6-0.2-8.5-0.5V238c0-6.8,0-11.9,0-15.8c2.4-0.5,4.8-0.8,7.2-0.8c11.4,0,14.4,4.1,14.4,10.7
			C512.1,237.7,508.5,242.9,499,242.9L499,242.9z"/>
		<path class="st0" d="M345.5,212.2h-11.1c0,0,0.2,6.4,0.2,25.8c0,10.4-3.9,16.1-12.4,16.1s-12.4-5.7-12.4-16.1
			c0-19.4,0.2-25.8,0.2-25.8h-11.1c0,0,0.1,6.4,0.1,25.8l0,0c0,14.2,5.9,26.3,23.3,26.3s23.3-12,23.3-26.3l0,0
			C345.4,218.5,345.5,212.2,345.5,212.2z"/>
	</g>
</g>
<g id="Layer_2_1_">
	<g id="Layer_1-2_1_">
		<g>
			<defs>
				<path id="SVGID_1_" d="M131.4,30.7c-4.7-4.8-23-19-32.3-23.6c-18.4-9.2-40-9.2-58.4,0C31.3,11.7,13,25.9,8.3,30.7
					c-5.2,5.4-8.1,12.7-8,20.2V87c0,7.5,2.8,14.8,8,20.2c4.7,4.8,23,19,32.3,23.6c18.4,9.2,40,9.2,58.4,0
					c9.4-4.6,27.7-18.8,32.3-23.6c5.2-5.4,8.1-12.7,8-20.2V50.9C139.5,43.4,136.6,36.1,131.4,30.7z M16.1,38.4
					c4.2-4.2,21.3-17.5,29.3-21.4c15.3-7.7,33.4-7.7,48.7,0c8,3.9,25.2,17.2,29.3,21.4c3.2,3.4,5,7.9,4.9,12.5v6.3
					c0,5.5-2.5,10.7-6.8,14.1c-19.5,15.5-33.7,26-38.4,28.5c-4.2,2.1-8.8,3.2-13.4,3.1l0,0c-4.7,0-9.4-1.1-13.6-3.2
					C51.7,97.4,37,86,35.1,84.3C35,84.2,35,84,35,83.9c0-0.1,0.1-0.3,0.2-0.4l10.2-7.7L57,84.6c7.6,5.7,18.2,5.7,25.8,0L103.4,69
					l0,0l7.4-5.6c1.8-1.3,3.3-3.2,4.1-5.3c1.6-4.3,0.5-9.1-2.7-12.2c-2-1.9-17.9-14.4-24-17.4c-5.7-2.8-12-4.3-18.4-4.3
					C63.4,24,57,25.5,51.3,28.5c-6.8,3.7-25.5,18-40,29.6v-7.1C11.2,46.3,12.9,41.8,16.1,38.4L16.1,38.4z M54.4,69l9.1-6.9
					c3.7-2.8,8.9-2.8,12.6,0l9.1,6.9l-9.1,6.9c-3.7,2.8-8.9,2.8-12.6,0L54.4,69z M123.5,99.6c-4.2,4.2-21.3,17.5-29.3,21.4
					c-15.3,7.7-33.4,7.7-48.7,0c-8-3.9-25.2-17.2-29.3-21.4c-3.2-3.4-5-7.9-4.9-12.5v-6.3c0-5.5,2.5-10.6,6.8-14
					c19.5-15.5,33.6-26,38.4-28.5c7.5-4,18.2-4.3,27.1,0.1c4.5,2.2,19.3,13.6,21.1,15.4c0.1,0.1,0.2,0.2,0.1,0.4
					c0,0.1-0.1,0.3-0.2,0.4l-10.2,7.7l-11.6-8.8c-7.6-5.8-18.2-5.8-25.8,0L36.3,69l0,0l-7.5,5.6c-1.9,1.3-3.3,3.2-4.1,5.3
					c-1.6,4.3-0.5,9,2.8,12.2c2,1.9,17.9,14.4,24,17.4c5.7,2.8,12,4.3,18.4,4.4l0,0c6.4,0.1,12.8-1.4,18.6-4.4
					c6.8-3.7,25.5-18,40-29.6v7.2C128.5,91.7,126.7,96.2,123.5,99.6L123.5,99.6z"/>
			</defs>
			<clipPath id="SVGID_2_">
				<use xlink:href="#SVGID_1_"  style="overflow:visible;"/>
			</clipPath>
			<g class="st1">
				<g transform="translate(0 0.01) scale(0.24)">
					
						<image style="overflow:visible;enable-background:new    ;" width="4735" height="1794" id="image" xlink:href="19596F155E8BF21E.jpg"  transform="matrix(0.1755 0 0 0.1755 -137.8534 -86.6151)">
					</image>
				</g>
			</g>
		</g>
		<g>
			<defs>
				<path id="SVGID_3_" d="M211.8,42.8c-17.3,0-26,12-26,26.2s8.7,26.2,26,26.2s26-12,26-26.2S229,42.8,211.8,42.8z M211.8,85
					c-9.9,0-15-7.9-15-16s5-16,15-16s15,7.9,15,16S221.7,85,211.8,85L211.8,85z"/>
			</defs>
			<clipPath id="SVGID_4_">
				<use xlink:href="#SVGID_3_"  style="overflow:visible;"/>
			</clipPath>
			<g class="st2">
				<g transform="scale(0.24)">
					
						<image style="overflow:visible;enable-background:new    ;" width="4735" height="1794" id="image_2_" xlink:href="19596F155E8BF222.jpg"  transform="matrix(0.1755 0 0 0.1755 -137.8534 -86.6224)">
					</image>
				</g>
			</g>
		</g>
		<g>
			<defs>
				<path id="SVGID_5_" d="M447.1,42.8c-17.3,0-26,12-26,26.2s8.7,26.2,26,26.2c17.3,0,26-12,26-26.2S464.4,42.8,447.1,42.8z
					 M447.1,85c-9.9,0-15-7.9-15-16s5-16,15-16c9.9,0,15,7.9,15,16S457,85,447.1,85L447.1,85z"/>
			</defs>
			<clipPath id="SVGID_6_">
				<use xlink:href="#SVGID_5_"  style="overflow:visible;"/>
			</clipPath>
			<g class="st3">
				<g transform="scale(0.24)">
					
						<image style="overflow:visible;enable-background:new    ;" width="4735" height="1794" id="image_3_" xlink:href="19596F155E8BF225.jpg"  transform="matrix(0.1755 0 0 0.1755 -137.8534 -86.6224)">
					</image>
				</g>
			</g>
		</g>
		<g>
			<defs>
				<path id="SVGID_7_" d="M276.3,85c-9,0.2-16.4-7-16.6-16c0,0,0-0.1,0-0.1c0-8.2,5-16,15-16c6.4,0,11.4,3.2,13.9,7.3l1.1-0.8V46.9
					c-3.7-2.1-9.6-4.1-15-4.1c-17.3,0-26,12-26,26.2s10.4,26.2,27.7,26.2c5.4,0,11.6-1.8,15.2-3.9v-13l-1-0.7
					C287.9,81.4,282.3,85,276.3,85z"/>
			</defs>
			<clipPath id="SVGID_8_">
				<use xlink:href="#SVGID_7_"  style="overflow:visible;"/>
			</clipPath>
			<g class="st4">
				<g transform="scale(0.24)">
					
						<image style="overflow:visible;enable-background:new    ;" width="4735" height="1794" id="image_4_" xlink:href="19596F155E8BF226.jpg"  transform="matrix(0.1755 0 0 0.1755 -137.8534 -86.6224)">
					</image>
				</g>
			</g>
		</g>
		<g>
			<defs>
				<path id="SVGID_9_" d="M388.7,42.8c-7.9,0-13.9,0.5-19.8,0.5h-1.7c0,0,0.2,6.3,0.2,25.7s-0.2,25.7-0.2,25.7h11
					c0,0-0.1-3.1-0.1-11.4c2.7,0.3,5.4,0.4,8,0.4c14.9,0,24.1-7,24.1-20.8C410.4,51.6,402.8,42.8,388.7,42.8z M386.6,73.9
					c-2.8,0-5.6-0.2-8.4-0.5c0-1.4,0-2.9,0-4.4c0-6.7,0-11.9,0.1-15.7c2.3-0.5,4.7-0.8,7.2-0.8c11.3,0,14.3,4.1,14.3,10.7
					C399.7,68.7,396.1,73.9,386.6,73.9L386.6,73.9z"/>
			</defs>
			<clipPath id="SVGID_10_">
				<use xlink:href="#SVGID_9_"  style="overflow:visible;"/>
			</clipPath>
			<g class="st5">
				<g transform="scale(0.24)">
					
						<image style="overflow:visible;enable-background:new    ;" width="4735" height="1794" id="image_5_" xlink:href="19596F155E8BF224.jpg"  transform="matrix(0.1755 0 0 0.1755 -137.8534 -86.6224)">
					</image>
				</g>
			</g>
		</g>
		<g>
			<defs>
				<path id="SVGID_11_" d="M506.7,42.8c-7.9,0-13.9,0.5-19.8,0.5h-1.7c0,0,0.2,6.3,0.2,25.7s-0.2,25.7-0.2,25.7h11.1
					c0,0-0.1-3.1-0.1-11.4c2.7,0.3,5.4,0.4,8,0.4c14.9,0,24.1-7,24.1-20.8C528.4,51.6,520.8,42.8,506.7,42.8z M504.6,73.9
					c-2.8,0-5.6-0.2-8.4-0.5c0-1.4,0-2.9,0-4.4c0-6.7,0-11.9,0.1-15.7c2.3-0.5,4.7-0.8,7.2-0.8c11.3,0,14.3,4.1,14.3,10.7
					C517.7,68.7,514.1,73.9,504.6,73.9z"/>
			</defs>
			<clipPath id="SVGID_12_">
				<use xlink:href="#SVGID_11_"  style="overflow:visible;"/>
			</clipPath>
			<g class="st6">
				<g transform="scale(0.24)">
					
						<image style="overflow:visible;enable-background:new    ;" width="4735" height="1794" id="image_6_" xlink:href="19596F155E8BF223.jpg"  transform="matrix(0.1755 0 0 0.1755 -137.8534 -86.6224)">
					</image>
				</g>
			</g>
		</g>
		<g>
			<defs>
				<path id="SVGID_13_" d="M351.7,43.3h-11.1c0,0,0.2,6.3,0.2,25.7c0,10.3-3.8,16-12.4,16c-8.5,0-12.4-5.7-12.4-16
					c0-19.4,0.2-25.7,0.2-25.7h-11c0,0,0.1,6.3,0.1,25.7l0,0c0,14.2,5.9,26.2,23.2,26.2c17.3,0,23.2-12,23.2-26.2l0,0
					C351.6,49.6,351.7,43.3,351.7,43.3z"/>
			</defs>
			<clipPath id="SVGID_14_">
				<use xlink:href="#SVGID_13_"  style="overflow:visible;"/>
			</clipPath>
			<g class="st7">
				<g transform="scale(0.24)">
					
						<image style="overflow:visible;enable-background:new    ;" width="4735" height="1794" id="image_7_" xlink:href="19596F155E8BF22D.jpg"  transform="matrix(0.1755 0 0 0.1755 -137.8534 -86.6224)">
					</image>
				</g>
			</g>
		</g>
	</g>
</g>
</svg>
