<?xml version="1.0" encoding="utf-8"?>
<!-- Generator: Adobe Illustrator 23.0.1, SVG Export Plug-In . SVG Version: 6.00 Build 0)  -->
<svg version="1.1" id="Layer_1" xmlns="http://www.w3.org/2000/svg" xmlns:xlink="http://www.w3.org/1999/xlink" x="0px" y="0px"
	 viewBox="0 0 152 152" style="enable-background:new 0 0 152 152;" xml:space="preserve">
<style type="text/css">
	.st0{fill:#18374B;}
	.st1{fill:#FFFFFF;}
	.st2{clip-path:url(#SVGID_6_);fill:#0D2735;}
	.st3{clip-path:url(#SVGID_6_);}
	.st4{fill:#D3B162;}
	.st5{fill:#7DCFE7;}
	.st6{fill:#081B36;}
	.st7{clip-path:url(#SVGID_12_);}
	.st8{fill:#EF5A2B;}
	.st9{fill:#FFDE09;}
</style>
<g>
	<polygon class="st1" points="119.84,47.56 107.05,41.15 113.42,60.35 	"/>
	<path class="st1" d="M76,1C34.64,1,1,34.65,1,76s33.64,75,75,75c41.36,0,75-33.64,75-75S117.35,1,76,1z M13.7,57.5
		c0.29,0,0.57,0.01,0.87,0.01c3.32,0,6.3-0.21,9.1-0.64l-1.51-9.89c-1.42,0.22-2.93,0.36-4.52,0.44
		C28.23,25.88,50.41,11.01,76,11.01c35.84,0,65,29.16,65,64.99c0,8.05-1.48,15.75-4.17,22.87h-24.08V79.11
		c3.02-0.81,5.52-1.78,7.88-2.69c0.71-0.28,1.41-0.55,2.13-0.82V65.02c-2.11,0.66-3.97,1.38-5.76,2.08
		c-5.05,1.97-9.83,3.83-19.59,3.83c-9.76,0-14.54-1.86-19.59-3.83c-5.43-2.11-11.58-4.51-23.22-4.51c-11.64,0-17.79,2.4-23.22,4.51
		c-0.71,0.28-1.41,0.55-2.13,0.81v10.59c2.11-0.66,3.97-1.38,5.76-2.08c1.4-0.54,2.78-1.08,4.25-1.57v24.02H15.17
		C12.48,91.75,11,84.05,11,76C11,69.57,11.96,63.37,13.7,57.5z M54.59,72.59c7.72,0,12.32,1.16,16.41,2.62v23.66H49.25V72.8
		C50.86,72.67,52.62,72.59,54.59,72.59z M81,78.81c4.12,1.2,9.22,2.11,16.4,2.11c1.93,0,3.69-0.07,5.34-0.19v18.14H81V78.81z
		 M76,140.99c-23.85,0-44.73-12.92-56.03-32.12h112.07C120.73,128.07,99.85,140.99,76,140.99z"/>
	<path class="st1" d="M36.67,52.96c2.14-0.89,4.17-1.72,6.54-2.38l-2.69-9.64c-2.94,0.82-5.35,1.81-7.67,2.77
		c-0.72,0.3-1.44,0.6-2.18,0.89l3.68,9.3C35.14,53.6,35.9,53.28,36.67,52.96z"/>
	<path class="st1" d="M100.86,57.29l-0.83-9.97c-2.86,0.24-6.32,0.24-9.18,0.02l-0.78,9.97c1.64,0.13,3.41,0.19,5.24,0.2
		C97.25,57.51,99.12,57.44,100.86,57.29z"/>
	<path class="st1" d="M54.94,49.17c2.25,0,4.26,0.11,6.16,0.33l1.16-9.94c-2.29-0.27-4.68-0.4-7.32-0.4c-1.23,0-2.39,0.03-3.48,0.08
		l0.49,9.99C52.9,49.2,53.89,49.17,54.94,49.17z"/>
	<path class="st1" d="M79.15,55.21l3.06-9.52c-1.8-0.58-3.44-1.26-5.17-1.97c-1.29-0.53-2.58-1.06-3.95-1.57l-3.45,9.39
		c1.24,0.45,2.4,0.94,3.57,1.42C75.06,53.72,76.96,54.51,79.15,55.21z"/>
</g>
</svg>
