<svg xmlns="http://www.w3.org/2000/svg" viewBox="0 0 960 840"><defs><style>.cls-1{fill:#ffe72d;}.cls-2{fill:#7dcfe7;}.cls-3{fill:#fff;}.cls-4{fill:#081b36;}</style></defs><title>Burton-image-2</title><g id="Layer_2" data-name="Layer 2"><g id="Layer_1-2" data-name="Layer 1"><rect class="cls-1" width="960" height="840"/><path class="cls-2" d="M625.09,418c0,1.41-1.32,1.92-2.2.61L515.44,250.16h0c-1-1.53-2.3-1.61-3.28-.32L480,300.17c-1,1.6-2.47,1.62-3.5,0L406.45,190.33c-1-1.54-2.44-1.52-3.41,0L337.11,293.65c-.86,1.3-2.21.77-2.21-.65V164a2.22,2.22,0,0,1,2.21-2.19H622.89a2.19,2.19,0,0,1,2.2,2.19Z"/><path class="cls-3" d="M625.09,676a2.18,2.18,0,0,1-2.2,2.18H337.11A2.2,2.2,0,0,1,334.9,676V533.54a1.62,1.62,0,0,1,1.8-1.61c41.76,5.61,89.5,32.76,135.83,59.15,50.14,28.58,101.84,58,150.46,63.36h0a2.12,2.12,0,0,1,2.1,2.17Z"/><path class="cls-3" d="M625.09,625.69a2,2,0,0,1-2.11,2.2c-42.48-5.68-90.65-33.1-137.39-59.74C436,539.92,384.88,510.85,337.11,505.4h0a2.21,2.21,0,0,1-2.21-2.22v-74a2.2,2.2,0,0,1,2.21-2.17H443.32a5.89,5.89,0,0,1,4.29,1.44L623,581.25a5.32,5.32,0,0,1,2.06,4.42Z"/><path class="cls-3" d="M625.09,544.64c0,2.18-1.27,2.3-2.53,1.2l-165-143.79a6.26,6.26,0,0,0-4.34-1.44H337.11a2.2,2.2,0,0,1-2.21-2.18V349.68c0-2.76.3-4.13,1.67-6.17L403,239.44c1-1.58,2.48-1.63,3.51,0l70,109.8c1,1.63,2.5,1.61,3.51,0h0L512.13,299c1-1.34,2.31-1.27,3.31.25h0L623.55,468.63c1.26,1.93,1.54,3.31,1.54,6Z"/><path class="cls-3" d="M562.16,161.8h-4.74c.13.11.19.19.31.28A3.83,3.83,0,0,0,562.16,161.8Z"/><path class="cls-3" d="M589.75,178a3.81,3.81,0,1,0-6.42-4.09,3.81,3.81,0,1,0,6.42,4.09Z"/><path class="cls-3" d="M558.93,278.15a3.82,3.82,0,0,0,4.13-6.42,3.82,3.82,0,1,0-4.13,6.42Z"/><path class="cls-3" d="M535.63,167.21a3.84,3.84,0,0,0,5.23-5.41h-6.3s0,.07-.07.11A3.88,3.88,0,0,0,535.63,167.21Z"/><path class="cls-3" d="M580.42,215a3.83,3.83,0,1,0,4.1-6.46,3.8,3.8,0,0,0-5.26,1.16A3.85,3.85,0,0,0,580.42,215Z"/><path class="cls-3" d="M572.32,205.27a3.82,3.82,0,1,0-5.26,1.17A3.78,3.78,0,0,0,572.32,205.27Z"/><path class="cls-3" d="M576.38,169.44a3.82,3.82,0,1,0-6.44-4.11,3.82,3.82,0,0,0,6.44,4.11Z"/><path class="cls-3" d="M575.76,192.79a3.83,3.83,0,1,0-1.15-5.29A3.83,3.83,0,0,0,575.76,192.79Z"/><path class="cls-3" d="M442.64,165.55a3.81,3.81,0,0,0,5.28-1.16,3.74,3.74,0,0,0,.53-2.59h-7.54A3.85,3.85,0,0,0,442.64,165.55Z"/><path class="cls-3" d="M336.31,266.18a3.82,3.82,0,0,0,6.44,4.12,3.82,3.82,0,1,0-6.44-4.12Z"/><path class="cls-3" d="M542.11,282.15a3.83,3.83,0,1,0-6.84-.9l1,1.63a1.81,1.81,0,0,0,.53.4A3.8,3.8,0,0,0,542.11,282.15Z"/><path class="cls-3" d="M555.5,290.64a3.83,3.83,0,1,0-5.28,1.17A3.84,3.84,0,0,0,555.5,290.64Z"/><path class="cls-3" d="M411.72,161.8h-4.94a3.15,3.15,0,0,0,.43.36A3.76,3.76,0,0,0,411.72,161.8Z"/><path class="cls-3" d="M559.54,254.81a3.82,3.82,0,1,0-5.28,1.14A3.82,3.82,0,0,0,559.54,254.81Z"/><path class="cls-3" d="M345.65,229.17a3.82,3.82,0,1,0,1.16,5.27A3.84,3.84,0,0,0,345.65,229.17Z"/><path class="cls-3" d="M388.6,184.2a3.82,3.82,0,1,0,6.44,4.12,3.82,3.82,0,1,0-6.44-4.12Z"/><path class="cls-3" d="M350.31,251.36a3.83,3.83,0,1,0,1.16,5.27A3.84,3.84,0,0,0,350.31,251.36Z"/><path class="cls-3" d="M500.18,163.81a3.83,3.83,0,0,0,5.28-1.18,3.15,3.15,0,0,0,.39-.83h-7.2A3.85,3.85,0,0,0,500.18,163.81Z"/><path class="cls-3" d="M543.78,206.31a3.83,3.83,0,0,0,6.47,4.1,3.83,3.83,0,1,0-6.47-4.1Z"/><path class="cls-3" d="M537.46,259.91a3.82,3.82,0,1,0-5.27,1.18A3.82,3.82,0,0,0,537.46,259.91Z"/><path class="cls-3" d="M402.6,169.37a3.83,3.83,0,1,0,1.14,5.27A3.82,3.82,0,0,0,402.6,169.37Z"/><path class="cls-3" d="M541.53,224.08a3.83,3.83,0,0,0-6.45-4.12,3.83,3.83,0,0,0,6.45,4.12Z"/><path class="cls-3" d="M527.59,268.32a2.89,2.89,0,0,0-.8-.37l2.53,4A3.85,3.85,0,0,0,527.59,268.32Z"/><path class="cls-3" d="M563,242.29a3.83,3.83,0,0,0,5.29-1.17,3.83,3.83,0,0,0-6.46-4.1A3.84,3.84,0,0,0,563,242.29Z"/><path class="cls-3" d="M424.67,164.24a3.83,3.83,0,1,0,1.16,5.27A3.82,3.82,0,0,0,424.67,164.24Z"/><path class="cls-3" d="M407.27,191.55h0l1.72,2.74A3.84,3.84,0,0,0,407.27,191.55Z"/><path class="cls-3" d="M429.34,186.42a3.83,3.83,0,1,0,1.17,5.28A3.84,3.84,0,0,0,429.34,186.42Z"/><path class="cls-3" d="M554.9,232.6a3.82,3.82,0,1,0-5.28,1.17A3.83,3.83,0,0,0,554.9,232.6Z"/><path class="cls-3" d="M559,196.75a3.82,3.82,0,1,0-5.28,1.17A3.82,3.82,0,0,0,559,196.75Z"/><path class="cls-3" d="M554.29,174.57a3.82,3.82,0,1,0-5.27,1.16A3.8,3.8,0,0,0,554.29,174.57Z"/><path class="cls-3" d="M567.65,183.09a3.81,3.81,0,1,0-5.27,1.18A3.83,3.83,0,0,0,567.65,183.09Z"/><path class="cls-3" d="M558.34,220.12a3.82,3.82,0,1,0-1.18-5.29A3.83,3.83,0,0,0,558.34,220.12Z"/><path class="cls-3" d="M545.55,269.62a3.86,3.86,0,0,0,5.3-1.17,3.82,3.82,0,1,0-5.3,1.17Z"/><path class="cls-3" d="M544.42,182.94a3.82,3.82,0,1,0,1.15,5.26A3.76,3.76,0,0,0,544.42,182.94Z"/><path class="cls-3" d="M540.9,247.44a3.84,3.84,0,0,0,5.27-1.18,3.81,3.81,0,1,0-6.42-4.12A3.85,3.85,0,0,0,540.9,247.44Z"/><path class="cls-3" d="M334.9,249.85a3.81,3.81,0,1,0,0-7.62Z"/><path class="cls-3" d="M349.72,193.3a3.83,3.83,0,1,0,1.15,5.26A3.8,3.8,0,0,0,349.72,193.3Z"/><path class="cls-3" d="M577.58,285.5a3.82,3.82,0,1,0-5.26,1.19A3.82,3.82,0,0,0,577.58,285.5Z"/><path class="cls-3" d="M581.61,331.05a3.78,3.78,0,0,0,5.27-1.14,3.83,3.83,0,1,0-5.27,1.14Z"/><path class="cls-3" d="M573.51,321.37a3.78,3.78,0,0,0-1.14-5.26,3.82,3.82,0,1,0,1.14,5.26Z"/><path class="cls-3" d="M345.05,171.13a3.81,3.81,0,1,0,1.14,5.24A3.78,3.78,0,0,0,345.05,171.13Z"/><path class="cls-3" d="M335.7,208.12a3.84,3.84,0,0,0,6.47,4.15,3.84,3.84,0,0,0-6.47-4.15Z"/><path class="cls-3" d="M591,294a3.83,3.83,0,1,0-5.28,1.18A3.84,3.84,0,0,0,591,294Z"/><path class="cls-3" d="M428.7,209.8a3.83,3.83,0,0,0,6.46,4.11,3.83,3.83,0,1,0-6.46-4.11Z"/><path class="cls-3" d="M560.17,312.83a3.83,3.83,0,0,0-6.47-4.09,2.45,2.45,0,0,0-.37.82l3.2,5A3.94,3.94,0,0,0,560.17,312.83Z"/><path class="cls-3" d="M577,308.87a3.82,3.82,0,1,0-1.17-5.26A3.78,3.78,0,0,0,577,308.87Z"/><path class="cls-3" d="M611.81,254.23a3.83,3.83,0,1,0,4.12-6.45,3.81,3.81,0,0,0-5.26,1.18A3.77,3.77,0,0,0,611.81,254.23Z"/><path class="cls-3" d="M616.48,276.41a3.82,3.82,0,1,0-1.17-5.28A3.8,3.8,0,0,0,616.48,276.41Z"/><path class="cls-3" d="M595,258.18a3.81,3.81,0,1,0-5.26,1.19A3.78,3.78,0,0,0,595,258.18Z"/><path class="cls-3" d="M612.44,230.86a3.82,3.82,0,0,0-6.45-4.1,3.84,3.84,0,0,0,1.19,5.28A3.8,3.8,0,0,0,612.44,230.86Z"/><path class="cls-3" d="M625.09,240.19v-5.71a1.57,1.57,0,0,0-.44-.36,3.84,3.84,0,0,0-5.28,1.15,3.8,3.8,0,0,0,5.72,4.92Z"/><path class="cls-3" d="M594.37,281.55a3.84,3.84,0,0,0,4.14-6.46,3.9,3.9,0,0,0-5.3,1.19A3.83,3.83,0,0,0,594.37,281.55Z"/><path class="cls-3" d="M599.05,303.74a3.81,3.81,0,1,0-1.17-5.28A3.85,3.85,0,0,0,599.05,303.74Z"/><path class="cls-3" d="M608.38,266.72a3.82,3.82,0,1,0-6.44-4.11,3.82,3.82,0,0,0,6.44,4.11Z"/><path class="cls-3" d="M581,273a3.82,3.82,0,1,0-1.16-5.27A3.82,3.82,0,0,0,581,273Z"/><path class="cls-3" d="M590.37,236a3.83,3.83,0,1,0-5.28,1.18A3.84,3.84,0,0,0,590.37,236Z"/><path class="cls-3" d="M563.6,300.33a3.81,3.81,0,1,0-1.17-5.28A3.81,3.81,0,0,0,563.6,300.33Z"/><path class="cls-3" d="M594.41,200.16A3.82,3.82,0,1,0,588,196a3.82,3.82,0,0,0,6.43,4.12Z"/><path class="cls-3" d="M593.79,223.48a3.82,3.82,0,1,0-1.17-5.26A3.82,3.82,0,0,0,593.79,223.48Z"/><path class="cls-3" d="M349.09,216.66a3.82,3.82,0,1,0,5.27-1.17A3.86,3.86,0,0,0,349.09,216.66Z"/><path class="cls-3" d="M572.92,263.31a3.82,3.82,0,1,0-5.28,1.18A3.84,3.84,0,0,0,572.92,263.31Z"/><path class="cls-3" d="M576.35,250.82a3.83,3.83,0,1,0-1.15-5.28A3.85,3.85,0,0,0,576.35,250.82Z"/><path class="cls-3" d="M598.44,245.67a3.82,3.82,0,1,0,4.14-6.41,3.84,3.84,0,0,0-5.3,1.17A3.78,3.78,0,0,0,598.44,245.67Z"/><path class="cls-3" d="M577,227.49a3.83,3.83,0,1,0-6.45-4.12,3.83,3.83,0,0,0,6.45,4.12Z"/><path class="cls-3" d="M625.09,181.5v-4.44a3.65,3.65,0,0,0-1-1,3.82,3.82,0,1,0,1,5.43Z"/><path class="cls-3" d="M385.09,167.29a3.82,3.82,0,0,0,5.28-1.15,3.88,3.88,0,0,0-.14-4.34h-6.14a1,1,0,0,0-.14.22A3.83,3.83,0,0,0,385.09,167.29Z"/><path class="cls-3" d="M624.6,204.69a1.89,1.89,0,0,0,.49.25V198a3.81,3.81,0,0,0-.49,6.7Z"/><path class="cls-3" d="M353.14,180.83a3.75,3.75,0,0,0,1.16,5.24,3.82,3.82,0,1,0-1.16-5.24Z"/><path class="cls-3" d="M611.23,196.17a3.82,3.82,0,1,0-1.16-5.28A3.79,3.79,0,0,0,611.23,196.17Z"/><path class="cls-3" d="M611.83,172.79a3.78,3.78,0,0,0-1.14-5.25,3.82,3.82,0,0,0-4.14,6.43A3.78,3.78,0,0,0,611.83,172.79Z"/><path class="cls-3" d="M625.09,262.68v-6.31a3.91,3.91,0,0,0-1.07,1.11A3.82,3.82,0,0,0,625.09,262.68Z"/><path class="cls-3" d="M607.79,208.68a3.82,3.82,0,1,0-5.29,1.17A3.83,3.83,0,0,0,607.79,208.68Z"/><path class="cls-3" d="M615.88,218.35a3.8,3.8,0,1,0-1.18-5.27A3.83,3.83,0,0,0,615.88,218.35Z"/><path class="cls-3" d="M367.14,166a3.83,3.83,0,1,0,1.16,5.28A3.83,3.83,0,0,0,367.14,166Z"/><path class="cls-3" d="M362.45,225.21a3.82,3.82,0,0,0,6.45,4.1,3.82,3.82,0,0,0-6.45-4.1Z"/><path class="cls-3" d="M357.79,203a3.82,3.82,0,0,0,6.45,4.1,3.82,3.82,0,1,0-6.45-4.1Z"/><path class="cls-3" d="M371.8,188.15a3.83,3.83,0,0,0-5.28,1.19,3.78,3.78,0,0,0,1.17,5.27,3.83,3.83,0,0,0,4.11-6.46Z"/><path class="cls-3" d="M380.51,174.51a3.83,3.83,0,1,0,1.15,5.28A3.82,3.82,0,0,0,380.51,174.51Z"/><path class="cls-3" d="M353.74,238.86a3.82,3.82,0,0,0,6.44,4.12,3.82,3.82,0,1,0-6.44-4.12Z"/><path class="cls-3" d="M379.88,197.86a3.82,3.82,0,1,0,5.26-1.16A3.84,3.84,0,0,0,379.88,197.86Z"/><path class="cls-3" d="M371.16,211.52a3.83,3.83,0,1,0,6.46,4.13,3.79,3.79,0,0,0-1.17-5.26A3.84,3.84,0,0,0,371.16,211.52Z"/><path class="cls-3" d="M417.13,183.18a3.85,3.85,0,0,0-1.16-5.3,3.9,3.9,0,0,0-5.3,1.18,3.83,3.83,0,0,0,6.46,4.12Z"/><path class="cls-3" d="M438.06,172.77a3.83,3.83,0,1,0,1.14,5.28A3.83,3.83,0,0,0,438.06,172.77Z"/><path class="cls-3" d="M438.63,230.82a3.79,3.79,0,0,0-5.26,1.16,2.5,2.5,0,0,0-.17.33l3.57,5.54a3.91,3.91,0,0,0,3-1.76A3.8,3.8,0,0,0,438.63,230.82Z"/><path class="cls-3" d="M457.84,266.8a3.8,3.8,0,0,0-5.74-4.89l4.07,6.34A3.81,3.81,0,0,0,457.84,266.8Z"/><path class="cls-3" d="M496.2,229.07a3.83,3.83,0,0,0-5.28,1.18,3.82,3.82,0,0,0,6.45,4.09A3.83,3.83,0,0,0,496.2,229.07Z"/><path class="cls-3" d="M453.17,244.62a3.82,3.82,0,1,0-6.44-4.1,3.82,3.82,0,1,0,6.44,4.1Z"/><path class="cls-3" d="M593.18,165.46A3.78,3.78,0,0,0,599,161.8h-7.55A3.86,3.86,0,0,0,593.18,165.46Z"/><path class="cls-3" d="M421.78,205.38a3.82,3.82,0,0,0-6.44-4.12,3.92,3.92,0,0,0-.6,2.09l2.17,3.39A3.78,3.78,0,0,0,421.78,205.38Z"/><path class="cls-3" d="M495.57,252.44a3.82,3.82,0,0,0,6.44,4.12,3.82,3.82,0,1,0-6.44-4.12Z"/><path class="cls-3" d="M596.69,182.34a3.82,3.82,0,1,0,5.28-1.13A3.82,3.82,0,0,0,596.69,182.34Z"/><path class="cls-3" d="M486.87,184.69A3.81,3.81,0,1,0,488,190,3.8,3.8,0,0,0,486.87,184.69Z"/><path class="cls-3" d="M486.26,208a3.82,3.82,0,1,0,5.27-1.16A3.83,3.83,0,0,0,486.26,208Z"/><path class="cls-3" d="M482.22,162.5a3.81,3.81,0,0,0-5.3,1.17,3.82,3.82,0,1,0,6.45,4.09A3.79,3.79,0,0,0,482.22,162.5Z"/><path class="cls-3" d="M495.6,171a3.81,3.81,0,1,0,1.16,5.26A3.8,3.8,0,0,0,495.6,171Z"/><path class="cls-3" d="M508.33,202.92a3.83,3.83,0,0,0,6.44,4.13,3.9,3.9,0,0,0-1.14-5.33A3.84,3.84,0,0,0,508.33,202.92Z"/><path class="cls-3" d="M472.87,199.5a3.83,3.83,0,1,0,5.26-1.13A3.83,3.83,0,0,0,472.87,199.5Z"/><path class="cls-3" d="M499.61,216.55a3.84,3.84,0,0,0,6.47,4.15,3.82,3.82,0,0,0-1.18-5.28A3.89,3.89,0,0,0,499.61,216.55Z"/><path class="cls-3" d="M509,179.53a3.86,3.86,0,0,0-5.26,1.18,3.8,3.8,0,0,0,1.14,5.29,3.84,3.84,0,1,0,4.12-6.47Z"/><path class="cls-3" d="M451.41,181.3a3.81,3.81,0,1,0,1.18,5.26A3.8,3.8,0,0,0,451.41,181.3Z"/><path class="cls-3" d="M473.5,176.16a3.82,3.82,0,1,0,1.17,5.25A3.8,3.8,0,0,0,473.5,176.16Z"/><path class="cls-3" d="M442.09,218.32a3.82,3.82,0,1,0,5.27-1.17A3.83,3.83,0,0,0,442.09,218.32Z"/><path class="cls-3" d="M517.68,165.88a3.83,3.83,0,1,0,1.16,5.29A3.82,3.82,0,0,0,517.68,165.88Z"/><path class="cls-3" d="M442.71,195a3.83,3.83,0,1,0-4.13,6.46,3.83,3.83,0,0,0,4.13-6.46Z"/><path class="cls-3" d="M450.8,204.66a3.82,3.82,0,1,0,5.27-1.14A3.8,3.8,0,0,0,450.8,204.66Z"/><path class="cls-3" d="M460.15,167.64a3.82,3.82,0,0,0-5.3,1.18,3.75,3.75,0,0,0,1.17,5.23,3.81,3.81,0,0,0,4.13-6.41Z"/><path class="cls-3" d="M464.16,213.2a3.82,3.82,0,1,0,5.29-1.18A3.82,3.82,0,0,0,464.16,213.2Z"/><path class="cls-3" d="M464.8,189.83a3.83,3.83,0,1,0,1.14,5.28A3.83,3.83,0,0,0,464.8,189.83Z"/><path class="cls-3" d="M473.48,257.57a3.83,3.83,0,0,0,6.45,4.12,3.83,3.83,0,1,0-6.45-4.12Z"/><path class="cls-3" d="M486.86,266.11a3.82,3.82,0,1,0,5.27-1.18A3.82,3.82,0,0,0,486.86,266.11Z"/><path class="cls-3" d="M464.77,271.24a3.81,3.81,0,1,0,5.27-1.18A3.84,3.84,0,0,0,464.77,271.24Z"/><path class="cls-3" d="M460.72,225.68A3.81,3.81,0,1,0,461.9,231,3.82,3.82,0,0,0,460.72,225.68Z"/><path class="cls-3" d="M465.4,247.87a3.84,3.84,0,1,0,1.14,5.28A3.81,3.81,0,0,0,465.4,247.87Z"/><path class="cls-3" d="M522.34,188.08a3.83,3.83,0,1,0,1.15,5.27A3.83,3.83,0,0,0,522.34,188.08Z"/><path class="cls-3" d="M487.47,242.75a3.84,3.84,0,0,0-5.28,1.13,3.91,3.91,0,0,0,1.18,5.33,3.83,3.83,0,0,0,4.1-6.46Z"/><path class="cls-3" d="M482.82,220.55a3.86,3.86,0,0,0-5.3,1.14,3.84,3.84,0,1,0,6.48,4.14A3.85,3.85,0,0,0,482.82,220.55Z"/><path class="cls-3" d="M484.58,283.88a3.82,3.82,0,1,0-5.27,1.16A3.81,3.81,0,0,0,484.58,283.88Z"/><path class="cls-3" d="M474.1,234.2a3.82,3.82,0,0,0-4.11,6.45,3.82,3.82,0,1,0,4.11-6.45Z"/><path class="cls-3" d="M536.87,201.89a3.84,3.84,0,0,0-6.47-4.12,3.84,3.84,0,0,0,6.47,4.12Z"/><path class="cls-3" d="M531.05,174.4a3.84,3.84,0,0,0-5.27,1.19,3.78,3.78,0,0,0,1.14,5.27,3.83,3.83,0,0,0,4.13-6.46Z"/><path class="cls-3" d="M526.38,233.63a3.82,3.82,0,1,0,5.27-1.16A3.83,3.83,0,0,0,526.38,233.63Z"/><path class="cls-3" d="M521.71,211.44a3.82,3.82,0,1,0,5.29-1.16A3.82,3.82,0,0,0,521.71,211.44Z"/><path class="cls-3" d="M510.7,242.88a3.77,3.77,0,0,0-1.14-5.27,3.82,3.82,0,1,0-4.12,6.44A3.78,3.78,0,0,0,510.7,242.88Z"/><path class="cls-3" d="M517.64,247.29a3.83,3.83,0,1,0,5.3-1.17A3.84,3.84,0,0,0,517.64,247.29Z"/><path class="cls-3" d="M475.85,297.53a3.8,3.8,0,0,0-4.6-5.59l4,6.28A2.8,2.8,0,0,0,475.85,297.53Z"/><path class="cls-3" d="M518.27,224a3.81,3.81,0,1,0,1.17,5.28A3.8,3.8,0,0,0,518.27,224Z"/><path class="cls-3" d="M500.26,193.23a3.83,3.83,0,1,0,1.14,5.28A3.86,3.86,0,0,0,500.26,193.23Z"/><path class="cls-3" d="M349.66,163.88a3.81,3.81,0,0,0,5.27-1.16,3.27,3.27,0,0,0,.43-.93h-7.3A3.8,3.8,0,0,0,349.66,163.88Z"/><path class="cls-3" d="M621.18,409.42a3.82,3.82,0,0,0,1.14,5.27,3.9,3.9,0,0,0,2.77.55v-7.49A3.69,3.69,0,0,0,621.18,409.42Z"/><path class="cls-3" d="M625.09,373.81a3.88,3.88,0,0,0,0,3.64Z"/><path class="cls-3" d="M613.07,399.72a3.9,3.9,0,0,0-2.54-.55l3.72,5.85A3.88,3.88,0,0,0,613.07,399.72Z"/><path class="cls-3" d="M625.09,357v-7.15a3.82,3.82,0,0,0-3.37,6.8A3.7,3.7,0,0,0,625.09,357Z"/><path class="cls-3" d="M599.63,361.79a3.83,3.83,0,0,0,4.13-6.44,3.79,3.79,0,0,0-5.27,1.16A3.83,3.83,0,0,0,599.63,361.79Z"/><path class="cls-3" d="M595,339.6a3.85,3.85,0,0,0,5.3-1.18,3.81,3.81,0,1,0-5.3,1.18Z"/><path class="cls-3" d="M604.32,384a3.8,3.8,0,1,0-1.18-5.27A3.8,3.8,0,0,0,604.32,384Z"/><path class="cls-3" d="M595.61,316.22a3.81,3.81,0,0,0-6.44-4.09,3.81,3.81,0,1,0,6.44,4.09Z"/><path class="cls-3" d="M337.51,190.07a3.87,3.87,0,0,0-1.17-5.3,3.78,3.78,0,0,0-1.44-.55v7.52A3.66,3.66,0,0,0,337.51,190.07Z"/><path class="cls-3" d="M590.38,346.83a3.82,3.82,0,1,0,1.15,5.28A3.81,3.81,0,0,0,590.38,346.83Z"/><path class="cls-3" d="M609,324.76a3.81,3.81,0,1,0-5.26,1.16A3.79,3.79,0,0,0,609,324.76Z"/><path class="cls-3" d="M578.17,343.57A3.81,3.81,0,0,0,572.1,339l3.94,6.17A4,4,0,0,0,578.17,343.57Z"/><path class="cls-3" d="M617.08,334.46a3.82,3.82,0,1,0-1.17-5.28A3.81,3.81,0,0,0,617.08,334.46Z"/><path class="cls-3" d="M613.64,347a3.82,3.82,0,1,0-5.29,1.16A3.81,3.81,0,0,0,613.64,347Z"/><path class="cls-3" d="M596.21,374.29A3.83,3.83,0,0,0,595,369a3.78,3.78,0,0,0-3.84-.14l4.07,6.4A4.39,4.39,0,0,0,596.21,374.29Z"/><path class="cls-3" d="M613,370.31a3.82,3.82,0,1,0-1.17-5.26A3.85,3.85,0,0,0,613,370.31Z"/><path class="cls-3" d="M625.09,314.92a4,4,0,0,0-.47.6,3.81,3.81,0,0,0,.47,4.7Z"/><path class="cls-3" d="M625.09,298.69v-6.6a3.8,3.8,0,0,0-5.12,1.24,3.81,3.81,0,0,0,5.12,5.36Z"/><path class="cls-3" d="M612.42,312.27a3.82,3.82,0,1,0-1.17-5.27A3.82,3.82,0,0,0,612.42,312.27Z"/><path class="cls-3" d="M613,288.9a3.82,3.82,0,1,0-5.26,1.18A3.81,3.81,0,0,0,613,288.9Z"/><path class="cls-3" d="M617.68,392.51a3.82,3.82,0,1,0-1.17-5.28A3.83,3.83,0,0,0,617.68,392.51Z"/><path class="cls-4" d="M395.56,651.82l-12.63,0a21.32,21.32,0,0,1-21.62-21.52V593h17v37a5.68,5.68,0,0,0,5.43,5.92h12c5.39,0,7.7-2.83,7.7-7.64a7.23,7.23,0,0,0-2.06-5l-5.77-6v14.2H382.84v-31.9a6.65,6.65,0,0,1,6.63-6.58H419v12.48H405.73l7.11,7.25a23.67,23.67,0,0,1,6.88,16.34C419.7,639.25,411.31,651.82,395.56,651.82Z"/><path class="cls-4" d="M651.46,698.51v-557A5.18,5.18,0,0,0,646,136H314a5.18,5.18,0,0,0-5.47,5.48v557A5.18,5.18,0,0,0,314,704H646A5.17,5.17,0,0,0,651.46,698.51ZM625.09,676a2.18,2.18,0,0,1-2.2,2.18H337.11A2.2,2.2,0,0,1,334.9,676V533.54a1.62,1.62,0,0,1,1.8-1.61c41.76,5.61,89.5,32.76,135.83,59.15,50.14,28.58,101.84,58,150.46,63.36h0a2.12,2.12,0,0,1,2.1,2.17Zm0-50.32a2,2,0,0,1-2.11,2.2c-42.48-5.68-90.65-33.1-137.39-59.74C436,539.92,384.88,510.85,337.11,505.4h0a2.21,2.21,0,0,1-2.21-2.22v-74a2.2,2.2,0,0,1,2.21-2.17H443.32a5.89,5.89,0,0,1,4.29,1.44L623,581.25a5.32,5.32,0,0,1,2.06,4.42Zm0-81.05c0,2.18-1.27,2.3-2.53,1.2l-165-143.79a6.26,6.26,0,0,0-4.34-1.44H337.11a2.2,2.2,0,0,1-2.21-2.18V349.68c0-2.76.3-4.13,1.67-6.17L403,239.44c1-1.58,2.48-1.63,3.51,0l70,109.8c1,1.63,2.5,1.61,3.51,0L512.13,299c1-1.34,2.31-1.27,3.31.25h0L623.55,468.63c1.26,1.93,1.54,3.31,1.54,6Zm0-126.66c0,1.41-1.32,1.92-2.2.61L515.44,250.16h0c-1-1.53-2.3-1.61-3.28-.32L480,300.17c-1,1.6-2.47,1.62-3.5,0L406.45,190.33c-1-1.54-2.44-1.52-3.41,0L337.11,293.65c-.86,1.3-2.21.77-2.21-.65V164a2.22,2.22,0,0,1,2.21-2.19H622.89a2.19,2.19,0,0,1,2.2,2.19Z"/></g></g></svg>