<?xml version="1.0" encoding="utf-8"?>
<!-- Generator: Adobe Illustrator 23.0.1, SVG Export Plug-In . SVG Version: 6.00 Build 0)  -->
<svg version="1.1" id="Layer_1" xmlns="http://www.w3.org/2000/svg" xmlns:xlink="http://www.w3.org/1999/xlink" x="0px" y="0px"
	 viewBox="0 0 152 152" style="enable-background:new 0 0 152 152;" xml:space="preserve">
<style type="text/css">
	.st0{fill:#18374B;}
	.st1{fill:#FFFFFF;}
	.st2{clip-path:url(#SVGID_6_);fill:#0D2735;}
	.st3{clip-path:url(#SVGID_6_);}
	.st4{fill:#D3B162;}
	.st5{fill:#7DCFE7;}
	.st6{fill:#081B36;}
	.st7{clip-path:url(#SVGID_12_);}
	.st8{fill:#EF5A2B;}
	.st9{fill:#FFDE09;}
</style>
<g>
	<path class="st1" d="M76,1C34.64,1,1,34.65,1,76c0,41.35,33.64,75,75,75c41.36,0,75-33.64,75-75C151,34.65,117.36,1,76,1z
		 M76,11.01c35.84,0,65,29.16,65,64.99c0,6.72-1.02,13.2-2.92,19.29c-4.81-2.27-11.96-6.75-16.48-11.83
		c-5.61-6.32-10.44-10.79-21.42-10.79H85.71c-2.78,0-3.62-0.54-4.62-1.93l-6.71-8.82H59.1l-1.46,2.42
		C46.06,83.57,25.87,90.31,12.91,91.62c-0.83-3.34-1.39-6.77-1.67-10.29c1.93-0.38,3.81-0.8,5.6-1.3l-2.69-9.64
		c-0.94,0.26-1.95,0.48-2.94,0.71C13.72,37.55,41.81,11.01,76,11.01z M124.38,98.87H27.19c12.86-3.85,27.47-11.88,37.49-26.94h4.74
		l3.63,4.77c3.82,5.29,8.77,5.97,12.66,5.97h14.46c6.73,0,9.05,1.93,13.94,7.43C116.79,93.12,120.47,96.19,124.38,98.87z M76,140.99
		c-23.85,0-44.73-12.92-56.03-32.12h112.07C120.73,128.07,99.85,140.99,76,140.99z"/>
	<path class="st1" d="M79,41.4l-0.34-10c-3.73,0.13-7.25,0.58-10.45,1.35l2.34,9.73C73.09,41.86,75.94,41.5,79,41.4z"/>
	<path class="st1" d="M116.22,47.88c-2.68-2.45-5.24-4.55-7.83-6.43l-5.88,8.09c2.25,1.63,4.59,3.56,6.96,5.73L116.22,47.88z"/>
	<path class="st1" d="M99.53,36.02c-3.35-1.67-6.74-2.9-10.08-3.67l-2.24,9.75c2.57,0.59,5.21,1.56,7.86,2.88L99.53,36.02z"/>
	<path class="st1" d="M35.59,71.02l-5.94-8.05c-2.34,1.73-4.74,3.17-7.36,4.41l4.3,9.03C29.78,74.9,32.73,73.13,35.59,71.02z"/>
	<path class="st1" d="M62.95,45.41l-4.88-8.73c-2.96,1.65-5.78,3.74-8.62,6.38l6.81,7.33C58.51,48.3,60.69,46.67,62.95,45.41z"/>
	<path class="st1" d="M49.3,57.76l0.7-0.79l-7.48-6.64l-0.71,0.8c-1.79,2.01-3.63,4.09-5.58,6.06l7.12,7.03
		C45.49,62.05,47.43,59.87,49.3,57.76z"/>
	<polygon class="st1" points="126.88,65.97 127.16,51.67 112.57,65.69 	"/>
</g>
</svg>
