<svg id="Layer_1" data-name="Layer 1" xmlns="http://www.w3.org/2000/svg" viewBox="0 0 200 150"><defs><style>.cls-2{fill:#424242}.cls-3{fill:#7edfe9}.cls-4{fill:#2ab0c6}.cls-5{fill:#37bedb}</style></defs><path d="M.27 149.83L200 150l-.16-42.54s-19.92-27.32-57.37-16.1c-32.71 9.81-78.72-14.38-97.72-13C13 80.54 0 96 0 96z" fill="#666"/><path class="cls-2" d="M160.69 104a5.18 5.18 0 0 1 0 9.66l-30.78 12c-17.62 6.9-42.06 6.9-59.84 0l-30.78-12a5.18 5.18 0 0 1 0-9.66l30.77-11.9c17.62-6.89 42.22-6.81 59.84 0z"/><path class="cls-3" d="M160.69 99.45a5.18 5.18 0 0 1 0 9.66l-30.78 12c-17.62 6.9-42.06 6.9-59.84 0l-30.78-12a5.18 5.18 0 0 1 0-9.66l30.77-11.9c17.62-6.89 42.22-6.81 59.84 0z"/><ellipse class="cls-4" cx="92.69" cy="112.85" rx="3.97" ry="14.42" transform="rotate(-89.83 92.7 112.855)"/><path class="cls-4" d="M91.77 106.09l-13.68 1.89.19 4.88 28.83-.01-.18-4.87-15.16-1.89z"/><ellipse class="cls-5" cx="92.51" cy="107.98" rx="3.97" ry="14.42" transform="rotate(-89.83 92.517 107.983)"/><rect class="cls-3" x="67.52" y="77.17" width="1.83" height="5.88" rx=".28" ry=".28" transform="rotate(-78.93 68.426 80.108)"/><path class="cls-3" d="M72.2 71.94l-4.87-2.07a.34.34 0 0 1-.18-.41l.37-1.33a.25.25 0 0 1 .34-.19L72.74 70a.34.34 0 0 1 .17.41l-.37 1.33a.25.25 0 0 1-.34.2zm3.87-8.61l-4-3.46a.36.36 0 0 1 0-.45l.77-1.16a.25.25 0 0 1 .38-.07l4 3.46a.36.36 0 0 1 0 .44l-.76 1.16a.26.26 0 0 1-.39.08z"/><rect class="cls-3" x="133.34" y="83.26" width="5.88" height="1.83" rx=".28" ry=".28" transform="rotate(-5.01 136.362 84.175)"/><path class="cls-3" d="M133.4 75.65l5.06-1.54a.35.35 0 0 0 .22-.39l-.23-1.37a.26.26 0 0 0-.32-.23l-5.06 1.55a.34.34 0 0 0-.22.39l.23 1.36a.26.26 0 0 0 .32.23zm-2.94-8.98l4.34-3a.35.35 0 0 0 .09-.44l-.63-1.23a.26.26 0 0 0-.38-.11l-4.34 3a.35.35 0 0 0-.09.44l.63 1.23a.26.26 0 0 0 .38.11z"/><path d="M129.92 87.55a68.12 68.12 0 0 0-6.92-2.24l-3.94 12.44 4.52 2.9 19.43-8z" opacity=".35" fill="#2ab0c6"/><path class="cls-2" d="M123.53 102.24l1.62-1.07a.19.19 0 0 0-.08-.34L84 94.8a.51.51 0 0 0-.32.06l-2 1.23a.18.18 0 0 0 .07.34l41.36 5.92a.69.69 0 0 0 .42-.11z"/><path class="cls-4" d="M103.84 60.51a6.86 6.86 0 0 0 8.09-6.95v-.19l9 1.28a4.73 4.73 0 0 0 2.49 3.89v42.37l-38-5.4.2-42.25A3.3 3.3 0 0 0 87.88 50l7.88 1.12a1.37 1.37 0 0 0 0 .19 9.66 9.66 0 0 0 8.08 9.2z"/><path class="cls-4" d="M87.88 49.95l-1.22.79 1.42 2.17-.2-2.96zm24.05 3.42l-1.22.79 1.46.86-.24-1.65zm11.49 47.54l-1.22.79-.72-1.36 1.18-.64"/><path class="cls-5" d="M102.62 61.29a6.85 6.85 0 0 0 8.09-6.94v-.19l9 1.28a4.75 4.75 0 0 0 2.49 3.89v42.37l-38-5.41V53.92a3.31 3.31 0 0 0 2.49-3.18l7.88 1.12a1.11 1.11 0 0 0 0 .19 9.65 9.65 0 0 0 8.05 9.24z"/><path class="cls-3" d="M95.05 91.52A29.73 29.73 0 0 1 92 86.89a8.78 8.78 0 0 1-.83-3.6 7.24 7.24 0 0 1 .83-3.37 20 20 0 0 1 3.06-3.76 2.24 2.24 0 0 1 1.79-.45l.9.13a3 3 0 0 1 2 1.26c2.22 3.11 3.72 5.33 4.08 6.06a4.61 4.61 0 0 1 .45 2 4.05 4.05 0 0 1-.46 1.88 22 22 0 0 1-2.2 2.72h-.06l-1.1-1.61 1.25-1.48a2.72 2.72 0 0 0 .62-1.76 3.51 3.51 0 0 0-.62-1.94l-2.23-3.27-.81-1.18a2.21 2.21 0 0 0-.76-.7 1.57 1.57 0 0 0-1.75.15A22.63 22.63 0 0 0 93.63 81a5.55 5.55 0 0 0-.63 2.55 6.3 6.3 0 0 0 .63 2.75c.52 1 2.58 4 4.23 6.33l-1-.15a3 3 0 0 1-1.79-1M94 74.88A21.42 21.42 0 0 0 90.58 79a8.73 8.73 0 0 0-1 4 10.57 10.57 0 0 0 1 4.32A32.79 32.79 0 0 0 94 92.49a4.93 4.93 0 0 0 2.89 1.56l5.17.73a3.64 3.64 0 0 0 2.84-.78 21.27 21.27 0 0 0 3.37-4.14 8.65 8.65 0 0 0 1-4 10.37 10.37 0 0 0-1-4.31 31.2 31.2 0 0 0-3.37-5.11 4.82 4.82 0 0 0-2.9-1.56l-5.17-.74a3.72 3.72 0 0 0-2.89.74m5.48 11.79l-1-1.45a1.5 1.5 0 0 1 0-1.8l1-1.16 1 1.44a1.47 1.47 0 0 1 0 1.8zm4.38-9.27a31.76 31.76 0 0 1 3.07 4.6 8.8 8.8 0 0 1 .82 3.61 7.26 7.26 0 0 1-.82 3.37 21.13 21.13 0 0 1-3.06 3.76 2.33 2.33 0 0 1-1.8.45l-.9-.13a3.06 3.06 0 0 1-2-1.26c-2.22-3.11-3.71-5.34-4.07-6.07a4.42 4.42 0 0 1 0-3.87 21.69 21.69 0 0 1 2.2-2.71h.05l1.11 1.62-1.21 1.53a3.07 3.07 0 0 0 0 3.69l2.24 3.27.8 1.19a2.13 2.13 0 0 0 .77.69 1.54 1.54 0 0 0 1.74-.14 21.48 21.48 0 0 0 2.48-3.08 5.36 5.36 0 0 0 .62-2.54 6.29 6.29 0 0 0-.63-2.74c-.52-1-2.57-4-4.23-6.33l1 .14a3 3 0 0 1 1.8 1M85.71 94.71v1.75l-.57-.08v-1.75l.57.08zm0-7.56v5.83l-.57-.07v-5.84l.57.08zm0-7.56v5.84l-.57-.08v-5.84l.57.08zm0-7.55v5.83l-.57-.08v-5.83l.57.08zm0-7.56v5.84l-.57-.08V64.4l.57.08zm0-7.56v5.84l-.57-.08v-5.84l.57.08zm35.51 42.84v1.76l-.56-.09v-1.75l.56.08zm0-7.56v5.84l-.56-.08v-5.84l.56.08zm0-7.56v5.84l-.56-.08v-5.84l.56.08zm0-7.55v5.83l-.56-.08v-5.83l.56.08zm0-7.56v5.84l-.56-.08v-5.84l.56.08zm0-7.55v5.83l-.56-.08V61.9l.56.08zm-6.41 31.18c0-.18-.09-.28-.28-.3a1.7 1.7 0 0 0-.59 0h-.25V94a3.43 3.43 0 0 0 .78.29c.23 0 .3-.09.34-.29v1.14c-.07-.3-.19-.43-1.21-.94l-1.89-.91v-.69l2.15-.44c.79-.16.89-.29 1-.48zm-2.75.1l1.42.67V93zm2.6-4.26a6.69 6.69 0 0 0 .2 1.06l-.37-.06a1.11 1.11 0 0 1 .37.77c0 .47-.4.85-1.09.75a1.52 1.52 0 0 1-1.32-1.46 3.31 3.31 0 0 1 0-.34h-.16c-.4 0-.5 0-.62.25a5.65 5.65 0 0 0-.2-1.07l2.55.37c.4.05.5 0 .61-.23zm-1.94.77a.34.34 0 0 0-.14.28c0 .34.45.65 1 .72s1-.13 1-.52a.44.44 0 0 0-.06-.23zm2.09-3.66c-.11-.24-.26-.3-.59-.35l-1-.14a.31.31 0 0 0-.4.33 1.14 1.14 0 0 0 .07.34 2 2 0 0 1 .35 0l1 .14c.33 0 .48 0 .59-.18v1.27c-.11-.25-.26-.31-.59-.35l-1-.14c-.27 0-.4.09-.4.3a1 1 0 0 0 .06.32l1.34.19c.33.05.48 0 .59-.19v1.25c-.11-.25-.26-.31-.59-.36l-.91-.13c-.4 0-.5 0-.62.23a6.29 6.29 0 0 0-.21-1h.36a1.37 1.37 0 0 1-.35-.81.48.48 0 0 1 .38-.53 1.44 1.44 0 0 1-.39-.88c0-.34.21-.61.77-.53l1 .14c.33 0 .48 0 .59-.18zM112 84a.45.45 0 0 1-.37-.43.32.32 0 0 1 .37-.32.46.46 0 0 1 .38.43.32.32 0 0 1-.38.32zm2.86.65c-.11-.25-.26-.31-.59-.36l-.91-.13c-.4-.05-.5 0-.62.23a6.29 6.29 0 0 0-.21-1l1.75.25c.33 0 .48 0 .59-.19zm-.38-3.06a1.1 1.1 0 0 1 .37.74c0 .42-.19.66-.7.59l-1.39-.2V83h-.05a3.07 3.07 0 0 0-.81-1.11l.61.08v-.57h.27v.6l1.35.19a.3.3 0 0 0 .39-.32.59.59 0 0 0-.07-.26zm.33-1.49c-.12-.33-.27-.39-.61-.44l-1.81-.26a3.22 3.22 0 0 1 .13.6 4.38 4.38 0 0 0-.82-1.43l2.54.36c.34 0 .49 0 .61-.25z"/><ellipse class="cls-5" cx="134.83" cy="103.5" rx=".77" ry="2.81" transform="rotate(-88.74 134.84 103.5)"/><ellipse class="cls-4" cx="134.83" cy="103.35" rx=".77" ry="2.81" transform="rotate(-88.74 134.838 103.348)"/><path class="cls-5" d="M135.41 102.6l-1.41 1.46h.42l1.46-1.45z"/><ellipse class="cls-5" cx="71.53" cy="94" rx=".77" ry="2.81" transform="rotate(-88.74 71.532 94.002)"/><ellipse class="cls-4" cx="71.53" cy="93.88" rx=".77" ry="2.81" transform="rotate(-88.74 71.536 93.886)"/><path class="cls-5" d="M74.21 94.16l-4.75-.84a2 2 0 0 0-.55.24l4.82.85a1.5 1.5 0 0 0 .48-.25z"/></svg>