<svg id="Layer_1" data-name="Layer 1" xmlns="http://www.w3.org/2000/svg" viewBox="0 0 200 150"><defs><style>.cls-4{fill:#ef877b}.cls-5,.cls-7{fill:#ffa87b}.cls-5{opacity:.38}.cls-6{fill:#ffdecd}</style></defs><path d="M200 150H0v-39.17S24.38 80 61.27 79.17c42.46-1 75.13 20.7 95.28 20.7 32.08 0 43.45-12.12 43.45-12.12z" fill="#666"/><path d="M160.69 104.12a5.18 5.18 0 0 1 0 9.66l-30.78 12c-17.62 6.89-42.06 6.89-59.84 0l-30.78-12a5.18 5.18 0 0 1 0-9.66l30.77-11.9c17.62-6.9 42.22-6.81 59.84 0z" fill="#424242"/><path d="M160.69 99.62a5.18 5.18 0 0 1 0 9.66l-30.78 12c-17.62 6.89-42.06 6.89-59.84 0l-30.78-12a5.18 5.18 0 0 1 0-9.66l30.77-11.9c17.62-6.9 42.22-6.81 59.84 0z" fill="#f9bca5"/><ellipse class="cls-4" cx="117.36" cy="82.56" rx="1.37" ry=".78" transform="rotate(-.53 118.535 82.71)"/><ellipse class="cls-5" cx="69.17" cy="100.66" rx="7.92" ry="1.22"/><ellipse class="cls-5" cx="117.43" cy="103.56" rx="14.44" ry="2.84"/><path class="cls-6" d="M65.16 87.9l-7.67-7.17 7.62 7.5.05-.33zm2.85 1.59l-2.35-9.41 2.63 9.65-.28-.24z"/><path class="cls-4" d="M67.84 89.37l1.73.76a1.07 1.07 0 0 1-.2.07l11.9 2.26 3.5 3.9 1.38.42-.66.39-14.09-2.69-3.87-4.28z"/><path class="cls-6" d="M67.84 89.37l14.09 2.69 4.22 4.72-14.09-2.69-4.22-4.72z"/><path class="cls-4" d="M63.21 82.84l10.49 2.08 5.54 6.19-10.5-2.09-5.53-6.18z"/><path class="cls-7" d="M57.67 89.25l5.54-6.41 5.53 6.18 10.5 2.09-5.67 6.25-10.51-1.89-5.39-6.22z"/><path class="cls-4" d="M45.32 82.28l2.27 1-.25.08 12 2.31 4.58 5.12 1.81.54-.85.52-14.64-2.72-5.32-5.76z"/><path class="cls-6" d="M45.32 82.28l14.85 2.87 5.53 6.18-15.21-3.01-5.17-6.04zm22.46 3.37a1 1 0 0 0 .32.71l1.11 1.25a2.93 2.93 0 0 0 .92.69 19.75 19.75 0 0 0 1.93.78 3.82 3.82 0 0 0 1.3.2 1.45 1.45 0 0 0 .89-.27 2.11 2.11 0 0 0 .49-.86 1 1 0 0 0-.32-.72l-1.11-1.25a3.09 3.09 0 0 0-.92-.69 19.75 19.75 0 0 0-1.93-.78 4.45 4.45 0 0 0-1.31-.2 1.44 1.44 0 0 0-.88.28 2.11 2.11 0 0 0-.49.86m4.55.12a1.76 1.76 0 0 1 .57.42l.22.25c-.9-.38-2-.85-2.4-1a2.59 2.59 0 0 0-.83-.13 1 1 0 0 0-.56.17 2.17 2.17 0 0 0-.37.64c0 .11.08.27.27.42a1.14 1.14 0 0 0 .32.18l.45.19 1.25.52a1.77 1.77 0 0 0 .62.13c.17 0 .3-.06.35-.17l.17-.32.62.26a2.08 2.08 0 0 1-.32.57.71.71 0 0 1-.41.12 1.62 1.62 0 0 1-.6-.09c-.26-.08-1.1-.42-2.31-.94a1.94 1.94 0 0 1-.69-.48l-.19-.21a.61.61 0 0 1-.2-.45 2.06 2.06 0 0 1 .44-.78 1.25 1.25 0 0 1 .74-.23 3.59 3.59 0 0 1 1.09.17 16.68 16.68 0 0 1 1.75.71m-.62 1.36c-.06.1-.25.11-.48 0l-.55-.22.13-.25c.06-.11.25-.11.47 0l.56.23zm-1.52.9a1.79 1.79 0 0 1-.57-.43l-.22-.25c.9.38 2 .86 2.4 1a2.53 2.53 0 0 0 .83.12.85.85 0 0 0 .56-.17 2.13 2.13 0 0 0 .37-.63c0-.11-.08-.28-.27-.43A2 2 0 0 0 73 87l-.45-.19-1.26-.51c-.46-.19-.85-.18-1 0l-.17.32-.62-.25a2 2 0 0 1 .32-.56 1.18 1.18 0 0 1 1 0c.26.08 1.1.43 2.31.94a1.94 1.94 0 0 1 .69.48l.19.22a.6.6 0 0 1 .2.44 2.06 2.06 0 0 1-.44.78 1.25 1.25 0 0 1-.74.23 3.26 3.26 0 0 1-1.09-.17 16.75 16.75 0 0 1-1.75-.7"/><ellipse class="cls-6" cx="160.56" cy="114.65" rx=".65" ry=".4"/><ellipse class="cls-4" cx="139.54" cy="109.83" rx="1.37" ry=".92" transform="rotate(-2.72 139.63 109.942)"/><ellipse class="cls-6" cx="64.42" cy="111.1" rx=".84" ry="1.37" transform="rotate(-85.69 64.42 111.102)"/><ellipse class="cls-4" cx="151.08" cy="108.78" rx="2.19" ry="1.11"/><ellipse class="cls-6" cx="148.09" cy="97.05" rx=".71" ry=".37" transform="rotate(-3.06 148.021 97.057)"/><ellipse class="cls-6" cx="85.94" cy="86.08" rx=".71" ry=".37"/><ellipse class="cls-4" cx="126.47" cy="124.69" rx=".71" ry=".37" transform="rotate(-1.47 126.646 124.805)"/><ellipse class="cls-4" cx="158.55" cy="91.44" rx=".71" ry=".37" transform="rotate(-1.47 158.65 91.302)"/><ellipse class="cls-6" cx="128.59" cy="117.56" rx=".71" ry=".37" transform="rotate(-1.47 128.69 117.425)"/><ellipse class="cls-6" cx="159.89" cy="103.31" rx=".71" ry=".37" transform="rotate(-1.47 160.055 103.404)"/><ellipse class="cls-4" cx="65.81" cy="121.63" rx=".37" ry=".71" transform="rotate(-89.22 65.808 121.634)"/><ellipse class="cls-4" cx="93.52" cy="101.61" rx=".37" ry=".71" transform="rotate(-89.22 93.523 101.61)"/><ellipse class="cls-6" cx="73.69" cy="113.67" rx=".37" ry=".71" transform="rotate(-89.22 73.698 113.666)"/><ellipse class="cls-6" cx="106.94" cy="123.37" rx=".37" ry=".71" transform="rotate(-89.22 106.942 123.367)"/><ellipse class="cls-4" cx="42.33" cy="105.72" rx=".37" ry=".71" transform="rotate(-89.22 42.33 105.723)"/><ellipse class="cls-6" cx="40.45" cy="95.27" rx=".71" ry=".37" transform="rotate(-3.15 40.33 95.194)"/><ellipse class="cls-4" cx="47.26" cy="99.29" rx=".71" ry=".37" transform="rotate(-3.15 47.136 99.203)"/><ellipse class="cls-6" cx="89.94" cy="87.91" rx=".65" ry=".4"/><ellipse class="cls-6" cx="92.99" cy="80.09" rx=".65" ry=".4"/><path class="cls-6" d="M104.4 119.75c-.46.66-4.39-1.57-8-3.88-1.52-1-3-1.94-4.14-2.73s-2.59-1.8-4-2.87c-3.48-2.57-7-5.44-6.52-6.1s4.5 1.64 8.2 4a2.43 2.43 0 0 0-.25.2c-4.56-2.89-7.37-4.22-7.7-4-.08.36 2.14 2.47 6.39 5.63 1.2.89 2.57 1.86 4.09 2.9s2.91 2 4.18 2.76c4.44 2.81 7.2 4.12 7.56 3.92 0-.4-2.21-2.54-6.51-5.72l.09-.31c3.45 2.59 7.07 5.53 6.61 6.2z"/><path class="cls-4" d="M96.36 115.87a5.05 5.05 0 0 1-8.17-5.6c1.44 1.07 2.88 2.08 4 2.87s2.65 1.77 4.17 2.73zm.64-.76c-.13.19-.28.37-.42.54q-1.9-1.2-4.18-2.76c-1.52-1-2.89-2-4.09-2.9a5.17 5.17 0 0 1 .36-.59 4.73 4.73 0 0 1 1-1 2.43 2.43 0 0 1 .25-.2 5.06 5.06 0 0 1 7.85 5.38l-.09.31a5.31 5.31 0 0 1-.68 1.22z"/><ellipse class="cls-5" cx="92.73" cy="122.96" rx="3.1" ry=".33"/><path class="cls-7" d="M142.69 58.35q2.53 1.35 4.89 2.77a27.63 27.63 0 0 0-6.24-11.29 39.25 39.25 0 0 1 1.35 8.52zm-2.94 17.98c2.41.57 4.8 1.11 7.16 1.59a27.57 27.57 0 0 0 1.31-13.77q-2.62-1.66-5.48-3.21a43.75 43.75 0 0 1-2.66 14.51c-.08.28-.2.55-.33.88zm-7.87 13.07a35.64 35.64 0 0 0 9.57-2.4 26.89 26.89 0 0 0 4.55-6.89c-2.35-.49-4.74-1-7.15-1.63a43.46 43.46 0 0 1-6.97 10.92zm-7.24 6.48a27.87 27.87 0 0 0 12.79-5.21 39.39 39.39 0 0 1-7.88 1.16 38.24 38.24 0 0 1-4.91 4.05zM125.87 51a122.13 122.13 0 0 1 14.47 6.14 36.62 36.62 0 0 0-2.45-10.49 27 27 0 0 0-7-4 104.23 104.23 0 0 0-5.02 8.35zm.26 40.88a49.71 49.71 0 0 1-13.43-2.2c-.27 1.68-.49 3.35-.66 5a27 27 0 0 0 7.9 1.46 35.22 35.22 0 0 0 6.19-4.26zm-9.26-19.65a116.83 116.83 0 0 0-3.8 15.2 47.25 47.25 0 0 0 15.5 2.2 40.78 40.78 0 0 0 8.05-11.69c-5.86-1.48-11.88-3.2-18-5.15zm1.57-4.65c-.3.83-.59 1.66-.86 2.49l1.72.56c6.15 2 12.25 3.68 18.22 5.15.16-.36.31-.74.45-1.12a41.61 41.61 0 0 0 2.51-14.93 122.16 122.16 0 0 0-14.2-6.18c-.49-.18-1-.35-1.49-.51a121.15 121.15 0 0 0-6.35 14.54zm5.27-17.31q2.37-4.4 5-8.32a27.24 27.24 0 0 0-10.21-1 39.38 39.38 0 0 0-6.73 6 121.5 121.5 0 0 1 11.94 3.32zm-14.88 38.05a52.44 52.44 0 0 1-8.25-4.11 39.59 39.59 0 0 0 .84 3.87 27.2 27.2 0 0 0 8.48 5.76c.18-1.61.4-3.24.65-4.88l-.34-.11zm-7.45-21.62a44.19 44.19 0 0 0-1.16 14.58 48.81 48.81 0 0 0 9.44 4.93l1.28.49a115.74 115.74 0 0 1 3.78-15.19c-2.49-.83-4.92-1.67-7.33-2.55-2.03-.73-4.04-1.48-6.01-2.26zm1.45-4.77c-.31.85-.59 1.7-.83 2.56q6.51 2.55 13.42 4.87c.29-.85.58-1.7.89-2.55a123.69 123.69 0 0 1 6.33-14.51 121.45 121.45 0 0 0-12.54-3.42 46.16 46.16 0 0 0-7.27 13.05zm6.4-15.54a42 42 0 0 1 4.53-4.61 27.77 27.77 0 0 0-8.42 3.87c1.3.22 2.6.46 3.89.74zM98.09 82.58c-.55-.37-1.08-.76-1.6-1.16a27.9 27.9 0 0 0 1.84 3c-.1-.62-.19-1.23-.24-1.84zm-4.38-18.97a27.38 27.38 0 0 0 .87 13.24 39.49 39.49 0 0 0 3.27 2.74 46.35 46.35 0 0 1 1.41-13.72c-1.89-.74-3.73-1.49-5.55-2.26zm1.22-4.54c-.27.74-.5 1.49-.7 2.24q2.77 1.19 5.66 2.33c.24-.82.51-1.65.81-2.48a48.35 48.35 0 0 1 6.93-12.79c-1.59-.32-3.18-.58-4.76-.82a27.52 27.52 0 0 0-7.94 11.52z"/><path class="cls-4" d="M111.76 46.93a39.38 39.38 0 0 1 6.73-6 26.77 26.77 0 0 0-4.73.84 42 42 0 0 0-4.53 4.61c.85.17 1.68.35 2.53.55zm-11.18 37.28c-.85-.52-1.69-1.07-2.49-1.63 0 .61.14 1.22.24 1.83a26.82 26.82 0 0 0 3.09 3.67 39.59 39.59 0 0 1-.84-3.87zm-1.32-18.34a46.35 46.35 0 0 0-1.41 13.72 37.4 37.4 0 0 0 2.37 1.69 44.19 44.19 0 0 1 1.16-14.58c-.71-.27-1.38-.54-2.12-.83zm1.44-4.71c-.3.83-.57 1.66-.81 2.48.69.29 1.39.57 2.11.85.24-.86.52-1.71.83-2.56a46.16 46.16 0 0 1 7.27-13c-.82-.19-1.64-.35-2.47-.51a48.35 48.35 0 0 0-6.93 12.74zM125.87 51c1.58-2.94 3.26-5.7 5-8.31a5.55 5.55 0 0 0-.52-.2c-.54-.2-1.09-.37-1.65-.54q-2.61 3.91-5 8.32c.2.06.4.12.61.2zM112.7 89.68c-.72-.22-1.43-.46-2.15-.72-.25 1.64-.47 3.27-.65 4.88.53.23 1.07.45 1.61.64a4.72 4.72 0 0 0 .53.18c.17-1.66.39-3.3.66-4.98zm2.02-18.17a115.74 115.74 0 0 0-3.78 15.19c.71.26 1.42.5 2.13.73a116.83 116.83 0 0 1 3.8-15.2zm1.59-4.7c-.31.85-.6 1.7-.89 2.55.72.25 1.43.48 2.16.71.27-.83.56-1.66.86-2.49A121.15 121.15 0 0 1 124.79 53c-.39-.16-.79-.29-1.2-.43s-.64-.22-1-.31a123.69 123.69 0 0 0-6.28 14.55zm24.03-9.67c.79.39 1.57.8 2.35 1.21a39.25 39.25 0 0 0-1.35-8.52 25.36 25.36 0 0 0-3.45-3.18 36.62 36.62 0 0 1 2.45 10.49zm-2.82 18.64l2.23.55c.13-.3.24-.6.34-.9a43.75 43.75 0 0 0 2.66-14.51c-.74-.41-1.5-.8-2.27-1.19A41.61 41.61 0 0 1 138 74.66c-.17.34-.32.76-.48 1.12zm-8.95 13.85c1.12 0 2.22-.11 3.31-.23a43.46 43.46 0 0 0 7-10.92l-2.24-.54a40.78 40.78 0 0 1-8.07 11.69zm-8.63 6.49a26.31 26.31 0 0 0 4.7-.24 38.24 38.24 0 0 0 4.91-4c-1.13.07-2.27.09-3.42 0a35.22 35.22 0 0 1-6.19 4.24z"/><path class="cls-4" d="M94.58 76.85a26.12 26.12 0 0 0 1.91 4.57c.52.4 1.05.79 1.6 1.16.8.56 1.64 1.11 2.49 1.63a52.44 52.44 0 0 0 8.25 4.11l1.38.53.34.11c.72.26 1.43.5 2.15.72a49.71 49.71 0 0 0 13.43 2.2h3.42a39.39 39.39 0 0 0 7.88-1.16 26.75 26.75 0 0 0 4-3.67 35.64 35.64 0 0 1-9.57 2.4c-1.09.12-2.19.2-3.31.23a47.25 47.25 0 0 1-15.5-2.2c-.71-.23-1.42-.47-2.13-.73l-1.28-.49a48.81 48.81 0 0 1-9.44-4.93 37.4 37.4 0 0 1-2.37-1.69 39.49 39.49 0 0 1-3.25-2.79zm-.35-15.54c-.21.77-.39 1.53-.52 2.3 1.82.77 3.66 1.52 5.55 2.26.7.29 1.41.56 2.12.83 2 .78 4 1.53 6 2.26 2.41.88 4.84 1.72 7.33 2.55l2.15.72 1.74.56c6.13 1.95 12.15 3.67 18 5.15l2.24.54a213 213 0 0 0 7.15 1.63q.5-1.06.9-2.19c-2.36-.48-4.75-1-7.16-1.59l-2.23-.55c-6-1.47-12.07-3.19-18.22-5.15l-1.72-.56c-.73-.23-1.44-.46-2.16-.71Q108.51 67 102 64.49c-.72-.28-1.42-.56-2.11-.85Q97 62.5 94.23 61.31zm8.64-13.76c1.58.24 3.17.5 4.76.82.83.16 1.65.32 2.47.51a121.45 121.45 0 0 1 12.54 3.42c.31.09.63.21 1 .31s.81.27 1.2.43 1 .33 1.49.51a122.16 122.16 0 0 1 14.2 6.18c.77.39 1.53.78 2.27 1.19q2.85 1.55 5.48 3.21a27.28 27.28 0 0 0-.65-3q-2.36-1.42-4.89-2.77c-.78-.41-1.56-.82-2.35-1.21A122.13 122.13 0 0 0 125.87 51l-1.55-.53c-.21-.08-.41-.14-.61-.2a121.5 121.5 0 0 0-11.95-3.34c-.85-.2-1.68-.38-2.53-.54-1.29-.28-2.59-.52-3.89-.74a25.31 25.31 0 0 0-2.47 1.9z"/></svg>