<svg id="Layer_1" data-name="Layer 1" xmlns="http://www.w3.org/2000/svg" viewBox="0 0 200 150"><defs><style>.cls-4{fill:#ef877b}.cls-5{fill:#ffa87b}.cls-9{fill:#ffdecd}</style></defs><path d="M200 150H0v-47.17s28.62-33.14 65.52-34c42.45-.94 72.12 25.88 92.13 28.3 31.14 3.77 42.35-5.34 42.35-5.34z" fill="#666"/><path d="M160.69 104.12a5.18 5.18 0 0 1 0 9.66l-30.78 12c-17.62 6.89-42.06 6.89-59.84 0l-30.78-12a5.18 5.18 0 0 1 0-9.66l30.77-11.9c17.62-6.9 42.22-6.81 59.84 0z" fill="#424242"/><path d="M160.69 99.62a5.18 5.18 0 0 1 0 9.66l-30.78 12c-17.62 6.89-42.06 6.89-59.84 0l-30.78-12a5.18 5.18 0 0 1 0-9.66l30.77-11.9c17.62-6.9 42.22-6.81 59.84 0z" fill="#f9bca5"/><path class="cls-4" d="M129.89 68.72c11.61 1.12 17.57 4.59 24.27 5.55A.87.87 0 0 0 155 74a11.62 11.62 0 0 0 2.41-9.69 12.4 12.4 0 0 0-9.48-9.71 11.52 11.52 0 0 0-12.29 5 9.7 9.7 0 0 0-5.75-2.18 9 9 0 0 0-9.14 6.82 4.86 4.86 0 0 0-2.46-.49 4.05 4.05 0 0 0-2.51 1.12c-1.92 1.77-2.11 3.19-1.86 4.48a.35.35 0 0 0 .42.27 46.47 46.47 0 0 1 15.55-.9zM59.2 97.7a7.47 7.47 0 0 0-.42-2.54 8.62 8.62 0 0 0 .22-2 6.65 6.65 0 0 0-1.11-3.95v-.64c0-2.66-.67-4.81-1.48-4.81S55 86 55 88.62v.64a6.65 6.65 0 0 0-1.11 3.95 8.08 8.08 0 0 0 .23 2 7.47 7.47 0 0 0-.43 2.54c0 2.37 1 4.33 2.29 4.73v5.75h1v-5.75c1.24-.48 2.22-2.41 2.22-4.78zm6.04-6.97A5.24 5.24 0 0 0 65 89a5.52 5.52 0 0 0 .15-1.33 4.55 4.55 0 0 0-.81-2.67v-.43c0-1.81-.45-3.27-1-3.27s-1 1.46-1 3.27V85a4.55 4.55 0 0 0-.76 2.69 5.51 5.51 0 0 0 .17 1.31 5 5 0 0 0-.29 1.74c0 1.61.67 2.94 1.55 3.21v3.92h.67v-3.93c.89-.27 1.56-1.6 1.56-3.21z"/><path class="cls-5" d="M128 69.46c11.61 1.12 17.57 4.59 24.27 5.55a.87.87 0 0 0 .79-.3 11.59 11.59 0 0 0 2.45-9.71 12.36 12.36 0 0 0-9.48-9.7 11.5 11.5 0 0 0-12.29 5 9.7 9.7 0 0 0-5.74-2.19 9.05 9.05 0 0 0-9.14 6.82 4.86 4.86 0 0 0-2.46-.49 4.19 4.19 0 0 0-2.51 1.12C112 67.33 111.77 68.75 112 70a.34.34 0 0 0 .42.27 46.41 46.41 0 0 1 15.58-.81z"/><path class="cls-4" d="M98.77 79.74a4.59 4.59 0 0 0-.25-1.53 5.37 5.37 0 0 0 .13-1.21 4 4 0 0 0-.65-2.33v-.38c0-1.59-.39-2.88-.88-2.88s-.89 1.29-.89 2.88v.38a4 4 0 0 0-.67 2.33 4.81 4.81 0 0 0 .14 1.17 4.58 4.58 0 0 0-.26 1.53c0 1.41.59 2.59 1.37 2.83V86h.59v-3.43c.78-.24 1.37-1.42 1.37-2.83z"/><path d="M160.69 99.62l-5.89-2.28-25.28 9.53-50.24-16.22 33.27-7.23c-14.39-1.92-30.14-.53-42.47 4.3l-30.77 11.9a5.18 5.18 0 0 0 0 9.66l30.78 12c17.78 6.89 42.22 6.89 59.84 0l30.78-12a5.18 5.18 0 0 0-.02-9.66z" fill="none"/><path d="M129.52 106.87l25.28-9.53-24.88-9.62a76.56 76.56 0 0 0-17.37-4.3l-33.27 7.23z" opacity=".38" fill="#ffa87b"/><path class="cls-4" d="M104.8 83.87a4.3 4.3 0 0 0-.24-1.44 4.82 4.82 0 0 0 .12-1.1 3.78 3.78 0 0 0-.62-2.24v-.36c0-1.5-.37-2.72-.83-2.72s-.84 1.22-.84 2.72v.36a3.77 3.77 0 0 0-.63 2.24 4.82 4.82 0 0 0 .12 1.1 4.3 4.3 0 0 0-.24 1.44c0 1.34.56 2.45 1.3 2.68v3.26h.56v-3.26c.74-.23 1.3-1.34 1.3-2.68z"/><path class="cls-4" d="M83.49 90c-.27 0-4.22.62-4.22.62V96l40.63 5.24 4.57 1.55 7-5-5.84-4.23-9.81-3-14.17-1z"/><path fill="#ffbb9b" d="M98.84 92.22l-.58-.33v3.42h1.49l.06-2.25-.97-.84z"/><path class="cls-5" d="M90.58 93.22l1.94.18-.08 2.34-8.61.1s-3.73 1-4 1.11-1.36 6.45-1.36 6.45l-5.67-3.78-2.67-4s4.23-1.51 5.59-1.86 14.86-.54 14.86-.54zm10.58-.65l-1.83.71v2.16l9.13 1.36 1.16 2.17 11.13-.25-7.6-4.59-9.47-1.51-2.52-.05z"/><path class="cls-4" d="M93.43 96.15S95.58 99 95.75 99h13.87v-1.94s-3.49-.75-4-.91-7.76-.78-7.86-.78-4.33.78-4.33.78z"/><path class="cls-5" d="M82.28 96.55l7.53-.47 5.71 2.48 8.93.74 17.87-1.3v4.1l-22 .67s-12.62-.87-13.23-.94-4.81-5.28-4.81-5.28z"/><path class="cls-4" d="M78.32 102.47l-.06.08v.52l9.8 4.71 11.79 1.39c4.89 0 12.89-.24 19.54-.42l5.66-.21a5.63 5.63 0 0 0 1.73-.37l4.38-1.79c1.77-.72 2.65-1.58 2.47-2.4V98.3l-4.16 1.7c-.16-.12-.32-.21-.48-.32a17.19 17.19 0 0 0-2.64 1.31 2 2 0 0 1-.75.18l.34.26-.16.07-5.42.64-.56-.45-5 .31.71.56-6.3.11a4.08 4.08 0 0 0-.87-.51l-14.83.19s-8.11-1.06-8.61-1.36a39.28 39.28 0 0 1-2.9-2.85l-1.51-.68-2.24-.38v5.38zm21.44-.15a13.88 13.88 0 0 1 3.28.3l-4.94-.26z"/><path class="cls-5" d="M66.94 102.76a1 1 0 0 0 .14.63 20.88 20.88 0 0 0 5.92 4.78 35.4 35.4 0 0 0 9.11 2.77 87 87 0 0 0 12.77 1.28c4.74.16 15.37-.11 18.38-.3a28.4 28.4 0 0 0 8.27-1.59v-6s-20.63 2-21.69 1.91-6.7-.3-6.85-.35-2.93-.61-6.07-1.25l-1.79-.16-.34-.28c-3.16-.66-6-1.27-6.06-1.34S72 99.59 72 99.59l.09-.35-5.15-2.44"/><path class="cls-9" d="M109.45 104.7h.15c-4.09.14-10.8.26-14 .16a73.65 73.65 0 0 1-10.6-1.1 29.85 29.85 0 0 1-7.61-2.31 19.65 19.65 0 0 1-5.32-4.35c-.33-.56.21-1.18 1.48-1.69l1.67-.68a19.46 19.46 0 0 1 6.27-1c4.17-.11 7.89-.21 11-.28L91.34 92c-3.36.07-6.91.17-10.14.26l-5.79.18a3.94 3.94 0 0 0-1.32.28l-4.66 1.9c-2 .82-2.88 1.82-2.35 2.74a21.06 21.06 0 0 0 5.92 4.82 35.83 35.83 0 0 0 9.11 2.76 87 87 0 0 0 12.77 1.28c4.74.16 15.37-.11 18.38-.3a28.4 28.4 0 0 0 8.27-1.59z"/><path class="cls-9" d="M93.12 90.31c4-.1 9.17-.18 11.82-.09a73.8 73.8 0 0 1 10.67 1.07 29.64 29.64 0 0 1 7.6 2.31 19.57 19.57 0 0 1 5.33 4.4c.33.56-.22 1.17-1.48 1.69l-1.67.68a19.58 19.58 0 0 1-6.28 1.05c-11.44.31-19.48.47-21.93.41a37 37 0 0 1-5.87-.6 16.33 16.33 0 0 1-4.24-1.29 21.18 21.18 0 0 1-3.85-3.12h.05a.38.38 0 0 1 .17 0l5.86-.12 2 1.75a8.6 8.6 0 0 0 3.7 1.23 31.21 31.21 0 0 0 6 .43l11.89-.26 4.3-.09a16.45 16.45 0 0 0 2.94-.29c1.76-.36 2.57-1 2.2-1.51a21.51 21.51 0 0 0-4.38-3.53 22.46 22.46 0 0 0-5.76-1.75 53.3 53.3 0 0 0-8.13-.81h-5.79l1.07 1.39h4.07c3.88.09 8 .8 10.13 1.88a21.59 21.59 0 0 1 3.85 3.13.4.4 0 0 1-.17 0l-4.35.09-6.74.14-5.24.12c-2.15 0-4.07-.32-4.73-.88l-1.58-1.38 5.24-.11c2.13 0 4.07.32 4.72.88l5.12-.2-.38-.33c-1.33-1.15-5.28-1.88-9.67-1.79l-11.89.26-4.29.09a16.47 16.47 0 0 0-3 .29c-1.76.36-2.57 1-2.21 1.5a21.55 21.55 0 0 0 4.39 3.54 22.14 22.14 0 0 0 5.75 1.74 53.3 53.3 0 0 0 8.13.81c3.52.08 14.31-.18 22.85-.42l5.66-.21a5.1 5.1 0 0 0 1.73-.37l4.38-1.78c2-.82 2.87-1.82 2.34-2.74a20.66 20.66 0 0 0-5.87-4.79 35.79 35.79 0 0 0-9.12-2.76 86.89 86.89 0 0 0-12.77-1.28c-4.73-.16-15.36.11-18.37.3a29.28 29.28 0 0 0-8.1 1.52z"/><path class="cls-4" d="M113.54 113.84a5.76 5.76 0 0 0-.32-1.92 6.83 6.83 0 0 0 .16-1.47 5.05 5.05 0 0 0-.83-3v-.48c0-2-.5-3.63-1.12-3.63s-1.11 1.62-1.11 3.63v.48a5 5 0 0 0-.84 3 6.24 6.24 0 0 0 .17 1.47 5.76 5.76 0 0 0-.32 1.92c0 1.79.74 3.27 1.72 3.57v4.34h.74v-4.34c1-.3 1.75-1.78 1.75-3.57zm36.35-14.97a5.68 5.68 0 0 0-.31-1.87 6.45 6.45 0 0 0 .16-1.43 4.92 4.92 0 0 0-.81-2.9v-.46c0-1.95-.49-3.53-1.09-3.53s-1.08 1.58-1.08 3.53v.46a4.92 4.92 0 0 0-.81 2.9 6.45 6.45 0 0 0 .16 1.43 5.43 5.43 0 0 0-.31 1.87c0 1.73.72 3.17 1.67 3.46v4.22h.72v-4.22c.98-.33 1.7-1.73 1.7-3.46zM144 91.48a6.72 6.72 0 0 0-.37-2.23 7.56 7.56 0 0 0 .19-1.7 5.78 5.78 0 0 0-1-3.45v-.56c0-2.32-.58-4.2-1.3-4.2s-1.29 1.88-1.29 4.2v.56a5.85 5.85 0 0 0-1 3.45 7 7 0 0 0 .2 1.7 6.48 6.48 0 0 0-.37 2.23c0 2.06.86 3.77 2 4.13v5h.94v-5c1.18-.36 2-2.07 2-4.13z"/></svg>