<svg id="Layer_1" data-name="Layer 1" xmlns="http://www.w3.org/2000/svg" viewBox="0 0 200 150"><defs><style>.cls-10,.cls-4,.cls-7,.cls-8{fill:#37bedb}.cls-6{fill:#45bacd}.cls-7{opacity:.5}.cls-8{opacity:.2}.cls-10{opacity:.34}.cls-11{fill:#0d8a9b}.cls-12{fill:#2ab0c6}</style></defs><path d="M200 150H0V87.74s15.63-28.3 52.53-28.3c36.57 0 83.19 30.42 103.24 28.3C187.51 84.38 200 78.3 200 78.3z" fill="#666"/><path d="M160.69 104.12a5.18 5.18 0 0 1 0 9.66l-30.78 12c-17.62 6.89-42.06 6.89-59.84 0l-30.78-12a5.18 5.18 0 0 1 0-9.66l30.77-11.9c17.62-6.9 42.22-6.81 59.84 0z" fill="#424242"/><path d="M160.69 99.62a5.18 5.18 0 0 1 0 9.66l-30.78 12c-17.62 6.89-42.06 6.89-59.84 0l-30.78-12a5.18 5.18 0 0 1 0-9.66l30.77-11.9c17.62-6.9 42.22-6.81 59.84 0z" fill="#7edfe9"/><path class="cls-4" d="M72.15 101.1a13.48 13.48 0 0 0-5.49 1.72l-5.27 3.66c-1.11.78-1.26 1.65-.41 2.38a34 34 0 0 0 6.78 3.72 38.56 38.56 0 0 0 8.24 1.89 67.21 67.21 0 0 0 10.23.49c3.63-.08 11.49-.77 13.66-1.07a13.48 13.48 0 0 0 5.49-1.72l5.27-3.66c1.11-.78 1.26-1.64.41-2.38a34 34 0 0 0-6.78-3.72 38.42 38.42 0 0 0-8.28-1.89 67.21 67.21 0 0 0-10.19-.52c-3.63.08-11.49.77-13.66 1.07m35.3 5.49c.52.45.42 1-.28 1.47l-1 .73a83.8 83.8 0 0 0-8.34-4.64 23.34 23.34 0 0 0-5.22-1.21 44.76 44.76 0 0 0-6.46-.31c-2.35.05-9.21.67-10.1.78-1.45.18-2.51.62-2.65 1.13-.06.25.14.49.52.7l1.54.88 4.24 2.43a10 10 0 0 0 3.45 1 23.65 23.65 0 0 0 4.71.09l4.94-.42 2.1 1.2h-.1c-.85.1-7.17.65-8.93.7a34.51 34.51 0 0 1-4.76-.23 17.53 17.53 0 0 1-3.79-.87 82.08 82.08 0 0 1-8-4.46c-.86-.52-.89-1.15-.1-1.71l.92-.63a8.27 8.27 0 0 1 3.39-1.08c1.93-.26 9.28-.9 12.39-1a56.92 56.92 0 0 1 8.54.41 32.19 32.19 0 0 1 6.86 1.58 32.31 32.31 0 0 1 6.15 3.38M87 108.45a7.92 7.92 0 0 1-4-.51l-1.87-1.08 3.89-.32a8.13 8.13 0 0 1 4 .51l1.87 1.08zm-22.43 0c-.52-.46-.42-1 .28-1.48l1.05-.73a84.94 84.94 0 0 0 8.34 4.64 22.8 22.8 0 0 0 5.22 1.21 44.62 44.62 0 0 0 6.45.31c2.35 0 9.21-.67 10.11-.78 1.45-.19 2.5-.62 2.64-1.13.06-.25-.15-.49-.52-.71l-1.53-.87-4.25-2.43c-1.57-.9-4.9-1.33-8.16-1.06l-4.94.42-2.09-1.2h.09c.85-.1 7.17-.65 8.93-.7a25 25 0 0 1 8.56 1.1 80.85 80.85 0 0 1 8 4.46c.86.52.9 1.15.1 1.71l-.92.63a8.27 8.27 0 0 1-3.38 1.08c-1.94.26-9.29.9-12.4 1a56.92 56.92 0 0 1-8.54-.41 32.34 32.34 0 0 1-6.86-1.58 32.93 32.93 0 0 1-6.15-3.37"/><path d="M72.15 101.1a13.48 13.48 0 0 0-5.49 1.72l-5.27 3.66c-1.11.78-1.26 1.65-.41 2.38a34 34 0 0 0 6.78 3.72 38.56 38.56 0 0 0 8.24 1.89 67.21 67.21 0 0 0 10.23.49c3.63-.08 11.49-.77 13.66-1.07a13.48 13.48 0 0 0 5.49-1.72l5.27-3.66c1.11-.78 1.26-1.64.41-2.38a34 34 0 0 0-6.78-3.72 38.42 38.42 0 0 0-8.28-1.89 67.21 67.21 0 0 0-10.19-.52c-3.63.08-11.49.77-13.66 1.07m35.3 5.49c.52.45.42 1-.28 1.47l-1 .73a83.8 83.8 0 0 0-8.34-4.64 23.34 23.34 0 0 0-5.22-1.21 44.76 44.76 0 0 0-6.46-.31c-2.35.05-9.21.67-10.1.78-1.45.18-2.51.62-2.65 1.13-.06.25.14.49.52.7l1.54.88 4.24 2.43a10 10 0 0 0 3.45 1 23.65 23.65 0 0 0 4.71.09l4.94-.42 2.1 1.2h-.1c-.85.1-7.17.65-8.93.7a34.51 34.51 0 0 1-4.76-.23 17.53 17.53 0 0 1-3.79-.87 82.08 82.08 0 0 1-8-4.46c-.86-.52-.89-1.15-.1-1.71l.92-.63a8.27 8.27 0 0 1 3.39-1.08c1.93-.26 9.28-.9 12.39-1a56.92 56.92 0 0 1 8.54.41 32.19 32.19 0 0 1 6.86 1.58 32.31 32.31 0 0 1 6.15 3.38M87 108.45a7.92 7.92 0 0 1-4-.51l-1.87-1.08 3.89-.32a8.13 8.13 0 0 1 4 .51l1.87 1.08zm-22.43 0c-.52-.46-.42-1 .28-1.48l1.05-.73a84.94 84.94 0 0 0 8.34 4.64 22.8 22.8 0 0 0 5.22 1.21 44.62 44.62 0 0 0 6.45.31c2.35 0 9.21-.67 10.11-.78 1.45-.19 2.5-.62 2.64-1.13.06-.25-.15-.49-.52-.71l-1.53-.87-4.25-2.43c-1.57-.9-4.9-1.33-8.16-1.06l-4.94.42-2.09-1.2h.09c.85-.1 7.17-.65 8.93-.7a25 25 0 0 1 8.56 1.1 80.85 80.85 0 0 1 8 4.46c.86.52.9 1.15.1 1.71l-.92.63a8.27 8.27 0 0 1-3.38 1.08c-1.94.26-9.29.9-12.4 1a56.92 56.92 0 0 1-8.54-.41 32.34 32.34 0 0 1-6.86-1.58 32.93 32.93 0 0 1-6.15-3.37" fill="none"/><path class="cls-6" d="M65.48 109.33l.28.17zm-.22-.2zm20.54 3.76h-.28a1.14 1.14 0 0 0 .28 0zm7.75-5.31s-.02-.02 0 0zm-24.71 3.6l-.13-.07s.09.06.13.07zm11.94 1.49zm-.45 1.41zm10-8.93h-.13z"/><path class="cls-6" d="M90.24 105.26c1 .18-.2-.12 0-.13-.27 0-.84-.14-.57-.07a18.51 18.51 0 0 0-2.16-.25h-.09a4.12 4.12 0 0 1-.78-.08h-1c-.39 0 .42.07-.13.11-.36.06-.86 0-1.29.1s.51-.07.73-.1l-1.46.14c-.42 0 .19-.07.62-.1a7.5 7.5 0 0 0-1.49.17h-.89a5.71 5.71 0 0 1 .84-.18c.87-.07-.32.08.43 0v.13c.32 0 .57-.06.91-.09h-.17c.62-.06 1.13-.06 1.6-.13-.86 0-2.11.16-2.48.13l-1.65.21s.58 0 .12.07a7.91 7.91 0 0 0-1.33 0c.12 0-.13 0-.38.08s-.3 0-.27.07a1.71 1.71 0 0 1 .45 0c-.62 0-.08.06-.42.09h-.08c-.49-.3.1 0-.57-.4h.06l.18.08c.11 0 .38.18.36.16a2.31 2.31 0 0 1 .42-.07.77.77 0 0 0-.2 0h-.23l-.12-.08c.3.21-.25-.08 0 .08a5.62 5.62 0 0 0-.71-.34 1.25 1.25 0 0 1-.28-.15 1.78 1.78 0 0 1 .28 0s-.13 0-.08.11a.63.63 0 0 0 .33.09c-.06 0-.29-.09-.16-.09a.47.47 0 0 0 .2 0h.65-.32c.27 0 .78-.06 1.1-.08h-.08.37c.34-.06 1.23-.1 1.89-.17a8 8 0 0 0-1 .07h-.4l2.32-.23h-.29c.29-.06.69-.07 1.14-.11.81 0-.59.11-.1.09-.32.06-.87.06-.95.12h.51c.42-.06.89 0 1.19-.08h-.32a1.48 1.48 0 0 1 .5 0h-.21c-.47 0-.78.1-1.12.09.82-.08.63-.12 1.62-.2h-.29c.34 0 .7-.1 1.25-.11-.32 0-.83.11-.42.11l.29-.08h1.86c-.55 0-.57-.09 0-.08a13.43 13.43 0 0 1 1.9.15h.36c-.23 0 .5.07.75.11.08.06-1.19-.14-1.2 0 .52.06.29.07.12.07h.47s1 .12.62.12c.48.07.57 0 .92.1 0 0-.12 0-.09.06a4.72 4.72 0 0 1 .57.11c-.07 0 .18 0-.24-.07.12 0 1 .19 1 .16s.87.22 1.26.4c0-.13-.77-.21-.89-.33a7.25 7.25 0 0 1 1.24.39c.49.2 1 .48 1.45.67.72.41 0 0 .11.16-.68-.34-.84-.46-1.43-.71l2.16 1.08c.69.38.71.52 1.56 1a1.28 1.28 0 0 0-.33-.25c.23.12.48.28.72.42s-.35-.24 0-.07c.12.08.4.25.33.24h-.06c.81.43.53.41 1.24.75a2.83 2.83 0 0 0-.36-.22c-.11-.1.33.11.64.29-.06 0 .28.16.49.3s-.55-.32-.68-.36l.6.37-.12-.08.68.36c-.47-.27-.2-.18 0-.06.44.28.9.56.82.57.07 0 .62.36.54.65 0-.32.06 0 0 .06a1 1 0 0 1-.42.46c.51-.47-.12.08 0-.06s.41-.43.31-.63c0 .37-.32.65-.91 1 0 0 0-.08.29-.26-.11 0-.54.44-.92.65.1 0 .35-.15 0 .1a3.9 3.9 0 0 1-.57.21c-.68.24-.21.15-.77.35l.38-.08c0 .07-.78.22-.79.27.37-.09.56-.18.94-.29.16 0-.47.18-.68.26a7.79 7.79 0 0 1-1.25.19c0-.06 1-.27.82-.35a14.83 14.83 0 0 1-2.45.35c-.71.1-.64.15-.53.19h-.64l.34-.06c-.89.11-1.4.19-2.33.26-.53.06-.31.09-.18.12h-.58.09a5.53 5.53 0 0 1-1 .12s.23 0 .21-.06c-.34 0-.85.06-1.12.1a1.39 1.39 0 0 1 .63-.1H92l.68-.08a3.12 3.12 0 0 1-1.24 0c-.78.08.64 0-.29.09-1.24 0-2.34.19-3 .09-.57.06-1.24.15-2.13.17 0 0-.6 0-.51.08.85.05 1.59-.13 2.27-.08.38 0 .25-.07.42-.1a3.65 3.65 0 0 1 .71 0 10 10 0 0 1-1.21.17 10.48 10.48 0 0 0 1.3 0h.24c-.25 0-.82.11-1.12.16.1 0-.09 0 0 0l-1.05.12c-.32 0-.41 0-.23-.07a9.82 9.82 0 0 1-1.56 0c-.75 0 .23 0 .3.06h-.07.79c.09.07-.89 0-1 .07s-1.11 0-1.67 0l.64-.08h-.57a8.14 8.14 0 0 1 .81-.13l-2.34-.07c-.19 0-.28-.07-.19-.1a12.76 12.76 0 0 1-1.84-.14c-.7 0 .69.1.18.11a7.19 7.19 0 0 0-.78-.06c.21 0 .95.09 1.46.14a1 1 0 0 0-.45 0l.64.06c0 .05-.79 0-1.09 0 .19 0 .09 0 .28-.09a16.72 16.72 0 0 1-1.84-.17c-.27-.06.23 0 .38 0a6.37 6.37 0 0 1-.65-.09 4.52 4.52 0 0 1 .53 0c-.53-.07-1.07-.13-1.6-.21a4.73 4.73 0 0 1 .65.06 9.61 9.61 0 0 0-1.41-.14c-.54-.1-1.16-.25-1-.25h-.09c-.73-.15-.82-.1-1.26-.19l.32.11c-.69-.2-.18 0-.79-.14.11 0 .08-.08 0-.14a4.85 4.85 0 0 1-.76-.19c.15.08-.58-.12-.16 0-.63-.14-.89-.29-1.35-.38.27.11-.54-.14-.31 0-.58-.2-1-.42-.78-.4s.51.23.5.19c-.35-.13-.7-.27-1-.43a2.59 2.59 0 0 1-.58-.36c-.34-.11-.93-.52-1.2-.59a4.5 4.5 0 0 1 .73.4l-.16-.07h.08l-.47-.15c.4.24.09 0 .68.29s-1.21-.49-.7-.17a3.4 3.4 0 0 0 .76.3h-.1l.84.37-.23-.06a16.44 16.44 0 0 0 2.28 1c-.08 0-.28-.18.23 0a6.51 6.51 0 0 1 .71.24 3.49 3.49 0 0 1-.6-.15v.06a8 8 0 0 1-1.6-.41 6.49 6.49 0 0 1-1.49-.62l.27.18c-.65-.24-.09-.11-.9-.45-.29-.23-.84-.63-.38-.45-.53-.31-.74-.38-1.22-.65-.26-.23.18 0 .15-.06-.35-.2-.8-.44-.56-.25l-.65-.43a2.44 2.44 0 0 1 .32.19c-.25-.17-.75-.45-.9-.53a3.23 3.23 0 0 1 .28.18c-.28-.15-.76-.47-.8-.49a6.43 6.43 0 0 0 .83.58.86.86 0 0 1-.35-.18c.32.26.67.47.8.59a3.33 3.33 0 0 0-.55-.32 9.14 9.14 0 0 0 1 .58c0 .08 1 .59.66.45a5.71 5.71 0 0 1 .66.35 8.1 8.1 0 0 1-.81-.35c-1.06-.58 0 0-.19-.2l-.79-.46c.07.06-.34-.15.18.16a5.9 5.9 0 0 1-1.16-.69c-.1 0 .19.15.28.21-.1 0-.63-.31 0 .12-.18-.12.33.18 0-.06.25.17.94.62.64.48l1.2.64c.06.07-.23-.11-.37-.17l.93.5-.25-.18a14.3 14.3 0 0 0 1.72.81 4.93 4.93 0 0 1-.94-.39c.31.24.24.1.81.39.08.05.09.07 0 .07l.49.18c.14.07.05.05 0 0 .84.31 0-.06 1.12.37-.66-.29-.58-.19-1.13-.45-.3-.18.65.23.83.27a6 6 0 0 0 1.28.52 3.72 3.72 0 0 1-.73-.19c-.4-.12.19.09.27.15s-.11-.1.4.09l.86.2c.78.26 1.8.4 2.34.58l-.12-.09c.51.11 1.23.24 1.59.28a4 4 0 0 1-.79-.09 16.44 16.44 0 0 0 2.34.3l-.93-.2c.6 0 .69.16 1.46.21 0 .06-.23 0 0 .1s.86.06 1.22.06c.19.07-.16.09-1 0-.59-.11-1.26-.12-1.74-.24l.29.08-1.46-.21h-.24.27a9.29 9.29 0 0 1-1-.09 5.3 5.3 0 0 0 1.34.1 13 13 0 0 0 1.57.29s.46.12.12.1a7.06 7.06 0 0 0-.77-.09c.44.06.27.06.95.14a10.45 10.45 0 0 1 1.15 0c.52 0 1.18.08 1.59.12h-.91c.3 0 1 .12.86 0a15.17 15.17 0 0 1 1.67.15c-.57 0-1.12-.07-1.6-.09h.18l-.71-.06a9.15 9.15 0 0 0 1.12.12h-.07.56c.52 0 1.51.11 2.45.08h-.08c.75 0 .81-.09 1.63-.11-.24 0-.13 0-.08.07h1c-.48 0 .32-.07 0-.07a6.17 6.17 0 0 1 1.25-.11c.26.06-1.33.1-.68.15.43 0 .53-.06.23-.06.54 0 1.35-.06 1.74 0a12.89 12.89 0 0 0 1.29-.18 5.22 5.22 0 0 1-.78.08H90c.62 0 1.11 0 1.54-.07l-.45.06c-.17 0-.75.06-.68.1.4-.08.72 0 1.25-.13.94-.11 1.63 0 2.22-.2h-.42a5.67 5.67 0 0 1 .78 0h-.19c.53 0 .85-.06 1-.09s0-.06.37-.12c.94-.06-.37.12.27.09l.87-.12h.2a17.82 17.82 0 0 0 3.71-.69 5 5 0 0 1-1.32.4 10.51 10.51 0 0 0 1.65-.4c.54-.18.92-.44.82-.42.64-.38.48-.26.56-.29a4 4 0 0 1 .52-.41 3.65 3.65 0 0 0 .8-.67 1.18 1.18 0 0 0 .12-1.28c.13.32 0 0 0 0a1.13 1.13 0 0 0-.16-.26 1.2 1.2 0 0 1 .21.93 1.5 1.5 0 0 1-.49.76 6.83 6.83 0 0 1-1.14.78c.2-.15-.09 0 .11-.13s.21-.14.24-.14.36-.31 0 0c0 0 .17-.18.41-.36a1.61 1.61 0 0 0 .71-.87c.06-.32.1-.14 0 .15a1.66 1.66 0 0 1-.48.64 1.65 1.65 0 0 0 .56-.77.62.62 0 0 1 0 .13.9.9 0 0 0 0-.59v-.08.06a2.12 2.12 0 0 0-.78-.86c.08 0 .16.09.24.15-.58-.41-.72-.41-1.23-.73l-.22-.18c.62.43.82.41 1.18.66-.46-.31-.39-.3-.18-.2a3.59 3.59 0 0 1 .8.46c-.48-.4-.82-.54-1-.72-.63-.29-1.22-.76-1.83-1-.31-.2.29.13 0-.07-.6-.36-1.26-.73-1.92-1.08-.34-.19-.27-.18-.35-.25-.81-.47-1.39-.76-2-1a14.69 14.69 0 0 0-2.27-.91l.3.06a4.46 4.46 0 0 0-1-.25 24.55 24.55 0 0 0-2.51-.47 11.16 11.16 0 0 0-1.66-.07s.22 0-.15-.08a47.36 47.36 0 0 0-6.95.33h.21c-.83.06-1.64.15-2.42.23l-1.26.12-.91.07a1 1 0 0 0-.35.07 1.26 1.26 0 0 0-.26.09c0 .07-.23.11-.2.27s.15.18.12.12-.08-.11-.06-.16.06 0 .07 0 0 .09 0 .12l.09.09.14.13.14.16c.06.07.1.12.64.42.29.25-.76-.37-.88-.37l1.59.85.47.28.87-.08h.71c-.26 0-.08.06-.51.07h.08l-.67.06a4.5 4.5 0 0 1-.49.07l-.44-.23.44.24 1.23-.12 1-.09c-.15 0 .55-.06.74-.11a4.79 4.79 0 0 1 .55-.09h.17c.3 0-.08 0 .21-.06a12 12 0 0 1 2-.1 11.37 11.37 0 0 1 1.18-.06.74.74 0 0 1-.19 0 18 18 0 0 1 3.49.32 11.87 11.87 0 0 1 2 .49c-.2-.09-.82-.3-.42-.21a4.29 4.29 0 0 1 .85.33c-.1 0 .78.47.14.13.12.15 1.36.76 1.32.82.15.07 1 .59 1.39.75.06.07-.49-.26-.5-.24l.41.22a15.77 15.77 0 0 0 1.43.72l.19.1v-.53l-.41.3.43.23.13.07-.14-.06L96 109l.42-.38v.55l-.26-.1.25.13v-.61l-.46.36.49.25c.36.19.64.31 1.1.56v.05l.34.17h-.05a1.11 1.11 0 0 1 .48.31c.09.16 0 .29-.11.38a7.19 7.19 0 0 1-.66.31v-.08c.36-.15.41-.19.48-.22a.41.41 0 0 0 .24-.25c-.06.08-.08.11-.31.25a4.43 4.43 0 0 1-.82.31 10 10 0 0 1-2 .3c-1 .12-2.63.18-3 .31h.1l-1.68.1c-1.42.12-2.88.21-4 .35h-.3c-1.11.22-3.81.06-4.55.13s.3-.18.3-.18a13.18 13.18 0 0 1-1.69-.12h.36c-.29 0-.49 0-.86-.09a3.87 3.87 0 0 1-1.19-.07h.15c.07 0-.35 0-.58-.06h.09a17.35 17.35 0 0 1-4.48-1.17 45.62 45.62 0 0 1-4.2-2.27l.51.26c-.4-.2-1.08-.61-1.29-.75h.06c-.69-.47-.84-.42-1.36-.81l.12.06c-.34-.2-.61-.37-.87-.54l-.92-.58-.61.44a5.49 5.49 0 0 0-1.07.74 1.08 1.08 0 0 0-.24.62.9.9 0 0 0 0 .25.76.76 0 0 1 0-.3v.26a1.11 1.11 0 0 0 .39.6 1 1 0 0 1-.11-.27.87.87 0 0 1 0-.76c.35-.57.48-.39 1.07-.84a2.9 2.9 0 0 1 .52-.38 5.1 5.1 0 0 0 .85.52c-.34-.14.68.44.14.19.21.18 1.27.7 1.7 1a.71.71 0 0 1-.18-.07 10 10 0 0 1 .9.57v-.06c.2.1.23.16.41.25-.13-.08-.4-.26-.24-.2l.67.35a1.59 1.59 0 0 1-.3-.13 5.84 5.84 0 0 1 .54.34c-.19-.09-.43-.22-.61-.29.67.4 0 0 .35.27-.06-.1.61.32 1 .51 0 0-.26-.14-.36-.17a14.17 14.17 0 0 0 2 1.08l-.2-.08c.45.21.74.42 1.05.52s0 .11.75.38c-.19-.13.82.3.86.23l.54.2c.49.08-.1-.14.84.07s-.1.1.4.24h.22l.42.11h-.07a5.57 5.57 0 0 1 .72.14h-.36a14.76 14.76 0 0 0 2.13.29 4.58 4.58 0 0 1 .71.12c.23 0 1.14.11 1.48.09a1.56 1.56 0 0 0 .54.06c-.34 0-.13 0 .11-.06s1.16 0 1.29.1c.48 0 .3-.07.41-.11.3 0 1.27 0 1.1.09s-.84 0-.73 0a3.77 3.77 0 0 0 .62 0h.2l.92-.06c-.54 0 .34-.07 0-.07l-.51.09c-.63.05-.14 0-.37 0 1.09-.09.87-.15 1.89-.25h.65c-.35 0-.28.08-.08.08a9.92 9.92 0 0 1 1.5-.07c-.41 0-.2 0 0-.07 1-.11.38 0 .81 0 1.52-.12 2.49-.12 3.7-.26h-.51l-.19.07c-.45 0 .07-.12.33-.18h.51l.73-.08h-.24.52c.38 0 .87-.08.78-.11.64-.1-.06.09-.33.12h.29c.23 0 .47-.07.7-.12-.15 0-.14.06-.29.1.47-.06.78-.19 1.2-.28l.16-.11a2.69 2.69 0 0 0 .76-.37 1.37 1.37 0 0 0 .51-.58.92.92 0 0 0 0-.79 1.51 1.51 0 0 0-.35-.42 2.65 2.65 0 0 0-.39-.26l.17.14c-.83-.42-.54-.37-1.58-.94h-.08v.91l.7-.52-.74-.39c-.54-.29-.88-.46-.83-.38a2.25 2.25 0 0 1-.54-.35 9.54 9.54 0 0 1-1.25-.65l.78.4c-.05-.09-.88-.52-1.3-.78a17.54 17.54 0 0 0-1.94-.88c.26.16.13.15-.42 0a6.09 6.09 0 0 0-1.1-.35c.2 0-.85-.26 0-.1.23.06.33.13.65.2a8.22 8.22 0 0 0-1.22-.37 4.07 4.07 0 0 1 .61.08c-.18.04-.09.07-.07.09z"/><path class="cls-6" d="M68.84 111.18h.08-.09s.03.01.01 0zm11.59-6.46h.12zm11.48-.1s-.03-.01 0 0zm-23.57 5.89l.19.09zm18.87-1.83zm-3.75-1.11zm-2.65-1.08zm7 2.12s-.01.01 0 0zm-3.71-.79zm5.98.82s0-.01 0 0zM83 107.27zm-.18-.12s.1.07.14.11.13 0 .11 0-.07-.08 0-.12.13 0 .19 0-.07 0-.1.06h.22c.07 0 0 .06-.09.06a.24.24 0 0 0 .22-.06h.15c-.06 0-.05.11-.13.13s0-.07-.07-.07h-.14c-.06 0 0 0 0 0h-.25.39l.25-.08s-.09 0 0-.09.11.07.21.07.16-.06.1-.1-.07 0-.08 0 0-.06.06-.06h.18a.85.85 0 0 1-.22.13h.14c.04 0 0-.06 0-.07a3.71 3.71 0 0 1 .46-.13c0 .09-.28.09-.22.18s.08-.06.14-.06h.31a.32.32 0 0 1 .17 0 1.85 1.85 0 0 1 .29 0h-.22c.04 0 .21-.07.35-.07h.17c.07 0-.09.06 0 .08s-.13 0-.14.06l.08.06h.25v-.07c-.07 0-.12.05-.17 0 .12 0 .09-.09.25-.09h.19c.08 0-.12.05-.06.08v-.05h.08c.08 0 0 0 0 0h.15c-.09 0-.09-.08 0-.08h.46c.04 0-.18 0-.19.08s.05 0 0 0 0 0 .07-.09.15 0 .1.06.09 0 .14 0a.08.08 0 0 0 0 .07h.08c.01 0 0 0 0 0h.15s.13 0 .2.05c0-.12-.13 0-.14-.07s.3 0 .45 0 0 0 0 .09-.14 0-.24 0a1 1 0 0 0 .37 0c.11 0 .11.13.25.13s0 0 0-.07.08 0 .12 0-.05 0 0 0h.05c.14 0 .07.1.2.06s0 0-.06 0h.28c-.08 0 0-.06 0 0s.14.06.12.1.11 0 .18 0l.08.08c-.11 0 0 0 0 .07s-.1 0-.15-.05c.07.12.17 0 .23.1s0 0-.06 0 .11 0 .12.05 0-.07 0-.06a.2.2 0 0 1 0 .07h.27c.05 0 0 .06.07.11s-.2 0-.29.06c.06 0 .18.06.16.08a.7.7 0 0 0 .25 0h-.08a1 1 0 0 1 .3.11.57.57 0 0 0 .22 0h.09a.3.3 0 0 1 .19.08h-.12s.06 0 .15.08c-.06 0-.21 0-.21-.06h-.13c.14.06 0 .07-.09 0h.22c-.14 0 .19.11 0 .1h-.17c.06 0 .14.07.06.08.11 0 0 0 .12.05s0-.07.25 0a1.42 1.42 0 0 0-.21-.06h.17c.08 0 .19 0 .11.06a.65.65 0 0 0 .19 0 .36.36 0 0 0 .16 0l.31.1h-.13v.06a.7.7 0 0 1-.27-.06c-.13 0-.15.06-.3 0s.13 0 .18 0h.12c.21 0-.2 0 0 0h-.35l-.08-.09s-.15-.09-.17-.13a2.46 2.46 0 0 0-.31 0 .48.48 0 0 1-.16-.08c0 .06-.15 0-.2 0s.11 0 .12.09a.09.09 0 0 0-.09 0h.2c.08 0 0 0 0 .06h.1c.06.06-.11 0-.12 0s0 0-.07-.1a.33.33 0 0 1-.22 0h-.08c-.08 0 0 0 0 0H89s-.06 0-.15.07-.19 0-.17-.07 0 0 0 .06-.12.07-.19.08h.06c-.12 0 0 .07-.13 0a.15.15 0 0 0 0-.13h-.13c-.05 0-.09 0 0 .08h-.22c-.07 0-.08.05 0 .08s-.17 0-.14-.08.09 0 .08 0h-.18s-.1 0-.11-.07-.17 0-.21 0h.14l-.07.09c.08 0 0-.06.12-.06s-.2.13-.1.17.06-.06.12-.09h.53a.05.05 0 0 1 0-.1h.12c.05 0 0 .06-.09 0v.06c-.14.08-.06.12-.25.16 0 0-.14.07-.24.07h.05c-.1.08 0 0-.15 0s-.18-.15-.11-.22h-.21c-.09 0 0-.06 0-.12s-.14 0-.09.07h-.13.06a.23.23 0 0 0-.16.06s-.13 0-.14.07.09 0 .16 0h-.06c-.06 0 .13 0 .16.06s-.08 0-.1 0a.34.34 0 0 0 .18 0c0 .06.18 0 .13 0h.11c.04 0-.09.06-.13.1s0-.06 0-.07h-.15s-.05.06 0 0a.18.18 0 0 1-.2.06h.06c.06 0-.1.1 0 .11v-.06c0-.06.17 0 .12 0l.21-.07h-.06.16c.12 0 .19-.08.29-.11s-.09.07-.15.1 0 0 .13 0h.07c.14-.07 0-.08.17-.12-.11 0-.09.05-.18.05s.1-.08.13-.1.1.08.21 0c-.07 0 0 0-.11.06s0 0 .05 0h.06l.13-.07c.13 0 .28-.09.37 0a1.5 1.5 0 0 0 .24 0s-.06 0-.12.06a1 1 0 0 0 .39-.11l-.18-.05c.08-.08.13 0 .27 0s0 0 0 .1.17 0 .21-.08 0 .1-.13.12-.31.06-.37 0a1.32 1.32 0 0 0-.23 0v.06a.37.37 0 0 1-.14.09c.13 0 .14-.11.2-.16s.15.09.29 0 .14 0 .05.07-.19 0-.19 0h.26s.14-.11.23-.16a1.64 1.64 0 0 1 .38 0c-.11 0-.21.07-.14.1s.3 0 .19 0a1.31 1.31 0 0 1 .53 0h-.44.08-.2a1.43 1.43 0 0 0 .36 0h.25c.11 0 .53 0 .75-.06.25 0 0-.1.22-.13 0 0 .09 0 .16.06a1.71 1.71 0 0 1 .4 0c-.23 0-.06 0-.21-.06s.06-.06.2-.07c.3 0-.26.07.14.11h-.07.44c-.32-.12-.29-.14-.59-.23.08 0 .24.08.26.12l-.27-.09c-.14-.08-.13-.12-.21-.18l.17.07a1.82 1.82 0 0 0 .3.11 3.71 3.71 0 0 1-.4-.19c-.32-.14-.2-.21-.57-.31 0 0 0 .06 0 0s-.14-.1-.07-.1h.06a1.09 1.09 0 0 0-.24-.14.79.79 0 0 1-.24 0c-.17-.12.24 0 .15 0l-.28-.12c-.27-.19-.65-.29-.95-.46 0 0 .3.09.39.13s-.27-.13-.38-.23-.26-.1-.26-.07c-.16-.07-.09-.09-.1-.11s-.2-.06-.3-.09h-.16c.1.14.32.07.43.25h-.06c-.06 0 0 0 0 0s-.1 0 0 0h-.24c-.14 0-.05 0-.1.07s-.12-.05-.16-.06c-.09-.06-.13 0-.23 0v-.06c.1.09.17 0 .23 0-.16-.11.07-.1.15-.12a.42.42 0 0 1-.19-.09c-.13 0-.23-.1-.36 0s.07 0 0 0a1.08 1.08 0 0 0-.36-.05c-.07 0 0 0-.06-.06-.3-.08-.44 0-.76 0h.05-.17c-.04 0-.29 0-.4-.07s-.15.06-.27.07 0-.06 0-.07c-.38 0-.71 0-1.12.08-.27 0-.5.12-.72.11 0 0-.15 0-.11.08s.06 0 .06.07c-.19.06-.1-.06-.23 0s.08-.06.07-.12l-.18.06h-.29c-.09 0 0-.06.07 0 .16 0 .08 0 .22-.07a1.35 1.35 0 0 1-.39 0s-.08 0-.11.07-.06 0-.08 0v-.06c-.05 0 0 0 0 0s-.3.05-.32 0-.1 0-.19 0c-.27 0-.64.06-1 .05a1.79 1.79 0 0 0-.48.11h.19-.32c-.18-.05-.36 0-.51 0s-.3 0-.29.07.08 0 0 0h-.16c-.29 0-.08.07-.17.09h-.22l.29.12.13.05c.23.07.33.15.51.2 0 0-.11 0 .08.08h-.19c-.19-.1.07 0-.18-.13s.33.27.6.42.52.33.75.35h-.08l.31.22a5.59 5.59 0 0 0 .82.41v.06c.23 0 .64.18.79.07.09.06 0 0-.06.07s.22 0 .28 0H84h.14c.05 0 .11-.07.21-.06s.06 0 .1 0c.48 0 1 0 1.5.1h-.09a.57.57 0 0 1 .23 0c.14.07.15-.06.25 0 .16 0 .26.06.41 0s.11 0 .2.07a.17.17 0 0 0 .11-.06h.12c.05 0 0-.15-.17-.2s-.11-.09-.22-.07-.17 0-.27 0c.05-.05-.13 0 0-.09s-.22 0-.3 0h-.16v.06h-.07c-.07 0 .07 0 0 0a.45.45 0 0 1-.11 0h.06c.03 0 0 0-.07-.06s-.11 0-.17 0h-.45c-.05 0 0-.07-.12-.08s-.12 0-.13 0h-.08c-.08 0 0 .12-.14.11s0-.12 0-.17h-.16.06c-.07 0-.23-.14-.31 0s-.11 0-.09-.07-.16-.06-.21 0 0 0-.06 0 0 0 0 .06-.15-.05-.15-.11-.06 0-.09.08-.15-.09-.1-.14.09.07.1 0 0 0-.09 0 0 0 0-.06h-.1v.06h.07c.08 0 0 0 0 .07h-.26v-.12c0-.06 0 0-.06 0s0-.07-.09-.08h-.07.09a1.14 1.14 0 0 1-.28 0h-.09.08a.38.38 0 0 0-.15 0h.34H83s-.12 0 0 0h-.12.07-.04l-.25-.07h.1c-.07 0-.18-.06-.09 0h.19a.62.62 0 0 1-.19-.12c-.08 0-.19-.09-.2-.13s.11 0 .17 0 .14.07.11.08-.1 0-.09 0l.17.08zm4.99 1.46zM85 107zm1.7-.06zm.96 1.31zm18.88-2.59l-.28-.17zm.23.2zm-20.55-3.76h.28a1.14 1.14 0 0 0-.28 0zm-7.75 5.31s.02.02 0 0zm24.71-3.6l.13.07s-.09-.06-.13-.07zm-11.94-1.49zm.45-1.41zm-10 8.93h.13z"/><path class="cls-6" d="M81.78 109.73c-1-.19.2.12 0 .13.27 0 .84.14.58.07a18.09 18.09 0 0 0 2.15.25s-.31-.05.09-.05a6 6 0 0 1 .78.07h1c.39 0-.42-.06.13-.11.36-.06.86 0 1.29-.09s-.51.07-.73.09c.49 0 1-.09 1.46-.14s-.19.07-.61.1a8.59 8.59 0 0 0 1.48-.16c.36 0 .55 0 .89-.06a5.51 5.51 0 0 1-.83.18c-.88.07.31-.08-.44 0L89 110c-.32 0-.57.06-.91.09h.17c-.61.06-1.13.07-1.6.13.86 0 2.11-.16 2.48-.13l1.65-.21s-.58 0-.12-.07a7.91 7.91 0 0 0 1.33 0c-.12 0 .13 0 .38-.08s.3 0 .27-.07a1.34 1.34 0 0 1-.45 0c.62 0 .08-.06.42-.09h.08c.49.29-.1 0 .57.39l-.27-.16c-.12 0-.39-.18-.37-.16a2.13 2.13 0 0 1-.42.07.77.77 0 0 0 .2 0h.23l.12.08c-.3-.2.25.08 0-.08l.28.15.13.06.2.09.34.15c0 .06-.17 0-.28.07s.13 0 .08-.11a.59.59 0 0 0-.32-.08c.05 0 .28.08.15.08a.47.47 0 0 0-.2 0h-.65.32c-.27 0-.78.06-1.1.08h.08-.37c-.34.06-1.23.1-1.89.17a8 8 0 0 0 1-.07h.4l-2.32.23h.3c-.3.06-.7.07-1.15.11-.8 0 .59-.11.1-.09.32-.06.87-.06 1-.12h-.51c-.42.07-.89 0-1.19.08h.32a1.71 1.71 0 0 1-.5 0h.21c.47 0 .78-.11 1.12-.1-.82.08-.63.12-1.62.2 0 0 .19 0 .29-.05-.34 0-.69.1-1.25.11.32 0 .83-.11.42-.11l-.29.08a2.13 2.13 0 0 1-.25 0H84c.55 0 .57.09 0 .08a12.23 12.23 0 0 1-1.9-.14h-.36c.24 0-.5-.07-.75-.12-.08-.05 1.19.15 1.2 0-.52 0-.29-.06-.12-.06h-.47s-1-.12-.62-.13c-.48-.07-.57 0-.92-.1.06 0 .12 0 .09-.06a3.54 3.54 0 0 1-.57-.11c.08 0-.17 0 .24.08-.11 0-1-.2-1-.16s-.87-.23-1.26-.4c0 .12.77.21.89.32a6 6 0 0 1-1.24-.39c-.49-.2-1-.47-1.44-.67-.72-.41 0 0-.11-.16.68.34.83.46 1.43.71l-2.09-.8c-.69-.38-.71-.52-1.55-1a1.15 1.15 0 0 0 .32.25c-.23-.12-.48-.28-.72-.42s.36.24 0 .07c-.12-.08-.39-.25-.33-.24h.06c-.81-.43-.53-.41-1.24-.75a2.83 2.83 0 0 0 .36.22c.12.1-.32-.11-.64-.29.07 0-.27-.16-.49-.3s.56.32.68.36l-.6-.37.12.08-.67-.36c.46.27.19.18 0 .06-.45-.28-.91-.56-.82-.57-.07 0-.63-.36-.55-.65 0 .32-.06 0 0-.06a1 1 0 0 1 .42-.46c-.51.47.13-.08 0 .06s-.41.43-.31.63c0-.37.32-.65.91-1 0 0 0 .08-.29.26.11 0 .54-.44.92-.65-.1 0-.34.15 0-.1a5.54 5.54 0 0 1 .57-.21c.68-.24.21-.15.77-.35l-.38.09c0-.08.78-.23.79-.28-.37.09-.56.18-.94.3-.16 0 .47-.19.68-.27a7.73 7.73 0 0 1 1.26-.19c0 .06-1 .27-.83.35a14.83 14.83 0 0 1 2.45-.35c.72-.1.64-.15.53-.19h.64l-.33.06c.88-.11 1.39-.18 2.32-.26.53-.06.32-.09.18-.11l.58-.06h-.09a5.53 5.53 0 0 1 1-.12s-.23 0-.21.06c.34 0 .85-.06 1.12-.1a1.39 1.39 0 0 1-.63.1H80l-.68.08a3.12 3.12 0 0 1 1.24 0c.78-.08-.64 0 .29-.09 1.24 0 2.34-.19 3-.09.57-.06 1.24-.15 2.14-.17 0 0 .59 0 .5-.08-.85 0-1.58.13-2.27.08-.38 0-.25.07-.42.1a3.55 3.55 0 0 1-.7 0 9.5 9.5 0 0 1 1.2-.17 12.92 12.92 0 0 0-1.3 0h-.24c.25-.06.82-.12 1.12-.17-.1 0 .09 0 0 0l1-.12c.32 0 .41 0 .24.07a9.71 9.71 0 0 1 1.55 0c.75 0-.23 0-.3-.06h.07-.79c-.09-.07.9 0 1-.07s1.11 0 1.67 0l-.64.08h.55a8.14 8.14 0 0 1-.81.13l2.35.07c.18 0 .27.07.18.1a14.68 14.68 0 0 1 1.85.14c.7 0-.7-.1-.19-.11a7.19 7.19 0 0 0 .78.06c-.21 0-1-.09-1.46-.14a.93.93 0 0 0 .45 0h-.64a8.93 8.93 0 0 1 1.09 0c-.19 0-.09 0-.28.09a16.72 16.72 0 0 1 1.84.17c.27.06-.23 0-.38 0a6.37 6.37 0 0 1 .65.09 4.52 4.52 0 0 1-.53-.05c.53.07 1.07.13 1.6.21a2.79 2.79 0 0 1-.65-.06 9.61 9.61 0 0 0 1.41.14c.54.1 1.16.25 1 .25h.09c.73.15.82.1 1.26.19l-.32-.11c.69.2.18 0 .79.14-.11 0-.08.08 0 .14a4.59 4.59 0 0 1 .76.19c-.15-.08.58.12.17 0 .62.14.89.29 1.34.38-.27-.11.54.14.31 0 .58.2 1 .42.78.4s-.51-.23-.49-.19c.34.13.69.27 1 .43a2.59 2.59 0 0 1 .58.36c.35.11.93.52 1.2.59a3.89 3.89 0 0 1-.72-.4l.16.07h-.08l.46.15c-.4-.24-.09 0-.68-.29s1.21.49.7.17a3.4 3.4 0 0 0-.76-.3h.1l-.84-.37.23.06a16.44 16.44 0 0 0-2.28-1c.08 0 .28.18-.23 0a6.51 6.51 0 0 1-.71-.24 3.28 3.28 0 0 1 .6.15v-.06a7.8 7.8 0 0 1 1.6.41 6.49 6.49 0 0 1 1.49.62l-.27-.18c.65.24.09.11.9.45.3.23.84.63.38.45.53.31.74.38 1.22.66.27.22-.18 0-.15 0 .35.2.8.44.56.25l.65.43a2.44 2.44 0 0 1-.32-.19c.25.17.75.45.9.53a3.23 3.23 0 0 1-.28-.18c.28.15.76.47.8.49a7.07 7.07 0 0 0-.82-.58.93.93 0 0 1 .34.18c-.32-.26-.67-.47-.8-.59a2.9 2.9 0 0 0 .56.32 10.3 10.3 0 0 0-1-.58c0-.08-1-.59-.65-.45a5 5 0 0 1-.67-.35s.57.26.81.35c1.06.58 0 0 .19.2l.79.46c-.07-.06.34.15-.17-.16a5.87 5.87 0 0 1 1.15.69c.1 0-.19-.15-.28-.21.1 0 .63.31 0-.12.18.12-.33-.17 0 .06-.26-.17-1-.62-.65-.48l-1.2-.64c-.06-.07.23.11.37.17l-.93-.5.25.18a15 15 0 0 0-1.71-.81 5.53 5.53 0 0 1 .94.39c-.32-.24-.25-.1-.82-.39-.07 0-.09-.07 0-.07l-.49-.18c-.13-.07 0 0 0 0-.84-.31 0 .06-1.12-.37.66.29.58.2 1.13.45.3.18-.65-.23-.83-.27a6 6 0 0 0-1.28-.52 3.28 3.28 0 0 1 .73.2c.4.11-.19-.1-.26-.16s.1.1-.41-.08l-.86-.2c-.78-.26-1.8-.4-2.34-.58l.12.09c-.51-.11-1.22-.24-1.59-.28a4 4 0 0 1 .79.09 16.1 16.1 0 0 0-2.34-.3l.93.2c-.6 0-.69-.16-1.46-.21 0-.06.24 0 0-.1s-.85-.06-1.22-.06c-.19-.07.16-.09 1 0 .59.11 1.26.12 1.74.24l-.29-.08 1.46.21h.25l-.28-.05a9.29 9.29 0 0 1 1 .09 5.3 5.3 0 0 0-1.34-.1 13 13 0 0 0-1.57-.29s-.46-.12-.11-.1a6.55 6.55 0 0 0 .77.09c-.45-.06-.28-.06-1-.14a10.45 10.45 0 0 1-1.15 0c-.51 0-1.18-.08-1.58-.12h.9c-.3 0-1-.12-.86 0a15.44 15.44 0 0 1-1.67-.15c.57 0 1.12.07 1.6.09h-.18l.71.06a9.15 9.15 0 0 0-.99-.19h.07-.56v-.05c-.52 0-1.51-.11-2.45-.08h.08c-.75 0-.81.09-1.63.11.24 0 .13-.05.09-.07h-1c.48 0-.32.07 0 .07a6.17 6.17 0 0 1-1.25.11c-.26-.06 1.33-.1.68-.15-.43 0-.53.06-.23.06-.54 0-1.35.06-1.74 0-.63.09-.89.08-1.29.18a5.22 5.22 0 0 1 .78-.08l-.55.1c-.62.05-1.11 0-1.54.07l.45-.06c.17 0 .75-.06.68-.1-.4.08-.72.06-1.25.13-.93.11-1.63 0-2.21.2h.41c-.1 0-.79.06-.78 0h.2c-.54 0-.86.06-1 .09s0 .06-.37.12c-.94.06.37-.12-.27-.09l-.87.12h-.2a17.94 17.94 0 0 0-3.71.69 5 5 0 0 1 1.32-.4 10.51 10.51 0 0 0-1.65.4c-.54.18-.92.44-.82.42-.64.38-.48.26-.56.29a4.89 4.89 0 0 1-.52.42 3.53 3.53 0 0 0-.8.66 1.2 1.2 0 0 0-.12 1.29c-.13-.32 0 0 0-.06a1.64 1.64 0 0 0 .16.26 1.19 1.19 0 0 1-.21-.93 1.5 1.5 0 0 1 .5-.76 6.4 6.4 0 0 1 1.13-.78c-.2.15.09 0-.11.13s-.21.14-.24.14-.35.31 0 .06c0 0-.17.17-.41.35a1.61 1.61 0 0 0-.71.87c-.06.32-.1.15 0-.15a1.86 1.86 0 0 1 .48-.64 1.64 1.64 0 0 0-.55.77v-.13a.93.93 0 0 0 0 .6v.01a2.12 2.12 0 0 0 .78.86l-.24-.15c.58.41.72.41 1.23.73l.22.18c-.61-.43-.82-.41-1.17-.65.45.3.39.29.17.19a3.59 3.59 0 0 1-.8-.46c.48.41.82.54 1 .72.62.29 1.21.76 1.83 1 .3.2-.3-.13 0 .07.61.36 1.26.73 1.92 1.08.34.19.27.18.35.25.81.47 1.39.76 2 1.05a14.35 14.35 0 0 0 2.28.92l-.31-.06a4.83 4.83 0 0 0 1 .24c.51.23 1.82.3 2.5.48a14.84 14.84 0 0 0 1.67.07s-.22 0 .14.08a49 49 0 0 0 7-.34h-.22c.83-.06 1.64-.15 2.42-.23l1.26-.12.91-.07a1 1 0 0 0 .35-.07 1.91 1.91 0 0 0 .26-.09c0-.07.24-.11.2-.27s-.14-.18-.12-.12.08.11.07.16-.07 0-.08 0-.14-.17-.18-.24l-.15-.16a1.22 1.22 0 0 0-.14-.16 5 5 0 0 0-.59-.36c-.24-.21.51.23.8.35a.09.09 0 0 0 .08 0l-1.54-.83-.47-.28-.87.08h-.7c.25 0 .08-.06.5-.06h-.08l.67-.06a4.5 4.5 0 0 1 .49-.07l.45.24-.44-.25-1.24.12-1 .09c.16 0-.55.06-.74.11a4.79 4.79 0 0 1-.55.09h-.17c-.3 0 .08 0-.21.06a12 12 0 0 1-2 .1 11.37 11.37 0 0 1-1.18.06.81.81 0 0 1 .19 0 18.05 18.05 0 0 1-3.49-.32 12.9 12.9 0 0 1-2-.49c.2.09.82.3.42.21a4.29 4.29 0 0 1-.85-.33c.1 0-.78-.47-.14-.13-.12-.15-1.36-.77-1.31-.82-.16-.07-1-.59-1.4-.75-.06-.07.49.26.5.24l-.41-.22a15.77 15.77 0 0 0-1.43-.72l-.32-.17.4.16-1.35-.69-.35-.17c.06 0 .08 0 0 0a1.11 1.11 0 0 1-.48-.31c-.09-.16 0-.29.11-.38a7.19 7.19 0 0 1 .66-.31v.08c-.36.15-.41.19-.48.22a.41.41 0 0 0-.24.25c.06-.08.08-.11.31-.25a4.43 4.43 0 0 1 .82-.31 10 10 0 0 1 2-.3c1-.12 2.63-.18 3-.31h-.1l1.68-.1c1.42-.12 2.88-.21 4-.34h.3c1.11-.22 3.81-.06 4.55-.13s-.19 0-.26.06a13.47 13.47 0 0 1 1.7.12h-.37c.29 0 .49 0 .87.1-.17-.07.62 0 1.18.06h-.15c-.07 0 .35 0 .58.06a.21.21 0 0 1-.09 0 17.35 17.35 0 0 1 4.48 1.17 45.62 45.62 0 0 1 4.2 2.27l-.51-.26c.4.2 1.08.61 1.29.75h-.06c.69.47.84.42 1.36.81l-.11-.06.86.54.92.58.61-.44c.64-.44.62-.3 1.07-.74a1.08 1.08 0 0 0 .24-.62.46.46 0 0 0 0-.25.76.76 0 0 1 0 .3c-.05.15 0 0 0-.26a1.06 1.06 0 0 0-.39-.6 1.59 1.59 0 0 1 .12.27.88.88 0 0 1 0 .76c-.35.57-.48.39-1.06.84a3.85 3.85 0 0 1-.52.38 5.7 5.7 0 0 0-.86-.52c.34.14-.68-.44-.14-.19-.21-.17-1.26-.7-1.7-1a.71.71 0 0 1 .18.07 10 10 0 0 1-.9-.57v.06c-.2-.1-.23-.16-.4-.25.12.08.39.26.23.2l-.66-.34a.93.93 0 0 1 .29.12 5.84 5.84 0 0 1-.54-.34c.19.09.44.22.62.29-.68-.4 0 0-.36-.27.06.11-.61-.32-1-.51 0-.05.26.14.37.17a14.94 14.94 0 0 0-2-1.08l.2.08a11.08 11.08 0 0 0-1-.52c-.43-.2-.05-.11-.74-.38.18.13-.83-.3-.87-.23l-.54-.19c-.49-.09.1.14-.84-.08s.1-.1-.39-.24h-.49l-.42-.11h.06a4.2 4.2 0 0 1-.72-.14h.37a15.09 15.09 0 0 0-2.14-.29 4.86 4.86 0 0 1-.71-.12c-.23 0-1.14-.11-1.48-.09a1.56 1.56 0 0 0-.54-.06c.35 0 .13 0-.11.06s-1.16 0-1.29-.1c-.48 0-.3.07-.41.11-.3 0-1.27 0-1.1-.09s.84 0 .73 0a3.77 3.77 0 0 0-.62 0s-.28 0-.2-.05l-.92.06c.54 0-.34.07 0 .07l.51-.09h.36c-1.09.09-.87.15-1.89.25h-.65c.35 0 .28-.08.08-.08a9.85 9.85 0 0 1-1.49.07c.4 0 .19 0 0 .07-1 .11-.38 0-.81 0-1.52.13-2.49.12-3.7.26h.58l.19-.07c.45 0-.07.12-.33.18h-.51l-.73.08h.25c-.33 0-1 .05-.53 0-.38 0-.87.08-.78.11-.64.1.06-.09.33-.12h-.29c-.23 0-.47.07-.7.12.15 0 .14-.06.3-.1a12 12 0 0 0-1.21.28l-.16.11a2.69 2.69 0 0 0-.76.37 1.37 1.37 0 0 0-.51.58.92.92 0 0 0 0 .79 1.51 1.51 0 0 0 .35.42 2.65 2.65 0 0 0 .39.26l-.17-.14c.83.42.54.37 1.58.94.58.31 1 .51.91.42a2.25 2.25 0 0 1 .54.35 9 9 0 0 1 1.25.65l-.78-.4c0 .09.88.52 1.3.78a15.85 15.85 0 0 0 1.94.88c-.26-.16-.13-.15.42 0a6.4 6.4 0 0 0 1.1.35c-.19 0 .85.25 0 .1a5.78 5.78 0 0 0-.65-.2 8.22 8.22 0 0 0 1.22.37 3 3 0 0 1-.61-.08c.25.02.16-.01.14-.03z"/><path class="cls-6" d="M103.18 103.81h-.08l.09.06s-.02-.07-.01-.06zm-11.59 6.46h-.12zm-11.48.11zm23.57-5.9l-.18-.09zm-30.44-3.27h.28zm-.24-.02zm-7.42 11l-.23-.09a1.11 1.11 0 0 0 .23.09zm16.22 2.34s.02.01 0 0zm-5.33-13.65h-.12s.09.01.12 0zm-14.61 9.17zm24.63-9.59zm-1.4 15.08h.11c-.07-.01-.11-.01-.11 0z"/><path class="cls-6" d="M85.14 115.41c-.84 0 .18.07.06.11h.48c.44.08 1.33-.07 1.81 0 0 0-.26 0 .07-.06a3.77 3.77 0 0 1 .66 0 6.8 6.8 0 0 1 .82-.07c.32 0-.35-.06.1-.12.3-.07.73 0 1.09-.09s-.44 0-.62.08l1.24-.11c.36 0-.16.07-.53.09a6 6 0 0 0 1.27-.13h.77a5.1 5.1 0 0 1-.72.16c-.75 0 .27-.07-.37 0v.05a5.38 5.38 0 0 0-.78.07h.14c-.52 0-1 .05-1.34.12.71 0 1.78-.13 2.1-.1l1.4-.17s-.49 0-.09-.08a5.69 5.69 0 0 0 1.13 0c-.21 0 .87-.13.59-.15a1.13 1.13 0 0 1-.42 0c.53 0 .07-.06.35-.09 1-.07 0 0 .92 0-.2 0-.7.15-1.22.22h.74c-.31 0 .21-.07 0-.07l2.56-.33c-.13.1-1.55.21-1.25.29s.45-.1.81-.13a13.24 13.24 0 0 0 1.69-.16h-.28c.24 0 .67-.07 1-.1h-.07l.27-.05h.05c.29-.06 1.06-.13 1.63-.26a6.31 6.31 0 0 0-.84.14H100c.71-.1 1.2-.23 2-.4h-.26c.25-.08.59-.15 1-.25.68-.16-.49.19-.07.1-.26.11-.74.18-.8.25h.45c.35-.12.76-.18 1-.26h-.28a1.37 1.37 0 0 1 .43-.13h-.2a8 8 0 0 1-.94.27c.69-.2.52-.2 1.35-.47 0 0-.16.06-.24.11.29-.08.57-.23 1-.4-.25.13-.67.31-.32.21l.22-.14a1.16 1.16 0 0 1 .22-.06c.3-.12-.08 0 .38-.22.08 0 .23-.1.17 0a3.1 3.1 0 0 0 .69-.48c-.4.28-.46.22 0-.07.58-.38.94-.69 1.36-.91l.24-.2c-.14.15.37-.24.55-.35s-.85.59-.8.65c.38-.25.23-.11.12 0 .4-.29.12-.15.27-.31 0 0 .69-.47.48-.27.35-.23.38-.32.63-.49v.11a3.82 3.82 0 0 1 .42-.29c-.07 0 .09-.12-.2.1 0-.08.7-.49.67-.5s.65-.44 1-.64c-.09-.07-.56.43-.71.43.19-.16.54-.4.92-.67a3.29 3.29 0 0 0 1.08-1c.39-.74.05 0 .16-.1a3.22 3.22 0 0 1-1.09 1.09 3.49 3.49 0 0 0 .92-.81 1.46 1.46 0 0 0 .3-1.18 2.15 2.15 0 0 0-.36-.84 2.55 2.55 0 0 0-.69-.62c.07.1 0 .09.26.26l-.6-.42c-.14-.06.29.23 0 .06-.1-.08-.33-.23-.27-.22-.68-.4-.43-.38-1-.67 0 0 .18.09.31.19s-.28-.09-.56-.24a3.17 3.17 0 0 0-.42-.26c-.11-.11.48.26.59.3l-.52-.31.11.07-.59-.29c.4.21.16.15 0 .06-.4-.23-.8-.45-.73-.47a6.05 6.05 0 0 1-.93-.42c.38.21 0 .06-.09 0l-.58-.33c.64.29-.11-.1 0-.06a5.16 5.16 0 0 1 .9.42 13.78 13.78 0 0 0-1.48-.7s.07 0 .32.1c-.1-.06-.54-.2-.93-.38.1.06.31.18-.09 0l-.5-.25c-.61-.22-.23 0-.74-.16l.32.14c-.07 0-.68-.22-.71-.18.31.1.5.12.82.25.11.09-.42-.12-.62-.15-.68-.23-.54-.19-1-.37 0-.09.87.15.79 0l-2.33-.7c-.61-.12-.57 0-.49 0-.25 0-.38-.09-.54-.13h.29l-2-.34c-.45-.06-.28 0-.17.07l-.49-.07h.07a4.54 4.54 0 0 1-.87-.1h.19a5.85 5.85 0 0 0-1-.12 1.09 1.09 0 0 1 .55 0l.58.06c-.67-.08-1.06-.18-1-.23-.67 0 .54.12-.26 0-1-.23-2-.18-2.57-.37h-1.84s-.51 0-.44.05c.73.09 1.37 0 2 .11.32 0 .22 0 .36-.05a2.49 2.49 0 0 1 .6.08c-.67 0-.19.08-1 0 .11 0 .8.08 1.1.12-.09 0 0 .05.2.08h-1c.09 0-.07 0 0 0h-.87c-.28 0-.35-.07-.2-.09a8.71 8.71 0 0 1-1.33-.09c-.63 0 .2.05.26.07h-.06.67c.07.08-.76-.06-.87 0s-.94-.08-1.41-.07l.55-.08h-.48a4.74 4.74 0 0 1 .69-.12c-.65 0-1.58-.07-2 0-.16 0-.23-.07-.16-.1-.66.06-1 0-1.59 0s.6 0 .17.09a3.84 3.84 0 0 0-.68 0h1.26a.65.65 0 0 0-.38.07h.55a9 9 0 0 1-.93 0c.16-.06.07-.06.23-.11h-1.82a2.39 2.39 0 0 1 .45 0l-1.38.05a3.27 3.27 0 0 1 .56-.05 5.31 5.31 0 0 0-1.21.13h-.86c-.22 0-.07 0-.07.06-.64 0-.7.11-1.08.14h.29c-.62 0-.14.08-.69.09.09 0 0-.09-.05-.13a4.58 4.58 0 0 1-.67 0c.15 0-.5.08-.12.09-.54.07-.79 0-1.19.12.25 0-.47.08-.25.1h-.75.45l-.95.09a2.19 2.19 0 0 1-.59 0c-.31.08-.91 0-1.14.13a2.74 2.74 0 0 1 .71 0h-.15.08l-.41.11c.4 0 .06-.06.63-.11s-1.1.22-.58.22.33-.08.68-.14h-.09l.77-.1-.19.06c.94-.08 1.09 0 2.1-.12-.07 0-.28-.07.17-.12a4.84 4.84 0 0 1 .64 0 2.42 2.42 0 0 1-.52.07 8.1 8.1 0 0 1-1.38.25 7.75 7.75 0 0 1-1.35.17h.27c-.57.12-.11 0-.85.08-.31 0-.88-.08-.47-.18-.53 0-.7.09-1.18.14-.29 0 .14-.08.08-.13-.34 0-.77.11-.51.12h-.66a1.27 1.27 0 0 1 .31 0 7 7 0 0 0-.88.13h.28a7.57 7.57 0 0 0-.78.16c.39-.09.44 0 .85-.11a.71.71 0 0 1-.32.08 6.45 6.45 0 0 1 .84 0 2.18 2.18 0 0 0-.54.07c.26 0 .78-.08 1-.11s1-.12.68 0a2.81 2.81 0 0 1 .63-.07s-.52.09-.73.15c-1 .13 0-.06-.23-.05l-.77.08c.08 0-.3.08.2 0a5.54 5.54 0 0 1-1.11.17h.29c-.09 0-.56.16.07.1-.18 0 .3-.07 0 0 .25 0 .94-.09.67 0l1.13-.16c.08 0-.21 0-.34.06l.89-.11H75c.65 0 1.06-.16 1.58-.23a4.57 4.57 0 0 1-.84.16c.33 0 .21 0 .76-.09.07 0 .09 0 0 0l.5-.1c.13 0 .06 0 0 0 .74-.13 0-.08 1-.19-.6 0-.5.08-1 .12-.29 0 .57-.12.72-.15a8.16 8.16 0 0 0 1.16-.05 3.26 3.26 0 0 1-.63.1c-.34.06.18 0 .26 0s-.11 0 .34-.08l.74-.12c.69 0 1.55-.18 2-.15l-.11-.05 1.36-.1a6.43 6.43 0 0 1-.67.09c.78 0 1.47-.12 2-.19h-.8a11 11 0 0 1 1.25-.06c0 .06-.2.06 0 .11s.72-.06 1-.1c.16 0-.12.1-.79.13-.51 0-1.07.09-1.49.06h.26c-.51 0-.82.06-1.25.11l-.21.07h.23a7.64 7.64 0 0 1-.79.13 4.31 4.31 0 0 0 1.11-.22h1.35s.4 0 .11.07a4 4 0 0 0-.65.06h.81a5.3 5.3 0 0 1 .95-.18 12.57 12.57 0 0 1 1.34 0c-.44 0-.87.07-.76.1s.85 0 .72 0a8.07 8.07 0 0 1 1.42.06h-1.35.15-.59a6.62 6.62 0 0 0 .94 0h.41v.06h2.06-.07c.63 0 .68-.08 1.37-.06-.2 0-.11 0-.08.07a6.25 6.25 0 0 1 .87.08c-.4-.06.27-.05 0-.08a3.7 3.7 0 0 1 1 0c.21.08-1.12 0-.58.07h.2c.45 0 1.13.1 1.45.17h1.1a4.32 4.32 0 0 1-.67 0h.4c.52 0 .93.15 1.29.2h-.38c-.15 0-.63-.06-.58 0 .35 0 .61.07 1.06.09.79.06 1.34.27 1.85.25-.14 0-.42-.1-.32-.11s.65.13.63.15H98l.86.16c.13 0 0-.07.34 0 .77.18-.34 0 .19.15l.72.12.15.07c1.06.27 1.9.39 3 .75a7 7 0 0 1-1.08-.25c.33.14.84.23 1.28.42s.75.22.7.17c.51.18.34.17.4.21a7.11 7.11 0 0 1 1.22.49l.64.28c-.16-.09 0 0 0-.06l.16.08c-.57-.39-1.41-.63-2-1 .2.07-.06 0 .15 0s.19.09.2.11.38.11 0 0a5.63 5.63 0 0 1 1.2.48c.36.22-.41-.13-.62-.19a4 4 0 0 1 .59.27h-.09c.66.3.2.05.37.07a3.83 3.83 0 0 1 .75.39L107 104c.48.29.62.3 1.06.55l.19.15a10.42 10.42 0 0 0-1-.51c.78.49-.23 0-.5-.08a5.62 5.62 0 0 1 .84.48c.54.21 1 .61 1.55.83.26.16-.24-.11 0 .06.5.31 1.06.64 1.52 1 .21.18.15.16.18.23a.71.71 0 0 1 .23.54 1 1 0 0 1-.24.52 8.27 8.27 0 0 1-1.51 1.17l.2-.17a4.3 4.3 0 0 0-.69.5c-.43.19-1.24.93-1.77 1.18-.64.42-.62.51-1.11.86 0 0 .12-.15-.14 0s-.78.58-1.15.79a8.57 8.57 0 0 1-1.23.56 17.91 17.91 0 0 1-2.85.74h.18c-1.35.23-2.72.43-3.88.52-.21 0-.86.11-.66.13s.32 0 .3.05a10.7 10.7 0 0 1-1.2.06c-.22-.06.43-.09.42-.15l-1 .13c-.56 0-1.11.11-1.61.12.22 0 .07-.06.44-.06h-.08c.84-.06.45-.07 1.19-.15-.65.08-1.53.17-2.11.2.13 0-.47.06-.63.1a3.41 3.41 0 0 1-.46.08l-.15-.06c-.26 0 .07 0-.18.06a11.21 11.21 0 0 1-1.74.07c-.44 0-.56.08-1 .09a1.24 1.24 0 0 1 .16 0c-1 0-2.13.12-3 .09-.74 0-1.37 0-1.84.07.2 0 .78 0 .42.05h-.98c-.15-.07-1.33 0-1.31-.09h-1.27c-.76-.06-.91 0-1.36 0h-.29.37-1.62c.06 0 .08 0 0 0-.31 0-1-.07-1.3-.06a2.51 2.51 0 0 0-.68-.12l.06-.06c.72.09.27.08 1 .15-.55-.14-2.1-.35-3.13-.53-.84-.1-2.18-.48-2.55-.47h.09l-1.36-.4a27.52 27.52 0 0 1-3.15-1.11l-.21-.14c-.92-.28-2.9-1.45-3.5-1.67-.45-.31.16 0 .22 0a10 10 0 0 1-1.23-.74s.48.28.27.14-.37-.19-.6-.41c.1.1-.52-.2-.76-.56l.07.1c0 .07-.19-.2-.24-.36-.24-.51.16-1.11.67-1.48l1.64-1.48c1.12-.79 2.26-1.57 3.36-2.32l-.39.31a9.29 9.29 0 0 1 1.05-.71h-.05a6.27 6.27 0 0 1 1.19-.57h-.1a19.69 19.69 0 0 1 2.08-.61 7.29 7.29 0 0 1 1-.12 2.73 2.73 0 0 0 .56-.15h-.18c-.2 0 .38-.1.65-.15a1.49 1.49 0 0 0-.88-.08c-.55.12-.55 0-1.18.15-.33.16-.9.17-1.44.42.28-.16-.66.2-.2 0a10.26 10.26 0 0 0-1.57.7c.06 0 0 0 .13-.11-.55.36-.41.21-.8.48-.14.12-.2.12-.33.22.11-.07.34-.2.24-.1s-.31.25-.51.39c0 0 .12-.12.21-.19a4.83 4.83 0 0 1-.47.29c.14-.12.33-.26.45-.37-.56.37-.06 0-.35.16.11 0-.46.36-.75.58 0 0 .2-.15.27-.22a14.3 14.3 0 0 0-1.59 1.09l.14-.12c-.33.26-.61.38-.81.56s-.1 0-.61.34c.19 0-.6.4-.57.47l-.42.24c-.33.31.15 0-.5.59s0-.15-.38.25l-.07.22a1.5 1.5 0 0 0-.16.45v-.08a2 2 0 0 0 0 .54c0 .17.09.29.08.3a1.49 1.49 0 0 1-.15-.4 2 2 0 0 0 .54 1 2.42 2.42 0 0 0 .81.58c.17.14.55.38.49.38.19.07.82.53 1.09.65a1.66 1.66 0 0 0 .38.25c-.24-.16-.07-.08.11 0s.87.49.94.59c.37.16.26.06.36.06.21.16 1 .52.79.51s-.63-.34-.57-.26c.37.22.18.07.49.22 0 0 .19.14.13.13.19.08.44.21.71.34-.41-.21.29.09 0 0l-.43-.15c-.48-.23-.08-.08-.26-.18.86.39.72.26 1.54.58l.51.23c-.28-.1-.24 0-.09 0 .48.13.83.33 1.21.46-.33-.12-.14-.1 0-.07.82.21.31.12.65.25a28.54 28.54 0 0 0 3.09.78l-.47-.15h-.07c-.37-.12.1-.09.32-.08 0 0 .68.14.42.12l.62.1c-.09 0-.48-.11-.19-.08s.82.18.42.14a2.12 2.12 0 0 0 .68.07c.52.08-.07.06-.31 0 .42.07.36.11.23.1l.58.09a2.26 2.26 0 0 0-.26 0c.38.08.66.06 1 .15h.15c1 .18.94.17 1.93.28h-.16c.75 0 .54.11 1.54.17h.87a1.82 1.82 0 0 1 .54.06 8.24 8.24 0 0 1 1.21 0h-.75a12.32 12.32 0 0 0 1.3.09c.29 0 1.24 0 1.77-.1-.24 0-.14-.1.33-.14a9.25 9.25 0 0 0 1 .05c-.16 0 .74.07 0 .09a4.18 4.18 0 0 0-.56 0 8 8 0 0 0 1.06.09 2.73 2.73 0 0 1-.51 0c.11.07.03.06.01.05zm-8.67-14.53s.02-.01 0 0zm22.86 13.53h.1zm9.14-3.9zm-32.67-9.94h.18z"/><ellipse class="cls-7" cx="54.07" cy="97.2" rx="1.43" ry=".74"/><ellipse class="cls-7" cx="147.19" cy="98.83" rx="1.43" ry=".74"/><ellipse class="cls-7" cx="46.82" cy="102.49" rx="1.03" ry=".6"/><ellipse class="cls-7" cx="146.51" cy="109.68" rx="1.03" ry=".6"/><ellipse class="cls-7" cx="151.64" cy="106.82" rx="1.03" ry=".6"/><ellipse class="cls-8" cx="87.19" cy="120.89" rx="1.03" ry=".6"/><ellipse class="cls-7" cx="51.95" cy="110.74" rx="1.03" ry=".6"/><ellipse class="cls-7" cx="70.73" cy="90.33" rx="1.03" ry=".6"/><ellipse cx="41.16" cy="105.08" rx=".77" ry=".45" opacity=".8" fill="#37bedb"/><ellipse class="cls-8" cx="100.19" cy="121.64" rx=".77" ry=".45"/><ellipse class="cls-8" cx="70.39" cy="97.41" rx=".77" ry=".45"/><ellipse class="cls-7" cx="89.33" cy="85.04" rx=".77" ry=".45"/><ellipse class="cls-7" cx="83.37" cy="88.41" rx=".77" ry=".45"/><ellipse class="cls-8" cx="112.31" cy="115.69" rx=".77" ry=".45"/><ellipse class="cls-8" cx="100.49" cy="97" rx=".77" ry=".45"/><ellipse class="cls-8" cx="116.99" cy="89.27" rx=".77" ry=".45"/><ellipse class="cls-8" cx="64.59" cy="91.54" rx=".77" ry=".45"/><ellipse class="cls-8" cx="119.91" cy="117.13" rx=".77" ry=".45"/><ellipse class="cls-8" cx="136.33" cy="113.74" rx=".77" ry=".45"/><ellipse class="cls-8" cx="159.04" cy="105.26" rx=".77" ry=".45"/><ellipse class="cls-8" cx="141.1" cy="96.08" rx=".77" ry=".45"/><path class="cls-10" d="M82.22 62.62c-2.57 2.75-13.1 15.82-.44 33.22a.15.15 0 0 0 .27-.13c-1.36-3.83-5.62-18.16.41-32.93a.15.15 0 0 0-.24-.16zM84 45.2c2.59 2.8 13.12 15.8.46 33.23a.15.15 0 0 1-.26-.14c1.35-3.82 5.61-18.15-.41-32.93a.14.14 0 0 1 .21-.16z"/><ellipse class="cls-10" cx="118.66" cy="96.36" rx="2.27" ry="11.43" transform="rotate(-87.11 118.665 96.354)"/><path class="cls-11" d="M98.16 79.09l7.07-6.41 2.14 3-6.85 6.41"/><path class="cls-11" d="M105.23 72.68s12.51-5.16 24.25-4c9.52.92 9.43 1.25 9.43 1.25l2.16 3.84a63.7 63.7 0 0 0-13.22-1.15c-7.87.06-16.15 1.06-20.48 3.09s-2.14-3.03-2.14-3.03z"/><path class="cls-10" d="M138.1 70.4s-5.85-.81-9-1a37.19 37.19 0 0 1 5.07 3.41l.78.06c.44.06.91-.25 1-.09z"/><path class="cls-12" d="M138.91 69.9l-.97.4-6.78 5.76.72.52-.34.32 2.75 3.5 6.78-6.66-2.16-3.84z"/><path class="cls-12" d="M95.7 77.86l4.64 5.55a11 11 0 0 0 4.64 3 108.33 108.33 0 0 0 11.28 3 34.05 34.05 0 0 0 8.34.5 18.21 18.21 0 0 0 6.56-1.62 20.76 20.76 0 0 0 5.22-4.29c.63-.89.43-2.08-.55-3.25l-4.64-5.55a11 11 0 0 0-4.64-3 109.26 109.26 0 0 0-11.29-3 34 34 0 0 0-8.33-.5 18.21 18.21 0 0 0-6.57 1.62 20.89 20.89 0 0 0-5.21 4.24c-.64.94-.43 2.13.55 3.3zm6.5 4.23c5.22 1.5 11.81 3.36 14 3.79a21.14 21.14 0 0 0 5.3.32 11.81 11.81 0 0 0 4.14-1 20.84 20.84 0 0 0 3.88-3.13c.41-.53.11-1.28-.87-1.93a5.93 5.93 0 0 0-1.73-.73l-2.62-.73-7.28-2c-2.69-.74-5.38-.54-6.58.49l-1.82 1.57-3.6-1a.16.16 0 0 1-.1-.06 21.15 21.15 0 0 1 3.42-2.77 11.89 11.89 0 0 1 6.89-.53c1.54.3 6.47 1.63 13.45 3.64a7.43 7.43 0 0 1 3.54 2l.81 1a1.65 1.65 0 0 1 .36 2 19.7 19.7 0 0 1-4.73 3.85 15.25 15.25 0 0 1-5.48 1.36 28.66 28.66 0 0 1-7-.43A104.39 104.39 0 0 1 106 85a6.79 6.79 0 0 1-2.86-1.84zm11.07-3.72a3.87 3.87 0 0 1 3.22-.24l3.2.88-1.43 1.23a3.83 3.83 0 0 1-3.22.24l-3.21-.88zm-14.79-.72a1.65 1.65 0 0 1-.36-2 19.73 19.73 0 0 1 4.74-3.85 15.14 15.14 0 0 1 5.47-1.36 29.11 29.11 0 0 1 7 .42 102.71 102.71 0 0 1 10.24 2.73 6.79 6.79 0 0 1 2.86 1.84l.92 1.1c-5.2-1.5-11.79-3.35-14-3.78a21.12 21.12 0 0 0-5.3-.32 11.48 11.48 0 0 0-4.14 1 21 21 0 0 0-3.91 3.13c-.41.53-.1 1.28.87 1.93a6.05 6.05 0 0 0 1.73.73l2.63.72 7.28 2a11.4 11.4 0 0 0 3.84.41 4.76 4.76 0 0 0 2.74-.9l1.83-1.57 3.59 1a.16.16 0 0 1 .1.05v.06a21.6 21.6 0 0 1-3.42 2.77 8.19 8.19 0 0 1-3.06.75 14.42 14.42 0 0 1-3.82-.22c-1.54-.3-6.47-1.63-13.46-3.64a7.48 7.48 0 0 1-3.54-2z"/><path class="cls-4" d="M94.71 78.69l4.65 5.55a11 11 0 0 0 4.64 3 107.66 107.66 0 0 0 11.28 3 34.05 34.05 0 0 0 8.34.5 18.1 18.1 0 0 0 6.55-1.62 20.65 20.65 0 0 0 5.23-4.25c.62-.89.43-2.08-.55-3.25L130.2 76a11 11 0 0 0-4.64-3 108.33 108.33 0 0 0-11.28-3 34.06 34.06 0 0 0-8.33-.5 18.21 18.21 0 0 0-6.57 1.62 20.89 20.89 0 0 0-5.21 4.24c-.64.97-.44 2.16.54 3.33zm6.51 4.23c5.21 1.5 11.81 3.36 14 3.79a21.14 21.14 0 0 0 5.3.32 11.59 11.59 0 0 0 4.14-1 20.84 20.84 0 0 0 3.88-3.13c.41-.53.1-1.28-.87-1.93a6.05 6.05 0 0 0-1.73-.73l-2.63-.73-7.28-2c-2.69-.74-5.38-.54-6.58.49l-1.82 1.57-3.61-1a.17.17 0 0 1-.09-.06 21.15 21.15 0 0 1 3.42-2.77 11.87 11.87 0 0 1 6.89-.53c1.54.3 6.46 1.63 13.44 3.64a7.33 7.33 0 0 1 3.54 2l.81 1a1.62 1.62 0 0 1 .36 2 19.3 19.3 0 0 1-4.73 3.85 15.14 15.14 0 0 1-5.45 1.3 28.63 28.63 0 0 1-7-.43 104.39 104.39 0 0 1-10.21-2.7 6.72 6.72 0 0 1-2.85-1.87zm11.07-3.72a3.84 3.84 0 0 1 3.21-.2l3.21.88-1.43 1.23a3.83 3.83 0 0 1-3.22.24l-3.21-.88zm-14.79-.72a1.65 1.65 0 0 1-.36-2 19.66 19.66 0 0 1 4.73-3.85 15.25 15.25 0 0 1 5.48-1.36 29.13 29.13 0 0 1 7 .42 103.21 103.21 0 0 1 10.23 2.73 6.76 6.76 0 0 1 2.87 1.84l.92 1.1c-5.2-1.49-11.79-3.35-14-3.78a21.17 21.17 0 0 0-5.3-.32 11.54 11.54 0 0 0-4.15 1 21.26 21.26 0 0 0-3.92 3.13c-.42.53-.1 1.28.87 1.93a6 6 0 0 0 1.72.73l2.64.72 7.27 2a11.77 11.77 0 0 0 3.85.42 4.89 4.89 0 0 0 2.74-.91l1.83-1.57 3.59 1a.23.23 0 0 1 .1.05v.06a20.72 20.72 0 0 1-3.42 2.77 8.09 8.09 0 0 1-3 .75 14.52 14.52 0 0 1-3.83-.22c-1.53-.3-6.46-1.63-13.45-3.64a7.43 7.43 0 0 1-3.54-2z"/></svg>