<svg id="Layer_1" data-name="Layer 1" xmlns="http://www.w3.org/2000/svg" viewBox="0 0 200 150"><defs><style>.cls-3{fill:#7edfe9}.cls-4{fill:#2ab0c6}.cls-5,.cls-6,.cls-7{fill:#37bedb}.cls-6{opacity:.34}.cls-7{opacity:.5}</style></defs><path d="M0 150h200v-47.17s-28.62-33.14-65.52-34C92 67.93 62.36 94.75 42.35 97.17 11.21 100.94 0 91.83 0 91.83z" fill="#666"/><path d="M160.69 104.12a5.18 5.18 0 0 1 0 9.66l-30.78 12c-17.62 6.89-42.06 6.89-59.84 0l-30.78-12a5.18 5.18 0 0 1 0-9.66l30.77-11.9c17.62-6.9 42.22-6.81 59.84 0z" fill="#424242"/><path class="cls-3" d="M160.69 99.62a5.18 5.18 0 0 1 0 9.66l-30.78 12c-17.62 6.89-42.06 6.89-59.84 0l-30.78-12a5.18 5.18 0 0 1 0-9.66l30.77-11.9c17.62-6.9 42.22-6.81 59.84 0z"/><path class="cls-4" d="M93 56.06A4 4 0 0 0 91.83 59l-.1 5.7a5.9 5.9 0 0 0 1.08 3.44 36.57 36.57 0 0 0 4.5 4.76 10.69 10.69 0 0 0 4.1 2 7.91 7.91 0 0 0 4.13-.15 19.76 19.76 0 0 0 4.63-2.68 4 4 0 0 0 1.18-2.93l.1-5.7a5.9 5.9 0 0 0-1.08-3.44 36.57 36.57 0 0 0-4.5-4.76 10.75 10.75 0 0 0-4.1-2 7.94 7.94 0 0 0-4.14.15A19.88 19.88 0 0 0 93 56.06M109.24 61a3.65 3.65 0 0 1 .66 2.13v1.13c-2-2.29-4.61-5.15-5.57-5.94a6.24 6.24 0 0 0-2.6-1.29 5 5 0 0 0-2.61.09 20 20 0 0 0-3.43 2 1.75 1.75 0 0 0-.42 1.83 2.38 2.38 0 0 0 .57 1l1 1.13 2.87 3.13a3.47 3.47 0 0 0 1.81 1.09 2.43 2.43 0 0 0 1.83-.26l1.65-1 1.42 1.54a.09.09 0 0 1 0 .06.07.07 0 0 1 0 .06 20.86 20.86 0 0 1-3 1.75 3.82 3.82 0 0 1-1.93.07 4.53 4.53 0 0 1-1.89-.93c-.66-.55-2.62-2.65-5.33-5.72a3.66 3.66 0 0 1-.93-2.43v-1a2.52 2.52 0 0 1 .72-1.82 18.81 18.81 0 0 1 4.2-2.43 6.5 6.5 0 0 1 3.45-.13 8.83 8.83 0 0 1 3.42 1.69 33.42 33.42 0 0 1 4.11 4.25m-6.78 4.39a1.44 1.44 0 0 1-1.78-.41l-1.27-1.37 1.31-.8a1.44 1.44 0 0 1 1.78.41l1.26 1.37zm-8.53 1.82a3.68 3.68 0 0 1-.66-2.21v-1.13c2 2.29 4.62 5.15 5.57 5.94a6.28 6.28 0 0 0 2.61 1.29 5 5 0 0 0 2.61-.09 19.7 19.7 0 0 0 3.43-2 1.73 1.73 0 0 0 .41-1.83 2.46 2.46 0 0 0-.56-1l-1-1.12-2.89-3.06a2.94 2.94 0 0 0-3.64-.83l-1.66 1-1.42-1.54v-.06a.07.07 0 0 1 0-.06 19.83 19.83 0 0 1 3-1.75 4.22 4.22 0 0 1 3.82.86c.66.55 2.62 2.65 5.33 5.72a3.6 3.6 0 0 1 .92 2.43v1a2.47 2.47 0 0 1-.73 1.82 18.5 18.5 0 0 1-4.19 2.43 6.51 6.51 0 0 1-3.45.13A8.76 8.76 0 0 1 98 71.49a34.18 34.18 0 0 1-4.09-4.31"/><path class="cls-5" d="M92.41 56.4a4 4 0 0 0-1.19 2.93L91.13 65a5.85 5.85 0 0 0 1.08 3.44 35.92 35.92 0 0 0 4.5 4.75 10.57 10.57 0 0 0 4.1 2 7.91 7.91 0 0 0 4.13-.16 19.41 19.41 0 0 0 4.63-2.68 4 4 0 0 0 1.18-2.93l.1-5.69a5.93 5.93 0 0 0-1.08-3.45 35.92 35.92 0 0 0-4.5-4.75 10.47 10.47 0 0 0-4.1-2 7.84 7.84 0 0 0-4.14.15 19.53 19.53 0 0 0-4.62 2.68m16.23 4.9a3.66 3.66 0 0 1 .66 2.14v1.13c-2-2.29-4.61-5.15-5.57-5.95a6.49 6.49 0 0 0-2.6-1.29 4.94 4.94 0 0 0-2.62.1 19.57 19.57 0 0 0-3.42 2 1.75 1.75 0 0 0-.42 1.83 2.55 2.55 0 0 0 .56 1l1 1.13 2.88 3.13a3.6 3.6 0 0 0 1.81 1.09 2.38 2.38 0 0 0 1.83-.27l1.65-1 1.42 1.55a.07.07 0 0 1 0 .06.07.07 0 0 1 0 .06 20.88 20.88 0 0 1-3 1.74 3.61 3.61 0 0 1-1.93.07 4.64 4.64 0 0 1-1.89-.95c-.66-.55-2.62-2.65-5.34-5.72a3.72 3.72 0 0 1-.92-2.44v-1a2.49 2.49 0 0 1 .72-1.82 18.82 18.82 0 0 1 4.2-2.44 6.6 6.6 0 0 1 3.45-.13 8.85 8.85 0 0 1 3.42 1.7 33.39 33.39 0 0 1 4.08 4.31m-6.78 4.39a1.43 1.43 0 0 1-1.78-.4l-1.27-1.38 1.31-.79a1.43 1.43 0 0 1 1.78.4l1.26 1.38zM93.3 67.5a3.65 3.65 0 0 1-.66-2.13v-1.14c2 2.29 4.62 5.16 5.57 6a6.34 6.34 0 0 0 2.61 1.29 5 5 0 0 0 2.61-.09 20.78 20.78 0 0 0 3.43-2 1.75 1.75 0 0 0 .41-1.84 2.49 2.49 0 0 0-.56-1l-1-1.13-2.87-3.12a2.92 2.92 0 0 0-3.64-.83l-1.66 1L96.13 61a.2.2 0 0 1 0-.07 19.83 19.83 0 0 1 3-1.75A4.22 4.22 0 0 1 103 60c.66.55 2.62 2.65 5.33 5.72a3.6 3.6 0 0 1 .92 2.43v1a2.46 2.46 0 0 1-.73 1.82 18.14 18.14 0 0 1-4.19 2.44 6.61 6.61 0 0 1-3.45.13 8.76 8.76 0 0 1-3.42-1.69 34.22 34.22 0 0 1-4.09-4.32"/><path class="cls-4" d="M70.25 93.08l-.61-1.35h.51l-.56-1.34h.26l-1.18-3.54h-.06l-1.18 3.54h.26l-.56 1.34h.51L67 93.08l1.38.19v.62h.32v-.63l1.38-.18s.18.02.17 0zM81 86.22l-.43-1H81l-.39-.94h.18l-.82-2.48-.83 2.48h.18l-.39.94h.36l-.43 1 1 .14v.44H80v-.45l1-.13s.05.02 0 0zm-7.25 2.14l-.56-1.26h.47l-.52-1.23h.24l-1.09-3.26h-.05l-1.09 3.26h.24l-.51 1.23h.47l-.56 1.26 1.27.17v.58h.29v-.59l1.28-.17s.13.02.12.01z"/><path class="cls-6" d="M54.58 96.43a6.53 6.53 0 0 0 3.56 7.11l35.67 17.32z"/><path class="cls-5" d="M44.45 91.52c.06-.25 1.55-3.52 7.9-3.52 5.51 0 9.06 3.94 8.2 7s-6.34 6.71-9.57.86c-3.75-6.73-5.85-4.41-6.53-4.34z"/><path class="cls-4" d="M55.67 99a5.13 5.13 0 0 1 5-5.62s31.31 23.92 33.46 25.29 1.42 3.67-1.4 1.89S55.67 99 55.67 99z"/><path class="cls-7" d="M43.57 103.29a1.85 1.85 0 0 1 .38-1.37 2.62 2.62 0 0 0-1.2.65s-.48-.86-.34-1.24a1.67 1.67 0 0 0-.88 1.3 6.08 6.08 0 0 0-.89-.55 4 4 0 0 1 .11 1.21l1.52.5zm8.65 10.07a1.56 1.56 0 0 0-.33-1.17 2.18 2.18 0 0 1 1 .55s.41-.73.29-1.06a1.42 1.42 0 0 1 .75 1.11 4.77 4.77 0 0 1 .77-.47 3.64 3.64 0 0 0-.1 1l-1.3.43zm21.48 2.85a1.33 1.33 0 0 1 .28-1 1.87 1.87 0 0 0-.9.48s-.36-.64-.26-.93a1.26 1.26 0 0 0-.65 1 4.36 4.36 0 0 0-.67-.41 3 3 0 0 1 .08.91l1.14.37zm18.9-6.94a1 1 0 0 0-.21-.76 1.44 1.44 0 0 1 .66.36s.26-.47.19-.68a.91.91 0 0 1 .48.71 2.68 2.68 0 0 1 .5-.3 2.24 2.24 0 0 0-.07.67l-.84.27zm53.48.12a1 1 0 0 0-.21-.76 1.44 1.44 0 0 1 .66.36s.27-.47.19-.68a.91.91 0 0 1 .49.71 2.84 2.84 0 0 1 .49-.3 2 2 0 0 0-.06.67l-.84.27zm-43.03 13.13a1 1 0 0 1 .21-.75 1.34 1.34 0 0 0-.66.36s-.26-.48-.19-.69a.91.91 0 0 0-.48.72 3.34 3.34 0 0 0-.49-.31 2.35 2.35 0 0 1 .06.67l.84.28zM64.48 91.5a1.22 1.22 0 0 1 .22-.86 1.5 1.5 0 0 0-.71.41s-.28-.54-.2-.78a1 1 0 0 0-.52.81 3.48 3.48 0 0 0-.53-.34 2.49 2.49 0 0 1 .07.76l.9.31zm41.07 21.66a1 1 0 0 0-.21-.76 1.44 1.44 0 0 1 .66.36s.26-.47.19-.68a.88.88 0 0 1 .48.71 2.84 2.84 0 0 1 .49-.3 2.35 2.35 0 0 0-.06.67l-.84.27zM78.22 103.1a1 1 0 0 1 .21-.75 1.43 1.43 0 0 0-.67.35s-.26-.47-.18-.68a.94.94 0 0 0-.49.72 3.34 3.34 0 0 0-.49-.31 2.35 2.35 0 0 1 .06.67l.84.28z"/><path class="cls-4" d="M117.6 115.74l-1-2.17h.82l-.89-2.14h.47l-1.89-5.65h-.09l-1.89 5.65h.42l-.89 2.14h.81l-1 2.17v.07l2.21.31v1s0 .07.06.07h.51a.07.07 0 0 0 .07-.07v-1l2.21-.29.07-.09zm9.18 2.5l-1-2.35h.88l-1-2.3h.45l-2-6.09a.05.05 0 0 0-.1 0l-2 6.09h.45l-1 2.3h.88l-1 2.35v.07l2.38.33v1.07a.07.07 0 0 0 .07.07h.55a.07.07 0 0 0 .07-.07v-1.09l2.38-.31s.01-.04-.01-.07zm-14.01-12.87l-.72-1.6h.6l-.66-1.58h.31L110.91 98h-.07l-1.39 4.16h.31l-.66 1.58h.6l-.72 1.6 1.63.23v.73a.05.05 0 0 0 0 .05h.38v-.8l1.63-.21.15.03zm8.15-.58l-.7-1.56h.59l-.64-1.54h.29l-1.35-4.08h-.07l-1.36 4.08h.3l-.64 1.54h.58l-.7 1.56 1.59.22v.72h.37V105l1.59-.21s.16.03.15 0zm8.7 2.47l-.85-1.88h.71l-.77-1.86h.36l-1.64-4.89h-.08l-1.63 4.89h.36l-.77 1.86h.7l-.84 1.88v.06l1.91.27v.86a.06.06 0 0 0 .06 0h.45v-.88l1.91-.25.12-.06zm6.38 7.5l-1-2.17h.82l-.89-2.14h.41l-1.89-5.65h-.09l-1.89 5.65h.53l-.89 2.14h.81l-1 2.17v.07l2.21.31v1s0 .07.06.07h.51a.07.07 0 0 0 .07-.07v-1l2.21-.29.02-.09zm6-6.88l-.73-1.62h.61l-.67-1.61h.31l-1.41-4.22h-.07l-1.41 4.22h.31l-.66 1.61h.61l-.73 1.62v.05l1.65.23v.75h.43v-.76l1.65-.22.11-.05zm-52.69-8.51l-.71-1.58h.59l-.65-1.57h.3l-1.37-4.13h-.07L86 96.22h.3l-.65 1.57h.6l-.71 1.58 1.62.23v.73h.37v-.74l1.61-.22s.18.03.17 0zm-4.65-5.49l-.8-1.8h.67l-.74-1.77h.35l-1.57-4.68h-.07l-1.57 4.68h.35l-.74 1.77h.67l-.8 1.8v.06l1.83.25V95h.43v-.84l1.83-.24s.17-.01.16-.04zM78 91.15l-.6-1.25h.47l-.51-1.24h.23l-1.08-3.26h-.06l-1.08 3.26h.23l-.51 1.24h.47L75 91.15l1.27.18v.57h.3v-.58l1.27-.17s.16.02.16 0z"/><path d="M144.6 105.08L130 95.66l4.75-6h.09l-4.94-1.91c-17.62-6.81-42.22-6.9-59.84 0L39.31 99.62a5.18 5.18 0 0 0 0 9.66l30.78 12c17.78 6.89 42.22 6.89 59.84 0l30.78-12a5.18 5.18 0 0 0 2.73-7.2z" fill="none"/><path class="cls-6" d="M130 95.66l14.58 9.42 18.83-3a5.06 5.06 0 0 0-2.74-2.46l-25.83-10h-.09z"/><path class="cls-5" d="M78.64 88.55l14.21-8.65a.69.69 0 0 1 .87.14l3.79 4.45a.55.55 0 0 0 .74.08c1.56-1.15 7.12-5.28 8.76-6.81s8.52-3.16 10.81-3.68a1.59 1.59 0 0 1 1.33.29l12.66 9.54 13.6 16.52-.39 4a.83.83 0 0 1-.87.75L109.6 103a17.15 17.15 0 0 1-6.66-1.79L78.66 89.13a.33.33 0 0 1-.02-.58z"/><path class="cls-3" d="M110 99.26l8.72-16.63 1.66-2.3a.28.28 0 0 1 .51.16v7.91a.28.28 0 0 0 .06.18l3.1 3.92 4.28 7a.27.27 0 0 1-.21.42l-14 1.42a1.78 1.78 0 0 1-.91-.16l-3.16-1.51a.27.27 0 0 1-.05-.41zM96.29 86.92l-6.09 4.42a.22.22 0 0 1-.35-.21l.58-3.78a.42.42 0 0 1 0-.1l2.6-3.41a.19.19 0 0 0 .05-.13v-1.93l3.23 4.84a.22.22 0 0 1-.02.3zm34.34.68l12.16 15.63a.27.27 0 0 1-.23.43l-9.41-.6a.27.27 0 0 1-.18-.44l2.41-2.69a.24.24 0 0 0 .07-.18 5.71 5.71 0 0 0-1.34-3.58c-1.12-1.12-3.05-6.69-3.66-8.48a.1.1 0 0 1 .18-.09zm-20.28-8.5l-1.53 1.79-2.17 2.53a2 2 0 0 0-.43.83L105.5 87z"/><path class="cls-7" d="M143.51 95.75a.78.78 0 0 1 .16-.57 1 1 0 0 0-.5.27s-.2-.36-.14-.52a.69.69 0 0 0-.37.54 2.37 2.37 0 0 0-.38-.23 1.78 1.78 0 0 1 .05.51l.67.25z"/><path class="cls-4" d="M149.85 98.66l-.61-1.36h.51l-.56-1.3h.26l-1.18-3.55h-.06L147 96h.26l-.55 1.35h.51l-.61 1.36 1.39.19v.62h.32v-.63l1.39-.18.14-.05zm9.21 3.06l-.73-1.63h.61l-.66-1.6h.31l-1.41-4.22h-.07l-1.41 4.22h.3l-.67 1.6h.67l-.73 1.63 1.65.23v.79h.38V102l1.65-.22.11-.06zm-5.91 3.86l-.55-1.22h.46l-.5-1.2h.23l-1.06-3.16-1.06 3.18h.23l-.5 1.2h.46l-.55 1.22 1.24.17v.56h.29v-.56l1.24-.17s.08 0 .07-.02z"/><path class="cls-5" d="M134.35 82c8.49 2.12 10.14 7.11 16.51 8a.21.21 0 0 0 .19-.09 4.53 4.53 0 0 0 .65-2.35 4.88 4.88 0 0 0-4.52-4.88h-.42a6.51 6.51 0 0 0-5.95-5.38 5.18 5.18 0 0 0-1.37.09.59.59 0 0 1-.65-.34 7.7 7.7 0 0 0-6.61-4.75 6.91 6.91 0 0 0-7.26 7.06 8.08 8.08 0 0 0 .18 1.64.2.2 0 0 0 .21.16 27.47 27.47 0 0 1 9.04.84z"/><path class="cls-3" d="M133.32 82.5c8.49 2.12 10.14 7.1 16.51 8a.19.19 0 0 0 .19-.09 4.47 4.47 0 0 0 .65-2.35 4.88 4.88 0 0 0-4.52-4.87 2.75 2.75 0 0 0-.41 0 6.53 6.53 0 0 0-6-5.39 6.19 6.19 0 0 0-1.37.09.56.56 0 0 1-.64-.34 7.77 7.77 0 0 0-6.62-4.75 6.91 6.91 0 0 0-7.26 7.07 8.08 8.08 0 0 0 .18 1.64.21.21 0 0 0 .22.15 27.76 27.76 0 0 1 9.07.84z"/></svg>