<svg xmlns="http://www.w3.org/2000/svg" viewBox="0 0 200 92.67"><defs><style>.cls-2{fill:#424242}.cls-3{fill:#7edfe9}.cls-4{fill:#2ab0c6}.cls-5{fill:#37bedb}</style></defs><g id="Layer_2" data-name="Layer 2"><g id="Layer_1-2" data-name="Layer 1"><path d="M.27 92.67L200 91.92l-.16-49.79s-21.28-27.33-61.61-14.66c-32.59 10.23-66-14.67-85-14.67C15.56 12.8 0 38.82 0 38.82z" fill="#666"/><path class="cls-2" d="M160.69 54a5.18 5.18 0 0 1 0 9.66l-30.78 12c-17.62 6.89-42.06 6.89-59.84 0l-30.78-12a5.18 5.18 0 0 1 0-9.66l30.79-11.9c17.62-6.9 42.22-6.81 59.84 0z"/><path class="cls-3" d="M160.69 49.5a5.18 5.18 0 0 1 0 9.66l-30.78 12C112.3 78 87.86 78 70.08 71.12l-30.78-12a5.18 5.18 0 0 1 0-9.66L70.08 37.6c17.62-6.9 42.22-6.81 59.84 0z"/><ellipse class="cls-4" cx="92.69" cy="62.9" rx="3.97" ry="14.42" transform="rotate(-89.83 92.7 62.896)"/><path class="cls-4" d="M91.77 56.13l-13.68 1.9.19 4.87h28.83l-.18-4.87-15.16-1.9z"/><ellipse class="cls-5" cx="92.51" cy="58.03" rx="3.97" ry="14.42" transform="rotate(-89.83 92.513 58.03)"/><rect class="cls-3" x="67.52" y="27.22" width="1.83" height="5.88" rx=".28" ry=".28" transform="rotate(-78.93 68.425 30.158)"/><path class="cls-3" d="M72.2 22l-4.87-2.07a.34.34 0 0 1-.18-.41l.37-1.34a.26.26 0 0 1 .34-.19l4.88 2.07a.35.35 0 0 1 .17.41l-.37 1.34a.25.25 0 0 1-.34.19zm3.87-8.63l-4-3.46a.35.35 0 0 1 0-.44l.77-1.16a.25.25 0 0 1 .38-.08l4 3.47a.36.36 0 0 1 0 .44l-.76 1.16a.26.26 0 0 1-.39.07z"/><rect class="cls-3" x="133.34" y="33.3" width="5.88" height="1.83" rx=".28" ry=".28" transform="rotate(-5.01 136.37 34.25)"/><path class="cls-3" d="M133.4 25.7l5.06-1.55a.34.34 0 0 0 .22-.39l-.23-1.36a.25.25 0 0 0-.32-.23l-5.06 1.54a.35.35 0 0 0-.22.39l.23 1.37a.26.26 0 0 0 .32.23zm-2.94-8.98l4.34-3a.35.35 0 0 0 .09-.44l-.63-1.28a.26.26 0 0 0-.38-.11l-4.34 3a.35.35 0 0 0-.09.44l.63 1.23a.26.26 0 0 0 .38.16z"/><path d="M129.92 37.6a65.7 65.7 0 0 0-6.92-2.24l-3.93 12.44 4.52 2.89 19.43-8z" opacity=".35" fill="#2ab0c6"/><path class="cls-2" d="M123.53 52.29l1.62-1.08a.18.18 0 0 0-.08-.33L84 44.85a.45.45 0 0 0-.32.06l-2 1.22a.19.19 0 0 0 .07.35l41.36 5.91a.64.64 0 0 0 .42-.1z"/><path class="cls-4" d="M103.84 10.55a6.85 6.85 0 0 0 8.09-6.94v-.19l9 1.28a4.75 4.75 0 0 0 2.49 3.89V51l-38-5.41.2-42.24A3.31 3.31 0 0 0 87.88 0l7.88 1.12a1.11 1.11 0 0 0 0 .19 9.65 9.65 0 0 0 8.08 9.24z"/><path class="cls-4" d="M87.88 0l-1.22.79 1.42 2.16-.2-2.95zm24.05 3.42l-1.22.79 1.46.86-.24-1.65zm11.49 47.54l-1.22.79-.72-1.36 1.18-.65"/><path class="cls-5" d="M102.62 11.34a6.86 6.86 0 0 0 8.09-6.94v-.19l9 1.28a4.72 4.72 0 0 0 2.49 3.88v42.38l-38-5.41V4A3.3 3.3 0 0 0 86.66.79l7.88 1.12a1.1 1.1 0 0 0 0 .18 9.66 9.66 0 0 0 8.08 9.25z"/><path class="cls-3" d="M95.05 41.57A30.21 30.21 0 0 1 92 36.94a8.78 8.78 0 0 1-.83-3.61A7.23 7.23 0 0 1 92 30a20.06 20.06 0 0 1 3.06-3.77 2.28 2.28 0 0 1 1.79-.44l.9.12a3.05 3.05 0 0 1 2 1.26c2.22 3.12 3.72 5.34 4.08 6.07a4.57 4.57 0 0 1 .45 2 4.05 4.05 0 0 1-.46 1.88 22.63 22.63 0 0 1-2.2 2.71h-.06l-1.1-1.62 1.25-1.48a2.68 2.68 0 0 0 .62-1.75 3.46 3.46 0 0 0-.62-1.94l-2.23-3.27-.81-1.19a2.28 2.28 0 0 0-.76-.69 1.55 1.55 0 0 0-1.75.14 22.19 22.19 0 0 0-2.48 3.08A5.55 5.55 0 0 0 93 33.6a6.23 6.23 0 0 0 .63 2.74c.52 1.06 2.58 4 4.23 6.33l-1-.14a3 3 0 0 1-1.79-1M94 24.93a21.42 21.42 0 0 0-3.37 4.15 8.73 8.73 0 0 0-1 4 10.57 10.57 0 0 0 1 4.32A32.19 32.19 0 0 0 94 42.53a4.82 4.82 0 0 0 2.89 1.56l5.17.74a3.71 3.71 0 0 0 2.89-.74 21.06 21.06 0 0 0 3.37-4.15 8.61 8.61 0 0 0 1-4 10.41 10.41 0 0 0-1-4.32 31.52 31.52 0 0 0-3.37-5.1 4.82 4.82 0 0 0-2.95-1.59l-5.17-.74a3.69 3.69 0 0 0-2.89.74m5.48 11.78l-1-1.44a1.5 1.5 0 0 1 0-1.8l1-1.17 1 1.45a1.47 1.47 0 0 1 0 1.8zm4.38-9.26a31.22 31.22 0 0 1 3.06 4.63 8.77 8.77 0 0 1 .82 3.61 7.22 7.22 0 0 1-.82 3.36 20.87 20.87 0 0 1-3.06 3.77 2.29 2.29 0 0 1-1.8.44l-.9-.13a3 3 0 0 1-2-1.25c-2.22-3.12-3.71-5.34-4.07-6.07a4.42 4.42 0 0 1 0-3.87 21.69 21.69 0 0 1 2.2-2.71h.05c.05 0 0 0 0 0l1.11 1.62-1.26 1.48a3.07 3.07 0 0 0 0 3.69l2.24 3.27.8 1.18a2.15 2.15 0 0 0 .77.7 1.54 1.54 0 0 0 1.74-.15 21.89 21.89 0 0 0 2.54-3.02 5.43 5.43 0 0 0 .62-2.55 6.3 6.3 0 0 0-.63-2.75c-.52-1.05-2.57-4-4.23-6.33l1 .15a3 3 0 0 1 1.8 1M85.71 44.75v1.76l-.57-.08v-1.76l.57.08zm0-7.55v5.83l-.57-.08v-5.83l.57.08zm0-7.56v5.84l-.57-.08v-5.84l.57.08zm0-7.56v5.84l-.57-.08V22l.57.08zm0-7.55v5.83l-.57-.08v-5.83l.57.08zm0-7.56v5.84l-.57-.08V6.89l.57.08zm35.51 42.83v1.76l-.56-.08v-1.76l.56.08zm0-7.55v5.83l-.56-.08v-5.83l.56.08zm0-7.56v5.84l-.56-.08v-5.84l.56.08zm0-7.55v5.83l-.56-.08v-5.84l.56.09zm0-7.56v5.83l-.56-.07V19.5l.56.08zm0-7.56v5.84l-.56-.08v-5.84l.56.08z"/><text transform="matrix(0 -.99 .99 .14 114.78 45.25)" font-size="4.56" font-family="BerlingskeSerif-XBd,Berlingske Serif" font-weight="700" fill="#7edfe9"><tspan letter-spacing="-.02em">A</tspan><tspan x="3.43" y="0">dmit 1</tspan></text><ellipse class="cls-5" cx="134.83" cy="53.55" rx=".77" ry="2.81" transform="rotate(-88.74 134.836 53.544)"/><ellipse class="cls-4" cx="134.83" cy="53.39" rx=".77" ry="2.81" transform="rotate(-88.74 134.834 53.392)"/><path class="cls-5" d="M135.41 52.65L134 54.11h.42l1.46-1.46z"/><ellipse class="cls-5" cx="71.53" cy="44.04" rx=".77" ry="2.81" transform="rotate(-88.74 71.534 44.042)"/><ellipse class="cls-4" cx="71.53" cy="43.93" rx=".77" ry="2.81" transform="rotate(-88.74 71.533 43.93)"/><path class="cls-5" d="M74.21 44.21l-4.75-.84a1.78 1.78 0 0 0-.55.23l4.82.85a1.33 1.33 0 0 0 .48-.24z"/></g></g></svg>