<svg xmlns="http://www.w3.org/2000/svg" viewBox="0 0 200 89.76"><defs><style>.cls-3{fill:#7edfe9}.cls-4{fill:#2ab0c6}.cls-5,.cls-6,.cls-7{fill:#37bedb}.cls-6{opacity:.34}.cls-7{opacity:.5}</style></defs><g id="Layer_2" data-name="Layer 2"><g id="Layer_1-2" data-name="Layer 1"><path d="M0 89.76h200V38.89S171.38 9.45 134.48 8.63C92 7.69 62.36 34.51 42.35 36.93 11.21 40.71 0 31.59 0 31.59z" fill="#666"/><path d="M160.69 51.09a5.18 5.18 0 0 1 0 9.66l-30.78 12c-17.62 6.9-42.06 6.9-59.84 0l-30.78-12a5.18 5.18 0 0 1 0-9.66l30.77-11.9c17.62-6.89 42.22-6.81 59.84 0z" fill="#424242"/><path class="cls-3" d="M160.69 46.59a5.18 5.18 0 0 1 0 9.66l-30.78 12c-17.62 6.9-42.06 6.9-59.84 0l-30.78-12a5.18 5.18 0 0 1 0-9.66l30.77-11.9c17.62-6.89 42.22-6.81 59.84 0z"/><path class="cls-4" d="M93 3a4 4 0 0 0-1.17 3l-.1 5.69a5.93 5.93 0 0 0 1.08 3.45 36.55 36.55 0 0 0 4.5 4.75 10.41 10.41 0 0 0 4.1 2 7.81 7.81 0 0 0 4.13-.15 19.41 19.41 0 0 0 4.63-2.68 4 4 0 0 0 1.18-2.93l.1-5.7A5.92 5.92 0 0 0 110.37 7a35.92 35.92 0 0 0-4.5-4.75 10.64 10.64 0 0 0-4.1-2 7.94 7.94 0 0 0-4.14.16A19.53 19.53 0 0 0 93 3m16.23 4.9a3.65 3.65 0 0 1 .66 2.13v1.14c-2-2.29-4.61-5.16-5.57-6A6.36 6.36 0 0 0 101.71 4a5 5 0 0 0-2.61.09 20.65 20.65 0 0 0-3.43 2 1.77 1.77 0 0 0-.42 1.84 2.52 2.52 0 0 0 .57 1l1 1.13 2.87 3.12a3.55 3.55 0 0 0 1.81 1.1 2.48 2.48 0 0 0 1.83-.27l1.65-1 1.42 1.54a.09.09 0 0 1 0 .07v.05a20.86 20.86 0 0 1-3 1.75 3.71 3.71 0 0 1-1.93.07 4.53 4.53 0 0 1-1.89-.93c-.58-.64-2.58-2.74-5.3-5.82a3.66 3.66 0 0 1-.93-2.43v-1a2.49 2.49 0 0 1 .72-1.82 18.44 18.44 0 0 1 4.2-2.44 6.6 6.6 0 0 1 3.45-.13 8.83 8.83 0 0 1 3.42 1.69 34.08 34.08 0 0 1 4.08 4.32m-6.78 4.39a1.43 1.43 0 0 1-1.78-.4l-1.27-1.38 1.31-.8a1.45 1.45 0 0 1 1.78.41l1.26 1.38zm-8.53 1.82a3.66 3.66 0 0 1-.64-2.14v-1.13c2 2.29 4.62 5.16 5.57 5.95a6.4 6.4 0 0 0 2.61 1.29 4.9 4.9 0 0 0 2.61-.1 19.7 19.7 0 0 0 3.43-2 1.73 1.73 0 0 0 .41-1.83 2.42 2.42 0 0 0-.56-1l-1-1.13L103.45 9a2.93 2.93 0 0 0-3.64-.82l-1.66 1-1.42-1.55a.09.09 0 0 1 0-.06v-.05a19.83 19.83 0 0 1 3-1.75 4.21 4.21 0 0 1 3.82.85c.66.55 2.62 2.65 5.33 5.72a3.62 3.62 0 0 1 .92 2.44v1a2.46 2.46 0 0 1-.73 1.82 18.51 18.51 0 0 1-4.18 2.4 6.61 6.61 0 0 1-3.45.13A8.79 8.79 0 0 1 98 18.46a33.52 33.52 0 0 1-4.09-4.31"/><path class="cls-5" d="M92.41 3.37a4 4 0 0 0-1.19 2.93l-.09 5.7a5.83 5.83 0 0 0 1.08 3.44 36.57 36.57 0 0 0 4.5 4.76 10.69 10.69 0 0 0 4.1 2 7.91 7.91 0 0 0 4.13-.15 19.76 19.76 0 0 0 4.63-2.68 4 4 0 0 0 1.18-2.93l.1-5.7a5.9 5.9 0 0 0-1.08-3.44 36.57 36.57 0 0 0-4.5-4.76 10.75 10.75 0 0 0-4.1-2A7.94 7.94 0 0 0 97 .69a19.88 19.88 0 0 0-4.62 2.68m16.23 4.9a3.71 3.71 0 0 1 .66 2.14v1.13c-2-2.29-4.61-5.15-5.57-5.94a6.24 6.24 0 0 0-2.6-1.29 5 5 0 0 0-2.62.09 20.22 20.22 0 0 0-3.42 2 1.75 1.75 0 0 0-.42 1.83 2.47 2.47 0 0 0 .56 1l1 1.13 2.88 3.13a3.53 3.53 0 0 0 1.81 1.09 2.43 2.43 0 0 0 1.83-.26l1.65-1 1.42 1.54a.09.09 0 0 1 0 .06.07.07 0 0 1 0 .06 20.86 20.86 0 0 1-3 1.75 3.82 3.82 0 0 1-1.93.07 4.53 4.53 0 0 1-1.86-1c-.66-.55-2.62-2.65-5.34-5.72a3.7 3.7 0 0 1-.92-2.43v-1a2.52 2.52 0 0 1 .72-1.82 18.81 18.81 0 0 1 4.2-2.43 6.5 6.5 0 0 1 3.45-.13A8.83 8.83 0 0 1 104.56 4a34 34 0 0 1 4.08 4.31m-6.78 4.4a1.44 1.44 0 0 1-1.78-.41l-1.27-1.37 1.31-.8a1.44 1.44 0 0 1 1.78.4l1.26 1.38zm-8.53 1.82a3.71 3.71 0 0 1-.66-2.14v-1.13c2 2.29 4.62 5.15 5.57 5.94a6.22 6.22 0 0 0 2.61 1.29 5 5 0 0 0 2.61-.09 20.78 20.78 0 0 0 3.43-2 1.73 1.73 0 0 0 .41-1.83 2.46 2.46 0 0 0-.56-1l-1-1.12-2.87-3.13a2.93 2.93 0 0 0-3.64-.83l-1.66 1L96.13 8v-.06a.07.07 0 0 1 0-.06 19.83 19.83 0 0 1 3-1.75A4.22 4.22 0 0 1 103 7c.66.55 2.62 2.65 5.33 5.72a3.6 3.6 0 0 1 .92 2.43v1a2.47 2.47 0 0 1-.73 1.82 18.5 18.5 0 0 1-4.19 2.43 6.51 6.51 0 0 1-3.45.13 8.76 8.76 0 0 1-3.42-1.69 34.18 34.18 0 0 1-4.09-4.31"/><path class="cls-4" d="M70.25 40.06l-.61-1.36h.51l-.56-1.34h.26l-1.18-3.53h-.06l-1.18 3.53h.26l-.56 1.34h.51L67 40.06l1.38.19v.63h.32v-.64l1.38-.18s.18.02.17 0zM81 33.2l-.43-1H81l-.39-.94h.18l-.82-2.48-.83 2.48h.18l-.39.94h.36l-.43 1 1 .13v.44H80v-.44l1-.13s.05.01 0 0zm-7.25 2.13l-.56-1.25h.47l-.52-1.24h.24l-1.09-3.26h-.05l-1.09 3.26h.24l-.51 1.24h.47l-.56 1.25 1.27.18v.57h.29v-.58l1.28-.17h.12z"/><path class="cls-6" d="M54.58 43.4a6.53 6.53 0 0 0 3.56 7.11l35.67 17.32z"/><path class="cls-5" d="M44.45 38.5c.06-.26 1.55-3.5 7.9-3.5 5.51 0 9.06 3.93 8.2 7s-6.34 6.72-9.57.86c-3.75-6.76-5.85-4.44-6.53-4.36z"/><path class="cls-4" d="M55.67 46a5.14 5.14 0 0 1 5-5.62s31.31 23.93 33.46 25.3 1.42 3.67-1.4 1.88S55.67 46 55.67 46z"/><path class="cls-7" d="M43.57 50.27A1.85 1.85 0 0 1 44 48.9a2.56 2.56 0 0 0-1.2.64s-.48-.85-.34-1.23a1.64 1.64 0 0 0-.88 1.29 6.08 6.08 0 0 0-.89-.55 4 4 0 0 1 .11 1.22l1.52.49zm8.65 10.06a1.56 1.56 0 0 0-.33-1.17 2.18 2.18 0 0 1 1 .55s.41-.73.29-1.06a1.42 1.42 0 0 1 .82 1.11 4.77 4.77 0 0 1 .77-.47 3.69 3.69 0 0 0-.1 1l-1.3.43zm21.48 2.86a1.36 1.36 0 0 1 .28-1 1.87 1.87 0 0 0-.9.48s-.36-.64-.26-.92a1.24 1.24 0 0 0-.65 1 5 5 0 0 0-.67-.42 3.06 3.06 0 0 1 .08.92l1.14.37zm18.9-6.95a1 1 0 0 0-.21-.75 1.34 1.34 0 0 1 .66.36s.26-.48.19-.69a.91.91 0 0 1 .48.72 3.12 3.12 0 0 1 .5-.31 2.24 2.24 0 0 0-.07.67l-.84.28zm53.48.12a1 1 0 0 0-.21-.76 1.44 1.44 0 0 1 .66.36s.27-.47.19-.68a.93.93 0 0 1 .49.71 2.84 2.84 0 0 1 .49-.3 2 2 0 0 0-.06.67l-.84.27zM103.05 69.5a1 1 0 0 1 .21-.76 1.44 1.44 0 0 0-.66.36s-.26-.47-.19-.68a.88.88 0 0 0-.48.71 2.84 2.84 0 0 0-.49-.3 2.35 2.35 0 0 1 .06.67l.84.27zM64.48 38.47a1.22 1.22 0 0 1 .22-.86 1.5 1.5 0 0 0-.7.39s-.28-.54-.2-.78a1.06 1.06 0 0 0-.52.82 3.21 3.21 0 0 0-.53-.35 2.49 2.49 0 0 1 .07.76l.9.31zm41.07 21.66a1 1 0 0 0-.21-.76 1.44 1.44 0 0 1 .66.36s.26-.47.19-.68a.91.91 0 0 1 .48.71 2.84 2.84 0 0 1 .49-.3 2.35 2.35 0 0 0-.06.67l-.84.27zM78.22 50.08a1 1 0 0 1 .21-.76 1.39 1.39 0 0 0-.67.36s-.26-.47-.18-.68a.91.91 0 0 0-.49.71 3.34 3.34 0 0 0-.49-.31 2.44 2.44 0 0 1 .06.68l.84.27z"/><path class="cls-4" d="M117.6 62.72l-1-2.18h.82l-.89-2.14h.47l-1.89-5.65h-.09l-1.92 5.65h.42l-.89 2.14h.81l-1 2.18v.06l2.21.31v1a.06.06 0 0 0 .06.06h.51a.07.07 0 0 0 .07-.06v-1l2.21-.3.1-.07zm9.18 2.49l-1-2.34h.88l-1-2.31h.45l-2-6.09a.05.05 0 0 0-.1 0l-2 6.09h.45l-1 2.31h.88l-1 2.34v.07l2.38.33v1.08a.07.07 0 0 0 .07.07h.55a.07.07 0 0 0 .07-.07V65.6l2.38-.32-.01-.07zm-14.01-12.87l-.72-1.6h.6l-.65-1.58h.31l-1.4-4.16h-.07l-1.39 4.16h.31l-.66 1.58h.6l-.72 1.6 1.63.23v.73h.38v-.74l1.63-.22h.15zm8.15-.57l-.7-1.57h.59l-.64-1.54h.29l-1.35-4.07h-.07l-1.36 4.07h.3l-.64 1.54h.58l-.7 1.57 1.59.22v.72h.37V52l1.59-.21s.16 0 .15-.02zm8.7 2.46l-.85-1.88h.71l-.77-1.85h.36l-1.64-4.9h-.08l-1.63 4.9h.36l-.77 1.85h.7l-.84 1.88v.06l1.91.27v.86a.06.06 0 0 0 .06.06h.45a.06.06 0 0 0 0-.06v-.87l1.91-.26.12-.06zm6.38 7.5l-1-2.17h.82l-.82-2.14h.41l-1.89-5.65h-.09l-1.89 5.65h.46l-.89 2.14h.81l-1 2.18v.06l2.21.31v1a.06.06 0 0 0 .06.06h.51a.07.07 0 0 0 .07-.06v-1l2.21-.3.02-.08zm6-6.88l-.73-1.62h.61l-.67-1.6h.31l-1.42-4.23h-.07l-1.41 4.23h.31l-.66 1.6h.61l-.73 1.62v.06l1.65.22v.75h.43v-.76l1.77-.22v-.05zm-52.69-8.5l-.71-1.59h.59l-.65-1.56h.3l-1.37-4.14h-.07L86 43.2h.3l-.65 1.56h.6l-.71 1.59 1.62.22v.73h.37v-.74l1.61-.21s.18.02.17 0zm-4.65-5.49l-.8-1.8h.67l-.74-1.78h.35l-1.57-4.68h-.07l-1.57 4.68h.35l-.74 1.78h.67l-.8 1.8 1.83.26V42a.06.06 0 0 0 0 .06h.43a.06.06 0 0 0 0-.06v-.83l1.83-.25.16-.06zM78 38.12l-.56-1.25h.47l-.51-1.23h.23l-1.08-3.26h-.06l-1.08 3.26h.23l-.51 1.23h.47l-.6 1.25 1.27.18v.57h.3v-.58l1.27-.17s.16.02.16 0z"/><path d="M144.6 52.05L130 42.63l4.75-6h.09l-4.94-1.91c-17.62-6.81-42.22-6.89-59.84 0L39.31 46.59a5.18 5.18 0 0 0 0 9.66l30.78 12c17.78 6.9 42.22 6.9 59.84 0l30.78-12a5.18 5.18 0 0 0 2.73-7.2z" fill="none"/><path class="cls-6" d="M130 42.63l14.58 9.42 18.83-3a5.06 5.06 0 0 0-2.74-2.46l-25.83-10h-.09z"/><path class="cls-5" d="M78.64 35.52l14.21-8.64a.67.67 0 0 1 .87.14l3.79 4.44a.53.53 0 0 0 .74.08c1.56-1.15 7.12-5.28 8.76-6.81s8.52-3.16 10.81-3.68a1.59 1.59 0 0 1 1.33.29l12.66 9.55 13.6 16.52-.41 4.05a.82.82 0 0 1-.87.74L109.6 50a17.34 17.34 0 0 1-6.66-1.8L78.66 36.11a.34.34 0 0 1-.02-.59z"/><path class="cls-3" d="M110 46.23l8.72-16.63 1.66-2.3a.28.28 0 0 1 .51.16v7.92a.27.27 0 0 0 .06.17l3.1 3.93 4.28 7a.28.28 0 0 1-.21.43l-14 1.41a1.68 1.68 0 0 1-.91-.16l-3.16-1.51a.27.27 0 0 1-.05-.42zM96.29 33.89l-6.09 4.42a.22.22 0 0 1-.35-.21l.58-3.77a.3.3 0 0 1 0-.1l2.6-3.41a.24.24 0 0 0 .05-.14v-1.93l3.23 4.84a.22.22 0 0 1-.02.3zm34.34.68l12.16 15.64a.26.26 0 0 1-.23.42l-9.41-.63a.27.27 0 0 1-.18-.45l2.41-2.69a.24.24 0 0 0 .07-.18 5.73 5.73 0 0 0-1.34-3.58c-1.12-1.12-3.05-6.69-3.66-8.48a.1.1 0 0 1 .18-.05zm-20.28-8.5l-1.53 1.79-2.17 2.53a2.06 2.06 0 0 0-.43.83l-.72 2.72z"/><path class="cls-7" d="M143.51 42.73a.8.8 0 0 1 .16-.58 1.13 1.13 0 0 0-.5.27s-.2-.36-.14-.52a.7.7 0 0 0-.37.55 2.37 2.37 0 0 0-.38-.23 1.73 1.73 0 0 1 .05.51l.64.2z"/><path class="cls-4" d="M149.85 45.64l-.61-1.37h.51l-.56-1.34h.26l-1.18-3.55h-.06L147 42.93h.26l-.55 1.34h.51l-.61 1.37 1.39.19v.63h.32v-.64l1.39-.18h.14zm9.21 3.05l-.73-1.62h.61l-.66-1.6h.31l-1.41-4.23h-.07l-1.41 4.23h.3l-.67 1.6h.67l-.73 1.62v.05l1.65.23v.75a.05.05 0 0 0 0 .05h.38a.05.05 0 0 0 0-.05V49l1.65-.22.11-.09zm-5.91 3.87l-.55-1.22h.46l-.5-1.21h.23L151.73 47l-1.06 3.17h.23l-.5 1.21h.46l-.55 1.22 1.24.17v.56h.29v-.57l1.24-.16s.08-.03.07-.04z"/><path class="cls-5" d="M134.35 29c8.49 2.11 10.14 7.1 16.51 8a.19.19 0 0 0 .19-.09 4.47 4.47 0 0 0 .65-2.35 4.88 4.88 0 0 0-4.52-4.87 3 3 0 0 0-.42 0 6.51 6.51 0 0 0-5.95-5.39 5.64 5.64 0 0 0-1.37.09.59.59 0 0 1-.65-.34 7.74 7.74 0 0 0-6.61-4.75 6.91 6.91 0 0 0-7.26 7.07 8 8 0 0 0 .18 1.63.2.2 0 0 0 .21.16 27.52 27.52 0 0 1 9.04.84z"/><path class="cls-3" d="M133.32 29.47c8.49 2.12 10.14 7.11 16.51 8a.18.18 0 0 0 .19-.08 4.53 4.53 0 0 0 .65-2.35 4.88 4.88 0 0 0-4.52-4.88h-.41a6.54 6.54 0 0 0-6-5.39 6.19 6.19 0 0 0-1.37.09.56.56 0 0 1-.64-.34 7.74 7.74 0 0 0-6.62-4.74 6.91 6.91 0 0 0-7.26 7.06 8.08 8.08 0 0 0 .18 1.64.22.22 0 0 0 .22.16 27.43 27.43 0 0 1 9.07.83z"/></g></g></svg>