<svg xmlns="http://www.w3.org/2000/svg" viewBox="0 0 1004 124.68"><defs><style>.cls-1{fill:#212018;}</style></defs><title>airbel-ID</title><g id="Layer_2" data-name="Layer 2"><g id="Layer_1-2" data-name="Layer 1"><path class="cls-1" d="M244.27,98.92a2.64,2.64,0,0,1-1.11.31H231.42c-1.61,0-3,.2-5,.3a4.24,4.24,0,0,1-2.31-2.71c-.8-2.41-1.61-4.52-2.51-7a12,12,0,0,1-.8-1.61c-3.32-.5-20.79-.5-23.4,0-1.4,2.81-2.61,5.93-4.21,9.64a11.07,11.07,0,0,0-1.61,1.1,2.91,2.91,0,0,1-.8.2c-1.31.11-2.91,0-4.32.11s-2.61.2-4.12.3a10.92,10.92,0,0,1-3.61,0,28.25,28.25,0,0,0-2.91,0,2.19,2.19,0,0,1-2.41-.61,18.11,18.11,0,0,1,1.1-5.32c1.71-4.61,2.92-9.63,4.62-14.25,1.61-5.22,3.31-10.44,5.32-15.66,1.41-4.12,2.81-8.14,4.52-12.15a35.9,35.9,0,0,0,1.31-4.22c1.5-5.32,4-10.44,6.12-15.56.7-1.91,2-2.51,4-2.51,4.51,0,9.23,0,13.65-.2,1.4,0,2.91.2,4.12.2a3.56,3.56,0,0,1,3.41,2.21,22.41,22.41,0,0,1,1.2,3.11,169.77,169.77,0,0,1,7,17.87c1.41,4,2.61,8,3.92,12A215.51,215.51,0,0,0,241.16,85c.8,2.41,1.4,4.82,2.41,7.23a23.37,23.37,0,0,1,1.7,5.12A9.13,9.13,0,0,1,244.27,98.92ZM205.21,68.71a24.43,24.43,0,0,0,8.74-.2c-1.51-4.32-3.11-8.44-4.82-12.76C207.52,57.76,206.12,62.08,205.21,68.71Z"/><path class="cls-1" d="M258.18,99.23c-1-.11-1-.11-2.81-1.21,0-1.81-.1-3.61-.1-5.22V82.36a10.92,10.92,0,0,0,0-1.81,31.1,31.1,0,0,1,0-6.82c0-3.22.2-6.43-.1-9.74a26.51,26.51,0,0,1,.1-5.62c0-1.21-.1-2.62-.1-4,0-2-.2-4.22,0-6.33a36.41,36.41,0,0,0,0-9.33c-.5-2.11.1-4.42.2-6.63.1-1.71,1.51-2.81,3.42-2.81h3.71c2.81.2,5.62.5,8.23.9h1a3.56,3.56,0,0,1,3.41,2.21,18.5,18.5,0,0,1,.6,2.71V42.4a26.13,26.13,0,0,0,.31,6.33,4.58,4.58,0,0,1,.2,2.11c0,6.62.1,13.15.1,19.77,0,6.93,0,13.86-.1,20.58,0,2.41-.41,4.62-.51,7.23A118.35,118.35,0,0,1,258.18,99.23Z"/><path class="cls-1" d="M312,72.52a2.71,2.71,0,0,0-.5,2.71,7.69,7.69,0,0,1-.2,3.72,20.84,20.84,0,0,0,0,2.51v9.73c0,2.11.2,3.92.2,6.33a7.36,7.36,0,0,0-1.11,1.6,61,61,0,0,1-13.55.41h-2.21c-1.61-.1-1.61-.1-3.71-1.41-.1-3-.1-5.92-.1-9.13,0-6.33-.11-12.55-.11-19V34.07a5,5,0,0,1,.81-3.31,2.81,2.81,0,0,1,1.1-.41c2-.1,3.92-.2,6.13-.2h17.77c1.2,0,2.41.1,3.71.2a16.17,16.17,0,0,0,2.31,0c4.22-.6,8.53-.1,12.65.31a11.93,11.93,0,0,1,3.92,1.1c.8.3,2,.8,2.81,1.2a14.26,14.26,0,0,1,7.53,8.64c1.6,4.12,1.6,8.43,1.1,12.65A31.91,31.91,0,0,1,348,63.08c-1.2,2.61-2.71,4.82-5.42,5.93a3.92,3.92,0,0,1-1,.8,28.66,28.66,0,0,0,2.71,4.72c2,2.71,3.11,5.62,4.71,8.53,1.91,3.62,3.72,7.13,5.73,11,.1,1,.9,2.71.4,4.31a5,5,0,0,1-3.41.2,9.64,9.64,0,0,0-4.32-.6c-3.72,0-7.53-.1-11.05-.1a2.91,2.91,0,0,1-2.6-.9,99.1,99.1,0,0,0-6.43-12A24.27,24.27,0,0,1,326,82.26a8.17,8.17,0,0,0-1-1.81A12.87,12.87,0,0,1,323.07,77a20.28,20.28,0,0,0-3-5.42A26.06,26.06,0,0,0,312,72.52Zm1.71-15.26c2.61,0,5-.1,7.43-.1,1-.2,2.1-.2,3-.3a4.75,4.75,0,0,0,4-3.31c.81-2.31.2-4.62-2.21-6.73-5.72-.8-10.94-.8-14,.3V57A6.74,6.74,0,0,0,313.74,57.26Z"/><path class="cls-1" d="M369,30.15c2.71,0,5.62.1,8.33.1,2.21,0,4.11,0,6.32-.1h2.11c3.21.2,6.13,0,9.34.1,3.51.1,6.93-.4,10.74-.1,3.21.2,6.53.1,9.94.91a12.1,12.1,0,0,1,9.64,10.84c.2,1.91,0,4,.2,5.92,0,1.81-.91,3.52-1.41,5.12-.1.61-.7,1.11-1.2,1.61a44.93,44.93,0,0,1-6.53,7.23.91.91,0,0,0-.3.5c.1.8.91.6,1.21.8a18.51,18.51,0,0,1,6.22,4,14.43,14.43,0,0,1,4.92,10.64,19.66,19.66,0,0,1-2.41,10.54.91.91,0,0,0-.3.71c-1.11,3.21-3.71,4.91-6.43,6.42a10.26,10.26,0,0,1-1.4.4c-1.11-.1-1.81.91-2.61,1.21-2-.3-3.62-.7-5.32.3a10.11,10.11,0,0,1-4.52.6c-1.51,0-3.11-.3-4.42.5-.4.3-1.1.2-1.7.2H370a6.86,6.86,0,0,1-3.92-1.1,4.17,4.17,0,0,1,0-3.11,10.38,10.38,0,0,0,.41-3.72V81.86a60.31,60.31,0,0,1-.51-6.13c-.2-4.61-.2-9.23-.3-14.05,0-3.11-.2-6.13-.3-9-.4-4.52-.2-8.83-.2-13.15a36.49,36.49,0,0,1-.2-4.62,8.05,8.05,0,0,1,.8-3.91A5.09,5.09,0,0,1,369,30.15Zm18.37,24.4a6.85,6.85,0,0,0,.3,1.81c2.61-.2,4.92-.3,7.23-.5s4.72.2,6.93-.41c2.71-2.71,3-3.61,1.4-7.53-1.2-1.2-2.41-2.61-4.12-2.91-3.91.3-7.73-.2-11.74.61Zm17.37,19.18a5.74,5.74,0,0,0-2.91-3,50.94,50.94,0,0,0-6.73.2c-2.51.21-5-.4-7.33.71a7.61,7.61,0,0,0-.3,3.61c0,1.51.2,2.81.3,4.12.2,1.1-.1,2.51.7,3.51.5,0,1,.2,1.41,0a43.89,43.89,0,0,1,6.32-.3h4a5.59,5.59,0,0,0,3.71-1.4A9.55,9.55,0,0,0,404.76,73.73Z"/><path class="cls-1" d="M494.91,96.82c-1.11,1.9-3,2.3-5,2.41a29.6,29.6,0,0,1-5.12.5,16.26,16.26,0,0,1-3.11-.2,36,36,0,0,0-4.52-.3c-4.82.5-9.54-.11-14.36.2a5,5,0,0,1-1.7-.2c-3.92-1.11-8-.51-11.85-.51-2,0-3.72-.1-5.52-.1A2.64,2.64,0,0,1,441.3,97c0-1.61-.2-3.52-.2-5.32,0-5.53-.1-11.15-.1-16.57V47c0-2.21-.2-4.22-.2-6.12a1.55,1.55,0,0,1-.1-.71c.1-3,.3-6.12.3-8.93a3.82,3.82,0,0,1,2.51-1.81,7.5,7.5,0,0,1,2-.2c6.23-.3,12.65-.9,19.28-.9a97.32,97.32,0,0,0,14.26-.3,31.52,31.52,0,0,1,8.23.2,10.44,10.44,0,0,0,3.11.1c1.11.2,1.91.2,2.81.4a12.55,12.55,0,0,1,.71,2.31c.8,4.21.3,8.43.3,12.55a10.09,10.09,0,0,1-.41,1.5,51.46,51.46,0,0,1-6.72.81c-5.22.1-10.54.1-15.76.3a56,56,0,0,0-7.23.5c-.91,2-1.11,4.12-.3,7.83a2.33,2.33,0,0,0,1.5.7c4.22.2,8.64.5,12.95.3,2.91-.1,5.63,0,8.44,0,2,1.41,2.51,3,1.9,5.43a10.35,10.35,0,0,0-.3,2.61V68.2a12.16,12.16,0,0,1-.4,1.61c-.6.2-1.2.5-1.91.7-1.3.1-2.71.1-4,.2-.3,0-.6.2-.9,0a15.49,15.49,0,0,0-6.43-.1c-.6,0-1.2-.1-1.71-.1-2.81,0-5.72.1-8.73.1-.1,0-.4.3-.71.51a3.79,3.79,0,0,0,0,1.5c.31,2.71-.3,5.62.31,8.33,0,.1.3.21.3.21a5.67,5.67,0,0,1,2.31.3c.6,0,1.3.3,2,.3a32.62,32.62,0,0,0,4.42-.2,42.42,42.42,0,0,1,10.74,0,36.5,36.5,0,0,0,9.34-.1c.5-.3,1.11.3,1.81.3A94.64,94.64,0,0,1,494.91,96.82Z"/><path class="cls-1" d="M529.14,29.55c1.21,6.73,1.21,13.15,1.21,19.58V61.38c.2,4.82.5,9.33.8,13.95a35,35,0,0,0,.3,3.72,6,6,0,0,0,3.92.4c3.21-.1,6.22-.4,9.63-.5,4.42-.3,8.94-.41,13.46-.61h.9A3,3,0,0,1,562,80.25a12.85,12.85,0,0,1,.4,2.61c.1,4.22.1,8.13,0,12.15,0,.5-.2,1-.2,1.71a6,6,0,0,1-3.61,1.2c-5.12.4-10.24.8-15.46.8-3.82,0-7.73.2-11.75.2-1.51,0-3-.1-4.72-.2-1.1,0-2.41-.1-3.71,0-3.52.51-7,.2-10.65.2a25.74,25.74,0,0,1-3-.3,5,5,0,0,1-1.81-4.31c0-4,0-8-.2-12-.1-9.84,0-19.78.2-29.62a6.69,6.69,0,0,1,0-2c.61-5.53.21-10.85.61-16.17a15.13,15.13,0,0,0,0-3,2.77,2.77,0,0,1,2.21-2.31c1.2,0,2.51-.2,3.71-.2a20.21,20.21,0,0,0,6.43-.5h.9a20,20,0,0,0,3.31.4,18.81,18.81,0,0,0,3.11-.4C528.34,29.05,528.84,29.25,529.14,29.55Z"/><path class="cls-1" d="M652.12,46.52a16.18,16.18,0,0,1-1.21,1.5,46,46,0,0,1-10.44,4.62c-2,.2-3.72.5-5.42.61a5.19,5.19,0,0,1-2.61-1.71,10.68,10.68,0,0,0-7.33-4.22,14.47,14.47,0,0,0-9.34,2.31,11.85,11.85,0,0,0-3.51,3.92,25.06,25.06,0,0,0-2.91,6c-.91,3.31-1.91,6.63-1.11,9.94a37.92,37.92,0,0,1,.91,4.82c1.3,5,5.32,7.73,10.14,8,.8.2,1.4,0,1.9.2,4.22.3,7.53-1.4,10.44-4a49.84,49.84,0,0,0,6.43-7.42,8.88,8.88,0,0,1,1.41-1.51c1.2.4,2.2.7,3.11,1.1,3.81,1.51,7.33,2.82,11.14,3.92,1.81.6,2.51,1.81,1.91,3.61a1.23,1.23,0,0,1-.3.91c-1.41,2.91-2.61,5.92-5.12,8.43-.81.7-1.11,1.81-1.91,2.51-4.32,4.82-9.54,8.23-16.06,9.34-.91.3-1.81.6-3.12,1.1H622a51.63,51.63,0,0,1-10.24-1.1,23.84,23.84,0,0,1-11.25-6.33c-2.11-2.71-4.42-5.12-5.82-8.13-.8-1.51-1.71-2.91-2.51-4.52a21.05,21.05,0,0,1-2.51-10.64V64.49c0-.8-.3-1.61.2-2.21.8-1.81.3-3.81.5-5.12.5-1.71.91-3.11,1.21-4.32a64.15,64.15,0,0,1,4-10.64,28,28,0,0,1,9.54-10.14,34.49,34.49,0,0,1,5.12-2.31c1-.5,2-.7,3-1.2a15.87,15.87,0,0,1,8.43-1.21c1.21.1,2.62-.1,4,0A53.89,53.89,0,0,1,642.08,33c.3.11.5.41.9.51,3.41,3.31,6.73,6.52,8.93,10.94a11,11,0,0,1,.51,1.21C652.22,46.22,652.22,46.42,652.12,46.52Z"/><path class="cls-1" d="M717.5,96.82c-1.11,1.9-3,2.3-5,2.41a29.7,29.7,0,0,1-5.12.5,16.21,16.21,0,0,1-3.11-.2,36.12,36.12,0,0,0-4.52-.3c-4.82.5-9.54-.11-14.36.2a5,5,0,0,1-1.71-.2c-3.91-1.11-8-.51-11.84-.51-2,0-3.72-.1-5.52-.1a2.64,2.64,0,0,1-2.41-1.6c0-1.61-.21-3.52-.21-5.32,0-5.53-.1-11.15-.1-16.57V47c0-2.21-.2-4.22-.2-6.12a1.55,1.55,0,0,1-.1-.71c.1-3,.3-6.12.3-8.93a3.86,3.86,0,0,1,2.52-1.81,7.5,7.5,0,0,1,2-.2c6.23-.3,12.65-.9,19.28-.9a97.15,97.15,0,0,0,14.25-.3,31.59,31.59,0,0,1,8.24.2,10.42,10.42,0,0,0,3.11.1c1.1.2,1.91.2,2.81.4a11.76,11.76,0,0,1,.7,2.31c.81,4.21.3,8.43.3,12.55a11.31,11.31,0,0,1-.4,1.5,51.88,51.88,0,0,1-6.72.81c-5.22.1-10.54.1-15.77.3a55.68,55.68,0,0,0-7.22.5c-.91,2-1.11,4.12-.3,7.83a2.33,2.33,0,0,0,1.5.7c4.22.2,8.63.5,13,.3,2.91-.1,5.62,0,8.43,0,2,1.41,2.51,3,1.91,5.43a10.35,10.35,0,0,0-.3,2.61V68.2a12.16,12.16,0,0,1-.4,1.61c-.6.2-1.21.5-1.91.7-1.3.1-2.71.1-4,.2-.3,0-.61.2-.91,0a15.44,15.44,0,0,0-6.42-.1c-.6,0-1.21-.1-1.71-.1-2.81,0-5.72.1-8.73.1-.1,0-.4.3-.71.51a3.79,3.79,0,0,0,0,1.5c.31,2.71-.3,5.62.31,8.33,0,.1.3.21.3.21a5.59,5.59,0,0,1,2.3.3c.61,0,1.31.3,2,.3a32.7,32.7,0,0,0,4.42-.2,42.41,42.41,0,0,1,10.74,0,36.5,36.5,0,0,0,9.34-.1c.5-.3,1.1.3,1.81.3A94.64,94.64,0,0,1,717.5,96.82Z"/><path class="cls-1" d="M727.4,86.68V62.78c0-9.23.1-18.27.1-27.31a4.43,4.43,0,0,1,2.11-4.21,57.68,57.68,0,0,1,17.16-.1c1.61,1.8,3.22,3.41,4.72,5.22,1.91,2.41,3.92,5.12,5.93,7.53C762,49.43,766.55,54.85,771,60.27c.6.3.8.91,1.41,1.41a15.25,15.25,0,0,0,.1-4.22,38.87,38.87,0,0,1-.41-5.92V43c-.2-2.41-.5-5.32-.7-7.73v-2.4a10.71,10.71,0,0,0,1.31-1.61c6.12-.2,12.15-.2,18.37-.1a4.19,4.19,0,0,1,.4,1.5c.1,1.11.1,2.21.1,3.42a11.89,11.89,0,0,0,1.21,5.52,23.42,23.42,0,0,0-.1,8.43,4.57,4.57,0,0,1,.1,2,10.15,10.15,0,0,0,0,4.62c-.51,1.91.2,4.21-.3,6.22a15.47,15.47,0,0,0,.3,3.72c.2,1.2-.71,2.31-.3,3.51a1.74,1.74,0,0,1,.2,1.21c-.91,3.61.5,7.53-.2,11.34a20.67,20.67,0,0,0,.2,6.63,24,24,0,0,1-.61,9.63,12,12,0,0,1-4.41.81c-3.52.2-7.13.2-10.65.2a5.56,5.56,0,0,1-4.41-2c-1.41-2-2.82-3.61-4.12-5.42-2.61-3.41-4.82-7.13-7.33-10.24a72.39,72.39,0,0,1-6.52-8.84,3.16,3.16,0,0,0-1-1.3,38.09,38.09,0,0,1-5.52-7.63c-.1-.3-.5-.4-.8-.6a2.07,2.07,0,0,0-.2.6,142.36,142.36,0,0,0,.4,14.56,32.19,32.19,0,0,1,.3,5.42V97.62a16,16,0,0,0-1.31,1.3,2.29,2.29,0,0,1-1.1.31c-3,.3-6,.5-9,.7-1.2,0-2.51.3-3.71.4-1.61.2-1.91.2-4.42-1.21C727.8,94.91,727.4,90.59,727.4,86.68Z"/><path class="cls-1" d="M823.8,98.62c-.3-.5-.6-.8-1.2-1.6,0-3.12,0-6.43-.1-9.54a17,17,0,0,0-.6-5.62,24.18,24.18,0,0,1-.1-5.42V63.59c0-.71.3-1.51.3-2.21a18.91,18.91,0,0,0,.1-4.72,23.4,23.4,0,0,1-.3-7c0-.7-.1-1.2-.1-1.81a5.07,5.07,0,0,0-1.61-.5c-1.41-.1-2.81-.3-4.22-.3-1.9,0-3.71,0-5.42.1a34.57,34.57,0,0,1-9.64-.6,26.87,26.87,0,0,1-.5-6.83,24.34,24.34,0,0,0-.1-6,3.49,3.49,0,0,1,1-2.91,11.08,11.08,0,0,1,3.92-.91c4-.1,7.93-.4,11.85-.6,3.91,0,8.13-.2,12,0,7.53.9,15.06.5,22.59.9l10.34.31a12.44,12.44,0,0,1,1.91.3c.2.7.81,1.3.81,1.9.2,4.22,1,8.54.8,13a1.1,1.1,0,0,1-.3.6,12,12,0,0,1-7.23.9c-3.82-.6-7.73-.1-11.45-.1a7.47,7.47,0,0,0-2.41.5,18.78,18.78,0,0,0-.1,4.12c0,2.11-.2,4.72-.2,6.93,0,2.41.3,4.51-.1,6.72a23.47,23.47,0,0,0-.3,5.32c.3,7.73-.2,15.56-.2,23.29v1.51a3.69,3.69,0,0,1-1.91,3.21Z"/><path class="cls-1" d="M929.58,96.82c-1.1,1.9-3,2.3-5,2.41a29.5,29.5,0,0,1-5.12.5,16.26,16.26,0,0,1-3.11-.2,36,36,0,0,0-4.52-.3c-4.82.5-9.54-.11-14.35.2a5,5,0,0,1-1.71-.2c-3.92-1.11-8-.51-11.85-.51-2,0-3.71-.1-5.52-.1A2.65,2.65,0,0,1,876,97c0-1.61-.2-3.52-.2-5.32,0-5.53-.1-11.15-.1-16.57V47c0-2.21-.2-4.22-.2-6.12a1.55,1.55,0,0,1-.1-.71c.1-3,.3-6.12.3-8.93a3.82,3.82,0,0,1,2.51-1.81,7.54,7.54,0,0,1,2-.2c6.22-.3,12.65-.9,19.27-.9a97.32,97.32,0,0,0,14.26-.3,31.52,31.52,0,0,1,8.23.2,10.45,10.45,0,0,0,3.11.1c1.11.2,1.91.2,2.82.4a11.76,11.76,0,0,1,.7,2.31c.8,4.21.3,8.43.3,12.55a11.31,11.31,0,0,1-.4,1.5,51.82,51.82,0,0,1-6.73.81c-5.22.1-10.54.1-15.76.3a56,56,0,0,0-7.23.5c-.9,2-1.1,4.12-.3,7.83a2.33,2.33,0,0,0,1.51.7c4.21.2,8.63.5,12.95.3,2.91-.1,5.62,0,8.43,0,2,1.41,2.51,3,1.91,5.43a10.35,10.35,0,0,0-.3,2.61V68.2a12.3,12.3,0,0,1-.41,1.61c-.6.2-1.2.5-1.9.7-1.31.1-2.71.1-4,.2-.3,0-.6.2-.9,0a15.49,15.49,0,0,0-6.43-.1c-.6,0-1.2-.1-1.71-.1-2.81,0-5.72.1-8.73.1-.1,0-.4.3-.7.51a3.79,3.79,0,0,0,0,1.5c.3,2.71-.3,5.62.3,8.33,0,.1.3.21.3.21a5.64,5.64,0,0,1,2.31.3c.6,0,1.3.3,2,.3a32.55,32.55,0,0,0,4.41-.2,42.49,42.49,0,0,1,10.75,0,36.43,36.43,0,0,0,9.33-.1c.51-.3,1.11.3,1.81.3A94.64,94.64,0,0,1,929.58,96.82Z"/><path class="cls-1" d="M960.77,72.52a2.67,2.67,0,0,0-.5,2.71,7.57,7.57,0,0,1-.21,3.72,20.84,20.84,0,0,0,0,2.51v9.73c0,2.11.21,3.92.21,6.33a7,7,0,0,0-1.11,1.6,61.06,61.06,0,0,1-13.55.41H943.4c-1.61-.1-1.61-.1-3.72-1.41-.1-3-.1-5.92-.1-9.13,0-6.33-.1-12.55-.1-19V34.07a5,5,0,0,1,.81-3.31,2.81,2.81,0,0,1,1.1-.41c2-.1,3.92-.2,6.12-.2h17.77c1.21,0,2.41.1,3.72.2a16.17,16.17,0,0,0,2.31,0c4.21-.6,8.53-.1,12.65.31a11.87,11.87,0,0,1,3.91,1.1c.81.3,2,.8,2.81,1.2a14.2,14.2,0,0,1,7.53,8.64c1.61,4.12,1.61,8.43,1.11,12.65a32.25,32.25,0,0,1-2.61,8.83C995.5,65.69,994,67.9,991.29,69a4,4,0,0,1-1,.8A30.17,30.17,0,0,0,993,74.53c2,2.71,3.12,5.62,4.72,8.53,1.91,3.62,3.72,7.13,5.72,11,.11,1,.91,2.71.41,4.31a5,5,0,0,1-3.42.2,9.58,9.58,0,0,0-4.31-.6c-3.72,0-7.53-.1-11.05-.1a2.93,2.93,0,0,1-2.61-.9A99,99,0,0,0,976,85a21.21,21.21,0,0,1-1.31-2.71,8.17,8.17,0,0,0-1-1.81A12.59,12.59,0,0,1,971.81,77a20.56,20.56,0,0,0-3-5.42A26.06,26.06,0,0,0,960.77,72.52Zm1.7-15.26c2.61,0,5-.1,7.43-.1,1-.2,2.11-.2,3-.3a4.76,4.76,0,0,0,4-3.31c.8-2.31.2-4.62-2.21-6.73-5.72-.8-10.94-.8-14,.3V57A6.75,6.75,0,0,0,962.47,57.26Z"/><path class="cls-1" d="M131,3.85l-.13-.29-.25-.2C127.56,1,118,0,97.47,0,92.56,0,87,.05,80.59.16,45.36.75,8.05,3.55,3.83,5.93l-.23.16C2,7.6,1.72,10.93,2.72,18.4c.82,6.17.34,25.2-1.09,43.33-4.12,52.23.43,60.21,4.21,61.67,2.35.9,6.6,1.28,26.84,1.28,13.66,0,33.22-.16,65.4-.52,14.64-.17,26.22-1.26,29-2.21l.49-.17.22-.48c1.87-4.13,4-28.2,5.12-58.53C134.09,30.12,132.58,7.57,131,3.85ZM122.29,114,113,115c-4.34.43-23.59.71-43.22.79,0-.35,0-.71,0-1.09.07-2.48.11-4.47.08-6.1,2.9,0,5.71,0,7.81-.16,4.33-.25,10.79-.55,14.11-.64s7.92-.71,9.57-3a3.29,3.29,0,0,0,.46-3c-.56-1.78-10.32-11.48-10.73-11.89C85.6,84.44,78.56,77.18,75.36,73.67,74.74,73,69.19,67,67,66.78s-8.06,6.15-9.2,7.42c-3.52,3.93-11.58,12.16-18,18.35-9.67,9.35-12.15,12.55-11.55,14.88a3.21,3.21,0,0,0,2.49,2.09.66.66,0,0,0,.21,0c4.19,0,28.3-25.18,31.48-28.67l4.26-4.67,7.07,7.35c4.41,4.58,10.11,10.33,12.72,12.83a25.35,25.35,0,0,1,3,3.37c-4.89.53-22.36,1.28-28.08,1.23.36-.44.83-1,1.42-1.63,2.09-2.26,3.45-2.62,5-2.52,2.18.18,3.87-.61,4.49-2.12C73,93,72.14,90.82,70,89c-1.43-1.2-3-2.3-4.85-2.09-2.48.24-4.8,2.64-8.76,7.6-4.75,5.93-6.73,8.76-5.76,10.93s3.86,2.45,9.92,2.82c.78,0,1.63.09,2.52.12.07,3.08.13,5.47.22,7.34H56.65c-17.6,0-29.55-.15-36.51-.46l-9.68-.47-1-49.71,1.44,0c1.91.06,3.54.1,4.93.1.56,0,1.07,0,1.55,0,0,3.5,0,7,.16,9.55.25,4.28.55,10.74.65,14.11s.7,7.92,3,9.58a3.3,3.3,0,0,0,1.91.62,3.41,3.41,0,0,0,1.07-.17C26,98.38,35.64,88.61,36.06,88.2c5.43-5.48,12.69-12.52,16.18-15.7.68-.63,6.71-6.18,6.89-8.38S53,56.05,51.71,54.91c-3.94-3.52-12.17-11.58-18.35-18C24,27.28,20.81,24.79,18.48,25.39a3.21,3.21,0,0,0-2.09,2.49c-1,3.51,25.09,28.46,28.64,31.69l4.67,4.27L42.35,70.9C37.79,75.29,32,81,29.52,83.63a25.1,25.1,0,0,1-3.37,3c-.53-4.89-1.29-22.35-1.23-28.08.44.36,1,.83,1.63,1.42,2.26,2.09,2.64,3.45,2.52,5-.18,2.19.61,3.87,2.12,4.49,1.73.7,3.9-.18,5.68-2.31,1.2-1.43,2.28-3,2.09-4.85-.24-2.48-2.64-4.8-7.6-8.76-5.93-4.75-8.76-6.72-10.93-5.76S18,51.64,17.61,57.7c0,.25,0,.51,0,.77-3.31.08-5.85.14-7.82.23,2.73-41.74,4.41-45.8,5.9-46.26,2.6-.81,24.47-1.89,47.45-2.63.08,3.4.15,5.92.26,7.8-3.11,0-6.16,0-8.4.16-4.31.26-10.77.55-14.11.64s-7.92.71-9.57,3a3.27,3.27,0,0,0-.46,3c.56,1.79,10.32,11.48,10.73,11.9C47,41.75,54.09,49,57.26,52.49c.62.68,6.17,6.71,8.38,6.89h.1c2.33,0,8-6.17,9.1-7.42,3.52-3.94,11.58-12.16,18-18.35,9.67-9.35,12.15-12.55,11.55-14.88a3.21,3.21,0,0,0-2.49-2.09c-3.58-1-28.46,25.09-31.69,28.64L65.92,50,58.85,42.6C54.45,38,48.74,32.27,46.13,29.77a25.35,25.35,0,0,1-3-3.37c4.89-.53,22.35-1.29,28.08-1.23-.36.44-.83,1-1.42,1.63-2.08,2.26-3.45,2.65-5,2.52-2.17-.18-3.87.61-4.49,2.12-.7,1.72.18,3.9,2.31,5.68,1.43,1.2,3,2.28,4.86,2.09,2.47-.24,4.79-2.64,8.75-7.6C81,25.68,83,22.85,82,20.68s-3.86-2.45-9.92-2.82c-.74-.05-1.54-.08-2.37-.12,0-.73,0-1.55.08-2.47.06-2.27.1-4.12.08-5.67,13.76-.4,27.28-.66,36.69-.66,3.45,0,6.26,0,8.35.1l10.3.38-.89,29.71c-.38,5.7-.73,12.47-1,19.36-3.21.08-5.65.14-7.52.24,0-2.8,0-5.5-.17-7.53-.25-4.33-.54-10.79-.64-14.11s-.7-7.92-3-9.57a3.27,3.27,0,0,0-3-.46c-1.79.56-11.48,10.32-11.89,10.74-5.43,5.47-12.69,12.51-16.18,15.7-.69.63-6.71,6.17-6.89,8.38s6.15,8.06,7.42,9.2c3.92,3.51,12.15,11.57,18.34,18,8.5,8.78,11.92,11.64,14.22,11.63a2.51,2.51,0,0,0,.67-.08,3.23,3.23,0,0,0,2.09-2.49c1-3.51-25.1-28.46-28.64-31.69l-4.67-4.26,7.35-7.07c4.58-4.41,10.33-10.11,12.83-12.72a25.35,25.35,0,0,1,3.37-3c.53,4.89,1.28,22.36,1.22,28.08-.44-.36-1-.83-1.62-1.42-2.27-2.08-2.65-3.45-2.52-5,.18-2.19-.62-3.87-2.12-4.48-1.73-.71-3.91.17-5.68,2.3-1.2,1.43-2.28,3-2.1,4.86.25,2.47,2.65,4.79,7.6,8.75,5.94,4.75,8.76,6.72,10.94,5.76s2.45-3.86,2.82-9.92c.06-1,.11-2,.14-3.19l1.89.06c1.91.06,3.54.1,4.93.1H123c-.37,9.62-.61,18.89-.63,25.2Z"/></g></g></svg>